<?xml version="1.0" encoding="UTF-8" standalone="no"?>
<!-- Generator: Adobe Illustrator 16.0.0, SVG Export Plug-In . SVG Version: 6.00 Build 0)  -->

<svg
   xmlns:dc="http://purl.org/dc/elements/1.1/"
   xmlns:cc="http://creativecommons.org/ns#"
   xmlns:rdf="http://www.w3.org/1999/02/22-rdf-syntax-ns#"
   xmlns:svg="http://www.w3.org/2000/svg"
   xmlns="http://www.w3.org/2000/svg"
   xmlns:sodipodi="http://sodipodi.sourceforge.net/DTD/sodipodi-0.dtd"
   xmlns:inkscape="http://www.inkscape.org/namespaces/inkscape"
   version="1.1"
   id="svg2"
   inkscape:export-filename="/home/lollo78/Scrivania/2048.png"
   inkscape:export-xdpi="360"
   inkscape:version="0.91 r13725"
   inkscape:export-ydpi="360"
   sodipodi:docname="2048.svg"
   x="0px"
   y="0px"
   width="64px"
   height="64px"
   viewBox="0 128 64 64"
   enable-background="new 0 128 64 64"
   xml:space="preserve"><metadata
     id="metadata8"><rdf:RDF><cc:Work
         rdf:about=""><dc:format>image/svg+xml</dc:format><dc:type
           rdf:resource="http://purl.org/dc/dcmitype/StillImage" /><dc:title></dc:title></cc:Work></rdf:RDF></metadata><defs
     id="defs6"><linearGradient
       y2="381.18069"
       y1="381.18069"
       x2="-1289.9851"
       x1="-1292.1372"
       id="XMLID_2_-3"
       gradientUnits="userSpaceOnUse"
       gradientTransform="matrix(0.85278194,5.1451198,4.1055758,-1.0687089,-2117.9743,-3451.6677)"><stop
         style="stop-color:#F4F4F4"
         offset="0"
         id="stop12-6" /><stop
         style="stop-color:#CDCDCD"
         offset="1"
         id="stop14-7" /></linearGradient><linearGradient
       y2="381.18069"
       y1="381.18069"
       x2="-1289.9851"
       x1="-1292.1372"
       id="XMLID_2_"
       gradientUnits="userSpaceOnUse"
       gradientTransform="matrix(0.84575923,4.8617736,4.0717661,-1.0098542,-2146.2065,-3054.4403)"><stop
         style="stop-color:#F4F4F4"
         offset="0"
         id="stop12" /><stop
         style="stop-color:#CDCDCD"
         offset="1"
         id="stop14" /></linearGradient><linearGradient
       y2="381.18069"
       y1="381.18069"
       x2="-1289.9851"
       x1="-1292.1372"
       id="XMLID_2_-3-2"
       gradientUnits="userSpaceOnUse"
       gradientTransform="matrix(0.84107336,3.4336677,4.0492068,-0.71321785,-2134.2832,-2118.8589)"><stop
         style="stop-color:#F4F4F4"
         offset="0"
         id="stop12-6-7" /><stop
         style="stop-color:#CDCDCD"
         offset="1"
         id="stop14-7-0" /></linearGradient><linearGradient
       y2="381.18069"
       y1="381.18069"
       x2="-1289.9851"
       x1="-1292.1372"
       id="XMLID_2_-3-2-2"
       gradientUnits="userSpaceOnUse"
       gradientTransform="matrix(-0.85278194,-5.1451198,-4.1055758,1.0687089,2274.3634,3364.023)"><stop
         style="stop-color:#F4F4F4"
         offset="0"
         id="stop12-6-7-6" /><stop
         style="stop-color:#CDCDCD"
         offset="1"
         id="stop14-7-0-1" /></linearGradient><linearGradient
       y2="381.18069"
       y1="381.18069"
       x2="-1289.9851"
       x1="-1292.1372"
       id="XMLID_2_-3-2-7"
       gradientUnits="userSpaceOnUse"
       gradientTransform="matrix(-0.84107336,-3.4336677,-4.0492068,0.71321785,2198.2832,2438.859)"><stop
         style="stop-color:#F4F4F4"
         offset="0"
         id="stop12-6-7-9" /><stop
         style="stop-color:#CDCDCD"
         offset="1"
         id="stop14-7-0-2" /></linearGradient><linearGradient
       y2="381.18069"
       y1="381.18069"
       x2="-1289.9851"
       x1="-1292.1372"
       id="linearGradient4315"
       gradientUnits="userSpaceOnUse"
       gradientTransform="matrix(0.85278194,5.1451198,4.1055758,-1.0687089,-2117.9743,-3451.6677)"><stop
         style="stop-color:#F4F4F4"
         offset="0"
         id="stop4184-6" /><stop
         style="stop-color:#CDCDCD"
         offset="1"
         id="stop4186-0" /></linearGradient></defs><sodipodi:namedview
     pagecolor="#ffffff"
     bordercolor="#666666"
     borderopacity="1"
     objecttolerance="10"
     gridtolerance="10"
     guidetolerance="10"
     inkscape:pageopacity="0"
     inkscape:pageshadow="2"
     inkscape:window-width="1159"
     inkscape:window-height="1028"
     id="namedview4"
     showgrid="false"
     inkscape:zoom="3.6875"
     inkscape:cx="39.562462"
     inkscape:cy="1.5507608"
     inkscape:window-x="458"
     inkscape:window-y="41"
     inkscape:window-maximized="0"
     inkscape:current-layer="svg2"
     inkscape:snap-grids="true" /><path
     style="fill:#f2f2f2;fill-opacity:1"
     d="M 32 5 C 9.5849999 5 5 9.553 5 32 C 5 54.447 9.5139989 59 32 59 C 54.488999 59 59 54.456 59 32 C 59 9.542 54.414999 5 32 5 z M 20.130859 7.7226562 C 20.49286 7.7220375 20.787109 7.7918238 20.787109 8.0742188 L 20.787109 13.480469 C 20.787109 13.420859 31.035156 13.974578 31.035156 13.273438 C 31.035156 12.367138 30.343097 8.3699387 31.035156 7.7929688 C 31.192054 7.6618587 32.957031 7.7973875 32.957031 7.8671875 L 32.957031 10.386719 C 32.957031 12.127529 32.072001 13.554685 34.304688 13.554688 L 41.857422 13.554688 C 44.090109 13.554688 43.205078 12.127529 43.205078 10.386719 C 43.205078 8.2665274 42.557945 7.7929686 45.126953 7.7929688 L 45.126953 12.542969 C 45.126953 14.061809 45.927619 13.552734 47.650391 13.552734 L 53.835938 13.552734 C 54.360219 13.552734 54.500346 15.181641 53.154297 15.181641 L 45.669922 15.181641 C 44.514936 15.181641 45.126953 17.762927 45.126953 18.560547 C 45.126953 19.392747 44.495907 22.519531 45.669922 22.519531 L 52.6875 22.519531 C 53.646355 22.519531 54.087891 22.235217 54.087891 23.091797 C 54.087891 23.796877 54.388825 24.148438 53.542969 24.148438 C 53.542969 24.148438 46.695366 23.552545 37.861328 23.890625 C 30.642408 24.166915 22.992946 23.780119 19.96875 23.974609 C 16.634784 24.189029 9.9277344 24.148436 9.9277344 24.148438 C 9.4993709 24.148438 9.4454598 22.730951 9.671875 22.519531 C 9.8501322 22.353221 11.410815 22.519531 11.658203 22.519531 L 18.609375 22.519531 C 19.174441 22.519531 18.867188 18.554391 18.867188 17.988281 C 18.867188 16.721041 19.613119 15.181641 17.910156 15.181641 L 10.230469 15.181641 C 9.1387849 15.181641 9.2634185 13.554688 10.626953 13.554688 L 18.306641 13.554688 C 19.502792 13.554688 18.867188 10.663713 18.867188 9.8203125 C 18.867188 9.4952625 18.633384 7.7929688 19.066406 7.7929688 C 19.33923 7.7929688 19.768859 7.723275 20.130859 7.7226562 z M 30.099609 14.984375 C 28.762585 14.91852 26.510379 15.181641 25.912109 15.181641 L 20.847656 15.181641 C 20.724156 15.181641 20.787109 21.773611 20.787109 22.519531 L 30.974609 22.519531 C 30.679841 22.519531 31.623146 15.648621 31.037109 15.181641 C 30.890406 15.064566 30.545284 15.006327 30.099609 14.984375 z M 42.269531 14.984375 C 40.932708 14.91852 38.679719 15.181641 38.082031 15.181641 L 33.017578 15.181641 C 32.894478 15.181641 32.957031 21.773611 32.957031 22.519531 L 43.144531 22.519531 C 42.850151 22.519531 43.791115 15.648621 43.205078 15.181641 C 43.058472 15.064566 42.715139 15.006327 42.269531 14.984375 z M 16.113281 25.841797 C 17.321823 25.841797 18.274369 26.104146 18.96875 26.628906 C 19.663132 27.148373 20.009766 27.858666 20.009766 28.759766 C 20.009766 29.533659 19.797097 30.238927 19.373047 30.875 C 18.948997 31.51108 18.015987 32.369852 16.574219 33.451172 L 13.609375 35.677734 L 18.769531 35.677734 L 18.332031 37.927734 L 9.7128906 37.927734 L 10.158203 35.662109 L 15.207031 31.853516 C 15.758296 31.429469 16.17861 30.999106 16.464844 30.564453 C 16.756378 30.1298 16.900391 29.708928 16.900391 29.300781 C 16.900391 28.866135 16.751913 28.529542 16.455078 28.291016 C 16.158243 28.052489 15.742394 27.933594 15.207031 27.933594 C 14.703473 27.933594 14.141658 28.032955 13.521484 28.234375 C 12.901312 28.430502 12.203019 28.736944 11.423828 29.150391 L 11.931641 26.628906 C 12.652525 26.363873 13.360306 26.168229 14.054688 26.041016 C 14.749066 25.908502 15.434801 25.841797 16.113281 25.841797 z M 27.634766 25.841797 C 28.922817 25.841797 29.914993 26.212991 30.609375 26.955078 C 31.309056 27.691865 31.658203 28.743768 31.658203 30.111328 C 31.658203 31.166155 31.512237 32.19294 31.220703 33.189453 C 30.929169 34.185973 30.520855 35.059813 29.996094 35.8125 C 29.460731 36.586387 28.81463 37.172759 28.056641 37.570312 C 27.298652 37.962559 26.452441 38.158203 25.519531 38.158203 C 24.220879 38.158203 23.225631 37.789521 22.53125 37.052734 C 21.842169 36.315948 21.496094 35.256514 21.496094 33.873047 C 21.496094 32.834127 21.639547 31.814879 21.925781 30.818359 C 22.217315 29.816546 22.623117 28.945218 23.142578 28.203125 C 23.688542 27.423938 24.337155 26.835047 25.089844 26.4375 C 25.842532 26.039953 26.691255 25.841797 27.634766 25.841797 z M 50.34375 25.841797 C 51.594697 25.841797 52.562872 26.074562 53.251953 26.541016 C 53.941034 27.007469 54.287109 27.665565 54.287109 28.513672 C 54.287109 29.266352 54.044857 29.909946 53.5625 30.445312 C 53.085445 30.980673 52.402223 31.366942 51.511719 31.605469 C 52.158395 31.854602 52.635923 32.188675 52.943359 32.607422 C 53.250795 33.026175 53.404297 33.557845 53.404297 34.199219 C 53.404297 35.418359 52.926768 36.38151 51.972656 37.091797 C 51.023845 37.802084 49.719642 38.158203 48.060547 38.158203 C 46.751293 38.158203 45.731485 37.898373 45 37.378906 C 44.273815 36.854146 43.910156 36.124313 43.910156 35.191406 C 43.910156 34.3486 44.189529 33.613189 44.746094 32.982422 C 45.30796 32.346349 46.08049 31.886409 47.066406 31.605469 C 46.493939 31.366942 46.065531 31.057421 45.779297 30.675781 C 45.498364 30.294135 45.357422 29.836148 45.357422 29.300781 C 45.357422 28.224761 45.797831 27.378545 46.677734 26.763672 C 47.562938 26.148799 48.785368 25.841797 50.34375 25.841797 z M 38.861328 26.056641 L 42.34375 26.056641 L 40.873047 33.546875 L 42.566406 33.546875 L 42.144531 35.765625 L 40.451172 35.765625 L 40.03125 37.927734 L 37.128906 37.927734 L 37.558594 35.765625 L 32.214844 35.765625 L 32.732422 33.140625 L 38.861328 26.056641 z M 50.064453 27.765625 C 49.52379 27.765625 49.088404 27.926107 48.759766 28.244141 C 48.436428 28.556881 48.275391 28.972727 48.275391 29.492188 C 48.275391 29.852628 48.391773 30.142608 48.625 30.365234 C 48.863529 30.587861 49.177508 30.699219 49.564453 30.699219 C 50.105117 30.699219 50.536038 30.543202 50.859375 30.230469 C 51.188014 29.912429 51.353516 29.494069 51.353516 28.974609 C 51.353516 28.608863 51.232669 28.316936 50.994141 28.099609 C 50.760914 27.876989 50.451399 27.765625 50.064453 27.765625 z M 27.373047 27.933594 C 26.959599 27.933594 26.59594 28.052489 26.283203 28.291016 C 25.970466 28.524242 25.71063 28.882881 25.503906 29.365234 C 25.344888 29.709781 25.198922 30.101069 25.066406 30.541016 C 24.939191 30.980969 24.827833 31.461009 24.732422 31.980469 C 24.642311 32.457522 24.573096 32.900447 24.525391 33.308594 C 24.477691 33.71674 24.455078 34.060857 24.455078 34.341797 C 24.455078 34.930164 24.563925 35.368064 24.78125 35.654297 C 24.998575 35.93523 25.330138 36.074219 25.775391 36.074219 C 26.183539 36.074219 26.542733 35.952811 26.855469 35.708984 C 27.173506 35.465158 27.438365 35.106519 27.650391 34.634766 C 27.798808 34.300826 27.934727 33.9221 28.056641 33.498047 C 28.178555 33.068694 28.292425 32.563535 28.398438 31.980469 C 28.488547 31.508715 28.557763 31.073328 28.605469 30.675781 C 28.653169 30.278235 28.675781 29.939143 28.675781 29.658203 C 28.675781 29.064543 28.5714 28.629156 28.359375 28.353516 C 28.14735 28.072589 27.818299 27.933594 27.373047 27.933594 z M 38.941406 28.664062 L 34.71875 33.546875 L 37.978516 33.546875 L 38.941406 28.664062 z M 49.023438 32.615234 C 48.403265 32.615234 47.883593 32.8279 47.464844 33.251953 C 47.051395 33.6707 46.84375 34.187861 46.84375 34.802734 C 46.84375 35.242688 46.979668 35.591829 47.25 35.851562 C 47.520332 36.105983 47.889015 36.234375 48.355469 36.234375 C 48.986243 36.234375 49.508427 36.026721 49.921875 35.613281 C 50.335324 35.194528 50.541016 34.674861 50.541016 34.054688 C 50.541016 33.614741 50.404538 33.265593 50.128906 33.005859 C 49.858574 32.746126 49.489892 32.615234 49.023438 32.615234 z M 10.457031 39.851562 C 10.457031 39.851562 17.30464 40.447465 26.138672 40.109375 C 33.357597 39.833075 41.007059 40.219881 44.03125 40.025391 C 47.365217 39.810971 54.072266 39.851562 54.072266 39.851562 C 54.500633 39.851562 54.554543 41.269049 54.328125 41.480469 C 54.149867 41.646779 52.589183 41.480469 52.341797 41.480469 L 45.390625 41.480469 C 44.825552 41.480469 45.132812 45.445609 45.132812 46.011719 C 45.132813 47.278959 44.386882 48.818359 46.089844 48.818359 L 53.769531 48.818359 C 54.861224 48.818359 54.736581 50.445316 53.373047 50.445312 L 45.693359 50.445312 C 44.497211 50.445312 45.132812 53.336286 45.132812 54.179688 C 45.132812 54.504738 45.366616 56.207031 44.933594 56.207031 C 44.387949 56.207031 43.212891 56.490571 43.212891 55.925781 L 43.212891 50.519531 C 43.212891 50.579141 32.964844 50.025436 32.964844 50.726562 C 32.964844 51.632872 33.656911 55.630061 32.964844 56.207031 C 32.807949 56.338141 31.042969 56.202612 31.042969 56.132812 L 31.042969 53.613281 C 31.042969 51.872471 31.928 50.445314 29.695312 50.445312 L 22.142578 50.445312 C 19.90989 50.445312 20.794922 51.872471 20.794922 53.613281 C 20.794922 55.733471 21.442054 56.207031 18.873047 56.207031 L 18.873047 51.457031 C 18.873047 49.938191 18.072376 50.447266 16.349609 50.447266 L 10.164062 50.447266 C 9.6397852 50.447266 9.4996549 48.818359 10.845703 48.818359 L 18.330078 48.818359 C 19.48506 48.818359 18.873047 46.237073 18.873047 45.439453 C 18.873047 44.607253 19.504094 41.480469 18.330078 41.480469 L 11.3125 41.480469 C 10.353648 41.480469 9.9121094 41.764783 9.9121094 40.908203 C 9.9121094 40.203123 9.6111793 39.851562 10.457031 39.851562 z M 20.855469 41.480469 C 21.149873 41.480469 20.20889 48.351379 20.794922 48.818359 C 21.38135 49.286659 25.121053 48.818359 25.917969 48.818359 L 30.982422 48.818359 C 31.105502 48.818359 31.042969 42.226389 31.042969 41.480469 L 20.855469 41.480469 z M 33.025391 41.480469 C 33.320174 41.480469 32.376859 48.351379 32.962891 48.818359 C 33.549712 49.286659 37.290195 48.818359 38.087891 48.818359 L 43.152344 48.818359 C 43.275824 48.818359 43.212891 42.226389 43.212891 41.480469 L 33.025391 41.480469 z "
     transform="translate(0,128)"
     id="Utilities-6-5" /></svg>