<?xml version="1.0" encoding="UTF-8" standalone="no"?>
<!-- Generator: Adobe Illustrator 16.0.0, SVG Export Plug-In . SVG Version: 6.00 Build 0)  -->

<svg
   xmlns:dc="http://purl.org/dc/elements/1.1/"
   xmlns:cc="http://creativecommons.org/ns#"
   xmlns:rdf="http://www.w3.org/1999/02/22-rdf-syntax-ns#"
   xmlns:svg="http://www.w3.org/2000/svg"
   xmlns="http://www.w3.org/2000/svg"
   xmlns:sodipodi="http://sodipodi.sourceforge.net/DTD/sodipodi-0.dtd"
   xmlns:inkscape="http://www.inkscape.org/namespaces/inkscape"
   version="1.1"
   id="svg2"
   inkscape:export-filename="/home/lollo78/Scrivania/2048-content.png"
   inkscape:export-xdpi="360"
   inkscape:version="0.91 r13725"
   inkscape:export-ydpi="360"
   sodipodi:docname="2048-content.svg"
   x="0px"
   y="0px"
   width="64px"
   height="64px"
   viewBox="0 128 64 64"
   enable-background="new 0 128 64 64"
   xml:space="preserve"><metadata
     id="metadata8"><rdf:RDF><cc:Work
         rdf:about=""><dc:format>image/svg+xml</dc:format><dc:type
           rdf:resource="http://purl.org/dc/dcmitype/StillImage" /><dc:title></dc:title></cc:Work></rdf:RDF></metadata><defs
     id="defs6" /><sodipodi:namedview
     pagecolor="#ffffff"
     bordercolor="#666666"
     borderopacity="1"
     objecttolerance="10"
     gridtolerance="10"
     guidetolerance="10"
     inkscape:pageopacity="0"
     inkscape:pageshadow="2"
     inkscape:window-width="871"
     inkscape:window-height="373"
     id="namedview4"
     showgrid="false"
     inkscape:zoom="2.6074563"
     inkscape:cx="-100.27785"
     inkscape:cy="17.137222"
     inkscape:window-x="662"
     inkscape:window-y="105"
     inkscape:window-maximized="0"
     inkscape:current-layer="svg2" /><path
     inkscape:connector-curvature="0"
     style="fill:#f2f2f2;fill-opacity:1"
     d="m 20.130855,135.72224 c 0.362,-6.2e-4 0.65625,0.0692 0.65625,0.35156 l 0,5.40625 c 0,-0.0596 10.24805,0.49411 10.24805,-0.20703 0,-0.9063 -0.69206,-4.9035 0,-5.48047 0.1569,-0.13111 1.92187,0.004 1.92187,0.0742 l 0,2.51953 c 0,1.74081 -0.88503,3.16796 1.34766,3.16797 l 7.55273,0 c 2.23269,0 1.34766,-1.42716 1.34766,-3.16797 0,-2.12019 -0.64713,-2.59375 1.92188,-2.59375 l 0,4.75 c 0,1.51884 0.80066,1.00976 2.52343,1.00976 l 6.18555,0 c 0.52428,0 0.66441,1.62891 -0.68164,1.62891 l -7.48438,0 c -1.15498,0 -0.54296,2.58129 -0.54296,3.37891 0,0.8322 -0.63105,3.95898 0.54296,3.95898 l 7.01758,0 c 0.95886,0 1.40039,-0.28431 1.40039,0.57227 0,0.70508 0.30094,1.05664 -0.54492,1.05664 0,0 -6.8476,-0.5959 -15.68164,-0.25782 -7.21892,0.27629 -14.86838,-0.1105 -17.89258,0.084 -3.333959,0.21443 -10.0410092,0.17383 -10.0410092,0.17383 -0.42837,0 -0.48228,-1.41748 -0.25586,-1.6289 0.17826,-0.16631 1.7389402,0 1.9863302,0 l 6.95117,0 c 0.56506,0 0.25781,-3.96514 0.25781,-4.53125 0,-1.26724 0.745929,-2.80664 -0.95703,-2.80664 l -7.67969,0 c -1.0916802,0 -0.9670502,-1.62696 0.39649,-1.62696 l 7.67968,0 c 1.196159,0 0.56055,-2.89097 0.56055,-3.73437 0,-0.32505 -0.2338,-2.02734 0.19922,-2.02734 0.27282,0 0.702449,-0.0697 1.064449,-0.0703 z m 9.96875,7.26171 c -1.33702,-0.0659 -3.58923,0.19727 -4.1875,0.19727 l -5.06445,0 c -0.1235,0 -0.0606,6.59197 -0.0606,7.33789 l 10.1875,0 c -0.29477,0 0.64854,-6.87091 0.0625,-7.33789 -0.1467,-0.11707 -0.49183,-0.17531 -0.9375,-0.19727 z m 12.16992,0 c -1.33682,-0.0659 -3.58981,0.19727 -4.1875,0.19727 l -5.06445,0 c -0.1231,0 -0.0605,6.59197 -0.0605,7.33789 l 10.1875,0 c -0.29438,0 0.64658,-6.87091 0.0605,-7.33789 -0.14661,-0.11707 -0.48994,-0.17531 -0.93555,-0.19727 z m -26.156249,10.85743 c 1.20855,0 2.16109,0.26235 2.85547,0.78711 0.694389,0.51946 1.041019,1.22976 1.041019,2.13086 0,0.77389 -0.21267,1.47916 -0.636719,2.11523 -0.42405,0.63608 -1.35706,1.49485 -2.79883,2.57617 l -2.96484,2.22656 5.16015,0 -0.4375,2.25 -8.6191402,0 0.4453202,-2.26562 5.04882,-3.80859 c 0.55127,-0.42405 0.97158,-0.85441 1.25782,-1.28907 0.29153,-0.43465 0.43554,-0.85552 0.43554,-1.26367 0,-0.43465 -0.14847,-0.77124 -0.44531,-1.00976 -0.29683,-0.23853 -0.71268,-0.35743 -1.24805,-0.35743 -0.50355,0 -1.06537,0.0994 -1.68554,0.30078 -0.62018,0.19613 -1.31847,0.50257 -2.09766,0.91602 l 0.50781,-2.52148 c 0.72089,-0.26504 1.42867,-0.46068 2.12305,-0.58789 0.69438,-0.13252 1.38011,-0.19922 2.05859,-0.19922 z m 11.521489,0 c 1.28805,0 2.28023,0.37119 2.97461,1.11328 0.69968,0.73678 1.04883,1.78869 1.04883,3.15625 0,1.05482 -0.14597,2.08161 -0.4375,3.07812 -0.29154,0.99652 -0.69985,1.87036 -1.22461,2.62305 -0.53537,0.77389 -1.18147,1.36026 -1.93946,1.75781 -0.75799,0.39225 -1.6042,0.58789 -2.53711,0.58789 -1.29865,0 -2.2939,-0.36868 -2.98828,-1.10547 -0.68908,-0.73678 -1.03515,-1.79622 -1.03515,-3.17968 0,-1.03892 0.14345,-2.05817 0.42968,-3.05469 0.29154,-1.00181 0.69734,-1.87314 1.2168,-2.61524 0.54596,-0.77918 1.19458,-1.36807 1.94727,-1.76562 0.75268,-0.39755 1.60141,-0.5957 2.54492,-0.5957 z m 22.70898,0 c 1.25095,0 2.21912,0.23276 2.90821,0.69922 0.68908,0.46645 1.03515,1.12455 1.03515,1.97265 0,0.75268 -0.24225,1.39628 -0.72461,1.93164 -0.47705,0.53536 -1.16027,0.92163 -2.05078,1.16016 0.64668,0.24913 1.12421,0.5832 1.43164,1.00195 0.30744,0.41875 0.46094,0.95043 0.46094,1.5918 0,1.21914 -0.47753,2.18229 -1.43164,2.89258 -0.94881,0.71028 -2.25302,1.0664 -3.91211,1.0664 -1.30925,0 -2.32906,-0.25983 -3.06055,-0.77929 -0.72618,-0.52476 -1.08984,-1.2546 -1.08984,-2.1875 0,-0.84281 0.27937,-1.57822 0.83594,-2.20899 0.56186,-0.63607 1.33439,-1.09601 2.32031,-1.37695 -0.57247,-0.23853 -1.00088,-0.54805 -1.28711,-0.92969 -0.28093,-0.38165 -0.42188,-0.83963 -0.42188,-1.375 0,-1.07602 0.44041,-1.92224 1.32032,-2.53711 0.8852,-0.61487 2.10763,-0.92187 3.66601,-0.92187 z m -11.48242,0.21484 3.48242,0 -1.4707,7.49023 1.69336,0 -0.42188,2.21875 -1.69336,0 -0.41992,2.16211 -2.90234,0 0.42969,-2.16211 -5.34375,0 0.51757,-2.625 z m 11.20313,1.70898 c -0.54067,0 -0.97605,0.16049 -1.30469,0.47852 -0.32334,0.31274 -0.48438,0.72859 -0.48438,1.24805 0,0.36044 0.11639,0.65042 0.34961,0.87304 0.23853,0.22263 0.55251,0.33399 0.93946,0.33399 0.54066,0 0.97158,-0.15602 1.29492,-0.46875 0.32864,-0.31804 0.49414,-0.7364 0.49414,-1.25586 0,-0.36575 -0.12085,-0.65767 -0.35938,-0.875 -0.23322,-0.22262 -0.54274,-0.33399 -0.92968,-0.33399 z m -22.69141,0.16797 c -0.41345,0 -0.77711,0.1189 -1.08984,0.35743 -0.31274,0.23322 -0.57258,0.59186 -0.7793,1.07421 -0.15902,0.34455 -0.30499,0.73584 -0.4375,1.17579 -0.12722,0.43995 -0.23857,0.91999 -0.33399,1.43945 -0.0901,0.47705 -0.15932,0.91998 -0.20703,1.32812 -0.0477,0.40815 -0.0703,0.75227 -0.0703,1.03321 0,0.58836 0.10885,1.02626 0.32618,1.3125 0.21732,0.28093 0.54888,0.41992 0.99414,0.41992 0.40814,0 0.76734,-0.12141 1.08007,-0.36524 0.31804,-0.24382 0.5829,-0.60246 0.79493,-1.07421 0.14841,-0.33394 0.28433,-0.71267 0.40625,-1.13672 0.12191,-0.42936 0.23578,-0.93452 0.34179,-1.51758 0.0901,-0.47176 0.15933,-0.90714 0.20703,-1.30469 0.0477,-0.39755 0.0703,-0.73664 0.0703,-1.01758 0,-0.59366 -0.10438,-1.02904 -0.3164,-1.30468 -0.21203,-0.28093 -0.54108,-0.41993 -0.98633,-0.41993 z m 11.56836,0.73047 -4.22266,4.88281 3.25977,0 z m 10.08203,3.95117 c -0.62017,0 -1.13984,0.21267 -1.55859,0.63672 -0.41345,0.41875 -0.6211,0.93591 -0.6211,1.55078 0,0.43996 0.13592,0.7891 0.40625,1.04883 0.27033,0.25442 0.63902,0.38281 1.10547,0.38281 0.63078,0 1.15296,-0.20765 1.56641,-0.62109 0.41345,-0.41875 0.61914,-0.93842 0.61914,-1.55859 0,-0.43995 -0.13648,-0.7891 -0.41211,-1.04883 -0.27033,-0.25973 -0.63902,-0.39063 -1.10547,-0.39063 z m -38.566409,7.23633 c 0,0 6.84761,0.5959 15.681639,0.25781 7.21893,-0.2763 14.86839,0.11051 17.89258,-0.084 3.33397,-0.21441 10.04102,-0.17382 10.04102,-0.17382 0.42837,0 0.48228,1.41748 0.25586,1.6289 -0.17826,0.16631 -1.73894,0 -1.98633,0 l -6.95117,0 c -0.56508,0 -0.25782,3.96514 -0.25782,4.53125 1e-5,1.26724 -0.74593,2.80664 0.95704,2.80664 l 7.67968,0 c 1.0917,0 0.96705,1.62696 -0.39648,1.62696 l -7.67969,0 c -1.19615,0 -0.56055,2.89097 -0.56055,3.73437 0,0.32505 0.23381,2.02735 -0.19921,2.02735 -0.54565,0 -1.72071,0.28353 -1.72071,-0.28125 l 0,-5.40625 c 0,0.0596 -10.24804,-0.4941 -10.24804,0.20703 0,0.90631 0.69206,4.90349 0,5.48047 -0.1569,0.1311 -1.92188,-0.004 -1.92188,-0.0742 l 0,-2.51953 c 0,-1.74081 0.88503,-3.16796 -1.34766,-3.16797 l -7.55273,0 c -2.23269,0 -1.34765,1.42716 -1.34765,3.16797 0,2.12019 0.64713,2.59375 -1.921879,2.59375 l 0,-4.75 c 0,-1.51884 -0.80067,-1.00976 -2.52344,-1.00976 l -6.18555,0 c -0.5242702,0 -0.6644002,-1.62891 0.68165,-1.62891 l 7.48437,0 c 1.15498,0 0.54297,-2.58128 0.54297,-3.3789 0,-0.8322 0.631049,-3.95899 -0.54297,-3.95899 l -7.01758,0 c -0.95885,0 -1.4003902,0.28432 -1.4003902,-0.57226 0,-0.70508 -0.30093,-1.05665 0.5449202,-1.05665 z m 10.398439,1.62891 c 0.29441,0 -0.64658,6.87091 -0.0605,7.33789 0.58643,0.4683 4.32613,0 5.12305,0 l 5.06445,0 c 0.12308,0 0.0605,-6.59197 0.0605,-7.33789 z m 12.16992,0 c 0.29479,0 -0.64853,6.87091 -0.0625,7.33789 0.58682,0.4683 4.32731,0 5.125,0 l 5.06446,0 c 0.12348,0 0.0606,-6.59197 0.0606,-7.33789 z"
     id="Utilities-6-5-2"
     sodipodi:nodetypes="cscscssssscssssssssscssccsssssssssccsscccccssccccscssccccccccscsccccsscssccscsccsssssccsscscscccscsccccccccccccscscscscsscccccscscccccscsccccscscscscscssccsssssssssscscssssscsssssssssccccssccccsscc" /></svg>