<?xml version="1.0" encoding="utf-8"?>
<!-- Generator: Adobe Illustrator 16.0.0, SVG Export Plug-In . SVG Version: 6.00 Build 0)  -->
<!DOCTYPE svg PUBLIC "-//W3C//DTD SVG 1.1//EN" "http://www.w3.org/Graphics/SVG/1.1/DTD/svg11.dtd">
<svg version="1.1" id="Calque_1" xmlns="http://www.w3.org/2000/svg" xmlns:xlink="http://www.w3.org/1999/xlink" x="0px" y="0px"
	 width="64px" height="64px" viewBox="0 0 64 64" enable-background="new 0 0 64 64" xml:space="preserve">
<path fill="#F2F2F2" d="M35.706,38.292L29.414,32l6.293-6.293l0,0C35.888,25.525,36,25.276,36,25c0-0.553-0.447-1-1-1
	c-0.276,0-0.526,0.112-0.707,0.293l-7,7C27.112,31.474,27,31.724,27,32s0.112,0.525,0.293,0.707l0,0l7,7l0,0
	C34.475,39.888,34.725,40,35,40c0.553-0.001,1-0.448,1-1C36,38.723,35.888,38.473,35.706,38.292z"/>
</svg>
