<?xml version="1.0" encoding="utf-8"?>
<!-- Generator: Adobe Illustrator 16.0.0, SVG Export Plug-In . SVG Version: 6.00 Build 0)  -->
<!DOCTYPE svg PUBLIC "-//W3C//DTD SVG 1.1//EN" "http://www.w3.org/Graphics/SVG/1.1/DTD/svg11.dtd">
<svg version="1.1" id="Calque_1" xmlns="http://www.w3.org/2000/svg" xmlns:xlink="http://www.w3.org/1999/xlink" x="0px" y="0px"
	 width="64px" height="64px" viewBox="0 0 64 64" enable-background="new 0 0 64 64" xml:space="preserve">
<path id="Atari_Jaguar" fill="#F2F2F2" d="M55,12c-3,0-16,1-23,1s-20-1-23-1c-1,0-1,0.447-1,1v4c0,0.553,0,1,1,1
	c0.266,0,0.615,0.01,1,0.024V20c-0.553,0-1,0.447-1,1v30c0,0.553,0.447,1,1,1h44c0.553,0,1-0.447,1-1V21c0-0.553-0.447-1-1-1v-1.976
	C54.385,18.01,54.734,18,55,18c1,0,1-0.447,1-1v-4C56,12.447,56,12,55,12z M53,49H11v-1h42V49z M53,47H11v-1h42V47z M53,45H11v-1h42
	V45z M53,41c0,0.553-0.447,1-1,1H12c-0.553,0-1-0.447-1-1V23c0-0.553,0.447-1,1-1h40c0.553,0,1,0.447,1,1V41z M51,39
	c0,0.553-0.447,1-1,1H14c-0.553,0-1-0.447-1-1V25c0-0.553,0.447-1,1-1h36c0.553,0,1,0.447,1,1V39z"/>
</svg>
