<?xml version="1.0" encoding="utf-8"?>
<!-- Generator: Adobe Illustrator 16.0.0, SVG Export Plug-In . SVG Version: 6.00 Build 0)  -->
<!DOCTYPE svg PUBLIC "-//W3C//DTD SVG 1.1//EN" "http://www.w3.org/Graphics/SVG/1.1/DTD/svg11.dtd">
<svg version="1.1" id="Calque_1" xmlns="http://www.w3.org/2000/svg" xmlns:xlink="http://www.w3.org/1999/xlink" x="0px" y="0px"
	 width="64px" height="64px" viewBox="0 0 64 64" enable-background="new 0 0 64 64" xml:space="preserve">
<path id="Atari_7800" fill="#F2F2F2" d="M5,17c-0.553,0-1,0.447-1,1v28c0,0.553,0.447,1,1,1h2l30-30H5z M13.5,33
	C9.91,33,7,30.09,7,26.5S9.91,20,13.5,20s6.5,2.91,6.5,6.5S17.09,33,13.5,33z M59,17H38L8,47h51c0.553,0,1-0.447,1-1V18
	C60,17.447,59.553,17,59,17z M34.5,44c-2.484,0-4.5-2.016-4.5-4.5s2.016-4.5,4.5-4.5s4.5,2.016,4.5,4.5S36.984,44,34.5,44z M47.5,44
	c-2.484,0-4.5-2.016-4.5-4.5s2.016-4.5,4.5-4.5s4.5,2.016,4.5,4.5S49.984,44,47.5,44z M17,26.5c0,1.933-1.567,3.5-3.5,3.5
	c-1.934,0-3.5-1.567-3.5-3.5s1.566-3.5,3.5-3.5C15.433,23,17,24.567,17,26.5z"/>
</svg>
