<?xml version="1.0" encoding="utf-8"?>
<!-- Generator: Adobe Illustrator 16.0.0, SVG Export Plug-In . SVG Version: 6.00 Build 0)  -->
<!DOCTYPE svg PUBLIC "-//W3C//DTD SVG 1.1//EN" "http://www.w3.org/Graphics/SVG/1.1/DTD/svg11.dtd">
<svg version="1.1"
	 id="svg2" inkscape:export-filename="/home/kivutar/Bureau/lakka-menu/reload.png" inkscape:export-xdpi="90" inkscape:version="0.48.4 r9939" inkscape:export-ydpi="90" sodipodi:docname="reload.svg" xmlns:svg="http://www.w3.org/2000/svg" xmlns:cc="http://creativecommons.org/ns#" xmlns:sodipodi="http://sodipodi.sourceforge.net/DTD/sodipodi-0.dtd" xmlns:rdf="http://www.w3.org/1999/02/22-rdf-syntax-ns#" xmlns:dc="http://purl.org/dc/elements/1.1/" xmlns:inkscape="http://www.inkscape.org/namespaces/inkscape"
	 xmlns="http://www.w3.org/2000/svg" xmlns:xlink="http://www.w3.org/1999/xlink" x="0px" y="0px" width="64px" height="64px"
	 viewBox="0 128 64 64" enable-background="new 0 128 64 64" xml:space="preserve">
<path id="Small_Disk" fill="#F2F2F2" d="M50,138H11c-0.553,0-1,0.447-1,1v42c0,0.553,0.447,1,1,1h42c0.553,0,1-0.447,1-1v-38L50,138
	z M19,140h26v14c0,0.553-0.447,1-1,1H20c-0.553,0-1-0.447-1-1V140z M49,180H15v-19c0-0.553,0.447-1,1-1h32c0.553,0,1,0.447,1,1V180z
	 M53,178h-3v-2h3V178z M46,162H18c-0.553,0-1,0.447-1,1v15h30v-15C47,162.447,46.553,162,46,162z M21,142v10c0,0.553,0.447,1,1,1h20
	c0.553,0,1-0.447,1-1v-10H21z M34,152v-9h7v9H34z"/>
</svg>
