<?xml version="1.0" encoding="utf-8"?>
<!-- Generator: Adobe Illustrator 16.0.0, SVG Export Plug-In . SVG Version: 6.00 Build 0)  -->
<!DOCTYPE svg PUBLIC "-//W3C//DTD SVG 1.1//EN" "http://www.w3.org/Graphics/SVG/1.1/DTD/svg11.dtd">
<svg version="1.1" id="Calque_1" xmlns="http://www.w3.org/2000/svg" xmlns:xlink="http://www.w3.org/1999/xlink" x="0px" y="0px"
	 width="64px" height="64px" viewBox="0 0 64 64" enable-background="new 0 0 64 64" xml:space="preserve">
<path id="Atari_Jaguar_1_" fill="#F2F2F2" d="M55.276,20.359c-0.699-1.057-1.59-2.1-2.594-3.088c0-0.303,0-0.611,0-0.85
	c0-0.719-0.249-1.078-0.984-1.734c-1.236-1.104-4.844-2.672-6.266-3.031c-0.772-0.195-1.082-0.103-1.171,0.195
	C42.999,11.412,41.107,11,40,11c-1.532,0-1.345,1-3,1H27c-1.655,0-1.469-1-3-1c-1.108,0-2.999,0.412-4.26,0.852
	c-0.091-0.298-0.4-0.391-1.172-0.195c-1.423,0.359-5.03,1.928-6.267,3.031c-0.733,0.656-0.984,1.016-0.984,1.734
	c0,0.238,0,0.547,0,0.85c-1.004,0.988-1.895,2.031-2.594,3.088C5.614,25.062,5,30.26,5,36c0,5.285,0.965,10.546,2.999,15.072
	C8.724,52.453,10.312,53,13,53c0.519,0,6.547,0,7,0s0.453-1,1-1c0.548,0,9,0,9,0s0.276-1,2-1s2,1,2,1s8.454,0,9,0
	c0.547,0,0.547,1,1,1s6.481,0,7,0c2.688,0,4.276-0.547,5.002-1.928C58.035,46.546,59,41.285,59,36
	C59,30.26,58.386,25.062,55.276,20.359z M20,23c0,0.553-0.447,1-1,1s-1,0.447-1,1s-0.447,1-1,1h-1c-0.553,0-1-0.447-1-1
	s-0.448-1-1-1c-0.553,0-1-0.447-1-1v-1c0-0.553,0.447-1,1-1s1-0.447,1-1s0.447-1,1-1h1c0.553,0,1,0.447,1,1s0.448,1,1,1
	c0.553,0,1,0.447,1,1V23z M40.5,18c0.828,0,1.5,0.672,1.5,1.5S41.328,21,40.5,21S39,20.328,39,19.5S39.672,18,40.5,18z M26.5,48h-3
	c-0.276,0-0.5-0.224-0.5-0.5s0.224-0.5,0.5-0.5h3c0.276,0,0.5,0.224,0.5,0.5S26.776,48,26.5,48z M26.5,44h-3
	c-0.276,0-0.5-0.224-0.5-0.5s0.224-0.5,0.5-0.5h3c0.276,0,0.5,0.224,0.5,0.5S26.776,44,26.5,44z M26.5,40h-3
	c-0.276,0-0.5-0.224-0.5-0.5s0.224-0.5,0.5-0.5h3c0.276,0,0.5,0.224,0.5,0.5S26.776,40,26.5,40z M26.5,36h-3
	c-0.276,0-0.5-0.224-0.5-0.5s0.224-0.5,0.5-0.5h3c0.276,0,0.5,0.224,0.5,0.5S26.776,36,26.5,36z M27.854,25.439l-1.414,1.414
	c-0.195,0.195-0.512,0.195-0.707,0s-0.195-0.512,0-0.707l1.414-1.414c0.195-0.195,0.512-0.195,0.707,0S28.049,25.244,27.854,25.439z
	 M29.439,26.854c-0.195,0.195-0.512,0.195-0.707,0s-0.195-0.512,0-0.707l1.414-1.414c0.195-0.195,0.512-0.195,0.707,0
	s0.195,0.512,0,0.707L29.439,26.854z M33.5,48h-3c-0.276,0-0.5-0.224-0.5-0.5s0.224-0.5,0.5-0.5h3c0.276,0,0.5,0.224,0.5,0.5
	S33.776,48,33.5,48z M33.5,44h-3c-0.276,0-0.5-0.224-0.5-0.5s0.224-0.5,0.5-0.5h3c0.276,0,0.5,0.224,0.5,0.5S33.776,44,33.5,44z
	 M33.5,40h-3c-0.276,0-0.5-0.224-0.5-0.5s0.224-0.5,0.5-0.5h3c0.276,0,0.5,0.224,0.5,0.5S33.776,40,33.5,40z M33.5,36h-3
	c-0.276,0-0.5-0.224-0.5-0.5s0.224-0.5,0.5-0.5h3c0.276,0,0.5,0.224,0.5,0.5S33.776,36,33.5,36z M35,22.5c0-0.828,0.672-1.5,1.5-1.5
	s1.5,0.672,1.5,1.5S37.328,24,36.5,24S35,23.328,35,22.5z M40.5,48h-3c-0.276,0-0.5-0.224-0.5-0.5s0.224-0.5,0.5-0.5h3
	c0.276,0,0.5,0.224,0.5,0.5S40.776,48,40.5,48z M40.5,44h-3c-0.276,0-0.5-0.224-0.5-0.5s0.224-0.5,0.5-0.5h3
	c0.276,0,0.5,0.224,0.5,0.5S40.776,44,40.5,44z M40.5,40h-3c-0.276,0-0.5-0.224-0.5-0.5s0.224-0.5,0.5-0.5h3
	c0.276,0,0.5,0.224,0.5,0.5S40.776,40,40.5,40z M40.5,36h-3c-0.276,0-0.5-0.224-0.5-0.5s0.224-0.5,0.5-0.5h3
	c0.276,0,0.5,0.224,0.5,0.5S40.776,36,40.5,36z M40,29c-1.104,0-2-0.896-2-2s0.896-2,2-2s2,0.896,2,2S41.104,29,40,29z M44,25
	c-1.104,0-2-0.896-2-2s0.896-2,2-2s2,0.896,2,2S45.104,25,44,25z M44.5,18c-0.828,0-1.5-0.672-1.5-1.5s0.672-1.5,1.5-1.5
	s1.5,0.672,1.5,1.5S45.328,18,44.5,18z M49,22c-1.104,0-2-0.896-2-2s0.896-2,2-2s2,0.896,2,2S50.104,22,49,22z"/>
</svg>
