<?xml version="1.0" encoding="utf-8"?>
<!-- Generator: Adobe Illustrator 16.0.0, SVG Export Plug-In . SVG Version: 6.00 Build 0)  -->
<!DOCTYPE svg PUBLIC "-//W3C//DTD SVG 1.1//EN" "http://www.w3.org/Graphics/SVG/1.1/DTD/svg11.dtd">
<svg version="1.1"
	 id="svg2" inkscape:export-filename="/home/kivutar/Bureau/lakka-menu/reload.png" inkscape:export-xdpi="90" inkscape:version="0.48.4 r9939" inkscape:export-ydpi="90" sodipodi:docname="reload.svg" xmlns:svg="http://www.w3.org/2000/svg" xmlns:cc="http://creativecommons.org/ns#" xmlns:sodipodi="http://sodipodi.sourceforge.net/DTD/sodipodi-0.dtd" xmlns:rdf="http://www.w3.org/1999/02/22-rdf-syntax-ns#" xmlns:dc="http://purl.org/dc/elements/1.1/" xmlns:inkscape="http://www.inkscape.org/namespaces/inkscape"
	 xmlns="http://www.w3.org/2000/svg" xmlns:xlink="http://www.w3.org/1999/xlink" x="0px" y="0px" width="64px" height="64px"
	 viewBox="0 128 64 64" enable-background="new 0 128 64 64" xml:space="preserve">
<path id="Games_1_" fill="#F2F2F2" d="M23,165.107l4,4c18,0,18-22.056,18-22.056S23,145.107,23,165.107z M37,156.107
	c-1.104,0-2-0.896-2-2s0.896-2,2-2s2,0.896,2,2S38.104,156.107,37,156.107z M24.934,154.212c-1.115,1.672-1.918,3.579-2.396,5.722
	C21.062,159.698,19,160,19,160S20.718,154.98,24.934,154.212z M20,172c0,0,1.5-6.393,4-3.893S20,172,20,172z M32,173
	c0,0,0.433-2.076,0.15-3.558c2.219-0.605,4.088-1.591,5.652-2.83C36.791,170.7,32,173,32,173z"/>
</svg>
