<?xml version="1.0" encoding="utf-8"?>
<!-- Generator: Adobe Illustrator 16.0.0, SVG Export Plug-In . SVG Version: 6.00 Build 0)  -->
<!DOCTYPE svg PUBLIC "-//W3C//DTD SVG 1.1//EN" "http://www.w3.org/Graphics/SVG/1.1/DTD/svg11.dtd">
<svg version="1.1" id="Calque_1" xmlns="http://www.w3.org/2000/svg" xmlns:xlink="http://www.w3.org/1999/xlink" x="0px" y="0px"
	 width="64px" height="64px" viewBox="0 0 64 64" enable-background="new 0 0 64 64" xml:space="preserve">
<path id="core_input_remapping_options" fill="#F2F2F2" d="M32,21c-6.075,0-11,4.925-11,11s4.925,11,11,11s11-4.925,11-11
	S38.075,21,32,21z M32,41c-4.971,0-9-4.029-9-9s4.029-9,9-9s9,4.029,9,9S36.971,41,32,41z M32,30c0,1.104-0.896,2-2,2s-2-0.896-2-2
	s0.896-2,2-2S32,28.896,32,30z M37,29c0,1.104-0.896,2-2,2s-2-0.896-2-2s0.896-2,2-2S37,27.896,37,29z M29,33c-1.104,0-2,0.896-2,2
	s0.896,2,2,2s2-0.896,2-2S30.104,33,29,33z M29,36c-0.553,0-1-0.447-1-1s0.447-1,1-1s1,0.447,1,1S29.553,36,29,36z M34,32
	c-1.104,0-2,0.896-2,2s0.896,2,2,2s2-0.896,2-2S35.104,32,34,32z M34,35c-0.553,0-1-0.447-1-1s0.447-1,1-1s1,0.447,1,1
	S34.553,35,34,35z"/>
</svg>
