<?xml version="1.0" encoding="utf-8"?>
<!-- Generator: Adobe Illustrator 16.0.0, SVG Export Plug-In . SVG Version: 6.00 Build 0)  -->
<!DOCTYPE svg PUBLIC "-//W3C//DTD SVG 1.1//EN" "http://www.w3.org/Graphics/SVG/1.1/DTD/svg11.dtd">
<svg version="1.1" id="Calque_1" xmlns="http://www.w3.org/2000/svg" xmlns:xlink="http://www.w3.org/1999/xlink" x="0px" y="0px"
	 width="64px" height="64px" viewBox="0 0 64 64" enable-background="new 0 0 64 64" xml:space="preserve">
<path id="database_1_" fill="#F2F2F2" d="M32,16c-9.941,0-16,1.791-16,4v4c0,2.209,6.059,4,16,4s16-1.791,16-4v-4
	C48,17.791,41.941,16,32,16z M32,32c-9.941,0-16-1.791-16-4v2v2v2c0,2.209,6.059,4,16,4s16-1.791,16-4v-2v-2v-2
	C48,30.209,41.941,32,32,32z M32,42c-9.941,0-16-1.791-16-4v2v2v2c0,2.209,6.059,4,16,4s16-1.791,16-4v-2v-2v-2
	C48,40.209,41.941,42,32,42z"/>
</svg>
