<?xml version="1.0" encoding="UTF-8" standalone="no"?>
<!-- Created with Inkscape (http://www.inkscape.org/) -->

<svg
   xmlns:dc="http://purl.org/dc/elements/1.1/"
   xmlns:cc="http://creativecommons.org/ns#"
   xmlns:rdf="http://www.w3.org/1999/02/22-rdf-syntax-ns#"
   xmlns:svg="http://www.w3.org/2000/svg"
   xmlns="http://www.w3.org/2000/svg"
   xmlns:sodipodi="http://sodipodi.sourceforge.net/DTD/sodipodi-0.dtd"
   xmlns:inkscape="http://www.inkscape.org/namespaces/inkscape"
   id="svg3355"
   version="1.1"
   inkscape:version="0.91 r13725"
   xml:space="preserve"
   width="256"
   height="256"
   viewBox="0 0 256 256"
   sodipodi:docname="Dinothawr-content.svg"><metadata
     id="metadata3361"><rdf:RDF><cc:Work
         rdf:about=""><dc:format>image/svg+xml</dc:format><dc:type
           rdf:resource="http://purl.org/dc/dcmitype/StillImage" /><dc:title></dc:title></cc:Work></rdf:RDF></metadata><defs
     id="defs3359"><clipPath
       clipPathUnits="userSpaceOnUse"
       id="clipPath3369"><path
         d="M 0,256 256,256 256,0 0,0 0,256 Z"
         id="path3371"
         inkscape:connector-curvature="0" /></clipPath></defs><sodipodi:namedview
     pagecolor="#ffffff"
     bordercolor="#666666"
     borderopacity="1"
     objecttolerance="10"
     gridtolerance="10"
     guidetolerance="10"
     inkscape:pageopacity="0"
     inkscape:pageshadow="2"
     inkscape:window-width="640"
     inkscape:window-height="480"
     id="namedview3357"
     showgrid="false"
     inkscape:snap-others="false"
     inkscape:zoom="1.4142136"
     inkscape:cx="385.31876"
     inkscape:cy="128"
     inkscape:current-layer="g3363" /><g
     id="g3363"
     inkscape:groupmode="layer"
     inkscape:label="Dinothawr-content"
     transform="matrix(1.25,0,0,-1.25,0,256)"><g
       id="g3365"
       transform="matrix(0.84363906,0,0,0.84363906,-5.5858436,-5.5860528)"><g
         id="g3367"
         clip-path="url(#clipPath3369)"><g
           id="g3373"
           transform="translate(95.4141,163.0962)"><path
             d="M 0,0 C 1.714,0 3.461,-0.186 5.216,-0.588 7.394,-1.086 9.528,-1.764 11.87,-2.703 10.866,-1.891 9.792,-1.179 8.667,-0.581 7.589,-0.243 6.528,0.047 5.456,0.292 4.372,0.54 3.291,0.705 2.217,0.801 1.012,0.657 -0.309,0.356 -1.687,-0.065 -1.128,-0.025 -0.566,0 0,0"
             style="fill:#f2f2f2;fill-opacity:1;fill-rule:nonzero;stroke:none"
             id="path3375"
             inkscape:connector-curvature="0" /></g><g
           id="g3377"
           transform="translate(115.0024,143.4722)"><path
             d="m 0,0 c -0.222,-1.778 -0.791,-3.5 -1.773,-5.086 0.449,0.581 0.868,1.21 1.246,1.902 C -0.182,-2.554 -0.009,-1.429 0,0"
             style="fill:#f2f2f2;fill-opacity:1;fill-rule:nonzero;stroke:none"
             id="path3379"
             inkscape:connector-curvature="0" /></g><g
           id="g3381"
           transform="translate(188.8203,180.9707)"><path
             d="m 0,0 c -9.743,-2.854 -19.199,-7.362 -28.424,-12.183 4.64,2.223 9.511,4.206 14.495,6.229 C -9.321,-4.083 -4.596,-2.162 0,0"
             style="fill:#f2f2f2;fill-opacity:1;fill-rule:nonzero;stroke:none"
             id="path3383"
             inkscape:connector-curvature="0" /></g><g
           id="g3385"
           transform="translate(207.3926,144.5269)"><path
             d="m 0,0 c -4.209,-1.091 -8.312,-2.647 -12.332,-4.348 1.876,0.698 3.805,1.359 5.771,2.026 C -4.391,-1.586 -2.177,-0.828 0,0"
             style="fill:#f2f2f2;fill-opacity:1;fill-rule:nonzero;stroke:none"
             id="path3387"
             inkscape:connector-curvature="0" /></g><g
           id="g3389"
           transform="translate(201.4141,162.9844)"><path
             d="m 0,0 c -6.616,-1.668 -13.063,-4.103 -19.373,-6.756 2.975,1.104 6.051,2.135 9.183,3.184 C -6.821,-2.443 -3.377,-1.279 0,0"
             style="fill:#f2f2f2;fill-opacity:1;fill-rule:nonzero;stroke:none"
             id="path3391"
             inkscape:connector-curvature="0" /></g><g
           id="g3393"
           transform="translate(138.4268,118.6211)"><path
             d="m 0,0 c -0.237,0.118 -0.519,0.019 -0.633,-0.219 -5.955,-12.305 -15.919,-25.058 -24.838,-36.384 0.262,-0.178 0.524,-0.357 0.784,-0.534 8.939,11.351 18.916,24.124 24.905,36.503 C 0.333,-0.396 0.235,-0.113 0,0"
             style="fill:#f2f2f2;fill-opacity:1;fill-rule:nonzero;stroke:none"
             id="path3395"
             inkscape:connector-curvature="0" /></g><g
           id="g3397"
           transform="translate(99.3496,129.7344)"><path
             d="M 0,0 0.093,0.035 C 0.785,0.288 1.481,0.532 2.177,0.777 6.673,2.359 11.294,3.997 14.454,7.85 13.625,7.059 12.689,6.461 11.678,5.978 12.566,6.809 13.294,7.707 13.879,8.652 10.912,4.826 6.479,3.263 1.822,1.624 1.152,1.389 0.483,1.153 -0.183,0.91 c -0.028,0 -0.055,0 -0.083,0 -1.744,0 -3.451,-0.452 -5.103,-0.889 -2.713,-0.718 -5.274,-1.397 -7.923,-0.185 -2.071,0.948 -3.822,1.94 -5.313,2.956 2.437,-2.698 5.449,-4.495 8.6,-4.517 0.459,0.007 0.915,0.045 1.369,0.105 0.24,0.038 0.48,0.078 0.72,0.138 2.144,0.856 4.368,1.407 6.575,1.925 -0.201,-0.172 -0.376,-0.369 -0.541,-0.578 0.594,0.088 1.188,0.15 1.781,0.137 L 0,0 Z"
             style="fill:#f2f2f2;fill-opacity:1;fill-rule:nonzero;stroke:none"
             id="path3399"
             inkscape:connector-curvature="0" /></g><g
           id="g3401"
           transform="translate(76.2925,151.8774)"><path
             d="M 0,0 C 1.844,3.683 10.371,8.996 17.435,11.154 8.31,10.504 0.38,4.687 -2.294,-1.928 -3.614,-5.194 -5.188,-12.781 4.452,-19.351 -0.25,-14.143 -2.8,-5.592 0,0"
             style="fill:#f2f2f2;fill-opacity:1;fill-rule:nonzero;stroke:none"
             id="path3403"
             inkscape:connector-curvature="0" /></g><g
           id="g3405"
           transform="translate(115.3618,139.8823)"><path
             d="m 0,0 c -0.464,-0.849 -0.991,-1.605 -1.559,-2.298 1.02,0.973 1.874,2.246 2.465,4.031 0.795,2.401 0.1,5.755 -1.254,9.533 0.047,-0.201 0.09,-0.386 0.122,-0.537 C 0.581,7.064 1.124,2.055 0,0"
             style="fill:#f2f2f2;fill-opacity:1;fill-rule:nonzero;stroke:none"
             id="path3407"
             inkscape:connector-curvature="0" /></g><g
           id="g3409"
           transform="translate(137.6074,126.8877)"><path
             d="M 0,0 C -1.687,2.47 -2.77,5.609 -3.097,9.168 -3.161,9.16 -3.225,9.154 -3.289,9.147 -2.995,6.522 -2.573,4.342 -2.036,3.26 -1.43,2.038 -0.74,0.969 0,0"
             style="fill:#f2f2f2;fill-opacity:1;fill-rule:nonzero;stroke:none"
             id="path3411"
             inkscape:connector-curvature="0" /></g><g
           id="g3413"
           transform="translate(114.0342,151.0049)"><path
             d="M 0,0 C -1.011,4.3 -2.518,7.534 -3.811,8.125 -4.837,8.595 -5.809,9.011 -6.75,9.388 -3.705,6.921 -1.304,3.574 0,0"
             style="fill:#f2f2f2;fill-opacity:1;fill-rule:nonzero;stroke:none"
             id="path3415"
             inkscape:connector-curvature="0" /></g><g
           id="g3417"
           transform="translate(133.8447,144.1978)"><path
             d="M 0,0 C 0.28,-0.763 0.54,-1.51 0.812,-2.268 1.177,0.286 1.948,2.867 3.133,5.17 2.436,6.696 1.689,8.228 0.895,9.775 0.842,9.646 0.783,9.524 0.736,9.385 0.186,7.721 -0.045,4.018 0,0"
             style="fill:#f2f2f2;fill-opacity:1;fill-rule:nonzero;stroke:none"
             id="path3419"
             inkscape:connector-curvature="0" /></g><g
           id="g3421"
           transform="translate(140.6582,154.2134)"><path
             d="M 0,0 C -0.074,0.578 0.102,1.182 0.543,1.626 4.074,5.178 8.015,8.074 12.24,10.591 11.911,10.414 11.58,10.237 11.251,10.06 6.956,7.754 2.516,5.369 -1.857,3.17 -2.135,3.03 -2.43,2.965 -2.721,2.965 -2.879,2.965 -3.035,2.991 -3.188,3.029 -3.997,2.389 -4.797,1.721 -5.406,0.774 -4.6,-0.778 -3.843,-2.314 -3.129,-3.846 -2.268,-2.392 -1.231,-1.077 0,0"
             style="fill:#f2f2f2;fill-opacity:1;fill-rule:nonzero;stroke:none"
             id="path3423"
             inkscape:connector-curvature="0" /></g><g
           id="g3425"
           transform="translate(134.7393,153.9731)"><path
             d="M 0,0 C 0.149,0.369 0.318,0.711 0.513,1.015 -2.114,6.071 -5.2,11.284 -8.57,16.959 c -2.436,4.105 -4.992,8.413 -7.592,13.029 -0.36,0.008 -0.72,0.019 -1.079,0.024 2.7,-4.809 5.353,-9.279 7.88,-13.534 C -5.871,10.599 -2.678,5.214 0,0"
             style="fill:#f2f2f2;fill-opacity:1;fill-rule:nonzero;stroke:none"
             id="path3427"
             inkscape:connector-curvature="0" /></g><g
           id="g3429"
           transform="translate(134.1094,136)"><path
             d="M 0,0 C 0.069,0 0.14,0.027 0.209,0.035 -0.07,2.535 -0.232,5.439 -0.265,8.198 -4.808,20.59 -10.417,33.757 -18.87,48 c -0.652,0 -1.301,-10e-4 -1.942,-10e-4 -0.868,0 -1.647,-0.057 -2.357,-0.157 C -12.938,30.959 -6.806,15.594 -1.786,1.255 -1.517,0.485 -0.784,0 0,0"
             style="fill:#f2f2f2;fill-opacity:1;fill-rule:nonzero;stroke:none"
             id="path3431"
             inkscape:connector-curvature="0" /></g><g
           id="g3433"
           transform="translate(115.0024,143.4722)"><path
             d="M 0,0 C 0.308,2.476 -0.066,5.057 -0.968,7.533 -0.924,7.343 -0.879,7.154 -0.836,6.961 -0.27,4.384 0.012,1.917 0,0"
             style="fill:#f2f2f2;fill-opacity:1;fill-rule:nonzero;stroke:none"
             id="path3435"
             inkscape:connector-curvature="0" /></g><g
           id="g3437"
           transform="translate(111.6235,159.2158)"><path
             d="M 0,0 C 1.263,-2.776 2.476,-5.518 3.39,-8.068 2.922,-6.076 1.76,-1.853 0,0"
             style="fill:#f2f2f2;fill-opacity:1;fill-rule:nonzero;stroke:none"
             id="path3439"
             inkscape:connector-curvature="0" /></g><g
           id="g3441"
           transform="translate(206.5293,131.6348)"><path
             d="m 0,0 c 1.437,0.588 2.905,1.192 4.342,1.861 -2.9,-0.884 -5.721,-2.2 -8.48,-3.63 C -2.801,-1.151 -1.416,-0.579 0,0"
             style="fill:#f2f2f2;fill-opacity:1;fill-rule:nonzero;stroke:none"
             id="path3443"
             inkscape:connector-curvature="0" /></g><g
           id="g3445"
           transform="translate(140.6924,123.6357)"><path
             d="M 0,0 C 0.943,-0.808 1.923,-1.521 2.909,-2.18 2.717,-1.894 2.517,-1.621 2.309,-1.369 1.489,-0.998 0.719,-0.54 0,0"
             style="fill:#f2f2f2;fill-opacity:1;fill-rule:nonzero;stroke:none"
             id="path3447"
             inkscape:connector-curvature="0" /></g><g
           id="g3449"
           transform="translate(154.2471,140.562)"><path
             d="m 0,0 c -0.326,-0.586 -0.611,-0.878 -0.852,-0.838 -0.795,0.292 -1.16,0.676 -1.079,1.142 0.149,0.86 1.564,1.855 2.393,1.858 C 0.604,2.024 0.575,1.038 0,0 m 0.443,3.108 c -1.245,0 -3.071,-1.281 -3.307,-2.642 -0.097,-0.559 -0.002,-1.59 1.724,-2.208 l 0.044,-0.014 c 0.073,-0.017 0.161,-0.032 0.265,-0.032 0.32,0 0.773,0.137 1.251,0.72 C 1.187,-0.13 1.756,1.649 1.336,2.539 1.165,2.901 0.84,3.108 0.443,3.108"
             style="fill:#f2f2f2;fill-opacity:1;fill-rule:nonzero;stroke:none"
             id="path3451"
             inkscape:connector-curvature="0" /></g><g
           id="g3453"
           transform="translate(135.4248,136.5327)"><path
             d="M 0,0 C 0.339,-4.14 1.813,-8.613 4.989,-11.477 3.985,-10.265 3.227,-8.798 3.227,-6.266 3.227,-2.829 -1,3.181 1.22,7.79 1.671,8.726 2.14,9.592 2.623,10.403 2.438,10.843 2.24,11.285 2.046,11.726 0.823,9.101 0.145,6.141 -0.028,3.33 0.136,2.867 0.311,2.394 0.472,1.933 0.718,1.23 0.507,0.486 0,0"
             style="fill:#f2f2f2;fill-opacity:1;fill-rule:nonzero;stroke:none"
             id="path3455"
             inkscape:connector-curvature="0" /></g><g
           id="g3457"
           transform="translate(117.7144,171.1606)"><path
             d="m 0,0 c -0.058,0.254 -0.312,0.418 -0.569,0.353 -0.254,-0.06 -0.412,-0.315 -0.352,-0.57 0.99,-4.235 2.213,-8.41 3.397,-12.45 2.706,-9.235 5.503,-18.785 5.503,-29.227 0,-0.262 0.212,-0.475 0.474,-0.475 0.262,0 0.474,0.213 0.474,0.475 0,10.578 -2.817,20.194 -5.542,29.495 C 2.206,-8.373 0.985,-4.209 0,0"
             style="fill:#f2f2f2;fill-opacity:1;fill-rule:nonzero;stroke:none"
             id="path3459"
             inkscape:connector-curvature="0" /></g><g
           id="g3461"
           transform="translate(145.3369,154.4214)"><path
             d="M 0,0 C 0,0.002 0,0.005 0.001,0.007 -0.005,0.002 -0.01,-0.002 -0.015,-0.007 L 0,0 Z"
             style="fill:#f2f2f2;fill-opacity:1;fill-rule:nonzero;stroke:none"
             id="path3463"
             inkscape:connector-curvature="0" /></g><g
           id="g3465"
           transform="translate(213.1787,133.1323)"><path
             d="m 0,0 c -2.03,-1.066 -4.159,-1.936 -6.217,-2.778 -0.794,-0.325 -1.576,-0.648 -2.347,-0.977 l -6.19,-3.26 c -0.819,-0.579 -1.592,-1.217 -2.303,-1.938 -0.118,-0.119 -0.269,-0.179 -0.419,-0.179 -0.167,0 -0.334,0.075 -0.457,0.221 -0.231,0.278 -0.214,0.709 0.037,0.964 1.069,1.082 2.253,1.978 3.515,2.767 -0.002,-0.001 -0.005,-0.002 -0.007,-0.004 -1.465,-0.792 -2.922,-1.578 -4.38,-2.317 -0.083,-0.042 -0.171,-0.063 -0.258,-0.063 -0.235,0 -0.458,0.147 -0.564,0.398 -0.143,0.342 -0.007,0.749 0.305,0.907 0.239,0.121 0.478,0.25 0.718,0.373 -0.107,-0.029 -0.211,-0.064 -0.32,-0.091 -0.048,-0.011 -0.093,-0.017 -0.139,-0.017 -0.283,0 -0.538,0.214 -0.605,0.53 -0.076,0.368 0.133,0.735 0.465,0.819 2.799,0.707 5.405,2.158 7.924,3.561 2.964,1.648 6.03,3.354 9.505,3.944 0.334,0.055 0.654,-0.198 0.707,-0.571 0.008,-0.058 -0.002,-0.112 -0.008,-0.167 0.041,0.009 0.081,0.023 0.122,0.033 C -0.572,2.239 -0.25,1.999 -0.177,1.634 -0.152,1.512 -0.169,1.394 -0.202,1.283 0.005,1.258 0.197,1.132 0.293,0.91 0.439,0.569 0.309,0.162 0,0 m -1.284,-20.968 c -0.093,-0.108 -0.226,-0.164 -0.36,-0.164 -0.103,0 -0.209,0.033 -0.296,0.102 -4.184,3.357 -11.811,5.985 -21.471,9.311 -5.8,1.999 -12.19,4.202 -18.943,6.938 -0.025,-0.055 -0.046,-0.112 -0.073,-0.167 -3.716,-7.713 -12.607,-11.66 -18.975,-12.13 4.021,-3.461 6.022,-8.483 2.108,-20.312 -1.428,-4.316 -17.201,-22.25 -22.769,-19.446 -3.815,1.921 -10.093,0.296 -13.363,2.493 -1.298,0.871 -2.645,1.768 -4.012,2.695 -0.209,-0.266 -0.421,-0.534 -0.629,-0.799 -7.917,-10.053 -15.397,-19.549 -18.383,-26.674 -0.075,-0.181 -0.251,-0.291 -0.436,-0.291 -0.061,0 -0.123,0.012 -0.183,0.037 -0.242,0.103 -0.356,0.38 -0.254,0.622 3.035,7.245 10.208,16.35 18.513,26.894 0.194,0.246 0.392,0.497 0.587,0.745 -6.86,4.681 -14.077,10.107 -17.996,16.72 0.574,-8.134 7.653,-22.278 3.997,-29.687 -4.295,-8.703 -23.215,-5.508 -23.215,4.602 -0.433,0.236 -0.991,0.99 -1.625,2.118 0.227,-0.352 0.435,-0.693 0.668,-1.05 0.145,-0.22 0.44,-0.285 0.656,-0.136 0.219,0.142 0.28,0.436 0.138,0.655 -1.732,2.654 -3.254,5.165 -4.61,7.561 -0.619,1.595 -1.244,3.312 -1.854,5.095 0.044,-0.055 0.099,-0.102 0.168,-0.133 0.062,-0.029 0.129,-0.042 0.194,-0.042 0.18,0 0.353,0.104 0.431,0.28 1.239,2.759 3.633,4.186 6.011,5.388 0.9,-0.823 1.906,-1.434 3.07,-1.726 0.101,-0.026 0.203,-0.005 0.297,0.036 0.327,-0.264 0.658,-0.49 0.997,-0.662 3.245,-1.644 8.678,11.195 11.705,14.585 0.149,-2.813 0.912,-6.206 1.836,-9.822 -1.704,0.425 -3.622,0.402 -5.475,0.378 -0.43,-0.005 -0.859,-0.011 -1.283,-0.011 -0.16,0 -0.358,0 -0.475,0.002 -0.259,0 -0.471,-0.209 -0.474,-0.469 -0.002,-0.262 0.207,-0.477 0.468,-0.481 0.588,-0.008 1.179,0.002 1.777,0.01 1.796,0.025 3.656,0.046 5.245,-0.35 0.039,-0.011 0.077,-0.015 0.115,-0.015 0.118,0 0.223,0.052 0.309,0.128 0.184,-0.712 0.372,-1.43 0.563,-2.153 2.312,-8.795 4.703,-17.888 1.241,-22.386 -1.477,-1.92 -3.918,-2.854 -7.461,-2.854 -0.262,0 -0.474,-0.214 -0.474,-0.474 0,-0.262 0.212,-0.475 0.474,-0.475 3.803,0 6.565,1.084 8.211,3.223 3.746,4.869 1.296,14.191 -1.076,23.206 -0.806,3.066 -1.579,6.037 -2.067,8.696 -2.024,4.95 -2.116,10.53 1.048,16.903 1.464,2.952 0.92,8.299 2.978,10.921 -1.079,-0.16 -2.154,-0.435 -3.212,-0.715 -1.163,-0.308 -2.344,-0.612 -3.542,-0.77 -0.459,-0.073 -0.915,-0.108 -1.369,-0.105 -0.053,-10e-4 -0.104,-0.009 -0.157,-0.009 -1.172,0 -2.362,0.205 -3.573,0.759 -11.223,5.136 -15.912,13.175 -12.545,21.504 3.175,7.856 13.442,14.634 24.562,13.634 1.446,0.174 2.73,0.129 3.738,-0.207 0.932,-0.31 1.836,-0.71 2.711,-1.175 2.064,-0.647 4.189,-1.478 6.586,-2.574 0.337,-0.154 0.655,-0.407 0.957,-0.726 -5.147,11.31 -11.088,23.157 -0.684,24.626 -4.122,6.802 -8.906,13.849 -14.555,21.176 -0.631,0.82 -0.469,1.985 0.363,2.606 0.834,0.618 2.017,0.459 2.649,-0.358 6.228,-8.078 11.424,-15.819 15.843,-23.266 0.748,0 1.502,-0.004 2.259,-0.014 -4.485,7.989 -9.095,16.917 -13.462,27.365 -0.1,0.238 0.011,0.512 0.246,0.614 0.234,0.098 0.506,-0.01 0.606,-0.25 4.437,-10.618 9.132,-19.663 13.688,-27.753 4.628,-0.108 9.271,-0.56 13.035,-2.455 4.336,-2.184 7.966,-9.422 9.059,-14.914 7.145,2.289 13.897,6.016 20.454,9.638 8.884,4.909 18.069,9.983 28.501,11.741 1.047,0.184 2.051,-0.538 2.229,-1.598 0.031,-0.189 0.025,-0.373 0.003,-0.554 0.071,0.017 0.141,0.037 0.212,0.054 1.044,0.242 2.085,-0.395 2.332,-1.441 0.091,-0.385 0.06,-0.771 -0.066,-1.117 0.599,-0.086 1.148,-0.449 1.447,-1.03 0.492,-0.954 0.121,-2.128 -0.828,-2.623 -0.471,-0.245 -0.954,-0.467 -1.429,-0.705 0.055,-0.073 0.113,-0.143 0.16,-0.225 0.531,-0.933 0.208,-2.121 -0.719,-2.656 -5.349,-3.077 -11.478,-5.673 -17.405,-8.185 -8.196,-3.471 -16.615,-7.044 -23.066,-11.926 2.841,-0.198 5.644,-1.27 8.202,-2.928 0.136,0.078 0.285,0.142 0.451,0.176 0.888,0.185 1.769,0.398 2.642,0.63 -1.19,0.818 -2.443,1.268 -3.726,1.268 l -0.059,0 -0.006,0.889 0.065,0 c 1.666,0 3.283,-0.639 4.78,-1.854 5.341,1.534 10.412,3.83 15.342,6.077 7.119,3.246 14.478,6.601 22.818,7.761 0.784,0.112 1.55,-0.4 1.67,-1.146 0.017,-0.104 0.018,-0.206 0.009,-0.306 0.101,0.021 0.201,0.044 0.302,0.064 0.792,0.156 1.572,-0.312 1.743,-1.049 0.051,-0.224 0.033,-0.444 -0.029,-0.65 0.49,-0.053 0.941,-0.329 1.165,-0.777 0.339,-0.683 0.018,-1.494 -0.716,-1.81 -0.346,-0.148 -0.699,-0.282 -1.046,-0.426 0.027,-0.039 0.058,-0.075 0.082,-0.117 0.369,-0.671 0.084,-1.492 -0.638,-1.835 -4.288,-2.035 -9.203,-3.754 -13.956,-5.416 -7.721,-2.7 -15.686,-5.493 -21.065,-9.67 1.08,-3.342 1.575,-6.916 1.446,-10.119 0.099,-1.919 -0.146,-3.793 -0.797,-5.536 6.733,-2.728 13.113,-4.929 18.903,-6.924 9.746,-3.356 17.443,-6.009 21.753,-9.464 0.199,-0.159 0.226,-0.446 0.064,-0.639 m -40.953,-8.552 c 0.754,-4.141 1.638,-8.565 2.642,-11.995 -0.322,0.036 -0.616,0.097 -0.847,0.213 -0.779,0.544 -1.379,6.68 -1.795,11.782 m 8.301,-25.259 c -3.3,-1.082 -22.848,-23.407 -20.16,-10.174 -8.022,0.534 -8.218,8.809 -5.526,18.328 -0.113,-1.342 -0.303,-2.665 -0.736,-3.865 -0.089,-0.246 0.039,-0.518 0.285,-0.607 0.248,-0.089 0.517,0.039 0.606,0.285 0.731,2.022 0.836,4.274 0.937,6.452 0.022,0.49 0.047,0.973 0.076,1.45 1.19,3.455 2.665,6.96 4.204,10.229 0.051,-0.083 0.119,-0.155 0.216,-0.195 3.648,-1.511 6.802,-3.09 9.921,-4.967 0.076,-0.047 0.161,-0.07 0.244,-0.07 0.161,0 0.316,0.082 0.405,0.231 0.136,0.224 0.064,0.516 -0.16,0.65 -3.163,1.904 -6.356,3.503 -10.048,5.033 -0.08,0.033 -0.163,0.035 -0.244,0.024 0.335,0.698 0.671,1.385 1.008,2.057 3.221,5.23 6.979,10.844 8.38,12.364 0.146,-0.411 0.313,-1.114 0.5,-2.029 0.215,-1.885 0.42,-4.532 0.609,-6.992 0.809,-10.487 1.342,-14.968 2.548,-15.572 0.426,-0.215 0.96,-0.314 1.572,-0.334 0.065,-0.202 0.129,-0.404 0.195,-0.597 0.844,-2.494 12.791,3.953 20.181,5.576 -1.369,-2.791 -6.238,-6.992 -7.381,-7.755 -1.399,-0.935 -3.179,-2.596 -5.223,-4.571 -1.446,1.526 -2.759,4.331 -2.957,6.367 l -0.944,-0.093 c 0.22,-2.254 1.622,-5.25 3.22,-6.933 -0.178,-0.173 -0.354,-0.343 -0.535,-0.519 -6.955,-6.758 -16.479,-16.017 -22.607,-11.408 -0.207,0.152 -0.506,0.115 -0.664,-0.094 -0.157,-0.212 -0.115,-0.508 0.094,-0.666 1.331,-0.997 2.777,-1.433 4.3,-1.433 6.243,0 13.75,7.295 19.536,12.92 2.525,2.454 4.707,4.572 6.306,5.641 0.634,0.422 6.739,5.354 7.953,8.752 1.471,0.233 2.704,0.22 3.532,-0.188 6.486,-3.191 -17.362,-16.548 -19.643,-17.297 m -64.237,-8.643 c 0.046,0.257 0.293,0.435 0.551,0.38 7.822,-1.446 22.792,-0.058 24.77,7.864 0.063,0.252 0.315,0.417 0.574,0.345 0.254,-0.064 0.409,-0.321 0.344,-0.575 -1.713,-6.875 -11.618,-9.086 -19.572,-9.086 -2.355,0 -4.537,0.195 -6.288,0.518 -0.257,0.048 -0.427,0.294 -0.379,0.554 m 48.959,-28.188 c -0.178,-0.899 -0.961,-1.522 -1.838,-1.522 -0.121,0 -0.242,0.01 -0.364,0.035 -18.806,3.74 -43.174,4.472 -73.966,4.486 l -10e-4,0 c -0.615,0 -1.191,0.305 -1.54,0.814 -1.777,2.58 -3.431,5.083 -5.084,7.587 -6.611,10.01 -13.448,20.363 -28.632,35.865 -0.727,0.743 -0.718,1.937 0.018,2.669 0.739,0.733 1.923,0.722 2.651,-0.019 15.438,-15.76 22.375,-26.265 29.085,-36.426 1.467,-2.218 2.933,-4.44 4.486,-6.714 30.555,-0.004 54.807,-0.798 73.708,-4.557 1.015,-0.203 1.676,-1.196 1.477,-2.218 M -165.126,16.579 c -0.231,0.983 0.319,1.983 1.23,2.233 0.902,0.247 1.834,-0.345 2.063,-1.33 6.292,-26.833 8.917,-41.215 8.63,-48.357 0.014,-0.609 0.024,-1.215 0.024,-1.813 0,-0.188 -0.102,-0.347 -0.245,-0.412 -0.174,-0.999 -0.438,-1.787 -0.794,-2.381 -0.675,-1.129 -1.562,-1.506 -2.186,-1.624 -0.099,-0.019 -0.197,-0.027 -0.294,-0.027 -0.811,0 -1.529,0.628 -1.672,1.521 -0.162,1 0.456,1.951 1.381,2.127 0.018,0.019 0.031,0.054 0.048,0.075 l -4.203,32.424 c -1.533,7.113 -3.07,13.672 -3.982,17.564 m 27.162,-55.618 c -2.351,-1.209 -4.859,-2.78 -6.17,-5.703 -0.026,-0.057 -0.038,-0.117 -0.04,-0.175 -2.33,6.852 -4.405,14.526 -4.895,19.257 0.284,0.936 0.682,1.79 1.198,2.56 2.297,-1.77 3.919,-5.163 5.491,-8.449 1.309,-2.739 2.647,-5.534 4.416,-7.49 m -3.561,7.899 c -1.711,3.577 -3.48,7.276 -6.193,9.098 -0.205,0.137 -0.489,0.089 -0.642,-0.109 -0.302,-0.402 -0.57,-0.827 -0.808,-1.273 0.049,1.438 0.395,2.292 1.132,2.292 4.631,0 8.097,-13.234 12.743,-18.879 -2.707,1.507 -4.496,5.24 -6.232,8.871 m -10.298,45.488 c 3.328,14.688 12.018,28.263 21.134,33.012 2.346,1.223 5.045,1.62 7.656,2.005 2.525,0.372 5.136,0.757 7.325,1.897 0.498,0.26 0.995,0.531 1.493,0.804 2.631,1.438 5.366,2.926 8.601,2.793 0.25,-0.011 0.445,-0.23 0.435,-0.489 -0.01,-0.261 -0.21,-0.48 -0.47,-0.453 -2.999,0.15 -5.62,-1.304 -8.145,-2.686 -0.504,-0.275 -1.006,-0.55 -1.51,-0.812 -2.321,-1.209 -5.005,-1.605 -7.602,-1.987 -2.539,-0.375 -5.164,-0.762 -7.378,-1.915 -8.893,-4.633 -17.388,-17.951 -20.658,-32.385 -2.482,-10.953 -1.471,-20.616 2.772,-26.509 0.149,-0.21 0.109,-0.505 -0.091,-0.662 -0.081,-0.062 -0.176,-0.093 -0.271,-0.093 -0.137,0 -0.273,0.064 -0.363,0.187 -4.403,6.121 -5.471,16.068 -2.928,27.293 m 70.397,38.983 c 2.232,-1.292 4.145,-3.458 5.995,-5.552 1.906,-2.159 3.878,-4.392 6.102,-5.506 l -0.422,-0.849 c -2.389,1.196 -4.424,3.499 -6.391,5.726 -1.8,2.038 -3.662,4.145 -5.757,5.36 l 0.473,0.821 z m 78.03,-39.263 c 0.009,-0.069 -0.007,-0.133 -0.012,-0.2 0.08,0.016 0.159,0.038 0.239,0.054 0.514,0.096 1.033,-0.221 1.141,-0.726 0.032,-0.15 0.015,-0.294 -0.024,-0.432 0.332,-0.032 0.641,-0.216 0.788,-0.533 0.219,-0.471 0.001,-1.024 -0.484,-1.235 C -5,9.583 -8.411,8.426 -11.709,7.308 -13.058,6.851 -14.384,6.396 -15.691,5.933 l -9.577,-4.182 c -1.365,-0.791 -2.649,-1.664 -3.83,-2.655 -0.181,-0.153 -0.408,-0.228 -0.631,-0.228 -0.27,0 -0.539,0.109 -0.73,0.322 -0.349,0.39 -0.306,0.98 0.098,1.319 1.598,1.344 3.367,2.464 5.24,3.463 -2.242,-1.006 -4.475,-2.005 -6.708,-2.942 -0.125,-0.052 -0.256,-0.078 -0.384,-0.078 -0.374,0 -0.727,0.212 -0.886,0.564 -0.212,0.473 0.012,1.024 0.502,1.229 0.298,0.125 0.597,0.259 0.895,0.386 -0.103,-0.022 -0.203,-0.05 -0.306,-0.072 -0.069,-0.016 -0.139,-0.022 -0.207,-0.022 -0.442,0 -0.844,0.299 -0.941,0.736 -0.113,0.505 0.217,1.003 0.738,1.112 4.491,0.944 8.672,2.872 12.713,4.736 4.747,2.191 9.655,4.455 15.214,5.237 0.512,0.073 1.017,-0.279 1.095,-0.79 m 24.224,-33.2 c -11.98,20 -22.832,46.374 -32.871,66.18 -3.146,6.208 -7.37,10.703 -11.056,13.82 l -91.847,28 c -7.501,-2.388 -22.656,-17.549 -31.947,-36 -5.802,-11.524 -13.707,-20.051 -23.96,-32 -11.592,-13.512 -16.797,-26.025 -23.959,-40 -3.611,-2.731 20.387,-20.826 31.946,-32 12.439,-15.743 24.204,-31.08 31.947,-44 5.215,-1.475 31.175,3.802 39.934,0 16.306,-0.778 35.588,-0.563 43.926,-4 9.513,9.646 10.702,10.979 19.967,20 18.154,17.674 42.722,40.474 51.913,52 -2.249,3.398 -1.088,3.149 -3.993,8"
             style="fill:#f2f2f2;fill-opacity:1;fill-rule:nonzero;stroke:none"
             id="path3467"
             inkscape:connector-curvature="0" /></g><g
           id="g3469"
           transform="translate(170.9727,129.2744)"><path
             d="m 0,0 c -0.11,-0.291 -0.233,-0.565 -0.361,-0.834 0.07,-0.029 0.143,-0.061 0.214,-0.089 0.127,0.276 0.243,0.556 0.349,0.84 C 0.135,-0.057 0.066,-0.027 0,0"
             style="fill:#f2f2f2;fill-opacity:1;fill-rule:nonzero;stroke:none"
             id="path3471"
             inkscape:connector-curvature="0" /></g><g
           id="g3473"
           transform="translate(142.5977,152.5205)"><path
             d="m 0,0 c -0.01,0 -0.02,-0.003 -0.028,-0.003 -0.495,0 -0.991,0.19 -1.368,0.57 -0.061,0.06 -0.108,0.128 -0.158,0.194 -1.206,-1.108 -2.22,-2.454 -3.036,-3.953 0.217,-0.48 0.426,-0.958 0.632,-1.437 C -2.718,-2.721 -1.389,-1.195 0,0"
             style="fill:#f2f2f2;fill-opacity:1;fill-rule:nonzero;stroke:none"
             id="path3475"
             inkscape:connector-curvature="0" /></g><g
           id="g3477"
           transform="translate(169.0713,144.0269)"><path
             d="M 0,0 C 0.712,-1.256 1.312,-2.557 1.779,-3.876 1.551,-2.476 1.219,-1.07 0.785,0.301 0.556,0.12 0.281,0.029 0,0"
             style="fill:#f2f2f2;fill-opacity:1;fill-rule:nonzero;stroke:none"
             id="path3479"
             inkscape:connector-curvature="0" /></g><g
           id="g3481"
           transform="translate(168.3984,149.7485)"><path
             d="M 0,0 C 1.202,0.765 2.439,1.485 3.72,2.157 2.412,1.578 1.084,0.993 -0.244,0.411 -0.162,0.274 -0.08,0.141 0,0"
             style="fill:#f2f2f2;fill-opacity:1;fill-rule:nonzero;stroke:none"
             id="path3483"
             inkscape:connector-curvature="0" /></g><g
           id="g3485"
           transform="translate(165.4512,148.9922)"><path
             d="M 0,0 C 0.233,-0.254 0.462,-0.512 0.686,-0.774 1.197,-0.401 1.722,-0.045 2.25,0.305 2.149,0.481 2.052,0.666 1.949,0.835 1.299,0.551 0.65,0.28 0,0"
             style="fill:#f2f2f2;fill-opacity:1;fill-rule:nonzero;stroke:none"
             id="path3487"
             inkscape:connector-curvature="0" /></g><g
           id="g3489"
           transform="translate(164.042,131.7368)"><path
             d="m 0,0 c -0.106,-0.227 -0.003,-0.496 0.229,-0.601 1.892,-0.845 3.755,-1.632 5.598,-2.388 0.132,0.266 0.257,0.541 0.369,0.831 C 4.358,-1.404 2.502,-0.62 0.618,0.222 0.384,0.326 0.107,0.227 0,0"
             style="fill:#f2f2f2;fill-opacity:1;fill-rule:nonzero;stroke:none"
             id="path3491"
             inkscape:connector-curvature="0" /></g></g></g></g></svg>