<?xml version="1.0" encoding="utf-8"?>
<!-- Generator: Adobe Illustrator 16.0.0, SVG Export Plug-In . SVG Version: 6.00 Build 0)  -->
<!DOCTYPE svg PUBLIC "-//W3C//DTD SVG 1.1//EN" "http://www.w3.org/Graphics/SVG/1.1/DTD/svg11.dtd">
<svg version="1.1"
	 id="svg2" inkscape:export-filename="/home/kivutar/Bureau/lakka-menu/reload.png" inkscape:export-xdpi="90" inkscape:version="0.48.4 r9939" inkscape:export-ydpi="90" sodipodi:docname="reload.svg" xmlns:svg="http://www.w3.org/2000/svg" xmlns:cc="http://creativecommons.org/ns#" xmlns:sodipodi="http://sodipodi.sourceforge.net/DTD/sodipodi-0.dtd" xmlns:rdf="http://www.w3.org/1999/02/22-rdf-syntax-ns#" xmlns:dc="http://purl.org/dc/elements/1.1/" xmlns:inkscape="http://www.inkscape.org/namespaces/inkscape"
	 xmlns="http://www.w3.org/2000/svg" xmlns:xlink="http://www.w3.org/1999/xlink" x="0px" y="0px" width="64px" height="64px"
	 viewBox="0 128 64 64" enable-background="new 0 128 64 64" xml:space="preserve">
<path id="Utilities_1_" fill="#F2F2F2" d="M46.28,149.711l-2.99,2.99l-1.696,0.233l-2.527-2.527l0.232-1.696l2.992-2.991
	C41.797,145.141,41,145,40,145c-1.638,0-3.268,1.014-4.518,2.264C33.465,149.281,32.83,152.566,34,155l-16.539,16.736
	C17.178,172.082,17,172.519,17,173c0,1.104,0.896,2,2,2c0.482,0,0.918-0.178,1.264-0.461L37,159
	c2.434,1.168,6.207-0.132,8.225-2.149c1.291-1.291,1.777-3.559,1.775-4.851C46.999,151.148,46.828,150.344,46.28,149.711z M19,174
	c-0.553,0-1-0.447-1-1s0.447-1,1-1s1,0.447,1,1S19.553,174,19,174z M17.82,148.867l3.047-3.048c0.485-0.486,1.273-0.486,1.76,0
	l8.868,8.869l-4.778,4.835l-8.896-8.896C17.333,150.142,17.333,149.354,17.82,148.867z M44.75,174.544l-4.469-2.437l-0.293-2.325
	l-5.614-5.614l1.86-1.729l5.548,5.55l2.324,0.292l2.438,4.468L44.75,174.544z"/>
</svg>
