<?xml version="1.0" encoding="utf-8"?>
<!-- Generator: Adobe Illustrator 16.0.0, SVG Export Plug-In . SVG Version: 6.00 Build 0)  -->
<!DOCTYPE svg PUBLIC "-//W3C//DTD SVG 1.1//EN" "http://www.w3.org/Graphics/SVG/1.1/DTD/svg11.dtd">
<svg version="1.1"
	 id="svg2" inkscape:export-filename="/home/kivutar/Bureau/lakka-menu/reload.png" inkscape:export-xdpi="90" inkscape:version="0.48.4 r9939" inkscape:export-ydpi="90" sodipodi:docname="reload.svg" xmlns:svg="http://www.w3.org/2000/svg" xmlns:cc="http://creativecommons.org/ns#" xmlns:sodipodi="http://sodipodi.sourceforge.net/DTD/sodipodi-0.dtd" xmlns:rdf="http://www.w3.org/1999/02/22-rdf-syntax-ns#" xmlns:dc="http://purl.org/dc/elements/1.1/" xmlns:inkscape="http://www.inkscape.org/namespaces/inkscape"
	 xmlns="http://www.w3.org/2000/svg" xmlns:xlink="http://www.w3.org/1999/xlink" x="0px" y="0px" width="64px" height="64px"
	 viewBox="0 128 64 64" enable-background="new 0 128 64 64" xml:space="preserve">
<path id="Utilities" fill="#F2F2F2" d="M32,133c-22.415,0-27,4.554-27,27.001S9.514,187,32,187c22.489,0,27-4.543,27-26.999
	C59,137.543,54.415,133,32,133z M17.82,148.867l3.047-3.048c0.485-0.486,1.273-0.486,1.76,0l8.868,8.869l-4.778,4.835l-8.896-8.896
	C17.333,150.142,17.333,149.354,17.82,148.867z M44.75,174.544l-4.469-2.437l-0.293-2.325l-5.614-5.614l1.86-1.729l5.548,5.55
	l2.324,0.292l2.438,4.468L44.75,174.544z M45.225,156.851c-2.018,2.018-5.791,3.317-8.225,2.149l-16.736,15.539
	C19.918,174.822,19.482,175,19,175c-1.104,0-2-0.896-2-2c0-0.481,0.178-0.918,0.461-1.264L34,155
	c-1.17-2.434-0.535-5.719,1.482-7.736c1.25-1.25,2.88-2.264,4.518-2.264c1,0,1.797,0.141,2.291,0.72l-2.992,2.991l-0.232,1.696
	l2.527,2.527l1.696-0.233l2.99-2.99c0.548,0.633,0.719,1.438,0.72,2.289C47.002,153.292,46.516,155.56,45.225,156.851z M19,172
	c-0.553,0-1,0.447-1,1s0.447,1,1,1s1-0.447,1-1S19.553,172,19,172z"/>
</svg>
