<?xml version="1.0" encoding="utf-8"?>
<!-- Generator: Adobe Illustrator 16.0.0, SVG Export Plug-In . SVG Version: 6.00 Build 0)  -->
<!DOCTYPE svg PUBLIC "-//W3C//DTD SVG 1.1//EN" "http://www.w3.org/Graphics/SVG/1.1/DTD/svg11.dtd">
<svg version="1.1" id="Calque_1" xmlns="http://www.w3.org/2000/svg" xmlns:xlink="http://www.w3.org/1999/xlink" x="0px" y="0px"
	 width="64px" height="64px" viewBox="0 0 64 64" enable-background="new 0 0 64 64" xml:space="preserve">
<path id="Folder_1_" fill="#F2F2F2" d="M50,29H14c-1.105,0-2,0.895-2,2l4,14c0,0,0.895,2,2,2h28c1.105,0,2-2,2-2l4-14
	C52,29.895,51.105,29,50,29z M44,21H32c0-2.211-1.789-4-4-4h-8c-2.211,0-4,1.789-4,4v6h32v-2C48,22.789,46.211,21,44,21z"/>
</svg>
