<?xml version="1.0" encoding="utf-8"?>
<!-- Generator: Adobe Illustrator 16.0.0, SVG Export Plug-In . SVG Version: 6.00 Build 0)  -->
<!DOCTYPE svg PUBLIC "-//W3C//DTD SVG 1.1//EN" "http://www.w3.org/Graphics/SVG/1.1/DTD/svg11.dtd">
<svg version="1.1"
	 id="svg2" inkscape:export-filename="/home/kivutar/Bureau/lakka-menu/reload.png" inkscape:export-xdpi="90" inkscape:version="0.48.4 r9939" inkscape:export-ydpi="90" sodipodi:docname="reload.svg" xmlns:svg="http://www.w3.org/2000/svg" xmlns:cc="http://creativecommons.org/ns#" xmlns:sodipodi="http://sodipodi.sourceforge.net/DTD/sodipodi-0.dtd" xmlns:rdf="http://www.w3.org/1999/02/22-rdf-syntax-ns#" xmlns:dc="http://purl.org/dc/elements/1.1/" xmlns:inkscape="http://www.inkscape.org/namespaces/inkscape"
	 xmlns="http://www.w3.org/2000/svg" xmlns:xlink="http://www.w3.org/1999/xlink" x="0px" y="0px" width="64px" height="64px"
	 viewBox="0 128 64 64" enable-background="new 0 128 64 64" xml:space="preserve">
<sodipodi:namedview  id="base" pagecolor="#ffffff" inkscape:cy="103.59544" showgrid="true" inkscape:cx="75.572686" inkscape:zoom="11.2" borderopacity="1.0" bordercolor="#666666" inkscape:window-height="837" inkscape:document-units="px" inkscape:window-width="1440" inkscape:window-maximized="1" inkscape:pageshadow="2" inkscape:pageopacity="0.0" inkscape:window-y="27" inkscape:window-x="0" inkscape:current-layer="layer1">
	<inkscape:grid  type="xygrid" id="grid2985" enabled="true" visible="true" empspacing="4" snapvisiblegridlinesonly="true">
		</inkscape:grid>
</sodipodi:namedview>
<path id="Vectrex" fill="#F2F2F2" d="M60,149H4c-0.521,0-1,0.48-1,1v20c0,0.521,0.479,1,1,1h56c0.521,0,1-0.479,1-1v-20
	C61,149.48,60.521,149,60,149z M59,166c0,0.52-0.48,1-1,1H6c-0.52,0-1-0.48-1-1v-13c0-0.52,0.48-1,1-1h25c0,1.657,1.343,3,3,3
	s3-1.343,3-3h21c0.52,0,1,0.48,1,1V166z M18,159c-0.553,0-1,0.447-1,1s0.447,1,1,1s1-0.447,1-1S18.553,159,18,159z M54,157
	c-1.304,0-2.402,0.838-2.816,2h-2.367c-0.414-1.162-1.513-2-2.816-2s-2.402,0.838-2.816,2h-2.367c-0.414-1.162-1.513-2-2.816-2
	s-2.402,0.838-2.816,2h-2.367c-0.414-1.162-1.513-2-2.816-2s-2.402,0.838-2.816,2H23.91c-0.478-2.836-2.938-5-5.91-5
	c-3.313,0-6,2.687-6,6s2.687,6,6,6c2.972,0,5.433-2.164,5.91-5h3.273c0.414,1.162,1.513,2,2.816,2s2.402-0.838,2.816-2h2.367
	c0.414,1.162,1.513,2,2.816,2s2.402-0.838,2.816-2h2.367c0.414,1.162,1.513,2,2.816,2s2.402-0.838,2.816-2h2.367
	c0.414,1.162,1.513,2,2.816,2c1.656,0,3-1.344,3-3S55.656,157,54,157z M18,165c-2.762,0-5-2.238-5-5s2.238-5,5-5s5,2.238,5,5
	S20.762,165,18,165z M30,162c-1.104,0-2-0.896-2-2s0.896-2,2-2s2,0.896,2,2S31.104,162,30,162z M38,162c-1.104,0-2-0.896-2-2
	s0.896-2,2-2s2,0.896,2,2S39.104,162,38,162z M46,162c-1.104,0-2-0.896-2-2s0.896-2,2-2s2,0.896,2,2S47.104,162,46,162z M54,162
	c-1.104,0-2-0.896-2-2s0.896-2,2-2s2,0.896,2,2S55.104,162,54,162z"/>
</svg>
