<?xml version="1.0" encoding="utf-8"?>
<!-- Generator: Adobe Illustrator 16.0.0, SVG Export Plug-In . SVG Version: 6.00 Build 0)  -->
<!DOCTYPE svg PUBLIC "-//W3C//DTD SVG 1.1//EN" "http://www.w3.org/Graphics/SVG/1.1/DTD/svg11.dtd">
<svg version="1.1"
	 id="svg2" inkscape:export-filename="/home/kivutar/Bureau/lakka-menu/reload.png" inkscape:export-xdpi="90" inkscape:version="0.48.4 r9939" inkscape:export-ydpi="90" sodipodi:docname="reload.svg" xmlns:svg="http://www.w3.org/2000/svg" xmlns:cc="http://creativecommons.org/ns#" xmlns:sodipodi="http://sodipodi.sourceforge.net/DTD/sodipodi-0.dtd" xmlns:rdf="http://www.w3.org/1999/02/22-rdf-syntax-ns#" xmlns:dc="http://purl.org/dc/elements/1.1/" xmlns:inkscape="http://www.inkscape.org/namespaces/inkscape"
	 xmlns="http://www.w3.org/2000/svg" xmlns:xlink="http://www.w3.org/1999/xlink" x="0px" y="0px" width="64px" height="64px"
	 viewBox="0 128 64 64" enable-background="new 0 128 64 64" xml:space="preserve">
<path id="Vectrex_3_" fill="#F2F2F2" d="M53,138h-1c0-1,0-1-1-1H13c-1,0-1,0-1,1h-1c-1,0-1,0-1,1v43c0,1,0,1,1,1h42c1,0,1,0,1-1v-43
	C54,138,54,138,53,138z M32,142l4,3h-2v1h-4v-1h-2L32,142z M50,178c0,0.553-0.447,1-1,1H15c-0.553,0-1-0.447-1-1v-17
	c0-0.553,0.447-1,1-1h34c0.553,0,1,0.447,1,1V178z M52,180c0,0.553-0.447,1-1,1H13c-0.553,0-1-0.447-1-1v-21c0-0.553,0.447-1,1-1h38
	c0.553,0,1,0.447,1,1V180z"/>
</svg>
