<?xml version="1.0" encoding="utf-8"?>
<!-- Generator: Adobe Illustrator 16.0.0, SVG Export Plug-In . SVG Version: 6.00 Build 0)  -->
<!DOCTYPE svg PUBLIC "-//W3C//DTD SVG 1.1//EN" "http://www.w3.org/Graphics/SVG/1.1/DTD/svg11.dtd">
<svg version="1.1"
	 id="svg2" inkscape:export-filename="/home/kivutar/Bureau/lakka-menu/reload.png" inkscape:export-xdpi="90" inkscape:version="0.48.4 r9939" inkscape:export-ydpi="90" sodipodi:docname="reload.svg" xmlns:svg="http://www.w3.org/2000/svg" xmlns:cc="http://creativecommons.org/ns#" xmlns:sodipodi="http://sodipodi.sourceforge.net/DTD/sodipodi-0.dtd" xmlns:rdf="http://www.w3.org/1999/02/22-rdf-syntax-ns#" xmlns:dc="http://purl.org/dc/elements/1.1/" xmlns:inkscape="http://www.inkscape.org/namespaces/inkscape"
	 xmlns="http://www.w3.org/2000/svg" xmlns:xlink="http://www.w3.org/1999/xlink" x="0px" y="0px" width="64px" height="64px"
	 viewBox="0 128 64 64" enable-background="new 0 128 64 64" xml:space="preserve">
<path id="Arcade" fill="#F2F2F2" d="M32,136c-13.256,0-24,10.744-24,24s10.744,24,24,24s24-10.744,24-24S45.256,136,32,136z M32,182
	c-12.151,0-22-9.849-22-22s9.849-22,22-22c12.15,0,22,9.849,22,22S44.15,182,32,182z M32,140c-11.046,0-20,8.954-20,20
	s8.954,20,20,20s20-8.954,20-20S43.046,140,32,140z M29,168h-9v-3h3v-10h-3v-3h6v13h3V168z M45,163c0,2.762-3.134,5-7,5
	s-7-2.238-7-5v-6c0-2.762,3.134-5,7-5s7,2.238,7,5V163z M38,155c-2.209,0-4,0.896-4,2v6c0,1.104,1.791,2,4,2s4-0.896,4-2v-6
	C42,155.896,40.209,155,38,155z"/>
</svg>
