<?xml version="1.0" encoding="utf-8"?>
<!-- Generator: Adobe Illustrator 16.0.0, SVG Export Plug-In . SVG Version: 6.00 Build 0)  -->
<!DOCTYPE svg PUBLIC "-//W3C//DTD SVG 1.1//EN" "http://www.w3.org/Graphics/SVG/1.1/DTD/svg11.dtd">
<svg version="1.1"
	 id="svg2" inkscape:export-filename="/home/kivutar/Bureau/lakka-menu/reload.png" inkscape:export-xdpi="90" inkscape:version="0.48.4 r9939" inkscape:export-ydpi="90" sodipodi:docname="reload.svg" xmlns:svg="http://www.w3.org/2000/svg" xmlns:cc="http://creativecommons.org/ns#" xmlns:sodipodi="http://sodipodi.sourceforge.net/DTD/sodipodi-0.dtd" xmlns:rdf="http://www.w3.org/1999/02/22-rdf-syntax-ns#" xmlns:dc="http://purl.org/dc/elements/1.1/" xmlns:inkscape="http://www.inkscape.org/namespaces/inkscape"
	 xmlns="http://www.w3.org/2000/svg" xmlns:xlink="http://www.w3.org/1999/xlink" x="0px" y="0px" width="64px" height="64px"
	 viewBox="0 128 64 64" enable-background="new 0 128 64 64" xml:space="preserve">
<path id="PCFX_1_" fill="#F2F2F2" d="M59.352,151.715C57.831,148.169,44.916,145,32,145s-25.831,3.169-27.35,6.715
	C2.3,157.421,1,161.312,1,165c0,5.907,2.772,10,12,10c2.214,0,5,0,8-1c2-4,20-4,22,0c3,1,5.786,1,8,1c9.228,0,12-4.093,12-10
	C63,161.312,61.7,157.421,59.352,151.715z M17.896,164.017c-0.08,0.244-0.339,0.381-0.585,0.309
	c-0.363-0.105-0.771-0.301-1.165-0.488c-0.454-0.218-0.924-0.442-1.27-0.505c-0.326,0.012-0.49,0.176-0.502,0.501
	c0.062,0.347,0.288,0.815,0.506,1.271c0.187,0.395,0.382,0.802,0.488,1.165c0.071,0.248-0.064,0.505-0.309,0.585
	c-0.767,0.249-1.479,0.37-2.174,0.37s-1.404-0.121-2.173-0.37c-0.244-0.08-0.38-0.337-0.309-0.585
	c0.108-0.363,0.302-0.771,0.49-1.165c0.216-0.455,0.44-0.924,0.503-1.271c-0.011-0.325-0.176-0.489-0.501-0.501
	c-0.345,0.062-0.815,0.287-1.27,0.505c-0.394,0.188-0.802,0.383-1.165,0.488c-0.246,0.072-0.506-0.064-0.585-0.309
	c-0.496-1.522-0.496-2.823,0-4.346c0.079-0.244,0.339-0.379,0.585-0.309c0.363,0.108,0.771,0.301,1.165,0.49
	c0.456,0.216,0.925,0.44,1.27,0.503c0.325-0.011,0.49-0.176,0.501-0.501c-0.062-0.345-0.287-0.813-0.503-1.268
	c-0.188-0.396-0.382-0.803-0.49-1.168c-0.071-0.246,0.062-0.503,0.307-0.585c1.677-0.558,2.674-0.558,4.353,0
	c0.242,0.082,0.376,0.339,0.305,0.585c-0.106,0.365-0.302,0.772-0.49,1.166c-0.216,0.456-0.441,0.925-0.504,1.27
	c0.012,0.325,0.176,0.49,0.502,0.501c0.344-0.062,0.815-0.287,1.27-0.503c0.394-0.189,0.802-0.382,1.165-0.49
	c0.246-0.07,0.505,0.064,0.585,0.309C18.393,161.193,18.393,162.494,17.896,164.017z M30.5,160h3c0.276,0,0.5,0.224,0.5,0.5
	s-0.224,0.5-0.5,0.5h-3c-0.276,0-0.5-0.224-0.5-0.5S30.224,160,30.5,160z M30,169h-2c-0.553,0-1-0.447-1-1s0.447-1,1-1h2
	c0.553,0,1,0.447,1,1S30.553,169,30,169z M30.5,163c-0.276,0-0.5-0.224-0.5-0.5s0.224-0.5,0.5-0.5h3c0.276,0,0.5,0.224,0.5,0.5
	s-0.224,0.5-0.5,0.5H30.5z M36,169h-2c-0.553,0-1-0.447-1-1s0.447-1,1-1h2c0.553,0,1,0.447,1,1S36.553,169,36,169z M42,160
	c0-1.104,0.896-2,2-2s2,0.896,2,2s-0.896,2-2,2S42,161.104,42,160z M46,168c-1.104,0-2-0.896-2-2s0.896-2,2-2s2,0.896,2,2
	S47.104,168,46,168z M48,158c0-1.104,0.896-2,2-2s2,0.896,2,2s-0.896,2-2,2S48,159.104,48,158z M52,166c-1.104,0-2-0.896-2-2
	s0.896-2,2-2s2,0.896,2,2S53.104,166,52,166z M54,156c0-1.104,0.896-2,2-2s2,0.896,2,2s-0.896,2-2,2S54,157.104,54,156z M58,164
	c-1.104,0-2-0.896-2-2s0.896-2,2-2s2,0.896,2,2S59.104,164,58,164z"/>
</svg>
