<?xml version="1.0" encoding="utf-8"?>
<!-- Generator: Adobe Illustrator 16.0.0, SVG Export Plug-In . SVG Version: 6.00 Build 0)  -->
<!DOCTYPE svg PUBLIC "-//W3C//DTD SVG 1.1//EN" "http://www.w3.org/Graphics/SVG/1.1/DTD/svg11.dtd">
<svg version="1.1"
	 id="svg2" inkscape:export-filename="/home/kivutar/Bureau/lakka-menu/reload.png" inkscape:export-xdpi="90" inkscape:version="0.48.4 r9939" inkscape:export-ydpi="90" sodipodi:docname="reload.svg" xmlns:svg="http://www.w3.org/2000/svg" xmlns:cc="http://creativecommons.org/ns#" xmlns:sodipodi="http://sodipodi.sourceforge.net/DTD/sodipodi-0.dtd" xmlns:rdf="http://www.w3.org/1999/02/22-rdf-syntax-ns#" xmlns:dc="http://purl.org/dc/elements/1.1/" xmlns:inkscape="http://www.inkscape.org/namespaces/inkscape"
	 xmlns="http://www.w3.org/2000/svg" xmlns:xlink="http://www.w3.org/1999/xlink" x="0px" y="0px" width="64px" height="64px"
	 viewBox="0 128 64 64" enable-background="new 0 128 64 64" xml:space="preserve">
<path id="Neo_Geo" fill="#F2F2F2" d="M32,141c-18,0-30.969,7-31,19c0,13,11,19,15,19c5.708,0,9.715-2.011,16-2
	c8.061,0.014,15,2,16,2c7,0,15-8,15-19C63,147,50,141,32,141z M39,144c1.104,0,2,0.896,2,2s-0.896,2-2,2s-2-0.896-2-2
	S37.896,144,39,144z M31,146c1.104,0,2,0.896,2,2s-0.896,2-2,2s-2-0.896-2-2S29.896,146,31,146z M17,164c-3.313,0-6-2.687-6-6
	s2.687-6,6-6s6,2.687,6,6S20.313,164,17,164z M31.5,163c-1.933,0-3.5-1.567-3.5-3.5s1.567-3.5,3.5-3.5s3.5,1.567,3.5,3.5
	S33.433,163,31.5,163z M38.5,157c-1.933,0-3.5-1.567-3.5-3.5s1.567-3.5,3.5-3.5s3.5,1.567,3.5,3.5S40.433,157,38.5,157z M47.5,155
	c-1.933,0-3.5-1.567-3.5-3.5s1.567-3.5,3.5-3.5s3.5,1.567,3.5,3.5S49.433,155,47.5,155z M55.5,158c-1.933,0-3.5-1.567-3.5-3.5
	s1.567-3.5,3.5-3.5s3.5,1.567,3.5,3.5S57.433,158,55.5,158z M17,154c-2.209,0-4,1.791-4,4s1.791,4,4,4s4-1.791,4-4
	S19.209,154,17,154z"/>
</svg>
