<?xml version="1.0" encoding="UTF-8" standalone="no"?>
<!-- Created with Inkscape (http://www.inkscape.org/) -->

<svg
   xmlns:dc="http://purl.org/dc/elements/1.1/"
   xmlns:cc="http://creativecommons.org/ns#"
   xmlns:rdf="http://www.w3.org/1999/02/22-rdf-syntax-ns#"
   xmlns:svg="http://www.w3.org/2000/svg"
   xmlns="http://www.w3.org/2000/svg"
   xmlns:sodipodi="http://sodipodi.sourceforge.net/DTD/sodipodi-0.dtd"
   xmlns:inkscape="http://www.inkscape.org/namespaces/inkscape"
   id="svg5495"
   version="1.1"
   inkscape:version="0.48.5 r10040"
   width="256"
   height="256"
   xml:space="preserve"
   sodipodi:docname="netplay - iRoom.svg"
   inkscape:export-filename="/Volumes/Verbatim16/GitHub Projects/baxy-retroarch-themes/monochrome plus/contributions/svg/netplay - iRoom.png"
   inkscape:export-xdpi="90.099998"
   inkscape:export-ydpi="90.099998"><metadata
     id="metadata5501"><rdf:RDF><cc:Work
         rdf:about=""><dc:format>image/svg+xml</dc:format><dc:type
           rdf:resource="http://purl.org/dc/dcmitype/StillImage" /><dc:title></dc:title></cc:Work></rdf:RDF></metadata><defs
     id="defs5499"><clipPath
       clipPathUnits="userSpaceOnUse"
       id="clipPath5511"><path
         d="M 0,256 256,256 256,0 0,0 0,256 z"
         id="path5513"
         inkscape:connector-curvature="0" /></clipPath></defs><sodipodi:namedview
     pagecolor="#ffffff"
     bordercolor="#666666"
     borderopacity="1"
     objecttolerance="10"
     gridtolerance="10"
     guidetolerance="10"
     inkscape:pageopacity="0"
     inkscape:pageshadow="2"
     inkscape:window-width="1676"
     inkscape:window-height="1005"
     id="namedview5497"
     showgrid="false"
     inkscape:zoom="2.61875"
     inkscape:cx="160"
     inkscape:cy="160"
     inkscape:window-x="4"
     inkscape:window-y="1"
     inkscape:window-maximized="1"
     inkscape:current-layer="g5503" /><g
     id="g5503"
     inkscape:groupmode="layer"
     inkscape:label="netplay - iRoom"
     transform="matrix(1.25,0,0,-1.25,0,256)"><path
       d="m 100.8,100.79999 3.2,0 0,3.20001 -3.2,0 0,-3.20001 z"
       style="fill:#f2f2f2;fill-opacity:1;fill-rule:nonzero;stroke:none"
       id="path5505"
       inkscape:connector-curvature="0" /><g
       id="g5507"
       transform="matrix(0.80000103,0,0,0.80000103,-5.1839897e-5,-1.1839846e-5)"><g
         id="g5509"
         clip-path="url(#clipPath5511)"><g
           id="g5515"
           transform="translate(149.1826,38)"><path
             d="m 0,0 -1.838,3.184 c -0.037,0.194 -0.073,0.392 -0.113,0.579 -0.609,2.794 -1.606,4.808 -3.14,6.341 -1.533,1.531 -3.549,2.526 -6.342,3.131 -2.405,0.522 -5.503,0.765 -9.75,0.765 -4.246,0 -7.344,-0.243 -9.75,-0.766 -2.793,-0.606 -4.808,-1.602 -6.341,-3.133 -1.534,-1.534 -2.532,-3.548 -3.14,-6.341 -0.012,-0.055 -0.022,-0.114 -0.033,-0.169 l -1.918,-3.323 1.364,-0.788 c -0.122,-1.586 -0.182,-3.393 -0.182,-5.48 l 0,-0.001 c 0,-4.312 0.235,-7.321 0.762,-9.758 0.604,-2.795 1.598,-4.809 3.128,-6.341 1.53,-1.533 3.545,-2.529 6.34,-3.134 2.408,-0.523 5.512,-0.766 9.77,-0.766 4.26,0 7.365,0.243 9.772,0.765 2.795,0.605 4.809,1.6 6.34,3.132 1.53,1.532 2.523,3.546 3.128,6.341 0.526,2.437 0.76,5.448 0.76,9.761 l 0,0.001 c 0,1.977 -0.055,3.696 -0.164,5.223 L 0,0 z"
             style="fill:#f2f2f2;fill-opacity:1;fill-rule:nonzero;stroke:none"
             id="path5517"
             inkscape:connector-curvature="0" /></g><path
           d="m 212,109.732 4,0 0,4 -4,0 0,-4 z"
           style="fill:#f2f2f2;fill-opacity:1;fill-rule:nonzero;stroke:none"
           id="path5519"
           inkscape:connector-curvature="0" /><path
           d="m 212,125.732 4,0 0,4 -4,0 0,-4 z"
           style="fill:#f2f2f2;fill-opacity:1;fill-rule:nonzero;stroke:none"
           id="path5521"
           inkscape:connector-curvature="0" /><path
           d="m 212,133.732 4,0 0,4 -4,0 0,-4 z"
           style="fill:#f2f2f2;fill-opacity:1;fill-rule:nonzero;stroke:none"
           id="path5523"
           inkscape:connector-curvature="0" /><g
           id="g5525"
           transform="translate(156.1104,213.4644)"><path
             d="m 0,0 -3.464,2 -2,-3.464 3.464,-2 L 0,0 z"
             style="fill:#f2f2f2;fill-opacity:1;fill-rule:nonzero;stroke:none"
             id="path5527"
             inkscape:connector-curvature="0" /></g><g
           id="g5529"
           transform="translate(163.0381,209.4644)"><path
             d="m 0,0 -3.464,2 -2,-3.464 3.464,-2 L 0,0 z"
             style="fill:#f2f2f2;fill-opacity:1;fill-rule:nonzero;stroke:none"
             id="path5531"
             inkscape:connector-curvature="0" /></g><g
           id="g5533"
           transform="translate(190.751,193.4644)"><path
             d="m 0,0 -3.464,2 -2,-3.464 3.464,-2 L 0,0 z"
             style="fill:#f2f2f2;fill-opacity:1;fill-rule:nonzero;stroke:none"
             id="path5535"
             inkscape:connector-curvature="0" /></g><g
           id="g5537"
           transform="translate(176.8945,201.4644)"><path
             d="m 0,0 -3.464,2 -2,-3.464 3.464,-2 L 0,0 z"
             style="fill:#f2f2f2;fill-opacity:1;fill-rule:nonzero;stroke:none"
             id="path5539"
             inkscape:connector-curvature="0" /></g><path
           d="m 216,153.732 -4,0 0,-4 4,0 0,4 z"
           style="fill:#f2f2f2;fill-opacity:1;fill-rule:nonzero;stroke:none"
           id="path5541"
           inkscape:connector-curvature="0" /><g
           id="g5543"
           transform="translate(185.2871,63.4648)"><path
             d="m 0,0 2,-3.465 3.464,2 L 3.464,2 0,0 z"
             style="fill:#f2f2f2;fill-opacity:1;fill-rule:nonzero;stroke:none"
             id="path5545"
             inkscape:connector-curvature="0" /></g><g
           id="g5547"
           transform="translate(178.3594,59.4648)"><path
             d="m 0,0 2,-3.465 3.464,2 L 3.464,2 0,0 z"
             style="fill:#f2f2f2;fill-opacity:1;fill-rule:nonzero;stroke:none"
             id="path5549"
             inkscape:connector-curvature="0" /></g><g
           id="g5551"
           transform="translate(178.3594,196.0005)"><path
             d="m 0,0 3.464,-2 2,3.464 L 2,3.464 0,0 z"
             style="fill:#f2f2f2;fill-opacity:1;fill-rule:nonzero;stroke:none"
             id="path5553"
             inkscape:connector-curvature="0" /></g><g
           id="g5555"
           transform="translate(150.6465,43.4648)"><path
             d="m 0,0 2,-3.465 3.464,2 L 3.464,2 0,0 z"
             style="fill:#f2f2f2;fill-opacity:1;fill-rule:nonzero;stroke:none"
             id="path5557"
             inkscape:connector-curvature="0" /></g><g
           id="g5559"
           transform="translate(157.5742,47.4648)"><path
             d="m 0,0 2,-3.465 3.464,2 L 3.464,2 0,0 z"
             style="fill:#f2f2f2;fill-opacity:1;fill-rule:nonzero;stroke:none"
             id="path5561"
             inkscape:connector-curvature="0" /></g><g
           id="g5563"
           transform="translate(171.4307,55.4648)"><path
             d="m 0,0 2,-3.465 3.464,2 L 3.464,2 0,0 z"
             style="fill:#f2f2f2;fill-opacity:1;fill-rule:nonzero;stroke:none"
             id="path5565"
             inkscape:connector-curvature="0" /></g><g
           id="g5567"
           transform="translate(164.5029,51.4648)"><path
             d="m 0,0 2,-3.465 3.464,2 L 3.464,2 0,0 z"
             style="fill:#f2f2f2;fill-opacity:1;fill-rule:nonzero;stroke:none"
             id="path5569"
             inkscape:connector-curvature="0" /></g><g
           id="g5571"
           transform="translate(164.5029,204.0005)"><path
             d="m 0,0 3.464,-2 2,3.464 L 2,3.464 0,0 z"
             style="fill:#f2f2f2;fill-opacity:1;fill-rule:nonzero;stroke:none"
             id="path5573"
             inkscape:connector-curvature="0" /></g><path
           d="m 212,117.732 4,0 0,4 -4,0 0,-4 z"
           style="fill:#f2f2f2;fill-opacity:1;fill-rule:nonzero;stroke:none"
           id="path5575"
           inkscape:connector-curvature="0" /><g
           id="g5577"
           transform="translate(91.4971,204.2681)"><path
             d="m 0,0 -2,3.464 -3.464,-2 2,-3.464 L 0,0 z"
             style="fill:#f2f2f2;fill-opacity:1;fill-rule:nonzero;stroke:none"
             id="path5579"
             inkscape:connector-curvature="0" /></g><g
           id="g5581"
           transform="translate(84.5693,200.2681)"><path
             d="m 0,0 -2,3.464 -3.464,-2 2,-3.464 L 0,0 z"
             style="fill:#f2f2f2;fill-opacity:1;fill-rule:nonzero;stroke:none"
             id="path5583"
             inkscape:connector-curvature="0" /></g><g
           id="g5585"
           transform="translate(70.7129,192.2681)"><path
             d="m 0,0 -2,3.464 -3.464,-2 2,-3.464 L 0,0 z"
             style="fill:#f2f2f2;fill-opacity:1;fill-rule:nonzero;stroke:none"
             id="path5587"
             inkscape:connector-curvature="0" /></g><g
           id="g5589"
           transform="translate(77.6406,196.2681)"><path
             d="m 0,0 -2,3.464 -3.464,-2 2,-3.464 L 0,0 z"
             style="fill:#f2f2f2;fill-opacity:1;fill-rule:nonzero;stroke:none"
             id="path5591"
             inkscape:connector-curvature="0" /></g><g
           id="g5593"
           transform="translate(40,150)"><path
             d="M 0,0 4,0 4,4 2,4 0,4 0,0 z"
             style="fill:#f2f2f2;fill-opacity:1;fill-rule:nonzero;stroke:none"
             id="path5595"
             inkscape:connector-curvature="0" /></g><g
           id="g5597"
           transform="translate(108.7241,214.4307)"><path
             d="m 0,0 c 0.013,-0.062 0.024,-0.128 0.037,-0.189 0.604,-2.795 1.598,-4.81 3.128,-6.342 1.531,-1.532 3.545,-2.529 6.34,-3.135 2.408,-0.522 5.513,-0.765 9.771,-0.765 4.26,0 7.364,0.243 9.771,0.764 2.795,0.606 4.81,1.602 6.34,3.134 1.486,1.486 2.462,3.434 3.071,6.103 l 2,3.464 -1.379,0.796 c 0.132,1.633 0.197,3.509 0.197,5.739 l 0,0 c 0,4.252 -0.244,7.354 -0.769,9.763 -0.608,2.793 -1.605,4.809 -3.139,6.341 -1.534,1.531 -3.549,2.526 -6.342,3.132 -2.405,0.522 -5.503,0.764 -9.75,0.764 -4.246,0 -7.344,-0.243 -9.75,-0.765 C 6.733,28.197 4.718,27.202 3.185,25.67 1.65,24.137 0.653,22.122 0.044,19.329 -0.48,16.92 -0.724,13.819 -0.724,9.569 l 0,0 c 0,-2.113 0.057,-3.91 0.177,-5.484 L -1.906,3.301 0,0 z"
             style="fill:#f2f2f2;fill-opacity:1;fill-rule:nonzero;stroke:none"
             id="path5599"
             inkscape:connector-curvature="0" /></g><g
           id="g5601"
           transform="translate(98.4258,208.2681)"><path
             d="m 0,0 -2,3.464 -3.464,-2 2,-3.464 L 0,0 z"
             style="fill:#f2f2f2;fill-opacity:1;fill-rule:nonzero;stroke:none"
             id="path5603"
             inkscape:connector-curvature="0" /></g><g
           id="g5605"
           transform="translate(105.3535,212.2681)"><path
             d="m 0,0 -2,3.464 -3.464,-2 2,-3.464 L 0,0 z"
             style="fill:#f2f2f2;fill-opacity:1;fill-rule:nonzero;stroke:none"
             id="path5607"
             inkscape:connector-curvature="0" /></g><g
           id="g5609"
           transform="translate(44,106)"><path
             d="m 0,0 -4,0 0,-4 2,0 2,0 0,4 z"
             style="fill:#f2f2f2;fill-opacity:1;fill-rule:nonzero;stroke:none"
             id="path5611"
             inkscape:connector-curvature="0" /></g><g
           id="g5613"
           transform="translate(65.249,62.2676)"><path
             d="m 0,0 3.464,-2 2,3.465 L 2,3.465 0,0 z"
             style="fill:#f2f2f2;fill-opacity:1;fill-rule:nonzero;stroke:none"
             id="path5615"
             inkscape:connector-curvature="0" /></g><g
           id="g5617"
           transform="translate(72.1768,58.2676)"><path
             d="m 0,0 3.464,-2 2,3.465 L 2,3.465 0,0 z"
             style="fill:#f2f2f2;fill-opacity:1;fill-rule:nonzero;stroke:none"
             id="path5619"
             inkscape:connector-curvature="0" /></g><g
           id="g5621"
           transform="translate(99.8896,42.2676)"><path
             d="m 0,0 3.464,-2 2,3.465 L 2,3.465 0,0 z"
             style="fill:#f2f2f2;fill-opacity:1;fill-rule:nonzero;stroke:none"
             id="path5623"
             inkscape:connector-curvature="0" /></g><g
           id="g5625"
           transform="translate(79.1055,54.2676)"><path
             d="m 0,0 3.464,-2 2,3.465 L 2,3.465 0,0 z"
             style="fill:#f2f2f2;fill-opacity:1;fill-rule:nonzero;stroke:none"
             id="path5627"
             inkscape:connector-curvature="0" /></g><g
           id="g5629"
           transform="translate(92.9619,46.2676)"><path
             d="m 0,0 3.464,-2 2,3.465 L 2,3.465 0,0 z"
             style="fill:#f2f2f2;fill-opacity:1;fill-rule:nonzero;stroke:none"
             id="path5631"
             inkscape:connector-curvature="0" /></g><g
           id="g5633"
           transform="translate(86.0332,50.2676)"><path
             d="m 0,0 3.464,-2 2,3.465 L 2,3.465 0,0 z"
             style="fill:#f2f2f2;fill-opacity:1;fill-rule:nonzero;stroke:none"
             id="path5635"
             inkscape:connector-curvature="0" /></g><path
           d="m 40,110 4,0 0,4 -4,0 0,-4 z"
           style="fill:#f2f2f2;fill-opacity:1;fill-rule:nonzero;stroke:none"
           id="path5637"
           inkscape:connector-curvature="0" /><path
           d="m 44,146 -4,0 0,-4 4,0 0,4 z"
           style="fill:#f2f2f2;fill-opacity:1;fill-rule:nonzero;stroke:none"
           id="path5639"
           inkscape:connector-curvature="0" /><path
           d="m 44,130 -4,0 0,-4 4,0 0,4 z"
           style="fill:#f2f2f2;fill-opacity:1;fill-rule:nonzero;stroke:none"
           id="path5641"
           inkscape:connector-curvature="0" /><path
           d="m 44,122 -4,0 0,-4 4,0 0,4 z"
           style="fill:#f2f2f2;fill-opacity:1;fill-rule:nonzero;stroke:none"
           id="path5643"
           inkscape:connector-curvature="0" /><path
           d="m 44,138 -4,0 0,-4 4,0 0,4 z"
           style="fill:#f2f2f2;fill-opacity:1;fill-rule:nonzero;stroke:none"
           id="path5645"
           inkscape:connector-curvature="0" /><g
           id="g5647"
           transform="translate(234,82)"><path
             d="m 0,0 c 0,4.251 -0.244,7.354 -0.769,9.763 -0.608,2.794 -1.605,4.808 -3.139,6.341 -1.533,1.531 -3.549,2.526 -6.342,3.131 -2.008,0.436 -4.51,0.674 -7.75,0.743 l 0,3.754 -4,0 0,-3.754 c -3.239,-0.069 -5.741,-0.307 -7.75,-0.744 -2.793,-0.606 -4.809,-1.602 -6.342,-3.133 -1.147,-1.147 -1.994,-2.565 -2.603,-4.375 l -6.459,3.522 -1.914,-3.512 7.022,-3.83 0.704,1.292 C -39.788,6.871 -40,3.932 -40,0 l 0,-0.001 c 0,-4.312 0.234,-7.321 0.762,-9.758 0.224,-1.043 0.505,-1.976 0.846,-2.817 l -3.392,-1.959 2,-3.465 3.464,2 -0.2,0.345 c 0.134,-0.152 0.267,-0.303 0.409,-0.445 1.531,-1.533 3.546,-2.529 6.34,-3.134 2.408,-0.523 5.512,-0.766 9.771,-0.766 4.26,0 7.364,0.243 9.771,0.765 2.795,0.605 4.81,1.6 6.34,3.132 1.531,1.532 2.524,3.546 3.128,6.341 C -0.234,-7.325 0,-4.314 0,-0.001 L 0,0 z"
             style="fill:#f2f2f2;fill-opacity:1;fill-rule:nonzero;stroke:none"
             id="path5649"
             inkscape:connector-curvature="0" /></g><g
           id="g5651"
           transform="translate(234,174)"><path
             d="m 0,0 0,0 c 0,4.251 -0.244,7.354 -0.769,9.763 -0.608,2.793 -1.605,4.808 -3.139,6.341 -1.533,1.531 -3.549,2.526 -6.342,3.132 C -12.655,19.757 -15.753,20 -20,20 c -4.246,0 -7.345,-0.243 -9.75,-0.766 -2.793,-0.606 -4.809,-1.602 -6.342,-3.133 -0.16,-0.162 -0.312,-0.33 -0.461,-0.502 l -3.231,1.865 -2,-3.464 3.239,-1.87 C -38.813,11.406 -39.043,10.624 -39.231,9.759 -39.756,7.351 -40,4.25 -40,0 l 0,0 c 0,-4.313 0.234,-7.323 0.762,-9.759 0.603,-2.794 1.597,-4.809 3.127,-6.341 1.531,-1.533 3.546,-2.529 6.34,-3.135 2.408,-0.522 5.512,-0.765 9.771,-0.765 4.26,0 7.364,0.243 9.771,0.764 2.795,0.606 4.81,1.602 6.34,3.133 1.531,1.532 2.524,3.547 3.128,6.342 C -0.234,-7.325 0,-4.315 0,0 z"
             style="fill:#f2f2f2;fill-opacity:1;fill-rule:nonzero;stroke:none"
             id="path5653"
             inkscape:connector-curvature="0" /></g><g
           id="g5655"
           transform="translate(126.958,196)"><path
             d="M 0,0 4,0 4,8 1.042,8 0,8 0,0 z"
             style="fill:#f2f2f2;fill-opacity:1;fill-rule:nonzero;stroke:none"
             id="path5657"
             inkscape:connector-curvature="0" /></g><path
           d="m 126.958,180 4,0 0,8 -4,0 0,-8 z"
           style="fill:#f2f2f2;fill-opacity:1;fill-rule:nonzero;stroke:none"
           id="path5659"
           inkscape:connector-curvature="0" /><g
           id="g5661"
           transform="translate(179.9072,97.5674)"><path
             d="M 0,0 1.916,3.512 -5.106,7.343 -7.022,3.831 0,0 z"
             style="fill:#f2f2f2;fill-opacity:1;fill-rule:nonzero;stroke:none"
             id="path5663"
             inkscape:connector-curvature="0" /></g><g
           id="g5665"
           transform="translate(62.0459,93.418)"><path
             d="M 0,0 1.916,-3.512 8.939,0.318 7.023,3.83 0,0 z"
             style="fill:#f2f2f2;fill-opacity:1;fill-rule:nonzero;stroke:none"
             id="path5667"
             inkscape:connector-curvature="0" /></g><g
           id="g5669"
           transform="translate(76.0928,101.0791)"><path
             d="M 0,0 1.916,-3.512 8.939,0.319 7.023,3.831 0,0 z"
             style="fill:#f2f2f2;fill-opacity:1;fill-rule:nonzero;stroke:none"
             id="path5671"
             inkscape:connector-curvature="0" /></g><g
           id="g5673"
           transform="translate(130,60)"><path
             d="m 0,0 -4,0 0,-8 2,0 2,0 0,8 z"
             style="fill:#f2f2f2;fill-opacity:1;fill-rule:nonzero;stroke:none"
             id="path5675"
             inkscape:connector-curvature="0" /></g><path
           d="m 126,68 4,0 0,8 -4,0 0,-8 z"
           style="fill:#f2f2f2;fill-opacity:1;fill-rule:nonzero;stroke:none"
           id="path5677"
           inkscape:connector-curvature="0" /><g
           id="g5679"
           transform="translate(75.1348,154.9209)"><path
             d="M 0,0 7.023,-3.831 8.939,-0.319 1.916,3.512 0,0 z"
             style="fill:#f2f2f2;fill-opacity:1;fill-rule:nonzero;stroke:none"
             id="path5681"
             inkscape:connector-curvature="0" /></g><g
           id="g5683"
           transform="translate(61.0889,162.582)"><path
             d="M 0,0 7.023,-3.83 8.938,-0.318 1.915,3.512 0,0 z"
             style="fill:#f2f2f2;fill-opacity:1;fill-rule:nonzero;stroke:none"
             id="path5685"
             inkscape:connector-curvature="0" /></g><g
           id="g5687"
           transform="translate(187.8887,158.752)"><path
             d="M 0,0 7.023,3.83 5.107,7.342 -1.916,3.512 0,0 z"
             style="fill:#f2f2f2;fill-opacity:1;fill-rule:nonzero;stroke:none"
             id="path5689"
             inkscape:connector-curvature="0" /></g><g
           id="g5691"
           transform="translate(171.9258,154.6016)"><path
             d="M 0,0 1.916,-3.512 8.939,0.319 7.023,3.831 0,0 z"
             style="fill:#f2f2f2;fill-opacity:1;fill-rule:nonzero;stroke:none"
             id="path5693"
             inkscape:connector-curvature="0" /></g><g
           id="g5695"
           transform="translate(94.0576,126)"><path
             d="M 0,0 12.853,0 C 13.012,-4.355 13.76,-8.703 15.105,-12.912 12.022,-14.166 9.037,-15.74 6.198,-17.633 2.622,-12.596 0.382,-6.547 0,0 M 6.197,21.632 C 9.072,19.714 12.098,18.125 15.223,16.863 13.858,12.694 13.07,8.361 12.87,4 L 0,4 c 0.381,6.538 2.62,12.591 6.197,17.632 m 19.952,13.467 c -4.122,-4.304 -7.305,-9.227 -9.525,-14.488 -2.734,1.111 -5.386,2.496 -7.913,4.155 4.556,5.044 10.601,8.723 17.438,10.333 m 5.793,0.003 0,-17.827 c -3.899,0.169 -7.778,0.832 -11.544,1.992 2.533,5.909 6.393,11.348 11.544,15.835 M 31.942,4 16.873,4 c 0.195,3.904 0.903,7.78 2.116,11.516 4.221,-1.322 8.578,-2.07 12.953,-2.244 l 0,-9.272 z m 0,-13.273 C 27.526,-9.449 23.128,-10.209 18.871,-11.555 17.679,-7.785 17.01,-3.898 16.854,0 l 15.088,0 0,-9.273 z m 0,-22.198 c -1.691,1.475 -3.278,3.086 -4.723,4.797 -2.96,3.504 -5.279,7.338 -6.968,11.361 3.811,1.186 7.742,1.866 11.691,2.038 l 0,-18.196 z m -23.23,10.703 c 2.483,1.631 5.086,2.997 7.77,4.098 1.85,-4.457 4.406,-8.707 7.681,-12.586 0.498,-0.59 1.012,-1.168 1.539,-1.734 -6.648,1.662 -12.531,5.287 -16.99,10.222 m 27.23,7.493 c 3.947,-0.172 7.874,-0.85 11.683,-2.036 -2.529,-6.035 -6.437,-11.591 -11.683,-16.162 l 0,18.198 z m 0,13.275 15.086,0 c -0.162,-3.914 -0.84,-7.8 -2.025,-11.551 -4.254,1.343 -8.649,2.102 -13.061,2.278 l 0,9.273 z m 0,13.272 c 4.379,0.175 8.742,0.924 12.964,2.247 1.222,-3.755 1.921,-7.63 2.11,-11.519 l -15.074,0 0,9.272 z m 0,21.83 c 1.693,-1.476 3.28,-3.087 4.724,-4.798 2.88,-3.409 5.152,-7.132 6.829,-11.035 -3.767,-1.16 -7.651,-1.825 -11.553,-1.994 l 0,17.827 z M 59.15,24.75 c -2.517,-1.65 -5.157,-3.028 -7.88,-4.135 -1.838,4.343 -4.349,8.482 -7.547,12.27 -0.638,0.754 -1.3,1.49 -1.985,2.206 6.815,-1.615 12.854,-5.298 17.412,-10.341 m 2.515,-3.132 C 65.25,16.577 67.5,10.526 67.884,4 L 55.018,4 c -0.193,4.343 -0.971,8.677 -2.344,12.868 3.113,1.257 6.127,2.84 8.991,4.75 m 0.022,-39.251 c -2.842,1.895 -5.833,3.473 -8.919,4.726 1.337,4.188 2.095,8.533 2.262,12.907 l 12.855,0 c -0.381,-6.54 -2.62,-12.592 -6.198,-17.633 M 42.189,-30.988 c 3.984,4.275 7.059,9.138 9.204,14.322 2.688,-1.102 5.294,-2.469 7.781,-4.102 -4.455,-4.931 -10.333,-8.558 -16.985,-10.22 m -10.247,-4.958 0,-6.054 4,0 0,6.056 c 12.877,0.672 24.06,7.778 30.415,18.143 l 5.447,-2.97 1.915,3.512 -5.448,2.971 c 2.381,4.996 3.702,10.588 3.671,16.483 -0.03,5.906 -1.431,11.503 -3.893,16.494 l 4.713,2.57 -1.916,3.512 -4.757,-2.595 C 59.841,32.068 49.165,38.912 36.9,39.872 l 0,6.128 -4,0 0,-6.026 C 19.786,39.617 8.328,32.596 1.773,22.188 l -4.734,2.583 -1.915,-3.512 4.696,-2.561 C -2.686,13.597 -4.089,7.863 -4.058,1.805 c 0.032,-6.082 1.506,-11.824 4.083,-16.912 l -3.944,-2.152 1.916,-3.512 4.024,2.195 c 6.437,-9.952 17.387,-16.718 29.921,-17.37"
             style="fill:#f2f2f2;fill-opacity:1;fill-rule:nonzero;stroke:none"
             id="path5697"
             inkscape:connector-curvature="0" /></g><g
           id="g5699"
           transform="translate(22.7612,164.2412)"><path
             d="m 0,0 c 0.604,-2.794 1.598,-4.81 3.128,-6.341 1.531,-1.533 3.545,-2.529 6.34,-3.135 2.408,-0.522 5.512,-0.765 9.771,-0.765 4.259,0 7.364,0.242 9.771,0.764 2.795,0.606 4.81,1.602 6.34,3.133 1.53,1.532 2.524,3.547 3.128,6.342 0.526,2.436 0.761,5.446 0.761,9.76 l 0,0.001 c 0,4.251 -0.244,7.353 -0.769,9.762 -0.207,0.952 -0.464,1.807 -0.767,2.589 l 3.32,1.917 -2,3.464 -3.39,-1.958 c -0.101,0.111 -0.197,0.224 -0.303,0.329 -1.533,1.532 -3.548,2.527 -6.342,3.133 -2.404,0.521 -5.502,0.764 -9.749,0.764 -4.246,0 -7.344,-0.243 -9.75,-0.766 C 6.696,28.387 4.681,27.391 3.147,25.859 1.613,24.327 0.616,22.312 0.007,19.518 -0.517,17.109 -0.761,14.008 -0.761,9.759 l 0,-0.001 C -0.761,5.445 -0.526,2.436 0,0"
             style="fill:#f2f2f2;fill-opacity:1;fill-rule:nonzero;stroke:none"
             id="path5701"
             inkscape:connector-curvature="0" /></g><g
           id="g5703"
           transform="translate(61.2388,72.2383)"><path
             d="m 0,0 c 0.526,2.437 0.761,5.447 0.761,9.761 l 0,0.001 c 0,4.251 -0.244,7.353 -0.768,9.762 -0.609,2.794 -1.606,4.809 -3.14,6.341 -1.534,1.531 -3.549,2.527 -6.342,3.132 -2.405,0.522 -5.503,0.765 -9.75,0.765 -4.246,0 -7.344,-0.243 -9.75,-0.766 -2.793,-0.606 -4.808,-1.602 -6.341,-3.134 -1.534,-1.533 -2.532,-3.548 -3.14,-6.341 -0.525,-2.409 -0.769,-5.51 -0.769,-9.759 l 0,-0.001 c 0,-4.313 0.235,-7.322 0.761,-9.758 0.604,-2.795 1.599,-4.81 3.128,-6.341 1.531,-1.533 3.546,-2.529 6.341,-3.135 2.407,-0.522 5.512,-0.765 9.77,-0.765 4.26,0 7.364,0.243 9.771,0.764 2.796,0.606 4.81,1.601 6.341,3.133 0.103,0.103 0.196,0.214 0.294,0.32 l 3.378,-1.95 2,3.465 -3.309,1.911 C -0.461,-1.811 -0.206,-0.954 0,0"
             style="fill:#f2f2f2;fill-opacity:1;fill-rule:nonzero;stroke:none"
             id="path5705"
             inkscape:connector-curvature="0" /></g></g></g></g></svg>