<?xml version="1.0" encoding="UTF-8" standalone="no"?>
<!-- Created with Inkscape (http://www.inkscape.org/) -->

<svg
   xmlns:dc="http://purl.org/dc/elements/1.1/"
   xmlns:cc="http://creativecommons.org/ns#"
   xmlns:rdf="http://www.w3.org/1999/02/22-rdf-syntax-ns#"
   xmlns:svg="http://www.w3.org/2000/svg"
   xmlns="http://www.w3.org/2000/svg"
   xmlns:sodipodi="http://sodipodi.sourceforge.net/DTD/sodipodi-0.dtd"
   xmlns:inkscape="http://www.inkscape.org/namespaces/inkscape"
   id="svg5745"
   version="1.1"
   inkscape:version="0.48.5 r10040"
   width="256"
   height="256"
   xml:space="preserve"
   sodipodi:docname="netplay - iRoom-locked.svg"
   inkscape:export-filename="/Volumes/Verbatim16/GitHub Projects/baxy-retroarch-themes/monochrome plus/contributions/svg/netplay - iRoom-locked.png"
   inkscape:export-xdpi="90.099998"
   inkscape:export-ydpi="90.099998"><metadata
     id="metadata5751"><rdf:RDF><cc:Work
         rdf:about=""><dc:format>image/svg+xml</dc:format><dc:type
           rdf:resource="http://purl.org/dc/dcmitype/StillImage" /><dc:title></dc:title></cc:Work></rdf:RDF></metadata><defs
     id="defs5749"><clipPath
       clipPathUnits="userSpaceOnUse"
       id="clipPath5803"><path
         d="M 0,256 256,256 256,0 0,0 0,256 z"
         id="path5805"
         inkscape:connector-curvature="0" /></clipPath></defs><sodipodi:namedview
     pagecolor="#ffffff"
     bordercolor="#666666"
     borderopacity="1"
     objecttolerance="10"
     gridtolerance="10"
     guidetolerance="10"
     inkscape:pageopacity="0"
     inkscape:pageshadow="2"
     inkscape:window-width="1676"
     inkscape:window-height="1005"
     id="namedview5747"
     showgrid="false"
     inkscape:zoom="2.61875"
     inkscape:cx="160"
     inkscape:cy="160"
     inkscape:window-x="4"
     inkscape:window-y="1"
     inkscape:window-maximized="1"
     inkscape:current-layer="g5753" /><g
     id="g5753"
     inkscape:groupmode="layer"
     inkscape:label="netplay - iRoom-locked"
     transform="matrix(1.25,0,0,-1.25,0,256)"><g
       id="g5961"
       transform="matrix(0.80000103,0,0,0.80000103,-5.1839897e-5,-1.1839846e-5)"><g
         transform="translate(190.751,193.4644)"
         id="g5755"><path
           id="path5757"
           style="fill:#f2f2f2;fill-opacity:1;fill-rule:nonzero;stroke:none"
           d="m 0,0 -3.464,2 -2,-3.464 3.464,-2 L 0,0 z"
           inkscape:connector-curvature="0" /></g><g
         transform="translate(156.1104,213.4644)"
         id="g5759"><path
           id="path5761"
           style="fill:#f2f2f2;fill-opacity:1;fill-rule:nonzero;stroke:none"
           d="m 0,0 -3.464,2 -2,-3.464 3.464,-2 L 0,0 z"
           inkscape:connector-curvature="0" /></g><path
         id="path5763"
         style="fill:#f2f2f2;fill-opacity:1;fill-rule:nonzero;stroke:none"
         d="m 212,117.732 4,0 0,4 -4,0 0,-4 z"
         inkscape:connector-curvature="0" /><path
         id="path5765"
         style="fill:#f2f2f2;fill-opacity:1;fill-rule:nonzero;stroke:none"
         d="m 216,153.732 -4,0 0,-4 4,0 0,4 z"
         inkscape:connector-curvature="0" /><g
         transform="translate(176.8945,201.4644)"
         id="g5767"><path
           id="path5769"
           style="fill:#f2f2f2;fill-opacity:1;fill-rule:nonzero;stroke:none"
           d="m 0,0 -3.464,2 -2,-3.464 3.464,-2 L 0,0 z"
           inkscape:connector-curvature="0" /></g><g
         transform="translate(163.0381,209.4644)"
         id="g5771"><path
           id="path5773"
           style="fill:#f2f2f2;fill-opacity:1;fill-rule:nonzero;stroke:none"
           d="m 0,0 -3.464,2 -2,-3.464 3.464,-2 L 0,0 z"
           inkscape:connector-curvature="0" /></g><path
         id="path5775"
         style="fill:#f2f2f2;fill-opacity:1;fill-rule:nonzero;stroke:none"
         d="m 212,109.732 4,0 0,4 -4,0 0,-4 z"
         inkscape:connector-curvature="0" /><path
         id="path5777"
         style="fill:#f2f2f2;fill-opacity:1;fill-rule:nonzero;stroke:none"
         d="m 212,125.732 4,0 0,4 -4,0 0,-4 z"
         inkscape:connector-curvature="0" /><path
         id="path5779"
         style="fill:#f2f2f2;fill-opacity:1;fill-rule:nonzero;stroke:none"
         d="m 212,133.732 4,0 0,4 -4,0 0,-4 z"
         inkscape:connector-curvature="0" /><path
         id="path5781"
         style="fill:#f2f2f2;fill-opacity:1;fill-rule:nonzero;stroke:none"
         d="m 212,141.732 4,0 0,4 -4,0 0,-4 z"
         inkscape:connector-curvature="0" /><g
         transform="translate(157.5742,47.4648)"
         id="g5783"><path
           id="path5785"
           style="fill:#f2f2f2;fill-opacity:1;fill-rule:nonzero;stroke:none"
           d="m 0,0 2,-3.465 3.464,2 L 3.464,2 0,0 z"
           inkscape:connector-curvature="0" /></g><g
         transform="translate(164.5029,51.4648)"
         id="g5787"><path
           id="path5789"
           style="fill:#f2f2f2;fill-opacity:1;fill-rule:nonzero;stroke:none"
           d="m 0,0 2,-3.465 3.464,2 L 3.464,2 0,0 z"
           inkscape:connector-curvature="0" /></g><g
         transform="translate(164.5029,204.0005)"
         id="g5791"><path
           id="path5793"
           style="fill:#f2f2f2;fill-opacity:1;fill-rule:nonzero;stroke:none"
           d="m 0,0 3.464,-2 2,3.464 L 2,3.464 0,0 z"
           inkscape:connector-curvature="0" /></g><g
         transform="translate(150.6465,43.4648)"
         id="g5795"><path
           id="path5797"
           style="fill:#f2f2f2;fill-opacity:1;fill-rule:nonzero;stroke:none"
           d="m 0,0 2,-3.465 3.464,2 L 3.464,2 0,0 z"
           inkscape:connector-curvature="0" /></g><g
         id="g5799"><g
           clip-path="url(#clipPath5803)"
           id="g5801"><g
             transform="translate(149.1826,38)"
             id="g5807"><path
               id="path5809"
               style="fill:#f2f2f2;fill-opacity:1;fill-rule:nonzero;stroke:none"
               d="m 0,0 -1.838,3.184 c -0.037,0.194 -0.073,0.392 -0.113,0.579 -0.609,2.794 -1.606,4.808 -3.14,6.341 -1.533,1.531 -3.549,2.526 -6.342,3.131 -2.405,0.522 -5.503,0.765 -9.75,0.765 -4.246,0 -7.344,-0.243 -9.75,-0.766 -2.793,-0.606 -4.808,-1.602 -6.341,-3.133 -1.534,-1.534 -2.532,-3.548 -3.14,-6.341 -0.012,-0.055 -0.022,-0.114 -0.033,-0.169 l -1.918,-3.323 1.364,-0.788 c -0.122,-1.586 -0.182,-3.393 -0.182,-5.48 l 0,-0.001 c 0,-4.312 0.235,-7.321 0.762,-9.758 0.604,-2.795 1.598,-4.809 3.128,-6.341 1.53,-1.533 3.545,-2.529 6.34,-3.134 2.408,-0.523 5.512,-0.766 9.77,-0.766 4.26,0 7.365,0.243 9.772,0.765 2.795,0.605 4.809,1.6 6.34,3.132 1.53,1.532 2.523,3.546 3.128,6.341 0.526,2.437 0.76,5.448 0.76,9.761 l 0,0.001 c 0,1.977 -0.055,3.696 -0.164,5.223 L 0,0 z"
               inkscape:connector-curvature="0" /></g><g
             transform="translate(171.4307,55.4648)"
             id="g5811"><path
               id="path5813"
               style="fill:#f2f2f2;fill-opacity:1;fill-rule:nonzero;stroke:none"
               d="m 0,0 2,-3.465 3.464,2 L 3.464,2 0,0 z"
               inkscape:connector-curvature="0" /></g><g
             transform="translate(185.2871,63.4648)"
             id="g5815"><path
               id="path5817"
               style="fill:#f2f2f2;fill-opacity:1;fill-rule:nonzero;stroke:none"
               d="m 0,0 2,-3.465 3.464,2 L 3.464,2 0,0 z"
               inkscape:connector-curvature="0" /></g><g
             transform="translate(178.3594,196.0005)"
             id="g5819"><path
               id="path5821"
               style="fill:#f2f2f2;fill-opacity:1;fill-rule:nonzero;stroke:none"
               d="m 0,0 3.464,-2 2,3.464 L 2,3.464 0,0 z"
               inkscape:connector-curvature="0" /></g><g
             transform="translate(178.3594,59.4648)"
             id="g5823"><path
               id="path5825"
               style="fill:#f2f2f2;fill-opacity:1;fill-rule:nonzero;stroke:none"
               d="m 0,0 2,-3.465 3.464,2 L 3.464,2 0,0 z"
               inkscape:connector-curvature="0" /></g><g
             transform="translate(77.6406,196.2681)"
             id="g5827"><path
               id="path5829"
               style="fill:#f2f2f2;fill-opacity:1;fill-rule:nonzero;stroke:none"
               d="m 0,0 -2,3.464 -3.464,-2 2,-3.464 L 0,0 z"
               inkscape:connector-curvature="0" /></g><g
             transform="translate(70.7129,192.2681)"
             id="g5831"><path
               id="path5833"
               style="fill:#f2f2f2;fill-opacity:1;fill-rule:nonzero;stroke:none"
               d="m 0,0 -2,3.464 -3.464,-2 2,-3.464 L 0,0 z"
               inkscape:connector-curvature="0" /></g><g
             transform="translate(84.5693,200.2681)"
             id="g5835"><path
               id="path5837"
               style="fill:#f2f2f2;fill-opacity:1;fill-rule:nonzero;stroke:none"
               d="m 0,0 -2,3.464 -3.464,-2 2,-3.464 L 0,0 z"
               inkscape:connector-curvature="0" /></g><g
             transform="translate(98.4258,208.2681)"
             id="g5839"><path
               id="path5841"
               style="fill:#f2f2f2;fill-opacity:1;fill-rule:nonzero;stroke:none"
               d="m 0,0 -2,3.464 -3.464,-2 2,-3.464 L 0,0 z"
               inkscape:connector-curvature="0" /></g><g
             transform="translate(91.4971,204.2681)"
             id="g5843"><path
               id="path5845"
               style="fill:#f2f2f2;fill-opacity:1;fill-rule:nonzero;stroke:none"
               d="m 0,0 -2,3.464 -3.464,-2 2,-3.464 L 0,0 z"
               inkscape:connector-curvature="0" /></g><g
             transform="translate(40,150)"
             id="g5847"><path
               id="path5849"
               style="fill:#f2f2f2;fill-opacity:1;fill-rule:nonzero;stroke:none"
               d="M 0,0 4,0 4,4 2,4 0,4 0,0 z"
               inkscape:connector-curvature="0" /></g><g
             transform="translate(108.7241,214.4307)"
             id="g5851"><path
               id="path5853"
               style="fill:#f2f2f2;fill-opacity:1;fill-rule:nonzero;stroke:none"
               d="m 0,0 c 0.013,-0.062 0.024,-0.128 0.037,-0.189 0.604,-2.795 1.598,-4.81 3.128,-6.342 1.531,-1.532 3.545,-2.529 6.34,-3.135 2.408,-0.522 5.513,-0.765 9.771,-0.765 4.26,0 7.364,0.243 9.771,0.764 2.795,0.606 4.81,1.602 6.34,3.134 1.486,1.486 2.462,3.434 3.071,6.103 l 2,3.464 -1.379,0.796 c 0.132,1.633 0.197,3.509 0.197,5.739 l 0,0 c 0,4.252 -0.244,7.354 -0.769,9.763 -0.608,2.793 -1.605,4.809 -3.139,6.341 -1.534,1.531 -3.549,2.526 -6.342,3.132 -2.405,0.522 -5.503,0.764 -9.75,0.764 -4.246,0 -7.344,-0.243 -9.75,-0.765 C 6.733,28.197 4.718,27.202 3.185,25.67 1.65,24.137 0.653,22.122 0.044,19.329 -0.48,16.92 -0.724,13.819 -0.724,9.569 l 0,0 c 0,-2.113 0.057,-3.91 0.177,-5.484 L -1.906,3.301 0,0 z"
               inkscape:connector-curvature="0" /></g><g
             transform="translate(105.3535,212.2681)"
             id="g5855"><path
               id="path5857"
               style="fill:#f2f2f2;fill-opacity:1;fill-rule:nonzero;stroke:none"
               d="m 0,0 -2,3.464 -3.464,-2 2,-3.464 L 0,0 z"
               inkscape:connector-curvature="0" /></g><g
             transform="translate(92.9619,46.2676)"
             id="g5859"><path
               id="path5861"
               style="fill:#f2f2f2;fill-opacity:1;fill-rule:nonzero;stroke:none"
               d="m 0,0 3.464,-2 2,3.465 L 2,3.465 0,0 z"
               inkscape:connector-curvature="0" /></g><g
             transform="translate(44,106)"
             id="g5863"><path
               id="path5865"
               style="fill:#f2f2f2;fill-opacity:1;fill-rule:nonzero;stroke:none"
               d="m 0,0 -4,0 0,-4 2,0 2,0 0,4 z"
               inkscape:connector-curvature="0" /></g><g
             transform="translate(72.1768,58.2676)"
             id="g5867"><path
               id="path5869"
               style="fill:#f2f2f2;fill-opacity:1;fill-rule:nonzero;stroke:none"
               d="m 0,0 3.464,-2 2,3.465 L 2,3.465 0,0 z"
               inkscape:connector-curvature="0" /></g><g
             transform="translate(86.0332,50.2676)"
             id="g5871"><path
               id="path5873"
               style="fill:#f2f2f2;fill-opacity:1;fill-rule:nonzero;stroke:none"
               d="m 0,0 3.464,-2 2,3.465 L 2,3.465 0,0 z"
               inkscape:connector-curvature="0" /></g><g
             transform="translate(99.8896,42.2676)"
             id="g5875"><path
               id="path5877"
               style="fill:#f2f2f2;fill-opacity:1;fill-rule:nonzero;stroke:none"
               d="m 0,0 3.464,-2 2,3.465 L 2,3.465 0,0 z"
               inkscape:connector-curvature="0" /></g><path
             id="path5879"
             style="fill:#f2f2f2;fill-opacity:1;fill-rule:nonzero;stroke:none"
             d="m 44,146 -4,0 0,-4 4,0 0,4 z"
             inkscape:connector-curvature="0" /><g
             transform="translate(79.1055,54.2676)"
             id="g5881"><path
               id="path5883"
               style="fill:#f2f2f2;fill-opacity:1;fill-rule:nonzero;stroke:none"
               d="m 0,0 3.464,-2 2,3.465 L 2,3.465 0,0 z"
               inkscape:connector-curvature="0" /></g><g
             transform="translate(65.249,62.2676)"
             id="g5885"><path
               id="path5887"
               style="fill:#f2f2f2;fill-opacity:1;fill-rule:nonzero;stroke:none"
               d="m 0,0 3.464,-2 2,3.465 L 2,3.465 0,0 z"
               inkscape:connector-curvature="0" /></g><path
             id="path5889"
             style="fill:#f2f2f2;fill-opacity:1;fill-rule:nonzero;stroke:none"
             d="m 44,122 -4,0 0,-4 4,0 0,4 z"
             inkscape:connector-curvature="0" /><path
             id="path5891"
             style="fill:#f2f2f2;fill-opacity:1;fill-rule:nonzero;stroke:none"
             d="m 44,130 -4,0 0,-4 4,0 0,4 z"
             inkscape:connector-curvature="0" /><path
             id="path5893"
             style="fill:#f2f2f2;fill-opacity:1;fill-rule:nonzero;stroke:none"
             d="m 40,110 4,0 0,4 -4,0 0,-4 z"
             inkscape:connector-curvature="0" /><path
             id="path5895"
             style="fill:#f2f2f2;fill-opacity:1;fill-rule:nonzero;stroke:none"
             d="m 44,138 -4,0 0,-4 4,0 0,4 z"
             inkscape:connector-curvature="0" /><g
             transform="translate(126.958,196)"
             id="g5897"><path
               id="path5899"
               style="fill:#f2f2f2;fill-opacity:1;fill-rule:nonzero;stroke:none"
               d="M 0,0 4,0 4,8 1.042,8 0,8 0,0 z"
               inkscape:connector-curvature="0" /></g><path
             id="path5901"
             style="fill:#f2f2f2;fill-opacity:1;fill-rule:nonzero;stroke:none"
             d="m 126.958,180 4,0 0,8 -4,0 0,-8 z"
             inkscape:connector-curvature="0" /><g
             transform="translate(179.9072,97.5674)"
             id="g5903"><path
               id="path5905"
               style="fill:#f2f2f2;fill-opacity:1;fill-rule:nonzero;stroke:none"
               d="M 0,0 1.916,3.512 -5.106,7.343 -7.022,3.831 0,0 z"
               inkscape:connector-curvature="0" /></g><g
             transform="translate(62.0459,93.418)"
             id="g5907"><path
               id="path5909"
               style="fill:#f2f2f2;fill-opacity:1;fill-rule:nonzero;stroke:none"
               d="M 0,0 1.916,-3.512 8.939,0.318 7.023,3.83 0,0 z"
               inkscape:connector-curvature="0" /></g><g
             transform="translate(76.0928,101.0791)"
             id="g5911"><path
               id="path5913"
               style="fill:#f2f2f2;fill-opacity:1;fill-rule:nonzero;stroke:none"
               d="M 0,0 1.916,-3.512 8.939,0.319 7.023,3.831 0,0 z"
               inkscape:connector-curvature="0" /></g><g
             transform="translate(234,82)"
             id="g5915"><path
               id="path5917"
               style="fill:#f2f2f2;fill-opacity:1;fill-rule:nonzero;stroke:none"
               d="m 0,0 c 0,4.251 -0.244,7.354 -0.769,9.763 -0.608,2.794 -1.605,4.808 -3.139,6.341 -1.533,1.531 -3.549,2.526 -6.342,3.131 -2.008,0.436 -4.51,0.674 -7.75,0.743 l 0,3.754 -4,0 0,-3.754 c -3.239,-0.069 -5.741,-0.307 -7.75,-0.744 -2.793,-0.606 -4.809,-1.602 -6.342,-3.133 -1.147,-1.147 -1.994,-2.565 -2.603,-4.375 l -6.459,3.522 -1.914,-3.512 7.022,-3.83 0.704,1.292 C -39.788,6.871 -40,3.932 -40,0 l 0,-0.001 c 0,-4.312 0.234,-7.321 0.762,-9.758 0.224,-1.043 0.505,-1.976 0.846,-2.817 l -3.392,-1.959 2,-3.465 3.464,2 -0.2,0.345 c 0.134,-0.152 0.267,-0.303 0.409,-0.445 1.531,-1.533 3.546,-2.529 6.34,-3.134 2.408,-0.523 5.512,-0.766 9.771,-0.766 4.26,0 7.364,0.243 9.771,0.765 2.795,0.605 4.81,1.6 6.34,3.132 1.531,1.532 2.524,3.546 3.128,6.341 C -0.234,-7.325 0,-4.314 0,-0.001 L 0,0 z"
               inkscape:connector-curvature="0" /></g><g
             transform="translate(130,60)"
             id="g5919"><path
               id="path5921"
               style="fill:#f2f2f2;fill-opacity:1;fill-rule:nonzero;stroke:none"
               d="m 0,0 -4,0 0,-8 2,0 2,0 0,8 z"
               inkscape:connector-curvature="0" /></g><path
             id="path5923"
             style="fill:#f2f2f2;fill-opacity:1;fill-rule:nonzero;stroke:none"
             d="m 126,68 4,0 0,8 -4,0 0,-8 z"
             inkscape:connector-curvature="0" /><g
             transform="translate(75.1348,154.9209)"
             id="g5925"><path
               id="path5927"
               style="fill:#f2f2f2;fill-opacity:1;fill-rule:nonzero;stroke:none"
               d="M 0,0 7.023,-3.831 8.939,-0.319 1.916,3.512 0,0 z"
               inkscape:connector-curvature="0" /></g><g
             transform="translate(61.0889,162.582)"
             id="g5929"><path
               id="path5931"
               style="fill:#f2f2f2;fill-opacity:1;fill-rule:nonzero;stroke:none"
               d="M 0,0 7.023,-3.83 8.938,-0.318 1.915,3.512 0,0 z"
               inkscape:connector-curvature="0" /></g><g
             transform="translate(187.8887,158.752)"
             id="g5933"><path
               id="path5935"
               style="fill:#f2f2f2;fill-opacity:1;fill-rule:nonzero;stroke:none"
               d="M 0,0 7.023,3.83 5.107,7.342 -1.916,3.512 0,0 z"
               inkscape:connector-curvature="0" /></g><g
             transform="translate(171.9258,154.6016)"
             id="g5937"><path
               id="path5939"
               style="fill:#f2f2f2;fill-opacity:1;fill-rule:nonzero;stroke:none"
               d="M 0,0 1.916,-3.512 8.939,0.319 7.023,3.831 0,0 z"
               inkscape:connector-curvature="0" /></g><g
             transform="translate(234,174)"
             id="g5941"><path
               id="path5943"
               style="fill:#f2f2f2;fill-opacity:1;fill-rule:nonzero;stroke:none"
               d="m 0,0 0,0 c 0,4.251 -0.244,7.354 -0.769,9.763 -0.608,2.793 -1.605,4.808 -3.139,6.341 -1.533,1.531 -3.549,2.526 -6.342,3.132 C -12.655,19.757 -15.753,20 -20,20 c -4.246,0 -7.345,-0.243 -9.75,-0.766 -2.793,-0.606 -4.809,-1.602 -6.342,-3.133 -0.16,-0.162 -0.312,-0.33 -0.461,-0.502 l -3.231,1.865 -2,-3.464 3.239,-1.87 C -38.813,11.406 -39.043,10.624 -39.231,9.759 -39.756,7.351 -40,4.25 -40,0 l 0,0 c 0,-4.313 0.234,-7.323 0.762,-9.759 0.603,-2.794 1.597,-4.809 3.127,-6.341 1.531,-1.533 3.546,-2.529 6.34,-3.135 2.408,-0.522 5.512,-0.765 9.771,-0.765 4.26,0 7.364,0.243 9.771,0.764 2.795,0.606 4.81,1.602 6.34,3.133 1.531,1.532 2.524,3.547 3.128,6.342 C -0.234,-7.325 0,-4.315 0,0 z"
               inkscape:connector-curvature="0" /></g><g
             transform="translate(118.3027,136.3613)"
             id="g5945"><path
               id="path5947"
               style="fill:#f2f2f2;fill-opacity:1;fill-rule:nonzero;stroke:none"
               d="m 0,0 c 0,5.335 4.35,9.675 9.697,9.675 5.348,0 9.698,-4.34 9.698,-9.675 l 0,-5.964 -9.698,0 L 0,-5.964 0,0 z m -6.708,-28.361 32.812,0 c 0.879,0 1.593,0.712 1.593,1.59 l 0,19.217 c 0,0.878 -0.714,1.59 -1.593,1.59 l -0.731,0 0,5.964 c 0,8.637 -7.019,15.639 -15.676,15.639 C 1.04,15.639 -5.978,8.637 -5.978,0 l 0,-5.964 -0.73,0 c -0.881,0 -1.595,-0.712 -1.595,-1.59 l 0,-19.217 c 0,-0.878 0.714,-1.59 1.595,-1.59"
               inkscape:connector-curvature="0" /></g><g
             transform="translate(94.0576,126)"
             id="g5949"><path
               id="path5951"
               style="fill:#f2f2f2;fill-opacity:1;fill-rule:nonzero;stroke:none"
               d="m 0,0 11.942,0 0,2.807 c 0,0.41 0.052,0.807 0.136,1.193 L 0,4 c 0.381,6.538 2.62,12.591 6.197,17.632 2.875,-1.918 5.901,-3.507 9.026,-4.769 C 14.08,13.369 13.366,9.758 13.039,6.114 13.384,6.583 13.795,7 14.267,7.341 l 0,3.02 c 0,7.786 4.575,14.509 11.171,17.683 1.872,2.534 4.036,4.908 6.504,7.058 l 0,-5.203 c 0.658,0.066 1.326,0.101 2,0.101 0.675,0 1.342,-0.035 2,-0.101 l 0,5.203 c 1.693,-1.476 3.28,-3.087 4.724,-4.798 0.624,-0.739 1.213,-1.494 1.78,-2.26 6.597,-3.174 11.172,-9.897 11.172,-17.683 l 0,-3.02 c 0.475,-0.343 0.888,-0.764 1.235,-1.236 -0.321,3.635 -1.028,7.25 -2.179,10.763 3.113,1.257 6.127,2.84 8.991,4.75 C 65.25,16.577 67.5,10.526 67.884,4 L 55.807,4 c 0.084,-0.386 0.135,-0.783 0.135,-1.193 l 0,-2.807 11.943,0 c -0.381,-6.54 -2.62,-12.592 -6.198,-17.633 -1.855,1.237 -3.778,2.323 -5.745,3.288 l 0,-2.064 c 0,-0.776 -0.159,-1.514 -0.445,-2.186 1.25,-0.663 2.478,-1.384 3.677,-2.173 -4.455,-4.931 -10.333,-8.558 -16.985,-10.22 2.583,2.771 4.778,5.795 6.591,8.988 l -4.667,0 c -2.208,-3.453 -4.932,-6.651 -8.171,-9.473 l 0,9.473 -4,0 0,-9.471 c -1.691,1.475 -3.278,3.086 -4.723,4.797 -1.267,1.5 -2.409,3.064 -3.443,4.674 l -4.674,0 c 1.438,-2.525 3.12,-4.957 5.061,-7.256 0.498,-0.59 1.012,-1.168 1.539,-1.734 -6.648,1.662 -12.531,5.287 -16.99,10.222 1.199,0.788 2.426,1.51 3.676,2.173 -0.286,0.672 -0.446,1.41 -0.446,2.186 l 0,2.064 C 9.976,-15.31 8.053,-16.396 6.198,-17.633 2.622,-12.596 0.382,-6.547 0,0 m 26.149,35.099 c -4.122,-4.304 -7.305,-9.227 -9.525,-14.488 -2.734,1.111 -5.386,2.496 -7.913,4.155 4.556,5.044 10.601,8.723 17.438,10.333 M 59.15,24.75 c -2.517,-1.65 -5.157,-3.028 -7.88,-4.135 -1.838,4.343 -4.349,8.482 -7.547,12.27 -0.638,0.754 -1.3,1.49 -1.985,2.206 6.815,-1.615 12.854,-5.298 17.412,-10.341 m -27.208,-60.696 0,-6.054 4,0 0,6.056 c 12.877,0.672 24.06,7.778 30.415,18.143 l 5.447,-2.97 1.915,3.512 -5.448,2.971 c 2.381,4.996 3.702,10.588 3.671,16.483 -0.03,5.906 -1.431,11.503 -3.893,16.494 l 4.713,2.57 -1.916,3.512 -4.757,-2.595 C 59.841,32.068 49.165,38.912 36.9,39.872 l 0,6.128 -4,0 0,-6.026 C 19.786,39.617 8.328,32.596 1.773,22.188 l -4.734,2.583 -1.915,-3.512 4.696,-2.561 C -2.686,13.597 -4.089,7.863 -4.058,1.805 c 0.032,-6.082 1.506,-11.824 4.083,-16.912 l -3.944,-2.152 1.916,-3.512 4.024,2.195 c 6.437,-9.952 17.387,-16.718 29.921,-17.37"
               inkscape:connector-curvature="0" /></g><g
             transform="translate(22.7612,164.2412)"
             id="g5953"><path
               id="path5955"
               style="fill:#f2f2f2;fill-opacity:1;fill-rule:nonzero;stroke:none"
               d="m 0,0 c 0.604,-2.794 1.598,-4.81 3.128,-6.341 1.531,-1.533 3.545,-2.529 6.34,-3.135 2.408,-0.522 5.512,-0.765 9.771,-0.765 4.259,0 7.364,0.242 9.771,0.764 2.795,0.606 4.81,1.602 6.34,3.133 1.53,1.532 2.524,3.547 3.128,6.342 0.526,2.436 0.761,5.446 0.761,9.76 l 0,0.001 c 0,4.251 -0.244,7.353 -0.769,9.762 -0.207,0.952 -0.464,1.807 -0.767,2.589 l 3.32,1.917 -2,3.464 -3.39,-1.958 c -0.101,0.111 -0.197,0.224 -0.303,0.329 -1.533,1.532 -3.548,2.527 -6.342,3.133 -2.404,0.521 -5.502,0.764 -9.749,0.764 -4.246,0 -7.344,-0.243 -9.75,-0.766 C 6.696,28.387 4.681,27.391 3.147,25.859 1.613,24.327 0.616,22.312 0.007,19.518 -0.517,17.109 -0.761,14.008 -0.761,9.759 l 0,-0.001 C -0.761,5.445 -0.526,2.436 0,0"
               inkscape:connector-curvature="0" /></g><g
             transform="translate(61.2388,72.2383)"
             id="g5957"><path
               id="path5959"
               style="fill:#f2f2f2;fill-opacity:1;fill-rule:nonzero;stroke:none"
               d="m 0,0 c 0.526,2.437 0.761,5.447 0.761,9.761 l 0,0.001 c 0,4.251 -0.244,7.353 -0.768,9.762 -0.609,2.794 -1.606,4.809 -3.14,6.341 -1.534,1.531 -3.549,2.527 -6.342,3.132 -2.405,0.522 -5.503,0.765 -9.75,0.765 -4.246,0 -7.344,-0.243 -9.75,-0.766 -2.793,-0.606 -4.808,-1.602 -6.341,-3.134 -1.534,-1.533 -2.532,-3.548 -3.14,-6.341 -0.525,-2.409 -0.769,-5.51 -0.769,-9.759 l 0,-0.001 c 0,-4.313 0.235,-7.322 0.761,-9.758 0.604,-2.795 1.599,-4.81 3.128,-6.341 1.531,-1.533 3.546,-2.529 6.341,-3.135 2.407,-0.522 5.512,-0.765 9.77,-0.765 4.26,0 7.364,0.243 9.771,0.764 2.796,0.606 4.81,1.601 6.341,3.133 0.103,0.103 0.196,0.214 0.294,0.32 l 3.378,-1.95 2,3.465 -3.309,1.911 C -0.461,-1.811 -0.206,-0.954 0,0"
               inkscape:connector-curvature="0" /></g></g></g></g></g></svg>