<?xml version="1.0" encoding="UTF-8" standalone="no"?>
<!-- Created with Inkscape (http://www.inkscape.org/) -->

<svg
   xmlns:dc="http://purl.org/dc/elements/1.1/"
   xmlns:cc="http://creativecommons.org/ns#"
   xmlns:rdf="http://www.w3.org/1999/02/22-rdf-syntax-ns#"
   xmlns:svg="http://www.w3.org/2000/svg"
   xmlns="http://www.w3.org/2000/svg"
   xmlns:sodipodi="http://sodipodi.sourceforge.net/DTD/sodipodi-0.dtd"
   xmlns:inkscape="http://www.inkscape.org/namespaces/inkscape"
   id="svg4711"
   version="1.1"
   inkscape:version="0.48.5 r10040"
   width="256"
   height="256"
   xml:space="preserve"
   sodipodi:docname="netplay - rooms.svg"
   inkscape:export-filename="/Volumes/Verbatim16/GitHub Projects/baxy-retroarch-themes/monochrome plus/contributions/svg/netplay - rooms.png"
   inkscape:export-xdpi="90.099998"
   inkscape:export-ydpi="90.099998"><metadata
     id="metadata4717"><rdf:RDF><cc:Work
         rdf:about=""><dc:format>image/svg+xml</dc:format><dc:type
           rdf:resource="http://purl.org/dc/dcmitype/StillImage" /><dc:title></dc:title></cc:Work></rdf:RDF></metadata><defs
     id="defs4715"><clipPath
       clipPathUnits="userSpaceOnUse"
       id="clipPath4725"><path
         d="M 0,256 256,256 256,0 0,0 0,256 z"
         id="path4727"
         inkscape:connector-curvature="0" /></clipPath></defs><sodipodi:namedview
     pagecolor="#ffffff"
     bordercolor="#666666"
     borderopacity="1"
     objecttolerance="10"
     gridtolerance="10"
     guidetolerance="10"
     inkscape:pageopacity="0"
     inkscape:pageshadow="2"
     inkscape:window-width="1676"
     inkscape:window-height="1005"
     id="namedview4713"
     showgrid="false"
     inkscape:zoom="1.4142136"
     inkscape:cx="144.41905"
     inkscape:cy="142.94937"
     inkscape:window-x="4"
     inkscape:window-y="1"
     inkscape:window-maximized="1"
     inkscape:current-layer="g4719" /><g
     id="g4719"
     inkscape:groupmode="layer"
     inkscape:label="netplay - rooms"
     transform="matrix(1.25,0,0,-1.25,0,256)"><g
       id="g4721"
       transform="matrix(0.79999724,0,0,0.79999724,5.9327917e-4,4.3327972e-4)"><g
         id="g4723"
         clip-path="url(#clipPath4725)"><g
           id="g4729"
           transform="translate(144.0918,48.1035)"><path
             d="m 0,0 c -1.533,1.531 -3.549,2.526 -6.342,3.132 -2.405,0.521 -5.503,0.764 -9.75,0.764 -4.246,0 -7.344,-0.243 -9.75,-0.765 -2.793,-0.607 -4.808,-1.603 -6.341,-3.134 -1.534,-1.533 -2.532,-3.548 -3.14,-6.341 -0.525,-2.409 -0.769,-5.51 -0.769,-9.76 0,-4.313 0.235,-7.322 0.761,-9.758 0.604,-2.795 1.599,-4.81 3.128,-6.341 1.531,-1.533 3.546,-2.529 6.341,-3.135 2.407,-0.522 5.512,-0.766 9.77,-0.766 4.26,0 7.364,0.244 9.772,0.765 2.795,0.606 4.809,1.601 6.34,3.133 1.53,1.531 2.523,3.546 3.127,6.341 0.527,2.436 0.761,5.447 0.761,9.761 0,4.251 -0.244,7.354 -0.768,9.763 C 2.531,-3.547 1.534,-1.532 0,0"
             style="fill:#f2f2f2;fill-opacity:1;fill-rule:nonzero;stroke:none"
             id="path4731"
             inkscape:connector-curvature="0" /></g><g
           id="g4733"
           transform="translate(25.8892,157.8999)"><path
             d="m 0,0 c 1.531,-1.533 3.545,-2.529 6.34,-3.135 2.408,-0.522 5.513,-0.765 9.771,-0.765 4.259,0 7.364,0.243 9.771,0.764 2.795,0.606 4.81,1.602 6.34,3.134 1.53,1.531 2.524,3.546 3.128,6.341 0.526,2.436 0.761,5.446 0.761,9.761 0,4.251 -0.244,7.353 -0.769,9.763 -0.608,2.793 -1.606,4.808 -3.14,6.341 -1.533,1.531 -3.548,2.526 -6.342,3.132 -2.404,0.521 -5.502,0.764 -9.749,0.764 -4.246,0 -7.344,-0.243 -9.75,-0.766 C 3.568,34.728 1.553,33.732 0.02,32.201 -1.515,30.668 -2.512,28.653 -3.121,25.859 -3.645,23.451 -3.889,20.349 -3.889,16.1 c 0,-4.313 0.235,-7.323 0.761,-9.759 C -2.524,3.547 -1.53,1.532 0,0"
             style="fill:#f2f2f2;fill-opacity:1;fill-rule:nonzero;stroke:none"
             id="path4735"
             inkscape:connector-curvature="0" /></g><g
           id="g4737"
           transform="translate(197.8887,157.8999)"><path
             d="m 0,0 c 1.531,-1.533 3.546,-2.529 6.341,-3.135 2.407,-0.522 5.512,-0.765 9.77,-0.765 4.26,0 7.365,0.243 9.772,0.764 2.795,0.606 4.809,1.602 6.34,3.134 1.53,1.531 2.523,3.546 3.128,6.341 0.526,2.436 0.76,5.446 0.76,9.761 0,4.251 -0.244,7.353 -0.768,9.763 -0.609,2.793 -1.606,4.808 -3.14,6.341 -1.533,1.531 -3.549,2.526 -6.342,3.132 -2.405,0.521 -5.503,0.764 -9.75,0.764 -4.246,0 -7.344,-0.243 -9.75,-0.766 C 3.568,34.728 1.553,33.732 0.02,32.201 -1.515,30.668 -2.512,28.653 -3.12,25.859 -3.645,23.451 -3.889,20.349 -3.889,16.1 c 0,-4.313 0.235,-7.323 0.762,-9.759 C -2.523,3.547 -1.529,1.532 0,0"
             style="fill:#f2f2f2;fill-opacity:1;fill-rule:nonzero;stroke:none"
             id="path4739"
             inkscape:connector-curvature="0" /></g><g
           id="g4741"
           transform="translate(138.7637,122.4443)"><path
             d="m 0,0 0.737,-10.201 c 0.361,-4.983 -3.65,-9.243 -8.978,-9.243 l -16.007,0 L -22.843,0 -33.488,0 c -4.744,0 -7.933,3.388 -7.16,7.372 l 2.099,10.823 17.021,0 0.515,7.122 c 0.213,2.945 3.481,5.239 7.307,5.239 l 11.499,0 0.893,-12.361 9.42,0 c 4.199,0 8.138,-2.764 8.829,-6.328 L 19.236,0 0,0 z m 91.328,-24.341 c -1.533,1.531 -3.549,2.527 -6.342,3.132 -2.405,0.522 -5.503,0.765 -9.75,0.765 -4.246,0 -7.344,-0.243 -9.75,-0.766 -2.793,-0.606 -4.808,-1.602 -6.341,-3.134 -1.176,-1.175 -2.035,-2.636 -2.646,-4.51 l -32.463,17.707 c 0.824,4.233 1.2,9.432 1.2,16.702 0,7.342 -0.41,12.767 -1.276,17.026 l 4.096,2.233 -1.916,3.512 -3.221,-1.756 c -1.098,3.305 -2.632,5.888 -4.718,7.972 -2.76,2.756 -6.388,4.547 -11.415,5.638 -3.938,0.854 -8.928,1.289 -15.55,1.361 l 0,40.037 c 3.251,0.068 5.76,0.306 7.772,0.742 2.795,0.606 4.809,1.601 6.34,3.133 1.53,1.531 2.523,3.547 3.128,6.341 0.526,2.436 0.76,5.447 0.76,9.761 0,4.252 -0.244,7.354 -0.768,9.763 -0.609,2.794 -1.606,4.809 -3.14,6.341 -1.533,1.531 -3.549,2.527 -6.342,3.133 -2.405,0.521 -5.503,0.764 -9.75,0.764 -4.246,0 -7.344,-0.243 -9.75,-0.766 -2.793,-0.606 -4.808,-1.602 -6.341,-3.134 -1.534,-1.532 -2.532,-3.548 -3.14,-6.341 -0.525,-2.409 -0.769,-5.51 -0.769,-9.76 0,-4.313 0.235,-7.322 0.762,-9.758 0.604,-2.795 1.598,-4.81 3.127,-6.341 1.531,-1.533 3.546,-2.529 6.341,-3.135 2.011,-0.436 4.52,-0.675 7.77,-0.743 l 0,-40.037 c -6.62,-0.073 -11.61,-0.508 -15.549,-1.363 -5.028,-1.092 -8.655,-2.885 -11.416,-5.642 -2.084,-2.083 -3.618,-4.664 -4.716,-7.967 l -3.222,1.757 -1.915,-3.512 4.096,-2.233 c -0.868,-4.26 -1.278,-9.685 -1.278,-17.026 0,-7.269 0.377,-12.468 1.202,-16.702 l -32.463,-17.707 c -0.612,1.875 -1.471,3.338 -2.647,4.513 -1.534,1.531 -3.549,2.527 -6.342,3.132 -2.404,0.522 -5.503,0.765 -9.75,0.765 -4.246,0 -7.344,-0.243 -9.75,-0.766 -2.793,-0.606 -4.808,-1.602 -6.341,-3.134 -1.534,-1.533 -2.532,-3.548 -3.14,-6.341 -0.525,-2.409 -0.769,-5.51 -0.769,-9.76 0,-4.313 0.235,-7.322 0.762,-9.758 0.604,-2.795 1.598,-4.81 3.127,-6.341 1.531,-1.533 3.546,-2.529 6.341,-3.135 2.408,-0.522 5.512,-0.765 9.77,-0.765 4.26,0 7.365,0.243 9.771,0.764 2.796,0.606 4.81,1.601 6.341,3.133 1.53,1.531 2.524,3.546 3.127,6.341 0.526,2.436 0.761,5.447 0.761,9.761 0,3.037 -0.127,5.479 -0.389,7.51 l 32.598,17.781 c 1.099,-3.447 2.651,-6.126 4.792,-8.271 2.755,-2.758 6.382,-4.551 11.412,-5.642 4.334,-0.94 9.922,-1.377 17.587,-1.377 7.667,0 13.256,0.437 17.588,1.376 5.031,1.089 8.658,2.881 11.413,5.639 2.142,2.144 3.694,4.825 4.792,8.274 l 32.597,-17.781 c -0.263,-2.03 -0.39,-4.472 -0.39,-7.509 0,-4.313 0.235,-7.322 0.762,-9.758 0.604,-2.795 1.598,-4.81 3.127,-6.341 1.531,-1.533 3.546,-2.529 6.341,-3.135 2.407,-0.522 5.512,-0.765 9.77,-0.765 4.26,0 7.365,0.243 9.772,0.764 2.795,0.606 4.809,1.601 6.34,3.133 1.53,1.531 2.523,3.546 3.128,6.341 0.526,2.436 0.76,5.447 0.76,9.761 0,4.252 -0.244,7.354 -0.768,9.763 -0.609,2.794 -1.606,4.809 -3.14,6.341"
             style="fill:#f2f2f2;fill-opacity:1;fill-rule:nonzero;stroke:none"
             id="path4743"
             inkscape:connector-curvature="0" /></g><g
           id="g4745"
           transform="translate(126,84)"><path
             d="M 0,0 4,0 4,8 2,8 0,8 0,0 z"
             style="fill:#f2f2f2;fill-opacity:1;fill-rule:nonzero;stroke:none"
             id="path4747"
             inkscape:connector-curvature="0" /></g><g
           id="g4749"
           transform="translate(130,60)"><path
             d="m 0,0 -4,0 0,-8 2,0 2,0 0,8 z"
             style="fill:#f2f2f2;fill-opacity:1;fill-rule:nonzero;stroke:none"
             id="path4751"
             inkscape:connector-curvature="0" /></g><path
           d="m 130,76 -4,0 0,-8 4,0 0,8 z"
           style="fill:#f2f2f2;fill-opacity:1;fill-rule:nonzero;stroke:none"
           id="path4753"
           inkscape:connector-curvature="0" /><g
           id="g4755"
           transform="translate(84.0737,154.6016)"><path
             d="M 0,0 -7.023,3.831 -8.939,0.319 -1.916,-3.512 0,0 z"
             style="fill:#f2f2f2;fill-opacity:1;fill-rule:nonzero;stroke:none"
             id="path4757"
             inkscape:connector-curvature="0" /></g><g
           id="g4759"
           transform="translate(68.1118,158.752)"><path
             d="M 0,0 1.915,3.512 -5.108,7.342 -7.023,3.83 0,0 z"
             style="fill:#f2f2f2;fill-opacity:1;fill-rule:nonzero;stroke:none"
             id="path4761"
             inkscape:connector-curvature="0" /></g><g
           id="g4763"
           transform="translate(194.9121,162.582)"><path
             d="M 0,0 -1.916,3.512 -8.939,-0.318 -7.023,-3.83 0,0 z"
             style="fill:#f2f2f2;fill-opacity:1;fill-rule:nonzero;stroke:none"
             id="path4765"
             inkscape:connector-curvature="0" /></g><g
           id="g4767"
           transform="translate(180.8652,154.9209)"><path
             d="M 0,0 -1.916,3.512 -8.939,-0.319 -7.023,-3.831 0,0 z"
             style="fill:#f2f2f2;fill-opacity:1;fill-rule:nonzero;stroke:none"
             id="path4769"
             inkscape:connector-curvature="0" /></g><g
           id="g4771"
           transform="translate(109.4302,126.75)"><path
             d="M 0,0 1.07,10 -5.18,5.177 0,0 z"
             style="fill:#f2f2f2;fill-opacity:1;fill-rule:nonzero;stroke:none"
             id="path4773"
             inkscape:connector-curvature="0" /></g><g
           id="g4775"
           transform="translate(128,148.7573)"><path
             d="m 0,0 -5.625,-3.75 11.25,0 L 0,0 z"
             style="fill:#f2f2f2;fill-opacity:1;fill-rule:nonzero;stroke:none"
             id="path4777"
             inkscape:connector-curvature="0" /></g><g
           id="g4779"
           transform="translate(128,110.5)"><path
             d="m 0,0 6.875,6.25 -13.75,0 L 0,0 z"
             style="fill:#f2f2f2;fill-opacity:1;fill-rule:nonzero;stroke:none"
             id="path4781"
             inkscape:connector-curvature="0" /></g><g
           id="g4783"
           transform="translate(128,126.75)"><path
             d="M 0,0 C 3.578,0 6.372,2.366 6.246,5.18 6.124,7.884 3.33,10 0,10 -3.329,10 -6.125,7.884 -6.246,5.18 -6.372,2.366 -3.577,0 0,0"
             style="fill:#f2f2f2;fill-opacity:1;fill-rule:nonzero;stroke:none"
             id="path4785"
             inkscape:connector-curvature="0" /></g><g
           id="g4787"
           transform="translate(145.3203,126.75)"><path
             d="M 0,0 5.18,5.177 -1.07,10 0,0 z"
             style="fill:#f2f2f2;fill-opacity:1;fill-rule:nonzero;stroke:none"
             id="path4789"
             inkscape:connector-curvature="0" /></g></g></g></g></svg>