<?xml version="1.0" encoding="utf-8"?>
<!-- Generator: Adobe Illustrator 16.0.0, SVG Export Plug-In . SVG Version: 6.00 Build 0)  -->
<!DOCTYPE svg PUBLIC "-//W3C//DTD SVG 1.1//EN" "http://www.w3.org/Graphics/SVG/1.1/DTD/svg11.dtd">
<svg version="1.1"
	 id="svg2" inkscape:export-filename="/home/kivutar/Bureau/lakka-menu/reload.png" inkscape:export-xdpi="90" inkscape:version="0.48.4 r9939" inkscape:export-ydpi="90" sodipodi:docname="reload.svg" xmlns:svg="http://www.w3.org/2000/svg" xmlns:cc="http://creativecommons.org/ns#" xmlns:sodipodi="http://sodipodi.sourceforge.net/DTD/sodipodi-0.dtd" xmlns:rdf="http://www.w3.org/1999/02/22-rdf-syntax-ns#" xmlns:dc="http://purl.org/dc/elements/1.1/" xmlns:inkscape="http://www.inkscape.org/namespaces/inkscape"
	 xmlns="http://www.w3.org/2000/svg" xmlns:xlink="http://www.w3.org/1999/xlink" x="0px" y="0px" width="64px" height="64px"
	 viewBox="0 128 64 64" enable-background="new 0 128 64 64" xml:space="preserve">
<path id="Super_NES_1_" fill="#F2F2F2" d="M57.5,145.5c0.276,0,0.5-0.224,0.5-0.5v-2c0-1,0-1-1-1h-7c-0.553,0-1,0.447-1,1
	c0-0.553-0.447-1-1-1H16c-0.553,0-1,0.447-1,1c0-0.553-0.447-1-1-1H7c-1,0-1,0-1,1v2c0,0.276,0.224,0.5,0.5,0.5S7,145.724,7,146
	s-0.224,0.5-0.5,0.5S6,146.724,6,147s0.224,0.5,0.5,0.5S7,147.724,7,148s-0.224,0.5-0.5,0.5S6,148.724,6,149s0.224,0.5,0.5,0.5
	S7,149.724,7,150s-0.224,0.5-0.5,0.5S6,150.724,6,151s0.224,0.5,0.5,0.5S7,151.724,7,152s-0.224,0.5-0.5,0.5S6,152.724,6,153v24
	c0,0.466,0,1,1,1h7c0.553,0,1-0.447,1-1c0,0.553,0.447,1,1,1h32c0.553,0,1-0.447,1-1c0,0.553,0.447,1,1,1h7c1,0,1,0,1-1v-24
	c0-0.276-0.224-0.5-0.5-0.5S57,152.276,57,152s0.224-0.5,0.5-0.5s0.5-0.224,0.5-0.5s-0.224-0.5-0.5-0.5S57,150.276,57,150
	s0.224-0.5,0.5-0.5s0.5-0.224,0.5-0.5s-0.224-0.5-0.5-0.5S57,148.276,57,148s0.224-0.5,0.5-0.5s0.5-0.224,0.5-0.5
	s-0.224-0.5-0.5-0.5S57,146.276,57,146S57.224,145.5,57.5,145.5z M10,176c-0.553,0-1-0.447-1-1s0.447-1,1-1s1,0.447,1,1
	S10.553,176,10,176z M45,166H19c-0.695,0-1-0.305-1-1c0-0.693,0.305-1,1-1h26c0.695,0,1,0.307,1,1C46,165.695,45.695,166,45,166z
	 M51,159H13c-1.389,0-2-0.61-2-2v-11c0-1.389,0.611-2,2-2h38c1.389,0,2,0.611,2,2v11C53,158.39,52.389,159,51,159z M54,176
	c-0.553,0-1-0.447-1-1s0.447-1,1-1s1,0.447,1,1S54.553,176,54,176z M51,156c0,0.553-0.447,1-1,1H14c-0.553,0-1-0.447-1-1v-9
	c0-0.553,0.447-1,1-1h36c0.553,0,1,0.447,1,1V156z"/>
</svg>
