<?xml version="1.0" encoding="utf-8"?>
<!-- Generator: Adobe Illustrator 16.0.0, SVG Export Plug-In . SVG Version: 6.00 Build 0)  -->
<!DOCTYPE svg PUBLIC "-//W3C//DTD SVG 1.1//EN" "http://www.w3.org/Graphics/SVG/1.1/DTD/svg11.dtd">
<svg version="1.1"
	 id="svg2" inkscape:export-filename="/home/kivutar/Bureau/lakka-menu/reload.png" inkscape:export-xdpi="90" inkscape:version="0.48.4 r9939" inkscape:export-ydpi="90" sodipodi:docname="reload.svg" xmlns:svg="http://www.w3.org/2000/svg" xmlns:cc="http://creativecommons.org/ns#" xmlns:sodipodi="http://sodipodi.sourceforge.net/DTD/sodipodi-0.dtd" xmlns:rdf="http://www.w3.org/1999/02/22-rdf-syntax-ns#" xmlns:dc="http://purl.org/dc/elements/1.1/" xmlns:inkscape="http://www.inkscape.org/namespaces/inkscape"
	 xmlns="http://www.w3.org/2000/svg" xmlns:xlink="http://www.w3.org/1999/xlink" x="0px" y="0px" width="64px" height="64px"
	 viewBox="0 128 64 64" enable-background="new 0 128 64 64" xml:space="preserve">
<path id="Super_NES" fill="#F2F2F2" d="M56.849,149.406l0.051-0.16c0.168-0.527-0.122-1.088-0.648-1.256
	c0,0-5.381-2.706-5.682-2.807S49.39,145,49,145s-6,0-6,0c-0.553,0-1,0.447-1,1H22c0-0.553-0.447-1-1-1c0,0-5.61,0-6,0
	s-1.269,0.083-1.569,0.184s-5.682,2.807-5.682,2.807c-0.526,0.168-0.816,0.729-0.648,1.256l0.051,0.16
	C3.439,151.924,1,156.177,1,161c0,7.732,6.268,14,14,14c3.265,0,6.262-1.127,8.643-3h16.715c2.381,1.873,5.378,3,8.643,3
	c7.732,0,14-6.268,14-14C63,156.177,60.561,151.924,56.849,149.406z M18,162c0,0.553-0.447,1-1,1h-2v2c0,0.553-0.447,1-1,1h-2
	c-0.553,0-1-0.447-1-1v-2H9c-0.553,0-1-0.447-1-1v-2c0-0.553,0.447-1,1-1h2v-2c0-0.553,0.447-1,1-1h2c0.553,0,1,0.447,1,1v2h2
	c0.553,0,1,0.447,1,1V162z M31.054,162.836l-3.002,2c-0.171,0.114-0.364,0.166-0.554,0.166c-0.324,0-0.641-0.155-0.834-0.443
	c-0.308-0.463-0.183-1.082,0.275-1.388l3.004-2.002c0.461-0.307,1.081-0.183,1.387,0.276
	C31.637,161.906,31.512,162.528,31.054,162.836z M37.059,162.836l-3.003,2c-0.169,0.114-0.364,0.166-0.555,0.166
	c-0.324,0-0.639-0.155-0.833-0.443c-0.309-0.463-0.183-1.082,0.278-1.388l3.001-2.002c0.46-0.307,1.082-0.183,1.39,0.276
	C37.643,161.906,37.519,162.528,37.059,162.836z M43.5,163c-1.381,0-2.5-1.119-2.5-2.5s1.119-2.5,2.5-2.5s2.5,1.119,2.5,2.5
	S44.881,163,43.5,163z M49.5,168c-1.381,0-2.5-1.119-2.5-2.5s1.119-2.5,2.5-2.5s2.5,1.119,2.5,2.5S50.881,168,49.5,168z M49.5,158
	c-1.381,0-2.5-1.119-2.5-2.5s1.119-2.5,2.5-2.5s2.5,1.119,2.5,2.5S50.881,158,49.5,158z M55.5,163c-1.381,0-2.5-1.119-2.5-2.5
	s1.119-2.5,2.5-2.5s2.5,1.119,2.5,2.5S56.881,163,55.5,163z"/>
</svg>
