<?xml version="1.0" encoding="utf-8"?>
<!-- Generator: Adobe Illustrator 16.0.0, SVG Export Plug-In . SVG Version: 6.00 Build 0)  -->
<!DOCTYPE svg PUBLIC "-//W3C//DTD SVG 1.1//EN" "http://www.w3.org/Graphics/SVG/1.1/DTD/svg11.dtd">
<svg version="1.1"
	 id="svg2" inkscape:export-filename="/home/kivutar/Bureau/lakka-menu/reload.png" inkscape:export-xdpi="90" inkscape:version="0.48.4 r9939" inkscape:export-ydpi="90" sodipodi:docname="reload.svg" xmlns:svg="http://www.w3.org/2000/svg" xmlns:cc="http://creativecommons.org/ns#" xmlns:sodipodi="http://sodipodi.sourceforge.net/DTD/sodipodi-0.dtd" xmlns:rdf="http://www.w3.org/1999/02/22-rdf-syntax-ns#" xmlns:dc="http://purl.org/dc/elements/1.1/" xmlns:inkscape="http://www.inkscape.org/namespaces/inkscape"
	 xmlns="http://www.w3.org/2000/svg" xmlns:xlink="http://www.w3.org/1999/xlink" x="0px" y="0px" width="64px" height="64px"
	 viewBox="0 128 64 64" enable-background="new 0 128 64 64" xml:space="preserve">
<path id="Game_Boy_Advance" fill="#F2F2F2" d="M59.9,149.006c0.186-0.32,0.322-0.661,0.322-0.961c0-2.473-2.476-2.968-3.962-2.968
	c-3.639-0.456-3.938-0.493-7.42-0.879c-0.341-0.194-0.675-0.395-0.996-0.607c0-0.495-7.532-0.591-15.845-0.591
	c-8.314,0-15.845,0.096-15.845,0.591c-0.321,0.213-0.655,0.413-0.998,0.607c-3.483,0.386-3.779,0.424-7.418,0.879
	c-1.486,0-3.962,0.495-3.962,2.968c0,0.3,0.137,0.641,0.322,0.961C2.293,153.355,2,165.472,2,168c0,2.17,1.777,3.317,3.263,3.812
	c2.972,0.992,2.972,0.992,5.941,1.98C14.67,175.774,22.965,177,32,177c9.036,0,17.33-1.226,20.795-3.207
	c2.971-0.988,2.96-0.985,5.942-1.98C60.223,171.317,62,170.17,62,168C62,165.472,61.707,153.355,59.9,149.006z M12,159h-1v1
	c0,1,0,1-1,1H9c-1,0-1,0-1-1v-1H7c-1,0-1,0-1-1v-1c0-1,0-1,1-1h1v-1c0-1,0-1,1-1h1c1,0,1,0,1,1v1h1c1,0,1,0,1,1v1
	C13,159,13,159,12,159z M14,170c-0.553,0-1-0.447-1-1s0.447-1,1-1s1,0.447,1,1S14.553,170,14,170z M14,167c-0.553,0-1-0.447-1-1
	s0.447-1,1-1s1,0.447,1,1S14.553,167,14,167z M44.874,172.308c-8.913,1.981-16.973,1.934-25.747,0
	c-1.936-0.426-3.083-1.979-2.972-3.96l0.991-17.826c0.109-1.979,0.996-2.805,2.972-2.97c11.882-0.991,11.882-0.991,23.765,0
	c1.975,0.165,2.861,0.99,2.971,2.97l0.991,17.826C47.953,170.328,46.806,171.879,44.874,172.308z M51,148c0.553,0,1,0.447,1,1
	s-0.447,1-1,1s-1-0.447-1-1S50.447,148,51,148z M51.5,160c-0.828,0-1.5-0.672-1.5-1.5s0.672-1.5,1.5-1.5s1.5,0.672,1.5,1.5
	S52.328,160,51.5,160z M56.5,158c-0.828,0-1.5-0.672-1.5-1.5s0.672-1.5,1.5-1.5s1.5,0.672,1.5,1.5S57.328,158,56.5,158z"/>
</svg>
