<?xml version="1.0" encoding="utf-8"?>
<!-- Generator: Adobe Illustrator 16.0.0, SVG Export Plug-In . SVG Version: 6.00 Build 0)  -->
<!DOCTYPE svg PUBLIC "-//W3C//DTD SVG 1.1//EN" "http://www.w3.org/Graphics/SVG/1.1/DTD/svg11.dtd">
<svg version="1.1"
	 id="svg2" inkscape:export-filename="/home/kivutar/Bureau/lakka-menu/reload.png" inkscape:export-xdpi="90" inkscape:version="0.48.4 r9939" inkscape:export-ydpi="90" sodipodi:docname="reload.svg" xmlns:svg="http://www.w3.org/2000/svg" xmlns:cc="http://creativecommons.org/ns#" xmlns:sodipodi="http://sodipodi.sourceforge.net/DTD/sodipodi-0.dtd" xmlns:rdf="http://www.w3.org/1999/02/22-rdf-syntax-ns#" xmlns:dc="http://purl.org/dc/elements/1.1/" xmlns:inkscape="http://www.inkscape.org/namespaces/inkscape"
	 xmlns="http://www.w3.org/2000/svg" xmlns:xlink="http://www.w3.org/1999/xlink" x="0px" y="0px" width="64px" height="64px"
	 viewBox="0 128 64 64" enable-background="new 0 128 64 64" xml:space="preserve">
<path id="N64_1_" fill="#F2F2F2" d="M18,177h28v-32.511c-4.748-1.11-9.374-1.489-14-1.489s-9.252,0.379-14,1.489V177z
	 M21.785,146.533C25.034,146.069,28.518,146,32,146c3.483,0,6.965,0.069,10.215,0.533C43.232,146.68,44,146.97,44,148v24
	c0,1.028-0.973,2-2,2H22c-1.028,0-2-0.972-2-2v-24C20,146.97,20.768,146.68,21.785,146.533z M16,145
	c-3.618,0.902-6.51,1.84-10,3.392V177h10V145z M48,145v32h10v-28.608C54.51,146.84,51.618,145.902,48,145z M41,148.672
	c-0.609-0.234-2-0.672-9-0.672s-8.391,0.438-9,0.672s-1,0.775-1,1.328v21c0,0.553,0.447,1,1,1h18c0.553,0,1-0.447,1-1v-21
	C42,149.447,41.609,148.906,41,148.672z"/>
</svg>
