<?xml version="1.0" encoding="utf-8"?>
<!-- Generator: Adobe Illustrator 16.0.0, SVG Export Plug-In . SVG Version: 6.00 Build 0)  -->
<!DOCTYPE svg PUBLIC "-//W3C//DTD SVG 1.1//EN" "http://www.w3.org/Graphics/SVG/1.1/DTD/svg11.dtd">
<svg version="1.1"
	 id="svg2" inkscape:export-filename="/home/kivutar/Bureau/lakka-menu/reload.png" inkscape:export-xdpi="90" inkscape:version="0.48.4 r9939" inkscape:export-ydpi="90" sodipodi:docname="reload.svg" xmlns:svg="http://www.w3.org/2000/svg" xmlns:cc="http://creativecommons.org/ns#" xmlns:sodipodi="http://sodipodi.sourceforge.net/DTD/sodipodi-0.dtd" xmlns:rdf="http://www.w3.org/1999/02/22-rdf-syntax-ns#" xmlns:dc="http://purl.org/dc/elements/1.1/" xmlns:inkscape="http://www.inkscape.org/namespaces/inkscape"
	 xmlns="http://www.w3.org/2000/svg" xmlns:xlink="http://www.w3.org/1999/xlink" x="0px" y="0px" width="64px" height="64px"
	 viewBox="0 128 64 64" enable-background="new 0 128 64 64" xml:space="preserve">
<path id="Nintendo_DS" fill="#F2F2F2" d="M54,139c0-1,0-1-1-1H11c-1,0-1,0-1,1v20h1.5c-0.828,0-1.5,0.672-1.5,1.5s0.672,1.5,1.5,1.5
	H10v19c0,1,0,1,1,1h42c1,0,1,0,1-1v-19c-0.768,0-1.5,0-1.5,0c0.828,0,1.5-0.672,1.5-1.5s-0.672-1.5-1.5-1.5c0,0,0.732,0,1.5,0V139z
	 M48.5,165c0.829,0,1.5,0.671,1.5,1.5s-0.671,1.5-1.5,1.5s-1.5-0.671-1.5-1.5S47.671,165,48.5,165z M17,171h-1v1c0,1,0,1-1,1
	s-1,0-1-1v-1h-1c-1,0-1,0-1-1s0-1,1-1h1v-1c0-1,0-1,1-1s1,0,1,1v1h1c1,0,1,0,1,1S18,171,17,171z M42,179H22v-15h20V179z M42,156H22
	v-15h20V156z M45.5,180c-0.276,0-0.5-0.224-0.5-0.5s0.224-0.5,0.5-0.5s0.5,0.224,0.5,0.5S45.776,180,45.5,180z M45.5,178
	c-0.276,0-0.5-0.224-0.5-0.5s0.224-0.5,0.5-0.5s0.5,0.224,0.5,0.5S45.776,178,45.5,178z M45.5,171c-0.829,0-1.5-0.671-1.5-1.5
	s0.671-1.5,1.5-1.5s1.5,0.671,1.5,1.5S46.329,171,45.5,171z M48.5,174c-0.829,0-1.5-0.671-1.5-1.5s0.671-1.5,1.5-1.5
	s1.5,0.671,1.5,1.5S49.329,174,48.5,174z M53,169.5c0,0.829-0.671,1.5-1.5,1.5s-1.5-0.671-1.5-1.5s0.671-1.5,1.5-1.5
	S53,168.671,53,169.5z"/>
</svg>
