<?xml version="1.0" encoding="utf-8"?>
<!-- Generator: Adobe Illustrator 16.0.0, SVG Export Plug-In . SVG Version: 6.00 Build 0)  -->
<!DOCTYPE svg PUBLIC "-//W3C//DTD SVG 1.1//EN" "http://www.w3.org/Graphics/SVG/1.1/DTD/svg11.dtd">
<svg version="1.1"
	 id="svg2" inkscape:export-filename="/home/kivutar/Bureau/lakka-menu/reload.png" inkscape:export-xdpi="90" inkscape:version="0.48.4 r9939" inkscape:export-ydpi="90" sodipodi:docname="reload.svg" xmlns:svg="http://www.w3.org/2000/svg" xmlns:cc="http://creativecommons.org/ns#" xmlns:sodipodi="http://sodipodi.sourceforge.net/DTD/sodipodi-0.dtd" xmlns:rdf="http://www.w3.org/1999/02/22-rdf-syntax-ns#" xmlns:dc="http://purl.org/dc/elements/1.1/" xmlns:inkscape="http://www.inkscape.org/namespaces/inkscape"
	 xmlns="http://www.w3.org/2000/svg" xmlns:xlink="http://www.w3.org/1999/xlink" x="0px" y="0px" width="64px" height="64px"
	 viewBox="0 128 64 64" enable-background="new 0 128 64 64" xml:space="preserve">
<path id="Game_Boy" fill="#F2F2F2" d="M46,133H18c-1,0-2,1-2,2v50c0,1,1,2,2,2h21c5.142,0,9-3.857,9-9v-43C48,134,47,133,46,133z
	 M19,137c0-0.553,0.447-1,1-1h24c0.553,0,1,0.447,1,1v15c0,3.313-2.687,6-6,6H20c-0.553,0-1-0.447-1-1V137z M26,170c0,1,0,1-1,1h-1
	v1c0,1,0,1-1,1h-1c-1,0-1,0-1-1v-1h-1c-1,0-1,0-1-1v-1c0-1,0-1,1-1h1v-1c0-1,0-1,1-1h1c1,0,1,0,1,1v1h1c1,0,1,0,1,1V170z
	 M29.256,176.881l-2.595,1.675c-0.191,0.123-0.433,0.061-0.536-0.143c-0.106-0.203-0.036-0.47,0.158-0.592l2.592-1.677
	c0.191-0.125,0.432-0.062,0.537,0.143S29.446,176.756,29.256,176.881z M35.179,176.881l-2.592,1.675
	c-0.192,0.125-0.435,0.061-0.538-0.143c-0.105-0.203-0.035-0.47,0.157-0.592l2.591-1.677c0.194-0.125,0.433-0.062,0.539,0.143
	C35.441,176.491,35.37,176.758,35.179,176.881z M38,172c-1.104,0-2-0.896-2-2s0.896-2,2-2s2,0.896,2,2S39.104,172,38,172z M44,169
	c-1.104,0-2-0.896-2-2s0.896-2,2-2s2,0.896,2,2S45.104,169,44,169z"/>
</svg>
