<?xml version="1.0" encoding="UTF-8" standalone="no"?>
<!-- Created with Inkscape (http://www.inkscape.org/) -->

<svg
   xmlns:dc="http://purl.org/dc/elements/1.1/"
   xmlns:cc="http://creativecommons.org/ns#"
   xmlns:rdf="http://www.w3.org/1999/02/22-rdf-syntax-ns#"
   xmlns:svg="http://www.w3.org/2000/svg"
   xmlns="http://www.w3.org/2000/svg"
   xmlns:sodipodi="http://sodipodi.sourceforge.net/DTD/sodipodi-0.dtd"
   xmlns:inkscape="http://www.inkscape.org/namespaces/inkscape"
   id="svg4737"
   version="1.1"
   inkscape:version="0.91 r13725"
   xml:space="preserve"
   width="256"
   height="256"
   viewBox="0 0 256 256"
   sodipodi:docname="Nintendo - Nintendo 64DD-content.svg"
   inkscape:export-filename="/Volumes/Verbatim16/GitHub Projects/baxy-retroarch-themes/monochrome plus/contributions/pdf/Nintendo - Nintendo 64DD-content.png"
   inkscape:export-xdpi="90.099998"
   inkscape:export-ydpi="90.099998"><metadata
     id="metadata4743"><rdf:RDF><cc:Work
         rdf:about=""><dc:format>image/svg+xml</dc:format><dc:type
           rdf:resource="http://purl.org/dc/dcmitype/StillImage" /><dc:title></dc:title></cc:Work></rdf:RDF></metadata><defs
     id="defs4741"><clipPath
       clipPathUnits="userSpaceOnUse"
       id="clipPath4751"><path
         d="M 0,256 256,256 256,0 0,0 0,256 Z"
         id="path4753"
         inkscape:connector-curvature="0" /></clipPath></defs><sodipodi:namedview
     pagecolor="#ffffff"
     bordercolor="#666666"
     borderopacity="1"
     objecttolerance="10"
     gridtolerance="10"
     guidetolerance="10"
     inkscape:pageopacity="0"
     inkscape:pageshadow="2"
     inkscape:window-width="640"
     inkscape:window-height="480"
     id="namedview4739"
     showgrid="false"
     inkscape:zoom="2.634375"
     inkscape:cx="89.964413"
     inkscape:cy="160"
     inkscape:current-layer="g4745" /><g
     id="g4745"
     inkscape:groupmode="layer"
     inkscape:label="Nintendo - Nintendo 64DD-content"
     transform="matrix(1.25,0,0,-1.25,0,256)"><g
       id="g4747"
       transform="matrix(0.8,0,0,0.8,3.2,2.4)"><g
         id="g4749"
         clip-path="url(#clipPath4751)"><g
           id="g4755"
           transform="translate(116,220)"><path
             d="M 0,0 12,8 24,0 0,0 Z m -8,24 0,-40 c 0,-11.046 8.954,-20 20,-20 11.046,0 20,8.954 20,20 l 0,40 -40,0 z"
             style="fill:#f2f2f2;fill-opacity:1;fill-rule:nonzero;stroke:none"
             id="path4757"
             inkscape:connector-curvature="0" /></g><g
           id="g4759"
           transform="translate(140,28)"><path
             d="M 0,0 C -1.104,0 -2,0.896 -2,2 -2,3.104 -1.104,4 0,4 1.104,4 2,3.104 2,2 2,0.896 1.104,0 0,0 m -8,0 c -1.104,0 -2,0.896 -2,2 0,1.104 0.896,2 2,2 1.104,0 2,-0.896 2,-2 0,-1.104 -0.896,-2 -2,-2 m -8,0 c -1.104,0 -2,0.896 -2,2 0,1.104 0.896,2 2,2 1.104,0 2,-0.896 2,-2 0,-1.104 -0.896,-2 -2,-2 m -8,0 c -1.104,0 -2,0.896 -2,2 0,1.104 0.896,2 2,2 1.104,0 2,-0.896 2,-2 0,-1.104 -0.896,-2 -2,-2 m 112,216 -4,-4 -4,0 0,-220 -16,0 -44,0 -12,0 0,24 c 0,11.046 -8.954,20 -20,20 -11.046,0 -20,-8.954 -20,-20 l 0,-24 -12,0 -44,0 -16,0 0,224 -8,0 c -6.6,0 -12,-5.4 -12,-12 l 0,-208 c 0,-6.6 5.4,-12 12,-12 l 80,0 40,0 80,0 c 6.6,0 12,5.4 12,12 l 0,208 c 0,6.6 -5.4,12 -12,12"
             style="fill:#f2f2f2;fill-opacity:1;fill-rule:nonzero;stroke:none"
             id="path4761"
             inkscape:connector-curvature="0" /></g><g
           id="g4763"
           transform="translate(196,94)"><path
             d="m 0,0 c 0,-6.617 -5.383,-12 -12,-12 l -112,0 c -6.617,0 -12,5.383 -12,12 l 0,52 c 0,5.625 4,10.561 9.51,11.735 l 0.059,0.013 0.06,0.009 27.597,4.153 c 9.663,1.38 19.512,2.08 29.274,2.08 9.428,0 18.944,-0.653 28.284,-1.941 l 29.36,-4.05 C -5.306,63.922 0,58.569 0,52 L 0,0 Z m -36,146 0,-40 c 0,-17.673 -14.327,-32 -32,-32 -17.673,0 -32,14.327 -32,32 l 0,44 -44,0 0,-220 44,0 0,24 c 0,17.673 14.327,32 32,32 17.673,0 32,-14.327 32,-32 l 0,-24 44,0 0,216 -44,0 z"
             style="fill:#f2f2f2;fill-opacity:1;fill-rule:nonzero;stroke:none"
             id="path4765"
             inkscape:connector-curvature="0" /></g><g
           id="g4767"
           transform="translate(192,146)"><path
             d="m 0,0 c 0,4.411 -3.589,8 -8,8 l -0.273,0.019 -29.49,4.067 c -18.732,2.585 -37.723,2.539 -56.445,-0.136 L -121.713,7.811 C -125.359,7.006 -128,3.731 -128,0 l 0,-52 c 0,-4.411 3.589,-8 8,-8 l 112,0 c 4.411,0 8,3.589 8,8 L 0,0 Z"
             style="fill:#f2f2f2;fill-opacity:1;fill-rule:nonzero;stroke:none"
             id="path4769"
             inkscape:connector-curvature="0" /></g></g></g></g></svg>