<?xml version="1.0" encoding="utf-8"?>
<!-- Generator: Adobe Illustrator 16.0.0, SVG Export Plug-In . SVG Version: 6.00 Build 0)  -->
<!DOCTYPE svg PUBLIC "-//W3C//DTD SVG 1.1//EN" "http://www.w3.org/Graphics/SVG/1.1/DTD/svg11.dtd">
<svg version="1.1"
	 id="svg2" inkscape:export-filename="/home/kivutar/Bureau/lakka-menu/reload.png" inkscape:export-xdpi="90" inkscape:version="0.48.4 r9939" inkscape:export-ydpi="90" sodipodi:docname="reload.svg" xmlns:svg="http://www.w3.org/2000/svg" xmlns:cc="http://creativecommons.org/ns#" xmlns:sodipodi="http://sodipodi.sourceforge.net/DTD/sodipodi-0.dtd" xmlns:rdf="http://www.w3.org/1999/02/22-rdf-syntax-ns#" xmlns:dc="http://purl.org/dc/elements/1.1/" xmlns:inkscape="http://www.inkscape.org/namespaces/inkscape"
	 xmlns="http://www.w3.org/2000/svg" xmlns:xlink="http://www.w3.org/1999/xlink" x="0px" y="0px" width="64px" height="64px"
	 viewBox="0 128 64 64" enable-background="new 0 128 64 64" xml:space="preserve">
<path id="N64" fill="#F2F2F2" d="M59.342,147.596l-0.011,0.012c-0.151-3.437-2.007-5.985-4.711-7.743
	c0.034-0.032,0.068-0.068,0.093-0.109c0.144-0.24,0.066-0.552-0.174-0.696c-1.846-1.11-4.121-1.721-5.67-2.083
	c-1.451-0.34-3.124-0.623-4.938-0.85l-0.791-1.897l-0.012,0.064c-0.075-0.465-0.524-0.684-1.003-0.876
	C39.596,132.404,35.987,132,32,132s-7.596,0.404-10.127,1.417c-0.459,0.183-0.971,0.401-1.02,0.828l-0.785,1.881
	c-1.812,0.227-3.484,0.51-4.938,0.85c-0.014,0.002-0.025,0.006-0.036,0.01c-0.348,0.092-4.025,1.101-5.636,2.074
	c-0.24,0.146-0.317,0.457-0.172,0.695c0.024,0.041,0.057,0.079,0.091,0.111c-2.702,1.756-4.558,4.307-4.709,7.741l-0.011-0.012
	C3.538,150.953,3,155.641,3,160c0,7.604,1.812,14.862,5.8,14.862c3.263,0,5.595-9.716,6.567-14.077l4.479,0.987
	C25,163,24.025,188,32,188s7-25,12.151-26.228l4.482-0.987c0.972,4.361,3.304,14.077,6.566,14.077c3.987,0,5.8-7.259,5.8-14.862
	C61,155.641,60.462,150.953,59.342,147.596z M19,149c0,0.553-0.447,1-1,1h-2v2c0,0.553-0.447,1-1,1h-1c-0.553,0-1-0.447-1-1v-2h-2
	c-0.553,0-1-0.447-1-1v-1c0-0.553,0.447-1,1-1h2v-2c0-0.553,0.447-1,1-1h1c0.553,0,1,0.447,1,1v2h2c0.553,0,1,0.447,1,1V149z
	 M51.5,142c0.828,0,1.5,0.672,1.5,1.5s-0.672,1.5-1.5,1.5s-1.5-0.672-1.5-1.5S50.672,142,51.5,142z M48.5,145
	c0.828,0,1.5,0.672,1.5,1.5s-0.672,1.5-1.5,1.5s-1.5-0.672-1.5-1.5S47.672,145,48.5,145z M32,148c1.104,0,2,0.896,2,2s-0.896,2-2,2
	s-2-0.896-2-2S30.896,148,32,148z M34.829,164.829L32,166l-2.829-1.171L28,162l1.171-2.829L32,158l2.829,1.171L36,162
	L34.829,164.829z M43.5,153c-1.381,0-2.5-1.119-2.5-2.5s1.119-2.5,2.5-2.5s2.5,1.119,2.5,2.5S44.881,153,43.5,153z M47.5,157
	c-1.381,0-2.5-1.119-2.5-2.5s1.119-2.5,2.5-2.5s2.5,1.119,2.5,2.5S48.881,157,47.5,157z M51.5,151c-0.828,0-1.5-0.672-1.5-1.5
	s0.672-1.5,1.5-1.5s1.5,0.672,1.5,1.5S52.328,151,51.5,151z M54.5,148c-0.828,0-1.5-0.672-1.5-1.5s0.672-1.5,1.5-1.5
	s1.5,0.672,1.5,1.5S55.328,148,54.5,148z M32,160c-1.104,0-2,0.896-2,2s0.896,2,2,2s2-0.896,2-2S33.104,160,32,160z"/>
</svg>
