<?xml version="1.0" encoding="utf-8"?>
<!-- Generator: Adobe Illustrator 16.0.0, SVG Export Plug-In . SVG Version: 6.00 Build 0)  -->
<!DOCTYPE svg PUBLIC "-//W3C//DTD SVG 1.1//EN" "http://www.w3.org/Graphics/SVG/1.1/DTD/svg11.dtd">
<svg version="1.1" id="Calque_1" xmlns="http://www.w3.org/2000/svg" xmlns:xlink="http://www.w3.org/1999/xlink" x="0px" y="0px"
	 width="64px" height="64px" viewBox="0 0 64 64" enable-background="new 0 0 64 64" xml:space="preserve">
<path id="Reload" fill="#F2F2F2" d="M38,25l-6-3v2c-4.416,0-8,3.58-8,8c0,2.209,0.896,4.209,2.344,5.656l1.414-1.414
	C26.672,35.156,26,33.656,26,32c0-3.314,2.688-6,6-6v2L38,25z M37.656,26.344l-1.414,1.414C37.328,28.844,38,30.344,38,32
	c0,3.314-2.688,6-6,6v-2l-6,3l6,3v-2c4.416,0,8-3.58,8-8C40,29.791,39.104,27.791,37.656,26.344z"/>
</svg>
