<?xml version="1.0" encoding="utf-8"?>
<!-- Generator: Adobe Illustrator 16.0.0, SVG Export Plug-In . SVG Version: 6.00 Build 0)  -->
<!DOCTYPE svg PUBLIC "-//W3C//DTD SVG 1.1//EN" "http://www.w3.org/Graphics/SVG/1.1/DTD/svg11.dtd">
<svg version="1.1" id="Calque_1" xmlns="http://www.w3.org/2000/svg" xmlns:xlink="http://www.w3.org/1999/xlink" x="0px" y="0px"
	 width="64px" height="64px" viewBox="0 0 64 64" enable-background="new 0 0 64 64" xml:space="preserve">
<path id="Resume" fill="#F2F2F2" d="M39.335,30.89c-0.745-0.497-8.496-6.669-8.68-6.764C30.499,24.046,30.322,24,30.135,24
	c-0.621,0-1.122,0.499-1.131,1.118C29.003,25.123,29,25.127,29,25.132c0,1.001,0,12.732,0,13.733C29,39.492,29.508,40,30.135,40
	c0.188,0,0.364-0.046,0.521-0.126c0.185-0.095,7.937-6.27,8.682-6.766C39.752,32.832,40,32.416,40,32S39.751,31.167,39.335,30.89z
	 M25,24c-0.553,0-1,0.447-1,1v14c0,0.553,0.447,1,1,1s1-0.447,1-1V25C26,24.447,25.553,24,25,24z"/>
</svg>
