<?xml version="1.0" encoding="utf-8"?>
<!-- Generator: Adobe Illustrator 16.0.0, SVG Export Plug-In . SVG Version: 6.00 Build 0)  -->
<!DOCTYPE svg PUBLIC "-//W3C//DTD SVG 1.1//EN" "http://www.w3.org/Graphics/SVG/1.1/DTD/svg11.dtd">
<svg version="1.1" id="Calque_1" xmlns="http://www.w3.org/2000/svg" xmlns:xlink="http://www.w3.org/1999/xlink" x="0px" y="0px"
	 width="64px" height="64px" viewBox="0 0 64 64" enable-background="new 0 0 64 64" xml:space="preserve">
<path id="Run" fill="#F2F2F2" d="M38.335,30.89c-0.745-0.497-11.496-6.669-11.68-6.764C26.499,24.046,26.322,24,26.135,24
	c-0.621,0-1.122,0.499-1.131,1.118C25.003,25.123,25,25.127,25,25.132c0,1.001,0,12.732,0,13.733C25,39.492,25.508,40,26.135,40
	c0.188,0,0.364-0.046,0.521-0.126c0.185-0.095,10.937-6.27,11.682-6.766C38.752,32.832,39,32.416,39,32S38.751,31.167,38.335,30.89z
	"/>
</svg>
