<?xml version="1.0" encoding="utf-8"?>
<!-- Generator: Adobe Illustrator 16.0.0, SVG Export Plug-In . SVG Version: 6.00 Build 0)  -->
<!DOCTYPE svg PUBLIC "-//W3C//DTD SVG 1.1//EN" "http://www.w3.org/Graphics/SVG/1.1/DTD/svg11.dtd">
<svg version="1.1"
	 id="svg2" inkscape:export-filename="/home/kivutar/Bureau/lakka-menu/reload.png" inkscape:export-xdpi="90" inkscape:version="0.48.4 r9939" inkscape:export-ydpi="90" sodipodi:docname="reload.svg" xmlns:svg="http://www.w3.org/2000/svg" xmlns:cc="http://creativecommons.org/ns#" xmlns:sodipodi="http://sodipodi.sourceforge.net/DTD/sodipodi-0.dtd" xmlns:rdf="http://www.w3.org/1999/02/22-rdf-syntax-ns#" xmlns:dc="http://purl.org/dc/elements/1.1/" xmlns:inkscape="http://www.inkscape.org/namespaces/inkscape"
	 xmlns="http://www.w3.org/2000/svg" xmlns:xlink="http://www.w3.org/1999/xlink" x="0px" y="0px" width="64px" height="64px"
	 viewBox="0 128 64 64" enable-background="new 0 128 64 64" xml:space="preserve">
<path id="Screenshot" fill="#F2F2F2" d="M40,154c0-1.105-0.895-2-2-2h-6c-1.105,0-2,0.895-2,2h-6c-1.105,0-2,0.895-2,2v10
	c0,1.105,0.895,2,2,2h16c1.105,0,2-0.895,2-2v-10C42,154.895,41.105,154,40,154z M38,161c0,1.658-1.342,3-3,3s-3-1.342-3-3
	s1.342-3,3-3S38,159.342,38,161z M25,158c-0.553,0-1-0.447-1-1s0.447-1,1-1s1,0.447,1,1S25.553,158,25,158z M35,166
	c-2.762,0-5-2.24-5-5s2.238-5,5-5s5,2.24,5,5S37.762,166,35,166z"/>
</svg>
