<?xml version="1.0" encoding="utf-8"?>
<!-- Generator: Adobe Illustrator 16.0.0, SVG Export Plug-In . SVG Version: 6.00 Build 0)  -->
<!DOCTYPE svg PUBLIC "-//W3C//DTD SVG 1.1//EN" "http://www.w3.org/Graphics/SVG/1.1/DTD/svg11.dtd">
<svg version="1.1"
	 id="svg2" inkscape:export-filename="/home/kivutar/Bureau/lakka-menu/reload.png" inkscape:export-xdpi="90" inkscape:version="0.48.4 r9939" inkscape:export-ydpi="90" sodipodi:docname="reload.svg" xmlns:svg="http://www.w3.org/2000/svg" xmlns:cc="http://creativecommons.org/ns#" xmlns:sodipodi="http://sodipodi.sourceforge.net/DTD/sodipodi-0.dtd" xmlns:rdf="http://www.w3.org/1999/02/22-rdf-syntax-ns#" xmlns:dc="http://purl.org/dc/elements/1.1/" xmlns:inkscape="http://www.inkscape.org/namespaces/inkscape"
	 xmlns="http://www.w3.org/2000/svg" xmlns:xlink="http://www.w3.org/1999/xlink" x="0px" y="0px" width="64px" height="64px"
	 viewBox="0 128 64 64" enable-background="new 0 128 64 64" xml:space="preserve">
<path id="Saturn" fill="#F2F2F2" d="M47,142c-5.75,0-10.5,3-15,3s-9.25-3-15-3c-7.584,0-14,19.584-14,27s6.25,9,9,9
	c4,0,13.333-10,20-10s16,10,20,10c2.75,0,9-1.584,9-9S54.584,142,47,142z M44,152c1.104,0,2,0.896,2,2s-0.896,2-2,2s-2-0.896-2-2
	S42.896,152,44,152z M20,160.5c0,0.553-0.447,1-1,1h-2.5v2.5c0,0.553-0.447,1-1,1h-1c-0.553,0-1-0.447-1-1v-2.5H11
	c-0.553,0-1-0.447-1-1v-1c0-0.553,0.447-1,1-1h2.5V156c0-0.553,0.447-1,1-1h1c0.553,0,1,0.447,1,1v2.5H19c0.553,0,1,0.447,1,1V160.5
	z M32,165c-1.104,0-2-0.224-2-0.5s0.896-0.5,2-0.5s2,0.224,2,0.5S33.104,165,32,165z M37,157c0-1.104,0.896-2,2-2s2,0.896,2,2
	s-0.896,2-2,2S37,158.104,37,157z M41,167c-1.657,0-3-1.343-3-3s1.343-3,3-3s3,1.343,3,3S42.657,167,41,167z M47,162
	c-1.657,0-3-1.343-3-3s1.343-3,3-3s3,1.343,3,3S48.657,162,47,162z M49,153c-1.104,0-2-0.896-2-2s0.896-2,2-2s2,0.896,2,2
	S50.104,153,49,153z M54,159c-1.657,0-3-1.343-3-3s1.343-3,3-3s3,1.343,3,3S55.657,159,54,159z"/>
</svg>
