<?xml version="1.0" encoding="utf-8"?>
<!-- Generator: Adobe Illustrator 16.0.0, SVG Export Plug-In . SVG Version: 6.00 Build 0)  -->
<!DOCTYPE svg PUBLIC "-//W3C//DTD SVG 1.1//EN" "http://www.w3.org/Graphics/SVG/1.1/DTD/svg11.dtd">
<svg version="1.1"
	 id="svg2" inkscape:export-filename="/home/kivutar/Bureau/lakka-menu/reload.png" inkscape:export-xdpi="90" inkscape:version="0.48.4 r9939" inkscape:export-ydpi="90" sodipodi:docname="reload.svg" xmlns:svg="http://www.w3.org/2000/svg" xmlns:cc="http://creativecommons.org/ns#" xmlns:sodipodi="http://sodipodi.sourceforge.net/DTD/sodipodi-0.dtd" xmlns:rdf="http://www.w3.org/1999/02/22-rdf-syntax-ns#" xmlns:dc="http://purl.org/dc/elements/1.1/" xmlns:inkscape="http://www.inkscape.org/namespaces/inkscape"
	 xmlns="http://www.w3.org/2000/svg" xmlns:xlink="http://www.w3.org/1999/xlink" x="0px" y="0px" width="64px" height="64px"
	 viewBox="0 128 64 64" enable-background="new 0 128 64 64" xml:space="preserve">
<path id="Megadrive" fill="#F2F2F2" d="M31.977,140C16.977,140,1,147.083,1,161s8,19,12,19c4.963,0,5.514-7.524,9.977-9.263
	c2.918-1.136,4.977-1.737,9-1.737s5.977,0.56,9,1.737C45.543,172.517,44,180,49,180c4,0,14-5.167,14-19S46.977,140,31.977,140z
	 M20,162c0,0.537-0.445,1-1,1h-2v2c0,0.539-0.449,1-1,1h-2c-0.553,0-1-0.461-1-1v-2h-2c-0.553,0-1-0.463-1-1v-2c0-0.537,0.447-1,1-1
	h2v-2c0-0.539,0.447-1,1-1h2c0.551,0,1,0.461,1,1v2h2c0.555,0,1,0.463,1,1V162z M42.463,152.534l4.053-2.125
	c0.465-0.244,1.061-0.1,1.328,0.325c0.27,0.421,0.111,0.963-0.355,1.205l-4.051,2.126c-0.465,0.244-1.061,0.1-1.33-0.325
	C41.84,153.318,41.998,152.777,42.463,152.534z M42,166c-1.658,0-3-1.343-3-3s1.342-3,3-3c1.656,0,3,1.343,3,3S43.656,166,42,166z
	 M49,163c-1.658,0-3-1.343-3-3s1.342-3,3-3c1.656,0,3,1.343,3,3S50.656,163,49,163z M56,160c-1.658,0-3-1.343-3-3s1.342-3,3-3
	c1.656,0,3,1.343,3,3S57.656,160,56,160z"/>
</svg>
