<?xml version="1.0" encoding="utf-8"?>
<!-- Generator: Adobe Illustrator 16.0.4, SVG Export Plug-In . SVG Version: 6.00 Build 0)  -->
<!DOCTYPE svg PUBLIC "-//W3C//DTD SVG 1.1//EN" "http://www.w3.org/Graphics/SVG/1.1/DTD/svg11.dtd">
<svg version="1.1" id="Layer_1" xmlns="http://www.w3.org/2000/svg" xmlns:xlink="http://www.w3.org/1999/xlink" x="0px" y="0px"
	 width="256px" height="256px" viewBox="0 0 256 256" enable-background="new 0 0 256 256" xml:space="preserve">
<g>
	<path fill="#F2F2F2" d="M26.123,50.84c8.127-2.36,16.396-4.206,24.653-6.058c-3.648,5.513-6.845,11.341-9.248,17.504
		c-6.913-1.976-14.76-0.421-20.242,4.28c-7.649,6.182-10.096,17.765-5.562,26.492c3.643,7.6,11.955,12.487,20.348,12.215
		c1.264,9.842,4.125,19.462,8.48,28.375c-3.215,0.024-6.43-0.013-9.644,0.03c-1.14-0.086-2.075,1.048-1.927,2.144
		c-0.019,3.128-0.024,6.256,0,9.384c-0.167,1.115,0.787,2.255,1.945,2.168c3.593,0.062,7.186,0.025,10.778,0.043
		c0.093,3.587-0.062,7.173,0.037,10.76c-0.074,1.127,0.998,2.106,2.112,1.957c2.707,0.068,5.42-0.006,8.133,0.038
		c1.146-0.032,2.688,0.179,3.264-1.097c0.458-1.245,0.149-2.646,0.236-3.94c5.884,6.201,12.623,11.571,19.988,15.907
		c-11.416,11.936-18.372,27.73-20.546,44.027c-0.217,2.663-1.475,5.054-2.119,7.612c-1.555,6.015-3.214,11.998-5.023,17.944
		c-0.508,1.759-1.734,4.112-3.952,3.636c-2.316-0.675-3.915-2.67-5.364-4.479c-4.268-5.822-7.271-12.443-10.047-19.071
		c-8.585-21.091-14.116-43.309-18.179-65.676c-3.072-17.146-5.135-34.525-5.005-51.962c0.111-10.809,1.028-21.673,3.667-32.185
		c1.585-5.866,3.487-11.824,7.123-16.773C21.384,52.042,23.924,51.533,26.123,50.84L26.123,50.84z"/>
	<g>
		<path fill="#F2F2F2" d="M152.47,62.77c0.087-1.239-1.221-2.026-2.335-1.809c-16.13,0.006-32.259-0.025-48.388,0.012
			c-0.248,0.068-0.756,0.192-1.004,0.254c-0.755,0.44-0.917,1.313-0.836,2.119c0.012,14.271-0.031,28.548,0.019,42.819
			c-0.118,0.991,0.768,1.97,1.784,1.852c16.358-0.006,32.718,0.006,49.069-0.006c1.319,0.081,1.89-1.363,1.723-2.472
			C152.47,91.28,152.531,77.021,152.47,62.77z"/>
		<path fill="#F2F2F2" d="M150.45,11.743c-21.599-7.445-46.239-5.117-66.153,6.058c-0.056,25.935-0.025,51.863-0.019,77.797
			c-0.148,9.396,3.438,18.793,9.824,25.687c6.516,7.191,15.938,11.682,25.638,12.128c3.915,0.161,7.835,0.074,11.756,0.043
			c10.592-0.137,20.942-5.178,27.737-13.268c5.767-6.783,9.007-15.671,8.857-24.584c0.019-25.16,0.019-50.321,0-75.481
			C162.566,16.661,156.626,13.854,150.45,11.743z M153.593,113.022c-5.792,2.559-12.142,3.345-18.365,4.113
			c-2.997,0.398-6.008,0.569-9.019,0.564c-3.011,0.005-6.022-0.166-9.019-0.564c-6.224-0.768-12.573-1.554-18.365-4.113
			c-2.286-1.034-4.144-3.351-3.914-5.971c0.006-15.907,0.006-31.812,0-47.719c0.086-2.168,2.471-3.09,4.162-3.846
			c6.957-2.657,14.488-3.035,21.804-3.921c1.777-0.243,3.555-0.327,5.333-0.312c1.778-0.016,3.555,0.069,5.333,0.312
			c7.315,0.886,14.848,1.264,21.804,3.921c1.69,0.756,4.076,1.678,4.162,3.846c-0.006,15.907-0.006,31.812,0,47.719
			C157.736,109.671,155.878,111.988,153.593,113.022z"/>
	</g>
	<path fill="#F2F2F2" d="M32.72,68.152c7.644-1.517,15.77,3.772,17.535,11.341c1.443,5.247-0.266,11.156-4.181,14.903
		C42.209,98.2,36.25,99.76,31.041,98.15c-5.854-1.61-10.437-7.012-11.025-13.063C18.907,77.239,24.872,69.273,32.72,68.152
		L32.72,68.152z"/>
	<path fill="#F2F2F2" d="M203.942,98.955c-4.962,0.688-10.077-2.831-11.155-7.73c-1.289-4.639,1.307-9.879,5.698-11.799
		c3.363-1.623,7.451-0.991,10.468,1.115c-3.841-23.68-18.124-45.39-38.329-58.317c-0.062,25.073,0.038,50.153-0.05,75.221
		c-0.34,15.789-11.143,30.561-25.909,35.994c-4.975,1.908-10.338,2.65-15.646,2.559c-5.128-0.074-10.325,0.304-15.361-0.843
		c-9.613-1.964-18.396-7.644-24.157-15.578c-4.98-6.708-7.693-15.027-7.73-23.37c-0.012-25.557,0.019-51.114-0.012-76.67
		c-17.078,9.669-30.735,25.296-37.926,43.569c6.287,2.762,11.292,8.436,12.791,15.188c1.969,7.743-0.898,16.39-6.938,21.574
		c-3.128,2.738-7.055,4.459-11.131,5.172c1.022,8.641,3.444,17.121,7.03,25.049c0.167-0.068,0.508-0.205,0.681-0.273l-0.539-0.458
		c-0.025-2.149-0.043-4.292,0-6.441c-0.105-1.159,1.016-2.144,2.149-1.995c3.116-0.019,6.237-0.031,9.353,0
		c1.127-0.173,2.292,0.78,2.205,1.951c0.062,3.586,0.025,7.173,0.043,10.76c3.58,0.099,7.16-0.062,10.74,0.037
		c1.177-0.093,2.137,1.053,1.976,2.205c0.037,3.097,0.043,6.2,0.013,9.297c0.155,1.158-0.831,2.323-2.032,2.224
		c-3.567,0.1-7.135-0.056-10.703,0.024c-0.019,1.345-0.024,2.689-0.019,4.039c14.866,16.935,36.563,27.663,59.079,28.994
		l0.297-0.186c1.97-3.394,3.977-6.77,5.99-10.14c0.489-1.164,2.261-1.127,2.762,0.006c2.026,3.283,3.872,6.665,5.891,9.948
		c8.027-0.854,15.9-2.918,23.363-5.989c17.703-7.284,32.742-20.714,42.164-37.363c-1.933-0.923-3.822-2.105-5.005-3.952
		c-2.937-4.162-2.094-10.43,1.907-13.614c3.01-2.657,7.439-2.924,11.075-1.505c1.846-7.055,2.917-14.308,3.115-21.605
		C208.315,97.5,206.277,98.75,203.942,98.955z M193.238,108.061c-0.018,5.605-5.308,10.462-10.907,9.948
		c-5.593-0.211-10.232-5.631-9.563-11.199c0.354-4.689,4.33-8.733,8.994-9.235C187.744,96.707,193.562,102.021,193.238,108.061z"/>
	<path fill="#F2F2F2" d="M236.04,72.866c-1.592-6.467-3.556-13.033-7.438-18.533c-1.58-2.478-4.652-2.948-7.223-3.791
		c-8.021-2.217-16.136-4.1-24.262-5.878c7.922,11.62,13.032,25.129,14.747,39.091c1.09,2.713,1.438,5.624,0.688,8.486
		c0.086,9.056-0.979,18.13-3.481,26.845c3.258,2.861,4.664,7.724,2.923,11.781c-1.616,4.144-6.069,6.788-10.479,6.423
		c-7.595,13.608-18.75,25.197-32.116,33.219c11.415,11.732,18.52,27.26,20.898,43.39c0.464,2.583,0.514,5.222,1.065,7.792
		c1.759,6.492,3.419,13.014,5.476,19.419c0.508,1.734,2.044,3.89,4.138,3.072c2.874-1.189,4.676-3.934,6.423-6.368
		c5.104-7.91,8.604-16.712,11.905-25.481c9.056-25.502,14.815-52.104,18.155-78.938C239.676,113.307,240.426,92.73,236.04,72.866z
		 M224.396,118.045c-5.396,1.326-11.336-2.614-12.222-8.095c-1.021-4.708,1.834-9.793,6.318-11.484
		c5.252-2.205,11.781,0.879,13.473,6.293C234.039,110.309,230.156,116.93,224.396,118.045z"/>
	<path fill="#F2F2F2" d="M134.835,182.414c11.335-1.449,22.386-5.054,32.364-10.629c11.143,11.174,18.037,26.089,20.583,41.574
		c-4.25-4.379-10.729-4.292-16.223-5.891c-23.29-5.017-47.366-5.32-71.034-3.438c-8.839,0.824-17.696,1.902-26.319,4.07
		c-4.218,1.016-8.826,1.394-12.375,4.149c2.552-14.859,9.285-29.05,19.79-39.928c11.02,5.854,23.185,9.576,35.641,10.493
		c-1.294,2.435-2.837,4.727-4.125,7.16c-0.7,1.028,0.489,2.354,1.604,2.125c7.662,0.043,15.331,0.019,22.993,0.013
		c1.084,0.167,2.112-1.115,1.523-2.094C137.895,187.426,136.253,184.984,134.835,182.414L134.835,182.414z"/>
	<path fill="#F2F2F2" d="M117.603,188.447c2.855-4.875,5.705-9.737,8.591-14.587c2.861,4.855,5.748,9.706,8.585,14.581
		C129.056,188.466,123.333,188.466,117.603,188.447L117.603,188.447z"/>
</g>
</svg>
