<?xml version="1.0" encoding="utf-8"?>
<!-- Generator: Adobe Illustrator 16.0.0, SVG Export Plug-In . SVG Version: 6.00 Build 0)  -->
<!DOCTYPE svg PUBLIC "-//W3C//DTD SVG 1.1//EN" "http://www.w3.org/Graphics/SVG/1.1/DTD/svg11.dtd">
<svg version="1.1"
	 id="svg2" inkscape:export-filename="/home/kivutar/Bureau/lakka-menu/reload.png" inkscape:export-xdpi="90" inkscape:version="0.48.4 r9939" inkscape:export-ydpi="90" sodipodi:docname="reload.svg" xmlns:svg="http://www.w3.org/2000/svg" xmlns:cc="http://creativecommons.org/ns#" xmlns:sodipodi="http://sodipodi.sourceforge.net/DTD/sodipodi-0.dtd" xmlns:rdf="http://www.w3.org/1999/02/22-rdf-syntax-ns#" xmlns:dc="http://purl.org/dc/elements/1.1/" xmlns:inkscape="http://www.inkscape.org/namespaces/inkscape"
	 xmlns="http://www.w3.org/2000/svg" xmlns:xlink="http://www.w3.org/1999/xlink" x="0px" y="0px" width="64px" height="64px"
	 viewBox="0 128 64 64" enable-background="new 0 128 64 64" xml:space="preserve">
<path id="Master_System_1_" fill="#F2F2F2" d="M29,155v-7H7v24h22v-2c0-0.794,0.208-1,1-1h31v-13H30C29.208,156,29,155.794,29,155z
	 M18.5,169c-4.695,0-8.5-3.805-8.5-8.5s3.805-8.5,8.5-8.5s8.5,3.805,8.5,8.5S23.195,169,18.5,169z M49,157h8v1h-8V157z M49,159h8v8
	h-8V159z M40,157h8v1h-8V157z M40,159h8v8h-8V159z M30,171v1h30c0.515,0,1-0.483,1-1v-1H31C30,170,30,170,30,171z M3,149v22
	c0,0.517,0.484,1,1,1h2v-24H4C3.484,148,3,148.484,3,149z M60,148H30v6c0,1,0,1,1,1h30v-6C61,148.484,60.515,148,60,148z M44,160
	c-1.657,0-3,1.343-3,3s1.343,3,3,3s3-1.343,3-3S45.657,160,44,160z M53,160c-1.657,0-3,1.343-3,3s1.343,3,3,3s3-1.343,3-3
	S54.657,160,53,160z M18.5,158c-1.381,0-2.5,1.119-2.5,2.5s1.119,2.5,2.5,2.5s2.5-1.119,2.5-2.5S19.881,158,18.5,158z M19,154h-1v3
	h1V154z M18,167h1v-3h-1V167z M22,161h3v-1h-3V161z M15,160h-3v1h3V160z M16,157l-2-1l1,2L16,157z M23,156l-2,1l1,1L23,156z M21,164
	l2,1l-1-2L21,164z M14,165l2-1l-1-1L14,165z"/>
</svg>
