<?xml version="1.0" encoding="utf-8"?>
<!-- Generator: Adobe Illustrator 16.0.0, SVG Export Plug-In . SVG Version: 6.00 Build 0)  -->
<!DOCTYPE svg PUBLIC "-//W3C//DTD SVG 1.1//EN" "http://www.w3.org/Graphics/SVG/1.1/DTD/svg11.dtd">
<svg version="1.1" id="Calque_1" xmlns="http://www.w3.org/2000/svg" xmlns:xlink="http://www.w3.org/1999/xlink" x="0px" y="0px"
	 width="64px" height="64px" viewBox="0 0 64 64" enable-background="new 0 0 64 64" xml:space="preserve">
<path id="SG-1000" fill="#F2F2F2" d="M57,20H7c-2.209,0-4,1.791-4,4v16c0,2.209,1.791,4,4,4h50c2.209,0,4-1.791,4-4V24
	C61,21.791,59.209,20,57,20z M17,40c-4.418,0-8-3.582-8-8s3.582-8,8-8s8,3.582,8,8S21.418,40,17,40z M44,36c0,1.657-1.343,3-3,3
	s-3-1.343-3-3v-3c0-1.657,1.343-3,3-3s3,1.343,3,3V36z M55,36c0,1.657-1.343,3-3,3s-3-1.343-3-3v-3c0-1.657,1.343-3,3-3s3,1.343,3,3
	V36z M19,32c0,1.104-0.896,2-2,2s-2-0.896-2-2s0.896-2,2-2S19,30.896,19,32z M18,28c0,0.553-0.447,1-1,1l0,0c-0.553,0-1-0.447-1-1
	v-2c0-0.553,0.447-1,1-1l0,0c0.553,0,1,0.447,1,1V28z M18,38c0,0.553-0.447,1-1,1l0,0c-0.553,0-1-0.447-1-1v-2c0-0.553,0.447-1,1-1
	l0,0c0.553,0,1,0.447,1,1V38z M13,31c0.553,0,1,0.447,1,1l0,0c0,0.553-0.447,1-1,1h-2c-0.553,0-1-0.447-1-1l0,0c0-0.553,0.447-1,1-1
	H13z M23,31c0.553,0,1,0.447,1,1l0,0c0,0.553-0.447,1-1,1h-2c-0.553,0-1-0.447-1-1l0,0c0-0.553,0.447-1,1-1H23z M55,25
	c0,0.553-0.447,1-1,1H39c-0.553,0-1-0.447-1-1v-1c0-0.553,0.447-1,1-1h15c0.553,0,1,0.447,1,1V25z"/>
</svg>
