<?xml version="1.0" encoding="utf-8"?>
<!-- Generator: Adobe Illustrator 16.0.4, SVG Export Plug-In . SVG Version: 6.00 Build 0)  -->
<!DOCTYPE svg PUBLIC "-//W3C//DTD SVG 1.1//EN" "http://www.w3.org/Graphics/SVG/1.1/DTD/svg11.dtd">
<svg version="1.1" id="Layer_1" xmlns="http://www.w3.org/2000/svg" xmlns:xlink="http://www.w3.org/1999/xlink" x="0px" y="0px"
	 width="256px" height="256px" viewBox="0 0 256 256" enable-background="new 0 0 256 256" xml:space="preserve">
<g>
	<path fill="#F2F2F2" d="M128,100.5c-15.188,0-27.5,12.312-27.5,27.5c0,15.187,12.312,27.5,27.5,27.5
		c15.187,0,27.5-12.313,27.5-27.5C155.5,112.812,143.187,100.5,128,100.5z M128,139.5c-6.352,0-11.5-5.148-11.5-11.5
		c0-6.352,5.148-11.5,11.5-11.5c6.352,0,11.5,5.148,11.5,11.5C139.5,134.352,134.352,139.5,128,139.5z"/>
	<path fill="#F2F2F2" d="M128,34c-51.915,0-94,42.085-94,94c0,51.915,42.085,94,94,94c51.914,0,94-42.085,94-94
		C222,76.085,179.914,34,128,34z M128,93c19.329,0,35,15.67,35,35c0,19.329-15.671,35-35,35c-19.33,0-35-15.671-35-35
		C93,108.67,108.67,93,128,93z M163.001,212.02C152.226,216.514,140.403,219,128,219s-24.225-2.485-35-6.979v-69.198
		C98.777,156.444,112.272,166,128,166c15.729,0,29.226-9.558,35.001-23.181V212.02z"/>
</g>
</svg>
