<?xml version="1.0" encoding="utf-8"?>
<!-- Generator: Adobe Illustrator 16.0.0, SVG Export Plug-In . SVG Version: 6.00 Build 0)  -->
<!DOCTYPE svg PUBLIC "-//W3C//DTD SVG 1.1//EN" "http://www.w3.org/Graphics/SVG/1.1/DTD/svg11.dtd">
<svg version="1.1" id="Calque_1" xmlns="http://www.w3.org/2000/svg" xmlns:xlink="http://www.w3.org/1999/xlink" x="0px" y="0px"
	 width="64px" height="64px" viewBox="0 0 64 64" enable-background="new 0 0 64 64" xml:space="preserve">
<path id="ZX_Spectrum" fill="#F2F2F2" d="M49,44c0,0,0-1-1.003-1C45.994,43,16.895,43,16,43c-1,0-1,1-1,1l-1,5h36L49,44z M19,48
	c-0.553,0-1-0.447-1-1s0.447-1,1-1s1,0.447,1,1S19.553,48,19,48z M24,47c-0.553,0-1-0.447-1-1s0.447-1,1-1s1,0.447,1,1
	S24.553,47,24,47z M32,46c-0.553,0-1-0.447-1-1s0.447-1,1-1s1,0.447,1,1S32.553,46,32,46z M40,47c-0.553,0-1-0.447-1-1s0.447-1,1-1
	s1,0.447,1,1S40.553,47,40,47z M45,48c-0.553,0-1-0.447-1-1s0.447-1,1-1s1,0.447,1,1S45.553,48,45,48z M54,19H10
	c-0.553,0-1,0.447-1,1v16c0,0.553,0.447,1,1,1h44c0.553,0,1-0.447,1-1V20C55,19.447,54.553,19,54,19z M48,34H16V24h32V34z M57,15H7
	c-1.104,0-2,0.896-2,2v30c0,1.104,0.896,2,2,2h6l1-5c0,0,0-2,2-2c0.895,0,29.994,0,31.997,0S50,44,50,44l1,5h6c1.104,0,2-0.896,2-2
	V17C59,15.896,58.104,15,57,15z M6.5,48C6.224,48,6,47.776,6,47.5S6.224,47,6.5,47S7,47.224,7,47.5S6.776,48,6.5,48z M6.5,17
	C6.224,17,6,16.776,6,16.5S6.224,16,6.5,16S7,16.224,7,16.5S6.776,17,6.5,17z M56,36c0,1.104-0.896,2-2,2H10c-1.104,0-2-0.896-2-2
	V20c0-1.104,0.896-2,2-2h44c1.104,0,2,0.896,2,2V36z M57.5,48c-0.276,0-0.5-0.224-0.5-0.5s0.224-0.5,0.5-0.5s0.5,0.224,0.5,0.5
	S57.776,48,57.5,48z M57.5,17c-0.276,0-0.5-0.224-0.5-0.5s0.224-0.5,0.5-0.5s0.5,0.224,0.5,0.5S57.776,17,57.5,17z M17,25v8h30v-8
	H17z M21,32c-1.656,0-3-1.343-3-3s1.344-3,3-3s3,1.343,3,3S22.656,32,21,32z M38,31c0,0.553-0.447,1-1,1H27c-0.553,0-1-0.447-1-1v-4
	c0-0.553,0.447-1,1-1h10c0.553,0,1,0.447,1,1V31z M43,32c-1.656,0-3-1.343-3-3s1.344-3,3-3s3,1.343,3,3S44.656,32,43,32z"/>
</svg>
