<?xml version="1.0" encoding="utf-8"?>
<!-- Generator: Adobe Illustrator 16.0.0, SVG Export Plug-In . SVG Version: 6.00 Build 0)  -->
<!DOCTYPE svg PUBLIC "-//W3C//DTD SVG 1.1//EN" "http://www.w3.org/Graphics/SVG/1.1/DTD/svg11.dtd">
<svg version="1.1"
	 id="svg2" inkscape:export-filename="/home/kivutar/Bureau/lakka-menu/reload.png" inkscape:export-xdpi="90" inkscape:version="0.48.4 r9939" inkscape:export-ydpi="90" sodipodi:docname="reload.svg" xmlns:svg="http://www.w3.org/2000/svg" xmlns:cc="http://creativecommons.org/ns#" xmlns:sodipodi="http://sodipodi.sourceforge.net/DTD/sodipodi-0.dtd" xmlns:rdf="http://www.w3.org/1999/02/22-rdf-syntax-ns#" xmlns:dc="http://purl.org/dc/elements/1.1/" xmlns:inkscape="http://www.inkscape.org/namespaces/inkscape"
	 xmlns="http://www.w3.org/2000/svg" xmlns:xlink="http://www.w3.org/1999/xlink" x="0px" y="0px" width="64px" height="64px"
	 viewBox="0 128 64 64" enable-background="new 0 128 64 64" xml:space="preserve">
<path id="Neo_Geo_Pocket" fill="#F2F2F2" d="M55,139H9c-1,0-1,3.221-1,4c0,0.778,0.221,2,1,2v26c0,0.553,0.447,1,1,1
	c-0.553,0-1,0.447-1,1v7c0.037,0.52,0.472,1,1,1h44c0.553,0,1-0.447,1-1v-7c0-0.553-0.447-1-1-1c0.553,0,1-0.447,1-1v-26
	c0.779,0,1-1.222,1-2C56,142.221,56,139,55,139z M36,174l-4,4l-4-4H36z M51,167c0,0.553-0.447,1-1,1H14c-0.553,0-1-0.447-1-1v-17
	c0-0.553,0.447-1,1-1h36c0.553,0,1,0.447,1,1V167z M49,165c0,0.553-0.447,1-1,1H16c-0.553,0-1-0.447-1-1v-13c0-0.553,0.447-1,1-1h32
	c0.553,0,1,0.447,1,1V165z"/>
</svg>
