<?xml version="1.0" encoding="utf-8"?>
<!-- Generator: Adobe Illustrator 16.0.0, SVG Export Plug-In . SVG Version: 6.00 Build 0)  -->
<!DOCTYPE svg PUBLIC "-//W3C//DTD SVG 1.1//EN" "http://www.w3.org/Graphics/SVG/1.1/DTD/svg11.dtd">
<svg version="1.1"
	 id="svg2" inkscape:export-filename="/home/kivutar/Bureau/lakka-menu/reload.png" inkscape:export-xdpi="90" inkscape:version="0.48.4 r9939" inkscape:export-ydpi="90" sodipodi:docname="reload.svg" xmlns:svg="http://www.w3.org/2000/svg" xmlns:cc="http://creativecommons.org/ns#" xmlns:sodipodi="http://sodipodi.sourceforge.net/DTD/sodipodi-0.dtd" xmlns:rdf="http://www.w3.org/1999/02/22-rdf-syntax-ns#" xmlns:dc="http://purl.org/dc/elements/1.1/" xmlns:inkscape="http://www.inkscape.org/namespaces/inkscape"
	 xmlns="http://www.w3.org/2000/svg" xmlns:xlink="http://www.w3.org/1999/xlink" x="0px" y="0px" width="64px" height="64px"
	 viewBox="0 128 64 64" enable-background="new 0 128 64 64" xml:space="preserve">
<path id="Neo_Geo_Pocket_1_" fill="#F2F2F2" d="M57.896,144.362C57.139,143.551,44.569,143,32,143
	c-12.568,0-25.139,0.551-25.896,1.362C5.597,144.578,5,145.587,5,146v26c0,1.728,2.805,3.367,4.523,3.559
	C17.207,176.423,24.628,177,32,177c7.371,0,14.694-0.576,22.474-1.441C56.193,175.369,59,173.728,59,172v-26
	C59,145.587,58.4,144.578,57.896,144.362z M15,149c0.553,0,1,0.447,1,1s-0.447,1-1,1s-1-0.447-1-1S14.447,149,15,149z M9,149h2
	c0.553,0,1,0.447,1,1s-0.447,1-1,1H9c-0.553,0-1-0.447-1-1S8.447,149,9,149z M12.5,162c-2.485,0-4.5-2.015-4.5-4.5
	s2.015-4.5,4.5-4.5s4.5,2.015,4.5,4.5S14.985,162,12.5,162z M44,169c0,1-24,1-24,0v-21c0-0.479,0.525-1,1-1h22c0.476,0,1,0.521,1,1
	V169z M50,160c-1.104,0-2-0.896-2-2s0.896-2,2-2s2,0.896,2,2S51.104,160,50,160z M54,156c-1.104,0-2-0.896-2-2s0.896-2,2-2
	s2,0.896,2,2S55.104,156,54,156z M54.5,149c-0.829,0-1.5-0.671-1.5-1.5s0.671-1.5,1.5-1.5s1.5,0.671,1.5,1.5S55.329,149,54.5,149z
	 M12.5,155c-1.381,0-2.5,1.119-2.5,2.5s1.119,2.5,2.5,2.5s2.5-1.119,2.5-2.5S13.881,155,12.5,155z"/>
</svg>
