<?xml version="1.0" encoding="UTF-8" standalone="no"?>
<!-- Generator: Adobe Illustrator 16.0.0, SVG Export Plug-In . SVG Version: 6.00 Build 0)  -->

<svg
   xmlns:dc="http://purl.org/dc/elements/1.1/"
   xmlns:cc="http://creativecommons.org/ns#"
   xmlns:rdf="http://www.w3.org/1999/02/22-rdf-syntax-ns#"
   xmlns:svg="http://www.w3.org/2000/svg"
   xmlns="http://www.w3.org/2000/svg"
   xmlns:sodipodi="http://sodipodi.sourceforge.net/DTD/sodipodi-0.dtd"
   xmlns:inkscape="http://www.inkscape.org/namespaces/inkscape"
   version="1.1"
   id="svg2"
   inkscape:export-filename="/home/kivutar/Bureau/lakka-menu/reload.png"
   inkscape:export-xdpi="90"
   inkscape:version="0.48.4 r9939"
   inkscape:export-ydpi="90"
   sodipodi:docname="Sony - PlayStation Portable.svg"
   x="0px"
   y="0px"
   width="64px"
   height="64px"
   viewBox="0 128 64 64"
   enable-background="new 0 128 64 64"
   xml:space="preserve"><metadata
     id="metadata8"><rdf:RDF><cc:Work
         rdf:about=""><dc:format>image/svg+xml</dc:format><dc:type
           rdf:resource="http://purl.org/dc/dcmitype/StillImage" /></cc:Work></rdf:RDF></metadata><defs
     id="defs6" /><sodipodi:namedview
     pagecolor="#ffffff"
     bordercolor="#666666"
     borderopacity="1"
     objecttolerance="10"
     gridtolerance="10"
     guidetolerance="10"
     inkscape:pageopacity="0"
     inkscape:pageshadow="2"
     inkscape:window-width="1600"
     inkscape:window-height="851"
     id="namedview4"
     showgrid="false"
     inkscape:zoom="83.4386"
     inkscape:cx="9.1966451"
     inkscape:cy="30.341261"
     inkscape:window-x="0"
     inkscape:window-y="25"
     inkscape:window-maximized="1"
     inkscape:current-layer="svg2" /><path
     id="PSP_1_"
     d="M 58.089,147.659 C 57.207,146.741 55.889,146 53,146 l -42,0 c -2.889,0 -4.207,0.741 -5.089,1.659 C 2.84,150.853 1,155.221 1,160 c 0,4.779 1.84,9.147 4.911,12.341 C 6.793,173.259 8.111,174 11,174 l 42,0 c 2.889,0 4.207,-0.741 5.089,-1.659 C 61.16,169.147 63,164.779 63,160 c 0,-4.779 -1.84,-9.147 -4.911,-12.341 z M 8.5,166 c -0.828,0 -1.5,0.672 -1.5,1.5 0,0.828 0.672,1.5 1.5,1.5 0.828,0 1.5,-0.672 1.5,-1.5 0,-0.828 -0.672,-1.5 -1.5,-1.5 z m 48,-12 c 0.828,0 1.5,0.672 1.5,1.5 0,0.828 -0.672,1.5 -1.5,1.5 -0.828,0 -1.5,-0.672 -1.5,-1.5 0,-0.828 0.672,-1.5 1.5,-1.5 z M 6,155 c 0,-0.553 0.447,-1 1,-1 l 1,0 c 0.553,0 1,0.447 1,1 0,0 0,0 0,0.5 0,0.5 -0.08,0.58 -0.207,0.695 -0.161,0.146 -0.397,0.35 -0.639,0.516 C 7.918,156.873 7.727,157 7.5,157 7.273,157 7.082,156.873 6.845,156.711 6.606,156.546 6.369,156.344 6.208,156.197 6.081,156.081 6,156 6,155.5 6,155 6,155 6,155 z m 2.155,4.284 c 0.239,0.165 0.476,0.367 0.637,0.514 0.127,0.116 0.208,0.197 0.208,0.697 0,0.5 0,0.505 0,0.505 0,0.553 -0.447,1 -1,1 l -1,0 c -0.553,0 -1,-0.447 -1,-1 0,0 0,-0.005 0,-0.505 0,-0.5 0.08,-0.58 0.207,-0.695 0.161,-0.146 0.397,-0.35 0.639,-0.516 0.236,-0.162 0.427,-0.289 0.654,-0.289 0.227,0 0.418,0.127 0.655,0.289 z m -2.458,0.008 C 5.581,159.419 5.5,159.5 5,159.5 c -0.5,0 -0.5,0 -0.5,0 -0.553,0 -1,-0.447 -1,-1 l 0,-1 c 0,-0.553 0.447,-1 1,-1 0,0 0,0 0.5,0 0.5,0 0.58,0.08 0.695,0.207 0.146,0.161 0.35,0.397 0.516,0.639 0.162,0.236 0.289,0.427 0.289,0.654 0,0.227 -0.127,0.418 -0.289,0.655 -0.165,0.24 -0.367,0.476 -0.514,0.637 z M 8.5,170 C 7.119,170 6,168.881 6,167.5 6,166.119 7.119,165 8.5,165 c 1.381,0 2.5,1.119 2.5,2.5 0,1.381 -1.119,2.5 -2.5,2.5 z m 3,-11.5 c 0,0.553 -0.447,1 -1,1 0,0 0,0 -0.5,0 -0.5,0 -0.58,-0.08 -0.695,-0.207 -0.146,-0.161 -0.35,-0.397 -0.516,-0.639 C 8.627,158.418 8.5,158.227 8.5,158 c 0,-0.227 0.127,-0.418 0.289,-0.655 0.165,-0.239 0.367,-0.476 0.514,-0.637 C 9.419,156.581 9.5,156.5 10,156.5 c 0.5,0 0.5,0 0.5,0 0.553,0 1,0.447 1,1 z M 14,169 14,149 c 0,-0.553 0.447,-1 1,-1 l 34,0 c 0.553,0 1,0.447 1,1 l 0,20 c 0,0.553 -0.447,1 -1,1 l -34,0 c -0.553,0 -1,-0.447 -1,-1 z m 5.5,4 -1,0 c -0.276,0 -0.5,-0.224 -0.5,-0.5 0,-0.276 0.224,-0.5 0.5,-0.5 l 1,0 c 0.276,0 0.5,0.224 0.5,0.5 0,0.276 -0.224,0.5 -0.5,0.5 z m 4,0 -1,0 c -0.276,0 -0.5,-0.224 -0.5,-0.5 0,-0.276 0.224,-0.5 0.5,-0.5 l 1,0 c 0.276,0 0.5,0.224 0.5,0.5 0,0.276 -0.224,0.5 -0.5,0.5 z m 22,0 c -0.652,0 -1.201,-0.419 -1.408,-1 l 2.816,0 c -0.207,0.581 -0.756,1 -1.408,1 z m 4,0 c -0.652,0 -1.201,-0.419 -1.408,-1 l 2.816,0 c -0.207,0.581 -0.756,1 -1.408,1 z m 4,-13 c -0.828,0 -1.5,-0.672 -1.5,-1.5 0,-0.828 0.672,-1.5 1.5,-1.5 0.828,0 1.5,0.672 1.5,1.5 0,0.828 -0.672,1.5 -1.5,1.5 z m 3,3 c -0.828,0 -1.5,-0.672 -1.5,-1.5 0,-0.828 0.672,-1.5 1.5,-1.5 0.828,0 1.5,0.672 1.5,1.5 0,0.828 -0.672,1.5 -1.5,1.5 z m 3,-3 c -0.828,0 -1.5,-0.672 -1.5,-1.5 0,-0.828 0.672,-1.5 1.5,-1.5 0.828,0 1.5,0.672 1.5,1.5 0,0.828 -0.672,1.5 -1.5,1.5 z"
     inkscape:connector-curvature="0"
     style="fill:#f2f2f2"
     sodipodi:nodetypes="csscscsscscsssssssssscsscsccsccscccscsscsccsccscsscsccsccsssssscsccsccscssssssssssssssssssssssssssccssccssssssssssssssss" /></svg>