<?xml version="1.0" encoding="utf-8"?>
<!-- Generator: Adobe Illustrator 16.0.0, SVG Export Plug-In . SVG Version: 6.00 Build 0)  -->
<!DOCTYPE svg PUBLIC "-//W3C//DTD SVG 1.1//EN" "http://www.w3.org/Graphics/SVG/1.1/DTD/svg11.dtd">
<svg version="1.1"
	 id="svg2" inkscape:export-filename="/home/kivutar/Bureau/lakka-menu/reload.png" inkscape:export-xdpi="90" inkscape:version="0.48.4 r9939" inkscape:export-ydpi="90" sodipodi:docname="reload.svg" xmlns:svg="http://www.w3.org/2000/svg" xmlns:cc="http://creativecommons.org/ns#" xmlns:sodipodi="http://sodipodi.sourceforge.net/DTD/sodipodi-0.dtd" xmlns:rdf="http://www.w3.org/1999/02/22-rdf-syntax-ns#" xmlns:dc="http://purl.org/dc/elements/1.1/" xmlns:inkscape="http://www.inkscape.org/namespaces/inkscape"
	 xmlns="http://www.w3.org/2000/svg" xmlns:xlink="http://www.w3.org/1999/xlink" x="0px" y="0px" width="64px" height="64px"
	 viewBox="0 128 64 64" enable-background="new 0 128 64 64" xml:space="preserve">
<path id="Subsetting" fill="#F2F2F2" d="M40.151,160c0-0.664-0.081-1.309-0.232-1.926L42,157c-0.439-1.38-1.049-2.952-2-4
	l-2.375,1.105c-0.929-0.887-2.066-1.557-3.333-1.927l-0.169-1.951C33.438,150.08,32.729,150,32,150c-0.729,0-1.438,0.08-2.125,0.228
	l-0.168,1.951c-1.265,0.37-2.403,1.04-3.332,1.927L24,153c-0.952,1.048-1.56,2.62-2,4l2.081,1.074
	c-0.149,0.617-0.231,1.262-0.231,1.926s0.082,1.308,0.231,1.926L22,163c0.44,1.38,1.048,2.952,2,4l2.375-1.105
	c0.929,0.887,2.067,1.557,3.332,1.927l0.168,1.951C30.562,169.92,31.271,170,32,170c0.729,0,1.438-0.08,2.123-0.228l0.169-1.951
	c1.267-0.37,2.404-1.04,3.333-1.927L40,167c0.951-1.048,1.561-2.62,2-4l-2.081-1.074C40.07,161.308,40.151,160.664,40.151,160z
	 M32,163.995c-2.209,0-4-1.792-4-3.999c0-2.21,1.791-4.001,4-4.001s4,1.791,4,4.001C36,162.203,34.209,163.995,32,163.995z"/>
</svg>
