<?xml version="1.0" encoding="utf-8"?>
<!-- Generator: Adobe Illustrator 16.0.0, SVG Export Plug-In . SVG Version: 6.00 Build 0)  -->
<!DOCTYPE svg PUBLIC "-//W3C//DTD SVG 1.1//EN" "http://www.w3.org/Graphics/SVG/1.1/DTD/svg11.dtd">
<svg version="1.1" id="Calque_1" xmlns="http://www.w3.org/2000/svg" xmlns:xlink="http://www.w3.org/1999/xlink" x="0px" y="0px"
	 width="64px" height="64px" viewBox="0 0 64 64" enable-background="new 0 0 64 64" xml:space="preserve">
<path id="_x33_DO" fill="#F2F2F2" d="M58.446,24.601l0.003-0.007c-1.206-1.053-2.803-1.994-4.688-2.816l0.041-0.181
	c0.118-0.518-0.206-1.034-0.723-1.152l-9.384-2.148c-0.434-0.099-0.851,0.12-1.05,0.494C39.266,18.276,35.652,18,32,18
	s-7.267,0.276-10.646,0.79c-0.201-0.374-0.617-0.593-1.051-0.494l-9.384,2.148c-0.517,0.118-0.841,0.635-0.723,1.152l0.041,0.181
	c-1.885,0.822-3.48,1.765-4.687,2.816l0.003,0.007C2.783,26.799,1,30,1,34c0,6,5,12,12,12c2,0,4.418-0.801,5.383-1.286
	C23.027,43.105,26.387,42,32,42s8.973,1.105,13.617,2.714C46.582,45.199,49,46,51,46c7,0,12-6,12-12
	C63,30,61.217,26.799,58.446,24.601z M19,33h-2v2c0,0.553-0.447,1-1,1s-1-0.447-1-1v-2h-2c-0.553,0-1-0.447-1-1s0.447-1,1-1h2v-2
	c0-0.553,0.447-1,1-1s1,0.447,1,1v2h2c0.553,0,1,0.447,1,1S19.553,33,19,33z M28.5,32h-2c-0.276,0-0.5-0.224-0.5-0.5
	s0.224-0.5,0.5-0.5h2c0.276,0,0.5,0.224,0.5,0.5S28.776,32,28.5,32z M37.5,32h-2c-0.276,0-0.5-0.224-0.5-0.5s0.224-0.5,0.5-0.5h2
	c0.276,0,0.5,0.224,0.5,0.5S37.776,32,37.5,32z M45.5,39c-1.381,0-2.5-1.119-2.5-2.5s1.119-2.5,2.5-2.5s2.5,1.119,2.5,2.5
	S46.881,39,45.5,39z M49.5,34c-1.381,0-2.5-1.119-2.5-2.5s1.119-2.5,2.5-2.5s2.5,1.119,2.5,2.5S50.881,34,49.5,34z M55.5,32
	c-1.381,0-2.5-1.119-2.5-2.5s1.119-2.5,2.5-2.5s2.5,1.119,2.5,2.5S56.881,32,55.5,32z"/>
</svg>
