<?xml version="1.0" encoding="UTF-8" standalone="no"?>
<!-- Created with Inkscape (http://www.inkscape.org/) -->

<svg
   xmlns:dc="http://purl.org/dc/elements/1.1/"
   xmlns:cc="http://creativecommons.org/ns#"
   xmlns:rdf="http://www.w3.org/1999/02/22-rdf-syntax-ns#"
   xmlns:svg="http://www.w3.org/2000/svg"
   xmlns="http://www.w3.org/2000/svg"
   xmlns:sodipodi="http://sodipodi.sourceforge.net/DTD/sodipodi-0.dtd"
   xmlns:inkscape="http://www.inkscape.org/namespaces/inkscape"
   id="svg3161"
   version="1.1"
   inkscape:version="0.48.5 r10040"
   width="256"
   height="256"
   xml:space="preserve"
   sodipodi:docname="Tiger - Game.com.svg"
   inkscape:export-filename="/Volumes/Verbatim16/GitHub Projects/baxy-retroarch-themes/monochrome plus/contributions/svg/Tiger - Game.com.png"
   inkscape:export-xdpi="90.099998"
   inkscape:export-ydpi="90.099998"><metadata
     id="metadata3167"><rdf:RDF><cc:Work
         rdf:about=""><dc:format>image/svg+xml</dc:format><dc:type
           rdf:resource="http://purl.org/dc/dcmitype/StillImage" /><dc:title></dc:title></cc:Work></rdf:RDF></metadata><defs
     id="defs3165"><clipPath
       clipPathUnits="userSpaceOnUse"
       id="clipPath3175"><path
         d="M 0,256 256,256 256,0 0,0 0,256 z"
         id="path3177"
         inkscape:connector-curvature="0" /></clipPath></defs><sodipodi:namedview
     pagecolor="#ffffff"
     bordercolor="#666666"
     borderopacity="1"
     objecttolerance="10"
     gridtolerance="10"
     guidetolerance="10"
     inkscape:pageopacity="0"
     inkscape:pageshadow="2"
     inkscape:window-width="1676"
     inkscape:window-height="1005"
     id="namedview3163"
     showgrid="false"
     inkscape:zoom="2.61875"
     inkscape:cx="112.07637"
     inkscape:cy="160"
     inkscape:window-x="4"
     inkscape:window-y="1"
     inkscape:window-maximized="1"
     inkscape:current-layer="g3169" /><g
     id="g3169"
     inkscape:groupmode="layer"
     inkscape:label="Tiger - Game.com"
     transform="matrix(1.25,0,0,-1.25,0,256)"><g
       id="g3171"
       transform="matrix(0.82857143,0,0,0.82857143,-3.657143,-3.4874309)"><g
         id="g3173"
         clip-path="url(#clipPath3175)"><g
           id="g3179"
           transform="translate(230,108)"><path
             d="m 0,0 -8,0 c -1.1,0 -2,0.9 -2,2 0,1.1 0.9,2 2,2 L 0,4 C 1.1,4 2,3.1 2,2 2,0.9 1.1,0 0,0 m -19.297,22.299 c -1.306,3.046 0.106,6.574 3.151,7.879 3.046,1.305 6.574,-0.106 7.878,-3.152 1.306,-3.046 -0.105,-6.573 -3.151,-7.878 -3.046,-1.305 -6.573,0.105 -7.878,3.151 m 3.486,-22.287 -7.955,-0.847 c -1.093,-0.116 -2.084,0.684 -2.201,1.777 -0.116,1.094 0.684,2.084 1.778,2.201 l 7.955,0.845 c 1.093,0.117 2.084,-0.682 2.201,-1.776 0.116,-1.094 -0.684,-2.084 -1.778,-2.2 M -29.802,11.27 c -3.046,-1.306 -6.573,0.105 -7.878,3.151 -1.305,3.046 0.106,6.573 3.152,7.878 3.046,1.305 6.573,-0.105 7.878,-3.151 1.305,-3.045 -0.106,-6.573 -3.152,-7.878 m -1.862,-13.505 -7.813,-1.718 c -1.075,-0.236 -2.147,0.449 -2.383,1.523 -0.237,1.075 0.45,2.147 1.524,2.383 l 7.813,1.719 c 1.075,0.236 2.147,-0.449 2.383,-1.524 0.237,-1.075 -0.45,-2.147 -1.524,-2.383 M -38,68 c 2.209,0 4,-1.791 4,-4 0,-2.209 -1.791,-4 -4,-4 -2.209,0 -4,1.791 -4,4 0,2.209 1.791,4 4,4 m 8.323,-30.299 c 1.306,-3.046 -0.105,-6.574 -3.151,-7.879 -3.046,-1.305 -6.573,0.106 -7.878,3.152 -1.306,3.046 0.105,6.573 3.151,7.878 3.046,1.305 6.573,-0.105 7.878,-3.151 m 10.505,11.029 c 3.046,1.306 6.573,-0.105 7.878,-3.151 1.306,-3.046 -0.105,-6.573 -3.151,-7.878 -3.046,-1.305 -6.573,0.105 -7.878,3.151 -1.306,3.046 0.105,6.573 3.151,7.878 M -50,0 l -108,0 0,68 108,0 0,-68 z m -130,4 c -9.941,0 -18,8.059 -18,18 0,9.941 8.059,18 18,18 9.941,0 18,-8.059 18,-18 0,-9.941 -8.059,-18 -18,-18 m 178,76 -79.536,3.182 c -13.637,0.545 -27.291,0.545 -40.927,0 L -202,80 c -6.627,0 -12,-5.373 -12,-12 l 0,-72 24,0 28,-4 116,0 32,4 24,0 0,72 c 0,6.627 -5.373,12 -12,12"
             style="fill:#f2f2f2;fill-opacity:1;fill-rule:nonzero;stroke:none"
             id="path3181"
             inkscape:connector-curvature="0" /></g><g
           id="g3183"
           transform="translate(124,90)"><path
             d="m 0,0 -16,0 c -2.209,0 -4,-1.791 -4,-4 0,-2.209 1.791,-4 4,-4 l 16,0 c 2.209,0 4,1.791 4,4 0,2.209 -1.791,4 -4,4"
             style="fill:#f2f2f2;fill-opacity:1;fill-rule:nonzero;stroke:none"
             id="path3185"
             inkscape:connector-curvature="0" /></g><g
           id="g3187"
           transform="translate(200,85.8096)"><path
             d="M 0,0 C 0,-1.027 -0.778,-1.888 -1.801,-1.989 L -16,-3.409 -40,-5.81 l -60,0 -38.199,3.821 C -139.222,-1.888 -140,-1.027 -140,0 l 0,0.381 c 0,1.027 0.778,1.888 1.801,1.989 l 38.199,3.82 60,0 24,-2.4 14.199,-1.42 C -0.778,2.269 0,1.408 0,0.381 L 0,0 z m 36,14.19 -19.751,0 -31.753,-3.968 -0.247,-0.032 -0.249,0 -116,0 -0.284,0 -0.281,0.04 -27.719,3.96 -19.716,0 -4,0 0,-24 c 0,-6.627 5.373,-12 12,-12 l 200,0 c 6.627,0 12,5.373 12,12 l 0,24 -4,0 z"
             style="fill:#f2f2f2;fill-opacity:1;fill-rule:nonzero;stroke:none"
             id="path3189"
             inkscape:connector-curvature="0" /></g><path
           d="m 164,112 -76,0 0,60 76,0 0,-60 z"
           style="fill:#f2f2f2;fill-opacity:1;fill-rule:nonzero;stroke:none"
           id="path3191"
           inkscape:connector-curvature="0" /><g
           id="g3193"
           transform="translate(62,134)"><path
             d="m 0,0 -6,0 c -1.104,0 -2,0.896 -2,2 l 0,6 -8,0 0,-6 c 0,-1.104 -0.896,-2 -2,-2 l -6,0 0,-8 6,0 c 1.104,0 2,-0.896 2,-2 l 0,-6 8,0 0,6 c 0,1.104 0.896,2 2,2 l 6,0 0,8 z"
             style="fill:#f2f2f2;fill-opacity:1;fill-rule:nonzero;stroke:none"
             id="path3195"
             inkscape:connector-curvature="0" /></g></g></g></g></svg>