<?xml version="1.0" encoding="utf-8"?>
<!-- Generator: Adobe Illustrator 16.0.0, SVG Export Plug-In . SVG Version: 6.00 Build 0)  -->
<!DOCTYPE svg PUBLIC "-//W3C//DTD SVG 1.1//EN" "http://www.w3.org/Graphics/SVG/1.1/DTD/svg11.dtd">
<svg version="1.1"
	 id="svg2" inkscape:export-filename="/home/kivutar/Bureau/lakka-menu/reload.png" inkscape:export-xdpi="90" inkscape:version="0.48.4 r9939" inkscape:export-ydpi="90" sodipodi:docname="reload.svg" xmlns:svg="http://www.w3.org/2000/svg" xmlns:cc="http://creativecommons.org/ns#" xmlns:sodipodi="http://sodipodi.sourceforge.net/DTD/sodipodi-0.dtd" xmlns:rdf="http://www.w3.org/1999/02/22-rdf-syntax-ns#" xmlns:dc="http://purl.org/dc/elements/1.1/" xmlns:inkscape="http://www.inkscape.org/namespaces/inkscape"
	 xmlns="http://www.w3.org/2000/svg" xmlns:xlink="http://www.w3.org/1999/xlink" x="0px" y="0px" width="64px" height="64px"
	 viewBox="0 128 64 64" enable-background="new 0 128 64 64" xml:space="preserve">
<path id="CD" fill="#F2F2F2" d="M32,136c-13.256,0-24,10.745-24,24s10.744,24,24,24c13.252,0,24-10.745,24-24S45.252,136,32,136z
	 M32,169.001c-4.964,0-9.001-4.038-9.001-9.001s4.037-9.001,9.001-9.001c4.963,0,9,4.038,9,9.001S36.963,169.001,32,169.001z
	 M32,167.001c-3.86,0-7.001-3.143-7.001-7.001s3.141-7.001,7.001-7.001c3.856,0,7,3.143,7,7.001S35.856,167.001,32,167.001z
	 M32,156.998c-1.654,0-3.002,1.346-3.002,3.002c0,1.655,1.348,3,3.002,3c1.655,0,3-1.345,3-3C35,158.344,33.655,156.998,32,156.998z
	"/>
</svg>
