<?xml version="1.0" encoding="UTF-8" standalone="no"?>
<!-- Generator: Adobe Illustrator 16.0.0, SVG Export Plug-In . SVG Version: 6.00 Build 0)  -->

<svg
   xmlns:dc="http://purl.org/dc/elements/1.1/"
   xmlns:cc="http://creativecommons.org/ns#"
   xmlns:rdf="http://www.w3.org/1999/02/22-rdf-syntax-ns#"
   xmlns:svg="http://www.w3.org/2000/svg"
   xmlns="http://www.w3.org/2000/svg"
   xmlns:sodipodi="http://sodipodi.sourceforge.net/DTD/sodipodi-0.dtd"
   xmlns:inkscape="http://www.inkscape.org/namespaces/inkscape"
   version="1.1"
   id="Calque_1"
   x="0px"
   y="0px"
   width="64px"
   height="64px"
   viewBox="0 0 64 64"
   enable-background="new 0 0 64 64"
   xml:space="preserve"
   inkscape:version="0.48.5 r10040"
   sodipodi:docname="achievement_list.svg"
   inkscape:export-filename="/home/kivutar/libretro-super/retroarch/media/assets/xmb/monochrome/png/achievement-list.png"
   inkscape:export-xdpi="360"
   inkscape:export-ydpi="360"><metadata
     id="metadata8"><rdf:RDF><cc:Work
         rdf:about=""><dc:format>image/svg+xml</dc:format><dc:type
           rdf:resource="http://purl.org/dc/dcmitype/StillImage" /><dc:title></dc:title></cc:Work></rdf:RDF></metadata><defs
     id="defs6" /><sodipodi:namedview
     pagecolor="#ffffff"
     bordercolor="#666666"
     borderopacity="1"
     objecttolerance="10"
     gridtolerance="10"
     guidetolerance="10"
     inkscape:pageopacity="0"
     inkscape:pageshadow="2"
     inkscape:window-width="1440"
     inkscape:window-height="836"
     id="namedview4"
     showgrid="true"
     inkscape:zoom="14.75"
     inkscape:cx="40.43584"
     inkscape:cy="30.210587"
     inkscape:window-x="0"
     inkscape:window-y="27"
     inkscape:window-maximized="1"
     inkscape:current-layer="Calque_1"><inkscape:grid
       type="xygrid"
       id="grid2985" /></sodipodi:namedview><path
     id="core_cheat_options"
     d="m 32,21 c -6.075,0 -11,4.925 -11,11 0,6.075 4.925,11 11,11 6.075,0 11,-4.925 11,-11 0,-6.075 -4.925,-11 -11,-11 z m 0,20 c -4.971,0 -9,-4.029 -9,-9 0,-4.971 4.029,-9 9,-9 4.971,0 9,4.029 9,9 0,4.971 -4.029,9 -9,9 z m 0,-14 c -1,0 -3,0 -4,0 0,2 1,7 4,7 3,0 4,-5 4,-7 -1,0 -3,0 -4,0 z m -2,12 4,0 c -1,-1 -1.5,-3 -1.5,-5 -0.5,-1 -0.5,-1 -1,0 0,2 -0.5,4 -1.5,5 z"
     inkscape:connector-curvature="0"
     style="fill:#f2f2f2"
     sodipodi:nodetypes="sssssssssscccccccccc" /><path
     style="fill:none;stroke:#f2f2f2;stroke-width:1px;stroke-linecap:round;stroke-linejoin:miter;stroke-opacity:1"
     d="m 26,27.5 12,0 c 0,1.5 -1,3.5 -3,4 l -6,0 C 27,31 26,29 26,27.5 z"
     id="path2987"
     inkscape:connector-curvature="0"
     sodipodi:nodetypes="ccccc" /><path
     sodipodi:type="arc"
     style="fill:#f2f2f2;fill-opacity:1;stroke:none"
     id="path3757"
     sodipodi:cx="32"
     sodipodi:cy="35"
     sodipodi:rx="1"
     sodipodi:ry="1"
     d="m 33,35 a 1,1 0 1 1 -2,0 1,1 0 1 1 2,0 z" /></svg>