<?xml version="1.0" encoding="UTF-8" standalone="no"?>
<!-- Generator: Adobe Illustrator 16.0.0, SVG Export Plug-In . SVG Version: 6.00 Build 0)  -->

<svg
   xmlns:dc="http://purl.org/dc/elements/1.1/"
   xmlns:cc="http://creativecommons.org/ns#"
   xmlns:rdf="http://www.w3.org/1999/02/22-rdf-syntax-ns#"
   xmlns:svg="http://www.w3.org/2000/svg"
   xmlns="http://www.w3.org/2000/svg"
   xmlns:sodipodi="http://sodipodi.sourceforge.net/DTD/sodipodi-0.dtd"
   xmlns:inkscape="http://www.inkscape.org/namespaces/inkscape"
   version="1.1"
   id="Calque_1"
   x="0px"
   y="0px"
   width="64px"
   height="64px"
   viewBox="0 0 64 64"
   enable-background="new 0 0 64 64"
   xml:space="preserve"
   sodipodi:docname="add-favorite.svg"
   inkscape:version="0.92.1 r"><metadata
     id="metadata8"><rdf:RDF><cc:Work
         rdf:about=""><dc:format>image/svg+xml</dc:format><dc:type
           rdf:resource="http://purl.org/dc/dcmitype/StillImage" /></cc:Work></rdf:RDF></metadata><defs
     id="defs6" /><sodipodi:namedview
     pagecolor="#ffffff"
     bordercolor="#666666"
     borderopacity="1"
     objecttolerance="10"
     gridtolerance="10"
     guidetolerance="10"
     inkscape:pageopacity="0"
     inkscape:pageshadow="2"
     inkscape:window-width="1440"
     inkscape:window-height="815"
     id="namedview4"
     showgrid="true"
     inkscape:zoom="20.85965"
     inkscape:cx="30.667403"
     inkscape:cy="34.038206"
     inkscape:window-x="0"
     inkscape:window-y="0"
     inkscape:window-maximized="1"
     inkscape:current-layer="Calque_1"><inkscape:grid
       type="xygrid"
       id="grid10" /></sodipodi:namedview><path
     id="core_cheat_options"
     d="m 32,21 c -6.075,0 -11,4.925 -11,11 0,6.075 4.925,11 11,11 6.075,0 11,-4.925 11,-11 0,-6.075 -4.925,-11 -11,-11 z m 0,20 c -4.971,0 -9,-4.029 -9,-9 0,-4.971 4.029,-9 9,-9 4.971,0 9,4.029 9,9 0,4.971 -4.029,9 -9,9 z"
     inkscape:connector-curvature="0"
     style="fill:#f2f2f2"
     sodipodi:nodetypes="ssssssssss" /><path
     sodipodi:type="star"
     style="opacity:1;fill:#f2f2f2;fill-opacity:1;stroke:none;stroke-width:2.52247882;stroke-linecap:square;stroke-linejoin:miter;stroke-miterlimit:4;stroke-dasharray:none;stroke-opacity:1"
     id="path3719"
     sodipodi:sides="5"
     sodipodi:cx="31.986921"
     sodipodi:cy="32.48843"
     sodipodi:r1="6.3061967"
     sodipodi:r2="2.8377886"
     sodipodi:arg1="0.95054684"
     sodipodi:arg2="1.5788654"
     inkscape:flatsided="false"
     inkscape:rounded="0"
     inkscape:randomized="0"
     d="m 35.652324,37.619993 -3.688301,-2.293867 -3.724837,2.234049 1.04185,-4.216626 -3.275745,-2.852171 4.332199,-0.312152 1.700316,-3.996787 1.635596,4.023706 L 38,30.588165 34.678655,33.387104 Z"
     inkscape:transform-center-x="-0.020290308"
     inkscape:transform-center-y="-0.75771046" /></svg>