<?xml version="1.0" encoding="UTF-8" standalone="no"?>
<!-- Created with Inkscape (http://www.inkscape.org/) -->

<svg
   xmlns:dc="http://purl.org/dc/elements/1.1/"
   xmlns:cc="http://creativecommons.org/ns#"
   xmlns:rdf="http://www.w3.org/1999/02/22-rdf-syntax-ns#"
   xmlns:svg="http://www.w3.org/2000/svg"
   xmlns="http://www.w3.org/2000/svg"
   xmlns:sodipodi="http://sodipodi.sourceforge.net/DTD/sodipodi-0.dtd"
   xmlns:inkscape="http://www.inkscape.org/namespaces/inkscape"
   id="svg3004"
   version="1.1"
   inkscape:version="0.48.5 r10040"
   width="64"
   height="64"
   xml:space="preserve"
   sodipodi:docname="Amstrad - CPC.svg"
   inkscape:export-filename="/Users/margetts/Desktop/Icon Workshop/Monochrome Plus June/png/Amstrad - CPC.png"
   inkscape:export-xdpi="360"
   inkscape:export-ydpi="360"><metadata
     id="metadata3010"><rdf:RDF><cc:Work
         rdf:about=""><dc:format>image/svg+xml</dc:format><dc:type
           rdf:resource="http://purl.org/dc/dcmitype/StillImage" /><dc:title></dc:title></cc:Work></rdf:RDF></metadata><defs
     id="defs3008"><clipPath
       clipPathUnits="userSpaceOnUse"
       id="clipPath3022"><path
         d="M 0,64 64,64 64,0 0,0 0,64 z"
         id="path3024"
         inkscape:connector-curvature="0" /></clipPath></defs><sodipodi:namedview
     pagecolor="#ffffff"
     bordercolor="#666666"
     borderopacity="1"
     objecttolerance="10"
     gridtolerance="10"
     guidetolerance="10"
     inkscape:pageopacity="0"
     inkscape:pageshadow="2"
     inkscape:window-width="1676"
     inkscape:window-height="1005"
     id="namedview3006"
     showgrid="false"
     inkscape:zoom="3.8"
     inkscape:cx="6.9736842"
     inkscape:cy="18.947368"
     inkscape:window-x="4"
     inkscape:window-y="1"
     inkscape:window-maximized="1"
     inkscape:current-layer="g3012" /><g
     id="g3012"
     inkscape:groupmode="layer"
     inkscape:label="Amstrad - CPC"
     transform="matrix(1.25,0,0,-1.25,0,64)"><g
       id="g3032"
       transform="translate(-1,-4.8)"><g
         transform="matrix(0.8,0,0,0.8,46.6,27.2)"
         id="g3014"><path
           inkscape:connector-curvature="0"
           id="path3016"
           style="fill:#f2f2f2;fill-opacity:1;fill-rule:nonzero;stroke:none"
           d="m 0,0 -1,0 -9,0 -1,0 0,1 0,1 0,2 0,3 0,1 1,0 9,0 1,0 0,-8 z m 0,-3 -2,0 0,2 2,0 0,-2 z m -3,0 -2,0 0,2 2,0 0,-2 z m -3,0 -2,0 0,2 2,0 0,-2 z m -3,0 -2,0 0,2 2,0 0,-2 z m -3,3 -2,0 0,2 2,0 0,-2 z m 0,-3 -2,0 0,2 2,0 0,-2 z m -3,7 -2,0 0,2 -2,0 0,2 2,0 0,2 2,0 0,-2 2,0 0,-2 -2,0 0,-2 z m 0,-4 -2,0 0,2 2,0 0,-2 z m 0,-3 -2,0 0,2 2,0 0,-2 z m -3,3 -2,0 0,2 2,0 0,-2 z m 0,-3 -2,0 0,2 2,0 0,-2 z m -3,9 -2,0 0,2 2,0 0,-2 z m -1,-6 -2,0 0,3 -2,0 0,2 3,0 1,0 0,-5 z m -4,8 2,0 0,-2 -2,0 0,2 z m 1,-8 -3,0 0,2 3,0 0,-2 z m -1,-3 -2,0 0,2 2,0 0,-2 z m -3,8 2,0 0,-2 -2,0 0,2 z m 0,-5 -2,0 0,2 2,0 0,-2 z m 0,-3 -16,0 0,2 16,0 0,-2 z m -17,5 2,0 0,-2 -2,0 0,2 z m -1,3 2,0 0,-2 -2,0 0,2 z m 0,-5 -3,0 0,2 3,0 0,-2 z m -3,5 2,0 0,-2 -2,0 0,2 z m 0,3 2,0 0,-2 -2,0 0,2 z m 3,0 2,0 0,-2 -2,0 0,2 z m 3,-3 2,0 0,-2 -2,0 0,2 z m 3,-5 -2,0 0,2 2,0 0,-2 z m -3,8 2,0 0,-2 -2,0 0,2 z m 3,-3 2,0 0,-2 -2,0 0,2 z m 3,-5 -2,0 0,2 2,0 0,-2 z m -3,8 2,0 0,-2 -2,0 0,2 z m 3,-3 2,0 0,-2 -2,0 0,2 z m 3,-5 -2,0 0,2 2,0 0,-2 z m -3,8 2,0 0,-2 -2,0 0,2 z m 3,-3 2,0 0,-2 -2,0 0,2 z m 3,-5 -2,0 0,2 2,0 0,-2 z m -3,8 2,0 0,-2 -2,0 0,2 z m 3,-3 2,0 0,-2 -2,0 0,2 z m 0,3 2,0 0,-2 -2,0 0,2 z m 3,0 2,0 0,-2 -2,0 0,2 z m -23,-12 54,0 0,16 -54,0 0,-16 z" /></g><g
         transform="matrix(0.8,0,0,0.8,1,4.8)"
         id="g3018"><g
           clip-path="url(#clipPath3022)"
           id="g3020"><g
             transform="translate(54.5,33)"
             id="g3026"><path
               inkscape:connector-curvature="0"
               id="path3028"
               style="fill:#f2f2f2;fill-opacity:1;fill-rule:nonzero;stroke:none"
               d="M 0,0 C -0.276,0 -0.5,0.224 -0.5,0.5 -0.5,0.776 -0.276,1 0,1 0.276,1 0.5,0.776 0.5,0.5 0.5,0.224 0.276,0 0,0 m -1.5,0 -3,0 0,1 3,0 0,-1 z M -6,0 C -6.276,0 -6.5,0.224 -6.5,0.5 -6.5,0.776 -6.276,1 -6,1 -5.724,1 -5.5,0.776 -5.5,0.5 -5.5,0.224 -5.724,0 -6,0 m -1.5,-1 9,0 0,3 -9,0 0,-3 z" /></g><path
             inkscape:connector-curvature="0"
             id="path3030"
             style="fill:#f2f2f2;fill-opacity:1;fill-rule:nonzero;stroke:none"
             d="m 47,29 9,0 0,1 -9,0 0,-1 z" /></g></g></g></g></svg>