<?xml version="1.0" encoding="UTF-8" standalone="no"?>
<!-- Created with Inkscape (http://www.inkscape.org/) -->

<svg
   xmlns:dc="http://purl.org/dc/elements/1.1/"
   xmlns:cc="http://creativecommons.org/ns#"
   xmlns:rdf="http://www.w3.org/1999/02/22-rdf-syntax-ns#"
   xmlns:svg="http://www.w3.org/2000/svg"
   xmlns="http://www.w3.org/2000/svg"
   xmlns:sodipodi="http://sodipodi.sourceforge.net/DTD/sodipodi-0.dtd"
   xmlns:inkscape="http://www.inkscape.org/namespaces/inkscape"
   id="svg3079"
   version="1.1"
   inkscape:version="0.48.5 r10040"
   width="64"
   height="64"
   xml:space="preserve"
   sodipodi:docname="Atari - ST.svg"
   inkscape:export-filename="/Users/margetts/Desktop/Icon Workshop/Monochrome Plus June/png/Atari - ST.png"
   inkscape:export-xdpi="360"
   inkscape:export-ydpi="360"><metadata
     id="metadata3085"><rdf:RDF><cc:Work
         rdf:about=""><dc:format>image/svg+xml</dc:format><dc:type
           rdf:resource="http://purl.org/dc/dcmitype/StillImage" /><dc:title></dc:title></cc:Work></rdf:RDF></metadata><defs
     id="defs3083" /><sodipodi:namedview
     pagecolor="#ffffff"
     bordercolor="#666666"
     borderopacity="1"
     objecttolerance="10"
     gridtolerance="10"
     guidetolerance="10"
     inkscape:pageopacity="0"
     inkscape:pageshadow="2"
     inkscape:window-width="1676"
     inkscape:window-height="1005"
     id="namedview3081"
     showgrid="false"
     inkscape:zoom="3.8"
     inkscape:cx="6.9736842"
     inkscape:cy="40"
     inkscape:window-x="4"
     inkscape:window-y="1"
     inkscape:window-maximized="1"
     inkscape:current-layer="g3087" /><g
     id="g3087"
     inkscape:groupmode="layer"
     inkscape:label="Atari - ST"
     transform="matrix(1.25,0,0,-1.25,0,64)"><g
       id="g3097"
       transform="matrix(0.8,0,0,0.8,0,0.4)"><path
         id="path3089"
         style="fill:#f2f2f2;fill-opacity:1;fill-rule:nonzero;stroke:none"
         d="m 59,37 -54,0 0,-4.069 54,0 0,4.069 z"
         inkscape:connector-curvature="0" /><g
         transform="translate(54,44)"
         id="g3091"><path
           id="path3093"
           style="fill:#f2f2f2;fill-opacity:1;fill-rule:nonzero;stroke:none"
           d="m 0,0 -5,-5 -1,0 5,5 -1,0 -5,-5 -1,0 5,5 -1,0 -5,-5 -1,0 5,5 -1,0 -5,-5 -1,0 5,5 -1,0 -5,-5 -1,0 5,5 -1,0 -5,-5 -1,0 5,5 -1,0 -5,-5 -1,0 5,5 -1,0 -5,-5 -1,0 5,5 -1,0 -5,-5 -1,0 5,5 -1,0 -5,-5 -1,0 5,5 -1,0 -5,-5 -1,0 5,5 -1,0 -5,-5 -1,0 5,5 -1,0 -5,-5 -1,0 5,5 -1,0 -5,-5 -1,0 5,5 -1,0 -5,-5 -1,0 5,5 -1,0 -5,-5 -1,0 5,5 -1,0 -5,-5 -1,0 5,5 -1,0 -5,-5 -1,0 5,5 -1,0 -5,-5 -1,0 5,5 -1,0 -5,-5 -1,0 5,5 -1,0 -5,-5 -1,0 5,5 -8,0 0,-6 54,0 0,6 -5,0 z"
           inkscape:connector-curvature="0" /></g><path
         id="path3095"
         style="fill:#f2f2f2;fill-opacity:1;fill-rule:nonzero;stroke:none"
         d="m 58,29 -2,0 0,2 2,0 0,-2 z m 0,-3 -2,0 0,2 2,0 0,-2 z m 0,-6 -2,0 0,5 2,0 0,-5 z m -3,9 -2,0 0,2 2,0 0,-2 z m 0,-3 -2,0 0,2 2,0 0,-2 z m 0,-3 -2,0 0,2 2,0 0,-2 z m 0,-3 -2,0 0,2 2,0 0,-2 z m -3,9 -2,0 0,2 2,0 0,-2 z m 0,-3 -2,0 0,2 2,0 0,-2 z m 0,-3 -2,0 0,2 2,0 0,-2 z m 0,-3 -2,0 0,2 2,0 0,-2 z m -3,9 -2,0 0,2 2,0 0,-2 z m 0,-3 -2,0 0,2 2,0 0,-2 z m 0,-3 -2,0 0,2 2,0 0,-2 z m 0,-3 -2,0 0,2 2,0 0,-2 z m -3,9 -3,0 0,2 3,0 0,-2 z m 0,-3 -2,0 0,2 2,0 0,-2 z m 0,-3 -2,0 0,2 2,0 0,-2 z m -3,3 -2,0 0,2 2,0 0,-2 z m 0,-3 -2,0 0,2 2,0 0,-2 z m -3,3 -2,0 0,2 2,0 0,-2 z m 0,-3 -2,0 0,2 2,0 0,-2 z m -4,6 -3,0 0,2 3,0 0,-2 z m 0,-4 0,-2 -2,0 -2,0 0,2 2,0 0,3 2,0 0,-3 z m -2,-5 -4,0 0,2 4,0 0,-2 z m -5,5 2,0 0,-2 -2,0 0,2 z m 0,-5 -19,0 0,2 19,0 0,-2 z m -20,0 -3,0 0,2 3,0 0,-2 z m -3,5 4,0 0,-2 -4,0 0,2 z m 0,3 3,0 0,-2 -3,0 0,2 z m 0,3 2,0 0,-2 -2,0 0,2 z m 3,0 2,0 0,-2 -2,0 0,2 z m 3,-5 -2,0 0,2 2,0 0,-2 z m 1,-3 -2,0 0,2 2,0 0,-2 z m -1,8 2,0 0,-2 -2,0 0,2 z m 3,-5 -2,0 0,2 2,0 0,-2 z m 1,-3 -2,0 0,2 2,0 0,-2 z m -1,8 2,0 0,-2 -2,0 0,2 z m 3,-5 -2,0 0,2 2,0 0,-2 z m 1,-3 -2,0 0,2 2,0 0,-2 z m -1,8 2,0 0,-2 -2,0 0,2 z m 3,-5 -2,0 0,2 2,0 0,-2 z m 1,-3 -2,0 0,2 2,0 0,-2 z m -1,8 2,0 0,-2 -2,0 0,2 z m 3,-5 -2,0 0,2 2,0 0,-2 z m 1,-3 -2,0 0,2 2,0 0,-2 z m -1,8 2,0 0,-2 -2,0 0,2 z m 3,-5 -2,0 0,2 2,0 0,-2 z m 1,-3 -2,0 0,2 2,0 0,-2 z m 2,3 -2,0 0,2 2,0 0,-2 z m -3,5 2,0 0,-2 -2,0 0,2 z m 6,-5 -2,0 0,2 2,0 0,-2 z m -3,5 2,0 0,-2 -2,0 0,2 z m 8,0 3,0 0,-2 -3,0 0,2 z M 8.164,32 5,32 5,19 59,19 59,32 8.164,32 z"
         inkscape:connector-curvature="0" /></g></g></svg>