<?xml version="1.0" encoding="utf-8"?>
<!-- Generator: Adobe Illustrator 16.0.0, SVG Export Plug-In . SVG Version: 6.00 Build 0)  -->
<!DOCTYPE svg PUBLIC "-//W3C//DTD SVG 1.1//EN" "http://www.w3.org/Graphics/SVG/1.1/DTD/svg11.dtd">
<svg version="1.1"
	 id="svg2" inkscape:export-filename="/home/kivutar/Bureau/lakka-menu/reload.png" inkscape:export-xdpi="90" inkscape:version="0.48.4 r9939" inkscape:export-ydpi="90" sodipodi:docname="reload.svg" xmlns:svg="http://www.w3.org/2000/svg" xmlns:cc="http://creativecommons.org/ns#" xmlns:sodipodi="http://sodipodi.sourceforge.net/DTD/sodipodi-0.dtd" xmlns:rdf="http://www.w3.org/1999/02/22-rdf-syntax-ns#" xmlns:dc="http://purl.org/dc/elements/1.1/" xmlns:inkscape="http://www.inkscape.org/namespaces/inkscape"
	 xmlns="http://www.w3.org/2000/svg" xmlns:xlink="http://www.w3.org/1999/xlink" x="0px" y="0px" width="64px" height="64px"
	 viewBox="0 128 64 64" enable-background="new 0 128 64 64" xml:space="preserve">
<path id="Atari_Lynx" fill="#F2F2F2" d="M60.178,147.914C59.882,147.246,59.017,146,56,146c-2.09,0-4.679,0-6,0
	c-0.586,0-1.576,0.108-2.194,0.331l-1.162,0.388C46.116,146.893,45.349,147,45,147H19c-0.348,0-1.116-0.107-1.644-0.281
	l-1.711-0.427C15.027,146.069,13.585,146,13,146c-1.322,0-2.911,0-5,0c-3.016,0-3.882,1.246-4.179,1.914
	C1.939,152.159,1,156.08,1,160s0.939,7.841,2.821,12.086C4.118,172.754,4.984,174,8,174c2.089,0,4.678,0,6,0
	c0.585,0,1.597-0.114,2.215-0.337l1.142-0.38C17.884,173.107,18.652,173,19,173h26c0.349,0,1.116,0.107,1.644,0.283l1.011,0.336
	C48.272,173.842,49.414,174,50,174c1.321,0,3.91,0,6,0c3.017,0,3.882-1.246,4.178-1.914C62.061,167.841,63,163.92,63,160
	S62.061,152.159,60.178,147.914z M13,161c0,0.553-0.447,1-1,1h-2v2c0,0.553-0.447,1-1,1H8c-0.553,0-1-0.447-1-1v-2H5
	c-0.553,0-1-0.447-1-1v-1c0-0.553,0.447-1,1-1h2v-2c0-0.553,0.447-1,1-1h1c0.553,0,1,0.447,1,1v2h2c0.553,0,1,0.447,1,1V161z
	 M16.885,154.506c0.015-0.101,0.107-0.171,0.208-0.157l0.575,0.083c0.101,0.014,0.17,0.106,0.155,0.206l-0.333,2.361
	c-0.014,0.101-0.106,0.17-0.207,0.155l-0.575-0.081c-0.102-0.014-0.171-0.106-0.156-0.207L16.885,154.506z M16.42,161.156v-2.385
	c0-0.102,0.08-0.185,0.183-0.185h0.581c0.101,0,0.183,0.083,0.183,0.185v2.385c0,0.101-0.082,0.183-0.183,0.183h-0.581
	C16.5,161.339,16.42,161.257,16.42,161.156z M17.681,165.568l-0.575,0.083c-0.1,0.014-0.191-0.057-0.206-0.156l-0.341-2.361
	c-0.014-0.1,0.056-0.191,0.156-0.206l0.575-0.084c0.1-0.014,0.193,0.056,0.208,0.157l0.34,2.358
	C17.851,165.461,17.781,165.553,17.681,165.568z M41,166H23v-12h18V166z M46.331,154.432l0.575-0.083
	c0.101-0.014,0.193,0.057,0.207,0.157l0.335,2.36c0.013,0.101-0.058,0.193-0.157,0.207l-0.575,0.081
	c-0.1,0.015-0.191-0.055-0.206-0.155l-0.334-2.361C46.161,154.538,46.231,154.445,46.331,154.432z M47.101,165.495
	c-0.015,0.1-0.108,0.17-0.209,0.156l-0.573-0.083c-0.102-0.016-0.17-0.107-0.156-0.209l0.339-2.358
	c0.016-0.102,0.108-0.171,0.208-0.157l0.575,0.084c0.099,0.015,0.17,0.106,0.155,0.206L47.101,165.495z M47.581,161.156
	c0,0.101-0.081,0.183-0.184,0.183h-0.581c-0.101,0-0.183-0.082-0.183-0.183v-2.385c0-0.102,0.082-0.185,0.183-0.185h0.581
	c0.103,0,0.184,0.083,0.184,0.185V161.156z M50,171c-1.104,0-2-0.896-2-2s0.896-2,2-2s2,0.896,2,2S51.104,171,50,171z M50,153
	c-1.104,0-2-0.896-2-2s0.896-2,2-2s2,0.896,2,2S51.104,153,50,153z M56,172c-1.104,0-2-0.896-2-2s0.896-2,2-2s2,0.896,2,2
	S57.104,172,56,172z M56,152c-1.104,0-2-0.896-2-2s0.896-2,2-2s2,0.896,2,2S57.104,152,56,152z"/>
</svg>
