<?xml version="1.0" encoding="UTF-8" standalone="no"?>
<!-- Created with Inkscape (http://www.inkscape.org/) -->

<svg
   xmlns:dc="http://purl.org/dc/elements/1.1/"
   xmlns:cc="http://creativecommons.org/ns#"
   xmlns:rdf="http://www.w3.org/1999/02/22-rdf-syntax-ns#"
   xmlns:svg="http://www.w3.org/2000/svg"
   xmlns="http://www.w3.org/2000/svg"
   xmlns:sodipodi="http://sodipodi.sourceforge.net/DTD/sodipodi-0.dtd"
   xmlns:inkscape="http://www.inkscape.org/namespaces/inkscape"
   id="svg3142"
   version="1.1"
   inkscape:version="0.48.5 r10040"
   width="64"
   height="64"
   xml:space="preserve"
   sodipodi:docname="Bally - Astrocade-content.svg"
   inkscape:export-filename="/Users/margetts/Desktop/Icon Workshop/Monochrome Plus June/png/Bally - Astrocade-content.png"
   inkscape:export-xdpi="360"
   inkscape:export-ydpi="360"><metadata
     id="metadata3148"><rdf:RDF><cc:Work
         rdf:about=""><dc:format>image/svg+xml</dc:format><dc:type
           rdf:resource="http://purl.org/dc/dcmitype/StillImage" /><dc:title></dc:title></cc:Work></rdf:RDF></metadata><defs
     id="defs3146"><clipPath
       clipPathUnits="userSpaceOnUse"
       id="clipPath3156"><path
         d="M 0,64 64,64 64,0 0,0 0,64 z"
         id="path3158"
         inkscape:connector-curvature="0" /></clipPath></defs><sodipodi:namedview
     pagecolor="#ffffff"
     bordercolor="#666666"
     borderopacity="1"
     objecttolerance="10"
     gridtolerance="10"
     guidetolerance="10"
     inkscape:pageopacity="0"
     inkscape:pageshadow="2"
     inkscape:window-width="1636"
     inkscape:window-height="1009"
     id="namedview3144"
     showgrid="false"
     inkscape:zoom="10.4125"
     inkscape:cx="27.947179"
     inkscape:cy="40"
     inkscape:window-x="4"
     inkscape:window-y="1"
     inkscape:window-maximized="1"
     inkscape:current-layer="g3150" /><g
     id="g3150"
     inkscape:groupmode="layer"
     inkscape:label="Bally - Astrocade-content"
     transform="matrix(1.25,0,0,-1.25,0,64)"><g
       id="g3152"
       transform="scale(0.8,0.8)"><g
         id="g3154"
         clip-path="url(#clipPath3156)"><g
           id="g3160"
           transform="translate(55,22)"><path
             d="m 0,0 c 0,-0.553 -0.447,-1 -1,-1 l -44,0 c -0.552,0 -1,0.447 -1,1 l 0,18 c 0,0.552 0.448,1 1,1 l 44,0 c 0.553,0 1,-0.448 1,-1 L 0,0 z m 3,26 -52,0 c -0.552,0 -1,-0.448 -1,-1 l 0,-30 c 0,-0.553 0.448,-1 1,-1 l 52,0 c 0.553,0 1,0.447 1,1 l 0,30 c 0,0.552 -0.447,1 -1,1"
             style="fill:#f2f2f2;fill-opacity:1;fill-rule:nonzero;stroke:none"
             id="path3162"
             inkscape:connector-curvature="0" /></g><g
           id="g3164"
           transform="translate(53,22)"><path
             d="m 0,0 -42,0 c -0.552,0 -1,0.447 -1,1 l 0,16 c 0,0.552 0.448,1 1,1 l 42,0 c 0.553,0 1,-0.448 1,-1 L 1,1 C 1,0.447 0.553,0 0,0"
             style="fill:#f2f2f2;fill-opacity:1;fill-rule:nonzero;stroke:none"
             id="path3166"
             inkscape:connector-curvature="0" /></g></g></g></g></svg>