<?xml version="1.0" encoding="UTF-8" standalone="no"?>
<!-- Created with Inkscape (http://www.inkscape.org/) -->

<svg
   xmlns:dc="http://purl.org/dc/elements/1.1/"
   xmlns:cc="http://creativecommons.org/ns#"
   xmlns:rdf="http://www.w3.org/1999/02/22-rdf-syntax-ns#"
   xmlns:svg="http://www.w3.org/2000/svg"
   xmlns="http://www.w3.org/2000/svg"
   xmlns:sodipodi="http://sodipodi.sourceforge.net/DTD/sodipodi-0.dtd"
   xmlns:inkscape="http://www.inkscape.org/namespaces/inkscape"
   id="svg3141"
   version="1.1"
   inkscape:version="0.48.5 r10040"
   width="64"
   height="64"
   xml:space="preserve"
   sodipodi:docname="Bandai - WonderSwan.svg"
   inkscape:export-filename="/Users/margetts/Desktop/Icon Workshop/Monochrome Plus June/png/Bandai - WonderSwan.png"
   inkscape:export-xdpi="360"
   inkscape:export-ydpi="360"><metadata
     id="metadata3147"><rdf:RDF><cc:Work
         rdf:about=""><dc:format>image/svg+xml</dc:format><dc:type
           rdf:resource="http://purl.org/dc/dcmitype/StillImage" /><dc:title></dc:title></cc:Work></rdf:RDF></metadata><defs
     id="defs3145"><clipPath
       clipPathUnits="userSpaceOnUse"
       id="clipPath3155"><path
         d="M 0,64 64,64 64,0 0,0 0,64 z"
         id="path3157"
         inkscape:connector-curvature="0" /></clipPath></defs><sodipodi:namedview
     pagecolor="#ffffff"
     bordercolor="#666666"
     borderopacity="1"
     objecttolerance="10"
     gridtolerance="10"
     guidetolerance="10"
     inkscape:pageopacity="0"
     inkscape:pageshadow="2"
     inkscape:window-width="1676"
     inkscape:window-height="1005"
     id="namedview3143"
     showgrid="false"
     inkscape:zoom="3.8"
     inkscape:cx="6.9736842"
     inkscape:cy="40"
     inkscape:window-x="4"
     inkscape:window-y="1"
     inkscape:window-maximized="1"
     inkscape:current-layer="g3149" /><g
     id="g3149"
     inkscape:groupmode="layer"
     inkscape:label="Bandai - WonderSwan"
     transform="matrix(1.25,0,0,-1.25,0,64)"><g
       id="g3151"
       transform="matrix(0.80000544,0,0,0.80000544,-1.6090547e-4,-9.3310266e-5)"><g
         id="g3153"
         clip-path="url(#clipPath3155)"><g
           id="g3159"
           transform="translate(56.2188,23.1729)"><path
             d="m 0,0 c -0.075,-0.055 -0.162,-0.081 -0.25,-0.081 -0.1,0 -0.199,0.035 -0.279,0.105 l -1.697,1.485 c -0.092,0.08 -0.144,0.196 -0.144,0.319 0,0.122 0.052,0.238 0.144,0.318 l 1.697,1.486 C -0.404,3.743 -0.227,3.767 -0.076,3.7 0.447,3.465 0.701,2.735 0.764,2.131 0.858,1.213 0.573,0.416 0,0 m -1.391,-1.392 c -0.364,-0.5 -1.017,-0.781 -1.788,-0.781 -0.112,0 -0.227,0.006 -0.343,0.018 -0.605,0.062 -1.333,0.316 -1.568,0.84 -0.068,0.151 -0.042,0.328 0.068,0.453 l 1.484,1.696 c 0.161,0.185 0.477,0.185 0.639,0 l 1.484,-1.696 c 0.13,-0.15 0.14,-0.368 0.024,-0.53 m -4.796,1.311 c -0.059,0 -0.119,0.012 -0.174,0.037 -0.524,0.235 -0.778,0.965 -0.84,1.568 -0.095,0.918 0.19,1.716 0.764,2.132 0.16,0.116 0.379,0.107 0.529,-0.024 l 1.696,-1.486 c 0.093,-0.08 0.145,-0.196 0.145,-0.318 0,-0.123 -0.052,-0.239 -0.145,-0.319 L -5.908,0.024 c -0.079,-0.07 -0.179,-0.105 -0.279,-0.105 m 1.097,5.052 c 0.235,0.524 0.963,0.777 1.568,0.841 0.917,0.087 1.714,-0.192 2.131,-0.765 0.116,-0.16 0.106,-0.379 -0.024,-0.528 L -2.899,2.821 C -2.98,2.729 -3.097,2.677 -3.219,2.677 c -0.122,0 -0.238,0.052 -0.319,0.144 L -5.022,4.519 C -5.132,4.643 -5.158,4.82 -5.09,4.971 m -5.129,-3.144 -25,0 0,16 25,0 0,-16 z m -16.643,-5 -1.714,0 c -0.355,0 -0.643,0.224 -0.643,0.5 0,0.277 0.288,0.5 0.643,0.5 l 1.714,0 c 0.355,0 0.643,-0.223 0.643,-0.5 0,-0.276 -0.288,-0.5 -0.643,-0.5 m -5,0 -1.714,0 c -0.355,0 -0.643,0.224 -0.643,0.5 0,0.277 0.288,0.5 0.643,0.5 l 1.714,0 c 0.355,0 0.643,-0.223 0.643,-0.5 0,-0.276 -0.288,-0.5 -0.643,-0.5 M -41,15 c -0.075,-0.055 -0.163,-0.081 -0.25,-0.081 -0.1,0 -0.199,0.035 -0.279,0.105 l -1.697,1.485 c -0.092,0.08 -0.145,0.196 -0.145,0.319 0,0.123 0.053,0.238 0.145,0.319 l 1.697,1.485 c 0.124,0.111 0.302,0.135 0.453,0.068 0.523,-0.236 0.777,-0.965 0.839,-1.569 C -40.142,16.213 -40.427,15.416 -41,15 m 0,-15 c -0.075,-0.055 -0.163,-0.081 -0.25,-0.081 -0.1,0 -0.199,0.035 -0.279,0.105 l -1.697,1.485 c -0.092,0.08 -0.145,0.196 -0.145,0.319 0,0.122 0.053,0.238 0.145,0.318 l 1.697,1.486 c 0.124,0.111 0.302,0.135 0.453,0.068 0.523,-0.235 0.777,-0.965 0.839,-1.569 C -40.142,1.213 -40.427,0.416 -41,0 m -1.391,-1.392 c -0.363,-0.5 -1.017,-0.781 -1.788,-0.781 -0.112,0 -0.227,0.006 -0.343,0.018 -0.604,0.062 -1.333,0.316 -1.568,0.84 -0.068,0.151 -0.041,0.328 0.068,0.453 l 1.484,1.696 c 0.162,0.185 0.477,0.185 0.639,0 l 1.484,-1.696 c 0.13,-0.15 0.14,-0.368 0.024,-0.53 m -4.797,1.311 c -0.059,0 -0.118,0.012 -0.173,0.037 -0.524,0.235 -0.777,0.965 -0.84,1.568 -0.095,0.918 0.191,1.716 0.764,2.132 0.16,0.116 0.379,0.107 0.528,-0.024 l 1.697,-1.486 c 0.092,-0.08 0.145,-0.196 0.145,-0.318 0,-0.123 -0.053,-0.239 -0.145,-0.319 l -1.697,-1.485 c -0.078,-0.07 -0.178,-0.105 -0.279,-0.105 m -0.249,18.737 c 0.16,0.117 0.379,0.107 0.528,-0.024 l 1.697,-1.485 c 0.092,-0.081 0.145,-0.196 0.145,-0.319 0,-0.123 -0.053,-0.239 -0.145,-0.319 l -1.697,-1.485 c -0.078,-0.07 -0.178,-0.105 -0.279,-0.105 -0.059,0 -0.118,0.012 -0.173,0.037 -0.524,0.235 -0.777,0.964 -0.84,1.568 -0.095,0.919 0.191,1.716 0.764,2.132 m 5.022,-14.137 -1.484,-1.698 c -0.081,-0.092 -0.198,-0.144 -0.32,-0.144 -0.122,0 -0.239,0.052 -0.319,0.144 l -1.484,1.698 c -0.109,0.124 -0.136,0.301 -0.068,0.452 0.235,0.524 0.964,0.777 1.568,0.841 0.917,0.087 1.714,-0.192 2.131,-0.765 0.116,-0.16 0.106,-0.379 -0.024,-0.528 m 0.024,9.089 c -0.363,-0.5 -1.017,-0.781 -1.788,-0.781 -0.112,0 -0.227,0.006 -0.343,0.018 -0.604,0.063 -1.333,0.316 -1.568,0.84 -0.068,0.15 -0.041,0.328 0.068,0.452 l 1.484,1.697 c 0.162,0.185 0.477,0.185 0.639,0 l 1.484,-1.697 c 0.13,-0.149 0.14,-0.367 0.024,-0.529 m -3.699,6.363 c 0.235,0.524 0.964,0.777 1.568,0.841 0.917,0.087 1.714,-0.192 2.131,-0.765 0.116,-0.16 0.106,-0.379 -0.024,-0.528 l -1.484,-1.698 c -0.081,-0.092 -0.198,-0.145 -0.32,-0.145 -0.122,0 -0.239,0.053 -0.319,0.145 l -1.484,1.698 c -0.109,0.124 -0.136,0.301 -0.068,0.452 m 44.444,3.349 c -2.223,0.354 -4.476,0.507 -6.73,0.507 l -29.939,0 c -2.306,0 -4.617,-0.075 -6.904,-0.362 -1.512,-0.189 -2.971,-0.666 -4.311,-2.129 -2.708,-2.954 -1.744,-20.758 0,-24.079 0.113,-0.216 0.229,-0.423 0.349,-0.621 0.844,-1.395 2.44,-2.219 4.13,-2.219 l 7.628,0 c 1.507,0 3.009,-0.05 4.511,-0.157 2.033,-0.145 5.96,-0.35 12.615,-0.433 0.558,0 8.068,-0.002 10.531,0.123 1.92,0.139 4.03,0.385 6.444,0.817 4.701,0.838 5.97,2.322 6.103,4.151 l 0,20.758 c -0.075,2.622 -1.509,3.179 -4.427,3.644"
             style="fill:#f2f2f2;fill-opacity:1;fill-rule:nonzero;stroke:none"
             id="path3161"
             inkscape:connector-curvature="0" /></g></g></g></g></svg>