<?xml version="1.0" encoding="utf-8"?>
<!-- Generator: Adobe Illustrator 16.0.0, SVG Export Plug-In . SVG Version: 6.00 Build 0)  -->
<!DOCTYPE svg PUBLIC "-//W3C//DTD SVG 1.1//EN" "http://www.w3.org/Graphics/SVG/1.1/DTD/svg11.dtd">
<svg version="1.1"
	 id="svg2" inkscape:export-filename="/home/kivutar/Bureau/lakka-menu/reload.png" inkscape:export-xdpi="90" inkscape:version="0.48.4 r9939" inkscape:export-ydpi="90" sodipodi:docname="reload.svg" xmlns:svg="http://www.w3.org/2000/svg" xmlns:cc="http://creativecommons.org/ns#" xmlns:sodipodi="http://sodipodi.sourceforge.net/DTD/sodipodi-0.dtd" xmlns:rdf="http://www.w3.org/1999/02/22-rdf-syntax-ns#" xmlns:dc="http://purl.org/dc/elements/1.1/" xmlns:inkscape="http://www.inkscape.org/namespaces/inkscape"
	 xmlns="http://www.w3.org/2000/svg" xmlns:xlink="http://www.w3.org/1999/xlink" x="0px" y="0px" width="64px" height="64px"
	 viewBox="0 128 64 64" enable-background="new 0 128 64 64" xml:space="preserve">
<path id="Wonderswan_1_" fill="#F2F2F2" d="M51.898,143.906C49.419,143.493,47.795,143,46,143c-5.385,0-9.233,2-14,2
	c-4.773,0-7.333-2-12-2c-1.795,0-3.447,0.458-5.238,0.906c-3.155,0.585-6.342-0.397-9.059,2.718C4.55,147.944,4,151.333,4,156
	c0,6.462,0.634,14.753,1.703,16.891C6.835,175.158,9.018,177.024,11,177c5.798,0,8,0,10,0c3,0,5-1,9-1c6,0,6.18,1,13,1
	c3.23,0,6.248-0.555,10.711-1.392C58.596,174.693,60,173,60,171v-22C60,145,57.334,144.812,51.898,143.906z M9.14,148.703
	c0.281-0.63,1.25-0.915,2.031-0.915c0.835,0,1.533,0.304,1.918,0.834c0.124,0.17,0.113,0.405-0.025,0.564l-1.585,1.812
	c-0.086,0.099-0.21,0.154-0.34,0.154c-0.131,0-0.256-0.056-0.342-0.154l-1.586-1.812C9.096,149.053,9.067,148.864,9.14,148.703z
	 M13.089,155.494c-0.385,0.53-1.083,0.834-1.918,0.834c-0.781,0-1.75-0.285-2.031-0.915c-0.072-0.16-0.044-0.349,0.071-0.483
	l1.586-1.812c0.086-0.098,0.211-0.154,0.342-0.154c0.13,0,0.254,0.057,0.34,0.154l1.585,1.812
	C13.202,155.089,13.213,155.324,13.089,155.494z M13.063,165.49l-1.585,1.812c-0.086,0.099-0.21,0.154-0.34,0.154
	c-0.131,0-0.256-0.056-0.342-0.154l-1.586-1.812c-0.115-0.133-0.144-0.321-0.071-0.482c0.281-0.629,1.25-0.916,2.031-0.916
	c0.835,0,1.533,0.305,1.919,0.834C13.213,165.098,13.202,165.332,13.063,165.49z M7.7,150.106c0.172-0.123,0.406-0.114,0.564,0.026
	l1.812,1.584c0.099,0.086,0.155,0.211,0.155,0.342s-0.057,0.254-0.155,0.34l-1.812,1.585c-0.084,0.075-0.189,0.112-0.298,0.112
	c-0.062,0-0.126-0.013-0.185-0.039c-0.559-0.251-0.83-1.028-0.896-1.673C6.784,151.401,7.088,150.551,7.7,150.106z M7.967,170.401
	c-0.062,0-0.126-0.014-0.185-0.04c-0.56-0.252-0.83-1.029-0.896-1.673c-0.102-0.981,0.203-1.832,0.814-2.278
	c0.172-0.123,0.406-0.113,0.564,0.027l1.812,1.585c0.099,0.086,0.155,0.209,0.155,0.34s-0.057,0.256-0.155,0.342l-1.812,1.585
	C8.181,170.362,8.075,170.401,7.967,170.401z M13.089,171.799c-0.385,0.529-1.083,0.834-1.918,0.834
	c-0.781,0-1.75-0.286-2.031-0.916c-0.072-0.16-0.044-0.349,0.072-0.482l1.585-1.811c0.086-0.099,0.211-0.156,0.342-0.156
	c0.13,0,0.254,0.058,0.34,0.156l1.585,1.811C13.202,171.393,13.213,171.629,13.089,171.799z M14.574,170.314
	c-0.079,0.058-0.173,0.087-0.267,0.087c-0.105,0-0.213-0.039-0.298-0.112l-1.812-1.585c-0.099-0.086-0.154-0.211-0.154-0.342
	s0.056-0.254,0.154-0.34l1.812-1.585c0.133-0.117,0.322-0.146,0.483-0.074c0.56,0.252,0.829,1.031,0.896,1.675
	C15.491,169.019,15.188,169.869,14.574,170.314z M14.574,154.01c-0.079,0.058-0.173,0.086-0.267,0.086
	c-0.105,0-0.213-0.037-0.298-0.112l-1.812-1.585c-0.099-0.086-0.154-0.209-0.154-0.34s0.056-0.256,0.154-0.342l1.812-1.584
	c0.133-0.117,0.322-0.145,0.483-0.073c0.559,0.249,0.829,1.027,0.896,1.673C15.492,152.713,15.188,153.564,14.574,154.01z M24.5,173
	h-2c-0.276,0-0.5-0.224-0.5-0.5s0.224-0.5,0.5-0.5h2c0.276,0,0.5,0.224,0.5,0.5S24.776,173,24.5,173z M29.5,173h-2
	c-0.276,0-0.5-0.224-0.5-0.5s0.224-0.5,0.5-0.5h2c0.276,0,0.5,0.224,0.5,0.5S29.776,173,29.5,173z M33.5,173.25
	c-0.828,0-1.5-0.336-1.5-0.75s0.672-0.75,1.5-0.75s1.5,0.336,1.5,0.75S34.328,173.25,33.5,173.25z M46,168H21v-16h25V168z
	 M55.662,170.895c-0.386,0.529-1.084,0.834-1.918,0.834c-0.781-0.002-1.75-0.287-2.032-0.916c-0.072-0.162-0.044-0.351,0.073-0.482
	l1.585-1.812c0.086-0.101,0.21-0.156,0.341-0.156c0.13,0,0.255,0.058,0.34,0.156l1.586,1.812
	C55.775,170.488,55.787,170.723,55.662,170.895z M57.146,169.408c-0.079,0.058-0.173,0.088-0.266,0.088
	c-0.106,0-0.213-0.039-0.299-0.112l-1.811-1.586c-0.098-0.086-0.155-0.21-0.155-0.342c0-0.13,0.058-0.254,0.155-0.339l1.811-1.586
	c0.134-0.117,0.322-0.146,0.484-0.073c0.559,0.252,0.83,1.03,0.896,1.676C58.064,168.114,57.759,168.964,57.146,169.408z"/>
</svg>
