<?xml version="1.0" encoding="utf-8"?>
<!-- Generator: Adobe Illustrator 16.0.0, SVG Export Plug-In . SVG Version: 6.00 Build 0)  -->
<!DOCTYPE svg PUBLIC "-//W3C//DTD SVG 1.1//EN" "http://www.w3.org/Graphics/SVG/1.1/DTD/svg11.dtd">
<svg version="1.1"
	 id="svg2" inkscape:export-filename="/home/kivutar/Bureau/lakka-menu/reload.png" inkscape:export-xdpi="90" inkscape:version="0.48.4 r9939" inkscape:export-ydpi="90" sodipodi:docname="reload.svg" xmlns:svg="http://www.w3.org/2000/svg" xmlns:cc="http://creativecommons.org/ns#" xmlns:sodipodi="http://sodipodi.sourceforge.net/DTD/sodipodi-0.dtd" xmlns:rdf="http://www.w3.org/1999/02/22-rdf-syntax-ns#" xmlns:dc="http://purl.org/dc/elements/1.1/" xmlns:inkscape="http://www.inkscape.org/namespaces/inkscape"
	 xmlns="http://www.w3.org/2000/svg" xmlns:xlink="http://www.w3.org/1999/xlink" x="0px" y="0px" width="64px" height="64px"
	 viewBox="0 128 64 64" enable-background="new 0 128 64 64" xml:space="preserve">
<path id="Wonderswan" fill="#F2F2F2" d="M57,143H7c-0.553,0-1,0.447-1,1v22c0,0.553,0.447,1,1,1v3c0,0.553,0.447,1,1,1v2.277
	c-0.596,0.347-1,0.984-1,1.723c0,1.104,0.896,2,2,2h46c1.104,0,2-0.896,2-2c0-0.738-0.404-1.376-1-1.723V171c0.553,0,1-0.447,1-1v-3
	c0.553,0,1-0.447,1-1v-22C58,143.447,57.553,143,57,143z M19,145h26c0.553,0,1,0.447,1,1s-0.447,1-1,1H19c-0.553,0-1-0.447-1-1
	S18.447,145,19,145z M55,170h-2v5h-1v-5h-1v4h-1v-4h-1v4h-1v-4h-1v4h-1v-4h-1v4h-1v-4h-1v4h-1v-4h-1v4h-1v-4h-1v4h-1v-4h-1v4h-1v-4
	h-1v5h-1v-5h-1v5h-1v-5h-1v4h-1v-4h-1v4h-1v-4h-1v4h-1v-4h-1v4h-1v-4h-1v4h-1v-4h-1v4h-1v-4h-1v4h-1v-4h-1v4h-1v-4h-1v4h-1v-4h-1v4
	h-1v-4h-1v5h-1v-5H9v-1h46V170z M56,166c0,0.553-0.447,1-1,1H9c-0.553,0-1-0.447-1-1v-16c0-0.553,0.447-1,1-1h46
	c0.553,0,1,0.447,1,1V166z M53,151H11c-0.553,0-1,0.447-1,1v12c0,0.553,0.447,1,1,1h42c0.553,0,1-0.447,1-1v-12
	C54,151.447,53.553,151,53,151z"/>
</svg>
