<?xml version="1.0" encoding="UTF-8" standalone="no"?>
<!-- Created with Inkscape (http://www.inkscape.org/) -->

<svg
   xmlns:dc="http://purl.org/dc/elements/1.1/"
   xmlns:cc="http://creativecommons.org/ns#"
   xmlns:rdf="http://www.w3.org/1999/02/22-rdf-syntax-ns#"
   xmlns:svg="http://www.w3.org/2000/svg"
   xmlns="http://www.w3.org/2000/svg"
   xmlns:sodipodi="http://sodipodi.sourceforge.net/DTD/sodipodi-0.dtd"
   xmlns:inkscape="http://www.inkscape.org/namespaces/inkscape"
   id="svg3957"
   version="1.1"
   inkscape:version="0.48.5 r10040"
   width="64"
   height="64"
   xml:space="preserve"
   sodipodi:docname="Benesse - Pocket Challenge V2-content.svg"
   inkscape:export-filename="/Users/margetts/Desktop/Icon Workshop/Monochrome Plus June/png/Benesse - Pocket Challenge V2-content.png"
   inkscape:export-xdpi="360"
   inkscape:export-ydpi="360"><metadata
     id="metadata3963"><rdf:RDF><cc:Work
         rdf:about=""><dc:format>image/svg+xml</dc:format><dc:type
           rdf:resource="http://purl.org/dc/dcmitype/StillImage" /><dc:title></dc:title></cc:Work></rdf:RDF></metadata><defs
     id="defs3961"><clipPath
       clipPathUnits="userSpaceOnUse"
       id="clipPath3971"><path
         d="M 0,64 64,64 64,0 0,0 0,64 z"
         id="path3973"
         inkscape:connector-curvature="0" /></clipPath></defs><sodipodi:namedview
     pagecolor="#ffffff"
     bordercolor="#666666"
     borderopacity="1"
     objecttolerance="10"
     gridtolerance="10"
     guidetolerance="10"
     inkscape:pageopacity="0"
     inkscape:pageshadow="2"
     inkscape:window-width="1676"
     inkscape:window-height="1005"
     id="namedview3959"
     showgrid="false"
     inkscape:zoom="10.4125"
     inkscape:cx="27.947179"
     inkscape:cy="40"
     inkscape:window-x="4"
     inkscape:window-y="1"
     inkscape:window-maximized="1"
     inkscape:current-layer="g3965" /><g
     id="g3965"
     inkscape:groupmode="layer"
     inkscape:label="Benesse - Pocket Challenge V2-content"
     transform="matrix(1.25,0,0,-1.25,0,64)"><g
       id="g3967"
       transform="scale(0.8,0.8)"><g
         id="g3969"
         clip-path="url(#clipPath3971)"><path
           d="m 57,16 -2,0 0,4 2,0 0,-4 z m -26,0 0,4 1,0 0,-3 1,0 0,3 1,0 0,-3 1,0 0,3 1,0 0,-3 1,0 0,3 1,0 0,-3 1,0 0,3 1,0 0,-3 1,0 0,3 1,0 0,-3 1,0 0,3 1,0 0,-3 1,0 0,3 1,0 0,-3 1,0 0,3 1,0 0,-3 1,0 0,3 1,0 0,-3 1,0 0,3 1,0 0,-3 1,0 0,3 1,0 0,-4 -23,0 z m -2,4 1,0 0,-4 -1,0 0,4 z m -22,-4 0,4 1,0 0,-3 1,0 0,3 1,0 0,-3 1,0 0,3 1,0 0,-3 1,0 0,3 1,0 0,-3 1,0 0,3 1,0 0,-3 1,0 0,3 1,0 0,-3 1,0 0,3 1,0 0,-3 1,0 0,3 1,0 0,-3 1,0 0,3 1,0 0,-3 1,0 0,3 1,0 0,-3 1,0 0,3 1,0 0,-4 -21,0 z m 4,24 c 0,0.552 0.448,1 1,1 l 40,0 c 0.553,0 1,-0.448 1,-1 l 0,-15 c 0,-0.553 -0.447,-1 -1,-1 l -40,0 c -0.552,0 -1,0.447 -1,1 l 0,15 z m 10.5,3 21,0 C 42.775,43 43,42.775 43,42.5 43,42.225 42.775,42 42.5,42 l -21,0 c -0.275,0 -0.5,0.225 -0.5,0.5 0,0.275 0.225,0.5 0.5,0.5 m 0,2 21,0 C 42.775,45 43,44.775 43,44.5 43,44.225 42.775,44 42.5,44 l -21,0 c -0.275,0 -0.5,0.225 -0.5,0.5 0,0.275 0.225,0.5 0.5,0.5 m 0,2 21,0 C 42.775,47 43,46.775 43,46.5 43,46.225 42.775,46 42.5,46 l -21,0 c -0.275,0 -0.5,0.225 -0.5,0.5 0,0.275 0.225,0.5 0.5,0.5 M 58.069,49 5.931,49 C 5.417,49 5,48.582 5,48.066 L 5,15 59,15 59,48.066 C 59,48.582 58.583,49 58.069,49"
           style="fill:#f2f2f2;fill-opacity:1;fill-rule:nonzero;stroke:none"
           id="path3975"
           inkscape:connector-curvature="0" /><g
           id="g3977"
           transform="translate(51,25)"><path
             d="m 0,0 -38,0 c -0.552,0 -1,0.447 -1,1 l 0,13 c 0,0.552 0.448,1 1,1 l 38,0 c 0.553,0 1,-0.448 1,-1 L 1,1 C 1,0.447 0.553,0 0,0"
             style="fill:#f2f2f2;fill-opacity:1;fill-rule:nonzero;stroke:none"
             id="path3979"
             inkscape:connector-curvature="0" /></g></g></g></g></svg>