<?xml version="1.0" encoding="UTF-8" standalone="no"?>
<!-- Created with Inkscape (http://www.inkscape.org/) -->

<svg
   xmlns:dc="http://purl.org/dc/elements/1.1/"
   xmlns:cc="http://creativecommons.org/ns#"
   xmlns:rdf="http://www.w3.org/1999/02/22-rdf-syntax-ns#"
   xmlns:svg="http://www.w3.org/2000/svg"
   xmlns="http://www.w3.org/2000/svg"
   xmlns:sodipodi="http://sodipodi.sourceforge.net/DTD/sodipodi-0.dtd"
   xmlns:inkscape="http://www.inkscape.org/namespaces/inkscape"
   id="svg3206"
   version="1.1"
   inkscape:version="0.48.5 r10040"
   width="64"
   height="64"
   xml:space="preserve"
   sodipodi:docname="Benesse - Pocket Challenge V2.svg"
   inkscape:export-filename="/Users/margetts/Desktop/Icon Workshop/Monochrome Plus June/png/Benesse - Pocket Challenge V2.png"
   inkscape:export-xdpi="360"
   inkscape:export-ydpi="360"><metadata
     id="metadata3212"><rdf:RDF><cc:Work
         rdf:about=""><dc:format>image/svg+xml</dc:format><dc:type
           rdf:resource="http://purl.org/dc/dcmitype/StillImage" /><dc:title></dc:title></cc:Work></rdf:RDF></metadata><defs
     id="defs3210"><clipPath
       clipPathUnits="userSpaceOnUse"
       id="clipPath3220"><path
         d="M 0,64 64,64 64,0 0,0 0,64 z"
         id="path3222"
         inkscape:connector-curvature="0" /></clipPath></defs><sodipodi:namedview
     pagecolor="#ffffff"
     bordercolor="#666666"
     borderopacity="1"
     objecttolerance="10"
     gridtolerance="10"
     guidetolerance="10"
     inkscape:pageopacity="0"
     inkscape:pageshadow="2"
     inkscape:window-width="1676"
     inkscape:window-height="1005"
     id="namedview3208"
     showgrid="false"
     inkscape:zoom="10.4125"
     inkscape:cx="27.947179"
     inkscape:cy="40"
     inkscape:window-x="4"
     inkscape:window-y="1"
     inkscape:window-maximized="1"
     inkscape:current-layer="g3214" /><g
     id="g3214"
     inkscape:groupmode="layer"
     inkscape:label="Benesse - Pocket Challenge V2"
     transform="matrix(1.25,0,0,-1.25,0,64)"><g
       id="g3216"
       transform="matrix(0.8000133,0,0,0.8000133,-7.8369354e-4,4.7441496e-4)"><g
         id="g3218"
         clip-path="url(#clipPath3220)"><g
           id="g3224"
           transform="translate(55.9395,30)"><path
             d="m 0,0 c -0.247,1.129 -1.245,1.975 -2.439,1.975 -0.151,0 -0.297,-0.016 -0.44,-0.041 -0.039,0.176 -0.06,0.358 -0.06,0.545 0,1.393 1.119,2.521 2.5,2.521 1.38,0 2.5,-1.128 2.5,-2.521 C 2.061,1.239 1.171,0.21 0,0 m -3.571,-4 c -1.381,0 -2.5,1.119 -2.5,2.5 0,1.381 1.119,2.5 2.5,2.5 1.381,0 2.5,-1.119 2.5,-2.5 0,-1.381 -1.119,-2.5 -2.5,-2.5 m -2.868,-4 c -1.381,0 -2.5,1.129 -2.5,2.521 0,1.241 0.889,2.269 2.06,2.479 0.247,-1.13 1.245,-1.976 2.44,-1.976 0.15,0 0.296,0.017 0.439,0.042 0.039,-0.175 0.061,-0.358 0.061,-0.545 0,-1.392 -1.12,-2.521 -2.5,-2.521 m -6.011,2.367 -8.375,-0.69 c -2.072,-0.171 -4.156,-0.171 -6.229,0 l -8.375,0.69 c -1.521,0 -2.773,1.198 -2.839,2.719 l -0.7,16.105 c -0.071,1.617 1.221,2.966 2.839,2.966 l 24.379,0 c 1.618,0 2.91,-1.349 2.84,-2.966 l -0.7,-16.105 c -0.067,-1.521 -1.319,-2.719 -2.84,-2.719 m -27.99,4.245 c 0,-0.02 -0.002,-0.041 -0.003,-0.061 -0.038,-1.068 -0.827,-1.92 -1.796,-1.92 -0.444,0 -0.849,0.179 -1.162,0.474 -0.34,0.322 -0.757,0.526 -1.203,0.526 l -0.671,0 c -0.446,0 -0.863,-0.204 -1.203,-0.526 -0.313,-0.295 -0.718,-0.474 -1.162,-0.474 -0.969,0 -1.758,0.852 -1.796,1.92 -10e-4,0.02 -0.002,0.041 -0.002,0.061 0,0.006 -10e-4,0.012 -10e-4,0.019 0,0.035 0.002,0.069 0.004,0.104 0.001,0.015 0.001,0.03 0.002,0.044 0.069,1.035 0.845,1.852 1.793,1.852 0.444,0 0.849,-0.18 1.162,-0.476 0.34,-0.321 0.757,-0.524 1.203,-0.524 l 0.671,0 c 0.446,0 0.863,0.203 1.203,0.524 0.313,0.296 0.718,0.476 1.162,0.476 0.948,0 1.724,-0.817 1.793,-1.852 10e-4,-0.014 10e-4,-0.029 0.002,-0.044 0.002,-0.035 0.005,-0.069 0.005,-0.104 0,-0.007 -10e-4,-0.013 -10e-4,-0.019 m -4.499,-5.771 c -1.105,0 -2,0.895 -2,2 0,1.104 0.895,2 2,2 1.104,0 2,-0.896 2,-2 0,-1.105 -0.896,-2 -2,-2 m 0,11.579 c 1.104,0 2,-0.896 2,-2 0,-1.105 -0.896,-2 -2,-2 -1.105,0 -2,0.895 -2,2 0,1.104 0.895,2 2,2 m 3,2.58 c 0.552,0 1,-0.448 1,-1 0,-0.552 -0.448,-1 -1,-1 -0.553,0 -1,0.448 -1,1 0,0.552 0.447,1 1,1 m 36,0 c 0.552,0 1,-0.448 1,-1 0,-0.552 -0.448,-1 -1,-1 -0.553,0 -1,0.448 -1,1 0,0.552 0.447,1 1,1 M 3.047,-7.559 2.514,0.966 c 0.335,0.565 0.531,1.223 0.531,1.928 0,0.874 -0.299,1.676 -0.796,2.318 L 1.624,15.21 c 0,2.093 -1.695,3.79 -3.787,3.79 l -43.553,0 c -2.092,0 -3.787,-1.697 -3.787,-3.79 l -1.422,-22.769 c -0.251,-4.009 3.005,-7.307 6.986,-7.441 0.084,-0.003 39.916,-0.003 40,0 3.98,0.134 7.236,3.432 6.986,7.441"
             style="fill:#f2f2f2;fill-opacity:1;fill-rule:nonzero;stroke:none"
             id="path3226"
             inkscape:connector-curvature="0" /></g></g></g></g></svg>