<?xml version="1.0" encoding="UTF-8" standalone="no"?>
<!-- Created with Inkscape (http://www.inkscape.org/) -->

<svg
   xmlns:dc="http://purl.org/dc/elements/1.1/"
   xmlns:cc="http://creativecommons.org/ns#"
   xmlns:rdf="http://www.w3.org/1999/02/22-rdf-syntax-ns#"
   xmlns:svg="http://www.w3.org/2000/svg"
   xmlns="http://www.w3.org/2000/svg"
   xmlns:sodipodi="http://sodipodi.sourceforge.net/DTD/sodipodi-0.dtd"
   xmlns:inkscape="http://www.inkscape.org/namespaces/inkscape"
   id="svg4132"
   version="1.1"
   inkscape:version="0.48.5 r10040"
   width="64"
   height="64"
   xml:space="preserve"
   sodipodi:docname="Casio - Loopy-content.svg"
   inkscape:export-filename="/Users/margetts/Desktop/Icon Workshop/Monochrome Plus June/png/Casio - Loopy-content.png"
   inkscape:export-xdpi="360"
   inkscape:export-ydpi="360"><metadata
     id="metadata4138"><rdf:RDF><cc:Work
         rdf:about=""><dc:format>image/svg+xml</dc:format><dc:type
           rdf:resource="http://purl.org/dc/dcmitype/StillImage" /><dc:title></dc:title></cc:Work></rdf:RDF></metadata><defs
     id="defs4136"><clipPath
       clipPathUnits="userSpaceOnUse"
       id="clipPath4146"><path
         d="M 0,64 64,64 64,0 0,0 0,64 z"
         id="path4148"
         inkscape:connector-curvature="0" /></clipPath></defs><sodipodi:namedview
     pagecolor="#ffffff"
     bordercolor="#666666"
     borderopacity="1"
     objecttolerance="10"
     gridtolerance="10"
     guidetolerance="10"
     inkscape:pageopacity="0"
     inkscape:pageshadow="2"
     inkscape:window-width="1676"
     inkscape:window-height="1005"
     id="namedview4134"
     showgrid="false"
     inkscape:zoom="10.4125"
     inkscape:cx="40"
     inkscape:cy="40"
     inkscape:window-x="4"
     inkscape:window-y="1"
     inkscape:window-maximized="1"
     inkscape:current-layer="g4140" /><g
     id="g4140"
     inkscape:groupmode="layer"
     inkscape:label="Casio - Loopy-content"
     transform="matrix(1.25,0,0,-1.25,0,64)"><g
       id="g4142"
       transform="matrix(0.8,0,0,0.8,0,1.6e-4)"><g
         id="g4144"
         clip-path="url(#clipPath4146)"><g
           id="g4150"
           transform="translate(55,33.8008)"><path
             d="m 0,0 c 0,-1.003 -0.755,-1.837 -1.755,-1.939 -2.527,-0.26 -9.562,-0.862 -20.288,-0.862 -0.325,0 -0.644,0.002 -0.95,0.005 -0.319,-0.003 -0.639,-0.005 -0.964,-0.005 -10.726,0 -17.761,0.602 -20.288,0.862 C -45.246,-1.837 -46,-1.003 -46,0 l 0,15.383 c 0,1.018 0.768,1.853 1.785,1.943 2.99,0.262 10.95,0.873 20.258,0.873 l 0.957,0 0.957,0 c 9.308,0 17.268,-0.611 20.258,-0.873 C -0.768,17.236 0,16.401 0,15.383 L 0,0 z m -6,-11.801 -6,0 c -0.55,0 -1,0.45 -1,1 0,0.55 0.45,1 1,1 l 6,0 c 0.55,0 1,-0.45 1,-1 0,-0.55 -0.45,-1 -1,-1 m -10.031,2.572 -0.704,-1.409 c -0.11,-0.217 -0.42,-0.217 -0.53,0 l -0.704,1.409 c -0.097,0.197 0.045,0.428 0.265,0.428 l 1.408,0 c 0.22,0 0.362,-0.231 0.265,-0.428 m -11.001,0 -0.704,-1.409 c -0.109,-0.217 -0.419,-0.217 -0.528,0 l -0.704,1.409 c -0.098,0.197 0.044,0.428 0.264,0.428 l 1.408,0 c 0.22,0 0.362,-0.231 0.264,-0.428 m -5.968,-2.572 -6,0 c -0.55,0 -1,0.45 -1,1 0,0.55 0.45,1 1,1 l 6,0 c 0.55,0 1,-0.45 1,-1 0,-0.55 -0.45,-1 -1,-1 m 31,32 c -5.786,0.965 -20.036,1 -20.036,1 l -0.964,0 -0.964,0 c 0,0 -14.25,-0.035 -20.036,-1 -5.786,-0.964 -6,-3 -6,-3 l 0,-38 4,0 0,-4 46,0 0,4 4,0 0,38 c 0,0 -0.214,2.036 -6,3"
             style="fill:#f2f2f2;fill-opacity:1;fill-rule:nonzero;stroke:none"
             id="path4152"
             inkscape:connector-curvature="0" /></g><g
           id="g4154"
           transform="translate(32.9565,51)"><path
             d="m 0,0 -0.957,0 -0.956,0 c -9.427,0 -17.564,-0.641 -20.171,-0.87 -0.494,-0.043 -0.873,-0.454 -0.873,-0.946 l 0,-15.383 c 0,-0.487 0.37,-0.895 0.857,-0.945 2.343,-0.24 9.404,-0.856 20.187,-0.856 0.322,0 0.64,0.002 0.956,0.004 C -0.64,-18.998 -0.322,-19 0,-19 c 10.783,0 17.844,0.616 20.186,0.856 0.487,0.05 0.857,0.458 0.857,0.945 l 0,15.383 c 0,0.492 -0.378,0.903 -0.873,0.946 C 17.564,-0.641 9.427,0 0,0"
             style="fill:#f2f2f2;fill-opacity:1;fill-rule:nonzero;stroke:none"
             id="path4156"
             inkscape:connector-curvature="0" /></g></g></g></g></svg>