<?xml version="1.0" encoding="UTF-8" standalone="no"?>
<!-- Created with Inkscape (http://www.inkscape.org/) -->

<svg
   xmlns:dc="http://purl.org/dc/elements/1.1/"
   xmlns:cc="http://creativecommons.org/ns#"
   xmlns:rdf="http://www.w3.org/1999/02/22-rdf-syntax-ns#"
   xmlns:svg="http://www.w3.org/2000/svg"
   xmlns="http://www.w3.org/2000/svg"
   xmlns:sodipodi="http://sodipodi.sourceforge.net/DTD/sodipodi-0.dtd"
   xmlns:inkscape="http://www.inkscape.org/namespaces/inkscape"
   id="svg3266"
   version="1.1"
   inkscape:version="0.48.5 r10040"
   width="64"
   height="64"
   xml:space="preserve"
   sodipodi:docname="Casio - Loopy.svg"
   inkscape:export-filename="/Users/margetts/Desktop/Icon Workshop/Monochrome Plus June/png/Casio - Loopy.png"
   inkscape:export-xdpi="360"
   inkscape:export-ydpi="360"><metadata
     id="metadata3272"><rdf:RDF><cc:Work
         rdf:about=""><dc:format>image/svg+xml</dc:format><dc:type
           rdf:resource="http://purl.org/dc/dcmitype/StillImage" /><dc:title></dc:title></cc:Work></rdf:RDF></metadata><defs
     id="defs3270"><clipPath
       clipPathUnits="userSpaceOnUse"
       id="clipPath3280"><path
         d="M 0,64 64,64 64,0 0,0 0,64 z"
         id="path3282"
         inkscape:connector-curvature="0" /></clipPath></defs><sodipodi:namedview
     pagecolor="#ffffff"
     bordercolor="#666666"
     borderopacity="1"
     objecttolerance="10"
     gridtolerance="10"
     guidetolerance="10"
     inkscape:pageopacity="0"
     inkscape:pageshadow="2"
     inkscape:window-width="1676"
     inkscape:window-height="1005"
     id="namedview3268"
     showgrid="false"
     inkscape:zoom="10.4125"
     inkscape:cx="40"
     inkscape:cy="40"
     inkscape:window-x="4"
     inkscape:window-y="1"
     inkscape:window-maximized="1"
     inkscape:current-layer="g3274" /><g
     id="g3274"
     inkscape:groupmode="layer"
     inkscape:label="Casio - Loopy"
     transform="matrix(1.25,0,0,-1.25,0,64)"><g
       id="g3276"
       transform="matrix(0.80003755,0,0,0.80003755,-0.00221558,-0.02709385)"><g
         id="g3278"
         clip-path="url(#clipPath3280)"><g
           id="g3284"
           transform="translate(53.5,36)"><path
             d="M 0,0 C -1.381,0 -2.5,1.119 -2.5,2.5 -2.5,3.881 -1.381,5 0,5 1.381,5 2.5,3.881 2.5,2.5 2.5,1.119 1.381,0 0,0 M -6,-2 C -7.381,-2 -8.5,-0.881 -8.5,0.5 -8.5,1.881 -7.381,3 -6,3 -4.619,3 -3.5,1.881 -3.5,0.5 -3.5,-0.881 -4.619,-2 -6,-2 m -4,-4 c -1.381,0 -2.5,1.119 -2.5,2.5 0,1.381 1.119,2.5 2.5,2.5 1.381,0 2.5,-1.119 2.5,-2.5 0,-1.381 -1.119,-2.5 -2.5,-2.5 m -4,-5 c -1.381,0 -2.5,1.119 -2.5,2.5 0,1.381 1.119,2.5 2.5,2.5 1.381,0 2.5,-1.119 2.5,-2.5 0,-1.381 -1.119,-2.5 -2.5,-2.5 m 1.846,15.581 c 1.043,0.574 2.181,0.556 2.544,-0.041 0.361,-0.597 -0.192,-1.546 -1.236,-2.121 -1.043,-0.574 -2.181,-0.556 -2.544,0.041 -0.361,0.597 0.192,1.546 1.236,2.121 M -30.5,-2.5 c 0,-0.276 -0.224,-0.5 -0.5,-0.5 l -2.5,0 c -0.552,0 -1,-0.448 -1,-1 l 0,-2.5 c 0,-0.276 -0.224,-0.5 -0.5,-0.5 l -2,0 c -0.276,0 -0.5,0.224 -0.5,0.5 l 0,2.5 c 0,0.552 -0.448,1 -1,1 l -2.5,0 c -0.276,0 -0.5,0.224 -0.5,0.5 l 0,2 c 0,0.276 0.224,0.5 0.5,0.5 l 2.5,0 c 0.552,0 1,0.448 1,1 l 0,2.5 c 0,0.276 0.224,0.5 0.5,0.5 l 2,0 c 0.276,0 0.5,-0.224 0.5,-0.5 l 0,-2.5 c 0,-0.552 0.448,-1 1,-1 l 2.5,0 c 0.276,0 0.5,-0.224 0.5,-0.5 l 0,-2 z m 36,2.831 C 5.5,11.643 -30.5,10 -30.5,10 -46.252,9.284 -48.626,3.975 -48.491,-0.485 c -0.055,-1.724 0.259,-3.407 0.259,-4.773 0,-4.713 4.713,-15.455 15.083,-10.742 10.369,4.713 20.649,0 20.649,0 12.255,-6.599 18,4.144 18,15.456 0,0.04 -0.011,0.075 -0.012,0.115 0.006,0.253 0.012,0.506 0.012,0.76"
             style="fill:#f2f2f2;fill-opacity:1;fill-rule:nonzero;stroke:none"
             id="path3286"
             inkscape:connector-curvature="0" /></g></g></g></g></svg>