<?xml version="1.0" encoding="UTF-8" standalone="no"?>
<!-- Created with Inkscape (http://www.inkscape.org/) -->

<svg
   xmlns:dc="http://purl.org/dc/elements/1.1/"
   xmlns:cc="http://creativecommons.org/ns#"
   xmlns:rdf="http://www.w3.org/1999/02/22-rdf-syntax-ns#"
   xmlns:svg="http://www.w3.org/2000/svg"
   xmlns="http://www.w3.org/2000/svg"
   xmlns:sodipodi="http://sodipodi.sourceforge.net/DTD/sodipodi-0.dtd"
   xmlns:inkscape="http://www.inkscape.org/namespaces/inkscape"
   id="svg3004"
   version="1.1"
   inkscape:version="0.48.5 r10040"
   width="64"
   height="64"
   xml:space="preserve"
   sodipodi:docname="Casio PV-1000.svg"
   inkscape:export-filename="/Users/margetts/Desktop/Icon Workshop/Monochrome Plus June/png/Casio PV-1000.png"
   inkscape:export-xdpi="360"
   inkscape:export-ydpi="360"><metadata
     id="metadata3010"><rdf:RDF><cc:Work
         rdf:about=""><dc:format>image/svg+xml</dc:format><dc:type
           rdf:resource="http://purl.org/dc/dcmitype/StillImage" /><dc:title></dc:title></cc:Work></rdf:RDF></metadata><defs
     id="defs3008"><clipPath
       clipPathUnits="userSpaceOnUse"
       id="clipPath3018"><path
         d="M 0,64 64,64 64,0 0,0 0,64 z"
         id="path3020"
         inkscape:connector-curvature="0" /></clipPath></defs><sodipodi:namedview
     pagecolor="#ffffff"
     bordercolor="#666666"
     borderopacity="1"
     objecttolerance="10"
     gridtolerance="10"
     guidetolerance="10"
     inkscape:pageopacity="0"
     inkscape:pageshadow="2"
     inkscape:window-width="1676"
     inkscape:window-height="1005"
     id="namedview3006"
     showgrid="false"
     inkscape:zoom="10.4125"
     inkscape:cx="31.788715"
     inkscape:cy="28.47539"
     inkscape:window-x="4"
     inkscape:window-y="1"
     inkscape:window-maximized="1"
     inkscape:current-layer="g3012" /><g
     id="g3012"
     inkscape:groupmode="layer"
     inkscape:label="Casio PV-1000"
     transform="matrix(1.25,0,0,-1.25,0,64)"><g
       id="g3014"
       transform="scale(0.8,0.8)"><g
         id="g3016"
         clip-path="url(#clipPath3018)"><path
           d="m 44,45 -25,0 0,6 25,0 0,-6 z M 34,38 c 0,2.209 1.791,4 4,4 2.209,0 4,-1.791 4,-4 0,-2.209 -1.791,-4 -4,-4 -2.209,0 -4,1.791 -4,4 m -13,0 c 0,2.209 1.791,4 4,4 2.209,0 4,-1.791 4,-4 0,-2.209 -1.791,-4 -4,-4 -2.209,0 -4,1.791 -4,4 M 32,8 c -6.627,0 -12,5.373 -12,12 0,6.627 5.373,12 12,12 6.627,0 12,-5.373 12,-12 C 44,13.373 38.627,8 32,8 m 16,46 0,3.138 C 48,58.167 47.166,59 46.138,59 L 17.862,59 C 16.833,59 16,58.167 16,57.138 L 16,54 l 2,0 0,-1 -2,0 0,-1 2,0 0,-1 -2,0 0,-1 2,0 0,-1 -2,0 0,-1 2,0 0,-1 -2,0 0,-1 2,0 0,-1 -2,0 0,-1 2,0 0,-1 -2,0 0,-1 2,0 0,-1 -2,0 0,-1 2,0 0,-1 -2,0 0,-1 2,0 0,-1 -2,0 0,-1 2,0 0,-1 -2,0 0,-1 2,0 0,-1 -2,0 0,-1 2,0 0,-1 -2,0 0,-1 2,0 0,-1 -2,0 0,-8.173 C 16,12.086 23.086,5 31.828,5 l 0.344,0 C 40.914,5 48,12.086 48,20.827 l 0,8.173 -2,0 0,1 2,0 0,1 -2,0 0,1 2,0 0,1 -2,0 0,1 2,0 0,1 -2,0 0,1 2,0 0,1 -2,0 0,1 2,0 0,1 -2,0 0,1 2,0 0,1 -2,0 0,1 2,0 0,1 -2,0 0,1 2,0 0,1 -2,0 0,1 2,0 0,1 -2,0 0,1 2,0 0,1 -2,0 0,1 2,0 0,1 -2,0 0,1 2,0 0,1 -2,0 0,1 2,0 z"
           style="fill:#f2f2f2;fill-opacity:1;fill-rule:nonzero;stroke:none"
           id="path3022"
           inkscape:connector-curvature="0" /><g
           id="g3024"
           transform="translate(32,16)"><path
             d="M 0,0 C -2.209,0 -4,1.791 -4,4 -4,6.209 -2.209,8 0,8 2.209,8 4,6.209 4,4 4,1.791 2.209,0 0,0 m 0.345,13 -0.69,0 C -2.905,13 -5,10.905 -5,8.345 l 0,-7.69 C -5,-1.905 -2.905,-4 -0.345,-4 l 0.69,0 C 2.905,-4 5,-1.905 5,0.655 l 0,7.69 C 5,10.905 2.905,13 0.345,13"
             style="fill:#f2f2f2;fill-opacity:1;fill-rule:nonzero;stroke:none"
             id="path3026"
             inkscape:connector-curvature="0" /></g></g></g></g></svg>