<?xml version="1.0" encoding="UTF-8" standalone="no"?>
<!-- Generator: Adobe Illustrator 16.0.0, SVG Export Plug-In . SVG Version: 6.00 Build 0)  -->

<svg
   xmlns:dc="http://purl.org/dc/elements/1.1/"
   xmlns:cc="http://creativecommons.org/ns#"
   xmlns:rdf="http://www.w3.org/1999/02/22-rdf-syntax-ns#"
   xmlns:svg="http://www.w3.org/2000/svg"
   xmlns="http://www.w3.org/2000/svg"
   xmlns:xlink="http://www.w3.org/1999/xlink"
   xmlns:sodipodi="http://sodipodi.sourceforge.net/DTD/sodipodi-0.dtd"
   xmlns:inkscape="http://www.inkscape.org/namespaces/inkscape"
   version="1.1"
   id="svg2"
   inkscape:export-filename="/home/lollo78/Scrivania/Lutro-content.png"
   inkscape:export-xdpi="360"
   inkscape:version="0.91 r13725"
   inkscape:export-ydpi="360"
   sodipodi:docname="Lutro-content.svg"
   x="0px"
   y="0px"
   width="64px"
   height="64px"
   viewBox="0 128 64 64"
   enable-background="new 0 128 64 64"
   xml:space="preserve"><metadata
     id="metadata8"><rdf:RDF><cc:Work
         rdf:about=""><dc:format>image/svg+xml</dc:format><dc:type
           rdf:resource="http://purl.org/dc/dcmitype/StillImage" /><dc:title /></cc:Work></rdf:RDF></metadata><defs
     id="defs6"><circle
       style="opacity:1;fill:#f2f2f2;fill-opacity:1;stroke:none;stroke-width:0.67299998;stroke-miterlimit:4;stroke-dasharray:none;stroke-dashoffset:0;stroke-opacity:1"
       id="path3505"
       cx="261.67337"
       cy="618.93359"
       r="22.421" /><circle
       style="opacity:1;fill:#ff0000;fill-opacity:1;stroke:none;stroke-width:0.67299998;stroke-miterlimit:4;stroke-dasharray:none;stroke-dashoffset:0;stroke-opacity:1"
       id="path3349-6"
       cx="32.195408"
       cy="159.97664"
       r="29.146999" /><circle
       style="opacity:1;fill:#f2f2f2;fill-opacity:1;stroke:none;stroke-width:0.67299998;stroke-miterlimit:4;stroke-dasharray:none;stroke-dashoffset:0;stroke-opacity:1"
       id="path3411"
       cx="93.891792"
       cy="142.98956"
       r="17.823999" /></defs><sodipodi:namedview
     pagecolor="#ffffff"
     bordercolor="#666666"
     borderopacity="1"
     objecttolerance="10"
     gridtolerance="10"
     guidetolerance="10"
     inkscape:pageopacity="0"
     inkscape:pageshadow="2"
     inkscape:window-width="1615"
     inkscape:window-height="1026"
     id="namedview4"
     showgrid="false"
     inkscape:zoom="5.12"
     inkscape:cx="34.622774"
     inkscape:cy="17.195833"
     inkscape:window-x="1985"
     inkscape:window-y="24"
     inkscape:window-maximized="1"
     inkscape:current-layer="svg2" /><path
     style="fill:none;fill-opacity:1"
     d="m 27.805958,42.570634 c -1.302924,-0.282896 -2.881471,-0.946911 -4.056471,-1.706351 -1.230055,-0.795022 -2.75093,-2.391885 -2.75093,-2.888372 0,-0.339461 2.391983,-3.467466 2.651568,-3.467466 0.08677,0 0.63609,0.371429 1.220712,0.825397 2.807077,2.179743 6.482639,2.734977 6.482639,0.979275 0,-0.875146 -0.37641,-1.236358 -3.222807,-3.092681 -3.224781,-2.10309 -4.892548,-3.660015 -5.70693,-5.327634 -0.484241,-0.991586 -0.560092,-1.362494 -0.549003,-2.684609 0.03638,-4.33834 3.453573,-7.045517 8.519951,-6.749705 2.672172,0.156021 5.320026,1.211908 7.209188,2.874815 1.00824,0.887489 1.012729,1.153587 0.05322,3.155071 -0.771063,1.608398 -1.091309,1.674846 -2.714872,0.563311 -2.737691,-1.874297 -5.506326,-2.242897 -5.506326,-0.733081 0,0.6966 0.427476,1.070598 2.876366,2.516525 4.020191,2.373688 5.084967,3.336215 6.083792,5.49957 0.443885,0.961412 0.517613,1.375737 0.5233,2.940777 0.0057,1.567686 -0.0625,1.968759 -0.489098,2.876367 -0.911459,1.939179 -2.283853,3.117761 -4.679811,4.018913 -1.279086,0.481084 -4.555424,0.701477 -5.94449,0.399878 z"
     id="path3351"
     inkscape:connector-curvature="0"
     transform="translate(0,128)" /><path
     style="fill:none;fill-opacity:1"
     d="m 27.805958,42.570634 c -1.302924,-0.282896 -2.881471,-0.946911 -4.056471,-1.706351 -1.230055,-0.795022 -2.75093,-2.391885 -2.75093,-2.888372 0,-0.339461 2.391983,-3.467466 2.651568,-3.467466 0.08677,0 0.63609,0.371429 1.220712,0.825397 2.807077,2.179743 6.482639,2.734977 6.482639,0.979275 0,-0.875146 -0.37641,-1.236358 -3.222807,-3.092681 -3.224781,-2.10309 -4.892548,-3.660015 -5.70693,-5.327634 -0.484241,-0.991586 -0.560092,-1.362494 -0.549003,-2.684609 0.03638,-4.33834 3.453573,-7.045517 8.519951,-6.749705 2.672172,0.156021 5.320026,1.211908 7.209188,2.874815 1.00824,0.887489 1.012729,1.153587 0.05322,3.155071 -0.771063,1.608398 -1.091309,1.674846 -2.714872,0.563311 -2.737691,-1.874297 -5.506326,-2.242897 -5.506326,-0.733081 0,0.6966 0.427476,1.070598 2.876366,2.516525 4.020191,2.373688 5.084967,3.336215 6.083792,5.49957 0.443885,0.961412 0.517613,1.375737 0.5233,2.940777 0.0057,1.567686 -0.0625,1.968759 -0.489098,2.876367 -0.911459,1.939179 -2.283853,3.117761 -4.679811,4.018913 -1.279086,0.481084 -4.555424,0.701477 -5.94449,0.399878 z"
     id="path3355"
     inkscape:connector-curvature="0"
     transform="translate(0,128)" /><g
     id="g4142"
     transform="translate(1.171875,58.007813)"><path
       style="display:inline;fill:#f2f2f2;fill-opacity:1"
       d="M 32.78266,142.48725 A 17.824392,17.824392 0 0 0 14.959323,160.31058 17.824392,17.824392 0 0 0 32.78266,178.13547 17.824392,17.824392 0 0 0 50.60755,160.31058 17.824392,17.824392 0 0 0 32.78266,142.48725 Z m 7.384597,5.22169 a 5.2205013,5.2205013 0 0 1 5.220146,5.22015 5.2205013,5.2205013 0 0 1 -5.220146,5.22014 5.2205013,5.2205013 0 0 1 -5.220146,-5.22014 5.2205013,5.2205013 0 0 1 5.220146,-5.22015 z m -19.480057,9.81922 1.492134,0 0,10.37973 5.776013,0 0,1.31514 -7.268147,0 0,-11.69487 z m 20.894558,3.04948 c 2.069428,0 3.159726,0.80141 3.159726,2.29332 l 0,4.68447 c 0,0.41712 0.256773,0.65835 0.722001,0.65835 0.08021,0 0.144423,-5.3e-4 0.288801,-0.0326 l 0,1.0108 c -0.433138,0.1123 -0.641817,0.1444 -0.914535,0.1444 -0.657748,0 -1.234412,-0.46536 -1.37879,-1.10706 -0.737935,0.78607 -1.780565,1.23594 -2.855398,1.23594 -1.700486,0 -2.759131,-0.89819 -2.759131,-2.4222 0,-1.02674 0.496458,-1.78203 1.475056,-2.18309 0.51332,-0.20856 0.802465,-0.27175 2.695471,-0.51238 1.058795,-0.12833 1.395869,-0.37015 1.395869,-0.93161 l 0,-0.35246 c 0,-0.80213 -0.67404,-1.25147 -1.877203,-1.25147 -1.251306,0 -1.861172,0.46544 -1.97347,1.49213 l -1.347735,0 c 0.08019,-1.9411 1.331955,-2.72652 3.369338,-2.72652 z m -12.298862,0.23912 1.332208,0 0,5.82414 c 0,1.01065 0.672465,1.65207 1.73125,1.65207 1.395683,0 2.294877,-1.12335 2.294877,-2.83988 l 0,-4.63633 1.330656,0 0,8.40627 -1.201783,0 0,-1.29961 c -0.786078,1.10692 -1.572005,1.54027 -2.807265,1.54027 -1.636346,0 -2.679943,-0.89764 -2.679943,-2.29332 l 0,-6.35361 z m 14.127932,4.25282 c -0.44918,0.20855 -0.738746,0.27175 -2.150477,0.46425 -1.427778,0.20852 -2.02005,0.5943 -2.02005,1.47661 0,0.91443 0.609324,1.28253 1.652062,1.28253 1.299449,0 2.518465,-0.76876 2.518465,-1.97192 l 0,-1.25147 z"
       id="circle8"
       inkscape:connector-curvature="0" /><text
       transform="matrix(-1,0,0,-1,125.10123,301.81285)"
       y="-422.03662"
       x="-64.766464"
       sodipodi:linespacing="125%"
       id="text3351"
       style="font-style:normal;font-weight:normal;font-size:4.8073802px;line-height:125%;font-family:sans-serif;letter-spacing:0px;word-spacing:0px;fill:#f2f2f2;fill-opacity:1;stroke:none;stroke-width:1px;stroke-linecap:butt;stroke-linejoin:miter;stroke-opacity:1"
       xml:space="preserve"><textPath
         id="textPath3421"
         xlink:href="#path3411"><tspan
   style="fill:#f2f2f2;fill-opacity:1"
   id="tspan3353">powered by</tspan></textPath></text>
</g><path
     style="display:inline;opacity:1;fill:#f2f2f2;fill-opacity:1;stroke:none;stroke-width:0.31744283;stroke-linecap:butt;stroke-linejoin:round;stroke-miterlimit:0;stroke-dasharray:none;stroke-dashoffset:0;stroke-opacity:1"
     d="m 32.60706,139.84482 c -11.472303,1.2e-4 -20.772414,9.30022 -20.772532,20.77253 0.0084,6.55015 3.105698,12.71266 8.357161,16.6276 l 7.533257,-9.06144 c -12.231286,-9.07884 -4.866127,-16.07216 -1.161838,-16.96254 0.50899,-0.1223 0.984813,-0.16148 1.427999,-0.13757 1.952257,0.1053 3.245499,1.4327 3.95354,2.41339 0.868492,-1.20335 2.631374,-2.93692 5.383031,-2.27582 0.914502,0.21987 2.046492,0.82838 3.057863,1.73154 l 6.302642,-7.58111 c -3.832307,-3.54644 -8.859642,-5.51959 -14.081123,-5.52658 z m 14.640354,6.04993 -6.30562,7.5856 c 3.106032,3.32239 4.166944,9.83823 -8.997147,17.45449 0.0026,0.001 0.0049,0.003 0.0075,0.004 l -0.01495,0 c 0.0026,-0.001 0.0049,-0.003 0.0075,-0.004 -1.34959,-0.78082 -2.532433,-1.54874 -3.596166,-2.30424 l -7.531763,9.06144 c 3.46403,2.40006 7.576116,3.68974 11.79034,3.69785 11.47231,-1.2e-4 20.772417,-9.30023 20.772532,-20.77254 -0.0038,-5.52797 -2.210579,-10.8265 -6.132177,-14.7226 z M 28.348481,168.6306 Z"
     id="path4388-7"
     inkscape:connector-curvature="0"
     sodipodi:nodetypes="ccccccccccccccccccccccccc" /></svg>