<?xml version="1.0" encoding="UTF-8" standalone="no"?>
<!-- Created with Inkscape (http://www.inkscape.org/) -->

<svg
   xmlns:dc="http://purl.org/dc/elements/1.1/"
   xmlns:cc="http://creativecommons.org/ns#"
   xmlns:rdf="http://www.w3.org/1999/02/22-rdf-syntax-ns#"
   xmlns:svg="http://www.w3.org/2000/svg"
   xmlns="http://www.w3.org/2000/svg"
   xmlns:sodipodi="http://sodipodi.sourceforge.net/DTD/sodipodi-0.dtd"
   xmlns:inkscape="http://www.inkscape.org/namespaces/inkscape"
   id="svg4552"
   version="1.1"
   inkscape:version="0.48.5 r10040"
   width="64"
   height="64"
   xml:space="preserve"
   sodipodi:docname="CHIP-8-content.svg"
   inkscape:export-filename="/Users/margetts/Desktop/Icon Workshop/Monochrome July/CHIP-8-content.png"
   inkscape:export-xdpi="360"
   inkscape:export-ydpi="360"><metadata
     id="metadata4558"><rdf:RDF><cc:Work
         rdf:about=""><dc:format>image/svg+xml</dc:format><dc:type
           rdf:resource="http://purl.org/dc/dcmitype/StillImage" /><dc:title></dc:title></cc:Work></rdf:RDF></metadata><defs
     id="defs4556"><clipPath
       clipPathUnits="userSpaceOnUse"
       id="clipPath4566"><path
         d="M 0,256 256,256 256,0 0,0 0,256 z"
         id="path4568"
         inkscape:connector-curvature="0" /></clipPath></defs><sodipodi:namedview
     pagecolor="#ffffff"
     bordercolor="#666666"
     borderopacity="1"
     objecttolerance="10"
     gridtolerance="10"
     guidetolerance="10"
     inkscape:pageopacity="0"
     inkscape:pageshadow="2"
     inkscape:window-width="1676"
     inkscape:window-height="1005"
     id="namedview4554"
     showgrid="false"
     inkscape:zoom="2.609375"
     inkscape:cx="111.90419"
     inkscape:cy="160"
     inkscape:window-x="4"
     inkscape:window-y="1"
     inkscape:window-maximized="1"
     inkscape:current-layer="g4560" /><g
     id="g4560"
     inkscape:groupmode="layer"
     inkscape:label="CHIP-8-content"
     transform="matrix(1.25,0,0,-1.25,0,64)"><g
       id="g4562"
       transform="matrix(0.1862069,0,0,0.1862069,1.7655168,1.7655168)"><g
         id="g4564"
         clip-path="url(#clipPath4566)"><g
           id="g4570"
           transform="translate(188,142)"><path
             d="m 0,0 c 0,7.733 -6.272,14 -14,14 -7.729,0 -14,-6.267 -14,-14 0,-7.732 6.271,-14 14,-14 7.728,0 14,6.268 14,14 m -32,6 c 0,2.212 -2.086,4 -4.667,4 l -43.035,0 C -77.35,6.346 -76,2.291 -76,-2 c 0,-4.291 -1.35,-8.346 -3.702,-12 l 43.035,0 c 2.581,0 4.667,1.788 4.667,4 l 0,16 z M -92,0 c 0,7.733 -6.272,14 -14,14 -7.728,0 -14,-6.267 -14,-14 0,-7.732 6.272,-14 14,-14 7.728,0 14,6.268 14,14 M 4,0 4,0 c 0,-9.9 -8.1,-18 -18,-18 l -92,0 c -9.9,0 -18,8.1 -18,18 0,9.9 8.1,18 18,18 l 92,0 C -4.1,18 4,9.9 4,0 m -110,10 c -5.514,0 -10,-4.486 -10,-10 0,-5.514 4.486,-10 10,-10 5.514,0 10,4.486 10,10 0,5.514 -4.486,10 -10,10 m 92,0 c -5.514,0 -10,-4.486 -10,-10 0,-5.514 4.486,-10 10,-10 5.514,0 10,4.486 10,10 0,5.514 -4.486,10 -10,10 m 66,42 c 0,1.104 -0.896,2 -2,2 -1.104,0 -2,-0.896 -2,-2 0,-1.104 0.896,-2 2,-2 1.104,0 2,0.896 2,2 m 0,-132 c 0,1.104 -0.896,2 -2,2 -1.104,0 -2,-0.896 -2,-2 0,-1.104 0.896,-2 2,-2 1.104,0 2,0.896 2,2 M 44,37.2 35.333,46 -155.333,46 -164,37.2 l 0,-70.4 c 0,-4.858 3.883,-8.8 8.667,-8.8 l 190.666,0 c 4.784,0 8.667,3.942 8.667,8.8 l 0,70.4 z M -168,52 c 0,1.104 -0.896,2 -2,2 -1.104,0 -2,-0.896 -2,-2 0,-1.104 0.896,-2 2,-2 1.104,0 2,0.896 2,2 m 0,-131.965 c -0.02,1.104 -0.931,1.984 -2.035,1.965 -1.104,-0.02 -1.984,-0.931 -1.965,-2.035 0.02,-1.104 0.931,-1.984 2.035,-1.965 1.104,0.02 1.984,0.931 1.965,2.035 M 56,49.529 56,-77.529 C 56,-82.205 52.15,-86 47.407,-86 l -25.777,0 -1.542,0 -0.174,0.826 -4.151,19.664 C 15.53,-61.783 12.667,-58 7.543,-58 l -135.099,0 c -5.116,0 -7.975,-3.782 -8.207,-7.51 l -4.151,-19.664 -0.174,-0.826 -1.542,0 -25.777,0 c -4.743,0 -8.593,3.795 -8.593,8.471 l 0,127.058 c 0,4.676 3.85,8.471 8.593,8.471 L 47.407,58 C 52.15,58 56,54.205 56,49.529 M 0,-78 c 0,2.212 -1.788,4 -4,4 -2.212,0 -4,-1.788 -4,-4 0,-2.212 1.788,-4 4,-4 2.212,0 4,1.788 4,4 m -20,4 c 0,2.212 -1.788,4 -4,4 -2.212,0 -4,-1.788 -4,-4 0,-2.212 1.788,-4 4,-4 2.212,0 4,1.788 4,4 m -36,4 c 0,2.212 -1.788,4 -4,4 -2.212,0 -4,-1.788 -4,-4 0,-2.212 1.788,-4 4,-4 2.212,0 4,1.788 4,4 m -36,-4 c 0,2.212 -1.788,4 -4,4 -2.212,0 -4,-1.788 -4,-4 0,-2.212 1.788,-4 4,-4 2.212,0 4,1.788 4,4 m -20,-4 c 0,2.212 -1.788,4 -4,4 -2.212,0 -4,-1.788 -4,-4 0,-2.212 1.788,-4 4,-4 2.212,0 4,1.788 4,4 m 128,-8 -152,0 4.222,20 c 0,0 0,4 4.222,4 l 135.099,0 c 4.234,0 4.234,-4 4.234,-4 L 16,-86 z m -37.304,74.073 c -0.173,0.107 -0.353,0.204 -0.522,0.318 0.169,-0.114 0.349,-0.211 0.522,-0.318 M -14,-14 c 7.729,0 14,6.267 14,14 0,-7.732 -6.272,-14 -14,-14 m -3.285,0.404 c -1.194,0.287 -2.333,0.714 -3.387,1.285 1.054,-0.571 2.193,-0.998 3.387,-1.285 M -0.63,4.164 C -2.403,9.863 -7.721,14 -14,14 -7.721,14 -2.403,9.863 -0.63,4.164 M -28,0 c 0,-2.814 0.839,-5.429 2.268,-7.624 C -27.161,-5.429 -28,-2.814 -28,0 m 2.392,-7.828 c 0.479,-0.709 1.026,-1.368 1.624,-1.977 -0.598,0.609 -1.145,1.268 -1.624,1.977 m 1.71,-2.072 c 0.531,-0.53 1.112,-1.007 1.722,-1.447 -0.61,0.44 -1.191,0.917 -1.722,1.447"
             style="fill:#f2f2f2;fill-opacity:1;fill-rule:nonzero;stroke:none"
             id="path4572"
             inkscape:connector-curvature="0" /></g></g></g></g></svg>