<?xml version="1.0" encoding="UTF-8" standalone="no"?>
<!-- Created with Inkscape (http://www.inkscape.org/) -->

<svg
   xmlns:dc="http://purl.org/dc/elements/1.1/"
   xmlns:cc="http://creativecommons.org/ns#"
   xmlns:rdf="http://www.w3.org/1999/02/22-rdf-syntax-ns#"
   xmlns:svg="http://www.w3.org/2000/svg"
   xmlns="http://www.w3.org/2000/svg"
   xmlns:sodipodi="http://sodipodi.sourceforge.net/DTD/sodipodi-0.dtd"
   xmlns:inkscape="http://www.inkscape.org/namespaces/inkscape"
   id="svg4426"
   version="1.1"
   inkscape:version="0.48.5 r10040"
   width="64"
   height="64"
   xml:space="preserve"
   sodipodi:docname="CHIP-8.svg"
   inkscape:export-filename="/Users/margetts/Desktop/Icon Workshop/Monochrome July/CHIP-8.png"
   inkscape:export-xdpi="360"
   inkscape:export-ydpi="360"><metadata
     id="metadata4432"><rdf:RDF><cc:Work
         rdf:about=""><dc:format>image/svg+xml</dc:format><dc:type
           rdf:resource="http://purl.org/dc/dcmitype/StillImage" /><dc:title></dc:title></cc:Work></rdf:RDF></metadata><defs
     id="defs4430"><clipPath
       clipPathUnits="userSpaceOnUse"
       id="clipPath4440"><path
         d="M 0,64 64,64 64,0 0,0 0,64 z"
         id="path4442"
         inkscape:connector-curvature="0" /></clipPath></defs><sodipodi:namedview
     pagecolor="#ffffff"
     bordercolor="#666666"
     borderopacity="1"
     objecttolerance="10"
     gridtolerance="10"
     guidetolerance="10"
     inkscape:pageopacity="0"
     inkscape:pageshadow="2"
     inkscape:window-width="1676"
     inkscape:window-height="1005"
     id="namedview4428"
     showgrid="false"
     inkscape:zoom="10.4375"
     inkscape:cx="27.976048"
     inkscape:cy="40"
     inkscape:window-x="4"
     inkscape:window-y="1"
     inkscape:window-maximized="1"
     inkscape:current-layer="g4434" /><g
     id="g4434"
     inkscape:groupmode="layer"
     inkscape:label="CHIP-8"
     transform="matrix(1.25,0,0,-1.25,0,64)"><g
       id="g4436"
       transform="matrix(0.79999556,0,0,0.79999556,2.2080666e-5,-0.3998557)"><g
         id="g4438"
         clip-path="url(#clipPath4440)"><g
           id="g4444"
           transform="translate(58.0693,52)"><path
             d="m 0,0 -52.138,0 c -0.514,0 -0.931,0.417 -0.931,0.931 l 0,0.138 c 0,0.514 0.417,0.931 0.931,0.931 L 0,2 C 0.514,2 0.931,1.583 0.931,1.069 l 0,-0.138 C 0.931,0.417 0.514,0 0,0"
             style="fill:#f2f2f2;fill-opacity:1;fill-rule:nonzero;stroke:none"
             id="path4446"
             inkscape:connector-curvature="0" /></g><g
           id="g4448"
           transform="translate(54,16.875)"><path
             d="m 0,0 c 0,-1.035 -0.84,-1.875 -1.875,-1.875 l -11.25,0 C -14.16,-1.875 -15,-1.035 -15,0 l 0,11.25 c 0,1.035 0.84,1.875 1.875,1.875 l 11.25,0 C -0.84,13.125 0,12.285 0,11.25 L 0,0 z m -16,1.625 c 0,-1.381 -1.119,-2.5 -2.5,-2.5 -1.381,0 -2.5,1.119 -2.5,2.5 l 0,8 c 0,1.381 1.119,2.5 2.5,2.5 1.381,0 2.5,-1.119 2.5,-2.5 l 0,-8 z M -35,24.59 c 0,-0.257 -0.208,-0.465 -0.465,-0.465 l -5.07,0 c -0.257,0 -0.465,0.208 -0.465,0.465 l 0,0.07 c 0,0.257 0.208,0.465 0.465,0.465 l 5.07,0 c 0.257,0 0.465,-0.208 0.465,-0.465 l 0,-0.07 z m 0,-3 c 0,-0.257 -0.208,-0.465 -0.465,-0.465 l -5.07,0 c -0.257,0 -0.465,0.208 -0.465,0.465 l 0,0.07 c 0,0.257 0.208,0.465 0.465,0.465 l 5.07,0 c 0.257,0 0.465,-0.208 0.465,-0.465 l 0,-0.07 z m 0,-3 c 0,-0.257 -0.208,-0.465 -0.465,-0.465 l -5.07,0 c -0.257,0 -0.465,0.208 -0.465,0.465 l 0,0.07 c 0,0.257 0.208,0.465 0.465,0.465 l 5.07,0 c 0.257,0 0.465,-0.208 0.465,-0.465 l 0,-0.07 z m 0,-3 c 0,-0.257 -0.208,-0.465 -0.465,-0.465 l -5.07,0 c -0.257,0 -0.465,0.208 -0.465,0.465 l 0,0.07 c 0,0.257 0.208,0.465 0.465,0.465 l 5.07,0 c 0.257,0 0.465,-0.208 0.465,-0.465 l 0,-0.07 z m 0,-2.999 c 0,-0.258 -0.208,-0.466 -0.465,-0.466 l -5.07,0 c -0.257,0 -0.465,0.208 -0.465,0.466 l 0,0.068 c 0,0.258 0.208,0.466 0.465,0.466 l 5.07,0 c 0.257,0 0.465,-0.208 0.465,-0.466 l 0,-0.068 z m 0,-3 c 0,-0.258 -0.208,-0.466 -0.465,-0.466 l -5.07,0 C -40.792,9.125 -41,9.333 -41,9.591 l 0,0.068 c 0,0.258 0.208,0.466 0.465,0.466 l 5.07,0 c 0.257,0 0.465,-0.208 0.465,-0.466 l 0,-0.068 z m 0,-3 c 0,-0.258 -0.208,-0.466 -0.465,-0.466 l -5.07,0 C -40.792,6.125 -41,6.333 -41,6.591 l 0,0.068 c 0,0.258 0.208,0.466 0.465,0.466 l 5.07,0 c 0.257,0 0.465,-0.208 0.465,-0.466 l 0,-0.068 z m 0,-3 c 0,-0.258 -0.208,-0.466 -0.465,-0.466 l -5.07,0 C -40.792,3.125 -41,3.333 -41,3.591 l 0,0.068 c 0,0.258 0.208,0.466 0.465,0.466 l 5.07,0 c 0.257,0 0.465,-0.208 0.465,-0.466 l 0,-0.068 z m 39,27.534 -52,0 c -0.552,0 -1,-0.448 -1,-1 l 0,-35 c 0,-0.553 0.448,-1 1,-1 l 52,0 c 0.553,0 1,0.447 1,1 l 0,35 c 0,0.552 -0.447,1 -1,1"
             style="fill:#f2f2f2;fill-opacity:1;fill-rule:nonzero;stroke:none"
             id="path4450"
             inkscape:connector-curvature="0" /></g><g
           id="g4452"
           transform="translate(35,26.5)"><path
             d="M 0,0 C 0,-0.276 0.224,-0.5 0.5,-0.5 0.776,-0.5 1,-0.276 1,0 1,0.276 0.776,0.5 0.5,0.5 0.224,0.5 0,0.276 0,0"
             style="fill:#f2f2f2;fill-opacity:1;fill-rule:nonzero;stroke:none"
             id="path4454"
             inkscape:connector-curvature="0" /></g><g
           id="g4456"
           transform="translate(35,24.5)"><path
             d="M 0,0 C 0,-0.276 0.224,-0.5 0.5,-0.5 0.776,-0.5 1,-0.276 1,0 1,0.276 0.776,0.5 0.5,0.5 0.224,0.5 0,0.276 0,0"
             style="fill:#f2f2f2;fill-opacity:1;fill-rule:nonzero;stroke:none"
             id="path4458"
             inkscape:connector-curvature="0" /></g><g
           id="g4460"
           transform="translate(35,22.5)"><path
             d="M 0,0 C 0,-0.276 0.224,-0.5 0.5,-0.5 0.776,-0.5 1,-0.276 1,0 1,0.276 0.776,0.5 0.5,0.5 0.224,0.5 0,0.276 0,0"
             style="fill:#f2f2f2;fill-opacity:1;fill-rule:nonzero;stroke:none"
             id="path4462"
             inkscape:connector-curvature="0" /></g><g
           id="g4464"
           transform="translate(37,18.5)"><path
             d="M 0,0 C 0,-0.828 -0.672,-1.5 -1.5,-1.5 -2.328,-1.5 -3,-0.828 -3,0 -3,0.828 -2.328,1.5 -1.5,1.5 -0.672,1.5 0,0.828 0,0"
             style="fill:#f2f2f2;fill-opacity:1;fill-rule:nonzero;stroke:none"
             id="path4466"
             inkscape:connector-curvature="0" /></g><g
           id="g4468"
           transform="translate(35.5342,17.9307)"><path
             d="m 0,0 -0.068,0 c -0.258,0 -0.466,0.209 -0.466,0.466 l 0,2.069 C -0.534,2.792 -0.326,3 -0.068,3 L 0,3 C 0.258,3 0.466,2.792 0.466,2.535 l 0,-2.069 C 0.466,0.209 0.258,0 0,0"
             style="fill:#f2f2f2;fill-opacity:1;fill-rule:nonzero;stroke:none"
             id="path4470"
             inkscape:connector-curvature="0" /></g><path
           d="m 43,26 -2,0 0,2 2,0 0,-2 z"
           style="fill:#f2f2f2;fill-opacity:1;fill-rule:nonzero;stroke:none"
           id="path4472"
           inkscape:connector-curvature="0" /><path
           d="m 46,26 -2,0 0,2 2,0 0,-2 z"
           style="fill:#f2f2f2;fill-opacity:1;fill-rule:nonzero;stroke:none"
           id="path4474"
           inkscape:connector-curvature="0" /><path
           d="m 49,26 -2,0 0,2 2,0 0,-2 z"
           style="fill:#f2f2f2;fill-opacity:1;fill-rule:nonzero;stroke:none"
           id="path4476"
           inkscape:connector-curvature="0" /><path
           d="m 52,26 -2,0 0,2 2,0 0,-2 z"
           style="fill:#f2f2f2;fill-opacity:1;fill-rule:nonzero;stroke:none"
           id="path4478"
           inkscape:connector-curvature="0" /><path
           d="m 43,23 -2,0 0,2 2,0 0,-2 z"
           style="fill:#f2f2f2;fill-opacity:1;fill-rule:nonzero;stroke:none"
           id="path4480"
           inkscape:connector-curvature="0" /><path
           d="m 46,23 -2,0 0,2 2,0 0,-2 z"
           style="fill:#f2f2f2;fill-opacity:1;fill-rule:nonzero;stroke:none"
           id="path4482"
           inkscape:connector-curvature="0" /><path
           d="m 49,23 -2,0 0,2 2,0 0,-2 z"
           style="fill:#f2f2f2;fill-opacity:1;fill-rule:nonzero;stroke:none"
           id="path4484"
           inkscape:connector-curvature="0" /><path
           d="m 52,23 -2,0 0,2 2,0 0,-2 z"
           style="fill:#f2f2f2;fill-opacity:1;fill-rule:nonzero;stroke:none"
           id="path4486"
           inkscape:connector-curvature="0" /><path
           d="m 43,20 -2,0 0,2 2,0 0,-2 z"
           style="fill:#f2f2f2;fill-opacity:1;fill-rule:nonzero;stroke:none"
           id="path4488"
           inkscape:connector-curvature="0" /><path
           d="m 46,20 -2,0 0,2 2,0 0,-2 z"
           style="fill:#f2f2f2;fill-opacity:1;fill-rule:nonzero;stroke:none"
           id="path4490"
           inkscape:connector-curvature="0" /><path
           d="m 49,20 -2,0 0,2 2,0 0,-2 z"
           style="fill:#f2f2f2;fill-opacity:1;fill-rule:nonzero;stroke:none"
           id="path4492"
           inkscape:connector-curvature="0" /><path
           d="m 52,20 -2,0 0,2 2,0 0,-2 z"
           style="fill:#f2f2f2;fill-opacity:1;fill-rule:nonzero;stroke:none"
           id="path4494"
           inkscape:connector-curvature="0" /><path
           d="m 43,17 -2,0 0,2 2,0 0,-2 z"
           style="fill:#f2f2f2;fill-opacity:1;fill-rule:nonzero;stroke:none"
           id="path4496"
           inkscape:connector-curvature="0" /><path
           d="m 46,17 -2,0 0,2 2,0 0,-2 z"
           style="fill:#f2f2f2;fill-opacity:1;fill-rule:nonzero;stroke:none"
           id="path4498"
           inkscape:connector-curvature="0" /><path
           d="m 49,17 -2,0 0,2 2,0 0,-2 z"
           style="fill:#f2f2f2;fill-opacity:1;fill-rule:nonzero;stroke:none"
           id="path4500"
           inkscape:connector-curvature="0" /><path
           d="m 52,17 -2,0 0,2 2,0 0,-2 z"
           style="fill:#f2f2f2;fill-opacity:1;fill-rule:nonzero;stroke:none"
           id="path4502"
           inkscape:connector-curvature="0" /><path
           d="m 11,49 18,0 0,2 -18,0 0,-2 z"
           style="fill:#f2f2f2;fill-opacity:1;fill-rule:nonzero;stroke:none"
           id="path4504"
           inkscape:connector-curvature="0" /><path
           d="m 6,49 4,0 0,2 -4,0 0,-2 z"
           style="fill:#f2f2f2;fill-opacity:1;fill-rule:nonzero;stroke:none"
           id="path4506"
           inkscape:connector-curvature="0" /><path
           d="m 54,49 4,0 0,2 -4,0 0,-2 z"
           style="fill:#f2f2f2;fill-opacity:1;fill-rule:nonzero;stroke:none"
           id="path4508"
           inkscape:connector-curvature="0" /><path
           d="m 35,49 18,0 0,2 -18,0 0,-2 z"
           style="fill:#f2f2f2;fill-opacity:1;fill-rule:nonzero;stroke:none"
           id="path4510"
           inkscape:connector-curvature="0" /><path
           d="m 30,49 4,0 0,2 -4,0 0,-2 z"
           style="fill:#f2f2f2;fill-opacity:1;fill-rule:nonzero;stroke:none"
           id="path4512"
           inkscape:connector-curvature="0" /></g></g></g></svg>