<?xml version="1.0" encoding="UTF-8" standalone="no"?>
<!-- Created with Inkscape (http://www.inkscape.org/) -->

<svg
   xmlns:dc="http://purl.org/dc/elements/1.1/"
   xmlns:cc="http://creativecommons.org/ns#"
   xmlns:rdf="http://www.w3.org/1999/02/22-rdf-syntax-ns#"
   xmlns:svg="http://www.w3.org/2000/svg"
   xmlns="http://www.w3.org/2000/svg"
   xmlns:sodipodi="http://sodipodi.sourceforge.net/DTD/sodipodi-0.dtd"
   xmlns:inkscape="http://www.inkscape.org/namespaces/inkscape"
   id="svg3161"
   version="1.1"
   inkscape:version="0.48.5 r10040"
   width="64"
   height="64"
   xml:space="preserve"
   sodipodi:docname="Coleco - ColecoVision ADAM.svg"
   inkscape:export-filename="/Users/margetts/Desktop/Icon Workshop/Monochrome Plus June/png/Coleco - ColecoVision ADAM.png"
   inkscape:export-xdpi="360"
   inkscape:export-ydpi="360"><metadata
     id="metadata3167"><rdf:RDF><cc:Work
         rdf:about=""><dc:format>image/svg+xml</dc:format><dc:type
           rdf:resource="http://purl.org/dc/dcmitype/StillImage" /><dc:title></dc:title></cc:Work></rdf:RDF></metadata><defs
     id="defs3165"><clipPath
       clipPathUnits="userSpaceOnUse"
       id="clipPath3175"><path
         d="M 0,64 64,64 64,0 0,0 0,64 z"
         id="path3177"
         inkscape:connector-curvature="0" /></clipPath></defs><sodipodi:namedview
     pagecolor="#ffffff"
     bordercolor="#666666"
     borderopacity="1"
     objecttolerance="10"
     gridtolerance="10"
     guidetolerance="10"
     inkscape:pageopacity="0"
     inkscape:pageshadow="2"
     inkscape:window-width="1676"
     inkscape:window-height="1005"
     id="namedview3163"
     showgrid="false"
     inkscape:zoom="10.4125"
     inkscape:cx="27.947179"
     inkscape:cy="40"
     inkscape:window-x="4"
     inkscape:window-y="1"
     inkscape:window-maximized="1"
     inkscape:current-layer="g3169" /><g
     id="g3169"
     inkscape:groupmode="layer"
     inkscape:label="Coleco - ColecoVision ADAM"
     transform="matrix(1.25,0,0,-1.25,0,64)"><g
       id="g3171"
       transform="scale(0.8,0.8)"><g
         id="g3173"
         clip-path="url(#clipPath3175)"><path
           d="m 58,33 -1,0 0,2 1,0 0,-2 z m 0,-3 -2,0 0,2 2,0 0,-2 z m 0,-3 -2,0 0,2 2,0 0,-2 z m 0,-3 -2,0 0,2 2,0 0,-2 z m -4,12 c -1.104,0 -2,0.896 -2,2 0,1.104 0.896,2 2,2 0.58,0 1.099,-0.251 1.464,-0.646 0.371,-0.293 0.614,-0.743 0.614,-1.254 0,-0.275 -0.075,-0.531 -0.197,-0.757 C 55.607,36.563 54.873,36 54,36 m 1,-6 -2,0 0,2 2,0 0,-2 z m 0,-3 -2,0 0,2 2,0 0,-2 z m 0,-3 -2,0 0,2 2,0 0,-2 z m -3,6 -2,0 0,2 2,0 0,-2 z m 0,-3 -2,0 0,2 2,0 0,-2 z m 0,-3 -2,0 0,2 2,0 0,-2 z m -2,11 1,0 0,-2 -1,0 0,2 z m -2,-7 -2,0 0,2 2,0 0,-2 z m -3,9 2,0 0,-2 -2,0 0,2 z m 0,-6 -2,0 0,2 2,0 0,-2 z m 0,-3 -2,0 0,2 2,0 0,-2 z m 0,-3 -2,0 0,2 2,0 0,-2 z m -3,12 2,0 0,-2 -2,0 0,2 z m 0,-9 -2,0 0,2 2,0 0,-2 z m -3,9 2,0 0,-2 -2,0 0,2 z m 0,-6 0,-2 -2,0 -2,0 0,2 2,0 0,3 2,0 0,-3 z m 0,-5 -4,0 0,2 4,0 0,-2 z m -5,8 2,0 0,-2 -2,0 0,2 z m 0,-5 -2,0 0,2 2,0 0,-2 z m 0,-3 -2,0 0,2 2,0 0,-2 z m -2,-3 -18,0 0,2 18,0 0,-2 z m -19,11 2,0 0,-2 -2,0 0,2 z m 0,-5 -2,0 0,2 2,0 0,-2 z m 0,-3 -2,0 0,2 2,0 0,-2 z m -3,8 2,0 0,-2 -2,0 0,2 z m 0,-5 -4,0 0,2 4,0 0,-2 z m 0,-3 -4,0 0,2 4,0 0,-2 z m -1,-3 -2,0 0,2 2,0 0,-2 z m -3,11 3,0 0,-2 -3,0 0,2 z m 0,3 2,0 0,-2 -2,0 0,2 z m 0,3 2,0 0,-2 -2,0 0,2 z m 3,-3 2,0 0,-2 -2,0 0,2 z m 0,3 2,0 0,-2 -2,0 0,2 z m 3,-3 2,0 0,-2 -2,0 0,2 z m 0,3 3,0 0,-2 -3,0 0,2 z m 4,0 3,0 0,-2 -3,0 0,2 z m 1,-9 2,0 0,-2 -2,0 0,2 z m 0,-3 2,0 0,-2 -2,0 0,2 z m -1,6 2,0 0,-2 -2,0 0,2 z m -1,3 2,0 0,-2 -2,0 0,2 z m 1,-11 -2,0 0,2 2,0 0,-2 z m -2,5 2,0 0,-2 -2,0 0,2 z m 6,4 -2,0 0,2 2,0 0,-2 z m 0,5 3,0 0,-2 -3,0 0,2 z m 1,-3 2,0 0,-2 -2,0 0,2 z m -1,-6 2,0 0,-2 -2,0 0,2 z m -1,3 2,0 0,-2 -2,0 0,2 z m 1,-6 2,0 0,-2 -2,0 0,2 z m 4,4 -2,0 0,2 2,0 0,-2 z m 1,-6 -2,0 0,2 2,0 0,-2 z m -2,5 2,0 0,-2 -2,0 0,2 z m 1,6 2,0 0,-2 -2,0 0,2 z m 0,3 3,0 0,-2 -3,0 0,2 z m 4,0 3,0 0,-2 -3,0 0,2 z m 1,-9 2,0 0,-2 -2,0 0,2 z m 0,-3 2,0 0,-2 -2,0 0,2 z m -1,6 2,0 0,-2 -2,0 0,2 z m -1,3 2,0 0,-2 -2,0 0,2 z m -1,-6 2,0 0,-2 -2,0 0,2 z m -1,3 2,0 0,-2 -2,0 0,2 z m 1,-6 2,0 0,-2 -2,0 0,2 z m 6,7 -2,0 0,2 2,0 0,-2 z m 1,-3 -2,0 0,2 2,0 0,-2 z m 2,3 -2,0 0,2 2,0 0,-2 z m -3,5 3,0 0,-2 -3,0 0,2 z m 4,-3 2,0 0,-2 -2,0 0,2 z m 0,3 2,0 0,-2 -2,0 0,2 z m 3,0 2,0 0,-2 -2,0 0,2 z m 3,0 2,0 0,-2 -2,0 0,2 z m 3,0 2,0 0,-2 -2,0 0,2 z M 5,22 59,22 59,42 5,42 5,22 z"
           style="fill:#f2f2f2;fill-opacity:1;fill-rule:nonzero;stroke:none"
           id="path3179"
           inkscape:connector-curvature="0" /></g></g></g></svg>