<?xml version="1.0" encoding="UTF-8" standalone="no"?>
<!-- Generator: Adobe Illustrator 16.0.0, SVG Export Plug-In . SVG Version: 6.00 Build 0)  -->

<svg
   xmlns:dc="http://purl.org/dc/elements/1.1/"
   xmlns:cc="http://creativecommons.org/ns#"
   xmlns:rdf="http://www.w3.org/1999/02/22-rdf-syntax-ns#"
   xmlns:svg="http://www.w3.org/2000/svg"
   xmlns="http://www.w3.org/2000/svg"
   xmlns:sodipodi="http://sodipodi.sourceforge.net/DTD/sodipodi-0.dtd"
   xmlns:inkscape="http://www.inkscape.org/namespaces/inkscape"
   version="1.1"
   id="Calque_1"
   x="0px"
   y="0px"
   width="64px"
   height="64px"
   viewBox="0 0 64 64"
   enable-background="new 0 0 64 64"
   xml:space="preserve"
   inkscape:version="0.91 r13725"
   sodipodi:docname="Coleco - ColecoVision.svg"
   inkscape:export-filename="C:\Users\lollo78\Desktop\Coleco - ColecoVision.png"
   inkscape:export-xdpi="360"
   inkscape:export-ydpi="360"><metadata
     id="metadata8"><rdf:RDF><cc:Work
         rdf:about=""><dc:format>image/svg+xml</dc:format><dc:type
           rdf:resource="http://purl.org/dc/dcmitype/StillImage" /></cc:Work></rdf:RDF></metadata><defs
     id="defs6" /><sodipodi:namedview
     pagecolor="#ffffff"
     bordercolor="#666666"
     borderopacity="1"
     objecttolerance="10"
     gridtolerance="10"
     guidetolerance="10"
     inkscape:pageopacity="0"
     inkscape:pageshadow="2"
     inkscape:window-width="1615"
     inkscape:window-height="1026"
     id="namedview4"
     showgrid="false"
     showguides="true"
     inkscape:guide-bbox="true"
     inkscape:zoom="5.6568541"
     inkscape:cx="23.937193"
     inkscape:cy="31.783966"
     inkscape:window-x="1985"
     inkscape:window-y="24"
     inkscape:window-maximized="1"
     inkscape:current-layer="Calque_1" /><rect
     style="fill:#ffffff;fill-opacity:1"
     id="rect3348"
     width="4.1523438"
     height="3.8632812"
     x="-16.464844"
     y="78.726562" /><path
     style="fill:#f2f2f2;fill-opacity:1"
     d="m 19.352982,1.5234375 0,17.5530205 2.818866,3.257939 0,1.04969 1.022985,0 -0.0493,5.644903 -1.022986,0 0,0.949034 -2.769566,2.91489 0,29.609039 25.270598,-0.0041 0,-29.627527 -2.91489,-2.908727 0,-0.967522 -1.018876,0 0,-5.624361 1.018876,0 0,-1.031202 2.91489,-3.264101 0,-17.5509672 z m 12.647624,1.9594348 c 4.646602,0 8.692833,3.95248 8.692833,8.5990817 0,4.646602 -4.046231,8.692833 -8.692833,8.692833 -4.646602,0 -8.692833,-4.046231 -8.692833,-8.692833 0,-4.6466017 4.046231,-8.5990817 8.692833,-8.5990817 z m -0.01233,1.0335143 c -4.161584,6.386e-4 -7.633456,3.4421569 -7.633354,7.5655674 -1.02e-4,4.12341 3.471764,7.564929 7.633355,7.565567 4.162393,4.86e-4 7.635512,-3.44136 7.63541,-7.565567 1.02e-4,-4.1242057 -3.473013,-7.5660534 -7.635411,-7.5655674 z m -0.02054,1.3281189 c 3.557779,0 6.309345,2.7515771 6.309345,6.3093445 0,3.557779 -2.751566,6.309345 -6.309345,6.309345 -3.557778,0 -6.309344,-2.751566 -6.309344,-6.309345 0,-3.5577674 2.751566,-6.3093445 6.309344,-6.3093445 z m -0.01644,1.1418856 c -3.025094,-4.72e-4 -5.205827,2.1793419 -5.206488,5.2044359 -4.72e-4,3.025894 2.180593,5.20696 5.206488,5.206487 3.025093,-6.62e-4 5.204905,-2.181394 5.204433,-5.206487 C 37.155068,9.1665355 34.975587,6.9870533 31.951296,6.9863911 Z M 19.32495,21.122427 l 0,9.825173 1.400956,-1.470798 0,-0.983954 0.949915,0 0.03287,-4.439097 -0.982782,0 0,-1.31057 z m 25.253749,0.0062 -1.40301,1.620753 0,1.310571 -0.891252,0 0.03287,4.439096 0.858385,0 0,0.983955 1.40301,1.470797 z m -17.17792,3.954263 9.201993,0 c 0.268942,0 0.813458,0.2179 0.813458,0.486842 l 0,2.029942 c 0,0.268941 -0.544516,0.484787 -0.813458,0.484787 l -9.201993,0 c -0.268941,0 -0.813457,-0.215846 -0.813457,-0.484787 l 0,-2.029942 c 0,-0.268942 0.544516,-0.486842 0.813457,-0.486842 z m 3.665162,11.425428 1.83028,0 c 1.011563,0 1.828226,0.339614 1.828226,0.757995 l 0,3.781758 c 0,0.418383 -0.816661,0.757994 -1.828226,0.757994 l -1.83028,0 c -1.011563,0 -1.828225,-0.339611 -1.828225,-0.757994 l 0,-3.781758 c 0,-0.418381 0.816662,-0.757995 1.828225,-0.757995 z m -8.23934,0.0041 1.830279,0 c 1.011565,0 1.828226,0.339611 1.828226,0.757995 l 0,3.781756 c 0,0.418384 -0.816661,0.755941 -1.828226,0.755941 l -1.830279,0 c -1.011565,0 -1.828218,-0.337557 -1.828226,-0.755941 l 0,-3.781756 c 0,-0.418384 0.816661,-0.757995 1.828226,-0.757995 z m 16.47868,0.0041 1.830281,0 c 1.011565,0 1.828225,0.337557 1.828225,0.755941 l 0,3.78381 c 0,0.418384 -0.81666,0.755941 -1.828225,0.755941 l -1.830281,0 c -1.011561,0 -1.828225,-0.337557 -1.828225,-0.755941 l 0,-3.78381 c 0,-0.418384 0.816664,-0.755941 1.828225,-0.755941 z m -17.641592,0.768024 0,3.784293 4.088314,0 0,-3.784293 z m 8.282479,0.0082 0,3.784293 4.088313,0 0,-3.784293 z m 8.257829,0 0,3.784293 4.088313,0 0,-3.784293 z m -7.183248,5.306203 1.828226,0 c 1.011564,0 1.83028,0.337557 1.83028,0.755941 l 0,3.781756 c 0,0.418384 -0.818716,0.757995 -1.83028,0.757995 l -1.828226,0 c -1.011564,0 -1.83028,-0.339611 -1.83028,-0.757995 l 0,-3.781756 c 0,-0.418384 0.818716,-0.755941 1.83028,-0.755941 z m -8.23934,0.0021 1.828225,0 c 1.011565,0 1.830281,0.339611 1.830281,0.757994 l 0,3.781757 c 0,0.418383 -0.818716,0.757992 -1.830281,0.757996 l -1.828225,0 c -1.011565,-10e-7 -1.83028,-0.339613 -1.83028,-0.757996 l 0,-3.781757 c 0,-0.418383 0.818715,-0.757994 1.83028,-0.757994 z m 16.478681,0.0041 1.828226,0 c 1.011564,0 1.830279,0.339612 1.830279,0.757995 l 0,3.781757 c 0,0.418383 -0.818715,0.75594 -1.830279,0.75594 l -1.828226,0 c -1.011563,0 -1.83028,-0.337557 -1.83028,-0.75594 l 0,-3.781757 c 0,-0.418383 0.818717,-0.757995 1.83028,-0.757995 z m -17.602563,0.776241 0,3.784293 4.088314,0 0,-3.784293 z m 8.282479,0.0082 0,3.784293 4.088313,0 0,-3.784293 z m 8.257829,0 0,3.784293 4.088312,0 5.04e-4,-3.784293 z m -7.156544,5.297987 1.83028,0 c 1.011563,-10e-7 1.828225,0.337557 1.828225,0.755941 l 0,3.78381 c 0,0.418384 -0.816662,0.755941 -1.828225,0.755941 l -1.83028,0 c -1.011563,0 -1.828226,-0.337557 -1.828226,-0.755941 l 0,-3.78381 c 0,-0.418384 0.816663,-0.755943 1.828226,-0.755941 z m -8.239341,0.0041 1.830281,0 c 1.011564,0 1.828225,0.337557 1.828225,0.75594 l 0,3.783811 c 0,0.418383 -0.816661,0.755941 -1.828225,0.755941 l -1.830281,0 c -1.011564,0 -1.828225,-0.337558 -1.828225,-0.755941 l 0,-3.783811 c 0,-0.418383 0.816661,-0.75594 1.828225,-0.75594 z m 16.478682,0.0041 1.830279,0 c 1.011565,0 1.828227,0.337557 1.828227,0.75594 l 0,3.781757 c 0,0.418383 -0.816662,0.757994 -1.828227,0.757994 l -1.830279,0 c -1.011564,0 -1.828226,-0.339611 -1.828226,-0.757994 l 0,-3.781757 c 0,-0.418383 0.816662,-0.75594 1.828226,-0.75594 z m -17.639538,0.737211 0,3.784294 4.088313,0 0,-3.784294 z m 8.282478,0.0084 0,3.784201 4.181276,-1.75e-4 0,-3.784293 z m 8.241637,0 0,3.784201 4.121442,0 0,-3.784201 z m -7.10543,5.334695 1.828225,0 c 1.011564,0 1.83028,0.337557 1.83028,0.755941 l 0,3.78381 c 0,0.418384 -0.818716,0.755941 -1.83028,0.755941 l -1.828225,0 c -1.011564,0 -1.83028,-0.337557 -1.83028,-0.755941 l 0,-3.78381 c 0,-0.418384 0.818716,-0.755941 1.83028,-0.755941 z m -8.239341,0.0041 1.828226,0 c 1.011565,0 1.83028,0.337557 1.83028,0.755941 l 0,3.78381 c 0,0.418384 -0.818715,0.755944 -1.83028,0.755941 l -1.828226,0 c -1.011565,10e-7 -1.83028,-0.337557 -1.83028,-0.755941 l 0,-3.78381 c 0,-0.418384 0.818715,-0.755941 1.83028,-0.755941 z m 16.478681,0.0041 1.828226,0 c 1.011564,1e-6 1.83028,0.337562 1.83028,0.75594 l 0,3.783812 c 0,0.418383 -0.818716,0.75594 -1.83028,0.75594 l -1.828226,0 c -1.011563,0 -1.830279,-0.337557 -1.830279,-0.75594 l 0,-3.783812 c 0,-0.418381 0.818716,-0.755938 1.830279,-0.75594 z m -9.40201,0.712803 0,3.865978 4.169999,0 0,-3.865978 z"
     id="rect3343-0"
     inkscape:connector-curvature="0"
     sodipodi:nodetypes="cccccccccccccccccccccssssscccccssssscccccccccccccccccccccccsssssssssssssssssssssssscssssssssssscccccccccccccccssssssssssssssssssssssssssscccccccccccccccssssssssssssssssssssssssssscccccccccccccccsssssssssssssssssssssssssssccccc" /><g
     id="g3427" /></svg>