<?xml version="1.0" encoding="UTF-8" standalone="no"?>
<!-- Created with Inkscape (http://www.inkscape.org/) -->

<svg
   xmlns:dc="http://purl.org/dc/elements/1.1/"
   xmlns:cc="http://creativecommons.org/ns#"
   xmlns:rdf="http://www.w3.org/1999/02/22-rdf-syntax-ns#"
   xmlns:svg="http://www.w3.org/2000/svg"
   xmlns="http://www.w3.org/2000/svg"
   xmlns:sodipodi="http://sodipodi.sourceforge.net/DTD/sodipodi-0.dtd"
   xmlns:inkscape="http://www.inkscape.org/namespaces/inkscape"
   id="svg3219"
   version="1.1"
   inkscape:version="0.48.5 r10040"
   width="64"
   height="64"
   xml:space="preserve"
   sodipodi:docname="Coleco - ColecoVision ADAM-content.svg"
   inkscape:export-filename="/Users/margetts/Desktop/Icon Workshop/Monochrome Plus June/png/Coleco - ColecoVision ADAM-content.png"
   inkscape:export-xdpi="360"
   inkscape:export-ydpi="360"><metadata
     id="metadata3225"><rdf:RDF><cc:Work
         rdf:about=""><dc:format>image/svg+xml</dc:format><dc:type
           rdf:resource="http://purl.org/dc/dcmitype/StillImage" /><dc:title></dc:title></cc:Work></rdf:RDF></metadata><defs
     id="defs3223"><clipPath
       clipPathUnits="userSpaceOnUse"
       id="clipPath3233"><path
         d="M 0,64 64,64 64,0 0,0 0,64 z"
         id="path3235"
         inkscape:connector-curvature="0" /></clipPath></defs><sodipodi:namedview
     pagecolor="#ffffff"
     bordercolor="#666666"
     borderopacity="1"
     objecttolerance="10"
     gridtolerance="10"
     guidetolerance="10"
     inkscape:pageopacity="0"
     inkscape:pageshadow="2"
     inkscape:window-width="1676"
     inkscape:window-height="1005"
     id="namedview3221"
     showgrid="false"
     inkscape:zoom="10.4125"
     inkscape:cx="27.947179"
     inkscape:cy="40"
     inkscape:window-x="4"
     inkscape:window-y="1"
     inkscape:window-maximized="1"
     inkscape:current-layer="g3227" /><g
     id="g3227"
     inkscape:groupmode="layer"
     inkscape:label="Coleco - ColecoVision ADAM-content"
     transform="matrix(1.25,0,0,-1.25,0,64)"><g
       id="g3229"
       transform="scale(0.8,0.8)"><g
         id="g3231"
         clip-path="url(#clipPath3233)"><g
           id="g3237"
           transform="translate(43,32)"><path
             d="M 0,0 C -1.656,0 -3,1.343 -3,3 -3,4.657 -1.656,6 0,6 1.656,6 3,4.657 3,3 3,1.343 1.656,0 0,0 M -5,1 C -5,0.447 -5.447,0 -6,0 l -10,0 c -0.553,0 -1,0.447 -1,1 l 0,4 c 0,0.553 0.447,1 1,1 l 10,0 c 0.553,0 1,-0.447 1,-1 L -5,1 z M -22,0 c -1.656,0 -3,1.343 -3,3 0,1.657 1.344,3 3,3 1.656,0 3,-1.343 3,-3 0,-1.657 -1.344,-3 -3,-3 m -4,-1 30,0 0,8 -30,0 0,-8 z M 14.5,15 C 14.224,15 14,15.224 14,15.5 14,15.776 14.224,16 14.5,16 14.776,16 15,15.776 15,15.5 15,15.224 14.776,15 14.5,15 m 0,-31 c -0.276,0 -0.5,0.224 -0.5,0.5 0,0.276 0.224,0.5 0.5,0.5 0.276,0 0.5,-0.224 0.5,-0.5 0,-0.276 -0.224,-0.5 -0.5,-0.5 M 13,-4 c 0,-1.104 -0.896,-2 -2,-2 l -44,0 c -1.104,0 -2,0.896 -2,2 l 0,16 c 0,1.104 0.896,2 2,2 l 44,0 c 1.104,0 2,-0.896 2,-2 l 0,-16 z m -49.5,19 c -0.276,0 -0.5,0.224 -0.5,0.5 0,0.276 0.224,0.5 0.5,0.5 0.276,0 0.5,-0.224 0.5,-0.5 0,-0.276 -0.224,-0.5 -0.5,-0.5 m 0,-31 c -0.276,0 -0.5,0.224 -0.5,0.5 0,0.276 0.224,0.5 0.5,0.5 0.276,0 0.5,-0.224 0.5,-0.5 0,-0.276 -0.224,-0.5 -0.5,-0.5 M 14,17 -36,17 c -1.104,0 -2,-0.896 -2,-2 l 0,-30 c 0,-1.104 0.896,-2 2,-2 l 6,0 1,5 c 0,0 0,2 2,2 l 31.997,0 C 7,-10 7,-12 7,-12 l 1,-5 6,0 c 1.104,0 2,0.896 2,2 l 0,30 c 0,1.104 -0.896,2 -2,2 M 5,-2 -27,-2 -27,8 5,8 5,-2 z m 6,15 -44,0 c -0.553,0 -1,-0.447 -1,-1 l 0,-16 c 0,-0.553 0.447,-1 1,-1 l 44,0 c 0.553,0 1,0.447 1,1 l 0,16 c 0,0.553 -0.447,1 -1,1 M 2,-16 c -0.553,0 -1,0.447 -1,1 0,0.553 0.447,1 1,1 0.553,0 1,-0.447 1,-1 0,-0.553 -0.447,-1 -1,-1 m -5,1 c -0.553,0 -1,0.447 -1,1 0,0.553 0.447,1 1,1 0.553,0 1,-0.447 1,-1 0,-0.553 -0.447,-1 -1,-1 m -8,1 c -0.553,0 -1,0.447 -1,1 0,0.553 0.447,1 1,1 0.553,0 1,-0.447 1,-1 0,-0.553 -0.447,-1 -1,-1 m -8,-1 c -0.553,0 -1,0.447 -1,1 0,0.553 0.447,1 1,1 0.553,0 1,-0.447 1,-1 0,-0.553 -0.447,-1 -1,-1 m -5,-1 c -0.553,0 -1,0.447 -1,1 0,0.553 0.447,1 1,1 0.553,0 1,-0.447 1,-1 0,-0.553 -0.447,-1 -1,-1 m 30,4 c 0,0 0,1 -1.003,1 L -27,-11 c -1,0 -1,-1 -1,-1 l -1,-5 36,0 -1,5 z"
             style="fill:#f2f2f2;fill-opacity:1;fill-rule:nonzero;stroke:none"
             id="path3239"
             inkscape:connector-curvature="0" /></g></g></g></g></svg>