<?xml version="1.0" encoding="UTF-8" standalone="no"?>
<!-- Created with Inkscape (http://www.inkscape.org/) -->

<svg
   xmlns:dc="http://purl.org/dc/elements/1.1/"
   xmlns:cc="http://creativecommons.org/ns#"
   xmlns:rdf="http://www.w3.org/1999/02/22-rdf-syntax-ns#"
   xmlns:svg="http://www.w3.org/2000/svg"
   xmlns="http://www.w3.org/2000/svg"
   xmlns:sodipodi="http://sodipodi.sourceforge.net/DTD/sodipodi-0.dtd"
   xmlns:inkscape="http://www.inkscape.org/namespaces/inkscape"
   id="svg3201"
   version="1.1"
   inkscape:version="0.48.5 r10040"
   width="64"
   height="64"
   xml:space="preserve"
   sodipodi:docname="Commodore - 64.svg"
   inkscape:export-filename="/Users/margetts/Desktop/Icon Workshop/Monochrome Plus June/png/Commodore - 64.png"
   inkscape:export-xdpi="360"
   inkscape:export-ydpi="360"><metadata
     id="metadata3207"><rdf:RDF><cc:Work
         rdf:about=""><dc:format>image/svg+xml</dc:format><dc:type
           rdf:resource="http://purl.org/dc/dcmitype/StillImage" /><dc:title></dc:title></cc:Work></rdf:RDF></metadata><defs
     id="defs3205"><clipPath
       clipPathUnits="userSpaceOnUse"
       id="clipPath3217"><path
         d="M 0,64 64,64 64,0 0,0 0,64 z"
         id="path3219"
         inkscape:connector-curvature="0" /></clipPath></defs><sodipodi:namedview
     pagecolor="#ffffff"
     bordercolor="#666666"
     borderopacity="1"
     objecttolerance="10"
     gridtolerance="10"
     guidetolerance="10"
     inkscape:pageopacity="0"
     inkscape:pageshadow="2"
     inkscape:window-width="1676"
     inkscape:window-height="1005"
     id="namedview3203"
     showgrid="false"
     inkscape:zoom="3.8"
     inkscape:cx="6.9736842"
     inkscape:cy="40"
     inkscape:window-x="4"
     inkscape:window-y="1"
     inkscape:window-maximized="1"
     inkscape:current-layer="g3209" /><g
     id="g3209"
     inkscape:groupmode="layer"
     inkscape:label="Commodore - 64"
     transform="matrix(1.25,0,0,-1.25,0,64)"><g
       id="g3229"
       transform="scale(0.8,0.8)"><path
         id="path3211"
         style="fill:#f2f2f2;fill-opacity:1;fill-rule:nonzero;stroke:none"
         d="m 5,42 54,0 0,1 -54,0 0,-1 z"
         inkscape:connector-curvature="0" /><g
         id="g3213"><g
           clip-path="url(#clipPath3217)"
           id="g3215"><g
             transform="translate(58,45)"
             id="g3221"><path
               id="path3223"
               style="fill:#f2f2f2;fill-opacity:1;fill-rule:nonzero;stroke:none"
               d="m 0,0 -52,0 c -0.552,0 -1,-0.448 -1,-1 L 1,-1 C 1,-0.448 0.553,0 0,0"
               inkscape:connector-curvature="0" /></g><path
             id="path3225"
             style="fill:#f2f2f2;fill-opacity:1;fill-rule:nonzero;stroke:none"
             d="m 56,35 -4,0 0,2 4,0 0,-2 z m 0,-3 -4,0 0,2 4,0 0,-2 z m 0,-3 -4,0 0,2 4,0 0,-2 z m 0,-3 -4,0 0,2 4,0 0,-2 z m -7,9 -2,0 0,2 2,0 0,-2 z m 0,-3 -3,0 0,2 3,0 0,-2 z m -1,-3 -4,0 0,2 4,0 0,-2 z m 0,-3 -2,0 0,2 2,0 0,-2 z m -3,0 -2,0 0,2 2,0 0,-2 z m -3,0 -3,0 0,2 3,0 0,-2 z m -4,5 2,0 0,-2 -2,0 0,2 z m 0,-5 -2,0 0,2 2,0 0,-2 z m 0,-3 -23,0 0,2 23,0 0,-2 z m -24,8 2,0 0,-2 -2,0 0,2 z m 0,-5 -3,0 0,2 3,0 0,-2 z m -4,3 -2,0 0,2 2,0 0,-2 z m 0,-3 -2,0 0,2 2,0 0,-2 z m 3,3 -2,0 0,2 2,0 0,-2 z m -5,5 4,0 0,-2 -4,0 0,2 z m 0,3 2,0 0,-2 -2,0 0,2 z m 3,0 2,0 0,-2 -2,0 0,2 z m 4,-5 -2,0 0,2 2,0 0,-2 z m -1,5 2,0 0,-2 -2,0 0,2 z m 3,0 2,0 0,-2 -2,0 0,2 z m 3,0 2,0 0,-2 -2,0 0,2 z m 3,0 2,0 0,-2 -2,0 0,2 z m 3,0 2,0 0,-2 -2,0 0,2 z m 3,0 2,0 0,-2 -2,0 0,2 z m 3,0 2,0 0,-2 -2,0 0,2 z m 3,-6 2,0 0,-2 -2,0 0,2 z m -1,3 2,0 0,-2 -2,0 0,2 z m -1,-6 2,0 0,-2 -2,0 0,2 z m -1,3 2,0 0,-2 -2,0 0,2 z m -1,3 2,0 0,-2 -2,0 0,2 z m -1,-6 2,0 0,-2 -2,0 0,2 z m -1,3 2,0 0,-2 -2,0 0,2 z m -1,3 2,0 0,-2 -2,0 0,2 z m -1,-6 2,0 0,-2 -2,0 0,2 z m -1,3 2,0 0,-2 -2,0 0,2 z m -1,3 2,0 0,-2 -2,0 0,2 z m -1,-6 2,0 0,-2 -2,0 0,2 z m -1,3 2,0 0,-2 -2,0 0,2 z m -1,3 2,0 0,-2 -2,0 0,2 z m -1,-6 2,0 0,-2 -2,0 0,2 z m -1,3 2,0 0,-2 -2,0 0,2 z m -1,3 2,0 0,-2 -2,0 0,2 z m -1,-6 2,0 0,-2 -2,0 0,2 z m -1,3 2,0 0,-2 -2,0 0,2 z m 0,-5 -2,0 0,2 2,0 0,-2 z m -1,8 2,0 0,-2 -2,0 0,2 z m 19,3 2,0 0,-2 -2,0 0,2 z m 4,-5 -2,0 0,2 2,0 0,-2 z m -1,5 2,0 0,-2 -2,0 0,2 z m 2,-3 2,0 0,-2 -2,0 0,2 z m 1,-3 2,0 0,-2 -2,0 0,2 z m 0,6 2,0 0,-2 -2,0 0,2 z m 4,-5 -2,0 0,2 2,0 0,-2 z m -1,5 2,0 0,-2 -2,0 0,2 z M 7,22 57,22 57,38 7,38 7,22 z"
             inkscape:connector-curvature="0" /><path
             id="path3227"
             style="fill:#f2f2f2;fill-opacity:1;fill-rule:nonzero;stroke:none"
             d="M 58,21 6,21 6,39 58,39 58,21 z M 5,41 5,39 5,38 5,22 5,20 c 0,-0.553 0.448,-1 1,-1 l 52,0 c 0.553,0 1,0.447 1,1 l 0,2 0,16 0,1 0,2 -54,0 z"
             inkscape:connector-curvature="0" /></g></g></g></g></svg>