<?xml version="1.0" encoding="UTF-8" standalone="no"?>
<!-- Created with Inkscape (http://www.inkscape.org/) -->

<svg
   xmlns:dc="http://purl.org/dc/elements/1.1/"
   xmlns:cc="http://creativecommons.org/ns#"
   xmlns:rdf="http://www.w3.org/1999/02/22-rdf-syntax-ns#"
   xmlns:svg="http://www.w3.org/2000/svg"
   xmlns="http://www.w3.org/2000/svg"
   xmlns:sodipodi="http://sodipodi.sourceforge.net/DTD/sodipodi-0.dtd"
   xmlns:inkscape="http://www.inkscape.org/namespaces/inkscape"
   id="svg3364"
   version="1.1"
   inkscape:version="0.48.5 r10040"
   width="64"
   height="64"
   xml:space="preserve"
   sodipodi:docname="Commodore Plus-4.svg"
   inkscape:export-filename="/Users/margetts/Desktop/Icon Workshop/Monochrome Plus June/png/Commodore Plus-4.png"
   inkscape:export-xdpi="360"
   inkscape:export-ydpi="360"><metadata
     id="metadata3370"><rdf:RDF><cc:Work
         rdf:about=""><dc:format>image/svg+xml</dc:format><dc:type
           rdf:resource="http://purl.org/dc/dcmitype/StillImage" /><dc:title></dc:title></cc:Work></rdf:RDF></metadata><defs
     id="defs3368" /><sodipodi:namedview
     pagecolor="#ffffff"
     bordercolor="#666666"
     borderopacity="1"
     objecttolerance="10"
     gridtolerance="10"
     guidetolerance="10"
     inkscape:pageopacity="0"
     inkscape:pageshadow="2"
     inkscape:window-width="1676"
     inkscape:window-height="1005"
     id="namedview3366"
     showgrid="false"
     inkscape:zoom="10.4125"
     inkscape:cx="27.947179"
     inkscape:cy="40"
     inkscape:window-x="4"
     inkscape:window-y="1"
     inkscape:window-maximized="1"
     inkscape:current-layer="g3372" /><g
     id="g3372"
     inkscape:groupmode="layer"
     inkscape:label="Commodore Plus-4"
     transform="matrix(1.25,0,0,-1.25,0,64)"><g
       id="g3386"
       transform="translate(-1,-3.6)"><path
         inkscape:connector-curvature="0"
         id="path3374"
         style="fill:#f2f2f2;fill-opacity:1;fill-rule:nonzero;stroke:none"
         d="m 9,32.8 4.8,0 0,0.8 -4.8,0 0,-0.8 z" /><path
         inkscape:connector-curvature="0"
         id="path3376"
         style="fill:#f2f2f2;fill-opacity:1;fill-rule:nonzero;stroke:none"
         d="m 14.6,32.8 4.8,0 0,0.8 -4.8,0 0,-0.8 z" /><path
         inkscape:connector-curvature="0"
         id="path3378"
         style="fill:#f2f2f2;fill-opacity:1;fill-rule:nonzero;stroke:none"
         d="m 20.2,32.8 4.7992,0 0,0.8 -4.7992,0 0,-0.8 z" /><path
         inkscape:connector-curvature="0"
         id="path3380"
         style="fill:#f2f2f2;fill-opacity:1;fill-rule:nonzero;stroke:none"
         d="m 25.8,32.8 4.8,0 0,0.8 -4.8,0 0,-0.8 z" /><g
         transform="matrix(0.8,0,0,0.8,5.8,32)"
         id="g3382"><path
           inkscape:connector-curvature="0"
           id="path3384"
           style="fill:#f2f2f2;fill-opacity:1;fill-rule:nonzero;stroke:none"
           d="M 0,0 2,3 50,3 52,0 0,0 z m 50,-10 -3,0 0,3 3,0 0,-3 z m -4,7 3,0 0,-3 -3,0 0,3 z m 0,-7 -3,0 0,3 3,0 0,-3 z m -1,4 -3,0 0,3 3,0 0,-3 z m 2,-8 -5,0 0,3 5,0 0,-3 z m -5,4 -3,0 0,3 3,0 0,-3 z m -1,4 -3,0 0,3 3,0 0,-3 z m 0,-8 -3,0 0,3 3,0 0,-3 z m -1,-4 -28,0 0,3 28,0 0,-3 z m -27,12 -3,0 0,3 3,0 0,-3 z m 1,-4 -3,0 0,3 3,0 0,-3 z m 3,-4 -3,0 0,3 3,0 0,-3 z m 0,8 -3,0 0,3 3,0 0,-3 z m 1,-4 -3,0 0,3 3,0 0,-3 z m 3,-4 -3,0 0,3 3,0 0,-3 z m 0,8 -3,0 0,3 3,0 0,-3 z m 1,-4 -3,0 0,3 3,0 0,-3 z m 3,-4 -3,0 0,3 3,0 0,-3 z m 0,8 -3,0 0,3 3,0 0,-3 z m 1,-4 -3,0 0,3 3,0 0,-3 z m 3,-4 -3,0 0,3 3,0 0,-3 z m 0,8 -3,0 0,3 3,0 0,-3 z m 1,-4 -3,0 0,3 3,0 0,-3 z m 3,-4 -3,0 0,3 3,0 0,-3 z m 0,8 -3,0 0,3 3,0 0,-3 z m 1,-4 -3,0 0,3 3,0 0,-3 z m 3,-4 -3,0 0,3 3,0 0,-3 z m 1,4 -3,0 0,3 3,0 0,-3 z m -1,4 -3,0 0,3 3,0 0,-3 z m -27,-5 3,0 0,-3 -3,0 0,3 z m 0,1 -3,0 0,3 3,0 0,-3 z m -1,4 -3,0 0,3 3,0 0,-3 z m 0,-8 -3,0 0,3 3,0 0,-3 z m -7,11 3,0 0,-3 -3,0 0,3 z m 4,-7 -4,0 0,3 4,0 0,-3 z m -1,-4 -3,0 0,3 3,0 0,-3 z M 5,5 30,5 30,4 5,4 5,5 z m 45,8 0,-1 -1,10e-4 L 49,13 3,13 3,12.056 2,12.057 2,13 -1,12.057 -1,0.743 -1,-20 53,-20 53,0.743 53,12.057 50,13 z" /></g></g></g></svg>