<?xml version="1.0" encoding="UTF-8" standalone="no"?>
<!-- Created with Inkscape (http://www.inkscape.org/) -->

<svg
   xmlns:dc="http://purl.org/dc/elements/1.1/"
   xmlns:cc="http://creativecommons.org/ns#"
   xmlns:rdf="http://www.w3.org/1999/02/22-rdf-syntax-ns#"
   xmlns:svg="http://www.w3.org/2000/svg"
   xmlns="http://www.w3.org/2000/svg"
   xmlns:sodipodi="http://sodipodi.sourceforge.net/DTD/sodipodi-0.dtd"
   xmlns:inkscape="http://www.inkscape.org/namespaces/inkscape"
   id="svg3276"
   version="1.1"
   inkscape:version="0.48.5 r10040"
   width="64"
   height="64"
   xml:space="preserve"
   sodipodi:docname="Commodore - Amiga.svg"
   inkscape:export-filename="/Users/margetts/Desktop/Icon Workshop/Monochrome Plus June/png/Commodore - Amiga.png"
   inkscape:export-xdpi="360"
   inkscape:export-ydpi="360"><metadata
     id="metadata3282"><rdf:RDF><cc:Work
         rdf:about=""><dc:format>image/svg+xml</dc:format><dc:type
           rdf:resource="http://purl.org/dc/dcmitype/StillImage" /><dc:title></dc:title></cc:Work></rdf:RDF></metadata><defs
     id="defs3280"><clipPath
       clipPathUnits="userSpaceOnUse"
       id="clipPath3300"><path
         d="M 0,64 64,64 64,0 0,0 0,64 z"
         id="path3302"
         inkscape:connector-curvature="0" /></clipPath></defs><sodipodi:namedview
     pagecolor="#ffffff"
     bordercolor="#666666"
     borderopacity="1"
     objecttolerance="10"
     gridtolerance="10"
     guidetolerance="10"
     inkscape:pageopacity="0"
     inkscape:pageshadow="2"
     inkscape:window-width="1676"
     inkscape:window-height="1005"
     id="namedview3278"
     showgrid="false"
     inkscape:zoom="3.8"
     inkscape:cx="40"
     inkscape:cy="40"
     inkscape:window-x="4"
     inkscape:window-y="1"
     inkscape:window-maximized="1"
     inkscape:current-layer="g3284" /><g
     id="g3284"
     inkscape:groupmode="layer"
     inkscape:label="Commodore - Amiga"
     transform="matrix(1.25,0,0,-1.25,0,64)"><g
       id="g3306"
       transform="matrix(0.8,0,0,0.8,0,0.4)"><g
         transform="translate(5,39)"
         id="g3286"><path
           id="path3288"
           style="fill:#f2f2f2;fill-opacity:1;fill-rule:nonzero;stroke:none"
           d="m 0,0 0,-6 43,0 0,2 9,0 0,-2 2,0 0,6 -54,0 z"
           inkscape:connector-curvature="0" /></g><path
         id="path3290"
         style="fill:#f2f2f2;fill-opacity:1;fill-rule:nonzero;stroke:none"
         d="m 5,40 52.999,0 0,1.001 L 5,41.001 5,40 z"
         inkscape:connector-curvature="0" /><path
         id="path3292"
         style="fill:#f2f2f2;fill-opacity:1;fill-rule:nonzero;stroke:none"
         d="m 5,42 52.999,0 0,1 L 5,43 5,42 z"
         inkscape:connector-curvature="0" /><path
         id="path3294"
         style="fill:#f2f2f2;fill-opacity:1;fill-rule:nonzero;stroke:none"
         d="m 59,44 -54,0 0,3 54,0 0,-3 z"
         inkscape:connector-curvature="0" /><g
         id="g3296"><g
           clip-path="url(#clipPath3300)"
           id="g3298"><path
             id="path3304"
             style="fill:#f2f2f2;fill-opacity:1;fill-rule:nonzero;stroke:none"
             d="m 58,26 -2,0 0,2 2,0 0,-2 z m 0,-3 -2,0 0,2 2,0 0,-2 z m 0,-6 -2,0 0,5 2,0 0,-5 z m -3,9 -2,0 0,2 2,0 0,-2 z m 0,-3 -2,0 0,2 2,0 0,-2 z m 0,-3 -2,0 0,2 2,0 0,-2 z m 0,-3 -2,0 0,2 2,0 0,-2 z m -3,9 -2,0 0,2 2,0 0,-2 z m 0,-3 -2,0 0,2 2,0 0,-2 z m 0,-3 -2,0 0,2 2,0 0,-2 z m 0,-3 -2,0 0,2 2,0 0,-2 z m -3,9 -2,0 0,2 2,0 0,-2 z m 0,-3 -2,0 0,2 2,0 0,-2 z m 0,-3 -2,0 0,2 2,0 0,-2 z m 0,-3 -2,0 0,2 2,0 0,-2 z m -3,0 -2,0 0,2 2,0 0,-2 z m -3,3 -2,0 0,2 2,0 0,-2 z m 0,-3 -2,0 0,2 2,0 0,-2 z m -3,0 -2,0 0,2 2,0 0,-2 z m -4,9 -3,0 0,2 3,0 0,-2 z m 0,-6 -1,0 -1,0 -2,0 0,2 2,0 0,3 2,0 0,-5 z m 0,-3 -2,0 0,2 2,0 0,-2 z m -3,0 -3,0 0,2 3,0 0,-2 z m -4,5 2,0 0,-2 -2,0 0,2 z m 0,-5 -18,0 0,2 18,0 0,-2 z m -19,8 2,0 0,-2 -2,0 0,2 z m 0,-5 -4,0 0,2 4,0 0,-2 z m 0,-3 -4,0 0,2 4,0 0,-2 z m -4,8 3,0 0,-2 -3,0 0,2 z m 0,3 2,0 0,-2 -2,0 0,2 z m 0,3 2,0 0,-2 -2,0 0,2 z m 3,-3 2,0 0,-2 -2,0 0,2 z m 0,3 2,0 0,-2 -2,0 0,2 z m 4,-11 -2,0 0,2 2,0 0,-2 z m -1,8 2,0 0,-2 -2,0 0,2 z m 0,3 2,0 0,-2 -2,0 0,2 z m 3,-8 -2,0 0,2 2,0 0,-2 z m 1,-3 -2,0 0,2 2,0 0,-2 z m -1,8 2,0 0,-2 -2,0 0,2 z m 0,3 2,0 0,-2 -2,0 0,2 z m 3,-8 -2,0 0,2 2,0 0,-2 z m 1,-3 -2,0 0,2 2,0 0,-2 z m -1,8 2,0 0,-2 -2,0 0,2 z m 0,3 2,0 0,-2 -2,0 0,2 z m 3,-8 -2,0 0,2 2,0 0,-2 z m 1,-3 -2,0 0,2 2,0 0,-2 z m -1,8 2,0 0,-2 -2,0 0,2 z m 0,3 2,0 0,-2 -2,0 0,2 z m 3,-8 -2,0 0,2 2,0 0,-2 z m 1,-3 -2,0 0,2 2,0 0,-2 z m -1,8 2,0 0,-2 -2,0 0,2 z m 0,3 2,0 0,-2 -2,0 0,2 z m 3,-8 -2,0 0,2 2,0 0,-2 z m 1,-3 -2,0 0,2 2,0 0,-2 z m -1,8 2,0 0,-2 -2,0 0,2 z m 3,-5 -2,0 0,2 2,0 0,-2 z m -3,8 2,0 0,-2 -2,0 0,2 z m 3,-3 2,0 0,-2 -2,0 0,2 z m 3,-5 -2,0 0,2 2,0 0,-2 z m -3,8 2,0 0,-2 -2,0 0,2 z m 3,0 2,0 0,-2 -2,0 0,2 z m 5,-3 3,0 0,-2 -3,0 0,2 z m 4,0 3,0 0,-2 -3,0 0,2 z M 5,32 5,17 c 0,-0.553 0.448,-1 1,-1 l 52,0 c 0.553,0 1,0.447 1,1 l 0,15 -54,0 z"
             inkscape:connector-curvature="0" /></g></g></g></g></svg>