<?xml version="1.0" encoding="UTF-8" standalone="no"?>
<!-- Created with Inkscape (http://www.inkscape.org/) -->

<svg
   xmlns:dc="http://purl.org/dc/elements/1.1/"
   xmlns:cc="http://creativecommons.org/ns#"
   xmlns:rdf="http://www.w3.org/1999/02/22-rdf-syntax-ns#"
   xmlns:svg="http://www.w3.org/2000/svg"
   xmlns="http://www.w3.org/2000/svg"
   xmlns:sodipodi="http://sodipodi.sourceforge.net/DTD/sodipodi-0.dtd"
   xmlns:inkscape="http://www.inkscape.org/namespaces/inkscape"
   id="svg3432"
   version="1.1"
   inkscape:version="0.48.5 r10040"
   width="64"
   height="64"
   xml:space="preserve"
   sodipodi:docname="Commodore Plus-4-content.svg"
   inkscape:export-filename="/Users/margetts/Desktop/Icon Workshop/Monochrome Plus June/png/Commodore Plus-4-content.png"
   inkscape:export-xdpi="360"
   inkscape:export-ydpi="360"><metadata
     id="metadata3438"><rdf:RDF><cc:Work
         rdf:about=""><dc:format>image/svg+xml</dc:format><dc:type
           rdf:resource="http://purl.org/dc/dcmitype/StillImage" /><dc:title></dc:title></cc:Work></rdf:RDF></metadata><defs
     id="defs3436"><clipPath
       clipPathUnits="userSpaceOnUse"
       id="clipPath3446"><path
         d="M 0,64 64,64 64,0 0,0 0,64 z"
         id="path3448"
         inkscape:connector-curvature="0" /></clipPath></defs><sodipodi:namedview
     pagecolor="#ffffff"
     bordercolor="#666666"
     borderopacity="1"
     objecttolerance="10"
     gridtolerance="10"
     guidetolerance="10"
     inkscape:pageopacity="0"
     inkscape:pageshadow="2"
     inkscape:window-width="1676"
     inkscape:window-height="1005"
     id="namedview3434"
     showgrid="false"
     inkscape:zoom="10.4125"
     inkscape:cx="27.947179"
     inkscape:cy="40"
     inkscape:window-x="4"
     inkscape:window-y="1"
     inkscape:window-maximized="1"
     inkscape:current-layer="g3440" /><g
     id="g3440"
     inkscape:groupmode="layer"
     inkscape:label="Commodore Plus-4-content"
     transform="matrix(1.25,0,0,-1.25,0,64)"><g
       id="g3442"
       transform="scale(0.8,0.8)"><g
         id="g3444"
         clip-path="url(#clipPath3446)"><g
           id="g3450"
           transform="translate(50,45)"><path
             d="m 0,0 c 0,-0.553 -0.447,-1 -1,-1 l -34,0 c -0.553,0 -1,0.447 -1,1 l 0,4 c 0,0.553 0.447,1 1,1 L -1,5 C -0.447,5 0,4.553 0,4 L 0,0 z m -14,-13 c 0,-2.209 -1.791,-4 -4,-4 -2.209,0 -4,1.791 -4,4 0,2.209 1.791,4 4,4 2.209,0 4,-1.791 4,-4 M 2,-2 C 2,-2.553 1.553,-3 1,-3 l -38,0 c -0.553,0 -1,0.447 -1,1 l 0,8 c 0,0.553 0.447,1 1,1 L 1,7 C 1.553,7 2,6.553 2,6 l 0,-8 z m -12,-15 c -0.553,0 -1,0.447 -1,1 0,0.553 0.447,1 1,1 0.553,0 1,-0.447 1,-1 0,-0.553 -0.447,-1 -1,-1 m -8,-2 c -3.313,0 -6,2.687 -6,6 0,3.313 2.687,6 6,6 3.313,0 6,-2.687 6,-6 0,-3.313 -2.687,-6 -6,-6 m 2,-11 c 0,-1.104 -0.896,-2 -2,-2 -1.104,0 -2,0.896 -2,2 l 0,6 c 0,1.104 0.896,2 2,2 1.104,0 2,-0.896 2,-2 l 0,-6 z M 5,-1 5,8 C 5,8.553 4.553,9 4,9 l -44,0 c -0.553,0 -1,-0.447 -1,-1 l 0,-42 c 0,-0.553 0.447,-1 1,-1 l 16,0 c 0,0.553 0.447,1 1,1 0.553,0 1,-0.447 1,-1 l 8,0 c 0,0.553 0.447,1 1,1 0.553,0 1,-0.447 1,-1 l 16,0 c 0.553,0 1,0.447 1,1 l 0,31 -1,0 0,2 1,0 z"
             style="fill:#f2f2f2;fill-opacity:1;fill-rule:nonzero;stroke:none"
             id="path3452"
             inkscape:connector-curvature="0" /></g></g></g></g></svg>