<?xml version="1.0" encoding="UTF-8" standalone="no"?>
<!-- Created with Inkscape (http://www.inkscape.org/) -->

<svg
   xmlns:dc="http://purl.org/dc/elements/1.1/"
   xmlns:cc="http://creativecommons.org/ns#"
   xmlns:rdf="http://www.w3.org/1999/02/22-rdf-syntax-ns#"
   xmlns:svg="http://www.w3.org/2000/svg"
   xmlns="http://www.w3.org/2000/svg"
   xmlns:sodipodi="http://sodipodi.sourceforge.net/DTD/sodipodi-0.dtd"
   xmlns:inkscape="http://www.inkscape.org/namespaces/inkscape"
   id="svg3326"
   version="1.1"
   inkscape:version="0.48.5 r10040"
   width="64"
   height="64"
   xml:space="preserve"
   sodipodi:docname="Commodore - VIC-20.svg"
   inkscape:export-filename="/Users/margetts/Desktop/Icon Workshop/Monochrome Plus June/png/Commodore - VIC-20.png"
   inkscape:export-xdpi="360"
   inkscape:export-ydpi="360"><metadata
     id="metadata3332"><rdf:RDF><cc:Work
         rdf:about=""><dc:format>image/svg+xml</dc:format><dc:type
           rdf:resource="http://purl.org/dc/dcmitype/StillImage" /><dc:title></dc:title></cc:Work></rdf:RDF></metadata><defs
     id="defs3330"><clipPath
       clipPathUnits="userSpaceOnUse"
       id="clipPath3342"><path
         d="M 0,64 64,64 64,0 0,0 0,64 z"
         id="path3344"
         inkscape:connector-curvature="0" /></clipPath></defs><sodipodi:namedview
     pagecolor="#ffffff"
     bordercolor="#666666"
     borderopacity="1"
     objecttolerance="10"
     gridtolerance="10"
     guidetolerance="10"
     inkscape:pageopacity="0"
     inkscape:pageshadow="2"
     inkscape:window-width="1676"
     inkscape:window-height="1005"
     id="namedview3328"
     showgrid="false"
     inkscape:zoom="10.4125"
     inkscape:cx="40"
     inkscape:cy="40"
     inkscape:window-x="4"
     inkscape:window-y="1"
     inkscape:window-maximized="1"
     inkscape:current-layer="g3334" /><g
     id="g3334"
     inkscape:groupmode="layer"
     inkscape:label="Commodore - VIC-20"
     transform="matrix(1.25,0,0,-1.25,0,64)"><g
       id="g3468"
       transform="translate(0,-3.8)"><path
         inkscape:connector-curvature="0"
         id="path3336"
         style="fill:#f2f2f2;fill-opacity:1;fill-rule:nonzero;stroke:none"
         d="m 4,37.4 43.2,0 0,0.8 -43.2,0 0,-0.8 z" /><g
         transform="matrix(0.8,0,0,0.8,0,3.8)"
         id="g3338"><g
           clip-path="url(#clipPath3342)"
           id="g3340"><g
             transform="translate(58,45)"
             id="g3346"><path
               inkscape:connector-curvature="0"
               id="path3348"
               style="fill:#f2f2f2;fill-opacity:1;fill-rule:nonzero;stroke:none"
               d="m 0,0 -52,0 c -0.552,0 -1,-0.448 -1,-1 L 1,-1 C 1,-0.448 0.553,0 0,0" /></g><path
             inkscape:connector-curvature="0"
             id="path3350"
             style="fill:#f2f2f2;fill-opacity:1;fill-rule:nonzero;stroke:none"
             d="m 44,37 2,0 0,-2 -2,0 0,2 z" /><path
             inkscape:connector-curvature="0"
             id="path3352"
             style="fill:#f2f2f2;fill-opacity:1;fill-rule:nonzero;stroke:none"
             d="m 45,32 -2,0 0,2 2,0 0,-2 z" /><path
             inkscape:connector-curvature="0"
             id="path3354"
             style="fill:#f2f2f2;fill-opacity:1;fill-rule:nonzero;stroke:none"
             d="m 41,37 2,0 0,-2 -2,0 0,2 z" /><path
             inkscape:connector-curvature="0"
             id="path3356"
             style="fill:#f2f2f2;fill-opacity:1;fill-rule:nonzero;stroke:none"
             d="m 41,31 2,0 0,-2 -2,0 0,2 z" /><path
             inkscape:connector-curvature="0"
             id="path3358"
             style="fill:#f2f2f2;fill-opacity:1;fill-rule:nonzero;stroke:none"
             d="m 40,34 2,0 0,-2 -2,0 0,2 z" /><path
             inkscape:connector-curvature="0"
             id="path3360"
             style="fill:#f2f2f2;fill-opacity:1;fill-rule:nonzero;stroke:none"
             d="m 38,37 2,0 0,-2 -2,0 0,2 z" /><path
             inkscape:connector-curvature="0"
             id="path3362"
             style="fill:#f2f2f2;fill-opacity:1;fill-rule:nonzero;stroke:none"
             d="m 39,32 -2,0 0,2 2,0 0,-2 z" /><path
             inkscape:connector-curvature="0"
             id="path3364"
             style="fill:#f2f2f2;fill-opacity:1;fill-rule:nonzero;stroke:none"
             d="m 35,37 2,0 0,-2 -2,0 0,2 z" /><path
             inkscape:connector-curvature="0"
             id="path3366"
             style="fill:#f2f2f2;fill-opacity:1;fill-rule:nonzero;stroke:none"
             d="m 16,34 2,0 0,-2 -2,0 0,2 z" /><path
             inkscape:connector-curvature="0"
             id="path3368"
             style="fill:#f2f2f2;fill-opacity:1;fill-rule:nonzero;stroke:none"
             d="m 17,26 -2,0 0,2 2,0 0,-2 z" /><path
             inkscape:connector-curvature="0"
             id="path3370"
             style="fill:#f2f2f2;fill-opacity:1;fill-rule:nonzero;stroke:none"
             d="m 17,31 2,0 0,-2 -2,0 0,2 z" /><path
             inkscape:connector-curvature="0"
             id="path3372"
             style="fill:#f2f2f2;fill-opacity:1;fill-rule:nonzero;stroke:none"
             d="m 18,28 2,0 0,-2 -2,0 0,2 z" /><path
             inkscape:connector-curvature="0"
             id="path3374"
             style="fill:#f2f2f2;fill-opacity:1;fill-rule:nonzero;stroke:none"
             d="m 19,34 2,0 0,-2 -2,0 0,2 z" /><path
             inkscape:connector-curvature="0"
             id="path3376"
             style="fill:#f2f2f2;fill-opacity:1;fill-rule:nonzero;stroke:none"
             d="m 20,31 2,0 0,-2 -2,0 0,2 z" /><path
             inkscape:connector-curvature="0"
             id="path3378"
             style="fill:#f2f2f2;fill-opacity:1;fill-rule:nonzero;stroke:none"
             d="m 21,28 2,0 0,-2 -2,0 0,2 z" /><path
             inkscape:connector-curvature="0"
             id="path3380"
             style="fill:#f2f2f2;fill-opacity:1;fill-rule:nonzero;stroke:none"
             d="m 22,34 2,0 0,-2 -2,0 0,2 z" /><path
             inkscape:connector-curvature="0"
             id="path3382"
             style="fill:#f2f2f2;fill-opacity:1;fill-rule:nonzero;stroke:none"
             d="m 23,31 2,0 0,-2 -2,0 0,2 z" /><path
             inkscape:connector-curvature="0"
             id="path3384"
             style="fill:#f2f2f2;fill-opacity:1;fill-rule:nonzero;stroke:none"
             d="m 24,28 2,0 0,-2 -2,0 0,2 z" /><path
             inkscape:connector-curvature="0"
             id="path3386"
             style="fill:#f2f2f2;fill-opacity:1;fill-rule:nonzero;stroke:none"
             d="m 25,34 2,0 0,-2 -2,0 0,2 z" /><path
             inkscape:connector-curvature="0"
             id="path3388"
             style="fill:#f2f2f2;fill-opacity:1;fill-rule:nonzero;stroke:none"
             d="m 26,31 2,0 0,-2 -2,0 0,2 z" /><path
             inkscape:connector-curvature="0"
             id="path3390"
             style="fill:#f2f2f2;fill-opacity:1;fill-rule:nonzero;stroke:none"
             d="m 27,28 2,0 0,-2 -2,0 0,2 z" /><path
             inkscape:connector-curvature="0"
             id="path3392"
             style="fill:#f2f2f2;fill-opacity:1;fill-rule:nonzero;stroke:none"
             d="m 28,34 2,0 0,-2 -2,0 0,2 z" /><path
             inkscape:connector-curvature="0"
             id="path3394"
             style="fill:#f2f2f2;fill-opacity:1;fill-rule:nonzero;stroke:none"
             d="m 29,31 2,0 0,-2 -2,0 0,2 z" /><path
             inkscape:connector-curvature="0"
             id="path3396"
             style="fill:#f2f2f2;fill-opacity:1;fill-rule:nonzero;stroke:none"
             d="m 30,28 2,0 0,-2 -2,0 0,2 z" /><path
             inkscape:connector-curvature="0"
             id="path3398"
             style="fill:#f2f2f2;fill-opacity:1;fill-rule:nonzero;stroke:none"
             d="m 31,34 2,0 0,-2 -2,0 0,2 z" /><path
             inkscape:connector-curvature="0"
             id="path3400"
             style="fill:#f2f2f2;fill-opacity:1;fill-rule:nonzero;stroke:none"
             d="m 32,31 2,0 0,-2 -2,0 0,2 z" /><path
             inkscape:connector-curvature="0"
             id="path3402"
             style="fill:#f2f2f2;fill-opacity:1;fill-rule:nonzero;stroke:none"
             d="m 33,28 2,0 0,-2 -2,0 0,2 z" /><path
             inkscape:connector-curvature="0"
             id="path3404"
             style="fill:#f2f2f2;fill-opacity:1;fill-rule:nonzero;stroke:none"
             d="m 34,34 2,0 0,-2 -2,0 0,2 z" /><path
             inkscape:connector-curvature="0"
             id="path3406"
             style="fill:#f2f2f2;fill-opacity:1;fill-rule:nonzero;stroke:none"
             d="m 35,31 2,0 0,-2 -2,0 0,2 z" /><path
             inkscape:connector-curvature="0"
             id="path3408"
             style="fill:#f2f2f2;fill-opacity:1;fill-rule:nonzero;stroke:none"
             d="m 32,37 2,0 0,-2 -2,0 0,2 z" /><path
             inkscape:connector-curvature="0"
             id="path3410"
             style="fill:#f2f2f2;fill-opacity:1;fill-rule:nonzero;stroke:none"
             d="m 29,37 2,0 0,-2 -2,0 0,2 z" /><path
             inkscape:connector-curvature="0"
             id="path3412"
             style="fill:#f2f2f2;fill-opacity:1;fill-rule:nonzero;stroke:none"
             d="m 26,37 2,0 0,-2 -2,0 0,2 z" /><path
             inkscape:connector-curvature="0"
             id="path3414"
             style="fill:#f2f2f2;fill-opacity:1;fill-rule:nonzero;stroke:none"
             d="m 23,37 2,0 0,-2 -2,0 0,2 z" /><path
             inkscape:connector-curvature="0"
             id="path3416"
             style="fill:#f2f2f2;fill-opacity:1;fill-rule:nonzero;stroke:none"
             d="m 20,37 2,0 0,-2 -2,0 0,2 z" /><path
             inkscape:connector-curvature="0"
             id="path3418"
             style="fill:#f2f2f2;fill-opacity:1;fill-rule:nonzero;stroke:none"
             d="m 17,37 2,0 0,-2 -2,0 0,2 z" /><path
             inkscape:connector-curvature="0"
             id="path3420"
             style="fill:#f2f2f2;fill-opacity:1;fill-rule:nonzero;stroke:none"
             d="m 14,37 2,0 0,-2 -2,0 0,2 z" /><path
             inkscape:connector-curvature="0"
             id="path3422"
             style="fill:#f2f2f2;fill-opacity:1;fill-rule:nonzero;stroke:none"
             d="m 15,32 -2,0 0,2 2,0 0,-2 z" /><path
             inkscape:connector-curvature="0"
             id="path3424"
             style="fill:#f2f2f2;fill-opacity:1;fill-rule:nonzero;stroke:none"
             d="m 11,37 2,0 0,-2 -2,0 0,2 z" /><path
             inkscape:connector-curvature="0"
             id="path3426"
             style="fill:#f2f2f2;fill-opacity:1;fill-rule:nonzero;stroke:none"
             d="m 8,37 2,0 0,-2 -2,0 0,2 z" /><path
             inkscape:connector-curvature="0"
             id="path3428"
             style="fill:#f2f2f2;fill-opacity:1;fill-rule:nonzero;stroke:none"
             d="m 8,34 4,0 0,-2 -4,0 0,2 z" /><path
             inkscape:connector-curvature="0"
             id="path3430"
             style="fill:#f2f2f2;fill-opacity:1;fill-rule:nonzero;stroke:none"
             d="m 13,29 -2,0 0,2 2,0 0,-2 z" /><path
             inkscape:connector-curvature="0"
             id="path3432"
             style="fill:#f2f2f2;fill-opacity:1;fill-rule:nonzero;stroke:none"
             d="m 10,26 -2,0 0,2 2,0 0,-2 z" /><path
             inkscape:connector-curvature="0"
             id="path3434"
             style="fill:#f2f2f2;fill-opacity:1;fill-rule:nonzero;stroke:none"
             d="m 10,29 -2,0 0,2 2,0 0,-2 z" /><path
             inkscape:connector-curvature="0"
             id="path3436"
             style="fill:#f2f2f2;fill-opacity:1;fill-rule:nonzero;stroke:none"
             d="m 14,26 -3,0 0,2 3,0 0,-2 z" /><path
             inkscape:connector-curvature="0"
             id="path3438"
             style="fill:#f2f2f2;fill-opacity:1;fill-rule:nonzero;stroke:none"
             d="m 14,31 2,0 0,-2 -2,0 0,2 z" /><path
             inkscape:connector-curvature="0"
             id="path3440"
             style="fill:#f2f2f2;fill-opacity:1;fill-rule:nonzero;stroke:none"
             d="m 38,23 -23,0 0,2 23,0 0,-2 z" /><path
             inkscape:connector-curvature="0"
             id="path3442"
             style="fill:#f2f2f2;fill-opacity:1;fill-rule:nonzero;stroke:none"
             d="m 38,26 -2,0 0,2 2,0 0,-2 z" /><path
             inkscape:connector-curvature="0"
             id="path3444"
             style="fill:#f2f2f2;fill-opacity:1;fill-rule:nonzero;stroke:none"
             d="m 38,31 2,0 0,-2 -2,0 0,2 z" /><path
             inkscape:connector-curvature="0"
             id="path3446"
             style="fill:#f2f2f2;fill-opacity:1;fill-rule:nonzero;stroke:none"
             d="m 42,26 -3,0 0,2 3,0 0,-2 z" /><path
             inkscape:connector-curvature="0"
             id="path3448"
             style="fill:#f2f2f2;fill-opacity:1;fill-rule:nonzero;stroke:none"
             d="m 45,26 -2,0 0,2 2,0 0,-2 z" /><path
             inkscape:connector-curvature="0"
             id="path3450"
             style="fill:#f2f2f2;fill-opacity:1;fill-rule:nonzero;stroke:none"
             d="m 48,26 -2,0 0,2 2,0 0,-2 z" /><path
             inkscape:connector-curvature="0"
             id="path3452"
             style="fill:#f2f2f2;fill-opacity:1;fill-rule:nonzero;stroke:none"
             d="m 48,29 -4,0 0,2 4,0 0,-2 z" /><path
             inkscape:connector-curvature="0"
             id="path3454"
             style="fill:#f2f2f2;fill-opacity:1;fill-rule:nonzero;stroke:none"
             d="m 49,32 -3,0 0,2 3,0 0,-2 z" /><path
             inkscape:connector-curvature="0"
             id="path3456"
             style="fill:#f2f2f2;fill-opacity:1;fill-rule:nonzero;stroke:none"
             d="m 49,35 -2,0 0,2 2,0 0,-2 z" /><path
             inkscape:connector-curvature="0"
             id="path3458"
             style="fill:#f2f2f2;fill-opacity:1;fill-rule:nonzero;stroke:none"
             d="m 56,26 -4,0 0,2 4,0 0,-2 z" /><path
             inkscape:connector-curvature="0"
             id="path3460"
             style="fill:#f2f2f2;fill-opacity:1;fill-rule:nonzero;stroke:none"
             d="m 56,29 -4,0 0,2 4,0 0,-2 z" /><path
             inkscape:connector-curvature="0"
             id="path3462"
             style="fill:#f2f2f2;fill-opacity:1;fill-rule:nonzero;stroke:none"
             d="m 56,32 -4,0 0,2 4,0 0,-2 z" /><path
             inkscape:connector-curvature="0"
             id="path3464"
             style="fill:#f2f2f2;fill-opacity:1;fill-rule:nonzero;stroke:none"
             d="m 56,35 -4,0 0,2 4,0 0,-2 z" /><path
             inkscape:connector-curvature="0"
             id="path3466"
             style="fill:#f2f2f2;fill-opacity:1;fill-rule:nonzero;stroke:none"
             d="M 58,21 6,21 6,39 58,39 58,21 z M 5,41 5,39 5,38 5,22 5,20 c 0,-0.553 0.448,-1 1,-1 l 52,0 c 0.553,0 1,0.447 1,1 l 0,2 0,16 0,1 0,2 -54,0 z" /></g></g></g></g></svg>