<?xml version="1.0" encoding="utf-8"?>
<!-- Generator: Adobe Illustrator 16.0.0, SVG Export Plug-In . SVG Version: 6.00 Build 0)  -->
<!DOCTYPE svg PUBLIC "-//W3C//DTD SVG 1.1//EN" "http://www.w3.org/Graphics/SVG/1.1/DTD/svg11.dtd">
<svg version="1.1" id="Calque_1" xmlns="http://www.w3.org/2000/svg" xmlns:xlink="http://www.w3.org/1999/xlink" x="0px" y="0px"
	 width="64px" height="64px" viewBox="0 0 64 64" enable-background="new 0 0 64 64" xml:space="preserve">
<path id="core_settings" fill="#F2F2F2" d="M32,21c-6.075,0-11,4.925-11,11s4.925,11,11,11s11-4.925,11-11S38.075,21,32,21z M32,41
	c-4.971,0-9-4.029-9-9s4.029-9,9-9s9,4.029,9,9S36.971,41,32,41z M36.925,32.743C36.962,32.499,37,32.255,37,32
	s-0.038-0.499-0.075-0.743l-1.034-0.151c-0.101-0.44-0.275-0.85-0.508-1.221l0.628-0.845c-0.296-0.401-0.649-0.754-1.051-1.051
	l-0.845,0.628c-0.371-0.232-0.78-0.407-1.221-0.509l-0.151-1.033C32.499,27.038,32.255,27,32,27s-0.499,0.038-0.743,0.075
	l-0.151,1.033c-0.44,0.102-0.85,0.276-1.221,0.509l-0.845-0.628c-0.401,0.297-0.755,0.649-1.051,1.051l0.628,0.845
	c-0.232,0.371-0.407,0.78-0.508,1.221l-1.034,0.151C27.038,31.501,27,31.745,27,32s0.038,0.499,0.075,0.743l1.034,0.151
	c0.101,0.44,0.275,0.85,0.508,1.221l-0.628,0.845c0.296,0.401,0.649,0.754,1.051,1.051l0.845-0.628
	c0.371,0.232,0.78,0.407,1.221,0.509l0.151,1.033C31.501,36.962,31.745,37,32,37s0.499-0.038,0.743-0.075l0.151-1.033
	c0.44-0.102,0.85-0.276,1.221-0.509l0.845,0.628c0.401-0.297,0.755-0.649,1.051-1.051l-0.628-0.845
	c0.232-0.371,0.407-0.78,0.508-1.221L36.925,32.743z M32,34c-1.104,0-2-0.896-2-2s0.896-2,2-2c1.104,0,2,0.896,2,2S33.104,34,32,34z
	"/>
</svg>
