<?xml version="1.0" encoding="utf-8"?>
<!-- Generator: Adobe Illustrator 16.0.0, SVG Export Plug-In . SVG Version: 6.00 Build 0)  -->
<!DOCTYPE svg PUBLIC "-//W3C//DTD SVG 1.1//EN" "http://www.w3.org/Graphics/SVG/1.1/DTD/svg11.dtd">
<svg version="1.1" id="Calque_1" xmlns="http://www.w3.org/2000/svg" xmlns:xlink="http://www.w3.org/1999/xlink" x="0px" y="0px"
	 width="64px" height="64px" viewBox="0 0 64 64" enable-background="new 0 0 64 64" xml:space="preserve">
<path id="core_disk_options" fill="#F2F2F2" d="M32,21c-6.075,0-11,4.925-11,11s4.925,11,11,11s11-4.925,11-11S38.075,21,32,21z
	 M32,41c-4.971,0-9-4.029-9-9s4.029-9,9-9s9,4.029,9,9S36.971,41,32,41z M32,27c-2.762,0-5,2.238-5,5s2.238,5,5,5s5-2.238,5-5
	S34.762,27,32,27z M32,34c-1.105,0-2-0.895-2-2s0.895-2,2-2s2,0.895,2,2S33.105,34,32,34z M33,32c0,0.553-0.447,1-1,1s-1-0.447-1-1
	s0.447-1,1-1S33,31.447,33,32z"/>
</svg>
