<?xml version="1.0" encoding="utf-8"?>
<!-- Generator: Adobe Illustrator 16.0.0, SVG Export Plug-In . SVG Version: 6.00 Build 0)  -->
<!DOCTYPE svg PUBLIC "-//W3C//DTD SVG 1.1//EN" "http://www.w3.org/Graphics/SVG/1.1/DTD/svg11.dtd">
<svg version="1.1" id="Calque_1" xmlns="http://www.w3.org/2000/svg" xmlns:xlink="http://www.w3.org/1999/xlink" x="0px" y="0px"
	 width="64px" height="64px" viewBox="0 0 64 64" enable-background="new 0 0 64 64" xml:space="preserve">
<path id="core_cheat_options" fill="#F2F2F2" d="M32,21c-6.075,0-11,4.925-11,11s4.925,11,11,11s11-4.925,11-11S38.075,21,32,21z
	 M32,41c-4.971,0-9-4.029-9-9s4.029-9,9-9s9,4.029,9,9S36.971,41,32,41z M32,26c-2,1-5,5-5,7s2,3,5,0c3,3,5,2,5,0S34,27,32,26z
	 M30,38h4l-2-5L30,38z"/>
</svg>
