<?xml version="1.0" encoding="utf-8"?>
<!-- Generator: Adobe Illustrator 16.0.0, SVG Export Plug-In . SVG Version: 6.00 Build 0)  -->
<!DOCTYPE svg PUBLIC "-//W3C//DTD SVG 1.1//EN" "http://www.w3.org/Graphics/SVG/1.1/DTD/svg11.dtd">
<svg version="1.1"
	 id="svg2" inkscape:export-filename="/home/kivutar/Bureau/lakka-menu/reload.png" inkscape:export-xdpi="90" inkscape:version="0.48.4 r9939" inkscape:export-ydpi="90" sodipodi:docname="reload.svg" xmlns:svg="http://www.w3.org/2000/svg" xmlns:cc="http://creativecommons.org/ns#" xmlns:sodipodi="http://sodipodi.sourceforge.net/DTD/sodipodi-0.dtd" xmlns:rdf="http://www.w3.org/1999/02/22-rdf-syntax-ns#" xmlns:dc="http://purl.org/dc/elements/1.1/" xmlns:inkscape="http://www.inkscape.org/namespaces/inkscape"
	 xmlns="http://www.w3.org/2000/svg" xmlns:xlink="http://www.w3.org/1999/xlink" x="0px" y="0px" width="64px" height="64px"
	 viewBox="0 128 64 64" enable-background="new 0 128 64 64" xml:space="preserve">
<path id="Games" fill="#F2F2F2" d="M32,133c-22.415,0-27,4.554-27,27.001S9.514,187,32,187c22.489,0,27-4.543,27-26.999
	C59,137.543,54.415,133,32,133z M24.934,154.212c-1.115,1.672-1.918,3.579-2.396,5.722C21.062,159.698,19,160,19,160
	S20.718,154.98,24.934,154.212z M20,172c0,0,1.5-6.393,4-3.893S20,172,20,172z M32,173c0,0,0.433-2.076,0.15-3.558
	c2.219-0.605,4.088-1.591,5.652-2.83C36.791,170.7,32,173,32,173z M27,169.107l-4-4c0-20,22-18.056,22-18.056S45,169.107,27,169.107
	z M37,152.107c-1.104,0-2,0.896-2,2s0.896,2,2,2s2-0.896,2-2S38.104,152.107,37,152.107z"/>
</svg>
