<?xml version="1.0" encoding="UTF-8" standalone="no"?>
<!-- Created with Inkscape (http://www.inkscape.org/) -->

<svg
   xmlns:dc="http://purl.org/dc/elements/1.1/"
   xmlns:cc="http://creativecommons.org/ns#"
   xmlns:rdf="http://www.w3.org/1999/02/22-rdf-syntax-ns#"
   xmlns:svg="http://www.w3.org/2000/svg"
   xmlns="http://www.w3.org/2000/svg"
   xmlns:sodipodi="http://sodipodi.sourceforge.net/DTD/sodipodi-0.dtd"
   xmlns:inkscape="http://www.inkscape.org/namespaces/inkscape"
   id="svg3703"
   version="1.1"
   inkscape:version="0.48.5 r10040"
   width="64"
   height="64"
   xml:space="preserve"
   sodipodi:docname="Dinothawr-content.svg"
   inkscape:export-filename="/Users/margetts/Desktop/Icon Workshop/Monochrome Plus June/png/Dinothawr-content.png"
   inkscape:export-xdpi="360"
   inkscape:export-ydpi="360"><metadata
     id="metadata3709"><rdf:RDF><cc:Work
         rdf:about=""><dc:format>image/svg+xml</dc:format><dc:type
           rdf:resource="http://purl.org/dc/dcmitype/StillImage" /><dc:title></dc:title></cc:Work></rdf:RDF></metadata><defs
     id="defs3707"><clipPath
       clipPathUnits="userSpaceOnUse"
       id="clipPath3717"><path
         d="M 0,64 64,64 64,0 0,0 0,64 z"
         id="path3719"
         inkscape:connector-curvature="0" /></clipPath></defs><sodipodi:namedview
     pagecolor="#ffffff"
     bordercolor="#666666"
     borderopacity="1"
     objecttolerance="10"
     gridtolerance="10"
     guidetolerance="10"
     inkscape:pageopacity="0"
     inkscape:pageshadow="2"
     inkscape:window-width="1676"
     inkscape:window-height="1005"
     id="namedview3705"
     showgrid="false"
     inkscape:zoom="3.8"
     inkscape:cx="6.9736842"
     inkscape:cy="40"
     inkscape:window-x="4"
     inkscape:window-y="1"
     inkscape:window-maximized="1"
     inkscape:current-layer="g3711" /><g
     id="g3711"
     inkscape:groupmode="layer"
     inkscape:label="Dinothawr-content"
     transform="matrix(1.25,0,0,-1.25,0,64)"><g
       id="g3713"
       transform="matrix(0.80000518,0,0,0.80000518,1.9652933e-5,-4.8576207e-4)"><g
         id="g3715"
         clip-path="url(#clipPath3717)"><g
           id="g3721"
           transform="translate(24.2979,40.2954)"><path
             d="m 0,0 c 0.405,0 0.818,-0.044 1.233,-0.139 0.515,-0.118 1.019,-0.278 1.573,-0.5 -0.238,0.192 -0.492,0.36 -0.758,0.502 C 1.794,-0.058 1.543,0.011 1.29,0.069 1.033,0.127 0.778,0.167 0.524,0.189 0.239,0.155 -0.073,0.084 -0.399,-0.015 -0.267,-0.006 -0.134,0 0,0"
             style="fill:#f2f2f2;fill-opacity:1;fill-rule:nonzero;stroke:none"
             id="path3723"
             inkscape:connector-curvature="0" /></g><g
           id="g3725"
           transform="translate(28.9277,35.6572)"><path
             d="m 0,0 c -0.052,-0.42 -0.187,-0.828 -0.419,-1.202 0.106,0.137 0.205,0.285 0.294,0.449 C -0.043,-0.604 -0.002,-0.338 0,0"
             style="fill:#f2f2f2;fill-opacity:1;fill-rule:nonzero;stroke:none"
             id="path3727"
             inkscape:connector-curvature="0" /></g><g
           id="g3729"
           transform="translate(46.376,44.5205)"><path
             d="m 0,0 c -2.303,-0.675 -4.538,-1.74 -6.719,-2.88 1.097,0.526 2.248,0.994 3.426,1.472 C -2.203,-0.965 -1.087,-0.511 0,0"
             style="fill:#f2f2f2;fill-opacity:1;fill-rule:nonzero;stroke:none"
             id="path3731"
             inkscape:connector-curvature="0" /></g><g
           id="g3733"
           transform="translate(50.7656,35.9063)"><path
             d="m 0,0 c -0.995,-0.258 -1.965,-0.625 -2.915,-1.028 0.443,0.165 0.899,0.321 1.364,0.479 C -1.038,-0.375 -0.515,-0.196 0,0"
             style="fill:#f2f2f2;fill-opacity:1;fill-rule:nonzero;stroke:none"
             id="path3735"
             inkscape:connector-curvature="0" /></g><g
           id="g3737"
           transform="translate(49.3525,40.269)"><path
             d="m 0,0 c -1.563,-0.395 -3.088,-0.97 -4.579,-1.597 0.703,0.261 1.431,0.505 2.171,0.753 C -1.612,-0.578 -0.798,-0.302 0,0"
             style="fill:#f2f2f2;fill-opacity:1;fill-rule:nonzero;stroke:none"
             id="path3739"
             inkscape:connector-curvature="0" /></g><g
           id="g3741"
           transform="translate(34.4648,29.7832)"><path
             d="m 0,0 c -0.057,0.027 -0.123,0.004 -0.15,-0.052 -1.408,-2.908 -3.763,-5.923 -5.871,-8.599 0.062,-0.042 0.124,-0.085 0.186,-0.127 2.112,2.683 4.471,5.702 5.886,8.628 C 0.078,-0.094 0.056,-0.026 0,0"
             style="fill:#f2f2f2;fill-opacity:1;fill-rule:nonzero;stroke:none"
             id="path3743"
             inkscape:connector-curvature="0" /></g><g
           id="g3745"
           transform="translate(25.228,32.4097)"><path
             d="M 0,0 0.022,0.008 C 0.186,0.068 0.35,0.126 0.515,0.184 1.577,0.558 2.669,0.945 3.417,1.855 3.221,1.669 2.999,1.527 2.76,1.413 2.97,1.609 3.142,1.822 3.281,2.045 2.579,1.141 1.531,0.771 0.431,0.384 0.272,0.329 0.114,0.273 -0.043,0.215 l -0.02,0 c -0.412,0 -0.815,-0.107 -1.206,-0.21 -0.641,-0.17 -1.247,-0.33 -1.873,-0.044 -0.489,0.225 -0.903,0.459 -1.255,0.699 0.576,-0.638 1.288,-1.062 2.032,-1.068 0.109,0.002 0.217,0.011 0.324,0.025 0.057,0.009 0.113,0.019 0.17,0.033 0.507,0.202 1.033,0.332 1.554,0.455 C -0.364,0.064 -0.406,0.018 -0.445,-0.032 -0.304,-0.011 -0.164,0.004 -0.024,0 L 0,0 z"
             style="fill:#f2f2f2;fill-opacity:1;fill-rule:nonzero;stroke:none"
             id="path3747"
             inkscape:connector-curvature="0" /></g><g
           id="g3749"
           transform="translate(19.7783,37.6436)"><path
             d="M 0,0 C 0.436,0.871 2.451,2.126 4.121,2.637 1.964,2.483 0.09,1.108 -0.542,-0.456 -0.854,-1.228 -1.227,-3.021 1.052,-4.574 -0.059,-3.343 -0.662,-1.322 0,0"
             style="fill:#f2f2f2;fill-opacity:1;fill-rule:nonzero;stroke:none"
             id="path3751"
             inkscape:connector-curvature="0" /></g><g
           id="g3753"
           transform="translate(29.0127,34.8086)"><path
             d="m 0,0 c -0.109,-0.201 -0.234,-0.379 -0.369,-0.543 0.242,0.23 0.444,0.531 0.583,0.953 C 0.402,0.977 0.238,1.77 -0.082,2.663 -0.071,2.615 -0.061,2.571 -0.053,2.536 0.137,1.669 0.266,0.486 0,0"
             style="fill:#f2f2f2;fill-opacity:1;fill-rule:nonzero;stroke:none"
             id="path3755"
             inkscape:connector-curvature="0" /></g><g
           id="g3757"
           transform="translate(34.2705,31.7368)"><path
             d="M 0,0 C -0.398,0.584 -0.654,1.326 -0.731,2.167 -0.747,2.166 -0.762,2.164 -0.777,2.162 -0.708,1.542 -0.607,1.026 -0.48,0.771 -0.338,0.482 -0.175,0.229 0,0"
             style="fill:#f2f2f2;fill-opacity:1;fill-rule:nonzero;stroke:none"
             id="path3759"
             inkscape:connector-curvature="0" /></g><g
           id="g3761"
           transform="translate(28.6987,37.4375)"><path
             d="M 0,0 C -0.239,1.016 -0.595,1.781 -0.9,1.92 -1.143,2.032 -1.373,2.13 -1.595,2.219 -0.875,1.636 -0.308,0.845 0,0"
             style="fill:#f2f2f2;fill-opacity:1;fill-rule:nonzero;stroke:none"
             id="path3763"
             inkscape:connector-curvature="0" /></g><g
           id="g3765"
           transform="translate(33.3818,35.8286)"><path
             d="M 0,0 C 0.065,-0.181 0.127,-0.357 0.191,-0.536 0.277,0.067 0.46,0.678 0.74,1.222 0.575,1.583 0.398,1.945 0.211,2.311 0.198,2.28 0.185,2.251 0.174,2.218 0.044,1.825 -0.011,0.95 0,0"
             style="fill:#f2f2f2;fill-opacity:1;fill-rule:nonzero;stroke:none"
             id="path3767"
             inkscape:connector-curvature="0" /></g><g
           id="g3769"
           transform="translate(34.9922,38.1958)"><path
             d="M 0,0 C -0.018,0.137 0.023,0.279 0.128,0.384 0.963,1.224 1.895,1.908 2.893,2.503 2.815,2.461 2.737,2.42 2.659,2.378 1.644,1.833 0.595,1.269 -0.439,0.75 -0.505,0.716 -0.574,0.701 -0.644,0.701 c -0.037,0 -0.074,0.006 -0.11,0.015 -0.191,-0.151 -0.38,-0.309 -0.524,-0.533 0.19,-0.367 0.37,-0.73 0.538,-1.092 C -0.536,-0.565 -0.291,-0.254 0,0"
             style="fill:#f2f2f2;fill-opacity:1;fill-rule:nonzero;stroke:none"
             id="path3771"
             inkscape:connector-curvature="0" /></g><g
           id="g3773"
           transform="translate(33.5928,38.1392)"><path
             d="M 0,0 C 0.035,0.087 0.075,0.168 0.121,0.24 -0.5,1.435 -1.229,2.667 -2.025,4.008 -2.601,4.979 -3.206,5.997 -3.82,7.088 -3.905,7.09 -3.99,7.092 -4.075,7.094 -3.437,5.957 -2.81,4.9 -2.212,3.895 -1.388,2.505 -0.633,1.232 0,0"
             style="fill:#f2f2f2;fill-opacity:1;fill-rule:nonzero;stroke:none"
             id="path3775"
             inkscape:connector-curvature="0" /></g><g
           id="g3777"
           transform="translate(33.4443,33.8906)"><path
             d="m 0,0 c 0.016,0 0.033,0.007 0.049,0.008 -0.066,0.592 -0.104,1.278 -0.111,1.93 -1.075,2.929 -2.4,6.041 -4.398,9.408 l -0.459,0 c -0.206,0 -0.39,-0.014 -0.558,-0.037 C -3.059,7.318 -1.609,3.686 -0.423,0.297 -0.358,0.115 -0.186,0 0,0"
             style="fill:#f2f2f2;fill-opacity:1;fill-rule:nonzero;stroke:none"
             id="path3779"
             inkscape:connector-curvature="0" /></g><g
           id="g3781"
           transform="translate(28.9277,35.6572)"><path
             d="M 0,0 C 0.073,0.585 -0.016,1.195 -0.229,1.78 -0.218,1.735 -0.208,1.691 -0.198,1.645 -0.064,1.036 0.003,0.453 0,0"
             style="fill:#f2f2f2;fill-opacity:1;fill-rule:nonzero;stroke:none"
             id="path3783"
             inkscape:connector-curvature="0" /></g><g
           id="g3785"
           transform="translate(28.1294,39.3784)"><path
             d="M 0,0 C 0.298,-0.656 0.585,-1.305 0.801,-1.907 0.69,-1.437 0.416,-0.438 0,0"
             style="fill:#f2f2f2;fill-opacity:1;fill-rule:nonzero;stroke:none"
             id="path3787"
             inkscape:connector-curvature="0" /></g><g
           id="g3789"
           transform="translate(50.5615,32.8589)"><path
             d="M 0,0 C 0.34,0.139 0.687,0.282 1.026,0.44 0.341,0.231 -0.326,-0.08 -0.979,-0.418 -0.662,-0.272 -0.335,-0.137 0,0"
             style="fill:#f2f2f2;fill-opacity:1;fill-rule:nonzero;stroke:none"
             id="path3791"
             inkscape:connector-curvature="0" /></g><g
           id="g3793"
           transform="translate(35,30.9688)"><path
             d="M 0,0 C 0.223,-0.191 0.454,-0.36 0.687,-0.516 0.643,-0.448 0.595,-0.384 0.546,-0.324 0.352,-0.236 0.17,-0.128 0,0"
             style="fill:#f2f2f2;fill-opacity:1;fill-rule:nonzero;stroke:none"
             id="path3795"
             inkscape:connector-curvature="0" /></g><g
           id="g3797"
           transform="translate(38.3086,35.7036)"><path
             d="M 0,0 C -0.294,0 -0.726,-0.303 -0.781,-0.625 -0.805,-0.756 -0.782,-1 -0.374,-1.146 l 0.01,-0.003 c 0.017,-0.004 0.038,-0.008 0.063,-0.008 0.075,0 0.183,0.032 0.295,0.17 0.182,0.222 0.317,0.642 0.217,0.853 C 0.171,-0.049 0.094,0 0,0 m -0.104,-0.734 c -0.078,-0.139 -0.145,-0.208 -0.202,-0.199 -0.188,0.069 -0.274,0.16 -0.256,0.27 0.036,0.204 0.371,0.439 0.567,0.439 0.033,-0.032 0.026,-0.265 -0.109,-0.51"
             style="fill:#f2f2f2;fill-opacity:1;fill-rule:nonzero;stroke:none"
             id="path3799"
             inkscape:connector-curvature="0" /></g><g
           id="g3801"
           transform="translate(33.7549,34.0166)"><path
             d="m 0,0 c 0.08,-0.979 0.429,-2.036 1.18,-2.712 -0.238,0.286 -0.417,0.632 -0.417,1.231 0,0.813 -0.999,2.233 -0.475,3.322 C 0.396,2.063 0.506,2.268 0.62,2.459 0.576,2.563 0.529,2.667 0.483,2.772 0.194,2.151 0.034,1.452 -0.007,0.787 0.032,0.678 0.073,0.566 0.111,0.457 0.17,0.291 0.12,0.115 0,0"
             style="fill:#f2f2f2;fill-opacity:1;fill-rule:nonzero;stroke:none"
             id="path3803"
             inkscape:connector-curvature="0" /></g><g
           id="g3805"
           transform="translate(29.5688,42.2017)"><path
             d="m 0,0 c -0.014,0.06 -0.074,0.099 -0.134,0.083 -0.06,-0.014 -0.098,-0.074 -0.084,-0.134 0.234,-1.001 0.523,-1.988 0.803,-2.943 0.64,-2.183 1.301,-4.44 1.301,-6.908 0,-0.062 0.05,-0.113 0.112,-0.113 0.062,0 0.112,0.051 0.112,0.113 0,2.5 -0.666,4.773 -1.31,6.971 C 0.521,-1.979 0.233,-0.995 0,0"
             style="fill:#f2f2f2;fill-opacity:1;fill-rule:nonzero;stroke:none"
             id="path3807"
             inkscape:connector-curvature="0" /></g><g
           id="g3809"
           transform="translate(36.0977,38.2451)"><path
             d="M 0,0 0,0.001 C -0.001,0 -0.002,0 -0.003,-0.002 L 0,0 z"
             style="fill:#f2f2f2;fill-opacity:1;fill-rule:nonzero;stroke:none"
             id="path3811"
             inkscape:connector-curvature="0" /></g><g
           id="g3813"
           transform="translate(57.0566,28.6904)"><path
             d="m 0,0 c -2.832,4.728 -5.397,10.961 -7.77,15.643 -0.744,1.467 -1.742,2.53 -2.613,3.267 l -21.674,6.4 c -1.773,-0.565 -5.391,-3.93 -7.587,-8.291 -1.371,-2.724 -3.24,-4.74 -5.663,-7.564 -2.74,-3.194 -3.97,-6.151 -5.663,-9.455 -0.854,-0.646 4.819,-4.922 7.551,-7.563 2.94,-3.721 5.721,-7.346 7.551,-10.4 1.233,-0.349 7.368,0.899 9.439,0 3.854,-0.184 8.402,0.085 10.372,-0.727 2.248,2.28 2.54,2.377 4.73,4.508 4.291,4.178 10.098,9.767 12.27,12.492 C 0.412,-0.888 0.687,-1.146 0,0 M -5.727,7.848 C -5.724,7.832 -5.728,7.816 -5.729,7.8 -5.71,7.804 -5.691,7.81 -5.673,7.813 -5.551,7.836 -5.429,7.761 -5.402,7.642 -5.396,7.606 -5.399,7.572 -5.408,7.54 -5.33,7.532 -5.257,7.488 -5.223,7.414 -5.171,7.302 -5.222,7.171 -5.337,7.122 -6.105,6.788 -6.911,6.514 -7.691,6.25 -8.01,6.142 -8.323,6.034 -8.632,5.925 l -2.264,-0.988 c -0.323,-0.187 -0.626,-0.394 -0.905,-0.628 -0.043,-0.036 -0.096,-0.054 -0.149,-0.054 -0.064,0 -0.128,0.026 -0.173,0.076 -0.082,0.092 -0.072,0.232 0.023,0.312 0.378,0.317 0.796,0.582 1.239,0.818 -0.53,-0.237 -1.058,-0.474 -1.585,-0.695 -0.031,-0.012 -0.061,-0.018 -0.091,-0.018 -0.089,0 -0.172,0.05 -0.21,0.133 -0.05,0.112 0.003,0.242 0.119,0.29 0.07,0.03 0.141,0.061 0.211,0.092 -0.024,-0.006 -0.048,-0.012 -0.072,-0.017 -0.016,-0.004 -0.032,-0.006 -0.049,-0.006 -0.105,0 -0.199,0.071 -0.223,0.175 -0.026,0.119 0.052,0.236 0.175,0.262 1.062,0.223 2.05,0.679 3.005,1.12 1.122,0.517 2.282,1.053 3.596,1.238 0.121,0.017 0.241,-0.066 0.258,-0.187 m -18.442,9.28 c 0.527,-0.305 0.98,-0.817 1.416,-1.312 0.451,-0.51 0.917,-1.038 1.442,-1.301 l -0.099,-0.201 c -0.565,0.283 -1.046,0.827 -1.511,1.353 -0.425,0.482 -0.865,0.98 -1.36,1.267 l 0.112,0.194 z m -16.64,-9.214 c 0.787,3.472 2.841,6.68 4.996,7.803 0.554,0.289 1.192,0.383 1.809,0.474 0.597,0.088 1.214,0.179 1.732,0.448 0.117,0.062 0.234,0.126 0.352,0.19 0.622,0.34 1.269,0.692 2.033,0.66 0.059,-0.002 0.105,-0.054 0.103,-0.115 -0.002,-0.062 -0.049,-0.114 -0.111,-0.107 -0.709,0.035 -1.329,-0.309 -1.925,-0.635 -0.119,-0.065 -0.238,-0.13 -0.357,-0.192 -0.549,-0.286 -1.183,-0.379 -1.797,-0.47 -0.6,-0.089 -1.221,-0.18 -1.744,-0.452 -2.102,-1.096 -4.11,-4.244 -4.883,-7.655 -0.587,-2.589 -0.347,-4.873 0.655,-6.266 0.036,-0.049 0.026,-0.119 -0.021,-0.157 -0.019,-0.014 -0.042,-0.021 -0.064,-0.021 -0.032,0 -0.065,0.015 -0.086,0.044 -1.041,1.447 -1.293,3.798 -0.692,6.451 m 2.434,-10.752 c -0.404,0.846 -0.822,1.72 -1.464,2.151 -0.048,0.032 -0.115,0.021 -0.151,-0.026 -0.072,-0.096 -0.135,-0.195 -0.192,-0.301 0.012,0.34 0.094,0.541 0.268,0.541 1.095,0 1.914,-3.128 3.012,-4.462 -0.64,0.357 -1.062,1.239 -1.473,2.097 m 0.842,-1.867 c -0.556,-0.285 -1.149,-0.657 -1.459,-1.348 -0.006,-0.013 -0.008,-0.027 -0.009,-0.041 -0.551,1.619 -1.041,3.433 -1.157,4.551 0.067,0.222 0.161,0.424 0.283,0.606 0.543,-0.418 0.926,-1.221 1.298,-1.998 0.309,-0.647 0.626,-1.307 1.044,-1.77 m -6.42,13.146 c -0.055,0.233 0.075,0.469 0.29,0.528 0.214,0.058 0.434,-0.081 0.488,-0.314 1.487,-6.342 2.108,-9.742 2.04,-11.43 0.003,-0.144 0.006,-0.288 0.006,-0.429 0,-0.044 -0.025,-0.082 -0.059,-0.097 -0.041,-0.236 -0.103,-0.423 -0.187,-0.563 -0.16,-0.267 -0.369,-0.356 -0.517,-0.384 -0.023,-0.004 -0.046,-0.006 -0.069,-0.006 -0.192,0 -0.362,0.149 -0.395,0.359 -0.039,0.237 0.107,0.461 0.326,0.503 0.004,0.004 0.007,0.013 0.011,0.018 l -0.993,7.664 c -0.363,1.681 -0.726,3.231 -0.941,4.151 m 27.397,-25.572 c -0.042,-0.212 -0.227,-0.359 -0.434,-0.359 -0.029,0 -0.058,0.002 -0.086,0.008 -4.445,0.883 -10.205,1.057 -17.483,1.06 l -0.001,0 c -0.145,0 -0.281,0.072 -0.363,0.193 -0.421,0.609 -0.811,1.201 -1.202,1.792 -1.563,2.367 -3.179,4.814 -6.768,8.478 -0.171,0.176 -0.17,0.458 0.004,0.631 0.175,0.173 0.455,0.171 0.627,-0.005 3.649,-3.725 5.289,-6.208 6.875,-8.609 0.346,-0.525 0.693,-1.05 1.06,-1.587 7.222,-10e-4 12.955,-0.189 17.422,-1.077 0.24,-0.048 0.396,-0.284 0.349,-0.525 m -11.572,6.663 c 0.011,0.061 0.069,0.103 0.13,0.09 1.849,-0.342 5.388,-0.014 5.855,1.858 0.015,0.06 0.075,0.099 0.135,0.082 0.061,-0.015 0.097,-0.076 0.082,-0.136 -0.405,-1.625 -2.746,-2.148 -4.626,-2.148 -0.557,0 -1.073,0.046 -1.487,0.123 -0.06,0.011 -0.1,0.07 -0.089,0.131 m 15.184,2.043 c -0.781,-0.256 -5.401,-5.533 -4.766,-2.405 -1.895,0.126 -1.942,2.082 -1.306,4.332 -0.027,-0.317 -0.072,-0.63 -0.173,-0.913 -0.022,-0.059 0.008,-0.123 0.066,-0.144 0.06,-0.021 0.123,0.009 0.144,0.068 0.172,0.477 0.198,1.009 0.221,1.524 0.005,0.116 0.011,0.231 0.018,0.343 0.281,0.817 0.63,1.645 0.994,2.418 0.012,-0.02 0.028,-0.036 0.051,-0.046 0.862,-0.357 1.607,-0.731 2.344,-1.174 0.019,-0.012 0.038,-0.016 0.058,-0.016 0.038,0 0.075,0.019 0.096,0.054 0.032,0.053 0.015,0.122 -0.037,0.154 -0.748,0.45 -1.503,0.828 -2.375,1.189 -0.02,0.008 -0.039,0.009 -0.058,0.006 0.079,0.165 0.158,0.327 0.238,0.486 0.761,1.237 1.65,2.564 1.981,2.922 0.034,-0.097 0.074,-0.263 0.118,-0.479 0.051,-0.446 0.1,-1.072 0.143,-1.653 0.192,-2.478 0.318,-3.538 0.603,-3.68 0.101,-0.051 0.227,-0.075 0.372,-0.08 0.015,-0.047 0.03,-0.095 0.046,-0.14 0.199,-0.59 3.023,0.933 4.77,1.317 -0.324,-0.659 -1.475,-1.652 -1.745,-1.833 -0.331,-0.221 -0.752,-0.613 -1.234,-1.08 -0.342,0.36 -0.652,1.024 -0.699,1.505 l -0.223,-0.022 c 0.052,-0.533 0.383,-1.241 0.761,-1.639 -0.042,-0.04 -0.084,-0.081 -0.127,-0.122 -1.644,-1.598 -3.895,-3.786 -5.343,-2.696 -0.049,0.035 -0.12,0.026 -0.157,-0.023 -0.037,-0.05 -0.027,-0.12 0.022,-0.157 0.315,-0.237 0.657,-0.339 1.016,-0.339 1.476,0 3.25,1.724 4.618,3.054 0.597,0.58 1.112,1.081 1.49,1.333 0.151,0.099 1.593,1.265 1.88,2.069 0.348,0.055 0.64,0.052 0.835,-0.045 1.533,-0.754 -4.103,-3.911 -4.642,-4.088 m -1.963,5.97 c 0.178,-0.979 0.387,-2.024 0.625,-2.835 -0.076,0.009 -0.146,0.022 -0.2,0.051 -0.185,0.128 -0.327,1.578 -0.425,2.784 m 9.68,2.021 c -0.022,-0.025 -0.053,-0.039 -0.085,-0.039 -0.024,0 -0.049,0.008 -0.07,0.025 -0.989,0.794 -2.792,1.415 -5.075,2.201 -1.371,0.473 -2.881,0.993 -4.478,1.64 -0.005,-0.014 -0.01,-0.027 -0.017,-0.04 -0.878,-1.823 -2.98,-2.756 -4.485,-2.867 0.951,-0.818 1.423,-2.006 0.499,-4.801 -0.338,-1.02 -4.066,-5.259 -5.382,-4.596 -0.902,0.454 -2.386,0.069 -3.159,0.589 -0.307,0.206 -0.625,0.418 -0.948,0.636 -0.05,-0.062 -0.099,-0.126 -0.149,-0.188 -1.871,-2.376 -3.639,-4.621 -4.345,-6.305 -0.017,-0.043 -0.059,-0.069 -0.103,-0.069 -0.014,0 -0.029,0.003 -0.043,0.009 -0.058,0.024 -0.084,0.09 -0.06,0.147 0.717,1.713 2.413,3.864 4.376,6.357 0.045,0.058 0.092,0.118 0.138,0.176 -1.621,1.107 -3.327,2.389 -4.253,3.953 0.136,-1.923 1.809,-5.267 0.945,-7.018 -1.016,-2.057 -5.488,-1.302 -5.488,1.088 -0.102,0.056 -0.234,0.234 -0.384,0.501 0.054,-0.084 0.103,-0.164 0.158,-0.249 0.034,-0.052 0.104,-0.067 0.155,-0.031 0.052,0.033 0.066,0.102 0.033,0.154 -0.409,0.627 -0.769,1.221 -1.09,1.787 -0.146,0.377 -0.294,0.783 -0.438,1.204 0.01,-0.013 0.023,-0.023 0.039,-0.031 0.015,-0.007 0.031,-0.01 0.046,-0.01 0.043,0 0.084,0.024 0.102,0.066 0.293,0.653 0.859,0.99 1.421,1.274 0.213,-0.194 0.45,-0.339 0.726,-0.408 0.024,-0.006 0.048,-0.001 0.07,0.008 0.077,-0.062 0.155,-0.116 0.236,-0.156 0.767,-0.388 2.051,2.646 2.766,3.448 0.035,-0.666 0.216,-1.467 0.434,-2.323 -0.403,0.101 -0.856,0.096 -1.294,0.09 -0.101,-0.001 -0.203,-0.003 -0.303,-0.003 -0.038,0 -0.085,0 -0.112,10e-4 -0.062,0 -0.112,-0.05 -0.113,-0.111 0,-0.062 0.05,-0.112 0.111,-0.113 0.139,-0.002 0.279,0 0.42,10e-4 0.425,0.006 0.864,0.011 1.24,-0.083 0.009,-0.001 0.018,-0.002 0.027,-0.002 0.028,0 0.053,0.011 0.073,0.03 0.044,-0.169 0.088,-0.338 0.133,-0.509 0.547,-2.079 1.112,-4.228 0.294,-5.292 -0.349,-0.453 -0.926,-0.674 -1.764,-0.674 -0.062,0 -0.112,-0.051 -0.112,-0.112 0,-0.062 0.05,-0.112 0.112,-0.112 0.899,0 1.552,0.255 1.941,0.761 0.885,1.152 0.306,3.355 -0.254,5.486 -0.191,0.724 -0.374,1.426 -0.489,2.055 -0.479,1.17 -0.5,2.489 0.248,3.995 0.346,0.698 0.217,1.962 0.704,2.582 -0.255,-0.038 -0.51,-0.104 -0.76,-0.169 -0.275,-0.073 -0.553,-0.145 -0.837,-0.183 -0.109,-0.017 -0.216,-0.025 -0.323,-0.024 -0.013,0 -0.025,-0.002 -0.037,-0.002 -0.277,0 -0.559,0.048 -0.845,0.179 -2.653,1.214 -3.761,3.114 -2.965,5.083 0.75,1.857 3.177,3.459 5.805,3.222 0.342,0.041 0.646,0.031 0.884,-0.048 0.22,-0.074 0.434,-0.168 0.641,-0.278 0.487,-0.153 0.99,-0.35 1.556,-0.609 0.08,-0.036 0.155,-0.096 0.227,-0.171 -1.217,2.673 -2.621,5.473 -0.162,5.82 -0.974,1.608 -2.105,3.274 -3.44,5.006 -0.15,0.194 -0.111,0.469 0.086,0.615 0.196,0.147 0.476,0.109 0.626,-0.084 1.472,-1.909 2.7,-3.739 3.744,-5.499 0.177,0 0.355,-10e-4 0.534,-0.004 -1.06,1.889 -2.149,3.999 -3.182,6.469 -0.023,0.056 0.003,0.12 0.058,0.145 0.056,0.023 0.12,-0.003 0.143,-0.059 1.049,-2.51 2.159,-4.648 3.236,-6.56 1.094,-0.026 2.191,-0.133 3.081,-0.58 1.025,-0.517 1.883,-2.228 2.141,-3.526 1.689,0.541 3.285,1.423 4.834,2.278 2.101,1.161 4.272,2.36 6.738,2.775 0.247,0.044 0.484,-0.127 0.526,-0.377 0.008,-0.045 0.006,-0.088 0.001,-0.131 0.017,0.004 0.033,0.009 0.05,0.013 0.247,0.057 0.493,-0.093 0.552,-0.341 0.021,-0.091 0.013,-0.182 -0.016,-0.264 0.142,-0.02 0.272,-0.106 0.342,-0.243 0.116,-0.226 0.028,-0.503 -0.195,-0.62 -0.112,-0.058 -0.226,-0.111 -0.338,-0.167 0.012,-0.017 0.026,-0.034 0.037,-0.053 0.126,-0.221 0.05,-0.502 -0.17,-0.628 -1.264,-0.727 -2.713,-1.341 -4.113,-1.935 -1.938,-0.82 -3.928,-1.665 -5.453,-2.819 0.671,-0.046 1.334,-0.3 1.939,-0.691 0.032,0.018 0.067,0.033 0.106,0.041 0.21,0.044 0.418,0.094 0.625,0.149 -0.281,0.193 -0.578,0.3 -0.881,0.3 l -0.013,0 -0.002,0.21 0.015,0 c 0.394,0 0.776,-0.151 1.13,-0.438 1.262,0.362 2.461,0.905 3.626,1.436 1.683,0.767 3.422,1.56 5.394,1.834 0.185,0.027 0.366,-0.094 0.394,-0.271 0.004,-0.024 0.004,-0.048 0.002,-0.072 0.025,0.005 0.048,0.011 0.072,0.015 0.187,0.037 0.372,-0.074 0.412,-0.247 0.012,-0.054 0.008,-0.105 -0.007,-0.154 0.116,-0.013 0.223,-0.078 0.275,-0.184 0.08,-0.161 0.005,-0.353 -0.169,-0.428 -0.082,-0.035 -0.165,-0.066 -0.247,-0.101 0.006,-0.009 0.014,-0.017 0.02,-0.027 0.087,-0.159 0.019,-0.353 -0.152,-0.434 -1.013,-0.481 -2.174,-0.887 -3.298,-1.28 -1.825,-0.638 -3.707,-1.298 -4.979,-2.285 0.255,-0.791 0.372,-1.635 0.342,-2.393 0.023,-0.453 -0.035,-0.896 -0.189,-1.308 1.592,-0.645 3.1,-1.165 4.468,-1.637 2.304,-0.793 4.123,-1.42 5.142,-2.236 0.047,-0.038 0.054,-0.106 0.015,-0.152 m 0.303,4.956 C -5.403,4.271 -5.906,4.065 -6.393,3.866 -6.581,3.789 -6.766,3.713 -6.947,3.635 L -8.411,2.864 C -8.604,2.728 -8.787,2.577 -8.955,2.406 -8.983,2.378 -9.019,2.364 -9.054,2.364 c -0.04,0 -0.079,0.018 -0.108,0.053 -0.055,0.065 -0.051,0.167 0.009,0.227 0.253,0.256 0.532,0.468 0.831,0.654 -0.001,0 -0.002,0 -0.002,-10e-4 C -8.671,3.11 -9.015,2.924 -9.359,2.75 -9.379,2.74 -9.4,2.735 -9.421,2.735 c -0.055,0 -0.107,0.035 -0.133,0.094 -0.034,0.081 -0.002,0.177 0.073,0.214 0.056,0.029 0.112,0.059 0.168,0.088 C -9.337,3.125 -9.362,3.116 -9.388,3.11 -9.399,3.107 -9.409,3.106 -9.421,3.106 c -0.066,0 -0.127,0.05 -0.142,0.125 -0.018,0.087 0.031,0.174 0.11,0.194 0.661,0.167 1.277,0.51 1.872,0.842 0.701,0.389 1.426,0.792 2.247,0.932 0.079,0.012 0.154,-0.047 0.167,-0.136 0.002,-0.013 0,-0.026 -0.002,-0.039 0.01,0.002 0.02,0.006 0.029,0.008 0.081,0.02 0.158,-0.037 0.175,-0.123 C -4.959,4.88 -4.964,4.852 -4.971,4.826 -4.922,4.82 -4.877,4.79 -4.854,4.738 -4.819,4.657 -4.851,4.561 -4.924,4.522"
             style="fill:#f2f2f2;fill-opacity:1;fill-rule:nonzero;stroke:none"
             id="path3815"
             inkscape:connector-curvature="0" /></g><g
           id="g3817"
           transform="translate(42.1572,32.3013)"><path
             d="m 0,0 c -0.026,-0.069 -0.055,-0.134 -0.085,-0.197 0.017,-0.007 0.033,-0.015 0.05,-0.021 0.03,0.065 0.057,0.131 0.083,0.198 C 0.032,-0.014 0.016,-0.006 0,0"
             style="fill:#f2f2f2;fill-opacity:1;fill-rule:nonzero;stroke:none"
             id="path3819"
             inkscape:connector-curvature="0" /></g><g
           id="g3821"
           transform="translate(35.4502,37.7959)"><path
             d="m 0,0 c -0.002,0 -0.005,-0.001 -0.007,-0.001 -0.116,0 -0.233,0.045 -0.323,0.135 -0.014,0.014 -0.025,0.03 -0.037,0.046 -0.285,-0.262 -0.525,-0.58 -0.718,-0.935 0.052,-0.113 0.101,-0.226 0.149,-0.339 C -0.643,-0.644 -0.328,-0.283 0,0"
             style="fill:#f2f2f2;fill-opacity:1;fill-rule:nonzero;stroke:none"
             id="path3823"
             inkscape:connector-curvature="0" /></g><g
           id="g3825"
           transform="translate(41.708,35.7881)"><path
             d="M 0,0 C 0.168,-0.297 0.31,-0.604 0.42,-0.916 0.366,-0.585 0.288,-0.253 0.186,0.071 0.131,0.028 0.066,0.007 0,0"
             style="fill:#f2f2f2;fill-opacity:1;fill-rule:nonzero;stroke:none"
             id="path3827"
             inkscape:connector-curvature="0" /></g><g
           id="g3829"
           transform="translate(41.5488,37.1406)"><path
             d="M 0,0 C 0.284,0.181 0.576,0.351 0.879,0.51 0.57,0.373 0.256,0.234 -0.058,0.097 -0.038,0.064 -0.019,0.033 0,0"
             style="fill:#f2f2f2;fill-opacity:1;fill-rule:nonzero;stroke:none"
             id="path3831"
             inkscape:connector-curvature="0" /></g><g
           id="g3833"
           transform="translate(40.8525,36.9619)"><path
             d="m 0,0 c 0.055,-0.06 0.108,-0.121 0.162,-0.183 0.12,0.088 0.244,0.172 0.369,0.255 C 0.508,0.113 0.484,0.157 0.46,0.197 0.307,0.13 0.153,0.066 0,0"
             style="fill:#f2f2f2;fill-opacity:1;fill-rule:nonzero;stroke:none"
             id="path3835"
             inkscape:connector-curvature="0" /></g><g
           id="g3837"
           transform="translate(40.5186,32.8833)"><path
             d="m 0,0 c -0.024,-0.054 0,-0.117 0.055,-0.142 0.447,-0.2 0.887,-0.386 1.323,-0.565 0.031,0.063 0.06,0.128 0.087,0.197 C 1.03,-0.332 0.592,-0.146 0.146,0.052 0.091,0.077 0.025,0.054 0,0"
             style="fill:#f2f2f2;fill-opacity:1;fill-rule:nonzero;stroke:none"
             id="path3839"
             inkscape:connector-curvature="0" /></g></g></g></g></svg>