<?xml version="1.0" encoding="UTF-8" standalone="no"?>
<!-- Created with Inkscape (http://www.inkscape.org/) -->

<svg
   xmlns:dc="http://purl.org/dc/elements/1.1/"
   xmlns:cc="http://creativecommons.org/ns#"
   xmlns:rdf="http://www.w3.org/1999/02/22-rdf-syntax-ns#"
   xmlns:svg="http://www.w3.org/2000/svg"
   xmlns="http://www.w3.org/2000/svg"
   xmlns:sodipodi="http://sodipodi.sourceforge.net/DTD/sodipodi-0.dtd"
   xmlns:inkscape="http://www.inkscape.org/namespaces/inkscape"
   id="svg3354"
   version="1.1"
   inkscape:version="0.48.5 r10040"
   width="64"
   height="64"
   xml:space="preserve"
   sodipodi:docname="Dinothawr.svg"
   inkscape:export-filename="/Users/margetts/Desktop/Icon Workshop/Monochrome Plus June/png/Dinothawr.png"
   inkscape:export-xdpi="360"
   inkscape:export-ydpi="360"><metadata
     id="metadata3360"><rdf:RDF><cc:Work
         rdf:about=""><dc:format>image/svg+xml</dc:format><dc:type
           rdf:resource="http://purl.org/dc/dcmitype/StillImage" /><dc:title></dc:title></cc:Work></rdf:RDF></metadata><defs
     id="defs3358"><clipPath
       clipPathUnits="userSpaceOnUse"
       id="clipPath3368"><path
         d="M 0,64 64,64 64,0 0,0 0,64 z"
         id="path3370"
         inkscape:connector-curvature="0" /></clipPath></defs><sodipodi:namedview
     pagecolor="#ffffff"
     bordercolor="#666666"
     borderopacity="1"
     objecttolerance="10"
     gridtolerance="10"
     guidetolerance="10"
     inkscape:pageopacity="0"
     inkscape:pageshadow="2"
     inkscape:window-width="1676"
     inkscape:window-height="1005"
     id="namedview3356"
     showgrid="false"
     inkscape:zoom="7.6"
     inkscape:cx="23.486842"
     inkscape:cy="40"
     inkscape:window-x="4"
     inkscape:window-y="1"
     inkscape:window-maximized="1"
     inkscape:current-layer="g3362" /><g
     id="g3362"
     inkscape:groupmode="layer"
     inkscape:label="Dinothawr"
     transform="matrix(1.25,0,0,-1.25,0,64)"><g
       id="g3364"
       transform="matrix(0.8,0,0,0.8,-4e-4,1.6e-4)"><g
         id="g3366"
         clip-path="url(#clipPath3368)"><g
           id="g3372"
           transform="translate(42.7744,23.4004)"><path
             d="M 0,0 C -0.237,0.811 -0.446,1.856 -0.624,2.835 -0.526,1.629 -0.385,0.179 -0.2,0.051 -0.146,0.022 -0.076,0.009 0,0"
             style="fill:#f2f2f2;fill-opacity:1;fill-rule:nonzero;stroke:none"
             id="path3374"
             inkscape:connector-curvature="0" /></g><g
           id="g3376"
           transform="translate(37.7471,35.041)"><path
             d="M 0,0 C -0.019,-0.11 0.067,-0.201 0.256,-0.27 0.312,-0.279 0.38,-0.21 0.457,-0.072 0.593,0.173 0.6,0.406 0.566,0.439 0.37,0.438 0.035,0.203 0,0"
             style="fill:#f2f2f2;fill-opacity:1;fill-rule:nonzero;stroke:none"
             id="path3378"
             inkscape:connector-curvature="0" /></g><g
           id="g3380"
           transform="translate(30.5044,17.9688)"><path
             d="M 0,0 C 1.88,0 4.221,0.522 4.626,2.147 4.641,2.208 4.605,2.269 4.544,2.283 4.484,2.301 4.424,2.262 4.41,2.202 3.942,0.33 0.403,0.002 -1.446,0.344 -1.506,0.356 -1.565,0.314 -1.576,0.254 -1.587,0.192 -1.547,0.134 -1.486,0.123 -1.072,0.046 -0.557,0 0,0"
             style="fill:#f2f2f2;fill-opacity:1;fill-rule:nonzero;stroke:none"
             id="path3382"
             inkscape:connector-curvature="0" /></g><g
           id="g3384"
           transform="translate(48.7549,24.3535)"><path
             d="m 0,0 c -0.195,0.097 -0.487,0.1 -0.835,0.045 -0.287,-0.804 -1.729,-1.97 -1.88,-2.069 -0.378,-0.252 -0.893,-0.753 -1.49,-1.333 -1.368,-1.33 -3.142,-3.054 -4.618,-3.054 -0.36,0 -0.701,0.102 -1.016,0.339 -0.05,0.037 -0.059,0.107 -0.022,0.157 0.037,0.049 0.108,0.058 0.157,0.022 1.448,-1.089 3.699,1.099 5.343,2.697 0.043,0.041 0.085,0.081 0.127,0.122 -0.378,0.398 -0.709,1.106 -0.761,1.638 l 0.223,0.023 c 0.046,-0.482 0.357,-1.145 0.699,-1.505 0.482,0.467 0.903,0.859 1.234,1.08 0.27,0.181 1.421,1.174 1.744,1.833 -1.746,-0.384 -4.57,-1.907 -4.769,-1.317 -0.016,0.045 -0.032,0.093 -0.046,0.14 -0.146,0.005 -0.272,0.029 -0.372,0.079 C -6.567,-0.96 -6.693,0.1 -6.885,2.578 -6.929,3.159 -6.978,3.785 -7.028,4.23 -7.072,4.447 -7.112,4.613 -7.146,4.71 -7.478,4.352 -8.366,3.024 -9.127,1.788 -9.207,1.629 -9.286,1.467 -9.365,1.302 c 0.018,0.003 0.038,0.002 0.057,-0.006 0.872,-0.361 1.627,-0.739 2.375,-1.19 0.053,-0.031 0.07,-0.1 0.037,-0.153 -0.02,-0.035 -0.057,-0.055 -0.095,-0.055 -0.02,0 -0.039,0.005 -0.058,0.017 -0.737,0.443 -1.482,0.816 -2.345,1.174 -0.022,0.01 -0.039,0.026 -0.05,0.046 -0.365,-0.773 -0.713,-1.601 -0.994,-2.418 -0.007,-0.113 -0.013,-0.227 -0.018,-0.343 -0.023,-0.515 -0.049,-1.047 -0.222,-1.524 -0.02,-0.059 -0.085,-0.089 -0.143,-0.068 -0.058,0.021 -0.088,0.085 -0.067,0.144 0.102,0.283 0.147,0.595 0.174,0.913 -0.637,-2.25 -0.59,-4.206 1.306,-4.332 -0.635,-3.128 3.985,2.149 4.765,2.405 C -4.104,-3.911 1.533,-0.754 0,0"
             style="fill:#f2f2f2;fill-opacity:1;fill-rule:nonzero;stroke:none"
             id="path3386"
             inkscape:connector-curvature="0" /></g><g
           id="g3388"
           transform="translate(15.0381,25.3164)"><path
             d="m 0,0 c -0.004,-0.005 -0.007,-0.014 -0.012,-0.018 -0.218,-0.042 -0.364,-0.266 -0.326,-0.503 0.034,-0.21 0.204,-0.359 0.395,-0.359 0.023,0 0.047,0.002 0.07,0.006 0.147,0.028 0.357,0.117 0.517,0.384 0.084,0.14 0.146,0.327 0.187,0.563 0.034,0.015 0.058,0.053 0.058,0.097 0,0.142 -0.002,0.285 -0.006,0.429 0.068,1.688 -0.552,5.088 -2.039,11.43 -0.054,0.233 -0.275,0.372 -0.488,0.314 -0.215,-0.059 -0.345,-0.295 -0.291,-0.528 0.216,-0.919 0.579,-2.47 0.941,-4.151 L 0,0 z"
             style="fill:#f2f2f2;fill-opacity:1;fill-rule:nonzero;stroke:none"
             id="path3390"
             inkscape:connector-curvature="0" /></g><g
           id="g3392"
           transform="translate(40.1514,12.084)"><path
             d="m 0,0 c -4.467,0.889 -10.2,1.076 -17.422,1.077 -0.367,0.537 -0.713,1.063 -1.06,1.587 -1.586,2.401 -3.226,4.885 -6.874,8.609 -0.173,0.176 -0.453,0.178 -0.627,0.005 -0.174,-0.173 -0.176,-0.455 -0.004,-0.631 3.589,-3.664 5.204,-6.111 6.767,-8.477 0.391,-0.592 0.782,-1.184 1.202,-1.793 0.082,-0.12 0.218,-0.192 0.364,-0.192 l 0,0 c 7.278,-0.003 13.038,-0.177 17.483,-1.061 0.028,-0.006 0.058,-0.008 0.086,-0.008 0.207,0 0.393,0.148 0.435,0.36 C 0.396,-0.283 0.24,-0.048 0,0"
             style="fill:#f2f2f2;fill-opacity:1;fill-rule:nonzero;stroke:none"
             id="path3394"
             inkscape:connector-curvature="0" /></g><g
           id="g3396"
           transform="translate(17.0254,30.1094)"><path
             d="m 0,0 c 0.022,0 0.045,0.007 0.064,0.021 0.047,0.038 0.057,0.108 0.022,0.157 -1.003,1.393 -1.242,3.677 -0.655,6.266 0.773,3.411 2.78,6.559 4.882,7.655 0.523,0.272 1.144,0.363 1.744,0.452 0.614,0.091 1.249,0.184 1.797,0.47 0.119,0.062 0.238,0.127 0.357,0.192 0.597,0.327 1.216,0.67 1.925,0.635 0.062,-0.007 0.109,0.045 0.111,0.107 0.003,0.061 -0.043,0.113 -0.102,0.115 C 9.38,16.102 8.733,15.75 8.111,15.41 7.994,15.346 7.876,15.282 7.759,15.22 7.241,14.951 6.624,14.86 6.027,14.772 5.41,14.681 4.772,14.587 4.218,14.298 2.063,13.175 0.009,9.967 -0.778,6.495 -1.379,3.842 -1.126,1.491 -0.086,0.044 -0.064,0.015 -0.032,0 0,0"
             style="fill:#f2f2f2;fill-opacity:1;fill-rule:nonzero;stroke:none"
             id="path3398"
             inkscape:connector-curvature="0" /></g><g
           id="g3400"
           transform="translate(50.7656,35.9063)"><path
             d="M 0,0 C -0.515,-0.196 -1.038,-0.375 -1.551,-0.549 -2.016,-0.707 -2.472,-0.863 -2.915,-1.028 -1.965,-0.625 -0.995,-0.258 0,0 m -6.295,-1.539 c -0.123,-0.025 -0.201,-0.143 -0.175,-0.262 0.024,-0.104 0.118,-0.175 0.223,-0.175 0.017,0 0.033,0.002 0.049,0.006 0.024,0.005 0.048,0.012 0.072,0.017 -0.07,-0.03 -0.141,-0.062 -0.211,-0.091 -0.116,-0.049 -0.169,-0.179 -0.119,-0.291 0.038,-0.083 0.121,-0.133 0.21,-0.133 0.03,0 0.06,0.006 0.091,0.018 0.527,0.221 1.055,0.458 1.585,0.696 -0.443,-0.237 -0.861,-0.501 -1.239,-0.819 -0.095,-0.08 -0.105,-0.219 -0.023,-0.312 0.045,-0.05 0.109,-0.076 0.173,-0.076 0.053,0 0.106,0.018 0.149,0.054 0.279,0.234 0.582,0.441 0.906,0.628 l 2.263,0.988 c 0.309,0.109 0.622,0.217 0.941,0.325 0.78,0.264 1.586,0.538 2.354,0.872 0.115,0.05 0.166,0.18 0.114,0.292 C 1.034,0.272 0.961,0.316 0.883,0.324 0.892,0.356 0.896,0.391 0.889,0.426 0.862,0.545 0.74,0.62 0.618,0.598 0.6,0.594 0.581,0.588 0.562,0.584 0.563,0.601 0.567,0.616 0.564,0.632 0.547,0.753 0.427,0.836 0.306,0.819 -1.008,0.634 -2.168,0.099 -3.29,-0.419 -4.245,-0.86 -5.233,-1.315 -6.295,-1.539"
             style="fill:#f2f2f2;fill-opacity:1;fill-rule:nonzero;stroke:none"
             id="path3402"
             inkscape:connector-curvature="0" /></g><g
           id="g3404"
           transform="translate(20.1548,23.7559)"><path
             d="m 0,0 c -1.098,1.334 -1.917,4.462 -3.012,4.462 -0.174,0 -0.256,-0.201 -0.268,-0.541 0.057,0.105 0.12,0.205 0.192,0.301 0.036,0.047 0.103,0.057 0.151,0.025 0.642,-0.431 1.06,-1.305 1.464,-2.15 C -1.063,1.238 -0.64,0.356 0,0"
             style="fill:#f2f2f2;fill-opacity:1;fill-rule:nonzero;stroke:none"
             id="path3406"
             inkscape:connector-curvature="0" /></g><g
           id="g3408"
           transform="translate(17.1816,27.7529)"><path
             d="m 0,0 c -0.122,-0.182 -0.216,-0.384 -0.283,-0.605 0.116,-1.119 0.606,-2.932 1.157,-4.551 0.001,0.013 0.003,0.027 0.009,0.041 0.31,0.69 0.903,1.062 1.459,1.347 C 1.924,-3.305 1.607,-2.645 1.298,-1.997 0.926,-1.221 0.543,-0.418 0,0"
             style="fill:#f2f2f2;fill-opacity:1;fill-rule:nonzero;stroke:none"
             id="path3410"
             inkscape:connector-curvature="0" /></g><g
           id="g3412"
           transform="translate(34.1357,44.3574)"><path
             d="M 0,0 C 0.465,-0.526 0.946,-1.07 1.511,-1.354 L 1.61,-1.152 C 1.085,-0.889 0.619,-0.361 0.168,0.149 -0.269,0.644 -0.722,1.156 -1.249,1.461 L -1.36,1.267 C -0.865,0.98 -0.425,0.482 0,0"
             style="fill:#f2f2f2;fill-opacity:1;fill-rule:nonzero;stroke:none"
             id="path3414"
             inkscape:connector-curvature="0" /></g><g
           id="g3416"
           transform="translate(50.5615,32.8589)"><path
             d="M 0,0 C -0.335,-0.137 -0.662,-0.272 -0.979,-0.418 -0.326,-0.08 0.341,0.231 1.026,0.44 0.687,0.282 0.34,0.139 0,0 M 1.524,0.657 C 1.532,0.684 1.536,0.711 1.53,0.74 1.513,0.827 1.437,0.883 1.355,0.863 1.346,0.861 1.336,0.858 1.326,0.856 1.328,0.869 1.33,0.881 1.328,0.895 1.315,0.983 1.24,1.043 1.161,1.03 0.34,0.891 -0.385,0.487 -1.086,0.098 c -0.595,-0.332 -1.211,-0.675 -1.872,-0.842 -0.079,-0.02 -0.128,-0.107 -0.11,-0.193 0.015,-0.075 0.076,-0.125 0.142,-0.125 0.011,0 0.022,0.001 0.033,0.003 0.026,0.007 0.051,0.015 0.076,0.022 -0.057,-0.029 -0.113,-0.06 -0.169,-0.088 -0.075,-0.038 -0.107,-0.134 -0.073,-0.215 0.026,-0.059 0.078,-0.094 0.133,-0.094 0.021,0 0.042,0.005 0.062,0.015 0.344,0.175 0.688,0.36 1.035,0.548 0,0 10e-4,0 0.002,0.001 -0.299,-0.187 -0.578,-0.399 -0.831,-0.654 -0.06,-0.06 -0.064,-0.163 -0.009,-0.228 0.029,-0.035 0.068,-0.052 0.108,-0.052 0.036,0 0.071,0.014 0.099,0.042 0.168,0.17 0.351,0.321 0.544,0.458 l 1.464,0.77 c 0.181,0.078 0.367,0.155 0.555,0.232 0.486,0.198 0.989,0.404 1.468,0.656 0.074,0.039 0.105,0.135 0.07,0.215 C 1.618,0.622 1.573,0.651 1.524,0.657"
             style="fill:#f2f2f2;fill-opacity:1;fill-rule:nonzero;stroke:none"
             id="path3418"
             inkscape:connector-curvature="0" /></g><g
           id="g3420"
           transform="translate(42.0723,32.104)"><path
             d="M 0,0 C 0.03,0.063 0.059,0.128 0.085,0.197 0.101,0.191 0.117,0.184 0.133,0.178 0.107,0.11 0.08,0.044 0.05,-0.021 0.033,-0.014 0.017,-0.007 0,0 m -0.176,0.073 c -0.435,0.178 -0.876,0.364 -1.323,0.564 -0.055,0.025 -0.079,0.089 -0.054,0.142 0.025,0.054 0.09,0.077 0.146,0.053 C -0.962,0.633 -0.523,0.447 -0.089,0.269 -0.115,0.201 -0.145,0.136 -0.176,0.073 M -0.76,5.055 C -0.735,5.015 -0.712,4.971 -0.688,4.93 -0.813,4.847 -0.937,4.763 -1.058,4.675 -1.111,4.737 -1.165,4.798 -1.22,4.858 c 0.154,0.066 0.307,0.13 0.46,0.197 M 0.355,5.546 C 0.053,5.388 -0.239,5.217 -0.523,5.037 -0.542,5.07 -0.562,5.101 -0.581,5.134 -0.268,5.271 0.047,5.41 0.355,5.546 M 0.056,2.768 c -0.111,0.312 -0.252,0.619 -0.42,0.916 0.066,0.007 0.131,0.028 0.185,0.071 C -0.076,3.431 0.002,3.099 0.056,2.768 M -3.77,2.613 C -3.882,2.475 -3.989,2.442 -4.064,2.442 -4.09,2.442 -4.11,2.446 -4.127,2.45 L -4.138,2.454 C -4.546,2.6 -4.568,2.843 -4.545,2.975 -4.489,3.297 -4.058,3.6 -3.764,3.6 -3.67,3.6 -3.593,3.551 -3.553,3.465 -3.453,3.255 -3.588,2.834 -3.77,2.613 M -5.975,6.141 -5.979,6.139 c 0.002,0.002 0.003,0.003 0.004,0.004 l 0,-0.002 z M -6.952,6.476 C -7.057,6.371 -7.098,6.229 -7.08,6.092 -7.371,5.837 -7.616,5.526 -7.82,5.183 c -0.168,0.362 -0.348,0.725 -0.538,1.092 0.144,0.224 0.333,0.382 0.524,0.533 0.036,-0.009 0.073,-0.016 0.11,-0.016 0.07,0 0.139,0.016 0.204,0.049 1.035,0.52 2.083,1.084 3.099,1.629 0.078,0.041 0.156,0.083 0.234,0.125 C -5.186,8 -6.117,7.316 -6.952,6.476 m -0.12,-7.611 c 0.17,-0.128 0.351,-0.237 0.546,-0.324 0.048,-0.06 0.096,-0.124 0.141,-0.192 -0.233,0.155 -0.465,0.324 -0.687,0.516 m -0.635,6.072 c 0.193,0.355 0.433,0.673 0.718,0.935 0.011,-0.016 0.022,-0.032 0.037,-0.046 0.09,-0.09 0.207,-0.135 0.323,-0.135 0.002,0 0.005,0.001 0.007,0.001 C -6.95,5.409 -7.265,5.048 -7.558,4.598 -7.606,4.711 -7.655,4.824 -7.707,4.937 m -0.61,-3.024 c 0.12,0.115 0.17,0.291 0.111,0.457 -0.038,0.109 -0.079,0.22 -0.118,0.33 0.041,0.664 0.201,1.364 0.49,1.984 C -7.788,4.58 -7.741,4.476 -7.697,4.372 -7.812,4.18 -7.922,3.975 -8.029,3.754 c -0.525,-1.089 0.474,-2.51 0.474,-3.322 0,-0.599 0.18,-0.946 0.417,-1.232 -0.751,0.677 -1.099,1.734 -1.179,2.713 m 0.76,-4.384 c -1.415,-2.926 -3.773,-5.945 -5.886,-8.628 -0.061,0.042 -0.123,0.085 -0.185,0.127 2.108,2.677 4.463,5.691 5.87,8.599 0.028,0.056 0.094,0.08 0.151,0.052 0.055,-0.027 0.078,-0.094 0.05,-0.15 m -5.871,4.632 c 0.134,0.164 0.259,0.343 0.368,0.544 0.266,0.485 0.138,1.669 -0.053,2.535 -0.008,0.036 -0.018,0.08 -0.029,0.127 0.32,-0.893 0.485,-1.685 0.297,-2.253 -0.14,-0.422 -0.342,-0.723 -0.583,-0.953 m 0.283,1.392 c 0.003,0.453 -0.063,1.036 -0.197,1.645 -0.01,0.046 -0.021,0.091 -0.031,0.135 0.213,-0.584 0.301,-1.195 0.228,-1.78 -0.001,-0.338 -0.043,-0.604 -0.124,-0.753 -0.089,-0.163 -0.189,-0.312 -0.294,-0.449 0.231,0.375 0.366,0.782 0.418,1.202 m -1.824,3.999 c 0.223,-0.089 0.452,-0.187 0.695,-0.298 0.306,-0.14 0.662,-0.904 0.901,-1.921 -0.309,0.845 -0.876,1.636 -1.596,2.219 m 2.331,2.629 c 0.061,0.015 0.121,-0.023 0.135,-0.083 0.232,-0.995 0.521,-1.979 0.8,-2.931 0.644,-2.199 1.309,-4.471 1.309,-6.972 0,-0.062 -0.049,-0.112 -0.111,-0.112 -0.062,0 -0.113,0.05 -0.113,0.112 0,2.469 -0.66,4.726 -1.3,6.909 -0.28,0.955 -0.569,1.941 -0.803,2.942 -0.014,0.06 0.023,0.121 0.083,0.135 M -8.533,1.8 c 0.077,-0.841 0.333,-1.583 0.731,-2.167 -0.175,0.229 -0.338,0.482 -0.48,0.771 -0.127,0.255 -0.228,0.77 -0.297,1.391 0.016,0.002 0.03,0.003 0.046,0.005 M -8.69,3.725 c -0.011,0.949 0.044,1.824 0.173,2.218 0.011,0.033 0.025,0.061 0.038,0.092 C -8.292,5.669 -8.115,5.307 -7.95,4.947 -8.23,4.402 -8.412,3.792 -8.499,3.188 -8.563,3.368 -8.625,3.544 -8.69,3.725 m -2.002,6.205 c -0.597,1.006 -1.225,2.062 -1.863,3.199 0.085,-0.002 0.17,-0.004 0.256,-0.006 0.614,-1.091 1.218,-2.109 1.794,-3.08 C -9.708,8.702 -8.979,7.47 -8.358,6.275 -8.404,6.203 -8.444,6.122 -8.479,6.035 -9.112,7.268 -9.867,8.541 -10.692,9.93 M 4.304,12.417 C 3.217,11.905 2.101,11.451 1.011,11.009 -0.167,10.531 -1.318,10.062 -2.415,9.537 c 2.181,1.139 4.416,2.205 6.719,2.88 M -22.294,5.54 c -0.662,-1.322 -0.059,-3.343 1.052,-4.574 -2.279,1.553 -1.906,3.346 -1.594,4.118 0.632,1.563 2.506,2.938 4.663,3.092 -1.67,-0.51 -3.685,-1.766 -4.121,-2.636 M 7.28,8.165 C 6.482,7.863 5.668,7.587 4.872,7.321 4.131,7.073 3.404,6.829 2.701,6.568 4.192,7.195 5.717,7.771 7.28,8.165 M 4.601,-1.459 C 3.232,-0.988 1.725,-0.467 0.133,0.177 0.286,0.589 0.345,1.032 0.321,1.486 0.352,2.243 0.234,3.088 -0.021,3.878 1.251,4.865 3.134,5.525 4.958,6.164 6.082,6.556 7.243,6.962 8.257,7.443 8.428,7.525 8.495,7.719 8.408,7.877 8.402,7.887 8.395,7.896 8.389,7.905 8.471,7.939 8.554,7.971 8.636,8.006 8.81,8.081 8.885,8.272 8.805,8.434 8.752,8.54 8.646,8.604 8.529,8.617 8.544,8.666 8.549,8.718 8.536,8.771 8.496,8.945 8.312,9.056 8.124,9.019 8.101,9.014 8.077,9.008 8.053,9.003 8.055,9.027 8.055,9.051 8.051,9.076 8.022,9.252 7.842,9.373 7.656,9.347 5.685,9.073 3.945,8.28 2.263,7.512 1.098,6.981 -0.102,6.438 -1.363,6.076 -1.718,6.363 -2.1,6.514 -2.493,6.514 l -0.016,0 0.002,-0.21 0.014,0 c 0.303,0 0.599,-0.106 0.881,-0.3 C -1.819,5.95 -2.027,5.899 -2.237,5.855 -2.276,5.847 -2.312,5.833 -2.344,5.814 c -0.604,0.392 -1.267,0.645 -1.938,0.692 1.524,1.154 3.514,1.998 5.452,2.819 1.4,0.593 2.85,1.207 4.113,1.934 0.22,0.127 0.296,0.408 0.17,0.628 -0.011,0.02 -0.024,0.036 -0.037,0.053 0.112,0.057 0.227,0.109 0.338,0.167 0.224,0.117 0.311,0.394 0.195,0.62 -0.07,0.137 -0.2,0.223 -0.342,0.243 0.03,0.082 0.038,0.174 0.016,0.264 -0.059,0.248 -0.305,0.398 -0.552,0.341 -0.016,-0.004 -0.033,-0.009 -0.05,-0.012 0.005,0.042 0.007,0.085 0,0.13 -0.042,0.251 -0.28,0.422 -0.527,0.378 -2.466,-0.416 -4.637,-1.615 -6.737,-2.775 -1.55,-0.856 -3.146,-1.737 -4.834,-2.278 -0.259,1.298 -1.116,3.009 -2.142,3.525 -0.889,0.448 -1.987,0.555 -3.081,0.58 -1.076,1.912 -2.186,4.05 -3.235,6.56 -0.024,0.057 -0.088,0.082 -0.143,0.059 -0.056,-0.024 -0.082,-0.089 -0.058,-0.145 1.032,-2.47 2.122,-4.58 3.182,-6.468 -0.179,0.002 -0.358,0.003 -0.534,0.003 1.998,-3.366 3.323,-6.479 4.398,-9.407 0.007,-0.653 0.045,-1.339 0.111,-1.93 -0.016,-0.002 -0.033,-0.008 -0.049,-0.008 -0.185,0 -0.358,0.114 -0.423,0.296 -1.186,3.39 -2.636,7.021 -5.053,11.012 0.167,0.024 0.352,0.037 0.557,0.037 l 0.459,0 c -1.045,1.761 -2.273,3.59 -3.745,5.499 -0.149,0.194 -0.429,0.231 -0.626,0.085 -0.197,-0.147 -0.235,-0.422 -0.086,-0.616 1.335,-1.732 2.466,-3.397 3.441,-5.005 -2.46,-0.347 -1.056,-3.148 0.161,-5.821 0.416,-0.438 0.691,-1.436 0.801,-1.907 -0.216,0.603 -0.503,1.251 -0.801,1.907 -0.072,0.076 -0.147,0.135 -0.226,0.172 -0.567,0.259 -1.069,0.455 -1.557,0.608 0.266,-0.141 0.52,-0.309 0.757,-0.502 -0.553,0.222 -1.058,0.383 -1.573,0.5 -0.415,0.095 -0.827,0.139 -1.232,0.139 -0.134,0 -0.267,-0.005 -0.399,-0.015 0.325,0.099 0.638,0.171 0.923,0.205 0.253,-0.023 0.509,-0.062 0.765,-0.121 0.254,-0.057 0.504,-0.126 0.759,-0.206 -0.207,0.11 -0.42,0.204 -0.641,0.278 -0.238,0.079 -0.542,0.09 -0.883,0.049 -2.629,0.236 -5.055,-1.366 -5.806,-3.223 -0.796,-1.969 0.313,-3.868 2.965,-5.083 0.286,-0.131 0.568,-0.179 0.845,-0.179 0.013,0 0.024,0.002 0.037,0.002 0.107,-0.001 0.215,0.008 0.324,0.025 0,0 0.001,0 0.002,0 -0.001,0 -0.002,0 -0.002,0 -0.108,-0.014 -0.216,-0.023 -0.324,-0.025 -0.745,0.005 -1.457,0.43 -2.033,1.068 0.353,-0.24 0.766,-0.475 1.256,-0.699 0.626,-0.287 1.232,-0.126 1.873,0.044 0.39,0.103 0.794,0.21 1.206,0.21 l 0.019,0 c 0.158,0.058 0.316,0.113 0.474,0.169 1.101,0.387 2.149,0.757 2.851,1.661 -0.139,-0.224 -0.311,-0.435 -0.521,-0.632 0.239,0.114 0.46,0.255 0.656,0.442 C -14.175,1.25 -15.267,0.863 -16.33,0.49 -16.494,0.432 -16.659,0.374 -16.822,0.314 l -0.022,-0.008 -0.024,0 c -0.14,0.004 -0.28,-0.011 -0.421,-0.032 0.039,0.049 0.081,0.096 0.128,0.137 -0.509,-0.12 -1.022,-0.249 -1.517,-0.443 0.212,0.039 0.423,0.082 0.63,0.137 0.25,0.066 0.504,0.131 0.759,0.169 -0.486,-0.62 -0.358,-1.884 -0.704,-2.581 -0.748,-1.507 -0.726,-2.825 -0.248,-3.995 0.116,-0.629 0.299,-1.331 0.489,-2.056 0.561,-2.131 1.14,-4.334 0.254,-5.485 -0.389,-0.506 -1.042,-0.762 -1.94,-0.762 -0.062,0 -0.113,0.051 -0.113,0.112 0,0.062 0.051,0.113 0.113,0.113 0.837,0 1.414,0.22 1.763,0.674 0.819,1.063 0.253,3.212 -0.293,5.291 -0.046,0.171 -0.09,0.34 -0.134,0.509 -0.02,-0.018 -0.044,-0.03 -0.072,-0.03 -0.01,0 -0.018,0.001 -0.028,0.004 -0.375,0.093 -0.815,0.088 -1.239,0.082 -0.142,-0.002 -0.282,-0.004 -0.42,-0.002 -0.062,0.001 -0.112,0.052 -0.111,0.113 0.001,0.062 0.051,0.112 0.112,0.112 0.027,-0.001 0.074,-0.001 0.112,-0.001 0.101,0 0.202,0.002 0.304,0.003 0.438,0.005 0.891,0.01 1.294,-0.09 -0.219,0.855 -0.399,1.657 -0.434,2.322 -0.716,-0.802 -2,-3.836 -2.767,-3.447 -0.08,0.04 -0.158,0.093 -0.235,0.156 -0.023,-0.01 -0.047,-0.015 -0.071,-0.009 -0.275,0.069 -0.513,0.214 -0.725,0.408 -0.562,-0.284 -1.128,-0.622 -1.421,-1.273 -0.019,-0.042 -0.059,-0.067 -0.102,-0.067 -0.015,0 -0.032,0.003 -0.046,0.01 -0.016,0.008 -0.029,0.019 -0.04,0.032 0.144,-0.421 0.292,-0.828 0.439,-1.205 0.32,-0.566 0.68,-1.16 1.089,-1.787 0.034,-0.051 0.019,-0.121 -0.033,-0.154 -0.05,-0.035 -0.12,-0.021 -0.154,0.031 0.084,-0.121 0.162,-0.217 0.226,-0.252 0,-2.389 4.472,-3.144 5.487,-1.088 0.864,1.751 -0.809,5.095 -0.945,7.018 0.926,-1.563 2.632,-2.846 4.254,-3.952 -0.046,-0.059 -0.093,-0.118 -0.139,-0.177 -1.963,-2.492 -3.658,-4.643 -4.376,-6.356 -0.024,-0.058 0.003,-0.123 0.06,-0.148 0.015,-0.006 0.029,-0.008 0.043,-0.008 0.044,0 0.086,0.026 0.103,0.069 0.707,1.683 2.474,3.928 4.346,6.304 0.049,0.063 0.099,0.126 0.148,0.189 0.323,-0.219 0.642,-0.431 0.949,-0.637 0.772,-0.519 2.257,-0.135 3.158,-0.589 1.316,-0.663 5.044,3.576 5.382,4.596 0.925,2.796 0.452,3.983 -0.498,4.802 1.505,0.11 3.606,1.044 4.485,2.866 0.006,0.014 0.011,0.027 0.017,0.04 1.596,-0.646 3.106,-1.167 4.477,-1.64 2.284,-0.786 4.086,-1.407 5.076,-2.201 0.02,-0.016 0.045,-0.024 0.069,-0.024 0.032,0 0.063,0.013 0.086,0.039 0.038,0.046 0.031,0.113 -0.016,0.151 -1.018,0.817 -2.838,1.444 -5.141,2.237"
             style="fill:#f2f2f2;fill-opacity:1;fill-rule:nonzero;stroke:none"
             id="path3422"
             inkscape:connector-curvature="0" /></g><g
           id="g3424"
           transform="translate(45.7295,14.5088)"><path
             d="m 0,0 c -2.189,-2.132 -2.471,-2.447 -4.72,-4.728 -1.97,0.813 -6.528,0.762 -10.382,0.947 -2.07,0.898 -8.206,-0.349 -9.439,0 -1.83,3.053 -4.611,6.678 -7.551,10.399 -2.732,2.642 -8.405,6.918 -7.551,7.565 1.693,3.302 2.923,6.26 5.663,9.454 2.423,2.824 4.292,4.84 5.664,7.563 2.195,4.362 5.777,7.945 7.55,8.509 L 0.944,33.091 C 1.815,32.354 2.813,31.292 3.558,29.825 5.93,25.143 8.495,18.909 11.327,14.183 12.014,13.035 11.739,13.294 12.271,12.491 10.098,9.767 4.291,4.178 0,0 m -13.729,44.491 c -22.416,0 -27,-4.553 -27,-27 0,-22.447 4.514,-27 27,-27 22.489,0 27,4.544 27,27 0,22.458 -4.585,27 -27,27"
             style="fill:#f2f2f2;fill-opacity:1;fill-rule:nonzero;stroke:none"
             id="path3426"
             inkscape:connector-curvature="0" /></g></g></g></g></svg>