<?xml version="1.0" encoding="utf-8"?>
<!-- Generator: Adobe Illustrator 16.0.0, SVG Export Plug-In . SVG Version: 6.00 Build 0)  -->
<!DOCTYPE svg PUBLIC "-//W3C//DTD SVG 1.1//EN" "http://www.w3.org/Graphics/SVG/1.1/DTD/svg11.dtd">
<svg version="1.1"
	 id="svg2" inkscape:export-filename="/home/kivutar/Bureau/lakka-menu/reload.png" inkscape:export-xdpi="90" inkscape:version="0.48.4 r9939" inkscape:export-ydpi="90" sodipodi:docname="reload.svg" xmlns:svg="http://www.w3.org/2000/svg" xmlns:cc="http://creativecommons.org/ns#" xmlns:sodipodi="http://sodipodi.sourceforge.net/DTD/sodipodi-0.dtd" xmlns:rdf="http://www.w3.org/1999/02/22-rdf-syntax-ns#" xmlns:dc="http://purl.org/dc/elements/1.1/" xmlns:inkscape="http://www.inkscape.org/namespaces/inkscape"
	 xmlns="http://www.w3.org/2000/svg" xmlns:xlink="http://www.w3.org/1999/xlink" x="0px" y="0px" width="64px" height="64px"
	 viewBox="0 128 64 64" enable-background="new 0 128 64 64" xml:space="preserve">
<path id="Big_Disk" fill="#F2F2F2" d="M55,148v-9c0-0.553-0.447-1-1-1H10c-0.553,0-1,0.447-1,1v42c0,0.553,0.447,1,1,1h16
	c0-0.553,0.447-1,1-1s1,0.447,1,1h8c0-0.553,0.447-1,1-1s1,0.447,1,1h16c0.553,0,1-0.447,1-1v-31h-1v-2H55z M34,177
	c0,1.104-0.896,2-2,2s-2-0.896-2-2v-6c0-1.104,0.896-2,2-2s2,0.896,2,2V177z M32,166c-3.313,0-6-2.687-6-6s2.687-6,6-6s6,2.687,6,6
	S35.313,166,32,166z M40,164c-0.553,0-1-0.447-1-1s0.447-1,1-1s1,0.447,1,1S40.553,164,40,164z M52,149c0,0.553-0.447,1-1,1H13
	c-0.553,0-1-0.447-1-1v-8c0-0.553,0.447-1,1-1h38c0.553,0,1,0.447,1,1V149z M36,160c0,2.209-1.791,4-4,4s-4-1.791-4-4s1.791-4,4-4
	S36,157.791,36,160z M50,147c0,0.553-0.447,1-1,1H15c-0.553,0-1-0.447-1-1v-4c0-0.553,0.447-1,1-1h34c0.553,0,1,0.447,1,1V147z"/>
</svg>
