<?xml version="1.0" encoding="UTF-8" standalone="no"?>
<!-- Created with Inkscape (http://www.inkscape.org/) -->

<svg
   xmlns:dc="http://purl.org/dc/elements/1.1/"
   xmlns:cc="http://creativecommons.org/ns#"
   xmlns:rdf="http://www.w3.org/1999/02/22-rdf-syntax-ns#"
   xmlns:svg="http://www.w3.org/2000/svg"
   xmlns="http://www.w3.org/2000/svg"
   xmlns:sodipodi="http://sodipodi.sourceforge.net/DTD/sodipodi-0.dtd"
   xmlns:inkscape="http://www.inkscape.org/namespaces/inkscape"
   id="svg3932"
   version="1.1"
   inkscape:version="0.48.5 r10040"
   width="64"
   height="64"
   xml:space="preserve"
   sodipodi:docname="Dungeon Crawl Stone Soup-content.svg"
   inkscape:export-filename="/Users/margetts/Desktop/Icon Workshop/Monochrome Plus June/png/Dungeon Crawl Stone Soup-content.png"
   inkscape:export-xdpi="360"
   inkscape:export-ydpi="360"><metadata
     id="metadata3938"><rdf:RDF><cc:Work
         rdf:about=""><dc:format>image/svg+xml</dc:format><dc:type
           rdf:resource="http://purl.org/dc/dcmitype/StillImage" /><dc:title></dc:title></cc:Work></rdf:RDF></metadata><defs
     id="defs3936"><clipPath
       clipPathUnits="userSpaceOnUse"
       id="clipPath3946"><path
         d="M 0,64 64,64 64,0 0,0 0,64 z"
         id="path3948"
         inkscape:connector-curvature="0" /></clipPath></defs><sodipodi:namedview
     pagecolor="#ffffff"
     bordercolor="#666666"
     borderopacity="1"
     objecttolerance="10"
     gridtolerance="10"
     guidetolerance="10"
     inkscape:pageopacity="0"
     inkscape:pageshadow="2"
     inkscape:window-width="1676"
     inkscape:window-height="1005"
     id="namedview3934"
     showgrid="false"
     inkscape:zoom="5.3740115"
     inkscape:cx="22.361144"
     inkscape:cy="71.755791"
     inkscape:window-x="4"
     inkscape:window-y="1"
     inkscape:window-maximized="1"
     inkscape:current-layer="g3940" /><g
     id="g3940"
     inkscape:groupmode="layer"
     inkscape:label="Dungeon Crawl Stone Soup-content"
     transform="matrix(1.25,0,0,-1.25,0,64)"><g
       id="g3942"
       transform="matrix(0.79983222,0,0,0.79983222,0.40871631,-0.01710549)"><g
         id="g3944"
         clip-path="url(#clipPath3946)"><g
           id="g3950"
           transform="translate(18.9917,13)"><path
             d="M 0,0 C 0,0 4,-2.888 12,-2.943 20,-3 25,0 25,0 25,0 25.97,0.957 24,1 L 23,0 22,0 21,0 20,-1 19,0 18,-1 17,-1 16,-2 15,0 14,-2 13,-1 12,-2 11,-1 10,-2 9,0 8,-1 7,-1 6,-2 5,0 4,-1 3,0 2,0 1,1 0,0 z"
             style="fill:#f2f2f2;fill-opacity:1;fill-rule:nonzero;stroke:none"
             id="path3952"
             inkscape:connector-curvature="0" /></g><g
           id="g3954"
           transform="translate(15.2939,29.624)"><path
             d="m 0,0 c -0.734,0.308 -2.085,-0.625 -2.85,-2.453 -0.765,-1.828 -0.482,-3.444 0.252,-3.752 0.735,-0.307 2.085,0.625 2.85,2.453 C 1.018,-1.924 0.734,-0.307 0,0"
             style="fill:#f2f2f2;fill-opacity:1;fill-rule:nonzero;stroke:none"
             id="path3956"
             inkscape:connector-curvature="0" /></g><g
           id="g3958"
           transform="translate(47.9912,26.5)"><path
             d="M 0,0 C 0,-1.768 0.79,-3 1.5,-3 2.21,-3 3,-1.768 3,0 3,1.768 2.21,3 1.5,3 0.79,3 0,1.768 0,0"
             style="fill:#f2f2f2;fill-opacity:1;fill-rule:nonzero;stroke:none"
             id="path3960"
             inkscape:connector-curvature="0" /></g><g
           id="g3962"
           transform="translate(51.9912,26.5)"><path
             d="M 0,0 C 0,-2.243 -1.098,-4 -2.5,-4 -3.902,-4 -5,-2.243 -5,0 -5,2.243 -3.902,4 -2.5,4 -1.098,4 0,2.243 0,0 m -9.842,7.526 c -1.645,-0.548 -1.802,-1.025 -1.814,-1.077 l 0.035,-0.035 0.037,-0.137 C -10.82,5.132 -10.623,4.195 -10.997,3.495 -11.515,2.528 -12.85,2.5 -13,2.5 c -0.99,0 -1.652,0.299 -1.968,0.889 -0.495,0.924 0.134,2.187 0.427,2.687 -0.004,0.004 -0.009,0.008 -0.014,0.012 -0.86,0.691 -5.392,0.079 -8.336,-0.576 L -23,5.5 c -8.082,0 -13.102,3.942 -13.312,4.109 -0.215,0.173 -0.25,0.488 -0.078,0.704 0.173,0.214 0.487,0.25 0.702,0.078 0.049,-0.038 4.95,-3.872 12.634,-3.891 1.38,0.305 7.603,1.589 9.125,0.368 C -13.648,6.644 -13.5,6.343 -13.5,6 l 0,-0.15 -0.084,-0.126 c -0.27,-0.41 -0.749,-1.403 -0.502,-1.864 0.16,-0.297 0.679,-0.36 1.086,-0.36 0.227,0.002 0.922,0.092 1.122,0.469 0.181,0.341 -0.011,0.963 -0.538,1.754 -0.131,0.118 -0.319,0.504 -0.213,0.956 0.167,0.71 0.976,1.298 2.471,1.796 2.927,0.975 4.915,1.963 4.934,1.972 0.248,0.122 0.547,0.024 0.671,-0.223 C -4.43,9.977 -4.529,9.677 -4.776,9.553 -4.859,9.512 -6.843,8.525 -9.842,7.526 m -25.667,-8.588 c -0.934,-2.231 -2.757,-3.521 -4.151,-2.937 -1.395,0.583 -1.755,2.787 -0.821,5.018 0.933,2.23 2.756,3.52 4.15,2.936 1.395,-0.583 1.755,-2.787 0.822,-5.017 M -37,14 c 0,2.485 7.388,4.5 16.5,4.5 4.212,0 8.04,-0.435 10.955,-1.144 l -1.349,-2.36 -0.019,-0.034 c -2.639,0.336 -5.964,0.538 -9.587,0.538 -8.56,0 -15.5,-1.119 -15.5,-2.5 0,-1.381 6.94,-2.5 15.5,-2.5 8.561,0 15.5,1.119 15.5,2.5 0,0.388 -0.563,0.754 -1.541,1.082 l 1.024,1.793 C -4.55,15.304 -4,14.67 -4,14 -4,11.515 -11.387,9.5 -20.5,9.5 -29.612,9.5 -37,11.515 -37,14 m 30.975,7.5 4,5 2,0 L 0,25.391 -4.025,20.5 -8,13.5 c 0,-1 -1,-1 -1,-1 -2,0 -2,1 -2,1 l 4.975,8 z M -3,5.5 c 0,0 -3,3 0,6 0,0 2,3 -1,5 0,0 -0.306,0.201 -0.868,0.51 l 1.669,2.92 3.971,4.825 0.237,0.745 0,1 c -0.002,0.551 -0.454,1 -1.005,1 l -2.029,0 c -0.304,0 -0.591,-0.138 -0.782,-0.375 l -4,-5 -0.047,-0.061 -0.04,-0.068 -1.868,-3.27 C -11.343,19.645 -14.842,20.5 -19,20.5 l -7,0 c 0,0 -10,-1 -12,-5 0,0 -1,-1 1,-7 0,0 0.887,-1.005 -1.056,-3.002 C -40,3.5 -40.991,4.5 -42,-0.5 c 0,0 0.009,-3 3,-5 0,0 3,-3 2,-5 l -1,-3 3,-1 2,3 c 0,0 8,-3 25,0 l 3,-3 2,2 -1,3 2,5 c 0,0 3.018,0 3.009,5 0,0 -1.009,4 -4.009,5"
             style="fill:#f2f2f2;fill-opacity:1;fill-rule:nonzero;stroke:none"
             id="path3964"
             inkscape:connector-curvature="0" /></g></g></g></g></svg>