<?xml version="1.0" encoding="UTF-8" standalone="no"?>
<!-- Created with Inkscape (http://www.inkscape.org/) -->

<svg
   xmlns:dc="http://purl.org/dc/elements/1.1/"
   xmlns:cc="http://creativecommons.org/ns#"
   xmlns:rdf="http://www.w3.org/1999/02/22-rdf-syntax-ns#"
   xmlns:svg="http://www.w3.org/2000/svg"
   xmlns="http://www.w3.org/2000/svg"
   xmlns:sodipodi="http://sodipodi.sourceforge.net/DTD/sodipodi-0.dtd"
   xmlns:inkscape="http://www.inkscape.org/namespaces/inkscape"
   id="svg3466"
   version="1.1"
   inkscape:version="0.48.5 r10040"
   width="64"
   height="64"
   xml:space="preserve"
   sodipodi:docname="Dungeon Crawl Stone Soup.svg"
   inkscape:export-filename="/Users/margetts/Desktop/Icon Workshop/Monochrome Plus June/png/Dungeon Crawl Stone Soup.png"
   inkscape:export-xdpi="360"
   inkscape:export-ydpi="360"><metadata
     id="metadata3472"><rdf:RDF><cc:Work
         rdf:about=""><dc:format>image/svg+xml</dc:format><dc:type
           rdf:resource="http://purl.org/dc/dcmitype/StillImage" /><dc:title></dc:title></cc:Work></rdf:RDF></metadata><defs
     id="defs3470"><clipPath
       clipPathUnits="userSpaceOnUse"
       id="clipPath3480"><path
         d="M 0,64 64,64 64,0 0,0 0,64 z"
         id="path3482"
         inkscape:connector-curvature="0" /></clipPath></defs><sodipodi:namedview
     pagecolor="#ffffff"
     bordercolor="#666666"
     borderopacity="1"
     objecttolerance="10"
     gridtolerance="10"
     guidetolerance="10"
     inkscape:pageopacity="0"
     inkscape:pageshadow="2"
     inkscape:window-width="1676"
     inkscape:window-height="1005"
     id="namedview3468"
     showgrid="false"
     inkscape:zoom="3.8"
     inkscape:cx="6.9736842"
     inkscape:cy="40"
     inkscape:window-x="4"
     inkscape:window-y="1"
     inkscape:window-maximized="1"
     inkscape:current-layer="g3474" /><g
     id="g3474"
     inkscape:groupmode="layer"
     inkscape:label="Dungeon Crawl Stone Soup"
     transform="matrix(1.25,0,0,-1.25,0,64)"><g
       id="g3476"
       transform="matrix(0.8,0,0,0.8,-1.6e-4,0)"><g
         id="g3478"
         clip-path="url(#clipPath3480)"><g
           id="g3484"
           transform="translate(49.4912,29.5)"><path
             d="m 0,0 c 0.71,0 1.5,-1.232 1.5,-3 0,-1.768 -0.79,-3 -1.5,-3 -0.71,0 -1.5,1.232 -1.5,3 0,1.768 0.79,3 1.5,3 m 0,-7 c 1.402,0 2.5,1.757 2.5,4 0,2.243 -1.098,4 -2.5,4 -1.402,0 -2.5,-1.757 -2.5,-4 0,-2.243 1.098,-4 2.5,-4"
             style="fill:#f2f2f2;fill-opacity:1;fill-rule:nonzero;stroke:none"
             id="path3486"
             inkscape:connector-curvature="0" /></g><g
           id="g3488"
           transform="translate(47.4385,36.7236)"><path
             d="m 0,0 c -0.124,0.247 -0.423,0.346 -0.671,0.224 -0.019,-0.01 -2.008,-0.997 -4.934,-1.973 -1.496,-0.498 -2.304,-1.086 -2.471,-1.796 -0.107,-0.452 0.082,-0.838 0.213,-0.956 0.527,-0.791 0.718,-1.413 0.538,-1.754 -0.2,-0.377 -0.896,-0.467 -1.122,-0.469 -0.407,0 -0.926,0.063 -1.086,0.361 -0.247,0.461 0.231,1.454 0.502,1.863 l 0.084,0.126 0,0.15 c 0,0.343 -0.149,0.644 -0.429,0.869 -1.522,1.22 -7.746,-0.064 -9.125,-0.369 -7.685,0.019 -12.585,3.853 -12.634,3.891 -0.216,0.172 -0.53,0.137 -0.703,-0.078 -0.172,-0.216 -0.137,-0.53 0.078,-0.703 0.21,-0.167 5.23,-4.11 13.313,-4.11 l 0.108,0.012 c 2.944,0.655 7.477,1.268 8.337,0.576 0.005,-0.004 0.01,-0.008 0.014,-0.011 -0.293,-0.5 -0.922,-1.763 -0.427,-2.688 0.315,-0.59 0.977,-0.889 1.968,-0.889 0.15,0 1.485,0.029 2.003,0.995 0.374,0.701 0.176,1.637 -0.587,2.783 l -0.037,0.136 -0.036,0.036 c 0.013,0.051 0.169,0.528 1.815,1.077 2.999,0.999 4.982,1.985 5.065,2.026 C 0.023,-0.547 0.123,-0.247 0,0"
             style="fill:#f2f2f2;fill-opacity:1;fill-rule:nonzero;stroke:none"
             id="path3490"
             inkscape:connector-curvature="0" /></g><g
           id="g3492"
           transform="translate(15.5459,25.8721)"><path
             d="m 0,0 c -0.765,-1.828 -2.116,-2.761 -2.85,-2.453 -0.734,0.307 -1.018,1.924 -0.253,3.752 0.766,1.828 2.117,2.761 2.851,2.453 C 0.482,3.445 0.765,1.828 0,0 M 0.114,4.583 C -1.28,5.167 -3.103,3.877 -4.036,1.646 -4.97,-0.584 -4.61,-2.788 -3.215,-3.371 -1.821,-3.955 0.002,-2.665 0.936,-0.435 1.869,1.796 1.509,4 0.114,4.583"
             style="fill:#f2f2f2;fill-opacity:1;fill-rule:nonzero;stroke:none"
             id="path3494"
             inkscape:connector-curvature="0" /></g><g
           id="g3496"
           transform="translate(47.9912,43)"><path
             d="m 0,0 c 3,-2 1,-5 1,-5 -3,-3 0,-6 0,-6 3,-1 4,-5 4,-5 0,-5 -3,-5 -3,-5 l -2,-5 1,-3 -2,-2 -3,3 c -17,-3 -25,0 -25,0 l -2,-3 -3,1 1,3 c 1,2 -2,5 -2,5 -3.992,2 -3,5 -3,5 1,5 2,4 3.943,5.998 C -32.113,-9.005 -33,-8 -33,-8 c -2,6 -1,7 -1,7 2,4 12,5 12,5 l 7,0 c 4.158,0 7.657,-0.855 10.237,-1.774 l 1.869,3.27 0.039,0.068 0.048,0.061 4,5 C 1.383,10.862 1.671,11 1.975,11 l 2.028,0 c 0.552,0 0.999,-0.446 1,-0.997 L 5.009,8.542 4.772,8.255 0.801,3.43 -0.868,0.51 C -0.306,0.201 0,0 0,0 m -4,-30 c 0,0 -5,-3 -13,-2.943 -8,0.055 -12,2.943 -12,2.943 l 1,1 1,-1 1,0 1,-1 1,1 1,-2 1,1 1,0 1,1 1,-2 1,1 1,-1 1,1 1,-1 1,2 1,-2 1,1 1,0 1,1 1,-1 1,1 1,0 1,0 1,1 c 1.971,-0.043 1,-1 1,-1 m -11.991,46 c -22.415,0 -27,-4.553 -27,-27 0,-22.447 4.514,-27 27,-27 22.489,0 27,4.544 27,27 0,22.458 -4.585,27 -27,27"
             style="fill:#f2f2f2;fill-opacity:1;fill-rule:nonzero;stroke:none"
             id="path3498"
             inkscape:connector-curvature="0" /></g><g
           id="g3500"
           transform="translate(51.9658,53)"><path
             d="m 0,0 -2,0 -4,-5 -4.975,-8 c 0,0 0,-1 2,-1 0,0 1,0 1,1 L -4,-6 0.025,-1.109 0,0 z"
             style="fill:#f2f2f2;fill-opacity:1;fill-rule:nonzero;stroke:none"
             id="path3502"
             inkscape:connector-curvature="0" /></g><g
           id="g3504"
           transform="translate(45.4492,40.5815)"><path
             d="m 0,0 c 0.979,-0.328 1.542,-0.693 1.542,-1.082 0,-1.38 -6.939,-2.5 -15.5,-2.5 -8.561,0 -15.5,1.12 -15.5,2.5 0,1.381 6.939,2.5 15.5,2.5 3.623,0 6.947,-0.202 9.587,-0.538 l 0.019,0.035 1.349,2.36 c -2.915,0.708 -6.743,1.143 -10.955,1.143 -9.113,0 -16.5,-2.014 -16.5,-4.5 0,-2.485 7.387,-4.5 16.5,-4.5 9.112,0 16.5,2.015 16.5,4.5 0,0.671 -0.551,1.305 -1.517,1.876 L 0,0 z"
             style="fill:#f2f2f2;fill-opacity:1;fill-rule:nonzero;stroke:none"
             id="path3506"
             inkscape:connector-curvature="0" /></g></g></g></g></svg>