<?xml version="1.0" encoding="UTF-8" standalone="no"?>
<!-- Created with Inkscape (http://www.inkscape.org/) -->

<svg
   xmlns:dc="http://purl.org/dc/elements/1.1/"
   xmlns:cc="http://creativecommons.org/ns#"
   xmlns:rdf="http://www.w3.org/1999/02/22-rdf-syntax-ns#"
   xmlns:svg="http://www.w3.org/2000/svg"
   xmlns="http://www.w3.org/2000/svg"
   xmlns:sodipodi="http://sodipodi.sourceforge.net/DTD/sodipodi-0.dtd"
   xmlns:inkscape="http://www.inkscape.org/namespaces/inkscape"
   id="svg3492"
   version="1.1"
   inkscape:version="0.48.5 r10040"
   width="64"
   height="64"
   xml:space="preserve"
   sodipodi:docname="Emerson - Arcadia 2001.svg"
   inkscape:export-filename="/Users/margetts/Desktop/Icon Workshop/Monochrome Plus June/png/Emerson - Arcadia 2001.png"
   inkscape:export-xdpi="360"
   inkscape:export-ydpi="360"><metadata
     id="metadata3498"><rdf:RDF><cc:Work
         rdf:about=""><dc:format>image/svg+xml</dc:format><dc:type
           rdf:resource="http://purl.org/dc/dcmitype/StillImage" /><dc:title></dc:title></cc:Work></rdf:RDF></metadata><defs
     id="defs3496"><clipPath
       clipPathUnits="userSpaceOnUse"
       id="clipPath3508"><path
         d="M 0,64 64,64 64,0 0,0 0,64 z"
         id="path3510"
         inkscape:connector-curvature="0" /></clipPath></defs><sodipodi:namedview
     pagecolor="#ffffff"
     bordercolor="#666666"
     borderopacity="1"
     objecttolerance="10"
     gridtolerance="10"
     guidetolerance="10"
     inkscape:pageopacity="0"
     inkscape:pageshadow="2"
     inkscape:window-width="1676"
     inkscape:window-height="1005"
     id="namedview3494"
     showgrid="false"
     inkscape:zoom="10.4125"
     inkscape:cx="27.947179"
     inkscape:cy="40"
     inkscape:window-x="4"
     inkscape:window-y="1"
     inkscape:window-maximized="1"
     inkscape:current-layer="g3500" /><g
     id="g3500"
     inkscape:groupmode="layer"
     inkscape:label="Emerson - Arcadia 2001"
     transform="matrix(1.25,0,0,-1.25,0,64)"><g
       id="g3566"
       transform="scale(0.8,0.8)"><path
         id="path3502"
         style="fill:#ffffff;fill-opacity:1;fill-rule:nonzero;stroke:none"
         d="m 43.398,53.414 -22.345,0 0,3.724 22.345,0 0,-3.724 z"
         inkscape:connector-curvature="0" /><g
         id="g3504"><g
           clip-path="url(#clipPath3508)"
           id="g3506"><g
             transform="translate(28,47)"
             id="g3512"><path
               id="path3514"
               style="fill:#f2f2f2;fill-opacity:1;fill-rule:nonzero;stroke:none"
               d="m 0,0 c 0,-1.104 -0.896,-2 -2,-2 -1.104,0 -2,0.896 -2,2 0,1.104 0.896,2 2,2 1.104,0 2,-0.896 2,-2"
               inkscape:connector-curvature="0" /></g><g
             transform="translate(34,47)"
             id="g3516"><path
               id="path3518"
               style="fill:#f2f2f2;fill-opacity:1;fill-rule:nonzero;stroke:none"
               d="m 0,0 c 0,-1.104 -0.896,-2 -2,-2 -1.104,0 -2,0.896 -2,2 0,1.104 0.896,2 2,2 1.104,0 2,-0.896 2,-2"
               inkscape:connector-curvature="0" /></g><g
             transform="translate(40,47)"
             id="g3520"><path
               id="path3522"
               style="fill:#f2f2f2;fill-opacity:1;fill-rule:nonzero;stroke:none"
               d="m 0,0 c 0,-1.104 -0.896,-2 -2,-2 -1.104,0 -2,0.896 -2,2 0,1.104 0.896,2 2,2 1.104,0 2,-0.896 2,-2"
               inkscape:connector-curvature="0" /></g><g
             transform="translate(28,41)"
             id="g3524"><path
               id="path3526"
               style="fill:#f2f2f2;fill-opacity:1;fill-rule:nonzero;stroke:none"
               d="m 0,0 c 0,-1.104 -0.896,-2 -2,-2 -1.104,0 -2,0.896 -2,2 0,1.104 0.896,2 2,2 1.104,0 2,-0.896 2,-2"
               inkscape:connector-curvature="0" /></g><g
             transform="translate(34,41)"
             id="g3528"><path
               id="path3530"
               style="fill:#f2f2f2;fill-opacity:1;fill-rule:nonzero;stroke:none"
               d="m 0,0 c 0,-1.104 -0.896,-2 -2,-2 -1.104,0 -2,0.896 -2,2 0,1.104 0.896,2 2,2 1.104,0 2,-0.896 2,-2"
               inkscape:connector-curvature="0" /></g><g
             transform="translate(40,41)"
             id="g3532"><path
               id="path3534"
               style="fill:#f2f2f2;fill-opacity:1;fill-rule:nonzero;stroke:none"
               d="m 0,0 c 0,-1.104 -0.896,-2 -2,-2 -1.104,0 -2,0.896 -2,2 0,1.104 0.896,2 2,2 1.104,0 2,-0.896 2,-2"
               inkscape:connector-curvature="0" /></g><g
             transform="translate(28,35)"
             id="g3536"><path
               id="path3538"
               style="fill:#f2f2f2;fill-opacity:1;fill-rule:nonzero;stroke:none"
               d="m 0,0 c 0,-1.104 -0.896,-2 -2,-2 -1.104,0 -2,0.896 -2,2 0,1.104 0.896,2 2,2 1.104,0 2,-0.896 2,-2"
               inkscape:connector-curvature="0" /></g><g
             transform="translate(34,35)"
             id="g3540"><path
               id="path3542"
               style="fill:#f2f2f2;fill-opacity:1;fill-rule:nonzero;stroke:none"
               d="m 0,0 c 0,-1.104 -0.896,-2 -2,-2 -1.104,0 -2,0.896 -2,2 0,1.104 0.896,2 2,2 1.104,0 2,-0.896 2,-2"
               inkscape:connector-curvature="0" /></g><g
             transform="translate(40,35)"
             id="g3544"><path
               id="path3546"
               style="fill:#f2f2f2;fill-opacity:1;fill-rule:nonzero;stroke:none"
               d="m 0,0 c 0,-1.104 -0.896,-2 -2,-2 -1.104,0 -2,0.896 -2,2 0,1.104 0.896,2 2,2 1.104,0 2,-0.896 2,-2"
               inkscape:connector-curvature="0" /></g><g
             transform="translate(28,29)"
             id="g3548"><path
               id="path3550"
               style="fill:#f2f2f2;fill-opacity:1;fill-rule:nonzero;stroke:none"
               d="m 0,0 c 0,-1.104 -0.896,-2 -2,-2 -1.104,0 -2,0.896 -2,2 0,1.104 0.896,2 2,2 1.104,0 2,-0.896 2,-2"
               inkscape:connector-curvature="0" /></g><g
             transform="translate(34,29)"
             id="g3552"><path
               id="path3554"
               style="fill:#f2f2f2;fill-opacity:1;fill-rule:nonzero;stroke:none"
               d="m 0,0 c 0,-1.104 -0.896,-2 -2,-2 -1.104,0 -2,0.896 -2,2 0,1.104 0.896,2 2,2 1.104,0 2,-0.896 2,-2"
               inkscape:connector-curvature="0" /></g><g
             transform="translate(40,29)"
             id="g3556"><path
               id="path3558"
               style="fill:#f2f2f2;fill-opacity:1;fill-rule:nonzero;stroke:none"
               d="m 0,0 c 0,-1.104 -0.896,-2 -2,-2 -1.104,0 -2,0.896 -2,2 0,1.104 0.896,2 2,2 1.104,0 2,-0.896 2,-2"
               inkscape:connector-curvature="0" /></g><g
             transform="translate(34,14)"
             id="g3560"><path
               id="path3562"
               style="fill:#f2f2f2;fill-opacity:1;fill-rule:nonzero;stroke:none"
               d="m 0,0 c 0,-1.104 -0.896,-2 -2,-2 -1.104,0 -2,0.896 -2,2 0,1.104 0.896,2 2,2 1.104,0 2,-0.896 2,-2"
               inkscape:connector-curvature="0" /></g><path
             id="path3564"
             style="fill:#f2f2f2;fill-opacity:1;fill-rule:nonzero;stroke:none"
             d="m 43,53 -22,0 0,4 22,0 0,-4 z m 0,-28 -22,0 0,26 22,0 0,-26 z M 32,6 c -4.418,0 -8,3.582 -8,8 0,4.418 3.582,8 8,8 4.418,0 8,-3.582 8,-8 0,-4.418 -3.582,-8 -8,-8 m 13,32 0,1 c 0.553,0 1,0.671 1,1.5 0,0.829 -0.447,1.5 -1,1.5 l 0,17 -26,0 0,-17 c -0.552,0 -1,-0.671 -1,-1.5 0,-0.829 0.448,-1.5 1,-1.5 l 0,-1 c -0.552,0 -1,-0.671 -1,-1.5 0,-0.829 0.448,-1.5 1,-1.5 l 0,-30 26,0 0,30 c 0.553,0 1,0.671 1,1.5 0,0.829 -0.447,1.5 -1,1.5"
             inkscape:connector-curvature="0" /></g></g></g></g></svg>