<?xml version="1.0" encoding="UTF-8" standalone="no"?>
<!-- Created with Inkscape (http://www.inkscape.org/) -->

<svg
   xmlns:dc="http://purl.org/dc/elements/1.1/"
   xmlns:cc="http://creativecommons.org/ns#"
   xmlns:rdf="http://www.w3.org/1999/02/22-rdf-syntax-ns#"
   xmlns:svg="http://www.w3.org/2000/svg"
   xmlns="http://www.w3.org/2000/svg"
   xmlns:sodipodi="http://sodipodi.sourceforge.net/DTD/sodipodi-0.dtd"
   xmlns:inkscape="http://www.inkscape.org/namespaces/inkscape"
   id="svg3698"
   version="1.1"
   inkscape:version="0.48.5 r10040"
   width="64"
   height="64"
   xml:space="preserve"
   sodipodi:docname="Entex - Adventure Vision.svg"
   inkscape:export-filename="/Users/margetts/Desktop/Icon Workshop/Monochrome Plus June/png/Entex - Adventure Vision.png"
   inkscape:export-xdpi="360"
   inkscape:export-ydpi="360"><metadata
     id="metadata3704"><rdf:RDF><cc:Work
         rdf:about=""><dc:format>image/svg+xml</dc:format><dc:type
           rdf:resource="http://purl.org/dc/dcmitype/StillImage" /><dc:title></dc:title></cc:Work></rdf:RDF></metadata><defs
     id="defs3702"><clipPath
       clipPathUnits="userSpaceOnUse"
       id="clipPath3712"><path
         d="M 0,64 64,64 64,0 0,0 0,64 z"
         id="path3714"
         inkscape:connector-curvature="0" /></clipPath></defs><sodipodi:namedview
     pagecolor="#ffffff"
     bordercolor="#666666"
     borderopacity="1"
     objecttolerance="10"
     gridtolerance="10"
     guidetolerance="10"
     inkscape:pageopacity="0"
     inkscape:pageshadow="2"
     inkscape:window-width="1676"
     inkscape:window-height="1005"
     id="namedview3700"
     showgrid="false"
     inkscape:zoom="10.4125"
     inkscape:cx="27.947179"
     inkscape:cy="40"
     inkscape:window-x="4"
     inkscape:window-y="1"
     inkscape:window-maximized="1"
     inkscape:current-layer="g3706" /><g
     id="g3706"
     inkscape:groupmode="layer"
     inkscape:label="Entex - Adventure Vision"
     transform="matrix(1.25,0,0,-1.25,0,64)"><g
       id="g3708"
       transform="scale(0.8,0.8)"><g
         id="g3710"
         clip-path="url(#clipPath3712)"><g
           id="g3716"
           transform="translate(32.5859,16.9785)"><path
             d="m 0,0 -0.197,-1.59 c -0.028,-0.224 -0.171,-0.389 -0.34,-0.389 l -0.106,0 c -0.168,0 -0.312,0.165 -0.34,0.389 L -1.18,0.004 c -2.243,-0.124 -4.437,-0.984 -4.437,-2.483 0,-1.624 2.576,-2.5 5,-2.5 2.424,0 5,0.876 5,2.5 C 4.383,-0.992 2.225,-0.135 0,0"
             style="fill:#f2f2f2;fill-opacity:1;fill-rule:nonzero;stroke:none"
             id="path3718"
             inkscape:connector-curvature="0" /></g><g
           id="g3720"
           transform="translate(50,14)"><path
             d="M 0,0 -2,1 0,2 2,1 0,0 z m -3,-2 -2,1 2,1 2,-1 -2,-1 z m -5,3 2,1 2,-1 -2,-1 -2,1 z m -19.031,13 c -2.2,0 -4,1.8 -4,4 l 0,10 c 0,2.2 1.8,4 4,4 l 18,0 c 2.2,0 4,-1.8 4,-4 l 0,-10 c 0,-2.2 -1.8,-4 -4,-4 l -18,0 z m 9,-16 -7.969,0 2,5 5.404,0 -0.399,3.232 c -0.026,0.213 0.059,0.426 0.207,0.508 0.793,0.434 1.327,0.235 1.601,0.045 0.134,-0.093 0.207,-0.291 0.182,-0.491 L -17.412,3 -12,3 l 2,-5 -8.031,0 z M -30,0 l -2,1 2,1 2,-1 -2,-1 z m -3,-2 -2,1 2,1 2,-1 -2,-1 z m -5,3 2,1 2,-1 -2,-1 -2,1 z m 5,3 2,-1 -2,-1 -2,1 2,1 z M -1,3 -3,2 -5,3 -3,4 -1,3 z m -35,41 36,0 0,-5 -36,0 0,5 z m 36,-33 0,26 2,2 0,5 c 0,0.552 -0.447,1 -1,1 l -38,0 c -0.552,0 -1,-0.448 -1,-1 l 0,-5 2,-2 0,-26 -8,-13 0,-6 c 0,-0.553 0.448,-1 1,-1 l 50,0 c 0.553,0 1,0.447 1,1 l 0,6 -8,13 z"
             style="fill:#f2f2f2;fill-opacity:1;fill-rule:nonzero;stroke:none"
             id="path3722"
             inkscape:connector-curvature="0" /></g></g></g></g></svg>