<?xml version="1.0" encoding="UTF-8" standalone="no"?>
<!-- Created with Inkscape (http://www.inkscape.org/) -->

<svg
   xmlns:dc="http://purl.org/dc/elements/1.1/"
   xmlns:cc="http://creativecommons.org/ns#"
   xmlns:rdf="http://www.w3.org/1999/02/22-rdf-syntax-ns#"
   xmlns:svg="http://www.w3.org/2000/svg"
   xmlns="http://www.w3.org/2000/svg"
   xmlns:sodipodi="http://sodipodi.sourceforge.net/DTD/sodipodi-0.dtd"
   xmlns:inkscape="http://www.inkscape.org/namespaces/inkscape"
   id="svg4631"
   version="1.1"
   inkscape:version="0.48.5 r10040"
   width="64"
   height="64"
   xml:space="preserve"
   sodipodi:docname="Epoch - Super Cassette Vision.svg"
   inkscape:export-filename="/Users/margetts/Desktop/Icon Workshop/Monochrome July/Epoch - Super Cassette Vision.png"
   inkscape:export-xdpi="360"
   inkscape:export-ydpi="360"><metadata
     id="metadata4637"><rdf:RDF><cc:Work
         rdf:about=""><dc:format>image/svg+xml</dc:format><dc:type
           rdf:resource="http://purl.org/dc/dcmitype/StillImage" /><dc:title></dc:title></cc:Work></rdf:RDF></metadata><defs
     id="defs4635"><clipPath
       clipPathUnits="userSpaceOnUse"
       id="clipPath4693"><path
         d="M 0,64 64,64 64,0 0,0 0,64 z"
         id="path4695"
         inkscape:connector-curvature="0" /></clipPath></defs><sodipodi:namedview
     pagecolor="#ffffff"
     bordercolor="#666666"
     borderopacity="1"
     objecttolerance="10"
     gridtolerance="10"
     guidetolerance="10"
     inkscape:pageopacity="0"
     inkscape:pageshadow="2"
     inkscape:window-width="1676"
     inkscape:window-height="1005"
     id="namedview4633"
     showgrid="false"
     inkscape:zoom="10.4375"
     inkscape:cx="27.976048"
     inkscape:cy="40"
     inkscape:window-x="4"
     inkscape:window-y="1"
     inkscape:window-maximized="1"
     inkscape:current-layer="g4639" /><g
     id="g4639"
     inkscape:groupmode="layer"
     inkscape:label="Epoch - Super Cassette Vision"
     transform="matrix(1.25,0,0,-1.25,0,64)"><g
       id="g4703"
       transform="matrix(0.8,0,0,0.8,-2.8e-4,0)"><path
         id="path4641"
         style="fill:#f2f2f2;fill-opacity:1;fill-rule:nonzero;stroke:none"
         d="m 19,47 -6,0 0,-2 6,0 0,2 z"
         inkscape:connector-curvature="0" /><g
         transform="translate(19,59)"
         id="g4643"><path
           id="path4645"
           style="fill:#f2f2f2;fill-opacity:1;fill-rule:nonzero;stroke:none"
           d="m 0,0 -3,0 -3,-3 0,-2 6,0 0,5 z"
           inkscape:connector-curvature="0" /></g><path
         id="path4647"
         style="fill:#f2f2f2;fill-opacity:1;fill-rule:nonzero;stroke:none"
         d="m 13,52 6,0 0,1 -6,0 0,-1 z"
         inkscape:connector-curvature="0" /><g
         transform="translate(45.0207,53.0001)"
         id="g4649"><path
           id="path4651"
           style="fill:#f2f2f2;fill-opacity:1;fill-rule:nonzero;stroke:none"
           d="m 0,0 -0.002,-1 5.982,0 0,1 L 0,0 z"
           inkscape:connector-curvature="0" /></g><path
         id="path4653"
         style="fill:#f2f2f2;fill-opacity:1;fill-rule:nonzero;stroke:none"
         d="m 13,48 6,0 0,1 -6,0 0,-1 z"
         inkscape:connector-curvature="0" /><path
         id="path4655"
         style="fill:#f2f2f2;fill-opacity:1;fill-rule:nonzero;stroke:none"
         d="m 13,50 6,0 0,1 -6,0 0,-1 z"
         inkscape:connector-curvature="0" /><g
         transform="translate(45,47.9997)"
         id="g4657"><path
           id="path4659"
           style="fill:#f2f2f2;fill-opacity:1;fill-rule:nonzero;stroke:none"
           d="M 0,0 0,-1 0.007,-1 0.009,0 0,0 z"
           inkscape:connector-curvature="0" /></g><g
         transform="translate(45,52.0002)"
         id="g4661"><path
           id="path4663"
           style="fill:#f2f2f2;fill-opacity:1;fill-rule:nonzero;stroke:none"
           d="M 0,0 0,-1 0.015,-1 0.019,0 0,0 z"
           inkscape:connector-curvature="0" /></g><g
         transform="translate(45,54)"
         id="g4665"><path
           id="path4667"
           style="fill:#f2f2f2;fill-opacity:1;fill-rule:nonzero;stroke:none"
           d="M 0,0 0,-1 0.021,-1 0.023,0 0,0 z"
           inkscape:connector-curvature="0" /></g><g
         transform="translate(51,56)"
         id="g4669"><path
           id="path4671"
           style="fill:#f2f2f2;fill-opacity:1;fill-rule:nonzero;stroke:none"
           d="M 0,0 -3,3 -5.966,3 -5.977,-2 0,-2 0,0 z"
           inkscape:connector-curvature="0" /></g><g
         transform="translate(45.0117,48.9996)"
         id="g4673"><path
           id="path4675"
           style="fill:#f2f2f2;fill-opacity:1;fill-rule:nonzero;stroke:none"
           d="m 0,0 -0.003,-1 5.992,0 0,1 L 0,0 z"
           inkscape:connector-curvature="0" /></g><g
         transform="translate(45.0153,51.0003)"
         id="g4677"><path
           id="path4679"
           style="fill:#f2f2f2;fill-opacity:1;fill-rule:nonzero;stroke:none"
           d="m 0,0 -0.002,-1 5.987,0 0,1 L 0,0 z"
           inkscape:connector-curvature="0" /></g><g
         transform="translate(45,50.0004)"
         id="g4681"><path
           id="path4683"
           style="fill:#f2f2f2;fill-opacity:1;fill-rule:nonzero;stroke:none"
           d="m 0,0 0,-1.001 0.012,0 L 0.014,0 0,0 z"
           inkscape:connector-curvature="0" /></g><g
         transform="translate(51,45)"
         id="g4685"><path
           id="path4687"
           style="fill:#f2f2f2;fill-opacity:1;fill-rule:nonzero;stroke:none"
           d="M 0,0 0,2 -5.993,2 -5.998,0 0,0 z"
           inkscape:connector-curvature="0" /></g><g
         id="g4689"><g
           clip-path="url(#clipPath4693)"
           id="g4691"><g
             transform="translate(32,19)"
             id="g4697"><path
               id="path4699"
               style="fill:#f2f2f2;fill-opacity:1;fill-rule:nonzero;stroke:none"
               d="M 0,0 C -2.209,0 -4,1.791 -4,4 -4,6.209 -2.209,8 0,8 2.209,8 4,6.209 4,4 4,1.791 2.209,0 0,0"
               inkscape:connector-curvature="0" /></g><path
             id="path4701"
             style="fill:#f2f2f2;fill-opacity:1;fill-rule:nonzero;stroke:none"
             d="m 48,36 -32,0 0,7 32,0 0,-7 z M 32,13 c -5.523,0 -10,4.478 -10,10 0,5.522 4.477,10 10,10 5.522,0 10,-4.478 10,-10 0,-5.522 -4.478,-10 -10,-10 m 13,31 -1,0 0,15 -24,0 0,-15 -1,0 -6,0 0,-33 1,-6 36,0 1,6 0,33 -6,0 z"
             inkscape:connector-curvature="0" /></g></g></g></g></svg>