<?xml version="1.0" encoding="UTF-8" standalone="no"?>
<!-- Created with Inkscape (http://www.inkscape.org/) -->

<svg
   xmlns:dc="http://purl.org/dc/elements/1.1/"
   xmlns:cc="http://creativecommons.org/ns#"
   xmlns:rdf="http://www.w3.org/1999/02/22-rdf-syntax-ns#"
   xmlns:svg="http://www.w3.org/2000/svg"
   xmlns="http://www.w3.org/2000/svg"
   xmlns:sodipodi="http://sodipodi.sourceforge.net/DTD/sodipodi-0.dtd"
   xmlns:inkscape="http://www.inkscape.org/namespaces/inkscape"
   id="svg4772"
   version="1.1"
   inkscape:version="0.48.5 r10040"
   width="64"
   height="64"
   xml:space="preserve"
   sodipodi:docname="Epoch - Super Cassette Vision-content.svg"
   inkscape:export-filename="/Users/margetts/Desktop/Icon Workshop/Monochrome July/Epoch - Super Cassette Vision-content.png"
   inkscape:export-xdpi="360"
   inkscape:export-ydpi="360"><metadata
     id="metadata4778"><rdf:RDF><cc:Work
         rdf:about=""><dc:format>image/svg+xml</dc:format><dc:type
           rdf:resource="http://purl.org/dc/dcmitype/StillImage" /><dc:title></dc:title></cc:Work></rdf:RDF></metadata><defs
     id="defs4776"><clipPath
       clipPathUnits="userSpaceOnUse"
       id="clipPath4786"><path
         d="M 0,64 64,64 64,0 0,0 0,64 z"
         id="path4788"
         inkscape:connector-curvature="0" /></clipPath></defs><sodipodi:namedview
     pagecolor="#ffffff"
     bordercolor="#666666"
     borderopacity="1"
     objecttolerance="10"
     gridtolerance="10"
     guidetolerance="10"
     inkscape:pageopacity="0"
     inkscape:pageshadow="2"
     inkscape:window-width="1676"
     inkscape:window-height="1005"
     id="namedview4774"
     showgrid="false"
     inkscape:zoom="10.4375"
     inkscape:cx="27.976048"
     inkscape:cy="40"
     inkscape:window-x="4"
     inkscape:window-y="1"
     inkscape:window-maximized="1"
     inkscape:current-layer="g4780" /><g
     id="g4780"
     inkscape:groupmode="layer"
     inkscape:label="Epoch - Super Cassette Vision-content"
     transform="matrix(1.25,0,0,-1.25,0,64)"><g
       id="g4782"
       transform="scale(0.8,0.8)"><g
         id="g4784"
         clip-path="url(#clipPath4786)"><g
           id="g4790"
           transform="translate(59,53)"><path
             d="m 0,0 0,4 c 0,0.552 -0.447,1 -1,1 l -3,0 0,-1 -1,0 0,-23 c 0,-0.552 -0.447,-1 -1,-1 l -42,0 c -0.552,0 -1,0.448 -1,1 l 0,23 -1,0 0,1 -3,0 c -0.552,0 -1,-0.448 -1,-1 l 0,-4 1,0 0,-1 -1,0 0,-1 1,0 0,-1 -1,0 0,-1 1,0 0,-1 -1,0 0,-1 1,0 0,-1 -1,0 0,-1 1,0 0,-1 -1,0 0,-1 1,0 0,-1 -1,0 0,-32 1,-4 52,0 1,4 0,32 -1,0 0,1 1,0 0,1 -1,0 0,1 1,0 0,1 -1,0 0,1 1,0 0,1 -1,0 0,1 1,0 0,1 -1,0 0,1 1,0 0,1 -1,0 0,1 1,0 z"
             style="fill:#f2f2f2;fill-opacity:1;fill-rule:nonzero;stroke:none"
             id="path4792"
             inkscape:connector-curvature="0" /></g><path
           d="m 53,34 -42,0 0,23 42,0 0,-23 z"
           style="fill:#f2f2f2;fill-opacity:1;fill-rule:nonzero;stroke:none"
           id="path4794"
           inkscape:connector-curvature="0" /></g></g></g></svg>