<?xml version="1.0" encoding="UTF-8" standalone="no"?>
<!-- Created with Inkscape (http://www.inkscape.org/) -->

<svg
   xmlns:dc="http://purl.org/dc/elements/1.1/"
   xmlns:cc="http://creativecommons.org/ns#"
   xmlns:rdf="http://www.w3.org/1999/02/22-rdf-syntax-ns#"
   xmlns:svg="http://www.w3.org/2000/svg"
   xmlns="http://www.w3.org/2000/svg"
   xmlns:sodipodi="http://sodipodi.sourceforge.net/DTD/sodipodi-0.dtd"
   xmlns:inkscape="http://www.inkscape.org/namespaces/inkscape"
   id="svg4892"
   version="1.1"
   inkscape:version="0.48.5 r10040"
   width="64"
   height="64"
   xml:space="preserve"
   sodipodi:docname="Fairchild - Channel F-content.svg"
   inkscape:export-filename="/Users/margetts/Desktop/Icon Workshop/Monochrome July/Fairchild - Channel F-content.png"
   inkscape:export-xdpi="360"
   inkscape:export-ydpi="360"><metadata
     id="metadata4898"><rdf:RDF><cc:Work
         rdf:about=""><dc:format>image/svg+xml</dc:format><dc:type
           rdf:resource="http://purl.org/dc/dcmitype/StillImage" /><dc:title></dc:title></cc:Work></rdf:RDF></metadata><defs
     id="defs4896"><clipPath
       clipPathUnits="userSpaceOnUse"
       id="clipPath4906"><path
         d="M 0,64 64,64 64,0 0,0 0,64 z"
         id="path4908"
         inkscape:connector-curvature="0" /></clipPath></defs><sodipodi:namedview
     pagecolor="#ffffff"
     bordercolor="#666666"
     borderopacity="1"
     objecttolerance="10"
     gridtolerance="10"
     guidetolerance="10"
     inkscape:pageopacity="0"
     inkscape:pageshadow="2"
     inkscape:window-width="1676"
     inkscape:window-height="1005"
     id="namedview4894"
     showgrid="false"
     inkscape:zoom="10.4375"
     inkscape:cx="27.976048"
     inkscape:cy="40"
     inkscape:window-x="4"
     inkscape:window-y="1"
     inkscape:window-maximized="1"
     inkscape:current-layer="g4900" /><g
     id="g4900"
     inkscape:groupmode="layer"
     inkscape:label="Fairchild - Channel F-content"
     transform="matrix(1.25,0,0,-1.25,0,64)"><g
       id="g4902"
       transform="matrix(0.8,0,0,0.8,2.4e-4,0)"><g
         id="g4904"
         clip-path="url(#clipPath4906)"><g
           id="g4910"
           transform="translate(15.0347,53)"><path
             d="m 0,0 c 0,0.552 0.448,1 1,1 l 31,0 c 0.552,0 1,-0.448 1,-1 l 0,-35 c 0,-0.553 -0.448,-1 -1,-1 l -31,0 c -0.552,0 -1,0.447 -1,1 L 0,0 z m 37.5,-39 c 0.257,0 0.465,0.208 0.465,0.466 l 0,0.068 c 0,0.258 -0.208,0.466 -0.465,0.466 l -0.535,0 0,41.918 c 0,0.144 -0.034,0.287 -0.1,0.416 L 36.276,5.485 C 36.115,5.801 35.785,6 35.424,6 L -1.494,6 C -1.854,6 -2.184,5.801 -2.346,5.485 L -2.934,4.334 C -3,4.205 -3.035,4.062 -3.035,3.918 l 0,-41.918 -0.534,0 c -0.257,0 -0.466,-0.208 -0.466,-0.466 l 0,-0.068 c 0,-0.258 0.209,-0.466 0.466,-0.466 l 0.534,0 0,-1 -0.534,0 c -0.257,0 -0.466,-0.208 -0.466,-0.466 l 0,-0.068 c 0,-0.258 0.209,-0.466 0.466,-0.466 l 0.534,0 0,-1 -0.534,0 c -0.257,0 -0.466,-0.208 -0.466,-0.466 l 0,-0.068 c 0,-0.258 0.209,-0.466 0.466,-0.466 l 0.534,0 0,-1 -0.534,0 c -0.257,0 -0.466,-0.208 -0.466,-0.466 l 0,-0.068 c 0,-0.258 0.209,-0.466 0.466,-0.466 l 0.534,0 0,-1 -0.534,0 c -0.257,0 -0.466,-0.208 -0.466,-0.466 l 0,-0.068 c 0,-0.258 0.209,-0.466 0.466,-0.466 l 0.534,0 0,-1 40,0 0,1 0.535,0 c 0.257,0 0.465,0.208 0.465,0.466 l 0,0.068 c 0,0.258 -0.208,0.466 -0.465,0.466 l -0.535,0 0,1 0.535,0 c 0.257,0 0.465,0.208 0.465,0.466 l 0,0.068 c 0,0.258 -0.208,0.466 -0.465,0.466 l -0.535,0 0,1 0.535,0 c 0.257,0 0.465,0.208 0.465,0.466 l 0,0.068 c 0,0.258 -0.208,0.466 -0.465,0.466 l -0.535,0 0,1 0.535,0 c 0.257,0 0.465,0.208 0.465,0.466 l 0,0.068 c 0,0.258 -0.208,0.466 -0.465,0.466 l -0.535,0 0,1 0.535,0 z"
             style="fill:#f2f2f2;fill-opacity:1;fill-rule:nonzero;stroke:none"
             id="path4912"
             inkscape:connector-curvature="0" /></g><g
           id="g4914"
           transform="translate(46,18)"><path
             d="m 0,0 -29,0 c -0.552,0 -1,0.447 -1,1 l 0,33 c 0,0.552 0.448,1 1,1 l 29,0 c 0.553,0 1,-0.448 1,-1 L 1,1 C 1,0.447 0.553,0 0,0"
             style="fill:#f2f2f2;fill-opacity:1;fill-rule:nonzero;stroke:none"
             id="path4916"
             inkscape:connector-curvature="0" /></g></g></g></g></svg>