<?xml version="1.0" encoding="utf-8"?>
<!-- Generator: Adobe Illustrator 16.0.4, SVG Export Plug-In . SVG Version: 6.00 Build 0)  -->
<!DOCTYPE svg PUBLIC "-//W3C//DTD SVG 1.1//EN" "http://www.w3.org/Graphics/SVG/1.1/DTD/svg11.dtd">
<svg version="1.1" id="Layer_1" xmlns="http://www.w3.org/2000/svg" xmlns:xlink="http://www.w3.org/1999/xlink" x="0px" y="0px"
	 width="256px" height="256px" viewBox="0 0 256 256" enable-background="new 0 0 256 256" xml:space="preserve">
<path fill-rule="evenodd" clip-rule="evenodd" fill="#F2F2F2" d="M6.895,29.813c0.654,0,1.179,0,1.704,0
	c64.227,0,128.454-0.013,192.682,0.014c9.719,0.004,18.315,3.361,25.853,9.39c10.274,8.219,16.342,19.098,19.646,31.666
	c0.072,0.274,0.077,0.571,0.077,0.857c0.004,11.419,0.003,22.838,0.001,34.257c0,0.2-0.027,0.399-0.04,0.583
	c-0.461,0.29-0.925,0.163-1.361,0.164c-24.487,0.007-48.975,0.006-73.462,0.006c-2.241,0-4.223-1.02-6.286-1.67
	c-22.76-7.174-45.507-14.391-68.257-21.597C67.796,74.089,38.146,64.686,8.48,55.332c-1.23-0.388-1.634-0.869-1.622-2.185
	C6.933,45.439,6.895,37.73,6.895,29.813z"/>
<path fill-rule="evenodd" clip-rule="evenodd" fill="#F2F2F2" d="M152.1,105.264c0,21.019,0,41.957,0,63.04
	c7.091,0,14.113,0,21.21,0c0,18.516,0,36.888,0,55.359c-38.247,0-76.521,0-114.82,0c-0.257-0.352-0.132-0.775-0.132-1.172
	c-0.008-8.658,0.01-17.316-0.029-25.975c-0.004-0.922,0.296-1.364,1.109-1.771c8.655-4.33,17.281-8.719,25.938-13.048
	c0.89-0.445,1.204-0.949,1.203-1.957c-0.03-31.211-0.024-62.422-0.024-93.633c0-0.491,0-0.983,0-1.622
	C108.466,91.433,130.262,98.342,152.1,105.264z"/>
<path fill-rule="evenodd" clip-rule="evenodd" fill="#F2F2F2" d="M246.769,161.365c-29.097,0-58.098,0-87.168,0
	c0-16.198,0-32.34,0-48.579c29.016,0,58.047,0,87.168,0C246.769,128.928,246.769,145.099,246.769,161.365z"/>
</svg>
