<?xml version="1.0" encoding="UTF-8" standalone="no"?>
<!-- Created with Inkscape (http://www.inkscape.org/) -->

<svg
   xmlns:dc="http://purl.org/dc/elements/1.1/"
   xmlns:cc="http://creativecommons.org/ns#"
   xmlns:rdf="http://www.w3.org/1999/02/22-rdf-syntax-ns#"
   xmlns:svg="http://www.w3.org/2000/svg"
   xmlns="http://www.w3.org/2000/svg"
   xmlns:sodipodi="http://sodipodi.sourceforge.net/DTD/sodipodi-0.dtd"
   xmlns:inkscape="http://www.inkscape.org/namespaces/inkscape"
   id="svg4956"
   version="1.1"
   inkscape:version="0.48.5 r10040"
   width="64"
   height="64"
   xml:space="preserve"
   sodipodi:docname="Funtech - Super Acan.svg"
   inkscape:export-filename="/Users/margetts/Desktop/Icon Workshop/Monochrome July/Funtech - Super Acan.png"
   inkscape:export-xdpi="360"
   inkscape:export-ydpi="360"><metadata
     id="metadata4962"><rdf:RDF><cc:Work
         rdf:about=""><dc:format>image/svg+xml</dc:format><dc:type
           rdf:resource="http://purl.org/dc/dcmitype/StillImage" /><dc:title></dc:title></cc:Work></rdf:RDF></metadata><defs
     id="defs4960"><clipPath
       clipPathUnits="userSpaceOnUse"
       id="clipPath4970"><path
         d="M 0,64 64,64 64,0 0,0 0,64 z"
         id="path4972"
         inkscape:connector-curvature="0" /></clipPath></defs><sodipodi:namedview
     pagecolor="#ffffff"
     bordercolor="#666666"
     borderopacity="1"
     objecttolerance="10"
     gridtolerance="10"
     guidetolerance="10"
     inkscape:pageopacity="0"
     inkscape:pageshadow="2"
     inkscape:window-width="1676"
     inkscape:window-height="1005"
     id="namedview4958"
     showgrid="false"
     inkscape:zoom="10.4375"
     inkscape:cx="27.976048"
     inkscape:cy="40"
     inkscape:window-x="4"
     inkscape:window-y="1"
     inkscape:window-maximized="1"
     inkscape:current-layer="g4964" /><g
     id="g4964"
     inkscape:groupmode="layer"
     inkscape:label="Funtech - Super Acan"
     transform="matrix(1.25,0,0,-1.25,0,64)"><g
       id="g4966"
       transform="scale(0.8,0.8)"><g
         id="g4968"
         clip-path="url(#clipPath4970)"><g
           id="g4974"
           transform="translate(54,27.5)"><path
             d="M 0,0 C -1.104,0 -2,0.896 -2,2 -2,3.104 -1.104,4 0,4 1.104,4 2,3.104 2,2 2,0.896 1.104,0 0,0 m -4.5,4 c -1.104,0 -2,0.896 -2,2 0,1.104 0.896,2 2,2 1.104,0 2,-0.896 2,-2 0,-1.104 -0.896,-2 -2,-2 m 0,-8 c -1.104,0 -2,0.896 -2,2 0,1.104 0.896,2 2,2 1.104,0 2,-0.896 2,-2 0,-1.104 -0.896,-2 -2,-2 M -9,0 c -1.104,0 -2,0.896 -2,2 0,1.104 0.896,2 2,2 1.104,0 2,-0.896 2,-2 0,-1.104 -0.896,-2 -2,-2 m -9.5,-2 -2,0 c -0.276,0 -0.5,0.224 -0.5,0.5 0,0.276 0.224,0.5 0.5,0.5 l 2,0 c 0.276,0 0.5,-0.224 0.5,-0.5 0,-0.276 -0.224,-0.5 -0.5,-0.5 m -5,0 -2,0 c -0.276,0 -0.5,0.224 -0.5,0.5 0,0.276 0.224,0.5 0.5,0.5 l 2,0 c 0.276,0 0.5,-0.224 0.5,-0.5 0,-0.276 -0.224,-0.5 -0.5,-0.5 M -39,-3 c -2.761,0 -5,2.238 -5,5 0,2.761 2.239,5 5,5 2.761,0 5,-2.239 5,-5 0,-2.762 -2.239,-5 -5,-5 M 4.546,5.496 C 3.32,8.644 0.68,10.795 -2.02,12.25 c -0.05,0.731 -0.484,1.388 -1.16,1.689 -0.87,0.389 -1.716,0.711 -2.502,0.976 -0.547,0.184 -1.104,-0.133 -1.266,-0.647 -1.184,0.355 -2.137,0.561 -2.646,0.659 -0.258,0.05 -0.522,-0.005 -0.741,-0.15 L -11.21,14.193 C -12.11,14.988 -15.922,18 -22,18 c -6.078,0 -9.89,-3.012 -10.79,-3.807 -0.335,0.224 -0.652,0.435 -0.876,0.584 -0.218,0.146 -0.483,0.2 -0.74,0.15 -0.509,-0.098 -1.462,-0.304 -2.645,-0.659 -0.163,0.514 -0.72,0.831 -1.267,0.647 -0.785,-0.265 -1.633,-0.587 -2.502,-0.976 -0.676,-0.301 -1.109,-0.958 -1.16,-1.689 -2.7,-1.455 -5.34,-3.606 -6.566,-6.754 C -48.854,4.705 -49,3.859 -49,3.011 l 0,-3.175 c 0,-1.021 0.21,-2.036 0.654,-2.956 1.943,-4.025 6.303,-5.88 8.346,-5.88 3,0 11,3 18,3 7,0 15,-3 18,-3 2.043,0 6.402,1.855 8.346,5.88 C 4.79,-2.2 5,-1.185 5,-0.164 L 5,3.011 C 5,3.859 4.854,4.705 4.546,5.496"
             style="fill:#f2f2f2;fill-opacity:1;fill-rule:nonzero;stroke:none"
             id="path4976"
             inkscape:connector-curvature="0" /></g><g
           id="g4978"
           transform="translate(15,28.5)"><path
             d="M 0,0 C -0.552,0 -1,0.447 -1,1 -1,1.553 -0.552,2 0,2 0.552,2 1,1.553 1,1 1,0.447 0.552,0 0,0 m 1,2 0,3 -2,0 0,-3 -3,0 0,-2 3,0 0,-3 2,0 0,3 3,0 0,2 -3,0 z"
             style="fill:#f2f2f2;fill-opacity:1;fill-rule:nonzero;stroke:none"
             id="path4980"
             inkscape:connector-curvature="0" /></g></g></g></g></svg>