<?xml version="1.0" encoding="UTF-8" standalone="no"?>
<!-- Created with Inkscape (http://www.inkscape.org/) -->

<svg
   xmlns:dc="http://purl.org/dc/elements/1.1/"
   xmlns:cc="http://creativecommons.org/ns#"
   xmlns:rdf="http://www.w3.org/1999/02/22-rdf-syntax-ns#"
   xmlns:svg="http://www.w3.org/2000/svg"
   xmlns="http://www.w3.org/2000/svg"
   xmlns:sodipodi="http://sodipodi.sourceforge.net/DTD/sodipodi-0.dtd"
   xmlns:inkscape="http://www.inkscape.org/namespaces/inkscape"
   id="svg5020"
   version="1.1"
   inkscape:version="0.48.5 r10040"
   width="64"
   height="64"
   xml:space="preserve"
   sodipodi:docname="Funtech - Super Acan-content.svg"
   inkscape:export-filename="/Users/margetts/Desktop/Icon Workshop/Monochrome July/Funtech - Super Acan-content.png"
   inkscape:export-xdpi="360"
   inkscape:export-ydpi="360"><metadata
     id="metadata5026"><rdf:RDF><cc:Work
         rdf:about=""><dc:format>image/svg+xml</dc:format><dc:type
           rdf:resource="http://purl.org/dc/dcmitype/StillImage" /><dc:title></dc:title></cc:Work></rdf:RDF></metadata><defs
     id="defs5024"><clipPath
       clipPathUnits="userSpaceOnUse"
       id="clipPath5038"><path
         d="M 0,64 64,64 64,0 0,0 0,64 z"
         id="path5040"
         inkscape:connector-curvature="0" /></clipPath></defs><sodipodi:namedview
     pagecolor="#ffffff"
     bordercolor="#666666"
     borderopacity="1"
     objecttolerance="10"
     gridtolerance="10"
     guidetolerance="10"
     inkscape:pageopacity="0"
     inkscape:pageshadow="2"
     inkscape:window-width="1676"
     inkscape:window-height="1005"
     id="namedview5022"
     showgrid="false"
     inkscape:zoom="10.4375"
     inkscape:cx="27.976048"
     inkscape:cy="40"
     inkscape:window-x="4"
     inkscape:window-y="1"
     inkscape:window-maximized="1"
     inkscape:current-layer="g5028" /><g
     id="g5028"
     inkscape:groupmode="layer"
     inkscape:label="Funtech - Super Acan-content"
     transform="matrix(1.25,0,0,-1.25,0,64)"><g
       id="g5050"
       transform="scale(0.8,0.8)"><path
         id="path5030"
         style="fill:#f2f2f2;fill-opacity:1;fill-rule:nonzero;stroke:none"
         d="m 27,27 10,0 0,1 -10,0 0,-1 z"
         inkscape:connector-curvature="0" /><path
         id="path5032"
         style="fill:#f2f2f2;fill-opacity:1;fill-rule:nonzero;stroke:none"
         d="m 27,25 10,0 0,1 -10,0 0,-1 z"
         inkscape:connector-curvature="0" /><g
         id="g5034"><g
           clip-path="url(#clipPath5038)"
           id="g5036"><g
             transform="translate(53,31)"
             id="g5042"><path
               id="path5044"
               style="fill:#f2f2f2;fill-opacity:1;fill-rule:nonzero;stroke:none"
               d="m 0,0 c 0,-0.553 -0.447,-1 -1,-1 l -40,0 c -0.552,0 -1,0.447 -1,1 l 0,15 c 0,0.552 0.448,1 1,1 l 40,0 c 0.553,0 1,-0.448 1,-1 L 0,0 z m -2,-3 -5,0 0,-1 5,0 0,-1 -5,0 0,-1 5,0 0,-1 -38,0 0,1 5,0 0,1 -5,0 0,1 5,0 0,1 -5,0 0,1 38,0 0,-1 z m 0,-6 -38,0 0,1 38,0 0,-1 z m 0,-2 -38,0 0,1 38,0 0,-1 z m 0,-2 -38,0 0,1 38,0 0,-1 z m 0,-2 -38,0 0,1 38,0 0,-1 z m 0,-2 -38,0 0,1 38,0 0,-1 z m 7,35.035 -3.167,0 C 0.586,18.289 -8.294,20 -21.92,20 -36.64,20 -44,18 -44,18 l -3,0 c -0.552,0 -1,-0.448 -1,-1 l 0,-34 4,0 0,-1 46,0 0,1.034 4,0 0,34.001 c 0,0.552 -0.447,1 -1,1"
               inkscape:connector-curvature="0" /></g><g
             transform="translate(51,31)"
             id="g5046"><path
               id="path5048"
               style="fill:#f2f2f2;fill-opacity:1;fill-rule:nonzero;stroke:none"
               d="m 0,0 -38,0 c -0.552,0 -1,0.448 -1,1 l 0,13 c 0,0.552 0.448,1 1,1 l 38,0 c 0.553,0 1,-0.448 1,-1 L 1,1 C 1,0.448 0.553,0 0,0"
               inkscape:connector-curvature="0" /></g></g></g></g></g></svg>