<?xml version="1.0" encoding="UTF-8" standalone="no"?>
<!-- Created with Inkscape (http://www.inkscape.org/) -->

<svg
   xmlns:dc="http://purl.org/dc/elements/1.1/"
   xmlns:cc="http://creativecommons.org/ns#"
   xmlns:rdf="http://www.w3.org/1999/02/22-rdf-syntax-ns#"
   xmlns:svg="http://www.w3.org/2000/svg"
   xmlns="http://www.w3.org/2000/svg"
   xmlns:sodipodi="http://sodipodi.sourceforge.net/DTD/sodipodi-0.dtd"
   xmlns:inkscape="http://www.inkscape.org/namespaces/inkscape"
   id="svg4004"
   version="1.1"
   inkscape:version="0.48.5 r10040"
   width="64"
   height="64"
   xml:space="preserve"
   sodipodi:docname="Game Park - GP32.svg"
   inkscape:export-filename="/Users/margetts/Desktop/Icon Workshop/Monochrome Plus June/png/Game Park - GP32.png"
   inkscape:export-xdpi="360"
   inkscape:export-ydpi="360"><metadata
     id="metadata4010"><rdf:RDF><cc:Work
         rdf:about=""><dc:format>image/svg+xml</dc:format><dc:type
           rdf:resource="http://purl.org/dc/dcmitype/StillImage" /><dc:title></dc:title></cc:Work></rdf:RDF></metadata><defs
     id="defs4008"><clipPath
       clipPathUnits="userSpaceOnUse"
       id="clipPath4018"><path
         d="M 0,64 64,64 64,0 0,0 0,64 z"
         id="path4020"
         inkscape:connector-curvature="0" /></clipPath></defs><sodipodi:namedview
     pagecolor="#ffffff"
     bordercolor="#666666"
     borderopacity="1"
     objecttolerance="10"
     gridtolerance="10"
     guidetolerance="10"
     inkscape:pageopacity="0"
     inkscape:pageshadow="2"
     inkscape:window-width="1676"
     inkscape:window-height="1005"
     id="namedview4006"
     showgrid="false"
     inkscape:zoom="3.8"
     inkscape:cx="6.9736842"
     inkscape:cy="40"
     inkscape:window-x="4"
     inkscape:window-y="1"
     inkscape:window-maximized="1"
     inkscape:current-layer="g4012" /><g
     id="g4012"
     inkscape:groupmode="layer"
     inkscape:label="Game Park - GP32"
     transform="matrix(1.25,0,0,-1.25,0,64)"><g
       id="g4014"
       transform="matrix(0.8,0,0,0.8,0,0.4)"><g
         id="g4016"
         clip-path="url(#clipPath4018)"><g
           id="g4022"
           transform="translate(54.5,36)"><path
             d="M 0,0 C -0.828,0 -1.5,0.671 -1.5,1.5 -1.5,2.329 -0.828,3 0,3 0.828,3 1.5,2.329 1.5,1.5 1.5,0.671 0.828,0 0,0 m -3,-2.5 c -0.828,0 -1.5,0.671 -1.5,1.5 0,0.829 0.672,1.5 1.5,1.5 0.828,0 1.5,-0.671 1.5,-1.5 0,-0.829 -0.672,-1.5 -1.5,-1.5 m -1,-4.956 c -0.828,0 -1.5,0.672 -1.5,1.5 0,0.828 0.672,1.5 1.5,1.5 0.828,0 1.5,-0.672 1.5,-1.5 0,-0.828 -0.672,-1.5 -1.5,-1.5 M -9.5,-13 l -26,0 0,20 26,0 0,-20 z M -42,-0.5 c 0,-0.829 -0.671,-1.5 -1.5,-1.5 -0.829,0 -1.5,0.671 -1.5,1.5 -0.829,0 -1.5,0.671 -1.5,1.5 0,0.829 0.671,1.5 1.5,1.5 0,0.829 0.671,1.5 1.5,1.5 0.829,0 1.5,-0.671 1.5,-1.5 0.829,0 1.5,-0.671 1.5,-1.5 0,-0.829 -0.671,-1.5 -1.5,-1.5 m 1,-6.5 c -0.829,0 -1.5,0.672 -1.5,1.5 0,0.829 0.671,1.5 1.5,1.5 0.829,0 1.5,-0.671 1.5,-1.5 0,-0.828 -0.671,-1.5 -1.5,-1.5 M 0.643,8.118 1.348,8.827 C 1.47,8.95 1.426,9.161 1.265,9.225 c -5.73,2.265 -7.928,2.055 -8.772,1.561 -2.18,0.3 -3.838,0.483 -5.993,0.592 l -1,0.622 -6,0 -0.536,-0.467 c -0.92,-0.005 -1.464,-0.018 -1.464,-0.018 0,0 -0.544,0.013 -1.464,0.018 L -24.5,12 l -6,0 -1,-0.622 c -2.155,-0.109 -3.813,-0.292 -5.993,-0.592 -0.844,0.494 -3.042,0.704 -8.771,-1.561 -0.162,-0.064 -0.206,-0.275 -0.084,-0.398 l 0.705,-0.709 C -49.5,4.235 -49.5,-4.5 -49.5,-4.5 l 0,-5.823 c 0,0 0,-10.677 8.679,-10.677 8.678,0 6.75,0.971 18.321,0.971 11.571,0 9.643,-0.971 18.321,-0.971 8.679,0 8.679,10.677 8.679,10.677 l 0,5.823 c 0,0 0,8.735 -3.857,12.618"
             style="fill:#f2f2f2;fill-opacity:1;fill-rule:nonzero;stroke:none"
             id="path4024"
             inkscape:connector-curvature="0" /></g></g></g></g></svg>