<?xml version="1.0" encoding="UTF-8" standalone="no"?>
<!-- Created with Inkscape (http://www.inkscape.org/) -->

<svg
   xmlns:dc="http://purl.org/dc/elements/1.1/"
   xmlns:cc="http://creativecommons.org/ns#"
   xmlns:rdf="http://www.w3.org/1999/02/22-rdf-syntax-ns#"
   xmlns:svg="http://www.w3.org/2000/svg"
   xmlns="http://www.w3.org/2000/svg"
   xmlns:sodipodi="http://sodipodi.sourceforge.net/DTD/sodipodi-0.dtd"
   xmlns:inkscape="http://www.inkscape.org/namespaces/inkscape"
   id="svg4064"
   version="1.1"
   inkscape:version="0.48.5 r10040"
   width="64"
   height="64"
   xml:space="preserve"
   sodipodi:docname="Game Park - GP32-content.svg"
   inkscape:export-filename="/Users/margetts/Desktop/Icon Workshop/Monochrome Plus June/png/Game Park - GP32-content.png"
   inkscape:export-xdpi="360"
   inkscape:export-ydpi="360"><metadata
     id="metadata4070"><rdf:RDF><cc:Work
         rdf:about=""><dc:format>image/svg+xml</dc:format><dc:type
           rdf:resource="http://purl.org/dc/dcmitype/StillImage" /><dc:title></dc:title></cc:Work></rdf:RDF></metadata><defs
     id="defs4068"><clipPath
       clipPathUnits="userSpaceOnUse"
       id="clipPath4078"><path
         d="M 0,64 64,64 64,0 0,0 0,64 z"
         id="path4080"
         inkscape:connector-curvature="0" /></clipPath></defs><sodipodi:namedview
     pagecolor="#ffffff"
     bordercolor="#666666"
     borderopacity="1"
     objecttolerance="10"
     gridtolerance="10"
     guidetolerance="10"
     inkscape:pageopacity="0"
     inkscape:pageshadow="2"
     inkscape:window-width="1676"
     inkscape:window-height="1005"
     id="namedview4066"
     showgrid="false"
     inkscape:zoom="3.8"
     inkscape:cx="6.9736842"
     inkscape:cy="50.526316"
     inkscape:window-x="4"
     inkscape:window-y="1"
     inkscape:window-maximized="1"
     inkscape:current-layer="g4072" /><g
     id="g4072"
     inkscape:groupmode="layer"
     inkscape:label="Game Park - GP32-content"
     transform="matrix(1.25,0,0,-1.25,0,64)"><g
       id="g4074"
       transform="scale(0.8,0.8)"><g
         id="g4076"
         clip-path="url(#clipPath4078)"><g
           id="g4082"
           transform="translate(19,12)"><path
             d="m 0,0 -1,0 c -0.552,0 -1,0.447 -1,1 l 0,17 c 0,0.553 0.448,1 1,1 L 0,19 0,0 z"
             style="fill:#f2f2f2;fill-opacity:1;fill-rule:nonzero;stroke:none"
             id="path4084"
             inkscape:connector-curvature="0" /></g><g
           id="g4086"
           transform="translate(46,12)"><path
             d="m 0,0 -1,0 0,19 1,0 c 0.553,0 1,-0.447 1,-1 L 1,1 C 1,0.447 0.553,0 0,0"
             style="fill:#f2f2f2;fill-opacity:1;fill-rule:nonzero;stroke:none"
             id="path4088"
             inkscape:connector-curvature="0" /></g><g
           id="g4090"
           transform="translate(19,45)"><path
             d="m 0,0 26,0 c 1.028,0 2,0.972 2,2 L 28,14 -2,14 -2,1.896 C -2,0.868 -1.028,0 0,0"
             style="fill:#f2f2f2;fill-opacity:1;fill-rule:nonzero;stroke:none"
             id="path4092"
             inkscape:connector-curvature="0" /></g><g
           id="g4094"
           transform="translate(48,12)"><path
             d="m 0,0 c 0,-0.553 -0.447,-1 -1,-1 l -30,0 c -0.552,0 -1,0.447 -1,1 l 0,19 c 0,0.552 0.448,1 1,1 l 30,0 c 0.553,0 1,-0.448 1,-1 L 0,0 z M 5,47 0,47 0,34.896 C 0,33.356 -1.46,32 -3,32 l -26,0 c -1.54,0 -3,1.46 -3,3 l 0,12 -5,0 c -0.514,0 -1,-0.417 -1,-0.931 L -38,0 l 6,-7 36,0 c 1.028,0 2,0.972 2,2 L 6,46.069 C 6,46.583 5.515,47 5,47"
             style="fill:#f2f2f2;fill-opacity:1;fill-rule:nonzero;stroke:none"
             id="path4096"
             inkscape:connector-curvature="0" /></g><g
           id="g4098"
           transform="translate(19,12)"><path
             d="m 0,0 -1,0 c -0.552,0 -1,0.447 -1,1 l 0,17 c 0,0.553 0.448,1 1,1 L 0,19 0,0 z"
             style="fill:#f2f2f2;fill-opacity:1;fill-rule:nonzero;stroke:none"
             id="path4100"
             inkscape:connector-curvature="0" /></g><g
           id="g4102"
           transform="translate(46,12)"><path
             d="m 0,0 -2,0 0,19 2,0 c 0.553,0 1,-0.447 1,-1 L 1,1 C 1,0.447 0.553,0 0,0"
             style="fill:#f2f2f2;fill-opacity:1;fill-rule:nonzero;stroke:none"
             id="path4104"
             inkscape:connector-curvature="0" /></g><g
           id="g4106"
           transform="translate(41.5137,18.0928)"><path
             d="m 0,0 c -0.171,-0.015 -0.34,-0.032 -0.514,-0.044 l 0,-0.009 -2,0.079 c -0.305,0.058 -0.635,0.129 -1,0.22 l -2,0.565 c -0.328,0.099 -0.661,0.202 -1,0.309 l -2,0.637 c -0.333,0.107 -0.666,0.214 -1,0.319 l -3,0.905 c -0.339,0.095 -0.673,0.187 -1,0.271 l -2,0.446 c -0.348,0.063 -0.681,0.112 -1,0.147 l -0.184,0.003 c -0.291,0.034 -0.571,0.059 -0.816,0.059 -0.327,0 -0.627,-0.012 -0.923,-0.026 l -0.077,0.002 c -0.351,-0.016 -0.683,-0.038 -1,-0.067 l -0.918,-0.128 c -0.072,-0.01 -0.151,-0.019 -0.22,-0.03 l -0.862,-0.12 0,-0.045 0,-1.955 0,-0.045 0,-7.586 2,0 0,7.899 c 0.314,0.031 0.645,0.056 1,0.073 l 0,-7.972 2,0 0,7.92 c 0.314,-0.04 0.648,-0.097 1,-0.167 l 0,-7.753 2,0 0,7.278 c 0.328,-0.089 0.662,-0.184 1,-0.283 l 0,-6.995 2,0 0,6.387 c 0.336,-0.106 0.668,-0.211 1,-0.317 l 0,-6.07 2,0 0,5.431 c 0.34,-0.109 0.675,-0.214 1,-0.315 l 0,-5.116 2,0 0,4.532 c 0.351,-0.094 0.682,-0.175 1,-0.247 l 0,-4.285 2,0 0,4 c 0.338,0 0.668,0.029 1,0.049 l 0,-4.049 2,0 0,4.267 0,2 0,0.054 -1,-0.178 C 0.328,0.029 0.162,0.017 0,0"
             style="fill:#f2f2f2;fill-opacity:1;fill-rule:nonzero;stroke:none"
             id="path4108"
             inkscape:connector-curvature="0" /></g><g
           id="g4110"
           transform="translate(41,31)"><path
             d="M 0,0 0,-8.96 -1,-8.92 -1,0 -3,0 -3,-8.661 -4,-8.379 -4,0 -6,0 -6,-7.787 -7,-7.469 -7,0 l -2,0 0,-6.831 -1,0.302 0,6.529 -2,0 0,-5.926 c -0.339,0.095 -0.673,0.187 -1,0.271 l 0,5.655 -2,0 0,-5.209 c -0.348,0.063 -0.682,0.111 -1,0.147 l 0,5.062 -2,0 0,-5.024 c -0.352,-0.016 -0.683,-0.038 -1,-0.067 l 0,5.091 -2,0 0,-5.369 0,-2 0,-0.045 c 0.222,0.051 0.47,0.101 0.738,0.147 l 1.067,0.149 c 0.388,0.043 0.816,0.072 1.271,0.092 l 1.799,-0.035 c 2.062,-0.246 5.12,-1.225 7.865,-2.106 C -5.195,-10.15 -2.549,-11 -1,-11 c 0.338,0 0.668,0.028 1,0.049 l 0,-0.009 c 0.059,0.004 0.115,0.013 0.174,0.018 0.634,0.046 1.254,0.114 1.826,0.209 l 0,0.053 0,2 L 2,0 0,0 z"
             style="fill:#f2f2f2;fill-opacity:1;fill-rule:nonzero;stroke:none"
             id="path4112"
             inkscape:connector-curvature="0" /></g></g></g></g></svg>