<?xml version="1.0" encoding="UTF-8" standalone="no"?>
<!-- Created with Inkscape (http://www.inkscape.org/) -->

<svg
   xmlns:dc="http://purl.org/dc/elements/1.1/"
   xmlns:cc="http://creativecommons.org/ns#"
   xmlns:rdf="http://www.w3.org/1999/02/22-rdf-syntax-ns#"
   xmlns:svg="http://www.w3.org/2000/svg"
   xmlns="http://www.w3.org/2000/svg"
   xmlns:sodipodi="http://sodipodi.sourceforge.net/DTD/sodipodi-0.dtd"
   xmlns:inkscape="http://www.inkscape.org/namespaces/inkscape"
   id="svg5158"
   version="1.1"
   inkscape:version="0.48.5 r10040"
   width="64"
   height="64"
   xml:space="preserve"
   sodipodi:docname="Hartung - Game Master-content.svg"
   inkscape:export-filename="/Users/margetts/Desktop/Icon Workshop/Monochrome July/Hartung - Game Master-content.png"
   inkscape:export-xdpi="360"
   inkscape:export-ydpi="360"><metadata
     id="metadata5164"><rdf:RDF><cc:Work
         rdf:about=""><dc:format>image/svg+xml</dc:format><dc:type
           rdf:resource="http://purl.org/dc/dcmitype/StillImage" /><dc:title></dc:title></cc:Work></rdf:RDF></metadata><defs
     id="defs5162"><clipPath
       clipPathUnits="userSpaceOnUse"
       id="clipPath5172"><path
         d="M 0,64 64,64 64,0 0,0 0,64 z"
         id="path5174"
         inkscape:connector-curvature="0" /></clipPath></defs><sodipodi:namedview
     pagecolor="#ffffff"
     bordercolor="#666666"
     borderopacity="1"
     objecttolerance="10"
     gridtolerance="10"
     guidetolerance="10"
     inkscape:pageopacity="0"
     inkscape:pageshadow="2"
     inkscape:window-width="1676"
     inkscape:window-height="1005"
     id="namedview5160"
     showgrid="false"
     inkscape:zoom="10.4375"
     inkscape:cx="27.976048"
     inkscape:cy="40"
     inkscape:window-x="4"
     inkscape:window-y="1"
     inkscape:window-maximized="1"
     inkscape:current-layer="g5166" /><g
     id="g5166"
     inkscape:groupmode="layer"
     inkscape:label="Hartung - Game Master-content"
     transform="matrix(1.25,0,0,-1.25,0,64)"><g
       id="g5168"
       transform="matrix(0.8,0,0,0.8,0,-0.4)"><g
         id="g5170"
         clip-path="url(#clipPath5172)"><g
           id="g5176"
           transform="translate(51,18)"><path
             d="m 0,0 -38,0 c -0.552,0 -1,0.447 -1,1 l 0,28 c 0,0.552 0.448,1 1,1 l 38,0 c 0.553,0 1,-0.448 1,-1 L 1,1 C 1,0.447 0.553,0 0,0"
             style="fill:#f2f2f2;fill-opacity:1;fill-rule:nonzero;stroke:none"
             id="path5178"
             inkscape:connector-curvature="0" /></g><g
           id="g5180"
           transform="translate(53,19)"><path
             d="m 0,0 c 0,-1.104 -0.896,-2 -2,-2 l -38,0 c -1.104,0 -2,0.896 -2,2 l 0,28 c 0,1.104 0.896,2 2,2 l 38,0 c 1.104,0 2,-0.896 2,-2 L 0,0 z m 5,40 -52,0 c -0.552,0 -1,-0.448 -1,-1 l 0,-44 c 0,-0.553 0.448,-1 1,-1 l 3,0 0,-2 -2,0 0,-4 c 0,-0.553 0.448,-1 1,-1 l 48,0 c 0.553,0 1,0.447 1,1 l 0,4 -2,0 0,2 4,0 0,45 c 0,0.552 -0.447,1 -1,1"
             style="fill:#f2f2f2;fill-opacity:1;fill-rule:nonzero;stroke:none"
             id="path5182"
             inkscape:connector-curvature="0" /></g></g></g></g></svg>