<?xml version="1.0" encoding="UTF-8" standalone="no"?>
<!-- Created with Inkscape (http://www.inkscape.org/) -->

<svg
   xmlns:dc="http://purl.org/dc/elements/1.1/"
   xmlns:cc="http://creativecommons.org/ns#"
   xmlns:rdf="http://www.w3.org/1999/02/22-rdf-syntax-ns#"
   xmlns:svg="http://www.w3.org/2000/svg"
   xmlns="http://www.w3.org/2000/svg"
   xmlns:sodipodi="http://sodipodi.sourceforge.net/DTD/sodipodi-0.dtd"
   xmlns:inkscape="http://www.inkscape.org/namespaces/inkscape"
   id="svg5098"
   version="1.1"
   inkscape:version="0.48.5 r10040"
   width="64"
   height="64"
   xml:space="preserve"
   sodipodi:docname="Hartung - Game Master.svg"
   inkscape:export-filename="/Users/margetts/Desktop/Icon Workshop/Monochrome July/Hartung - Game Master.png"
   inkscape:export-xdpi="360"
   inkscape:export-ydpi="360"><metadata
     id="metadata5104"><rdf:RDF><cc:Work
         rdf:about=""><dc:format>image/svg+xml</dc:format><dc:type
           rdf:resource="http://purl.org/dc/dcmitype/StillImage" /><dc:title></dc:title></cc:Work></rdf:RDF></metadata><defs
     id="defs5102"><clipPath
       clipPathUnits="userSpaceOnUse"
       id="clipPath5112"><path
         d="M 0,64 64,64 64,0 0,0 0,64 z"
         id="path5114"
         inkscape:connector-curvature="0" /></clipPath></defs><sodipodi:namedview
     pagecolor="#ffffff"
     bordercolor="#666666"
     borderopacity="1"
     objecttolerance="10"
     gridtolerance="10"
     guidetolerance="10"
     inkscape:pageopacity="0"
     inkscape:pageshadow="2"
     inkscape:window-width="1676"
     inkscape:window-height="1005"
     id="namedview5100"
     showgrid="false"
     inkscape:zoom="10.4375"
     inkscape:cx="27.976048"
     inkscape:cy="40"
     inkscape:window-x="4"
     inkscape:window-y="1"
     inkscape:window-maximized="1"
     inkscape:current-layer="g5106" /><g
     id="g5106"
     inkscape:groupmode="layer"
     inkscape:label="Hartung - Game Master"
     transform="matrix(1.25,0,0,-1.25,0,64)"><g
       id="g5108"
       transform="matrix(0.8,0,0,0.8,0.8,0)"><g
         id="g5110"
         clip-path="url(#clipPath5112)"><g
           id="g5116"
           transform="translate(54,25)"><path
             d="M 0,0 C -1.104,0 -2,0.896 -2,2 -2,3.104 -1.104,4 0,4 1.104,4 2,3.104 2,2 2,0.896 1.104,0 0,0 m -1,11 c 0.553,0 1,-0.448 1,-1 0,-0.552 -0.447,-1 -1,-1 -0.553,0 -1,0.448 -1,1 0,0.552 0.447,1 1,1 M -4,8 c -0.553,0 -1,0.448 -1,1 0,0.552 0.447,1 1,1 0.553,0 1,-0.448 1,-1 C -3,8.448 -3.447,8 -4,8 M -5,-4 c -1.104,0 -2,0.896 -2,2 0,1.104 0.896,2 2,2 1.104,0 2,-0.896 2,-2 0,-1.104 -0.896,-2 -2,-2 m -12,5 -12,0 0,14 12,0 0,-14 z m -22.348,-3.215 -1.766,0.589 -0.589,-1.767 -1.766,0.589 0.589,1.767 -1.767,0.589 0.589,1.766 1.766,-0.589 0.589,1.767 1.766,-0.589 -0.588,-1.766 1.766,-0.589 -0.589,-1.767 z M 1.427,18.39 C 1.301,19.312 0.513,20 -0.418,20 L -2,20 -2,20.077 C -2,20.587 -2.413,21 -2.924,21 l -20.318,0 -23.09,0 c -0.766,-0.032 -1.083,-0.48 -1.326,-1.208 l -0.318,-0.954 c -0.1,-0.298 0.123,-0.607 0.438,-0.607 l 0.09,0 L -50,-0.482 C -50,-4.597 -46.665,-7 -42.552,-7 l 39.104,0 C 0.665,-7 4,-4.597 4,-0.482 L 1.427,18.39 z"
             style="fill:#f2f2f2;fill-opacity:1;fill-rule:nonzero;stroke:none"
             id="path5118"
             inkscape:connector-curvature="0" /></g></g></g></g></svg>