<?xml version="1.0" encoding="UTF-8" standalone="no"?>
<!-- Created with Inkscape (http://www.inkscape.org/) -->

<svg
   xmlns:dc="http://purl.org/dc/elements/1.1/"
   xmlns:cc="http://creativecommons.org/ns#"
   xmlns:rdf="http://www.w3.org/1999/02/22-rdf-syntax-ns#"
   xmlns:svg="http://www.w3.org/2000/svg"
   xmlns="http://www.w3.org/2000/svg"
   xmlns:sodipodi="http://sodipodi.sourceforge.net/DTD/sodipodi-0.dtd"
   xmlns:inkscape="http://www.inkscape.org/namespaces/inkscape"
   id="svg5222"
   version="1.1"
   inkscape:version="0.48.5 r10040"
   width="64"
   height="64"
   xml:space="preserve"
   sodipodi:docname="LeapFrog - Leapster Learning Game System.svg"
   inkscape:export-filename="/Users/margetts/Desktop/Icon Workshop/Monochrome July/LeapFrog - Leapster Learning Game System.png"
   inkscape:export-xdpi="360"
   inkscape:export-ydpi="360"><metadata
     id="metadata5228"><rdf:RDF><cc:Work
         rdf:about=""><dc:format>image/svg+xml</dc:format><dc:type
           rdf:resource="http://purl.org/dc/dcmitype/StillImage" /><dc:title></dc:title></cc:Work></rdf:RDF></metadata><defs
     id="defs5226"><clipPath
       clipPathUnits="userSpaceOnUse"
       id="clipPath5236"><path
         d="M 0,64 64,64 64,0 0,0 0,64 z"
         id="path5238"
         inkscape:connector-curvature="0" /></clipPath></defs><sodipodi:namedview
     pagecolor="#ffffff"
     bordercolor="#666666"
     borderopacity="1"
     objecttolerance="10"
     gridtolerance="10"
     guidetolerance="10"
     inkscape:pageopacity="0"
     inkscape:pageshadow="2"
     inkscape:window-width="1676"
     inkscape:window-height="1005"
     id="namedview5224"
     showgrid="false"
     inkscape:zoom="10.4375"
     inkscape:cx="27.976048"
     inkscape:cy="40"
     inkscape:window-x="4"
     inkscape:window-y="1"
     inkscape:window-maximized="1"
     inkscape:current-layer="g5230" /><g
     id="g5230"
     inkscape:groupmode="layer"
     inkscape:label="LeapFrog - Leapster Learning Game System"
     transform="matrix(1.25,0,0,-1.25,0,64)"><g
       id="g5232"
       transform="scale(0.8,0.8)"><g
         id="g5234"
         clip-path="url(#clipPath5236)"><g
           id="g5240"
           transform="translate(55,37.5)"><path
             d="M 0,0 C -0.828,0 -1.5,0.671 -1.5,1.5 -1.5,2.329 -0.828,3 0,3 0.828,3 1.5,2.329 1.5,1.5 1.5,0.671 0.828,0 0,0 m -5,-4.5 c -1.657,0 -3,1.343 -3,3 0,1.657 1.343,3 3,3 1.657,0 3,-1.343 3,-3 0,-1.657 -1.343,-3 -3,-3 m -9,-10 -18,0 0,18 18,0 0,-18 z m -24,17 c -0.552,0 -1,0.448 -1,1 0,0.552 0.448,1 1,1 0.552,0 1,-0.448 1,-1 0,-0.552 -0.448,-1 -1,-1 m -2.5,2 c -0.552,0 -1,0.448 -1,1 0,0.552 0.448,1 1,1 0.552,0 1,-0.448 1,-1 0,-0.552 -0.448,-1 -1,-1 m 0.5,-7 -2,0 0,-2 -2,0 0,2 -2,0 0,2 2,0 0,2 2,0 0,-2 2,0 0,-2 z m -3.5,10 c 0.552,0 1,-0.448 1,-1 0,-0.552 -0.448,-1 -1,-1 -0.552,0 -1,0.448 -1,1 0,0.552 0.448,1 1,1 m 34.931,4 c -0.472,0 -0.938,-0.038 -1.397,-0.107 0,0 -8.379,-1.782 -13.034,-1.782 -4.655,0 -13.125,1.798 -13.125,1.798 -0.429,0.06 -0.865,0.091 -1.306,0.091 -6.942,0 -12.569,-7.611 -12.569,-17 0,-9.389 5.627,-17 12.569,-17 0.441,0 0.877,0.031 1.306,0.092 0,0 8.47,1.797 13.125,1.797 4.655,0 13.034,-1.782 13.034,-1.782 0.459,-0.069 0.925,-0.107 1.397,-0.107 6.942,0 12.569,7.611 12.569,17 0,9.389 -5.627,17 -12.569,17"
             style="fill:#f2f2f2;fill-opacity:1;fill-rule:nonzero;stroke:none"
             id="path5242"
             inkscape:connector-curvature="0" /></g></g></g></g></svg>