<?xml version="1.0" encoding="UTF-8" standalone="no"?>
<!-- Created with Inkscape (http://www.inkscape.org/) -->

<svg
   xmlns:dc="http://purl.org/dc/elements/1.1/"
   xmlns:cc="http://creativecommons.org/ns#"
   xmlns:rdf="http://www.w3.org/1999/02/22-rdf-syntax-ns#"
   xmlns:svg="http://www.w3.org/2000/svg"
   xmlns="http://www.w3.org/2000/svg"
   xmlns:sodipodi="http://sodipodi.sourceforge.net/DTD/sodipodi-0.dtd"
   xmlns:inkscape="http://www.inkscape.org/namespaces/inkscape"
   id="svg5282"
   version="1.1"
   inkscape:version="0.48.5 r10040"
   width="64"
   height="64"
   xml:space="preserve"
   sodipodi:docname="LeapFrog - Leapster Learning Game System-content.svg"
   inkscape:export-filename="/Users/margetts/Desktop/Icon Workshop/Monochrome July/LeapFrog - Leapster Learning Game System-content.png"
   inkscape:export-xdpi="360"
   inkscape:export-ydpi="360"><metadata
     id="metadata5288"><rdf:RDF><cc:Work
         rdf:about=""><dc:format>image/svg+xml</dc:format><dc:type
           rdf:resource="http://purl.org/dc/dcmitype/StillImage" /><dc:title></dc:title></cc:Work></rdf:RDF></metadata><defs
     id="defs5286"><clipPath
       clipPathUnits="userSpaceOnUse"
       id="clipPath5296"><path
         d="M 0,64 64,64 64,0 0,0 0,64 z"
         id="path5298"
         inkscape:connector-curvature="0" /></clipPath></defs><sodipodi:namedview
     pagecolor="#ffffff"
     bordercolor="#666666"
     borderopacity="1"
     objecttolerance="10"
     gridtolerance="10"
     guidetolerance="10"
     inkscape:pageopacity="0"
     inkscape:pageshadow="2"
     inkscape:window-width="1676"
     inkscape:window-height="1005"
     id="namedview5284"
     showgrid="false"
     inkscape:zoom="10.4375"
     inkscape:cx="27.976048"
     inkscape:cy="40"
     inkscape:window-x="4"
     inkscape:window-y="1"
     inkscape:window-maximized="1"
     inkscape:current-layer="g5290" /><g
     id="g5290"
     inkscape:groupmode="layer"
     inkscape:label="LeapFrog - Leapster Learning Game System-content"
     transform="matrix(1.25,0,0,-1.25,0,64)"><g
       id="g5292"
       transform="scale(0.8,0.8)"><g
         id="g5294"
         clip-path="url(#clipPath5296)"><g
           id="g5300"
           transform="translate(56,17)"><path
             d="m 0,0 -48,0 0,25.881 C -44.068,27.204 -34.729,30 -26,30 l 2,0 c 8.897,0 19.596,-2.892 24,-4.207 L 0,0 z m -24,33 -2,0 c -12.104,0 -25,-5 -25,-5 l 0,-31 54,0 0,31 c 0,0 -14.896,5 -27,5"
             style="fill:#f2f2f2;fill-opacity:1;fill-rule:nonzero;stroke:none"
             id="path5302"
             inkscape:connector-curvature="0" /></g><g
           id="g5304"
           transform="translate(9,42.1592)"><path
             d="m 0,0 c 4.026,1.314 12.834,3.841 21,3.841 l 2,0 c 8.35,0 18.399,-2.615 23,-3.955 l 0,-24.045 -46,0 L 0,0 z"
             style="fill:#f2f2f2;fill-opacity:1;fill-rule:nonzero;stroke:none"
             id="path5306"
             inkscape:connector-curvature="0" /></g></g></g></g></svg>