<?xml version="1.0" encoding="UTF-8" standalone="no"?>
<!-- Created with Inkscape (http://www.inkscape.org/) -->

<svg
   xmlns:dc="http://purl.org/dc/elements/1.1/"
   xmlns:cc="http://creativecommons.org/ns#"
   xmlns:rdf="http://www.w3.org/1999/02/22-rdf-syntax-ns#"
   xmlns:svg="http://www.w3.org/2000/svg"
   xmlns="http://www.w3.org/2000/svg"
   xmlns:sodipodi="http://sodipodi.sourceforge.net/DTD/sodipodi-0.dtd"
   xmlns:inkscape="http://www.inkscape.org/namespaces/inkscape"
   id="svg4152"
   version="1.1"
   inkscape:version="0.48.5 r10040"
   width="64"
   height="64"
   xml:space="preserve"
   sodipodi:docname="Libretro - Pad.svg"
   inkscape:export-filename="/Users/margetts/Desktop/Icon Workshop/Monochrome Plus June/png/Libretro - Pad.png"
   inkscape:export-xdpi="360"
   inkscape:export-ydpi="360"><metadata
     id="metadata4158"><rdf:RDF><cc:Work
         rdf:about=""><dc:format>image/svg+xml</dc:format><dc:type
           rdf:resource="http://purl.org/dc/dcmitype/StillImage" /><dc:title></dc:title></cc:Work></rdf:RDF></metadata><defs
     id="defs4156"><clipPath
       clipPathUnits="userSpaceOnUse"
       id="clipPath4166"><path
         d="M 0,64 64,64 64,0 0,0 0,64 z"
         id="path4168"
         inkscape:connector-curvature="0" /></clipPath></defs><sodipodi:namedview
     pagecolor="#ffffff"
     bordercolor="#666666"
     borderopacity="1"
     objecttolerance="10"
     gridtolerance="10"
     guidetolerance="10"
     inkscape:pageopacity="0"
     inkscape:pageshadow="2"
     inkscape:window-width="1676"
     inkscape:window-height="1005"
     id="namedview4154"
     showgrid="false"
     inkscape:zoom="3.8"
     inkscape:cx="6.9736842"
     inkscape:cy="40"
     inkscape:window-x="4"
     inkscape:window-y="1"
     inkscape:window-maximized="1"
     inkscape:current-layer="g4160" /><g
     id="g4160"
     inkscape:groupmode="layer"
     inkscape:label="Libretro - Pad"
     transform="matrix(1.25,0,0,-1.25,0,64)"><g
       id="g4162"
       transform="matrix(0.8,0,0,0.79998378,0,-0.39970798)"><g
         id="g4164"
         clip-path="url(#clipPath4166)"><g
           id="g4170"
           transform="translate(42,23)"><path
             d="m 0,0 c 0,-1.657 -1.343,-3 -3,-3 -1.657,0 -3,1.343 -3,3 0,1.657 1.343,3 3,3 1.657,0 3,-1.343 3,-3"
             style="fill:#f2f2f2;fill-opacity:1;fill-rule:nonzero;stroke:none"
             id="path4172"
             inkscape:connector-curvature="0" /></g><g
           id="g4174"
           transform="translate(28,23)"><path
             d="m 0,0 c 0,-1.657 -1.343,-3 -3,-3 -1.657,0 -3,1.343 -3,3 0,1.657 1.343,3 3,3 1.657,0 3,-1.343 3,-3"
             style="fill:#f2f2f2;fill-opacity:1;fill-rule:nonzero;stroke:none"
             id="path4176"
             inkscape:connector-curvature="0" /></g><g
           id="g4178"
           transform="translate(52.5,31)"><path
             d="M 0,0 C -1.381,0 -2.5,1.119 -2.5,2.5 -2.5,3.881 -1.381,5 0,5 1.381,5 2.5,3.881 2.5,2.5 2.5,1.119 1.381,0 0,0 m -4,-4 c -1.381,0 -2.5,1.119 -2.5,2.5 0,1.381 1.119,2.5 2.5,2.5 1.381,0 2.5,-1.119 2.5,-2.5 C -1.5,-2.881 -2.619,-4 -4,-4 m -6.5,6.5 C -10.5,3.881 -9.381,5 -8,5 -6.619,5 -5.5,3.881 -5.5,2.5 -5.5,1.119 -6.619,0 -8,0 c -1.381,0 -2.5,1.119 -2.5,2.5 m -3,-14.5 c -2.209,0 -4,1.791 -4,4 0,2.209 1.791,4 4,4 2.209,0 4,-1.791 4,-4 0,-2.209 -1.791,-4 -4,-4 m -5,12 c 0,0.552 0.447,1 1,1 l 2,0 c 0.553,0 1,-0.448 1,-1 0,-0.553 -0.447,-1 -1,-1 l -2,0 c -0.553,0 -1,0.447 -1,1 m -5,-1 -2,0 c -0.552,0 -1,0.447 -1,1 0,0.552 0.448,1 1,1 l 2,0 c 0.552,0 1,-0.448 1,-1 0,-0.553 -0.448,-1 -1,-1 m -4,-11 c -2.209,0 -4,1.791 -4,4 0,2.209 1.791,4 4,4 2.209,0 4,-1.791 4,-4 0,-2.209 -1.791,-4 -4,-4 m -4.5,13 -3.5,0 0,-3.5 c 0,-0.276 -0.224,-0.5 -0.5,-0.5 l -3,0 c -0.276,0 -0.5,0.224 -0.5,0.5 l 0,3.5 -3.5,0 c -0.276,0 -0.5,0.224 -0.5,0.5 l 0,3 c 0,0.276 0.224,0.5 0.5,0.5 l 3.5,0 0,3.5 c 0,0.276 0.224,0.5 0.5,0.5 l 3,0 c 0.276,0 0.5,-0.224 0.5,-0.5 l 0,-3.5 3.5,0 c 0.276,0 0.5,-0.224 0.5,-0.5 l 0,-3 C -31.5,1.224 -31.724,1 -32,1 M -4,9 C -2.619,9 -1.5,7.881 -1.5,6.5 -1.5,5.119 -2.619,4 -4,4 -5.381,4 -6.5,5.119 -6.5,6.5 -6.5,7.881 -5.381,9 -4,9 m -3.5,5 -26,0 c -7.732,0 -14,-6.268 -14,-14 l 0,-4 c 0,-4.971 4.029,-9 9,-9 l 13.382,0 c 0.379,0 0.725,0.214 0.894,0.553 l 0.448,0.894 c 0.169,0.339 0.515,0.553 0.894,0.553 l 4.764,0 c 0.379,0 0.725,-0.214 0.894,-0.553 l 0.448,-0.894 c 0.169,-0.339 0.515,-0.553 0.894,-0.553 l 13.382,0 c 4.971,0 9,4.029 9,9 l 0,4 c 0,7.732 -6.268,14 -14,14"
             style="fill:#f2f2f2;fill-opacity:1;fill-rule:nonzero;stroke:none"
             id="path4180"
             inkscape:connector-curvature="0" /></g><g
           id="g4182"
           transform="translate(16.5,34)"><path
             d="M 0,0 C 0,-0.829 -0.671,-1.5 -1.5,-1.5 -2.329,-1.5 -3,-0.829 -3,0 -3,0.829 -2.329,1.5 -1.5,1.5 -0.671,1.5 0,0.829 0,0"
             style="fill:#f2f2f2;fill-opacity:1;fill-rule:nonzero;stroke:none"
             id="path4184"
             inkscape:connector-curvature="0" /></g><g
           id="g4186"
           transform="translate(19,46)"><path
             d="M 0,0 0,0.492 C 0,0.776 -0.237,1.014 -0.521,1 -4.245,0.806 -7.644,-0.53 -10.307,-2.79 -10.751,-3.167 -11,-3.724 -11,-4.307 l 0,-0.529 C -8.258,-1.871 -4.348,0 0,0"
             style="fill:#f2f2f2;fill-opacity:1;fill-rule:nonzero;stroke:none"
             id="path4188"
             inkscape:connector-curvature="0" /></g><g
           id="g4190"
           transform="translate(26,46)"><path
             d="m 0,0 -6,0 0,0.5 C -6,0.776 -5.776,1 -5.5,1 l 5,0 C -0.224,1 0,0.776 0,0.5 L 0,0 z"
             style="fill:#f2f2f2;fill-opacity:1;fill-rule:nonzero;stroke:none"
             id="path4192"
             inkscape:connector-curvature="0" /></g><g
           id="g4194"
           transform="translate(45,46)"><path
             d="M 0,0 0,0.492 C 0,0.776 0.237,1.014 0.521,1 4.244,0.806 7.644,-0.53 10.307,-2.79 10.751,-3.167 11,-3.724 11,-4.307 l 0,-0.529 C 8.258,-1.871 4.348,0 0,0"
             style="fill:#f2f2f2;fill-opacity:1;fill-rule:nonzero;stroke:none"
             id="path4196"
             inkscape:connector-curvature="0" /></g><g
           id="g4198"
           transform="translate(38,46)"><path
             d="M 0,0 6,0 6,0.5 C 6,0.776 5.776,1 5.5,1 l -5,0 C 0.224,1 0,0.776 0,0.5 L 0,0 z"
             style="fill:#f2f2f2;fill-opacity:1;fill-rule:nonzero;stroke:none"
             id="path4200"
             inkscape:connector-curvature="0" /></g></g></g></g></svg>