<?xml version="1.0" encoding="utf-8"?>
<!-- Generator: Adobe Illustrator 16.0.0, SVG Export Plug-In . SVG Version: 6.00 Build 0)  -->
<!DOCTYPE svg PUBLIC "-//W3C//DTD SVG 1.1//EN" "http://www.w3.org/Graphics/SVG/1.1/DTD/svg11.dtd">
<svg version="1.1" id="Calque_1" xmlns="http://www.w3.org/2000/svg" xmlns:xlink="http://www.w3.org/1999/xlink" x="0px" y="0px"
	 width="64px" height="64px" viewBox="0 0 64 64" enable-background="new 0 0 64 64" xml:space="preserve">
<path id="Videopac" fill="#F2F2F2" d="M48,6H16c-0.553,0-1,0.447-1,1v50c0,0.553,0.447,1,1,1h32c0.553,0,1-0.447,1-1V7
	C49,6.447,48.553,6,48,6z M45,49c0,0.553-0.447,1-1,1H20c-0.553,0-1-0.447-1-1V22c0-0.553,0.447-1,1-1h24c0.553,0,1,0.447,1,1V49z
	 M45,18c0,0.553-0.447,1-1,1H20c-0.553,0-1-0.447-1-1v-7c0-0.553,0.447-1,1-1h24c0.553,0,1,0.447,1,1V18z M43,47
	c0,0.553-0.447,1-1,1H22c-0.553,0-1-0.447-1-1V24c0-0.553,0.447-1,1-1h20c0.553,0,1,0.447,1,1V47z"/>
</svg>
