<?xml version="1.0" encoding="UTF-8" standalone="no"?>
<!-- Generator: Adobe Illustrator 16.0.4, SVG Export Plug-In . SVG Version: 6.00 Build 0)  -->

<svg
   xmlns:dc="http://purl.org/dc/elements/1.1/"
   xmlns:cc="http://creativecommons.org/ns#"
   xmlns:rdf="http://www.w3.org/1999/02/22-rdf-syntax-ns#"
   xmlns:svg="http://www.w3.org/2000/svg"
   xmlns="http://www.w3.org/2000/svg"
   xmlns:sodipodi="http://sodipodi.sourceforge.net/DTD/sodipodi-0.dtd"
   xmlns:inkscape="http://www.inkscape.org/namespaces/inkscape"
   version="1.1"
   id="Layer_1"
   x="0px"
   y="0px"
   width="256px"
   height="256px"
   viewBox="0 0 256 256"
   enable-background="new 0 0 256 256"
   xml:space="preserve"
   inkscape:version="0.92.2 (5c3e80d, 2017-08-06)"
   sodipodi:docname="MAME 2014.svg"
   inkscape:export-filename="D:\Documents\Github\retroarch-assets\xmb\monochrome\png\MAME 2014.png"
   inkscape:export-xdpi="96"
   inkscape:export-ydpi="96"><metadata
     id="metadata9"><rdf:RDF><cc:Work
         rdf:about=""><dc:format>image/svg+xml</dc:format><dc:type
           rdf:resource="http://purl.org/dc/dcmitype/StillImage" /><dc:title /></cc:Work></rdf:RDF></metadata><defs
     id="defs7" /><sodipodi:namedview
     pagecolor="#ffffff"
     bordercolor="#666666"
     borderopacity="1"
     objecttolerance="10"
     gridtolerance="10"
     guidetolerance="10"
     inkscape:pageopacity="0"
     inkscape:pageshadow="2"
     inkscape:window-width="1024"
     inkscape:window-height="705"
     id="namedview5"
     showgrid="false"
     inkscape:zoom="1.4142136"
     inkscape:cx="79.048665"
     inkscape:cy="107.27517"
     inkscape:window-x="-8"
     inkscape:window-y="-8"
     inkscape:window-maximized="1"
     inkscape:current-layer="Layer_1"
     showguides="true"
     inkscape:guide-bbox="true" /><path
     d="m 77.621094,92.830078 c -0.04188,0.0062 -0.102282,0.03591 -0.175782,0.128906 -0.162999,0.169 -22.679687,22.681636 -22.679687,22.681636 V 93.394531 c 0,-0.221 -0.134766,-0.253906 -0.134766,-0.253906 -0.003,-0.001 -0.114984,-0.06633 -0.208984,0.01367 -0.094,0.08 -52.3769531,52.375003 -52.3769531,52.375003 -0.148,0.216 0.1230468,0.19922 0.1230469,0.19922 H 23.066406 l 21.353516,-21.40625 c 0,0 0.0322,21.45623 0.0332,21.86523 -0.011,0.481 0.361328,0.51172 0.361328,0.51172 0.004,0 0.381156,0.043 0.535156,-0.125 0.175,-0.175 18.673828,-18.70117 18.673829,-18.70117 l 0.03516,15.61523 -19.585938,19.50781 c -0.152,0.209 0.105469,0.18164 0.105469,0.18164 l 0.0039,-0.002 h 21.195313 c 0.200924,-0.19892 35.254436,-35.18022 35.273436,-35.19922 l 0.041,17.17188 c 10e-4,0.58 0.32617,0.79397 0.32617,0.79297 v 0.002 c 0,0 0.21333,0.15144 0.36133,0.14844 l 22.97461,0.0137 h 0.002 l 21.54102,-21.52539 0.0352,21.73047 c 0.019,0.246 0.28706,0.30954 0.28906,0.31054 v -0.002 c 0.016,0.005 0.20818,0.0613 0.45118,-0.17969 l 18.78125,-18.76367 v 14.54688 l -3.23243,3.24609 c -0.183,0.185 -0.11132,0.24805 -0.11132,0.24805 0,0 0.0785,0.12809 0.23046,0.12109 h 3.44336 l 0.1211,-0.13477 14.85937,0.004 c 0.51631,-0.8052 0.78321,-1.58744 0.78321,-2.3457 0,-0.84708 -0.29065,-1.50389 -0.86915,-1.96875 -0.57849,-0.46486 -1.38829,-0.69727 -2.43164,-0.69727 -0.98136,0 -2.07652,0.1973 -3.28515,0.58985 -1.20863,0.38221 -2.57131,0.97549 -4.08985,1.78125 l 0.99024,-4.91211 c 1.40491,-0.51651 2.78541,-0.89856 4.13867,-1.14649 1.35326,-0.25825 2.68945,-0.38672 4.01172,-0.38672 2.35528,0 4.20924,0.51052 5.5625,1.53321 1.35326,1.01236 2.03125,2.39816 2.03125,4.15429 0,1.22362 -0.28612,2.35357 -0.83008,3.40039 l 4.76563,0.002 c 0.54968,-1.69372 1.26649,-3.19767 2.16992,-4.48828 1.06401,-1.51854 2.32803,-2.66469 3.79492,-3.43946 1.46689,-0.77476 3.12021,-1.16211 4.95898,-1.16211 2.51024,0 4.44167,0.7237 5.79493,2.16993 1.36358,1.43589 2.04687,3.4852 2.04687,6.15039 0,0.25958 -0.0183,0.51566 -0.0273,0.77343 l 6.69336,0.002 4.61133,-4.58008 -5.4375,1.07812 0.79101,-4.06054 5.59375,-1.11524 h 3.17969 l 4.125,-4.09765 c 0.28,-0.36 0.10351,-0.55269 0.10351,-0.55469 -0.001,-0.004 -0.0569,-0.1885 -0.29492,-0.1875 h -34.66406 l 5.99805,-6.00977 h 11.00195 l 13.0957,-13.09375 c 0.173,-0.383 -0.01,-0.51367 -0.01,-0.51367 0,0 -0.0433,-0.0834 -0.19727,-0.0645 h -10.05078 c 0.01,-0.009 0.0183,-0.0203 0.0293,-0.0293 l 5.65234,-5.69922 h 20.66406 l 12.29102,-12.335935 c 0.253,-0.257 0.0957,-0.632812 0.0957,-0.632813 -10e-4,0 3.9e-4,-0.140624 -0.34961,-0.140624 h -39.52734 l -0.002,0.002 -34.45508,34.519529 V 93.904297 c 0,-0.663 -0.11914,-0.759766 -0.11914,-0.759766 h -0.002 c -0.001,-0.001 -0.14632,-0.166031 -0.61132,0.292969 -0.161,0.169 -22.27149,22.32422 -22.27149,22.32422 0,0 -0.0236,0.0461 -0.0606,0.11914 l -0.01,-0.0742 V 93.664062 c 0,-0.334999 -0.25,-0.394531 -0.25,-0.394531 v -0.002 c 0,0 -0.37588,-0.104234 -0.79688,0.384766 -0.162,0.17 -40.54154,40.502486 -40.56054,40.521486 l 0.008,-40.636721 c 0,-0.336 -0.25977,-0.402343 -0.25977,-0.402343 0,0 -0.36515,-0.09542 -0.78515,0.392578 -0.162,0.17 -36.123049,36.123046 -36.123049,36.123046 0,0 -0.0038,0.009 -0.0098,0.0215 l -0.0078,-0.0371 0.0078,-36.468754 c 0,-0.33 -0.07808,-0.322266 -0.08008,-0.322266 v -0.002 c 0,0 -0.02258,-0.01797 -0.06445,-0.01172 z m 148.490236,44.208982 -4.12695,4.09766 0.1875,-0.0371 -2.89649,14.95312 h -5.26953 l -0.82031,4.1211 h 16.1914 l 0.79102,-4.1211 h -5.23633 l 3.67188,-19.01367 z m -15.43164,8.67578 -5.89063,-0.002 c -0.0121,0.1133 -0.019,0.21145 -0.0332,0.33008 -0.093,0.77476 -0.22673,1.62163 -0.40234,2.54101 -0.20661,1.13633 -0.42843,2.12224 -0.66602,2.95899 -0.23759,0.82641 -0.50177,1.56404 -0.79102,2.21484 -0.4132,0.91939 -0.92901,1.61856 -1.54882,2.09375 -0.60949,0.47519 -1.312,0.71094 -2.10743,0.71094 -0.86773,0 -1.51396,-0.27281 -1.9375,-0.82031 -0.42353,-0.55783 -0.63476,-1.40999 -0.63476,-2.55664 0,-0.5475 0.0457,-1.21825 0.13867,-2.01367 0.093,-0.79543 0.22673,-1.65818 0.40234,-2.5879 0.18595,-1.01235 0.40442,-1.94728 0.65235,-2.80468 0.007,-0.0242 0.0161,-0.0444 0.0234,-0.0684 h -5.94336 c -0.0663,0.20422 -0.14004,0.39929 -0.20118,0.60937 -0.55783,1.94208 -0.83789,3.92646 -0.83789,5.95117 0,2.69619 0.6727,4.76137 2.01563,6.19727 1.35325,1.4359 3.29527,2.1543 5.82617,2.1543 1.81812,0 3.46614,-0.38205 4.94336,-1.14649 1.47722,-0.77476 2.73595,-1.91562 3.7793,-3.42383 1.02269,-1.46688 1.81855,-3.1712 2.38672,-5.11328 0.49641,-1.69684 0.76348,-3.44102 0.82617,-5.22461 z m -12.79492,-0.004 6.90429,0.002 c 0.0667,-0.62666 0.10547,-1.19063 0.10547,-1.6543 0,-1.15698 -0.20593,-2.00384 -0.61914,-2.54101 -0.41321,-0.5475 -1.05414,-0.82227 -1.92187,-0.82227 -0.80576,0 -1.51357,0.23241 -2.12305,0.69727 -0.60948,0.45453 -1.1147,1.15175 -1.51758,2.0918 -0.30118,0.65255 -0.57573,1.39839 -0.82812,2.22656 z m -10.70899,-0.002 -6.01172,-0.002 c -0.0253,0.0395 -0.0438,0.0776 -0.0703,0.11719 -0.55783,0.84707 -1.37293,1.6853 -2.44727,2.51172 l -9.83984,7.42187 -0.86719,4.41602 h 16.79688 l 0.85156,-4.38477 h -10.05664 l 5.7793,-4.33984 c 2.80981,-2.10736 4.62866,-3.77991 5.45507,-5.01953 0.15595,-0.23392 0.28364,-0.47723 0.41016,-0.72071 z"
     id="path3"
     style="fill:#f2f2f2;fill-opacity:1"
     inkscape:export-xdpi="90"
     inkscape:export-ydpi="90"
     inkscape:connector-curvature="0"
     sodipodi:nodetypes="sccscscccccccccccccccccccccccccccccccccscsccccscsccccscsccccccccccccccccccccccscccsccccccscccccccccccccsccccccccccccccccccscsccccccscsccccccscsccccccccccccccc" /><g
     aria-label="4"
     style="font-style:italic;font-variant:normal;font-weight:normal;font-stretch:normal;font-size:31.74020958px;line-height:1.25;font-family:sans-serif;-inkscape-font-specification:'sans-serif Italic';letter-spacing:0px;word-spacing:0px;fill:#f2f2f2;fill-opacity:1;stroke:none;stroke-width:0.79350525"
     id="text814"
     transform="translate(22.60398,-0.00337)"><path
       d="m 230.79343,153.57895 h -3.42509 l -1.21822,6.54022 h -5.50664 l 1.21822,-6.54022 h -9.90968 l 0.90937,-3.96002 12.17678,-12.5765 h 5.38266 l -2.36419,12.51031 h 3.42509 z m -8.24343,-4.02621 1.68417,-7.25976 -7.10331,7.25976 z"
       style="font-style:italic;font-variant:normal;font-weight:normal;font-stretch:normal;font-family:sans-serif;-inkscape-font-specification:'sans-serif Italic';fill:#f2f2f2;fill-opacity:1;stroke-width:0.79350525"
       id="path816"
       inkscape:connector-curvature="0"
       sodipodi:nodetypes="cccccccccccccccc" /></g></svg>