<?xml version="1.0" encoding="UTF-8" standalone="no"?>
<!-- Generator: Adobe Illustrator 16.0.4, SVG Export Plug-In . SVG Version: 6.00 Build 0)  -->

<svg
   xmlns:dc="http://purl.org/dc/elements/1.1/"
   xmlns:cc="http://creativecommons.org/ns#"
   xmlns:rdf="http://www.w3.org/1999/02/22-rdf-syntax-ns#"
   xmlns:svg="http://www.w3.org/2000/svg"
   xmlns="http://www.w3.org/2000/svg"
   xmlns:sodipodi="http://sodipodi.sourceforge.net/DTD/sodipodi-0.dtd"
   xmlns:inkscape="http://www.inkscape.org/namespaces/inkscape"
   version="1.1"
   id="Layer_1"
   x="0px"
   y="0px"
   width="256px"
   height="256px"
   viewBox="0 0 256 256"
   enable-background="new 0 0 256 256"
   xml:space="preserve"
   inkscape:version="0.91 r13725"
   sodipodi:docname="MAME2010.svg"
   inkscape:export-filename="/home/lollo78/Scrivania/MAME2010.png"
   inkscape:export-xdpi="90"
   inkscape:export-ydpi="90"><metadata
     id="metadata9"><rdf:RDF><cc:Work
         rdf:about=""><dc:format>image/svg+xml</dc:format><dc:type
           rdf:resource="http://purl.org/dc/dcmitype/StillImage" /><dc:title /></cc:Work></rdf:RDF></metadata><defs
     id="defs7" /><sodipodi:namedview
     pagecolor="#ffffff"
     bordercolor="#666666"
     borderopacity="1"
     objecttolerance="10"
     gridtolerance="10"
     guidetolerance="10"
     inkscape:pageopacity="0"
     inkscape:pageshadow="2"
     inkscape:window-width="1855"
     inkscape:window-height="1056"
     id="namedview5"
     showgrid="false"
     inkscape:zoom="1.84375"
     inkscape:cx="94.299356"
     inkscape:cy="32.902751"
     inkscape:window-x="65"
     inkscape:window-y="24"
     inkscape:window-maximized="1"
     inkscape:current-layer="Layer_1" /><path
     d="M 77.621094 92.830078 C 77.579219 92.836328 77.518812 92.865984 77.445312 92.958984 C 77.282313 93.127984 54.765625 115.64062 54.765625 115.64062 L 54.765625 93.394531 C 54.765625 93.173531 54.630859 93.140625 54.630859 93.140625 C 54.627859 93.139625 54.515875 93.074297 54.421875 93.154297 C 54.327875 93.234297 2.0449219 145.5293 2.0449219 145.5293 C 1.8969219 145.7453 2.1679687 145.72852 2.1679688 145.72852 L 23.066406 145.72852 L 44.419922 124.32227 C 44.419922 124.32227 44.452125 145.7785 44.453125 146.1875 C 44.442125 146.6685 44.814453 146.69922 44.814453 146.69922 C 44.818453 146.69922 45.195609 146.74222 45.349609 146.57422 C 45.524609 146.39922 64.023437 127.87305 64.023438 127.87305 L 64.058594 143.48828 L 44.472656 162.99609 C 44.320656 163.20509 44.578125 163.17773 44.578125 163.17773 L 44.582031 163.17578 L 65.777344 163.17578 C 65.978268 162.97686 101.03178 127.99556 101.05078 127.97656 L 101.0918 145.14844 C 101.0928 145.72844 101.41797 145.94241 101.41797 145.94141 L 101.41797 145.94336 C 101.41797 145.94336 101.6313 146.0948 101.7793 146.0918 L 124.75391 146.10547 L 124.75586 146.10547 L 146.29688 124.58008 L 146.33203 146.31055 C 146.35103 146.55655 146.61909 146.62009 146.62109 146.62109 L 146.62109 146.61914 C 146.63709 146.62414 146.82927 146.68045 147.07227 146.43945 L 165.85352 127.67578 L 165.85352 142.22266 L 162.62109 145.46875 C 162.43809 145.65375 162.50977 145.7168 162.50977 145.7168 C 162.50977 145.7168 162.58823 145.84489 162.74023 145.83789 L 166.18359 145.83789 L 166.30469 145.70312 L 181.16406 145.70703 C 181.68037 144.90183 181.94727 144.11959 181.94727 143.36133 C 181.94727 142.51425 181.65662 141.85744 181.07812 141.39258 C 180.49963 140.92772 179.68983 140.69531 178.64648 140.69531 C 177.66512 140.69531 176.56996 140.89261 175.36133 141.28516 C 174.1527 141.66737 172.79002 142.26065 171.27148 143.06641 L 172.26172 138.1543 C 173.66663 137.63779 175.04713 137.25574 176.40039 137.00781 C 177.75365 136.74956 179.08984 136.62109 180.41211 136.62109 C 182.76739 136.62109 184.62135 137.13161 185.97461 138.1543 C 187.32787 139.16666 188.00586 140.55246 188.00586 142.30859 C 188.00586 143.53221 187.71974 144.66216 187.17578 145.70898 L 191.94141 145.71094 C 192.49109 144.01722 193.2079 142.51327 194.11133 141.22266 C 195.17534 139.70412 196.43936 138.55797 197.90625 137.7832 C 199.37314 137.00844 201.02646 136.62109 202.86523 136.62109 C 205.37547 136.62109 207.3069 137.34479 208.66016 138.79102 C 210.02374 140.22691 210.70703 142.27622 210.70703 144.94141 C 210.70703 145.20099 210.68875 145.45707 210.67969 145.71484 L 217.37305 145.7168 L 221.98438 141.13672 L 216.54688 142.21484 L 217.33789 138.1543 L 222.93164 137.03906 L 226.11133 137.03906 L 230.23633 132.94141 C 230.51633 132.58141 230.33984 132.38872 230.33984 132.38672 C 230.33884 132.38272 230.28292 132.19822 230.04492 132.19922 L 195.38086 132.19922 L 201.37891 126.18945 L 212.38086 126.18945 L 225.47656 113.0957 C 225.64956 112.7127 225.4668 112.58203 225.4668 112.58203 C 225.4668 112.58203 225.42353 112.49858 225.26953 112.51758 L 215.21875 112.51758 C 215.22875 112.50858 215.23705 112.49728 215.24805 112.48828 L 220.90039 106.78906 L 241.56445 106.78906 L 253.85547 94.453125 C 254.10847 94.196125 253.95117 93.820313 253.95117 93.820312 C 253.95017 93.820312 253.95156 93.679688 253.60156 93.679688 L 214.07422 93.679688 L 214.07227 93.681641 L 179.61719 128.20117 L 179.61719 93.904297 C 179.61719 93.241297 179.49805 93.144531 179.49805 93.144531 L 179.49609 93.144531 C 179.49509 93.143531 179.34977 92.9785 178.88477 93.4375 C 178.72377 93.6065 156.61328 115.76172 156.61328 115.76172 C 156.61328 115.76172 156.58973 115.80786 156.55273 115.88086 L 156.54297 115.80664 L 156.54297 93.664062 C 156.54297 93.329063 156.29297 93.269531 156.29297 93.269531 L 156.29297 93.267578 C 156.29297 93.267578 155.91709 93.163344 155.49609 93.652344 C 155.33409 93.822344 114.95455 134.15483 114.93555 134.17383 L 114.94336 93.537109 C 114.94336 93.201109 114.68359 93.134766 114.68359 93.134766 C 114.68359 93.134766 114.31844 93.039344 113.89844 93.527344 C 113.73644 93.697344 77.775391 129.65039 77.775391 129.65039 C 77.775391 129.65039 77.771625 129.65988 77.765625 129.67188 L 77.757812 129.63477 L 77.765625 93.166016 C 77.765625 92.836016 77.687547 92.84375 77.685547 92.84375 L 77.685547 92.841797 C 77.685547 92.841797 77.662969 92.823828 77.621094 92.830078 z M 226.11133 137.03906 L 221.98438 141.13672 L 222.17188 141.09961 L 219.27539 156.05273 L 214.00586 156.05273 L 213.18555 160.17383 L 229.37695 160.17383 L 230.16797 156.05273 L 224.93164 156.05273 L 228.60352 137.03906 L 226.11133 137.03906 z M 210.67969 145.71484 L 204.78906 145.71289 C 204.77701 145.82619 204.7701 145.92434 204.75586 146.04297 C 204.66289 146.81773 204.52913 147.6646 204.35352 148.58398 C 204.14691 149.72031 203.92509 150.70622 203.6875 151.54297 C 203.44991 152.36938 203.18573 153.10701 202.89648 153.75781 C 202.48328 154.6772 201.96747 155.37637 201.34766 155.85156 C 200.73817 156.32675 200.03566 156.5625 199.24023 156.5625 C 198.3725 156.5625 197.72627 156.28969 197.30273 155.74219 C 196.8792 155.18436 196.66797 154.3322 196.66797 153.18555 C 196.66797 152.63805 196.71367 151.9673 196.80664 151.17188 C 196.89961 150.37645 197.03337 149.5137 197.20898 148.58398 C 197.39493 147.57163 197.6134 146.6367 197.86133 145.7793 C 197.8686 145.75515 197.87745 145.73494 197.88477 145.71094 L 191.94141 145.71094 C 191.87513 145.91516 191.80137 146.11023 191.74023 146.32031 C 191.1824 148.26239 190.90234 150.24677 190.90234 152.27148 C 190.90234 154.96767 191.57504 157.03285 192.91797 158.46875 C 194.27122 159.90465 196.21324 160.62305 198.74414 160.62305 C 200.56226 160.62305 202.21028 160.241 203.6875 159.47656 C 205.16472 158.7018 206.42345 157.56094 207.4668 156.05273 C 208.48949 154.58585 209.28535 152.88153 209.85352 150.93945 C 210.34993 149.24261 210.617 147.49843 210.67969 145.71484 z M 197.88477 145.71094 L 204.78906 145.71289 C 204.85574 145.08623 204.89453 144.52226 204.89453 144.05859 C 204.89453 142.90161 204.6886 142.05475 204.27539 141.51758 C 203.86218 140.97008 203.22125 140.69531 202.35352 140.69531 C 201.54776 140.69531 200.83995 140.92772 200.23047 141.39258 C 199.62099 141.84711 199.11577 142.54433 198.71289 143.48438 C 198.41171 144.13693 198.13716 144.88277 197.88477 145.71094 z M 187.17578 145.70898 L 181.16406 145.70703 C 181.13876 145.7465 181.1203 145.78464 181.09375 145.82422 C 180.53592 146.67129 179.72082 147.50952 178.64648 148.33594 L 168.80664 155.75781 L 167.93945 160.17383 L 184.73633 160.17383 L 185.58789 155.78906 L 175.53125 155.78906 L 181.31055 151.44922 C 184.12036 149.34186 185.93921 147.66931 186.76562 146.42969 C 186.92157 146.19577 187.04926 145.95246 187.17578 145.70898 z M 246.99609 136.62109 C 245.15732 136.62109 243.504 137.00844 242.03711 137.7832 C 240.57022 138.55797 239.30424 139.70412 238.24023 141.22266 C 237.22788 142.66888 236.43925 144.36791 235.87109 146.32031 C 235.31326 148.26239 235.0332 150.24677 235.0332 152.27148 C 235.0332 154.96767 235.7059 157.03285 237.04883 158.46875 C 238.40208 159.90465 240.3441 160.62305 242.875 160.62305 C 244.69311 160.62305 246.33919 160.241 247.81641 159.47656 C 249.29362 158.7018 250.55431 157.56094 251.59766 156.05273 C 252.62035 154.58585 253.41621 152.88153 253.98438 150.93945 C 254.55254 148.99738 254.83594 146.99712 254.83594 144.94141 C 254.83594 142.27622 254.1546 140.22691 252.79102 138.79102 C 251.43776 137.34479 249.50633 136.62109 246.99609 136.62109 z M 246.48438 140.69531 C 247.35211 140.69531 247.99304 140.97008 248.40625 141.51758 C 248.81946 142.05475 249.02539 142.90161 249.02539 144.05859 C 249.02539 144.60609 248.97969 145.2682 248.88672 146.04297 C 248.79375 146.81773 248.65999 147.6646 248.48438 148.58398 C 248.27777 149.72031 248.054 150.70622 247.81641 151.54297 C 247.57881 152.36938 247.31659 153.10701 247.02734 153.75781 C 246.61414 154.6772 246.09637 155.37637 245.47656 155.85156 C 244.86708 156.32675 244.16652 156.5625 243.37109 156.5625 C 242.50336 156.5625 241.85713 156.28969 241.43359 155.74219 C 241.01006 155.18436 240.79883 154.3322 240.79883 153.18555 C 240.79883 152.63805 240.84453 151.9673 240.9375 151.17188 C 241.03047 150.37645 241.16423 149.5137 241.33984 148.58398 C 241.52579 147.57163 241.74231 146.6367 241.99023 145.7793 C 242.24849 144.92189 242.53384 144.15584 242.84375 143.48438 C 243.24663 142.54433 243.75185 141.84711 244.36133 141.39258 C 244.97081 140.92772 245.67862 140.69531 246.48438 140.69531 z "
     id="path3"
     style="fill:#f2f2f2;fill-opacity:1"
     inkscape:export-xdpi="90"
     inkscape:export-ydpi="90" /></svg>