<?xml version="1.0" encoding="utf-8"?>
<!-- Generator: Adobe Illustrator 16.0.4, SVG Export Plug-In . SVG Version: 6.00 Build 0)  -->
<!DOCTYPE svg PUBLIC "-//W3C//DTD SVG 1.1//EN" "http://www.w3.org/Graphics/SVG/1.1/DTD/svg11.dtd">
<svg version="1.1" id="Layer_1" xmlns="http://www.w3.org/2000/svg" xmlns:xlink="http://www.w3.org/1999/xlink" x="0px" y="0px"
	 width="256px" height="256px" viewBox="0 0 256 256" enable-background="new 0 0 256 256" xml:space="preserve">
<path fill="#F2F2F2" d="M253.952,93.82l-0.714,0.306L253.952,93.82c-0.001,0-0.001-0.14-0.351-0.14h-39.527l-0.002,0.001
	l-34.455,34.521V93.905c0-0.663-0.119-0.761-0.119-0.761l-0.001,0c-0.001-0.001-0.148-0.165-0.613,0.294
	c-0.161,0.169-22.27,22.324-22.27,22.324s-0.024,0.045-0.061,0.118l-0.01-0.073V93.664c0-0.335-0.251-0.395-0.251-0.395v-0.001
	c0,0-0.374-0.105-0.795,0.384c-0.162,0.17-40.542,40.502-40.561,40.521l0.007-40.635c0-0.336-0.26-0.404-0.26-0.404l0,0
	c0,0-0.365-0.094-0.785,0.394c-0.162,0.17-36.122,36.123-36.122,36.123s-0.005,0.008-0.011,0.02l-0.007-0.036l0.008-36.469
	c0-0.33-0.079-0.323-0.081-0.323l0.001-0.002c0,0-0.094-0.068-0.241,0.118c-0.163,0.169-22.68,22.681-22.68,22.681l0,0.001
	c0-5.401,0-22.063,0-22.247c0-0.221-0.135-0.254-0.135-0.254l0,0.001c-0.003-0.001-0.114-0.067-0.208,0.013
	c-0.094,0.08-52.377,52.376-52.377,52.376c-0.148,0.216,0.122,0.198,0.122,0.198l0,0h20.899l0,0.001l21.353-21.406l0,0
	c0,0,0.034,21.456,0.035,21.865c-0.011,0.481,0.36,0.512,0.36,0.512l0-0.001c0.004,0,0.382,0.043,0.536-0.125
	c0.175-0.175,18.674-18.7,18.674-18.7l0-0.005c0,0,0,0.002,0,0.002l0.035,15.617v0.001l-19.586,19.508
	c-0.152,0.209,0.105,0.18,0.105,0.18l0.004-0.001h21.196l0,0.001c0.199-0.197,35.254-35.182,35.273-35.201l0.04,17.173
	c0.001,0.58,0.327,0.793,0.327,0.792v0.002c0,0,0.213,0.152,0.361,0.149l22.975,0.013h0.002l21.54-21.524l0.036,21.73
	c0.019,0.246,0.287,0.31,0.289,0.311l0.001-0.003c0.016,0.005,0.208,0.062,0.451-0.179l18.78-18.765v14.547l0,0l-3.231,3.246
	c-0.183,0.185-0.113,0.249-0.113,0.249s0.08,0.128,0.232,0.121h3.442l0.121-0.134l0.001-0.001l51.069,0.014v-0.001l12.862-12.774
	c0.28-0.36,0.103-0.554,0.103-0.556l0,0c-0.001-0.004-0.056-0.187-0.294-0.186l-34.664-0.001l5.997-6.009l0,0h11.003l0,0
	l13.096-13.094c0.173-0.383-0.011-0.514-0.011-0.514v0c0,0-0.043-0.084-0.197-0.065h-10.05c0.01-0.009,0.019-0.019,0.03-0.028
	l5.651-5.7l0,0h20.664l0,0l12.291-12.335C254.108,94.197,253.952,93.82,253.952,93.82z"/>
</svg>
