<?xml version="1.0" encoding="UTF-8" standalone="no"?>
<!-- Generator: Adobe Illustrator 16.0.4, SVG Export Plug-In . SVG Version: 6.00 Build 0)  -->

<svg
   xmlns:dc="http://purl.org/dc/elements/1.1/"
   xmlns:cc="http://creativecommons.org/ns#"
   xmlns:rdf="http://www.w3.org/1999/02/22-rdf-syntax-ns#"
   xmlns:svg="http://www.w3.org/2000/svg"
   xmlns="http://www.w3.org/2000/svg"
   xmlns:sodipodi="http://sodipodi.sourceforge.net/DTD/sodipodi-0.dtd"
   xmlns:inkscape="http://www.inkscape.org/namespaces/inkscape"
   version="1.1"
   id="Layer_1"
   x="0px"
   y="0px"
   width="256px"
   height="256px"
   viewBox="0 0 256 256"
   enable-background="new 0 0 256 256"
   xml:space="preserve"
   inkscape:version="0.92.2 (5c3e80d, 2017-08-06)"
   sodipodi:docname="MAME 2000.svg"
   inkscape:export-filename="D:\Documents\Github\retroarch-assets\xmb\monochrome\png\MAME 2000.png"
   inkscape:export-xdpi="96"
   inkscape:export-ydpi="96"><metadata
     id="metadata9"><rdf:RDF><cc:Work
         rdf:about=""><dc:format>image/svg+xml</dc:format><dc:type
           rdf:resource="http://purl.org/dc/dcmitype/StillImage" /></cc:Work></rdf:RDF></metadata><defs
     id="defs7" /><sodipodi:namedview
     pagecolor="#ffffff"
     bordercolor="#666666"
     borderopacity="1"
     objecttolerance="10"
     gridtolerance="10"
     guidetolerance="10"
     inkscape:pageopacity="0"
     inkscape:pageshadow="2"
     inkscape:window-width="1024"
     inkscape:window-height="705"
     id="namedview5"
     showgrid="false"
     inkscape:zoom="1.3037282"
     inkscape:cx="67.121996"
     inkscape:cy="160.12012"
     inkscape:window-x="-8"
     inkscape:window-y="-8"
     inkscape:window-maximized="1"
     inkscape:current-layer="Layer_1" /><path
     d="m 77.621094,92.830078 c -0.04188,0.0062 -0.102282,0.03591 -0.175782,0.128906 -0.162999,0.169 -22.679687,22.681636 -22.679687,22.681636 V 93.394531 c 0,-0.221 -0.134766,-0.253906 -0.134766,-0.253906 -0.003,-0.001 -0.114984,-0.06633 -0.208984,0.01367 -0.094,0.08 -52.3769531,52.375003 -52.3769531,52.375003 -0.148,0.216 0.1230468,0.19922 0.1230469,0.19922 H 23.066406 l 21.353516,-21.40625 c 0,0 0.0322,21.45623 0.0332,21.86523 -0.011,0.481 0.361328,0.51172 0.361328,0.51172 0.004,0 0.381156,0.043 0.535156,-0.125 0.175,-0.175 18.673828,-18.70117 18.673829,-18.70117 l 0.03516,15.61523 -19.585938,19.50781 c -0.152,0.209 0.105469,0.18164 0.105469,0.18164 l 0.0039,-0.002 h 21.195313 c 0.200924,-0.19892 35.254436,-35.18022 35.273436,-35.19922 l 0.041,17.17188 c 10e-4,0.58 0.32617,0.79397 0.32617,0.79297 v 0.002 c 0,0 0.21333,0.15144 0.36133,0.14844 l 22.97461,0.0137 h 0.002 l 21.54102,-21.52539 0.0352,21.73047 c 0.019,0.246 0.28706,0.30954 0.28906,0.31054 v -0.002 c 0.016,0.005 0.20818,0.0613 0.45118,-0.17969 l 18.78125,-18.76367 v 14.54688 l -3.23243,3.24609 c -0.183,0.185 -0.11132,0.24805 -0.11132,0.24805 0,0 0.0785,0.12809 0.23046,0.12109 h 3.44336 l 0.1211,-0.13477 14.90039,0.004 c 0.47864,-0.77359 0.72851,-1.52578 0.72851,-2.25586 0,-0.84707 -0.28869,-1.50389 -0.86718,-1.96875 -0.57849,-0.46486 -1.39025,-0.69726 -2.4336,-0.69726 -0.98137,0 -2.07457,0.19729 -3.2832,0.58984 -1.20863,0.38222 -2.57326,0.97549 -4.0918,1.78125 l 0.99219,-4.91211 c 1.40491,-0.51651 2.78346,-0.89856 4.13672,-1.14648 1.35325,-0.25826 2.69141,-0.38672 4.01367,-0.38672 2.35529,0 4.20924,0.51051 5.5625,1.5332 1.35326,1.01236 2.0293,2.39621 2.0293,4.15234 0,1.18834 -0.26626,2.29091 -0.7793,3.3125 l 4.74609,0.002 c 0.54608,-1.6565 1.25134,-3.13082 2.13868,-4.39844 1.06401,-1.51854 2.32998,-2.66469 3.79687,-3.43945 1.46689,-0.77477 3.12021,-1.16211 4.95899,-1.16211 2.51023,0 4.44166,0.72174 5.79492,2.16797 1.36358,1.43589 2.04492,3.48715 2.04492,6.15234 0,0.22943 -0.0164,0.45558 -0.0234,0.68359 l 3.35156,0.002 c 0.54633,-1.65904 1.25415,-3.13511 2.14258,-4.4043 1.06401,-1.51854 2.32804,-2.66469 3.79492,-3.43945 1.46689,-0.77477 3.12021,-1.16211 4.95899,-1.16211 0.50133,0 0.97255,0.0361 1.42773,0.0937 l 3.89063,-3.86328 c 0.28,-0.36 0.10351,-0.55269 0.10351,-0.55469 -0.001,-0.004 -0.0569,-0.1885 -0.29492,-0.1875 h -34.66406 l 5.99805,-6.00977 h 11.00195 l 13.0957,-13.09375 c 0.173,-0.383 -0.01,-0.51367 -0.01,-0.51367 0,0 -0.0433,-0.0834 -0.19727,-0.0645 h -10.05078 c 0.01,-0.009 0.0183,-0.0203 0.0293,-0.0293 l 5.65234,-5.69922 h 20.66406 l 12.29102,-12.335935 c 0.253,-0.257 0.0957,-0.632812 0.0957,-0.632813 -10e-4,0 3.9e-4,-0.140624 -0.34961,-0.140624 h -39.52734 l -0.002,0.002 -34.45508,34.519529 V 93.904297 c 0,-0.663 -0.11914,-0.759766 -0.11914,-0.759766 h -0.002 c -0.001,-0.001 -0.14632,-0.166031 -0.61132,0.292969 -0.161,0.169 -22.27149,22.32422 -22.27149,22.32422 0,0 -0.0236,0.0461 -0.0606,0.11914 l -0.01,-0.0742 V 93.664062 c 0,-0.334999 -0.25,-0.394531 -0.25,-0.394531 v -0.002 c 0,0 -0.37588,-0.104234 -0.79688,0.384766 -0.162,0.17 -40.54154,40.502486 -40.56054,40.521486 l 0.008,-40.636721 c 0,-0.336 -0.25977,-0.402343 -0.25977,-0.402343 0,0 -0.36515,-0.09542 -0.78515,0.392578 -0.162,0.17 -36.123049,36.123046 -36.123049,36.123046 0,0 -0.0038,0.009 -0.0098,0.0215 l -0.0078,-0.0371 0.0078,-36.468754 c 0,-0.33 -0.07808,-0.322266 -0.08008,-0.322266 v -0.002 c 0,0 -0.02258,-0.01797 -0.06445,-0.01172 z m 148.724606,43.974612 -8.97265,8.91211 h -3.35157 c -0.0762,0.23141 -0.15896,0.45436 -0.22851,0.69336 -0.55783,1.94207 -0.83789,3.9245 -0.83789,5.94922 0,2.69618 0.6727,4.76332 2.01562,6.19921 1.35326,1.4359 3.29528,2.1543 5.82618,2.1543 1.81811,0 3.46614,-0.38205 4.94335,-1.14648 1.47722,-0.77477 2.73595,-1.91758 3.7793,-3.42579 1.02269,-1.46688 1.81856,-3.1712 2.38672,-5.11328 0.56816,-1.94207 0.85156,-3.94038 0.85156,-5.99609 0,-2.66519 -0.68133,-4.71645 -2.04492,-6.15234 -1.08299,-1.1574 -2.54319,-1.84308 -4.36719,-2.07422 z m -15.67578,8.91015 -5.88476,-0.002 c -0.0145,0.14191 -0.023,0.26749 -0.041,0.41797 -0.093,0.77476 -0.22868,1.62163 -0.4043,2.54102 -0.2066,1.13632 -0.42842,2.12419 -0.66601,2.96093 -0.2376,0.82642 -0.50177,1.56404 -0.79102,2.21485 -0.41321,0.91938 -0.92901,1.6166 -1.54883,2.09179 -0.60948,0.47519 -1.31199,0.71289 -2.10742,0.71289 -0.86773,0 -1.51396,-0.27281 -1.9375,-0.82031 -0.42354,-0.55783 -0.63476,-1.40999 -0.63476,-2.55664 0,-0.5475 0.0477,-1.2202 0.14062,-2.01562 0.093,-0.79543 0.22673,-1.65818 0.40235,-2.58789 0.18594,-1.01236 0.40246,-1.94729 0.65039,-2.80469 0.0166,-0.0551 0.0359,-0.10191 0.0527,-0.15625 h -5.94141 c -0.0769,0.2334 -0.16225,0.4581 -0.23242,0.69922 -0.55783,1.94207 -0.83594,3.9245 -0.83594,5.94922 10e-6,2.69618 0.67075,4.76332 2.01368,6.19921 1.35325,1.4359 3.29527,2.1543 5.82617,2.1543 1.81811,0 3.46614,-0.38205 4.94336,-1.14648 1.47722,-0.77477 2.7379,-1.91758 3.78125,-3.42579 1.02269,-1.46688 1.81856,-3.1712 2.38672,-5.11328 0.50475,-1.72532 0.77179,-3.49748 0.82812,-5.3125 z m -12.76953,-0.004 6.88477,0.002 c 0.0604,-0.58872 0.0977,-1.12329 0.0977,-1.56445 0,-1.15698 -0.20593,-2.00385 -0.61914,-2.54102 -0.41321,-0.5475 -1.05414,-0.82226 -1.92187,-0.82226 -0.80576,0 -1.51357,0.2324 -2.12305,0.69726 -0.60948,0.45453 -1.11665,1.15175 -1.51953,2.0918 -0.28999,0.6283 -0.55407,1.3456 -0.79883,2.13672 z m -10.6875,-0.002 -6.00781,-0.002 c -0.0428,0.0692 -0.0764,0.13744 -0.12305,0.20703 -0.55783,0.84708 -1.37488,1.68335 -2.44922,2.50977 l -9.83789,7.42383 -0.86914,4.41601 h 16.79688 l 0.85351,-4.38672 h -10.05664 l 5.7793,-4.33789 c 2.80981,-2.10736 4.62866,-3.78186 5.45508,-5.02148 0.17527,-0.26291 0.32088,-0.5336 0.45898,-0.8086 z m 37.19336,-4.92382 c 0.86774,0 1.50867,0.27476 1.92187,0.82226 0.41321,0.53717 0.61915,1.38404 0.61915,2.54102 0,0.5475 -0.0457,1.20765 -0.13868,1.98242 -0.093,0.77476 -0.22673,1.62163 -0.40234,2.54102 -0.2066,1.13632 -0.42842,2.12419 -0.66602,2.96093 -0.23759,0.82642 -0.50177,1.56404 -0.79101,2.21485 -0.41321,0.91938 -0.92902,1.6166 -1.54883,2.09179 -0.60948,0.47519 -1.312,0.71289 -2.10742,0.71289 -0.86774,0 -1.51396,-0.27281 -1.9375,-0.82031 -0.42354,-0.55783 -0.63477,-1.40999 -0.63477,-2.55664 0,-0.5475 0.0457,-1.2202 0.13868,-2.01562 0.093,-0.79543 0.22673,-1.65818 0.40234,-2.58789 0.18594,-1.01236 0.40442,-1.94729 0.65234,-2.80469 0.25826,-0.85741 0.54166,-1.62151 0.85156,-2.29297 0.40288,-0.94005 0.9081,-1.63727 1.51758,-2.0918 0.60948,-0.46486 1.31729,-0.69726 2.12305,-0.69726 z"
     id="path3"
     style="fill:#f2f2f2;fill-opacity:1"
     inkscape:connector-curvature="0"
     sodipodi:nodetypes="sccscscccccccccccccccccccccccccccccccccsssccccscsccccscsccccsccccccccccccccccscccsccccccscccccccccccccsccccscscccscccccccccscsccccccccsccccccscscccccccccccccccscscccccscscccccs" /><path
     sodipodi:nodetypes="sczccscscccscsscscccccscscccc"
     style="fill:#f2f2f2;fill-opacity:1"
     id="path829"
     d="m 248.3118,136.8047 c -2.8246,-0.30556 -9.32516,-0.44369 -12.32422,8.91211 -0.0762,0.23141 -0.15896,0.45436 -0.22851,0.69336 -0.55783,1.94207 -0.83789,3.9245 -0.83789,5.94922 0,2.69618 0.6727,4.76332 2.01562,6.19921 1.35326,1.4359 3.29528,2.1543 5.82618,2.1543 1.81811,0 3.46614,-0.38205 4.94335,-1.14648 1.47722,-0.77477 2.73595,-1.91758 3.7793,-3.42579 1.02269,-1.46688 1.81856,-3.1712 2.38672,-5.11328 0.56816,-1.94207 0.85156,-3.94038 0.85156,-5.99609 0,-2.66519 -0.68133,-4.71645 -2.04492,-6.15234 -1.08299,-1.1574 -1.54259,-1.76866 -4.36719,-2.07422 z m -1.93945,3.98032 c 0.86774,0 1.50867,0.27476 1.92187,0.82226 0.41321,0.53717 0.61915,1.38404 0.61915,2.54102 0,0.5475 -0.0457,1.20765 -0.13868,1.98242 -0.093,0.77476 -0.22673,1.62163 -0.40234,2.54102 -0.2066,1.13632 -0.42842,2.12419 -0.66602,2.96093 -0.23759,0.82642 -0.50177,1.56404 -0.79101,2.21485 -0.41321,0.91938 -0.92902,1.6166 -1.54883,2.09179 -0.60948,0.47519 -1.312,0.71289 -2.10742,0.71289 -0.86774,0 -1.51396,-0.27281 -1.9375,-0.82031 -0.42354,-0.55783 -0.63477,-1.40999 -0.63477,-2.55664 0,-0.5475 0.0457,-1.2202 0.13868,-2.01562 0.093,-0.79543 0.22673,-1.65818 0.40234,-2.58789 0.18594,-1.01236 0.40442,-1.94729 0.65234,-2.80469 0.25826,-0.85741 0.54166,-1.62151 0.85156,-2.29297 0.40288,-0.94005 0.9081,-1.63727 1.51758,-2.0918 0.60948,-0.46486 1.31729,-0.69726 2.12305,-0.69726 z"
     inkscape:connector-curvature="0" /></svg>