<?xml version="1.0" encoding="UTF-8" standalone="no"?>
<!-- Created with Inkscape (http://www.inkscape.org/) -->

<svg
   xmlns:dc="http://purl.org/dc/elements/1.1/"
   xmlns:cc="http://creativecommons.org/ns#"
   xmlns:rdf="http://www.w3.org/1999/02/22-rdf-syntax-ns#"
   xmlns:svg="http://www.w3.org/2000/svg"
   xmlns="http://www.w3.org/2000/svg"
   xmlns:sodipodi="http://sodipodi.sourceforge.net/DTD/sodipodi-0.dtd"
   xmlns:inkscape="http://www.inkscape.org/namespaces/inkscape"
   id="svg5346"
   version="1.1"
   inkscape:version="0.48.5 r10040"
   width="64"
   height="64"
   xml:space="preserve"
   sodipodi:docname="Mattel - Intellevision.svg"
   inkscape:export-filename="/Users/margetts/Desktop/Icon Workshop/Monochrome July/Mattel - Intellevision.png"
   inkscape:export-xdpi="360"
   inkscape:export-ydpi="360"><metadata
     id="metadata5352"><rdf:RDF><cc:Work
         rdf:about=""><dc:format>image/svg+xml</dc:format><dc:type
           rdf:resource="http://purl.org/dc/dcmitype/StillImage" /><dc:title></dc:title></cc:Work></rdf:RDF></metadata><defs
     id="defs5350"><clipPath
       clipPathUnits="userSpaceOnUse"
       id="clipPath5360"><path
         d="M 0,64 64,64 64,0 0,0 0,64 z"
         id="path5362"
         inkscape:connector-curvature="0" /></clipPath></defs><sodipodi:namedview
     pagecolor="#ffffff"
     bordercolor="#666666"
     borderopacity="1"
     objecttolerance="10"
     gridtolerance="10"
     guidetolerance="10"
     inkscape:pageopacity="0"
     inkscape:pageshadow="2"
     inkscape:window-width="1676"
     inkscape:window-height="1005"
     id="namedview5348"
     showgrid="false"
     inkscape:zoom="10.4375"
     inkscape:cx="27.976048"
     inkscape:cy="40"
     inkscape:window-x="4"
     inkscape:window-y="1"
     inkscape:window-maximized="1"
     inkscape:current-layer="g5354" /><g
     id="g5354"
     inkscape:groupmode="layer"
     inkscape:label="Mattel - Intellevision"
     transform="matrix(1.25,0,0,-1.25,0,64)"><g
       id="g5356"
       transform="scale(0.8,0.8)"><g
         id="g5358"
         clip-path="url(#clipPath5360)"><g
           id="g5364"
           transform="translate(42,47)"><path
             d="m 0,0 c 0,-0.552 -0.447,-1 -1,-1 l -4,0 c -0.553,0 -1,0.448 -1,1 l 0,4 c 0,0.552 0.447,1 1,1 l 4,0 C -0.447,5 0,4.552 0,4 L 0,0 z m 0,-7 c 0,-0.552 -0.447,-1 -1,-1 l -4,0 c -0.553,0 -1,0.448 -1,1 l 0,4 c 0,0.552 0.447,1 1,1 l 4,0 c 0.553,0 1,-0.448 1,-1 l 0,-4 z m 0,-7 c 0,-0.552 -0.447,-1 -1,-1 l -4,0 c -0.553,0 -1,0.448 -1,1 l 0,4 c 0,0.552 0.447,1 1,1 l 4,0 c 0.553,0 1,-0.448 1,-1 l 0,-4 z m 0,-7 c 0,-0.553 -0.447,-1 -1,-1 l -4,0 c -0.553,0 -1,0.447 -1,1 l 0,4 c 0,0.553 0.447,1 1,1 l 4,0 c 0.553,0 1,-0.447 1,-1 l 0,-4 z m -10,-16 c -3.313,0 -6,2.687 -6,6 0,3.313 2.687,6 6,6 3.313,0 6,-2.687 6,-6 0,-3.313 -2.687,-6 -6,-6 m -10,16 0,4 c 0,0.553 0.448,1 1,1 l 4,0 c 0.552,0 1,-0.447 1,-1 l 0,-4 c 0,-0.553 -0.448,-1 -1,-1 l -4,0 c -0.552,0 -1,0.447 -1,1 m 0,11 c 0,0.552 0.448,1 1,1 l 4,0 c 0.552,0 1,-0.448 1,-1 l 0,-4 c 0,-0.552 -0.448,-1 -1,-1 l -4,0 c -0.552,0 -1,0.448 -1,1 l 0,4 z m 0,7 c 0,0.552 0.448,1 1,1 l 4,0 c 0.552,0 1,-0.448 1,-1 l 0,-4 c 0,-0.552 -0.448,-1 -1,-1 l -4,0 c -0.552,0 -1,0.448 -1,1 l 0,4 z m 0,7 c 0,0.552 0.448,1 1,1 l 4,0 c 0.552,0 1,-0.448 1,-1 l 0,-4 c 0,-0.552 -0.448,-1 -1,-1 l -4,0 c -0.552,0 -1,0.448 -1,1 l 0,4 z m 7,-21 c 0,0.553 0.448,1 1,1 l 4,0 c 0.553,0 1,-0.447 1,-1 l 0,-4 c 0,-0.553 -0.447,-1 -1,-1 l -4,0 c -0.552,0 -1,0.447 -1,1 l 0,4 z m 0,7 c 0,0.552 0.448,1 1,1 l 4,0 c 0.553,0 1,-0.448 1,-1 l 0,-4 c 0,-0.552 -0.447,-1 -1,-1 l -4,0 c -0.552,0 -1,0.448 -1,1 l 0,4 z m 0,7 c 0,0.552 0.448,1 1,1 l 4,0 c 0.553,0 1,-0.448 1,-1 l 0,-4 c 0,-0.552 -0.447,-1 -1,-1 l -4,0 c -0.552,0 -1,0.448 -1,1 l 0,4 z m 0,7 c 0,0.552 0.448,1 1,1 l 4,0 c 0.553,0 1,-0.448 1,-1 l 0,-4 c 0,-0.552 -0.447,-1 -1,-1 l -4,0 c -0.552,0 -1,0.448 -1,1 l 0,4 z m 15,-18 0.4,0 c 0.331,0 0.6,0.269 0.6,0.6 l 0,3.8 C 3,-9.269 2.731,-9 2.4,-9 l -0.4,0 0,0.931 0.4,0 c 0.331,0 0.6,0.269 0.6,0.6 l 0,3.8 c 0,0.332 -0.269,0.6 -0.6,0.6 l -0.4,0 0,14.069 -2,0 0,1 -20,0 0,-1 -2,0 0,-14.069 -0.069,0 C -22.583,-3.069 -23,-3.486 -23,-4 l 0,-3.138 c 0,-0.514 0.417,-0.931 0.931,-0.931 l 0.069,0 0,-0.931 -0.069,0 C -22.583,-9 -23,-9.417 -23,-9.931 l 0,-3.138 c 0,-0.514 0.417,-0.931 0.931,-0.931 l 0.069,0 0,-28 24,0 0,28 z"
             style="fill:#f2f2f2;fill-opacity:1;fill-rule:nonzero;stroke:none"
             id="path5366"
             inkscape:connector-curvature="0" /></g></g></g></g></svg>