<?xml version="1.0" encoding="UTF-8" standalone="no"?>
<!-- Created with Inkscape (http://www.inkscape.org/) -->

<svg
   xmlns:dc="http://purl.org/dc/elements/1.1/"
   xmlns:cc="http://creativecommons.org/ns#"
   xmlns:rdf="http://www.w3.org/1999/02/22-rdf-syntax-ns#"
   xmlns:svg="http://www.w3.org/2000/svg"
   xmlns="http://www.w3.org/2000/svg"
   xmlns:sodipodi="http://sodipodi.sourceforge.net/DTD/sodipodi-0.dtd"
   xmlns:inkscape="http://www.inkscape.org/namespaces/inkscape"
   id="svg4343"
   version="1.1"
   inkscape:version="0.48.5 r10040"
   width="64"
   height="64"
   xml:space="preserve"
   sodipodi:docname="Microsoft - MSX2.svg"
   inkscape:export-filename="/Users/margetts/Desktop/Icon Workshop/Monochrome Plus June/png/Microsoft - MSX2.png"
   inkscape:export-xdpi="360"
   inkscape:export-ydpi="360"><metadata
     id="metadata4349"><rdf:RDF><cc:Work
         rdf:about=""><dc:format>image/svg+xml</dc:format><dc:type
           rdf:resource="http://purl.org/dc/dcmitype/StillImage" /><dc:title></dc:title></cc:Work></rdf:RDF></metadata><defs
     id="defs4347" /><sodipodi:namedview
     pagecolor="#ffffff"
     bordercolor="#666666"
     borderopacity="1"
     objecttolerance="10"
     gridtolerance="10"
     guidetolerance="10"
     inkscape:pageopacity="0"
     inkscape:pageshadow="2"
     inkscape:window-width="1676"
     inkscape:window-height="1005"
     id="namedview4345"
     showgrid="false"
     inkscape:zoom="3.8"
     inkscape:cx="6.9736842"
     inkscape:cy="40"
     inkscape:window-x="4"
     inkscape:window-y="1"
     inkscape:window-maximized="1"
     inkscape:current-layer="g4351" /><g
     id="g4351"
     inkscape:groupmode="layer"
     inkscape:label="Microsoft - MSX2"
     transform="matrix(1.25,0,0,-1.25,0,64)"><g
       id="g4357"
       transform="scale(0.8,0.8)"><path
         id="path4353"
         style="fill:#f2f2f2;fill-opacity:1;fill-rule:nonzero;stroke:none"
         d="m 34,38 -15,0 0,2 15,0 0,-2 z m 24,11 0,2 -53,0 0,-16 4,0 0,2 46,0 0,-2 3,0 0,3 1,0 0,11 -1,0 z"
         inkscape:connector-curvature="0" /><path
         id="path4355"
         style="fill:#f2f2f2;fill-opacity:1;fill-rule:nonzero;stroke:none"
         d="m 55,29 -2,0 0,2 2,0 0,-2 z m 0,-3 -2,0 0,2 2,0 0,-2 z m 0,-3 -2,0 0,2 2,0 0,-2 z M 54,15.707 51.432,18.275 54,20.843 54,15.707 z M 48.157,15 50.725,17.568 53.293,15 48.157,15 z M 47,21.293 50.018,18.275 47,15.258 47,21.293 z M 45,30 l -1,0 0,1 1,0 0,-1 z m 0,-3 -4,0 0,2 4,0 0,-2 z m 0,-2 0,-1 0,-3 -2,0 0,3 -1,0 0,2 3,0 0,-1 z m -2,-7 -2,0 0,2 2,0 0,-2 z m -3,5 2,0 0,-2 -2,0 0,2 z m 0,-5 -2,0 0,2 2,0 0,-2 z m -1,-3 -2,0 0,2 2,0 0,-2 z m -3,0 -21,0 0,2 21,0 0,-2 z m -22,5 2,0 0,-2 -2,0 0,2 z m 0,-5 -2,0 0,2 2,0 0,-2 z m -3,0 -2,0 0,2 2,0 0,-2 z m -3,5 5,0 0,-2 -5,0 0,2 z m 0,3 4,0 0,-2 -4,0 0,2 z m 0,3 3,0 0,-2 -3,0 0,2 z m 0,3 2,0 0,-2 -2,0 0,2 z m 0,2 3,0 0,-1 -3,0 0,1 z m 4,0 3,0 0,-1 -3,0 0,1 z m 1,-8 2,0 0,-2 -2,0 0,2 z m -2,6 2,0 0,-2 -2,0 0,2 z m 1,-3 2,0 0,-2 -2,0 0,2 z m 4,1 -2,0 0,2 2,0 0,-2 z m 0,4 3,0 0,-1 -3,0 0,1 z m 1,-11 2,0 0,-2 -2,0 0,2 z m 0,9 2,0 0,-2 -2,0 0,2 z m -2,-3 2,0 0,-2 -2,0 0,2 z m 1,-3 2,0 0,-2 -2,0 0,2 z m 4,1 -2,0 0,2 2,0 0,-2 z m 0,5 2,0 0,-2 -2,0 0,2 z m 0,2 3,0 0,-1 -3,0 0,1 z m 4,0 3,0 0,-1 -3,0 0,1 z m 4,-4 -2,0 0,2 2,0 0,-2 z m 0,4 3,0 0,-1 -3,0 0,1 z m 1,-11 2,0 0,-2 -2,0 0,2 z m 0,9 2,0 0,-2 -2,0 0,2 z m -1,-6 2,0 0,-2 -2,0 0,2 z m -1,3 2,0 0,-2 -2,0 0,2 z m -1,-6 2,0 0,-2 -2,0 0,2 z m -1,3 2,0 0,-2 -2,0 0,2 z m -1,3 2,0 0,-2 -2,0 0,2 z m -1,-6 2,0 0,-2 -2,0 0,2 z m 0,9 2,0 0,-2 -2,0 0,2 z m -1,-6 2,0 0,-2 -2,0 0,2 z m -1,3 2,0 0,-2 -2,0 0,2 z m -2,-3 2,0 0,-2 -2,0 0,2 z m 1,-3 2,0 0,-2 -2,0 0,2 z m 12,4 -2,0 0,2 2,0 0,-2 z m 0,5 2,0 0,-2 -2,0 0,2 z m 0,2 3,0 0,-1 -3,0 0,1 z m 4,0 3,0 0,-1 -3,0 0,1 z m 1,-8 2,0 0,-2 -2,0 0,2 z m -1,3 2,0 0,-2 -2,0 0,2 z m -1,-6 2,0 0,-2 -2,0 0,2 z m 0,9 2,0 0,-2 -2,0 0,2 z m -1,-6 2,0 0,-2 -2,0 0,2 z m -1,3 2,0 0,-2 -2,0 0,2 z m -2,-3 2,0 0,-2 -2,0 0,2 z m 1,-3 2,0 0,-2 -2,0 0,2 z m 8,7 -2,0 0,2 2,0 0,-2 z m 1,-3 -2,0 0,2 2,0 0,-2 z m -1,7 3,0 0,-1 -3,0 0,1 z m 7,-6 2,0 0,-2 -2,0 0,2 z m 0,3 2,0 0,-2 -2,0 0,2 z m 0,3 2,0 0,-2 -2,0 0,2 z m 3,-6 2,0 0,-2 -2,0 0,2 z m 0,3 2,0 0,-2 -2,0 0,2 z M 53.742,22 50.725,18.982 47.707,22 53.742,22 z M 50,31 l 2,0 0,-2 -2,0 0,2 z m 5,3 0,-1 -46,0 0,1 -4,0 0,-21 53,0 0,21 -3,0 z"
         inkscape:connector-curvature="0" /></g></g></svg>