<?xml version="1.0" encoding="UTF-8" standalone="no"?>
<!-- Created with Inkscape (http://www.inkscape.org/) -->

<svg
   xmlns:dc="http://purl.org/dc/elements/1.1/"
   xmlns:cc="http://creativecommons.org/ns#"
   xmlns:rdf="http://www.w3.org/1999/02/22-rdf-syntax-ns#"
   xmlns:svg="http://www.w3.org/2000/svg"
   xmlns="http://www.w3.org/2000/svg"
   xmlns:sodipodi="http://sodipodi.sourceforge.net/DTD/sodipodi-0.dtd"
   xmlns:inkscape="http://www.inkscape.org/namespaces/inkscape"
   id="svg4284"
   version="1.1"
   inkscape:version="0.48.5 r10040"
   width="64"
   height="64"
   xml:space="preserve"
   sodipodi:docname="Microsoft - MSX.svg"
   inkscape:export-filename="/Users/margetts/Desktop/Icon Workshop/Monochrome Plus June/png/Microsoft - MSX.png"
   inkscape:export-xdpi="360"
   inkscape:export-ydpi="360"><metadata
     id="metadata4290"><rdf:RDF><cc:Work
         rdf:about=""><dc:format>image/svg+xml</dc:format><dc:type
           rdf:resource="http://purl.org/dc/dcmitype/StillImage" /><dc:title></dc:title></cc:Work></rdf:RDF></metadata><defs
     id="defs4288" /><sodipodi:namedview
     pagecolor="#ffffff"
     bordercolor="#666666"
     borderopacity="1"
     objecttolerance="10"
     gridtolerance="10"
     guidetolerance="10"
     inkscape:pageopacity="0"
     inkscape:pageshadow="2"
     inkscape:window-width="1676"
     inkscape:window-height="1005"
     id="namedview4286"
     showgrid="false"
     inkscape:zoom="3.8"
     inkscape:cx="6.9736842"
     inkscape:cy="40"
     inkscape:window-x="4"
     inkscape:window-y="1"
     inkscape:window-maximized="1"
     inkscape:current-layer="g4292" /><g
     id="g4292"
     inkscape:groupmode="layer"
     inkscape:label="Microsoft - MSX"
     transform="matrix(1.25,0,0,-1.25,0,64)"><g
       id="g4300"
       transform="scale(0.8,0.8)"><path
         id="path4294"
         style="fill:#f2f2f2;fill-opacity:1;fill-rule:nonzero;stroke:none"
         d="m 54,41 -15,0 0,2 15,0 0,-2 z m -49,-2 54,0 0,8 -54,0 0,-8 z"
         inkscape:connector-curvature="0" /><path
         id="path4296"
         style="fill:#f2f2f2;fill-opacity:1;fill-rule:nonzero;stroke:none"
         d="m 6,37 51.999,0 0,1 L 6,38 6,37 z"
         inkscape:connector-curvature="0" /><path
         id="path4298"
         style="fill:#f2f2f2;fill-opacity:1;fill-rule:nonzero;stroke:none"
         d="m 56,35 -3,0 0,1 3,0 0,-1 z M 55,24.707 52.432,27.275 55,29.843 55,24.707 z M 49.157,24 51.725,26.568 54.293,24 49.157,24 z M 48,30.293 51.018,27.275 48,24.258 48,30.293 z M 45,36 l 3,0 0,-1 -3,0 0,1 z m 0,-4 -4,0 0,2 4,0 0,-2 z m 0,-2 0,-1 0,-3 -2,0 0,3 -1,0 0,2 3,0 0,-1 z m 0,-7 -4,0 0,2 4,0 0,-2 z m -5,5 2,0 0,-2 -2,0 0,2 z m 0,-5 -2,0 0,2 2,0 0,-2 z m -1,-3 -2,0 0,2 2,0 0,-2 z m -3,0 -22,0 0,2 22,0 0,-2 z m -23,8 2,0 0,-2 -2,0 0,2 z m 0,-5 -5,0 0,2 5,0 0,-2 z m 0,-3 -2,0 0,2 2,0 0,-2 z m -3,0 -2,0 0,2 2,0 0,-2 z m -2,8 4,0 0,-2 -4,0 0,2 z m 0,3 3,0 0,-2 -3,0 0,2 z m 0,3 2,0 0,-2 -2,0 0,2 z m 2,2 3,0 0,-1 -3,0 0,1 z m 1,-2 2,0 0,-2 -2,0 0,2 z m 1,-3 2,0 0,-2 -2,0 0,2 z m 2,3 2,0 0,-2 -2,0 0,2 z m 0,2 3,0 0,-1 -3,0 0,1 z m 4,0 3,0 0,-1 -3,0 0,1 z m 4,-4 -2,0 0,2 2,0 0,-2 z m 0,4 3,0 0,-1 -3,0 0,1 z m 1,-11 2,0 0,-2 -2,0 0,2 z m 0,9 2,0 0,-2 -2,0 0,2 z m -1,-6 2,0 0,-2 -2,0 0,2 z m -1,3 2,0 0,-2 -2,0 0,2 z m -1,-6 2,0 0,-2 -2,0 0,2 z m -1,3 2,0 0,-2 -2,0 0,2 z m -1,3 2,0 0,-2 -2,0 0,2 z m -1,-6 2,0 0,-2 -2,0 0,2 z m 0,9 2,0 0,-2 -2,0 0,2 z m -1,-6 2,0 0,-2 -2,0 0,2 z m 0,-5 -2,0 0,2 2,0 0,-2 z m -1,8 2,0 0,-2 -2,0 0,2 z m 11,-2 -2,0 0,2 2,0 0,-2 z m 0,5 2,0 0,-2 -2,0 0,2 z m 0,2 3,0 0,-1 -3,0 0,1 z m 5,-4 -2,0 0,2 2,0 0,-2 z m -2,-7 2,0 0,-2 -2,0 0,2 z m -1,3 2,0 0,-2 -2,0 0,2 z m -1,3 2,0 0,-2 -2,0 0,2 z m -2,-3 2,0 0,-2 -2,0 0,2 z m 1,-3 2,0 0,-2 -2,0 0,2 z m 6,4 -2,0 0,2 2,0 0,-2 z m 0,5 2,0 0,-2 -2,0 0,2 z m -1,-6 2,0 0,-2 -2,0 0,2 z m 1,-3 2,0 0,-2 -2,0 0,2 z m 3,4 -2,0 0,2 2,0 0,-2 z m 0,5 2,0 0,-2 -2,0 0,2 z m 2,2 3,0 0,-1 -3,0 0,1 z m 2,-5 2,0 0,-2 -2,0 0,2 z m -1,3 2,0 0,-2 -2,0 0,2 z m -1,-6 2,0 0,-2 -2,0 0,2 z m -1,3 2,0 0,-2 -2,0 0,2 z m -2,-3 2,0 0,-2 -2,0 0,2 z m 1,-3 2,0 0,-2 -2,0 0,2 z m 6,11 3,0 0,-1 -3,0 0,1 z M 54.742,31 51.725,27.982 48.707,31 54.742,31 z M 49,36 l 3,0 0,-1 -3,0 0,1 z M 6,17 58,17 58,38 6,38 6,17 z"
         inkscape:connector-curvature="0" /></g></g></svg>