<?xml version="1.0" encoding="UTF-8" standalone="no"?>
<!-- Created with Inkscape (http://www.inkscape.org/) -->

<svg
   xmlns:dc="http://purl.org/dc/elements/1.1/"
   xmlns:cc="http://creativecommons.org/ns#"
   xmlns:rdf="http://www.w3.org/1999/02/22-rdf-syntax-ns#"
   xmlns:svg="http://www.w3.org/2000/svg"
   xmlns="http://www.w3.org/2000/svg"
   xmlns:sodipodi="http://sodipodi.sourceforge.net/DTD/sodipodi-0.dtd"
   xmlns:inkscape="http://www.inkscape.org/namespaces/inkscape"
   id="svg4048"
   version="1.1"
   inkscape:version="0.48.5 r10040"
   width="64"
   height="64"
   xml:space="preserve"
   sodipodi:docname="Microsoft - XBOX 360-content.svg"
   inkscape:export-filename="/Users/margetts/Desktop/Icon Workshop/Monochrome Plus June/png/Microsoft - XBOX 360-content.png"
   inkscape:export-xdpi="360"
   inkscape:export-ydpi="360"><metadata
     id="metadata4054"><rdf:RDF><cc:Work
         rdf:about=""><dc:format>image/svg+xml</dc:format><dc:type
           rdf:resource="http://purl.org/dc/dcmitype/StillImage" /><dc:title></dc:title></cc:Work></rdf:RDF></metadata><defs
     id="defs4052"><clipPath
       clipPathUnits="userSpaceOnUse"
       id="clipPath4062"><path
         d="M 0,64 64,64 64,0 0,0 0,64 z"
         id="path4064"
         inkscape:connector-curvature="0" /></clipPath></defs><sodipodi:namedview
     pagecolor="#ffffff"
     bordercolor="#666666"
     borderopacity="1"
     objecttolerance="10"
     gridtolerance="10"
     guidetolerance="10"
     inkscape:pageopacity="0"
     inkscape:pageshadow="2"
     inkscape:window-width="1676"
     inkscape:window-height="1005"
     id="namedview4050"
     showgrid="false"
     inkscape:zoom="10.4125"
     inkscape:cx="27.947179"
     inkscape:cy="40"
     inkscape:window-x="4"
     inkscape:window-y="1"
     inkscape:window-maximized="1"
     inkscape:current-layer="g4056" /><g
     id="g4056"
     inkscape:groupmode="layer"
     inkscape:label="Microsoft - XBOX 360-content"
     transform="matrix(1.25,0,0,-1.25,0,64)"><g
       id="g4058"
       transform="scale(0.8,0.8)"><g
         id="g4060"
         clip-path="url(#clipPath4062)"><g
           id="g4066"
           transform="translate(32,35.002)"><path
             d="m 0,0 c -1.654,0 -3.002,-1.346 -3.002,-3.002 0,-1.655 1.348,-3 3.002,-3 1.655,0 3,1.345 3,3 C 3,-1.346 1.655,0 0,0 m 0,-10.003 c -3.86,0 -7.001,3.143 -7.001,7.001 0,3.858 3.141,7.001 7.001,7.001 3.856,0 7,-3.143 7,-7.001 0,-3.858 -3.144,-7.001 -7,-7.001 m 0,-2 c -4.964,0 -9.001,4.038 -9.001,9.001 0,4.963 4.037,9.001 9.001,9.001 4.963,0 9,-4.038 9,-9.001 0,-4.963 -4.037,-9.001 -9,-9.001 m 0,33.001 c -13.256,0 -24,-10.745 -24,-24 0,-13.255 10.744,-24 24,-24 13.252,0 24,10.745 24,24 0,13.255 -10.748,24 -24,24"
             style="fill:#f2f2f2;fill-opacity:1;fill-rule:nonzero;stroke:none"
             id="path4068"
             inkscape:connector-curvature="0" /></g></g></g></g></svg>