<?xml version="1.0" encoding="UTF-8" standalone="no"?>
<!-- Created with Inkscape (http://www.inkscape.org/) -->

<svg
   xmlns:dc="http://purl.org/dc/elements/1.1/"
   xmlns:cc="http://creativecommons.org/ns#"
   xmlns:rdf="http://www.w3.org/1999/02/22-rdf-syntax-ns#"
   xmlns:svg="http://www.w3.org/2000/svg"
   xmlns="http://www.w3.org/2000/svg"
   xmlns:sodipodi="http://sodipodi.sourceforge.net/DTD/sodipodi-0.dtd"
   xmlns:inkscape="http://www.inkscape.org/namespaces/inkscape"
   id="svg3984"
   version="1.1"
   inkscape:version="0.48.5 r10040"
   width="64"
   height="64"
   xml:space="preserve"
   sodipodi:docname="Microsoft - XBOX 360.svg"
   inkscape:export-filename="/Users/margetts/Desktop/Icon Workshop/Monochrome Plus June/png/Microsoft - XBOX 360.png"
   inkscape:export-xdpi="360"
   inkscape:export-ydpi="360"><metadata
     id="metadata3990"><rdf:RDF><cc:Work
         rdf:about=""><dc:format>image/svg+xml</dc:format><dc:type
           rdf:resource="http://purl.org/dc/dcmitype/StillImage" /><dc:title></dc:title></cc:Work></rdf:RDF></metadata><defs
     id="defs3988"><clipPath
       clipPathUnits="userSpaceOnUse"
       id="clipPath3998"><path
         d="M 0,64 64,64 64,0 0,0 0,64 z"
         id="path4000"
         inkscape:connector-curvature="0" /></clipPath></defs><sodipodi:namedview
     pagecolor="#ffffff"
     bordercolor="#666666"
     borderopacity="1"
     objecttolerance="10"
     gridtolerance="10"
     guidetolerance="10"
     inkscape:pageopacity="0"
     inkscape:pageshadow="2"
     inkscape:window-width="1676"
     inkscape:window-height="1005"
     id="namedview3986"
     showgrid="false"
     inkscape:zoom="10.4125"
     inkscape:cx="27.947179"
     inkscape:cy="40"
     inkscape:window-x="4"
     inkscape:window-y="1"
     inkscape:window-maximized="1"
     inkscape:current-layer="g3992" /><g
     id="g3992"
     inkscape:groupmode="layer"
     inkscape:label="Microsoft - XBOX 360"
     transform="matrix(1.25,0,0,-1.25,0,64)"><g
       id="g3994"
       transform="matrix(0.8,0,0,0.8,0,0.39988034)"><g
         id="g3996"
         clip-path="url(#clipPath3998)"><g
           id="g4002"
           transform="translate(35,40.5)"><path
             d="m 0,0 c 0,-1.657 -1.343,-3 -3,-3 -1.657,0 -3,1.343 -3,3 0,1.657 1.343,3 3,3 1.657,0 3,-1.343 3,-3"
             style="fill:#f2f2f2;fill-opacity:1;fill-rule:nonzero;stroke:none"
             id="path4004"
             inkscape:connector-curvature="0" /></g><g
           id="g4006"
           transform="translate(53,39)"><path
             d="M 0,0 C -1.104,0 -2,0.896 -2,2 -2,3.104 -1.104,4 0,4 1.104,4 2,3.104 2,2 2,0.896 1.104,0 0,0 m -4.5,4.5 c -1.104,0 -2,0.896 -2,2 0,1.104 0.896,2 2,2 1.104,0 2,-0.896 2,-2 0,-1.104 -0.896,-2 -2,-2 m 0,-9 c -1.104,0 -2,0.896 -2,2 0,1.104 0.896,2 2,2 1.104,0 2,-0.896 2,-2 0,-1.104 -0.896,-2 -2,-2 M -9,0 c -1.104,0 -2,0.896 -2,2 0,1.104 0.896,2 2,2 1.104,0 2,-0.896 2,-2 0,-1.104 -0.896,-2 -2,-2 m -4,-12 c -2.209,0 -4,1.791 -4,4 0,2.209 1.791,4 4,4 2.209,0 4,-1.791 4,-4 0,-2.209 -1.791,-4 -4,-4 m -8,10 c -1.93,0 -3.5,1.57 -3.5,3.5 0,1.93 1.57,3.5 3.5,3.5 1.93,0 3.5,-1.57 3.5,-3.5 0,-1.93 -1.57,-3.5 -3.5,-3.5 m -5.5,-4.5 c -1.104,0 -2,0.896 -2,2 l 0,1.788 c 1.83,-0.519 3.269,-1.958 3.788,-3.788 l -1.788,0 z m -2,-6.787 0,1.787 c 0,1.104 0.896,2 2,2 l 1.788,0 c -0.519,-1.83 -1.958,-3.27 -3.788,-3.787 M -29,2 c 0,0.829 0.671,1.5 1.5,1.5 0.829,0 1.5,-0.671 1.5,-1.5 0,-0.829 -0.671,-1.5 -1.5,-1.5 -0.829,0 -1.5,0.671 -1.5,1.5 m 14.5,1.5 c 0.828,0 1.5,-0.671 1.5,-1.5 0,-0.829 -0.672,-1.5 -1.5,-1.5 -0.828,0 -1.5,0.671 -1.5,1.5 0,0.829 0.672,1.5 1.5,1.5 m -17,-8 c 0,-1.104 -0.896,-2 -2,-2 l -1.788,0 c 0.519,1.83 1.958,3.269 3.788,3.788 l 0,-1.788 z m 0,-8.787 c -1.83,0.517 -3.269,1.957 -3.788,3.787 l 1.788,0 c 1.104,0 2,-0.896 2,-2 l 0,-1.787 z M -38,-2 c -2.209,0 -4,1.791 -4,4 0,2.209 1.791,4 4,4 2.209,0 4,-1.791 4,-4 0,-2.209 -1.791,-4 -4,-4 M 2,3.969 C 1.282,5.376 0.699,6.965 0,7.897 -0.715,11.92 -6.342,10.916 -8.013,10.821 -8.268,10.807 -9,9.861 -9,9.861 c -1.511,-0.194 -2.391,-0.484 -3,-0.982 -0.826,-0.675 -1.978,-1.636 -3,-1.964 -3.317,-1.064 -6,-0.982 -6,-0.982 0,0 -2.682,-0.082 -6,0.982 -1.022,0.328 -2.174,1.289 -3,1.964 -0.609,0.498 -1.489,0.788 -3,0.982 0,0 -0.733,0.946 -0.988,0.96 -1.671,0.095 -7.297,1.099 -8.012,-2.924 -0.699,-0.932 -1.282,-2.521 -2,-3.928 -1.929,-3.78 -4,-14.081 -4,-22.587 0,0 0.396,-13.555 11,-3.929 0,0 7.321,4.547 16,4.547 8.679,0 16,-4.547 16,-4.547 10.604,-9.626 11,3.929 11,3.929 0,8.506 -2.071,18.807 -4,22.587"
             style="fill:#f2f2f2;fill-opacity:1;fill-rule:nonzero;stroke:none"
             id="path4008"
             inkscape:connector-curvature="0" /></g></g></g></g></svg>