<?xml version="1.0" encoding="UTF-8" standalone="no"?>
<!-- Created with Inkscape (http://www.inkscape.org/) -->

<svg
   xmlns:dc="http://purl.org/dc/elements/1.1/"
   xmlns:cc="http://creativecommons.org/ns#"
   xmlns:rdf="http://www.w3.org/1999/02/22-rdf-syntax-ns#"
   xmlns:svg="http://www.w3.org/2000/svg"
   xmlns="http://www.w3.org/2000/svg"
   xmlns:sodipodi="http://sodipodi.sourceforge.net/DTD/sodipodi-0.dtd"
   xmlns:inkscape="http://www.inkscape.org/namespaces/inkscape"
   id="svg4149"
   version="1.1"
   inkscape:version="0.48.5 r10040"
   width="64"
   height="64"
   xml:space="preserve"
   sodipodi:docname="Microsoft - XBOX One.svg"
   inkscape:export-filename="/Users/margetts/Desktop/Icon Workshop/Monochrome Plus June/png/Microsoft - XBOX One.png"
   inkscape:export-xdpi="360"
   inkscape:export-ydpi="360"><metadata
     id="metadata4155"><rdf:RDF><cc:Work
         rdf:about=""><dc:format>image/svg+xml</dc:format><dc:type
           rdf:resource="http://purl.org/dc/dcmitype/StillImage" /><dc:title></dc:title></cc:Work></rdf:RDF></metadata><defs
     id="defs4153"><clipPath
       clipPathUnits="userSpaceOnUse"
       id="clipPath4163"><path
         d="M 0,64 64,64 64,0 0,0 0,64 z"
         id="path4165"
         inkscape:connector-curvature="0" /></clipPath></defs><sodipodi:namedview
     pagecolor="#ffffff"
     bordercolor="#666666"
     borderopacity="1"
     objecttolerance="10"
     gridtolerance="10"
     guidetolerance="10"
     inkscape:pageopacity="0"
     inkscape:pageshadow="2"
     inkscape:window-width="1676"
     inkscape:window-height="1005"
     id="namedview4151"
     showgrid="false"
     inkscape:zoom="10.4125"
     inkscape:cx="27.947179"
     inkscape:cy="40"
     inkscape:window-x="4"
     inkscape:window-y="1"
     inkscape:window-maximized="1"
     inkscape:current-layer="g4157" /><g
     id="g4157"
     inkscape:groupmode="layer"
     inkscape:label="Microsoft - XBOX One"
     transform="matrix(1.25,0,0,-1.25,0,64)"><g
       id="g4159"
       transform="matrix(0.8,0,0,0.8,0,-0.40010497)"><g
         id="g4161"
         clip-path="url(#clipPath4163)"><g
           id="g4167"
           transform="translate(50,39)"><path
             d="M 0,0 C -1.104,0 -2,0.896 -2,2 -2,3.104 -1.104,4 0,4 1.104,4 2,3.104 2,2 2,0.896 1.104,0 0,0 m -4,-3.5 c -1.104,0 -2,0.896 -2,2 0,1.104 0.896,2 2,2 1.104,0 2,-0.896 2,-2 0,-1.104 -0.896,-2 -2,-2 M -8,0 c -1.104,0 -2,0.896 -2,2 0,1.104 0.896,2 2,2 1.104,0 2,-0.896 2,-2 0,-1.104 -0.896,-2 -2,-2 m -3,-9.5 c -1.657,0 -3,1.343 -3,3 0,1.657 1.343,3 3,3 1.657,0 3,-1.343 3,-3 0,-1.657 -1.343,-3 -3,-3 m -4,12 c 0,0.552 0.447,1 1,1 0.553,0 1,-0.448 1,-1 0,-0.552 -0.447,-1 -1,-1 -0.553,0 -1,0.448 -1,1 m -7,-1 c -0.552,0 -1,0.448 -1,1 0,0.552 0.448,1 1,1 0.552,0 1,-0.448 1,-1 0,-0.552 -0.448,-1 -1,-1 m 0.5,-10 -2.5,0 0,-2.5 -1.5,-0.5 -1.5,0.5 0,2.5 -2.5,0 -0.5,1.5 0.5,1.5 2.5,0 0,2.5 1.5,0.5 1.5,-0.5 0,-2.5 2.5,0 0.5,-1.5 -0.5,-1.5 z m -10.5,8 c -1.657,0 -3,1.343 -3,3 0,1.657 1.343,3 3,3 1.657,0 3,-1.343 3,-3 0,-1.657 -1.343,-3 -3,-3 m 28,8 c 1.104,0 2,-0.896 2,-2 0,-1.104 -0.896,-2 -2,-2 -1.104,0 -2,0.896 -2,2 0,1.104 0.896,2 2,2 M 7,-6 C 7,-6 2.475,6.736 1,8 c -0.931,3.094 -7.087,3.911 -9,4 -0.396,0.019 -3,-1 -3,-1 l -14,0 c 0,0 -2.604,1.019 -3,1 -1.913,-0.089 -8.069,-0.906 -9,-4 -1.475,-1.264 -6,-14 -6,-14 0,0 -2,-7.373 -2,-12 0,-4.627 5.069,-7 6,-7 0.931,0 2.379,2 2.379,2 l 3.621,4.478 c 2.793,3.702 5,3.522 5,3.522 l 20,0 c 0,0 2.207,0.18 5,-3.522 L 0.621,-23 c 0,0 1.448,-2 2.379,-2 0.931,0 6,2.373 6,7 0,4.627 -2,12 -2,12"
             style="fill:#f2f2f2;fill-opacity:1;fill-rule:nonzero;stroke:none"
             id="path4169"
             inkscape:connector-curvature="0" /></g></g></g></g></svg>