<?xml version="1.0" encoding="UTF-8" standalone="no"?>
<!-- Created with Inkscape (http://www.inkscape.org/) -->

<svg
   xmlns:dc="http://purl.org/dc/elements/1.1/"
   xmlns:cc="http://creativecommons.org/ns#"
   xmlns:rdf="http://www.w3.org/1999/02/22-rdf-syntax-ns#"
   xmlns:svg="http://www.w3.org/2000/svg"
   xmlns="http://www.w3.org/2000/svg"
   xmlns:sodipodi="http://sodipodi.sourceforge.net/DTD/sodipodi-0.dtd"
   xmlns:inkscape="http://www.inkscape.org/namespaces/inkscape"
   id="svg4399"
   version="1.1"
   inkscape:version="0.48.5 r10040"
   width="64"
   height="64"
   xml:space="preserve"
   sodipodi:docname="Microsoft - XBOX.svg"
   inkscape:export-filename="/Users/margetts/Desktop/Icon Workshop/Monochrome Plus June/png/Microsoft - XBOX.png"
   inkscape:export-xdpi="360"
   inkscape:export-ydpi="360"><metadata
     id="metadata4405"><rdf:RDF><cc:Work
         rdf:about=""><dc:format>image/svg+xml</dc:format><dc:type
           rdf:resource="http://purl.org/dc/dcmitype/StillImage" /><dc:title></dc:title></cc:Work></rdf:RDF></metadata><defs
     id="defs4403"><clipPath
       clipPathUnits="userSpaceOnUse"
       id="clipPath4413"><path
         d="M 0,64 64,64 64,0 0,0 0,64 z"
         id="path4415"
         inkscape:connector-curvature="0" /></clipPath></defs><sodipodi:namedview
     pagecolor="#ffffff"
     bordercolor="#666666"
     borderopacity="1"
     objecttolerance="10"
     gridtolerance="10"
     guidetolerance="10"
     inkscape:pageopacity="0"
     inkscape:pageshadow="2"
     inkscape:window-width="1676"
     inkscape:window-height="1005"
     id="namedview4401"
     showgrid="false"
     inkscape:zoom="3.8"
     inkscape:cx="6.9736842"
     inkscape:cy="40"
     inkscape:window-x="4"
     inkscape:window-y="1"
     inkscape:window-maximized="1"
     inkscape:current-layer="g4407" /><g
     id="g4407"
     inkscape:groupmode="layer"
     inkscape:label="Microsoft - XBOX"
     transform="matrix(1.25,0,0,-1.25,0,64)"><g
       id="g4409"
       transform="matrix(0.7999947,0,0,0.7999947,1.8375835e-4,-2.3039735e-4)"><g
         id="g4411"
         clip-path="url(#clipPath4413)"><g
           id="g4417"
           transform="translate(51.9648,39.0005)"><path
             d="M 0,0 C -1.1,0 -1.983,0.9 -1.965,2 -1.945,3.1 -1.029,4 0.07,4 1.17,4 2.054,3.1 2.035,2 2.016,0.9 1.1,0 0,0 m -4,4 c -1.1,0 -1.983,0.9 -1.965,2 0.02,1.1 0.936,2 2.035,2 1.1,0 1.984,-0.9 1.965,-2 C -1.984,4.9 -2.9,4 -4,4 m 0,-8 c -1.1,0 -1.983,0.9 -1.965,2 0.02,1.1 0.936,2 2.035,2 1.1,0 1.984,-0.9 1.965,-2 C -1.984,-3.1 -2.9,-4 -4,-4 m -4,4 c -1.1,0 -1.983,0.9 -1.965,2 0.02,1.1 0.936,2 2.035,2 1.1,0 1.984,-0.9 1.965,-2 C -5.984,0.9 -6.9,0 -8,0 m -3.026,-11 c -1.933,0 -3.472,1.567 -3.438,3.5 0.033,1.933 1.627,3.5 3.561,3.5 1.932,0 3.471,-1.567 3.437,-3.5 -0.033,-1.933 -1.627,-3.5 -3.56,-3.5 m -9.026,8 c -2.761,0 -4.96,2.238 -4.912,5 0.048,2.761 2.325,5 5.087,5 2.761,0 4.96,-2.239 4.911,-5 -0.048,-2.762 -2.325,-5 -5.086,-5 m -6.913,-4 0,2.882 c 1.425,-0.344 2.531,-1.458 2.874,-2.882 l -2.874,0 z m 0,-4.844 0,2.844 2.839,0 c -0.38,-1.379 -1.466,-2.463 -2.839,-2.844 m -2,4.844 -2.839,0 c 0.379,1.379 1.466,2.461 2.839,2.842 l 0,-2.842 z m 0,-4.883 c -1.425,0.344 -2.531,1.458 -2.873,2.883 l 2.873,0 0,-2.883 z M -34.526,-3 c -1.932,0 -3.472,1.567 -3.438,3.5 0.033,1.933 1.628,3.5 3.56,3.5 1.933,0 3.472,-1.567 3.439,-3.5 -0.034,-1.933 -1.628,-3.5 -3.561,-3.5 M 2.035,-5.5 C 2.05,-6.329 1.39,-7 0.562,-7 c -0.829,0 -1.512,0.671 -1.527,1.5 -0.014,0.828 0.646,1.5 1.474,1.5 0.828,0 1.512,-0.672 1.526,-1.5 m -4,-4 c 0.015,-0.829 -0.645,-1.5 -1.473,-1.5 -0.829,0 -1.512,0.671 -1.527,1.5 -0.014,0.828 0.646,1.5 1.474,1.5 0.828,0 1.512,-0.672 1.526,-1.5 M -36.491,-10 c -0.828,0 -1.488,0.671 -1.474,1.5 0.015,0.828 0.698,1.5 1.527,1.5 0.828,0 1.487,-0.672 1.473,-1.5 -0.014,-0.829 -0.698,-1.5 -1.526,-1.5 m -4,4 c -0.828,0 -1.488,0.671 -1.474,1.5 0.015,0.828 0.698,1.5 1.527,1.5 0.828,0 1.487,-0.672 1.473,-1.5 -0.014,-0.829 -0.698,-1.5 -1.526,-1.5 M 6.973,-13.598 C 6.925,-12.71 6.799,-11.833 6.594,-10.972 5.627,-6.893 2.3,6.768 0.76,8.348 c 0,0 -5.454,4.652 -10.989,4.652 0,0 -5.566,-1.861 -9.256,-1.861 -3.69,0 -9.192,1.861 -9.192,1.861 -5.534,0 -11.15,-4.652 -11.15,-4.652 -1.594,-1.58 -5.394,-15.241 -6.503,-19.32 -0.233,-0.861 -0.39,-1.738 -0.469,-2.626 -0.334,-3.765 -0.68,-13.402 4.516,-13.402 6.457,0 9.401,10.232 9.401,10.232 0,0 15.745,3.721 25.828,0 0,0 2.59,-10.232 9.047,-10.232 5.195,0 5.183,9.637 4.98,13.402"
             style="fill:#f2f2f2;fill-opacity:1;fill-rule:nonzero;stroke:none"
             id="path4419"
             inkscape:connector-curvature="0" /></g><g
           id="g4421"
           transform="translate(35.999,41)"><path
             d="m 0,0 c -0.038,-2.209 -1.86,-4 -4.069,-4 -2.209,0 -3.968,1.791 -3.93,4 0.039,2.209 1.861,4 4.07,4 C -1.721,4 0.039,2.209 0,0"
             style="fill:#f2f2f2;fill-opacity:1;fill-rule:nonzero;stroke:none"
             id="path4423"
             inkscape:connector-curvature="0" /></g></g></g></g></svg>