<?xml version="1.0" encoding="UTF-8" standalone="no"?>
<!-- Generator: Adobe Illustrator 16.0.0, SVG Export Plug-In . SVG Version: 6.00 Build 0)  -->

<svg
   xmlns:dc="http://purl.org/dc/elements/1.1/"
   xmlns:cc="http://creativecommons.org/ns#"
   xmlns:rdf="http://www.w3.org/1999/02/22-rdf-syntax-ns#"
   xmlns:svg="http://www.w3.org/2000/svg"
   xmlns="http://www.w3.org/2000/svg"
   xmlns:sodipodi="http://sodipodi.sourceforge.net/DTD/sodipodi-0.dtd"
   xmlns:inkscape="http://www.inkscape.org/namespaces/inkscape"
   version="1.1"
   id="svg2"
   inkscape:export-filename="/home/kivutar/Bureau/lakka-menu/reload.png"
   inkscape:export-xdpi="90"
   inkscape:version="0.48.4 r9939"
   inkscape:export-ydpi="90"
   sodipodi:docname="Microsoft - MSX2-content__.svg"
   x="0px"
   y="0px"
   width="64px"
   height="64px"
   viewBox="0 128 64 64"
   enable-background="new 0 128 64 64"
   xml:space="preserve"><metadata
     id="metadata8"><rdf:RDF><cc:Work
         rdf:about=""><dc:format>image/svg+xml</dc:format><dc:type
           rdf:resource="http://purl.org/dc/dcmitype/StillImage" /><dc:title></dc:title></cc:Work></rdf:RDF></metadata><defs
     id="defs6" /><sodipodi:namedview
     pagecolor="#ffffff"
     bordercolor="#666666"
     borderopacity="1"
     objecttolerance="10"
     gridtolerance="10"
     guidetolerance="10"
     inkscape:pageopacity="0"
     inkscape:pageshadow="2"
     inkscape:window-width="1600"
     inkscape:window-height="851"
     id="namedview4"
     showgrid="true"
     inkscape:zoom="7.375"
     inkscape:cx="23.370591"
     inkscape:cy="31.026467"
     inkscape:window-x="0"
     inkscape:window-y="25"
     inkscape:window-maximized="1"
     inkscape:current-layer="svg2"><inkscape:grid
       type="xygrid"
       id="grid3011" /></sodipodi:namedview><path
     id="Megadrive_3_"
     d="m 10,170 c -1.098612,0 -2,-0.91611 -2,-2 0,-1.08389 0.925358,-2 2,-2 1.074642,0 2,0.93734 2,2 0,1.06266 -0.901388,2 -2,2 z m 0,-22 c -0.584746,0 -1,-0.49058 -1,-1 0,-0.50942 0.40678,-1 1,-1 0.59322,0 1,0.50318 1,1 0,0.49682 -0.415254,1 -1,1 z m 3,-4 -5.5,0 C 6.597322,144 6,144.69902 6,145.5 l 0,31.5 52,0 0,-31.5 c 0,-0.86708 -0.596322,-1.5 -1.5,-1.5 l -1.5,0 0,28 c 0,0.925 -1.075,2 -2,2 l -38,0 c -0.925,0 -2,-1.075 -2,-2 z m 40,0 0,27 c 0,0.553 -0.447,1 -1,1 l -36,0 c -0.553,0 -1,-0.447 -1,-1 l 0,-27 z"
     inkscape:connector-curvature="0"
     style="fill:#f2f2f2"
     sodipodi:nodetypes="zzzzzzzzzzccsccsccssscccsssscc" /></svg>