<?xml version="1.0" encoding="UTF-8" standalone="no"?>
<!-- Created with Inkscape (http://www.inkscape.org/) -->

<svg
   xmlns:dc="http://purl.org/dc/elements/1.1/"
   xmlns:cc="http://creativecommons.org/ns#"
   xmlns:rdf="http://www.w3.org/1999/02/22-rdf-syntax-ns#"
   xmlns:svg="http://www.w3.org/2000/svg"
   xmlns="http://www.w3.org/2000/svg"
   xmlns:sodipodi="http://sodipodi.sourceforge.net/DTD/sodipodi-0.dtd"
   xmlns:inkscape="http://www.inkscape.org/namespaces/inkscape"
   id="svg4463"
   version="1.1"
   inkscape:version="0.48.5 r10040"
   width="64"
   height="64"
   xml:space="preserve"
   sodipodi:docname="Minecraft.svg"
   inkscape:export-filename="/Users/margetts/Desktop/Icon Workshop/Monochrome Plus June/png/Minecraft.png"
   inkscape:export-xdpi="360"
   inkscape:export-ydpi="360"><metadata
     id="metadata4469"><rdf:RDF><cc:Work
         rdf:about=""><dc:format>image/svg+xml</dc:format><dc:type
           rdf:resource="http://purl.org/dc/dcmitype/StillImage" /><dc:title></dc:title></cc:Work></rdf:RDF></metadata><defs
     id="defs4467"><clipPath
       clipPathUnits="userSpaceOnUse"
       id="clipPath4485"><path
         d="M 0,64 64,64 64,0 0,0 0,64 z"
         id="path4487"
         inkscape:connector-curvature="0" /></clipPath></defs><sodipodi:namedview
     pagecolor="#ffffff"
     bordercolor="#666666"
     borderopacity="1"
     objecttolerance="10"
     gridtolerance="10"
     guidetolerance="10"
     inkscape:pageopacity="0"
     inkscape:pageshadow="2"
     inkscape:window-width="1676"
     inkscape:window-height="1005"
     id="namedview4465"
     showgrid="false"
     inkscape:zoom="3.8"
     inkscape:cx="6.9736842"
     inkscape:cy="40"
     inkscape:window-x="4"
     inkscape:window-y="1"
     inkscape:window-maximized="1"
     inkscape:current-layer="g4471" /><g
     id="g4471"
     inkscape:groupmode="layer"
     inkscape:label="Minecraft"
     transform="matrix(1.25,0,0,-1.25,0,64)"><g
       id="g4493"
       transform="scale(0.8,0.8)"><g
         transform="translate(50,38)"
         id="g4473"><path
           id="path4475"
           style="fill:#f2f2f2;fill-opacity:1;fill-rule:nonzero;stroke:none"
           d="m 0,0 -2,-1 0,-2 -2,-1.071 0,3.071 -2,-1 0,-3 -2,-1 0,4 -2,-1 0,-3 -2,-1 0,2 -2,-1 0,-4 -2,-1 0,4.036 -1,-0.518 0,-19.9 18,9 L 1,3.5 0,3 0,0 z"
           inkscape:connector-curvature="0" /></g><g
         transform="translate(31,31.5)"
         id="g4477"><path
           id="path4479"
           style="fill:#f2f2f2;fill-opacity:1;fill-rule:nonzero;stroke:none"
           d="m 0,0 -1,0.5 0,-2 -2,1.036 0,1.964 -2,1 0,-2 -2,1 0,-4 -2,1 0,6 -2,1 0,-2 -2,1 0,4 -2,1 0,-4 -2,1 0,2 -1,0.5 0,-20.882 18,-9 L 0,0 z"
           inkscape:connector-curvature="0" /></g><g
         id="g4481"><g
           clip-path="url(#clipPath4485)"
           id="g4483"><g
             transform="translate(52,19)"
             id="g4489"><path
               id="path4491"
               style="fill:#f2f2f2;fill-opacity:1;fill-rule:nonzero;stroke:none"
               d="M 0,0 -20,-10 -40,0 -40,26 -20,36 0,26 0,0 z m -20,40 c -22.415,0 -27,-4.553 -27,-27 0,-22.447 4.514,-27 27,-27 22.489,0 27,4.544 27,27 0,22.458 -4.585,27 -27,27"
               inkscape:connector-curvature="0" /></g></g></g></g></g></svg>