<?xml version="1.0" encoding="UTF-8" standalone="no"?>
<!-- Created with Inkscape (http://www.inkscape.org/) -->

<svg
   xmlns:dc="http://purl.org/dc/elements/1.1/"
   xmlns:cc="http://creativecommons.org/ns#"
   xmlns:rdf="http://www.w3.org/1999/02/22-rdf-syntax-ns#"
   xmlns:svg="http://www.w3.org/2000/svg"
   xmlns="http://www.w3.org/2000/svg"
   xmlns:sodipodi="http://sodipodi.sourceforge.net/DTD/sodipodi-0.dtd"
   xmlns:inkscape="http://www.inkscape.org/namespaces/inkscape"
   id="svg4541"
   version="1.1"
   inkscape:version="0.48.5 r10040"
   width="64"
   height="64"
   xml:space="preserve"
   sodipodi:docname="Minecraft-content.svg"
   inkscape:export-filename="/Users/margetts/Desktop/Icon Workshop/Monochrome Plus June/png/Minecraft-content.png"
   inkscape:export-xdpi="360"
   inkscape:export-ydpi="360"><metadata
     id="metadata4547"><rdf:RDF><cc:Work
         rdf:about=""><dc:format>image/svg+xml</dc:format><dc:type
           rdf:resource="http://purl.org/dc/dcmitype/StillImage" /><dc:title></dc:title></cc:Work></rdf:RDF></metadata><defs
     id="defs4545" /><sodipodi:namedview
     pagecolor="#ffffff"
     bordercolor="#666666"
     borderopacity="1"
     objecttolerance="10"
     gridtolerance="10"
     guidetolerance="10"
     inkscape:pageopacity="0"
     inkscape:pageshadow="2"
     inkscape:window-width="1676"
     inkscape:window-height="1005"
     id="namedview4543"
     showgrid="false"
     inkscape:zoom="3.8"
     inkscape:cx="6.9736842"
     inkscape:cy="40"
     inkscape:window-x="4"
     inkscape:window-y="1"
     inkscape:window-maximized="1"
     inkscape:current-layer="g4549" /><g
     id="g4549"
     inkscape:groupmode="layer"
     inkscape:label="Minecraft-content"
     transform="matrix(1.25,0,0,-1.25,0,64)"><g
       id="g4551"
       transform="matrix(0.8,0,0,0.8,40.8,15.6944)"><path
         d="m 0,0 -18,-9 0,19.899 1,0.518 0,-4.035 2,1 0,4 2,1 0,-2 2,1 0,3 2,1 0,-4 2,1 0,3 2,1 0,-3.071 2,1.071 0,2 2,1 0,3 1,0.5 L 0,0 z m -38,20.882 1,-0.5 0,-2 2,-1 0,4 2,-1 0,-4 2,-1 0,2 2,-1 0,-6 2,-1 0,4 2,-1 0,2 2,-1 0,-1.965 2,-1.035 0,2 1,-0.5 0,-20.882 -18,9 0,20.882 z m 19,14.5 -20,-10 0,-26 20,-10 20,10 0,26 -20,10 z"
         style="fill:#f2f2f2;fill-opacity:1;fill-rule:nonzero;stroke:none"
         id="path4553"
         inkscape:connector-curvature="0" /></g></g></svg>