<?xml version="1.0" encoding="UTF-8" standalone="no"?>
<!-- Created with Inkscape (http://www.inkscape.org/) -->

<svg
   xmlns:dc="http://purl.org/dc/elements/1.1/"
   xmlns:cc="http://creativecommons.org/ns#"
   xmlns:rdf="http://www.w3.org/1999/02/22-rdf-syntax-ns#"
   xmlns:svg="http://www.w3.org/2000/svg"
   xmlns="http://www.w3.org/2000/svg"
   xmlns:sodipodi="http://sodipodi.sourceforge.net/DTD/sodipodi-0.dtd"
   xmlns:inkscape="http://www.inkscape.org/namespaces/inkscape"
   id="svg3853"
   version="1.1"
   inkscape:version="0.48.5 r10040"
   width="64"
   height="64"
   xml:space="preserve"
   sodipodi:docname="Mr. Boom-content.svg"
   inkscape:export-filename="/Users/margetts/Desktop/Icon Workshop/Monochrome Plus June/png/Mr. Boom-content.png"
   inkscape:export-xdpi="360"
   inkscape:export-ydpi="360"><metadata
     id="metadata3859"><rdf:RDF><cc:Work
         rdf:about=""><dc:format>image/svg+xml</dc:format><dc:type
           rdf:resource="http://purl.org/dc/dcmitype/StillImage" /><dc:title></dc:title></cc:Work></rdf:RDF></metadata><defs
     id="defs3857" /><sodipodi:namedview
     pagecolor="#ffffff"
     bordercolor="#666666"
     borderopacity="1"
     objecttolerance="10"
     gridtolerance="10"
     guidetolerance="10"
     inkscape:pageopacity="0"
     inkscape:pageshadow="2"
     inkscape:window-width="1676"
     inkscape:window-height="1005"
     id="namedview3855"
     showgrid="false"
     inkscape:zoom="10.4125"
     inkscape:cx="27.947179"
     inkscape:cy="40"
     inkscape:window-x="4"
     inkscape:window-y="1"
     inkscape:window-maximized="1"
     inkscape:current-layer="g3861" /><g
     id="g3861"
     inkscape:groupmode="layer"
     inkscape:label="Mr. Boom-content"
     transform="matrix(1.25,0,0,-1.25,0,64)"><g
       id="g3899"
       transform="scale(0.8,0.8)"><path
         id="path3863"
         style="fill:#f2f2f2;fill-opacity:1;fill-rule:nonzero;stroke:none"
         d="m 19,46 2,0 0,4 -2,0 0,-4 z"
         inkscape:connector-curvature="0" /><path
         id="path3865"
         style="fill:#f2f2f2;fill-opacity:1;fill-rule:nonzero;stroke:none"
         d="m 39,54 -12,0 0,-2 12,0 0,2 z"
         inkscape:connector-curvature="0" /><path
         id="path3867"
         style="fill:#f2f2f2;fill-opacity:1;fill-rule:nonzero;stroke:none"
         d="m 43,52 -4,0 0,-2 4,0 0,2 z"
         inkscape:connector-curvature="0" /><path
         id="path3869"
         style="fill:#f2f2f2;fill-opacity:1;fill-rule:nonzero;stroke:none"
         d="m 45,50 -2,0 0,-2 2,0 0,2 z"
         inkscape:connector-curvature="0" /><path
         id="path3871"
         style="fill:#f2f2f2;fill-opacity:1;fill-rule:nonzero;stroke:none"
         d="m 29,46 14,0 0,2 -14,0 0,-2 z"
         inkscape:connector-curvature="0" /><g
         transform="translate(23,46)"
         id="g3873"><path
           id="path3875"
           style="fill:#f2f2f2;fill-opacity:1;fill-rule:nonzero;stroke:none"
           d="M 0,0 2,0 2,4 4,4 4,6 -2,6 -2,4 0,4 0,0 z"
           inkscape:connector-curvature="0" /></g><g
         transform="translate(23,34)"
         id="g3877"><path
           id="path3879"
           style="fill:#f2f2f2;fill-opacity:1;fill-rule:nonzero;stroke:none"
           d="M 0,0 2,0 2,2 0,2 0,12 -2,12 -2,2 -4,2 -4,0 -2,0 0,0 z"
           inkscape:connector-curvature="0" /></g><path
         id="path3881"
         style="fill:#f2f2f2;fill-opacity:1;fill-rule:nonzero;stroke:none"
         d="m 25,38 2,0 0,6 -2,0 0,-6 z"
         inkscape:connector-curvature="0" /><path
         id="path3883"
         style="fill:#f2f2f2;fill-opacity:1;fill-rule:nonzero;stroke:none"
         d="m 29,46 -2,0 0,-2 2,0 0,2 z"
         inkscape:connector-curvature="0" /><path
         id="path3885"
         style="fill:#f2f2f2;fill-opacity:1;fill-rule:nonzero;stroke:none"
         d="m 27,36 2,0 0,2 -2,0 0,-2 z"
         inkscape:connector-curvature="0" /><path
         id="path3887"
         style="fill:#f2f2f2;fill-opacity:1;fill-rule:nonzero;stroke:none"
         d="m 33,44 -2,0 0,-6 2,0 0,6 z"
         inkscape:connector-curvature="0" /><path
         id="path3889"
         style="fill:#f2f2f2;fill-opacity:1;fill-rule:nonzero;stroke:none"
         d="m 41,44 -2,0 0,-6 2,0 0,6 z"
         inkscape:connector-curvature="0" /><g
         transform="translate(19,30)"
         id="g3891"><path
           id="path3893"
           style="fill:#f2f2f2;fill-opacity:1;fill-rule:nonzero;stroke:none"
           d="m 0,0 0,4 -2,0 0,-2 -2,0 0,-6 2,0 0,4 2,0 z"
           inkscape:connector-curvature="0" /></g><path
         id="path3895"
         style="fill:#f2f2f2;fill-opacity:1;fill-rule:nonzero;stroke:none"
         d="m 19,28 2,0 0,2 -2,0 0,-2 z"
         inkscape:connector-curvature="0" /><path
         id="path3897"
         style="fill:#f2f2f2;fill-opacity:1;fill-rule:nonzero;stroke:none"
         d="m 25,16 6,0 0,-2 -6,0 0,2 z m 20,16 -2,0 0,-4 -2,0 -2,0 0,4 4,0 0,2 2,0 0,-2 z m 2,0 0,16 -2,0 0,-2 -2,0 0,-2 2,0 0,-6 -2,0 0,-2 -14,0 0,-2 -2,0 -2,0 0,-2 0,-2 2,0 0,2 2,0 8,0 0,-6 1,0 1,0 0,-2 2,0 0,2 2,0 1,0 1,0 0,4 2,0 0,-6 -4,0 -2,0 0,-2 2,0 0,-2 -2,0 0,-2 -4,0 0,2 -2,0 0,2 -4,0 0,-4 -6,0 0,8 6,0 0,2 -6,0 0,2 -2,0 0,-2 -2,0 0,-2 -4,0 0,-2 4,0 0,-2 2,0 0,-4 -2,0 0,-2 -2,0 0,-2 2,0 0,-2 2,0 2,0 0,-2 18,0 0,2 4,0 0,2 2,0 0,2 -2,0 0,2 0,4 2,0 0,1 0,1 0,8 -2,0 z"
         inkscape:connector-curvature="0" /></g></g></svg>