<?xml version="1.0" encoding="UTF-8" standalone="no"?>
<!-- Created with Inkscape (http://www.inkscape.org/) -->

<svg
   xmlns:dc="http://purl.org/dc/elements/1.1/"
   xmlns:cc="http://creativecommons.org/ns#"
   xmlns:rdf="http://www.w3.org/1999/02/22-rdf-syntax-ns#"
   xmlns:svg="http://www.w3.org/2000/svg"
   xmlns="http://www.w3.org/2000/svg"
   xmlns:sodipodi="http://sodipodi.sourceforge.net/DTD/sodipodi-0.dtd"
   xmlns:inkscape="http://www.inkscape.org/namespaces/inkscape"
   id="svg3591"
   version="1.1"
   inkscape:version="0.48.5 r10040"
   width="64"
   height="64"
   xml:space="preserve"
   sodipodi:docname="Mr. Boom.svg"
   inkscape:export-filename="/Users/margetts/Desktop/Icon Workshop/Monochrome Plus June/src/Mr. Boom.png"
   inkscape:export-xdpi="360"
   inkscape:export-ydpi="360"><metadata
     id="metadata3597"><rdf:RDF><cc:Work
         rdf:about=""><dc:format>image/svg+xml</dc:format><dc:type
           rdf:resource="http://purl.org/dc/dcmitype/StillImage" /><dc:title></dc:title></cc:Work></rdf:RDF></metadata><defs
     id="defs3595"><clipPath
       clipPathUnits="userSpaceOnUse"
       id="clipPath3627"><path
         d="M 0,64 64,64 64,0 0,0 0,64 z"
         id="path3629"
         inkscape:connector-curvature="0" /></clipPath></defs><sodipodi:namedview
     pagecolor="#ffffff"
     bordercolor="#666666"
     borderopacity="1"
     objecttolerance="10"
     gridtolerance="10"
     guidetolerance="10"
     inkscape:pageopacity="0"
     inkscape:pageshadow="2"
     inkscape:window-width="1676"
     inkscape:window-height="1005"
     id="namedview3593"
     showgrid="false"
     inkscape:zoom="14.725499"
     inkscape:cx="32.588008"
     inkscape:cy="48.734055"
     inkscape:window-x="4"
     inkscape:window-y="1"
     inkscape:window-maximized="1"
     inkscape:current-layer="g3599" /><g
     id="g3599"
     inkscape:groupmode="layer"
     inkscape:label="Mr. Boom"
     transform="matrix(1.25,0,0,-1.25,0,64)"><g
       id="g3647"
       transform="scale(0.8,0.8)"><path
         id="path3601"
         style="fill:#f2f2f2;fill-opacity:1;fill-rule:nonzero;stroke:none"
         d="m 43,46 2,0 0,2 -2,0 0,-2 z"
         inkscape:connector-curvature="0" /><g
         transform="translate(25,50)"
         id="g3603"><path
           id="path3605"
           style="fill:#f2f2f2;fill-opacity:1;fill-rule:nonzero;stroke:none"
           d="m 0,0 0,-4 -2,0 0,-10 2,0 0,-2 2,0 2,0 0,2 -2,0 0,2 -2,0 0,6 2,0 0,2 2,0 0,2 14,0 0,2 -4,0 0,2 L 2,2 2,0 0,0 z"
           inkscape:connector-curvature="0" /></g><path
         id="path3607"
         style="fill:#f2f2f2;fill-opacity:1;fill-rule:nonzero;stroke:none"
         d="m 23,50 -2,0 0,-4 2,0 0,4 z"
         inkscape:connector-curvature="0" /><path
         id="path3609"
         style="fill:#f2f2f2;fill-opacity:1;fill-rule:nonzero;stroke:none"
         d="m 31,44 2,0 0,-6 -2,0 0,6 z m 8,0 2,0 0,-6 -2,0 0,6 z m -10,0 -2,0 0,-6 2,0 0,-2 14,0 0,2 2,0 0,6 -2,0 0,2 -14,0 0,-2 z"
         inkscape:connector-curvature="0" /><g
         transform="translate(47,24)"
         id="g3611"><path
           id="path3613"
           style="fill:#f2f2f2;fill-opacity:1;fill-rule:nonzero;stroke:none"
           d="m 0,0 0,6 -2,0 0,-4 -1,0 -1,0 -2,0 0,-2 2,0 4,0 z"
           inkscape:connector-curvature="0" /></g><g
         transform="translate(31,28)"
         id="g3615"><path
           id="path3617"
           style="fill:#f2f2f2;fill-opacity:1;fill-rule:nonzero;stroke:none"
           d="m 0,0 0,-2 -6,0 0,-8 6,0 0,4 4,0 0,-2 2,0 0,-2 4,0 0,2 2,0 0,2 -2,0 0,2 -2,0 0,2 -1,0 -1,0 0,6 -8,0 -2,0 0,-2 -2,0 0,-2 6,0 z"
           inkscape:connector-curvature="0" /></g><g
         transform="translate(21,30)"
         id="g3619"><path
           id="path3621"
           style="fill:#f2f2f2;fill-opacity:1;fill-rule:nonzero;stroke:none"
           d="M 0,0 0,-2 2,-2 2,0 4,0 4,2 4,4 2,4 0,4 -2,4 -2,0 0,0 z"
           inkscape:connector-curvature="0" /></g><g
         id="g3623"><g
           clip-path="url(#clipPath3627)"
           id="g3625"><g
             transform="translate(49,24)"
             id="g3631"><path
               id="path3633"
               style="fill:#f2f2f2;fill-opacity:1;fill-rule:nonzero;stroke:none"
               d="m 0,0 0,-1 0,-1 -2,0 0,-4 0,-2 2,0 0,-2 -2,0 0,-2 -4,0 0,-2 -18,0 0,2 -2,0 -2,0 0,2 -2,0 0,2 2,0 0,2 2,0 0,4 -2,0 0,2 -4,0 0,2 -2,0 0,6 2,0 0,2 2,0 0,2 2,0 0,10 -2,0 0,4 2,0 0,2 6,0 0,2 12,0 0,-2 4,0 0,-2 2,0 0,-2 2,0 0,-16 2,0 0,-8 z m -17,35 c -22.415,0 -27,-4.553 -27,-27 0,-22.447 4.514,-27 27,-27 22.489,0 27,4.544 27,27 0,22.458 -4.585,27 -27,27"
               inkscape:connector-curvature="0" /></g><g
             transform="translate(39,28)"
             id="g3635"><path
               id="path3637"
               style="fill:#f2f2f2;fill-opacity:1;fill-rule:nonzero;stroke:none"
               d="M 0,0 2,0 4,0 4,4 0,4 0,0 z"
               inkscape:connector-curvature="0" /></g><path
             id="path3639"
             style="fill:#f2f2f2;fill-opacity:1;fill-rule:nonzero;stroke:none"
             d="m 43,32 2,0 0,2 -2,0 0,-2 z"
             inkscape:connector-curvature="0" /><path
             id="path3641"
             style="fill:#f2f2f2;fill-opacity:1;fill-rule:nonzero;stroke:none"
             d="m 25,14 6,0 0,2 -6,0 0,-2 z"
             inkscape:connector-curvature="0" /><g
             transform="translate(21,28)"
             id="g3643"><path
               id="path3645"
               style="fill:#f2f2f2;fill-opacity:1;fill-rule:nonzero;stroke:none"
               d="m 0,0 -2,0 0,2 -2,0 0,-4 4,0 0,2 z"
               inkscape:connector-curvature="0" /></g></g></g></g></g></svg>