<?xml version="1.0" encoding="utf-8"?>
<!-- Generator: Adobe Illustrator 16.0.0, SVG Export Plug-In . SVG Version: 6.00 Build 0)  -->
<!DOCTYPE svg PUBLIC "-//W3C//DTD SVG 1.1//EN" "http://www.w3.org/Graphics/SVG/1.1/DTD/svg11.dtd">
<svg version="1.1"
	 id="svg2" inkscape:export-filename="/home/kivutar/Bureau/lakka-menu/reload.png" inkscape:export-xdpi="90" inkscape:version="0.48.4 r9939" inkscape:export-ydpi="90" sodipodi:docname="reload.svg" xmlns:svg="http://www.w3.org/2000/svg" xmlns:cc="http://creativecommons.org/ns#" xmlns:sodipodi="http://sodipodi.sourceforge.net/DTD/sodipodi-0.dtd" xmlns:rdf="http://www.w3.org/1999/02/22-rdf-syntax-ns#" xmlns:dc="http://purl.org/dc/elements/1.1/" xmlns:inkscape="http://www.inkscape.org/namespaces/inkscape"
	 xmlns="http://www.w3.org/2000/svg" xmlns:xlink="http://www.w3.org/1999/xlink" x="0px" y="0px" width="64px" height="64px"
	 viewBox="0 128 64 64" enable-background="new 0 128 64 64" xml:space="preserve">
<path id="PC_Engine_2_" fill="#F2F2F2" d="M47,134H17c-0.91,0-2,1.091-2,2v48c0,0.909,1.09,2,2,2h30c0.909,0,2-1.091,2-2v-48
	C49,135.091,47.909,134,47,134z M37,185H27v-2l5-1l5,1V185z M47,181H17v-26h30V181z M45,151c0,0.553-0.447,1-1,1H20
	c-0.553,0-1-0.447-1-1v-12c0-0.553,0.447-1,1-1h24c0.553,0,1,0.447,1,1V151z M45,179H19v-22h26V179z M47,153c0,0.553-0.447,1-1,1H18
	c-0.553,0-1-0.447-1-1v-16c0-0.553,0.447-1,1-1h28c0.553,0,1,0.447,1,1V153z"/>
</svg>
