<?xml version="1.0" encoding="UTF-8" standalone="no"?>
<!-- Created with Inkscape (http://www.inkscape.org/) -->

<svg
   xmlns:dc="http://purl.org/dc/elements/1.1/"
   xmlns:cc="http://creativecommons.org/ns#"
   xmlns:rdf="http://www.w3.org/1999/02/22-rdf-syntax-ns#"
   xmlns:svg="http://www.w3.org/2000/svg"
   xmlns="http://www.w3.org/2000/svg"
   xmlns:sodipodi="http://sodipodi.sourceforge.net/DTD/sodipodi-0.dtd"
   xmlns:inkscape="http://www.inkscape.org/namespaces/inkscape"
   id="svg5526"
   version="1.1"
   inkscape:version="0.48.5 r10040"
   width="64"
   height="64"
   xml:space="preserve"
   sodipodi:docname="NEC - PC-98-content.svg"
   inkscape:export-filename="/Users/margetts/Desktop/Icon Workshop/Monochrome July/NEC - PC-98-content.png"
   inkscape:export-xdpi="360"
   inkscape:export-ydpi="360"><metadata
     id="metadata5532"><rdf:RDF><cc:Work
         rdf:about=""><dc:format>image/svg+xml</dc:format><dc:type
           rdf:resource="http://purl.org/dc/dcmitype/StillImage" /><dc:title></dc:title></cc:Work></rdf:RDF></metadata><defs
     id="defs5530"><clipPath
       clipPathUnits="userSpaceOnUse"
       id="clipPath5540"><path
         d="M 0,256 256,256 256,0 0,0 0,256 z"
         id="path5542"
         inkscape:connector-curvature="0" /></clipPath></defs><sodipodi:namedview
     pagecolor="#ffffff"
     bordercolor="#666666"
     borderopacity="1"
     objecttolerance="10"
     gridtolerance="10"
     guidetolerance="10"
     inkscape:pageopacity="0"
     inkscape:pageshadow="2"
     inkscape:window-width="1676"
     inkscape:window-height="1005"
     id="namedview5528"
     showgrid="false"
     inkscape:zoom="2.609375"
     inkscape:cx="111.90419"
     inkscape:cy="160"
     inkscape:window-x="4"
     inkscape:window-y="1"
     inkscape:window-maximized="1"
     inkscape:current-layer="g5534" /><g
     id="g5534"
     inkscape:groupmode="layer"
     inkscape:label="NEC - PC-98-content"
     transform="matrix(1.25,0,0,-1.25,0,64)"><g
       id="g5536"
       transform="matrix(0.1862069,0,0,0.1862069,1.7655168,1.7655168)"><g
         id="g5538"
         clip-path="url(#clipPath5540)"><g
           id="g5544"
           transform="translate(128,104)"><path
             d="M 0,0 C -13.255,0 -24,10.745 -24,24 -24,37.255 -13.255,48 0,48 13.255,48 24,37.255 24,24 24,10.745 13.255,0 0,0 M 0,52 C -15.464,52 -28,39.464 -28,24 -28,8.536 -15.464,-4 0,-4 15.464,-4 28,8.536 28,24 28,39.464 15.464,52 0,52 m 104,28 c 0,-2.209 -1.791,-4 -4,-4 l -200,0 c -2.209,0 -4,1.791 -4,4 l 0,44 c 0,2.209 1.791,4 4,4 l 200,0 c 2.209,0 4,-1.791 4,-4 l 0,-44 z M 42,8 c -3.313,0 -6,2.687 -6,6 0,3.313 2.687,6 6,6 3.313,0 6,-2.687 6,-6 0,-3.313 -2.687,-6 -6,-6 M 0,-10 c -18.778,0 -34,15.223 -34,34 0,18.778 15.222,34 34,34 C 18.777,58 34,42.778 34,24 34,5.223 18.777,-10 0,-10 m 12,-62 c 0,-6.627 -5.373,-12 -12,-12 -6.627,0 -12,5.373 -12,12 l 0,36 c 0,6.627 5.373,12 12,12 6.627,0 12,-5.373 12,-12 l 0,-36 z m 104,160 0,52 -232,0 0,-228 c 0,-2.209 1.791,-4 4,-4 l 84,0 c 0,2.209 1.791,4 4,4 2.209,0 4,-1.791 4,-4 l 40,0 c 0,2.209 1.791,4 4,4 2.209,0 4,-1.791 4,-4 l 84,0 c 2.209,0 4,1.791 4,4 l 0,164 -8,0 0,12 8,0 z"
             style="fill:#f2f2f2;fill-opacity:1;fill-rule:nonzero;stroke:none"
             id="path5546"
             inkscape:connector-curvature="0" /></g></g></g></g></svg>