<?xml version="1.0" encoding="UTF-8" standalone="no"?>
<!-- Created with Inkscape (http://www.inkscape.org/) -->

<svg
   xmlns:dc="http://purl.org/dc/elements/1.1/"
   xmlns:cc="http://creativecommons.org/ns#"
   xmlns:rdf="http://www.w3.org/1999/02/22-rdf-syntax-ns#"
   xmlns:svg="http://www.w3.org/2000/svg"
   xmlns="http://www.w3.org/2000/svg"
   xmlns:sodipodi="http://sodipodi.sourceforge.net/DTD/sodipodi-0.dtd"
   xmlns:inkscape="http://www.inkscape.org/namespaces/inkscape"
   id="svg5399"
   version="1.1"
   inkscape:version="0.48.5 r10040"
   width="64"
   height="64"
   xml:space="preserve"
   sodipodi:docname="netplay - rooms.svg"
   inkscape:export-filename="/Users/margetts/Desktop/Icon Workshop/Monochrome Plus June/png/netplay - rooms.png"
   inkscape:export-xdpi="360"
   inkscape:export-ydpi="360"><metadata
     id="metadata5405"><rdf:RDF><cc:Work
         rdf:about=""><dc:format>image/svg+xml</dc:format><dc:type
           rdf:resource="http://purl.org/dc/dcmitype/StillImage" /><dc:title></dc:title></cc:Work></rdf:RDF></metadata><defs
     id="defs5403"><clipPath
       clipPathUnits="userSpaceOnUse"
       id="clipPath5413"><path
         d="M 0,64 64,64 64,0 0,0 0,64 z"
         id="path5415"
         inkscape:connector-curvature="0" /></clipPath></defs><sodipodi:namedview
     pagecolor="#ffffff"
     bordercolor="#666666"
     borderopacity="1"
     objecttolerance="10"
     gridtolerance="10"
     guidetolerance="10"
     inkscape:pageopacity="0"
     inkscape:pageshadow="2"
     inkscape:window-width="1676"
     inkscape:window-height="1005"
     id="namedview5401"
     showgrid="false"
     inkscape:zoom="3.8"
     inkscape:cx="6.9736842"
     inkscape:cy="40"
     inkscape:window-x="4"
     inkscape:window-y="1"
     inkscape:window-maximized="1"
     inkscape:current-layer="g5407" /><g
     id="g5407"
     inkscape:groupmode="layer"
     inkscape:label="netplay - rooms"
     transform="matrix(1.25,0,0,-1.25,0,64)"><g
       id="g5409"
       transform="scale(0.8,0.8)"><g
         id="g5411"
         clip-path="url(#clipPath5413)"><g
           id="g5417"
           transform="translate(32,59)"><path
             d="m 0,0 c -4.981,0 -6,-1.012 -6,-6 0,-4.988 1.003,-6 6,-6 4.997,0 6,1.01 6,6 0,4.991 -1.019,6 -6,6"
             style="fill:#f2f2f2;fill-opacity:1;fill-rule:nonzero;stroke:none"
             id="path5419"
             inkscape:connector-curvature="0" /></g><g
           id="g5421"
           transform="translate(11,49)"><path
             d="m 0,0 c -4.981,0 -6,-1.012 -6,-6 0,-4.988 1.003,-6 6,-6 4.998,0 6,1.01 6,6 0,4.991 -1.019,6 -6,6"
             style="fill:#f2f2f2;fill-opacity:1;fill-rule:nonzero;stroke:none"
             id="path5423"
             inkscape:connector-curvature="0" /></g><g
           id="g5425"
           transform="translate(11,27)"><path
             d="m 0,0 c -4.981,0 -6,-1.012 -6,-6 0,-4.988 1.003,-6 6,-6 4.998,0 6,1.01 6,6 0,4.99 -1.019,6 -6,6"
             style="fill:#f2f2f2;fill-opacity:1;fill-rule:nonzero;stroke:none"
             id="path5427"
             inkscape:connector-curvature="0" /></g><g
           id="g5429"
           transform="translate(53,49)"><path
             d="m 0,0 c -4.981,0 -6,-1.012 -6,-6 0,-4.988 1.003,-6 6,-6 4.997,0 6,1.01 6,6 0,4.991 -1.019,6 -6,6"
             style="fill:#f2f2f2;fill-opacity:1;fill-rule:nonzero;stroke:none"
             id="path5431"
             inkscape:connector-curvature="0" /></g><g
           id="g5433"
           transform="translate(53,27)"><path
             d="m 0,0 c -4.981,0 -6,-1.012 -6,-6 0,-4.988 1.003,-6 6,-6 4.997,0 6,1.01 6,6 0,4.99 -1.019,6 -6,6"
             style="fill:#f2f2f2;fill-opacity:1;fill-rule:nonzero;stroke:none"
             id="path5435"
             inkscape:connector-curvature="0" /></g><g
           id="g5437"
           transform="translate(32,17)"><path
             d="m 0,0 c -4.981,0 -6,-1.012 -6,-6 0,-4.988 1.003,-6 6,-6 4.997,0 6,1.01 6,6 0,4.99 -1.019,6 -6,6"
             style="fill:#f2f2f2;fill-opacity:1;fill-rule:nonzero;stroke:none"
             id="path5439"
             inkscape:connector-curvature="0" /></g><g
           id="g5441"
           transform="translate(40,30)"><path
             d="M 0,0 C 0,-0.884 -1.116,-1 -2,-1 L -5.287,-4.243 C -5.232,-4.351 -5.2,-4.471 -5.2,-4.6 -5.2,-5.043 -5.557,-5 -6,-5 l -1,0 -0.5,0 c -0.276,0 -0.5,0.224 -0.5,0.5 0,0.276 0.224,0.5 0.5,0.5 l 1.129,0 c 0.119,0.119 0.205,0.2 0.205,0.2 L -3,-1 -3,2.6 c 0,2.66 -2.34,4.9 -5,4.9 -2.661,0 -5,-2.24 -5,-4.9 l 0,-3.6 -1,0 c -0.884,0 -2,0.116 -2,1 l 0,2 c 0,0.884 0.716,1.4 1.6,1.4 l 0.055,0 C -13.948,6.549 -11.254,9 -8,9 -4.746,9 -2.052,6.549 -1.655,3.4 l 0.055,0 C -0.717,3.4 0,2.884 0,2 L 0,0 z m -8,12 c -8.302,0 -10,-1.687 -10,-10 0,-8.313 1.672,-10 10,-10 8.329,0 10,1.683 10,10 0,8.318 -1.698,10 -10,10"
             style="fill:#f2f2f2;fill-opacity:1;fill-rule:nonzero;stroke:none"
             id="path5443"
             inkscape:connector-curvature="0" /></g></g></g></g></svg>