<?xml version="1.0" encoding="UTF-8" standalone="no"?>
<!-- Created with Inkscape (http://www.inkscape.org/) -->

<svg
   xmlns:dc="http://purl.org/dc/elements/1.1/"
   xmlns:cc="http://creativecommons.org/ns#"
   xmlns:rdf="http://www.w3.org/1999/02/22-rdf-syntax-ns#"
   xmlns:svg="http://www.w3.org/2000/svg"
   xmlns="http://www.w3.org/2000/svg"
   xmlns:sodipodi="http://sodipodi.sourceforge.net/DTD/sodipodi-0.dtd"
   xmlns:inkscape="http://www.inkscape.org/namespaces/inkscape"
   id="svg5483"
   version="1.1"
   inkscape:version="0.48.5 r10040"
   width="64"
   height="64"
   xml:space="preserve"
   sodipodi:docname="netplay - rooms-locked.svg"
   inkscape:export-filename="/Users/margetts/Desktop/Icon Workshop/Monochrome Plus June/png/netplay - rooms-locked.png"
   inkscape:export-xdpi="360"
   inkscape:export-ydpi="360"><metadata
     id="metadata5489"><rdf:RDF><cc:Work
         rdf:about=""><dc:format>image/svg+xml</dc:format><dc:type
           rdf:resource="http://purl.org/dc/dcmitype/StillImage" /><dc:title></dc:title></cc:Work></rdf:RDF></metadata><defs
     id="defs5487"><clipPath
       clipPathUnits="userSpaceOnUse"
       id="clipPath5497"><path
         d="M 0,64 64,64 64,0 0,0 0,64 z"
         id="path5499"
         inkscape:connector-curvature="0" /></clipPath></defs><sodipodi:namedview
     pagecolor="#ffffff"
     bordercolor="#666666"
     borderopacity="1"
     objecttolerance="10"
     gridtolerance="10"
     guidetolerance="10"
     inkscape:pageopacity="0"
     inkscape:pageshadow="2"
     inkscape:window-width="1676"
     inkscape:window-height="1005"
     id="namedview5485"
     showgrid="false"
     inkscape:zoom="3.8"
     inkscape:cx="6.9736842"
     inkscape:cy="40"
     inkscape:window-x="4"
     inkscape:window-y="1"
     inkscape:window-maximized="1"
     inkscape:current-layer="g5491" /><g
     id="g5491"
     inkscape:groupmode="layer"
     inkscape:label="netplay - rooms-locked"
     transform="matrix(1.25,0,0,-1.25,0,64)"><g
       id="g5493"
       transform="scale(0.8,0.8)"><g
         id="g5495"
         clip-path="url(#clipPath5497)"><g
           id="g5501"
           transform="translate(32,59)"><path
             d="m 0,0 c -4.981,0 -6,-1.012 -6,-6 0,-4.988 1.003,-6 6,-6 4.997,0 6,1.01 6,6 0,4.991 -1.019,6 -6,6"
             style="fill:#f2f2f2;fill-opacity:1;fill-rule:nonzero;stroke:none"
             id="path5503"
             inkscape:connector-curvature="0" /></g><g
           id="g5505"
           transform="translate(11,49)"><path
             d="m 0,0 c -4.981,0 -6,-1.012 -6,-6 0,-4.988 1.003,-6 6,-6 4.998,0 6,1.01 6,6 0,4.991 -1.019,6 -6,6"
             style="fill:#f2f2f2;fill-opacity:1;fill-rule:nonzero;stroke:none"
             id="path5507"
             inkscape:connector-curvature="0" /></g><g
           id="g5509"
           transform="translate(11,27)"><path
             d="m 0,0 c -4.981,0 -6,-1.012 -6,-6 0,-4.988 1.003,-6 6,-6 4.998,0 6,1.01 6,6 0,4.99 -1.019,6 -6,6"
             style="fill:#f2f2f2;fill-opacity:1;fill-rule:nonzero;stroke:none"
             id="path5511"
             inkscape:connector-curvature="0" /></g><g
           id="g5513"
           transform="translate(53,49)"><path
             d="m 0,0 c -4.981,0 -6,-1.012 -6,-6 0,-4.988 1.003,-6 6,-6 4.997,0 6,1.01 6,6 0,4.991 -1.019,6 -6,6"
             style="fill:#f2f2f2;fill-opacity:1;fill-rule:nonzero;stroke:none"
             id="path5515"
             inkscape:connector-curvature="0" /></g><g
           id="g5517"
           transform="translate(53,27)"><path
             d="m 0,0 c -4.981,0 -6,-1.012 -6,-6 0,-4.988 1.003,-6 6,-6 4.997,0 6,1.01 6,6 0,4.99 -1.019,6 -6,6"
             style="fill:#f2f2f2;fill-opacity:1;fill-rule:nonzero;stroke:none"
             id="path5519"
             inkscape:connector-curvature="0" /></g><g
           id="g5521"
           transform="translate(32,17)"><path
             d="m 0,0 c -4.981,0 -6,-1.012 -6,-6 0,-4.988 1.003,-6 6,-6 4.997,0 6,1.01 6,6 0,4.99 -1.019,6 -6,6"
             style="fill:#f2f2f2;fill-opacity:1;fill-rule:nonzero;stroke:none"
             id="path5523"
             inkscape:connector-curvature="0" /></g><g
           id="g5525"
           transform="translate(39,25)"><path
             d="m 0,0 c 0,-0.553 -0.447,-1 -1,-1 l -12,0 c -0.552,0 -1,0.447 -1,1 l 0,7 c 0,0.552 0.448,1 1,1 l 1,0 0,3 c 0,2.757 2.243,5 5,5 2.757,0 5,-2.243 5,-5 l 0,-3 1,0 C -0.447,8 0,7.552 0,7 L 0,0 z m -7,17 c -8.302,0 -10,-1.687 -10,-10 0,-8.313 1.672,-10 10,-10 8.329,0 10,1.683 10,10 0,8.318 -1.698,10 -10,10"
             style="fill:#f2f2f2;fill-opacity:1;fill-rule:nonzero;stroke:none"
             id="path5527"
             inkscape:connector-curvature="0" /></g><g
           id="g5529"
           transform="translate(32,39)"><path
             d="m 0,0 c -1.657,0 -3,-1.343 -3,-3 l 0,-3 6,0 0,3 C 3,-1.343 1.657,0 0,0"
             style="fill:#f2f2f2;fill-opacity:1;fill-rule:nonzero;stroke:none"
             id="path5531"
             inkscape:connector-curvature="0" /></g><g
           id="g5533"
           transform="translate(36,27.501)"><path
             d="M 0,0 C 0,-0.442 -0.559,-0.5 -1,-0.5 L -2.644,-2.122 C -2.616,-2.176 -2.6,-2.235 -2.6,-2.301 -2.6,-2.522 -2.778,-2.5 -3,-2.5 l -0.5,0 -0.25,0 C -3.888,-2.5 -4,-2.389 -4,-2.25 -4,-2.112 -3.888,-2 -3.75,-2 l 0.564,0 c 0.06,0.059 0.103,0.1 0.103,0.1 l 1.583,1.4 0,1.8 c 0,1.33 -1.17,2.45 -2.5,2.45 -1.33,0 -2.5,-1.12 -2.5,-2.45 l 0,-1.8 -0.5,0 c -0.442,0 -1,0.058 -1,0.5 l 0,1 c 0,0.441 0.358,0.699 0.8,0.699 l 0.028,0 C -6.974,3.274 -5.627,4.5 -4,4.5 c 1.627,0 2.974,-1.226 3.172,-2.801 l 0.028,0 C -0.358,1.699 0,1.441 0,1 L 0,0 z"
             style="fill:#f2f2f2;fill-opacity:1;fill-rule:nonzero;stroke:none"
             id="path5535"
             inkscape:connector-curvature="0" /></g></g></g></g></svg>