<?xml version="1.0" encoding="UTF-8" standalone="no"?>
<!-- Created with Inkscape (http://www.inkscape.org/) -->

<svg
   xmlns:dc="http://purl.org/dc/elements/1.1/"
   xmlns:cc="http://creativecommons.org/ns#"
   xmlns:rdf="http://www.w3.org/1999/02/22-rdf-syntax-ns#"
   xmlns:svg="http://www.w3.org/2000/svg"
   xmlns="http://www.w3.org/2000/svg"
   xmlns:sodipodi="http://sodipodi.sourceforge.net/DTD/sodipodi-0.dtd"
   xmlns:inkscape="http://www.inkscape.org/namespaces/inkscape"
   id="svg5311"
   version="1.1"
   inkscape:version="0.48.5 r10040"
   width="64"
   height="64"
   xml:space="preserve"
   sodipodi:docname="netplay - iRoom-locked.svg"
   inkscape:export-filename="/Users/margetts/Desktop/Icon Workshop/Monochrome Plus June/png/netplay - iRoom-locked.png"
   inkscape:export-xdpi="360"
   inkscape:export-ydpi="360"><metadata
     id="metadata5317"><rdf:RDF><cc:Work
         rdf:about=""><dc:format>image/svg+xml</dc:format><dc:type
           rdf:resource="http://purl.org/dc/dcmitype/StillImage" /><dc:title></dc:title></cc:Work></rdf:RDF></metadata><defs
     id="defs5315"><clipPath
       clipPathUnits="userSpaceOnUse"
       id="clipPath5325"><path
         d="M 0,64 64,64 64,0 0,0 0,64 z"
         id="path5327"
         inkscape:connector-curvature="0" /></clipPath></defs><sodipodi:namedview
     pagecolor="#ffffff"
     bordercolor="#666666"
     borderopacity="1"
     objecttolerance="10"
     gridtolerance="10"
     guidetolerance="10"
     inkscape:pageopacity="0"
     inkscape:pageshadow="2"
     inkscape:window-width="1676"
     inkscape:window-height="1005"
     id="namedview5313"
     showgrid="false"
     inkscape:zoom="3.8"
     inkscape:cx="6.9736842"
     inkscape:cy="40"
     inkscape:window-x="4"
     inkscape:window-y="1"
     inkscape:window-maximized="1"
     inkscape:current-layer="g5319" /><g
     id="g5319"
     inkscape:groupmode="layer"
     inkscape:label="netplay - iRoom-locked"
     transform="matrix(1.25,0,0,-1.25,0,64)"><g
       id="g5321"
       transform="scale(0.8,0.8)"><g
         id="g5323"
         clip-path="url(#clipPath5325)"><g
           id="g5329"
           transform="translate(17,43)"><path
             d="m 0,0 c 0,-3.313 -2.687,-6 -6,-6 -3.313,0 -6,2.687 -6,6 0,3.313 2.687,6 6,6 3.313,0 6,-2.687 6,-6"
             style="fill:#f2f2f2;fill-opacity:1;fill-rule:nonzero;stroke:none"
             id="path5331"
             inkscape:connector-curvature="0" /></g><g
           id="g5333"
           transform="translate(17,21)"><path
             d="m 0,0 c 0,-3.313 -2.687,-6 -6,-6 -3.313,0 -6,2.687 -6,6 0,3.313 2.687,6 6,6 3.313,0 6,-2.687 6,-6"
             style="fill:#f2f2f2;fill-opacity:1;fill-rule:nonzero;stroke:none"
             id="path5335"
             inkscape:connector-curvature="0" /></g><g
           id="g5337"
           transform="translate(59,43)"><path
             d="m 0,0 c 0,-3.313 -2.687,-6 -6,-6 -3.313,0 -6,2.687 -6,6 0,3.313 2.687,6 6,6 3.313,0 6,-2.687 6,-6"
             style="fill:#f2f2f2;fill-opacity:1;fill-rule:nonzero;stroke:none"
             id="path5339"
             inkscape:connector-curvature="0" /></g><g
           id="g5341"
           transform="translate(59,21)"><path
             d="m 0,0 c 0,-3.313 -2.687,-6 -6,-6 -3.313,0 -6,2.687 -6,6 0,3.313 2.687,6 6,6 3.313,0 6,-2.687 6,-6"
             style="fill:#f2f2f2;fill-opacity:1;fill-rule:nonzero;stroke:none"
             id="path5343"
             inkscape:connector-curvature="0" /></g><g
           id="g5345"
           transform="translate(38,11)"><path
             d="m 0,0 c 0,-3.313 -2.687,-6 -6,-6 -3.313,0 -6,2.687 -6,6 0,3.313 2.687,6 6,6 3.313,0 6,-2.687 6,-6"
             style="fill:#f2f2f2;fill-opacity:1;fill-rule:nonzero;stroke:none"
             id="path5347"
             inkscape:connector-curvature="0" /></g><g
           id="g5349"
           transform="translate(38,53)"><path
             d="m 0,0 c 0,-3.313 -2.687,-6 -6,-6 -3.313,0 -6,2.687 -6,6 0,3.313 2.687,6 6,6 3.313,0 6,-2.687 6,-6"
             style="fill:#f2f2f2;fill-opacity:1;fill-rule:nonzero;stroke:none"
             id="path5351"
             inkscape:connector-curvature="0" /></g><g
           id="g5353"
           transform="translate(30,34)"><path
             d="M 0,0 C 0,1.104 0.896,2 2,2 3.104,2 4,1.104 4,0 L 4,-1 0,-1 0,0 z M 5.5,-1 5,-1 5,0 C 5,1.654 3.654,3 2,3 0.346,3 -1,1.654 -1,0 l 0,-1 -0.5,0 C -1.776,-1 -2,-1.224 -2,-1.5 l 0,-4 C -2,-5.776 -1.776,-6 -1.5,-6 l 7,0 C 5.776,-6 6,-5.776 6,-5.5 l 0,4 C 6,-1.224 5.776,-1 5.5,-1"
             style="fill:#f2f2f2;fill-opacity:1;fill-rule:nonzero;stroke:none"
             id="path5355"
             inkscape:connector-curvature="0" /></g><g
           id="g5357"
           transform="translate(39.3008,26.8242)"><path
             d="m 0,0 c -0.748,0.499 -1.535,0.915 -2.347,1.245 0.352,1.104 0.552,2.248 0.596,3.4 l 3.382,0 C 1.531,2.923 0.941,1.328 0,0 m -5.131,-3.519 c 1.049,1.127 1.858,2.409 2.422,3.774 0.708,-0.29 1.394,-0.651 2.048,-1.08 -1.172,-1.3 -2.719,-2.255 -4.47,-2.694 m -1.643,-0.127 0,3.822 -1.053,0 0,-3.822 c -0.445,0.389 -0.863,0.814 -1.243,1.264 -0.671,0.795 -1.209,1.657 -1.632,2.558 l -0.099,0 c -0.827,0 -1.5,0.673 -1.5,1.5 l 0,4 c 0,0.509 0.259,0.953 0.648,1.224 0.095,0.62 0.223,1.234 0.417,1.832 0.077,-0.024 0.156,-0.033 0.233,-0.056 0.14,0.344 0.334,0.656 0.559,0.944 -0.139,0.038 -0.283,0.058 -0.421,0.101 0.666,1.556 1.682,2.989 3.038,4.172 l 0,-2.77 c 0.174,0.023 0.346,0.053 0.526,0.053 0.18,0 0.353,-0.03 0.527,-0.053 l 0,2.769 c 0.445,-0.389 0.863,-0.813 1.243,-1.264 0.758,-0.898 1.355,-1.878 1.797,-2.906 -0.14,-0.043 -0.284,-0.064 -0.424,-0.102 0.225,-0.288 0.42,-0.6 0.559,-0.943 0.078,0.022 0.159,0.032 0.236,0.056 0.195,-0.601 0.323,-1.215 0.418,-1.834 0.386,-0.272 0.644,-0.715 0.644,-1.223 l 0,-4 c 0,-0.827 -0.673,-1.5 -1.5,-1.5 l -0.111,0 c -0.665,-1.419 -1.611,-2.73 -2.862,-3.822 m -7.166,2.821 c 0.653,0.429 1.338,0.789 2.044,1.079 0.487,-1.174 1.16,-2.294 2.022,-3.316 0.131,-0.155 0.266,-0.307 0.405,-0.457 -1.75,0.438 -3.298,1.393 -4.471,2.694 M -14.602,0 c -0.941,1.327 -1.53,2.921 -1.631,4.645 l 3.382,0 c 0.042,-1.147 0.239,-2.292 0.593,-3.401 C -13.069,0.914 -13.854,0.499 -14.602,0 m 0,10.344 c 0.756,-0.505 1.553,-0.924 2.375,-1.257 -0.359,-1.098 -0.566,-2.239 -0.619,-3.388 l -3.387,0 c 0.1,1.722 0.69,3.317 1.631,4.645 m 5.25,3.548 c -1.085,-1.134 -1.922,-2.431 -2.506,-3.817 -0.72,0.293 -1.417,0.657 -2.082,1.094 1.198,1.329 2.789,2.299 4.588,2.723 m 8.685,-2.726 c -0.663,-0.436 -1.357,-0.798 -2.074,-1.09 -0.484,1.144 -1.145,2.235 -1.986,3.232 -0.168,0.199 -0.342,0.393 -0.522,0.582 1.793,-0.426 3.382,-1.396 4.582,-2.724 M -0.006,10.34 C 0.937,9.012 1.53,7.418 1.631,5.699 l -3.386,0 c -0.051,1.144 -0.255,2.286 -0.616,3.39 0.818,0.331 1.612,0.748 2.365,1.251 M 1.675,9.568 1.158,10.487 c -1.643,2.606 -4.453,4.409 -7.68,4.662 l -1.053,0.027 c -3.451,-0.094 -6.466,-1.944 -8.191,-4.685 l -0.514,-0.92 c -0.659,-1.343 -1.029,-2.854 -1.021,-4.45 0.009,-1.602 0.397,-3.115 1.075,-4.456 l 0.525,-0.913 c 1.694,-2.622 4.576,-4.404 7.874,-4.576 l 1.053,0 c 3.388,0.178 6.331,2.05 8.003,4.78 L 1.733,0.881 C 2.359,2.197 2.707,3.671 2.699,5.224 2.691,6.779 2.322,8.254 1.675,9.568"
             style="fill:#f2f2f2;fill-opacity:1;fill-rule:nonzero;stroke:none"
             id="path5359"
             inkscape:connector-curvature="0" /></g></g></g></g></svg>