<?xml version="1.0" encoding="UTF-8" standalone="no"?>
<!-- Created with Inkscape (http://www.inkscape.org/) -->

<svg
   xmlns:dc="http://purl.org/dc/elements/1.1/"
   xmlns:cc="http://creativecommons.org/ns#"
   xmlns:rdf="http://www.w3.org/1999/02/22-rdf-syntax-ns#"
   xmlns:svg="http://www.w3.org/2000/svg"
   xmlns="http://www.w3.org/2000/svg"
   xmlns:sodipodi="http://sodipodi.sourceforge.net/DTD/sodipodi-0.dtd"
   xmlns:inkscape="http://www.inkscape.org/namespaces/inkscape"
   id="svg5019"
   version="1.1"
   inkscape:version="0.48.5 r10040"
   width="64"
   height="64"
   xml:space="preserve"
   sodipodi:docname="netplay - LAN Room.svg"
   inkscape:export-filename="/Users/margetts/Desktop/Icon Workshop/Monochrome Plus June/png/netplay - LAN Room.png"
   inkscape:export-xdpi="360"
   inkscape:export-ydpi="360"><metadata
     id="metadata5025"><rdf:RDF><cc:Work
         rdf:about=""><dc:format>image/svg+xml</dc:format><dc:type
           rdf:resource="http://purl.org/dc/dcmitype/StillImage" /><dc:title></dc:title></cc:Work></rdf:RDF></metadata><defs
     id="defs5023"><clipPath
       clipPathUnits="userSpaceOnUse"
       id="clipPath5033"><path
         d="M 0,64 64,64 64,0 0,0 0,64 z"
         id="path5035"
         inkscape:connector-curvature="0" /></clipPath></defs><sodipodi:namedview
     pagecolor="#ffffff"
     bordercolor="#666666"
     borderopacity="1"
     objecttolerance="10"
     gridtolerance="10"
     guidetolerance="10"
     inkscape:pageopacity="0"
     inkscape:pageshadow="2"
     inkscape:window-width="1676"
     inkscape:window-height="1005"
     id="namedview5021"
     showgrid="false"
     inkscape:zoom="3.8"
     inkscape:cx="6.9736842"
     inkscape:cy="40"
     inkscape:window-x="4"
     inkscape:window-y="1"
     inkscape:window-maximized="1"
     inkscape:current-layer="g5027" /><g
     id="g5027"
     inkscape:groupmode="layer"
     inkscape:label="netplay - LAN Room"
     transform="matrix(1.25,0,0,-1.25,0,64)"><g
       id="g5029"
       transform="matrix(0.79999072,0,0,0.79999999,2.4689231e-4,-9.9680254e-5)"><g
         id="g5031"
         clip-path="url(#clipPath5033)"><g
           id="g5037"
           transform="translate(36.3135,56.314)"><path
             d="m 0,0 c -3.58,3.579 -5.039,3.584 -8.623,0 -3.584,-3.584 -3.59,-5.032 0,-8.623 3.591,-3.591 5.037,-3.585 8.623,0 C 3.586,-5.037 3.579,-3.58 0,0"
             style="fill:#f2f2f2;fill-opacity:1;fill-rule:nonzero;stroke:none"
             id="path5039"
             inkscape:connector-curvature="0" /></g><g
           id="g5041"
           transform="translate(16.313,48.314)"><path
             d="m 0,0 c -3.579,3.579 -5.038,3.584 -8.623,0 -3.584,-3.584 -3.59,-5.032 0,-8.623 3.591,-3.591 5.038,-3.585 8.623,0 C 3.586,-5.037 3.579,-3.58 0,0"
             style="fill:#f2f2f2;fill-opacity:1;fill-rule:nonzero;stroke:none"
             id="path5043"
             inkscape:connector-curvature="0" /></g><g
           id="g5045"
           transform="translate(16.313,25.3135)"><path
             d="m 0,0 c -3.579,3.579 -5.038,3.585 -8.623,0 -3.584,-3.584 -3.59,-5.032 0,-8.622 3.591,-3.591 5.038,-3.586 8.623,0 3.586,3.586 3.579,5.043 0,8.622"
             style="fill:#f2f2f2;fill-opacity:1;fill-rule:nonzero;stroke:none"
             id="path5047"
             inkscape:connector-curvature="0" /></g><g
           id="g5049"
           transform="translate(46.6865,47.311)"><path
             d="m 0,0 c -3.579,-3.579 -3.585,-5.038 0,-8.622 3.584,-3.585 5.032,-3.591 8.622,0 3.591,3.591 3.586,5.037 0,8.622 C 5.036,3.586 3.579,3.58 0,0"
             style="fill:#f2f2f2;fill-opacity:1;fill-rule:nonzero;stroke:none"
             id="path5051"
             inkscape:connector-curvature="0" /></g><g
           id="g5053"
           transform="translate(56.3135,25.3115)"><path
             d="m 0,0 c -3.579,3.579 -5.039,3.584 -8.623,0 -3.584,-3.585 -3.591,-5.032 0,-8.623 3.591,-3.591 5.037,-3.585 8.623,0 3.586,3.586 3.579,5.044 0,8.623"
             style="fill:#f2f2f2;fill-opacity:1;fill-rule:nonzero;stroke:none"
             id="path5055"
             inkscape:connector-curvature="0" /></g><g
           id="g5057"
           transform="translate(36.3135,16.3135)"><path
             d="m 0,0 c -3.58,3.579 -5.039,3.585 -8.623,0 -3.584,-3.584 -3.59,-5.032 0,-8.622 3.591,-3.591 5.037,-3.586 8.623,0 3.586,3.586 3.579,5.043 0,8.622"
             style="fill:#f2f2f2;fill-opacity:1;fill-rule:nonzero;stroke:none"
             id="path5059"
             inkscape:connector-curvature="0" /></g><g
           id="g5061"
           transform="translate(37.9063,37.0718)"><path
             d="m 0,0 -0.649,-0.681 c -1.347,1.423 -3.209,2.306 -5.264,2.306 -2.048,0 -3.906,-0.878 -5.252,-2.295 l -0.648,0.683 c -0.127,0.133 -0.124,0.348 0.007,0.477 1.548,1.512 3.62,2.438 5.893,2.438 2.28,0 4.357,-0.931 5.907,-2.451 C 0.125,0.348 0.127,0.133 0,0 m -2.906,-12.072 0,1.5 1.5,1.5 -1.5,1.5 0,1.5 3,-3 -3,-3 z m -0.75,2.25 c -0.414,0 -0.75,0.336 -0.75,0.75 0,0.414 0.336,0.75 0.75,0.75 0.414,0 0.75,-0.336 0.75,-0.75 0,-0.414 -0.336,-0.75 -0.75,-0.75 m -2.048,3.842 c -0.116,-0.122 -0.301,-0.122 -0.417,0 l -0.61,0.642 c -0.032,0.034 -0.029,0.091 0.005,0.123 0.218,0.199 0.502,0.319 0.813,0.319 0.312,0 0.598,-0.121 0.815,-0.321 0.035,-0.032 0.038,-0.089 0.005,-0.123 l -0.611,-0.64 z m -0.202,-3.842 c -0.414,0 -0.75,0.336 -0.75,0.75 0,0.414 0.336,0.75 0.75,0.75 0.414,0 0.75,-0.336 0.75,-0.75 0,-0.414 -0.336,-0.75 -0.75,-0.75 m -2.25,0 c -0.414,0 -0.75,0.336 -0.75,0.75 0,0.414 0.336,0.75 0.75,0.75 0.414,0 0.75,-0.336 0.75,-0.75 0,-0.414 -0.336,-0.75 -0.75,-0.75 m 4.762,6.264 -0.764,-0.802 c -0.449,0.474 -1.07,0.769 -1.755,0.769 -0.683,0 -1.302,-0.293 -1.75,-0.765 l -0.764,0.804 c -0.062,0.066 -0.059,0.174 0.007,0.237 0.661,0.638 1.542,1.027 2.507,1.027 0.969,0 1.851,-0.392 2.514,-1.033 0.065,-0.063 0.069,-0.171 0.005,-0.237 m -2.519,2.575 c -1.365,0 -2.604,-0.585 -3.501,-1.53 l -0.647,0.681 c -0.125,0.132 -0.123,0.353 0.009,0.478 1.097,1.04 2.55,1.674 4.139,1.674 1.595,0 3.051,-0.638 4.149,-1.684 0.134,-0.127 0.136,-0.343 0.008,-0.477 l -0.648,-0.68 c -0.898,0.949 -2.139,1.538 -3.509,1.538 m -2.993,-11.089 -3,3 3,3 0,-1.5 -1.5,-1.5 1.5,-1.5 0,-1.5 z m 3,17 c -8.302,0 -10,-1.686 -10,-10 0,-8.313 1.672,-10 10,-10 8.329,0 10,1.683 10,10 0,8.318 -1.698,10 -10,10"
             style="fill:#f2f2f2;fill-opacity:1;fill-rule:nonzero;stroke:none"
             id="path5063"
             inkscape:connector-curvature="0" /></g></g></g></g></svg>