<?xml version="1.0" encoding="UTF-8" standalone="no"?>
<!-- Created with Inkscape (http://www.inkscape.org/) -->

<svg
   xmlns:dc="http://purl.org/dc/elements/1.1/"
   xmlns:cc="http://creativecommons.org/ns#"
   xmlns:rdf="http://www.w3.org/1999/02/22-rdf-syntax-ns#"
   xmlns:svg="http://www.w3.org/2000/svg"
   xmlns="http://www.w3.org/2000/svg"
   xmlns:sodipodi="http://sodipodi.sourceforge.net/DTD/sodipodi-0.dtd"
   xmlns:inkscape="http://www.inkscape.org/namespaces/inkscape"
   id="svg5103"
   version="1.1"
   inkscape:version="0.48.5 r10040"
   width="64"
   height="64"
   xml:space="preserve"
   sodipodi:docname="netplay - LAN Room-locked.svg"
   inkscape:export-filename="/Users/margetts/Desktop/Icon Workshop/Monochrome Plus June/png/netplay - LAN Room-locked.png"
   inkscape:export-xdpi="360"
   inkscape:export-ydpi="360"><metadata
     id="metadata5109"><rdf:RDF><cc:Work
         rdf:about=""><dc:format>image/svg+xml</dc:format><dc:type
           rdf:resource="http://purl.org/dc/dcmitype/StillImage" /><dc:title></dc:title></cc:Work></rdf:RDF></metadata><defs
     id="defs5107"><clipPath
       clipPathUnits="userSpaceOnUse"
       id="clipPath5117"><path
         d="M 0,64 64,64 64,0 0,0 0,64 z"
         id="path5119"
         inkscape:connector-curvature="0" /></clipPath></defs><sodipodi:namedview
     pagecolor="#ffffff"
     bordercolor="#666666"
     borderopacity="1"
     objecttolerance="10"
     gridtolerance="10"
     guidetolerance="10"
     inkscape:pageopacity="0"
     inkscape:pageshadow="2"
     inkscape:window-width="1676"
     inkscape:window-height="1005"
     id="namedview5105"
     showgrid="false"
     inkscape:zoom="3.8"
     inkscape:cx="6.9736842"
     inkscape:cy="40"
     inkscape:window-x="4"
     inkscape:window-y="1"
     inkscape:window-maximized="1"
     inkscape:current-layer="g5111" /><g
     id="g5111"
     inkscape:groupmode="layer"
     inkscape:label="netplay - LAN Room-locked"
     transform="matrix(1.25,0,0,-1.25,0,64)"><g
       id="g5113"
       transform="matrix(0.79999072,0,0,0.79999999,2.4689231e-4,-9.9680254e-5)"><g
         id="g5115"
         clip-path="url(#clipPath5117)"><g
           id="g5121"
           transform="translate(36.3135,56.314)"><path
             d="m 0,0 c -3.58,3.579 -5.039,3.584 -8.623,0 -3.584,-3.584 -3.59,-5.032 0,-8.623 3.591,-3.591 5.037,-3.585 8.623,0 C 3.586,-5.037 3.579,-3.58 0,0"
             style="fill:#f2f2f2;fill-opacity:1;fill-rule:nonzero;stroke:none"
             id="path5123"
             inkscape:connector-curvature="0" /></g><g
           id="g5125"
           transform="translate(16.313,48.314)"><path
             d="m 0,0 c -3.579,3.579 -5.038,3.584 -8.623,0 -3.584,-3.584 -3.59,-5.032 0,-8.623 3.591,-3.591 5.038,-3.585 8.623,0 C 3.586,-5.037 3.579,-3.58 0,0"
             style="fill:#f2f2f2;fill-opacity:1;fill-rule:nonzero;stroke:none"
             id="path5127"
             inkscape:connector-curvature="0" /></g><g
           id="g5129"
           transform="translate(16.313,25.3135)"><path
             d="m 0,0 c -3.579,3.579 -5.038,3.585 -8.623,0 -3.584,-3.584 -3.59,-5.032 0,-8.622 3.591,-3.591 5.038,-3.586 8.623,0 3.586,3.586 3.579,5.043 0,8.622"
             style="fill:#f2f2f2;fill-opacity:1;fill-rule:nonzero;stroke:none"
             id="path5131"
             inkscape:connector-curvature="0" /></g><g
           id="g5133"
           transform="translate(46.6865,47.311)"><path
             d="m 0,0 c -3.579,-3.579 -3.585,-5.038 0,-8.622 3.584,-3.585 5.032,-3.591 8.622,0 3.591,3.591 3.586,5.037 0,8.622 C 5.036,3.586 3.579,3.58 0,0"
             style="fill:#f2f2f2;fill-opacity:1;fill-rule:nonzero;stroke:none"
             id="path5135"
             inkscape:connector-curvature="0" /></g><g
           id="g5137"
           transform="translate(56.3135,25.3115)"><path
             d="m 0,0 c -3.579,3.579 -5.039,3.584 -8.623,0 -3.584,-3.585 -3.591,-5.032 0,-8.623 3.591,-3.591 5.037,-3.585 8.623,0 3.586,3.586 3.579,5.044 0,8.623"
             style="fill:#f2f2f2;fill-opacity:1;fill-rule:nonzero;stroke:none"
             id="path5139"
             inkscape:connector-curvature="0" /></g><g
           id="g5141"
           transform="translate(36.3135,16.3135)"><path
             d="m 0,0 c -3.58,3.579 -5.039,3.585 -8.623,0 -3.584,-3.584 -3.59,-5.032 0,-8.622 3.591,-3.591 5.037,-3.586 8.623,0 3.586,3.586 3.579,5.043 0,8.622"
             style="fill:#f2f2f2;fill-opacity:1;fill-rule:nonzero;stroke:none"
             id="path5143"
             inkscape:connector-curvature="0" /></g><g
           id="g5145"
           transform="translate(39,25)"><path
             d="m 0,0 c 0,-0.553 -0.447,-1 -1,-1 l -12,0 c -0.552,0 -1,0.447 -1,1 l 0,7 c 0,0.552 0.448,1 1,1 l 1,0 0,3 c 0,2.757 2.243,5 5,5 2.757,0 5,-2.243 5,-5 l 0,-3 1,0 C -0.447,8 0,7.552 0,7 L 0,0 z m -7,17 c -8.302,0 -10,-1.687 -10,-10 0,-8.313 1.672,-10 10,-10 8.329,0 10,1.683 10,10 0,8.318 -1.698,10 -10,10"
             style="fill:#f2f2f2;fill-opacity:1;fill-rule:nonzero;stroke:none"
             id="path5147"
             inkscape:connector-curvature="0" /></g><g
           id="g5149"
           transform="translate(32,39)"><path
             d="m 0,0 c -1.657,0 -3,-1.343 -3,-3 l 0,-3 6,0 0,3 C 3,-1.343 1.657,0 0,0"
             style="fill:#f2f2f2;fill-opacity:1;fill-rule:nonzero;stroke:none"
             id="path5151"
             inkscape:connector-curvature="0" /></g><g
           id="g5153"
           transform="translate(30.6001,25)"><path
             d="M 0,0 -1.4,1.4 0,2.8 0,2.1 -0.7,1.4 0,0.7 0,0 z"
             style="fill:#f2f2f2;fill-opacity:1;fill-rule:nonzero;stroke:none"
             id="path5155"
             inkscape:connector-curvature="0" /></g><g
           id="g5157"
           transform="translate(31.9971,30.1748)"><path
             d="m 0,0 c -0.637,0 -1.215,-0.273 -1.634,-0.714 l -0.302,0.318 c -0.058,0.061 -0.057,0.165 0.004,0.222 0.513,0.486 1.19,0.782 1.932,0.782 0.744,0 1.424,-0.297 1.937,-0.786 0.061,-0.059 0.062,-0.16 0.002,-0.222 L 1.638,-0.718 C 1.219,-0.274 0.639,0 0,0"
             style="fill:#f2f2f2;fill-opacity:1;fill-rule:nonzero;stroke:none"
             id="path5159"
             inkscape:connector-curvature="0" /></g><g
           id="g5161"
           transform="translate(33.1729,28.9727)"><path
             d="m 0,0 -0.357,-0.374 c -0.209,0.222 -0.499,0.358 -0.819,0.358 -0.319,0 -0.608,-0.135 -0.817,-0.356 l -0.356,0.375 c -0.029,0.031 -0.028,0.081 0.003,0.11 0.308,0.298 0.72,0.481 1.17,0.481 0.452,0 0.864,-0.184 1.173,-0.483 C 0.027,0.081 0.029,0.031 0,0"
             style="fill:#f2f2f2;fill-opacity:1;fill-rule:nonzero;stroke:none"
             id="path5163"
             inkscape:connector-curvature="0" /></g><g
           id="g5165"
           transform="translate(30.9502,26.0498)"><path
             d="M 0,0 C -0.193,0 -0.35,0.157 -0.35,0.351 -0.35,0.544 -0.193,0.7 0,0.7 0.193,0.7 0.35,0.544 0.35,0.351 0.35,0.157 0.193,0 0,0"
             style="fill:#f2f2f2;fill-opacity:1;fill-rule:nonzero;stroke:none"
             id="path5167"
             inkscape:connector-curvature="0" /></g><g
           id="g5169"
           transform="translate(32,26.0498)"><path
             d="M 0,0 C -0.193,0 -0.35,0.157 -0.35,0.351 -0.35,0.544 -0.193,0.7 0,0.7 0.193,0.7 0.35,0.544 0.35,0.351 0.35,0.157 0.193,0 0,0"
             style="fill:#f2f2f2;fill-opacity:1;fill-rule:nonzero;stroke:none"
             id="path5171"
             inkscape:connector-curvature="0" /></g><g
           id="g5173"
           transform="translate(32.0947,27.8428)"><path
             d="m 0,0 c -0.055,-0.057 -0.141,-0.057 -0.195,0 l -0.284,0.3 c -0.016,0.015 -0.014,0.042 0.002,0.056 0.102,0.094 0.234,0.15 0.379,0.15 0.146,0 0.279,-0.057 0.381,-0.151 C 0.299,0.341 0.3,0.314 0.285,0.299 L 0,0 z"
             style="fill:#f2f2f2;fill-opacity:1;fill-rule:nonzero;stroke:none"
             id="path5175"
             inkscape:connector-curvature="0" /></g><g
           id="g5177"
           transform="translate(33.0498,26.0498)"><path
             d="M 0,0 C -0.193,0 -0.35,0.157 -0.35,0.351 -0.35,0.544 -0.193,0.7 0,0.7 0.193,0.7 0.351,0.544 0.351,0.351 0.351,0.157 0.193,0 0,0"
             style="fill:#f2f2f2;fill-opacity:1;fill-rule:nonzero;stroke:none"
             id="path5179"
             inkscape:connector-curvature="0" /></g><g
           id="g5181"
           transform="translate(33.4004,25)"><path
             d="M 0,0 0,0.7 0.699,1.4 0,2.1 0,2.8 1.399,1.4 0,0 z"
             style="fill:#f2f2f2;fill-opacity:1;fill-rule:nonzero;stroke:none"
             id="path5183"
             inkscape:connector-curvature="0" /></g><g
           id="g5185"
           transform="translate(34.7568,30.6338)"><path
             d="m 0,0 -0.304,-0.318 c -0.628,0.664 -1.497,1.076 -2.456,1.076 -0.956,0 -1.823,-0.409 -2.451,-1.07 l -0.302,0.318 c -0.06,0.062 -0.058,0.162 0.003,0.223 0.722,0.705 1.689,1.137 2.75,1.137 1.064,0 2.033,-0.434 2.756,-1.144 C 0.058,0.162 0.059,0.062 0,0"
             style="fill:#f2f2f2;fill-opacity:1;fill-rule:nonzero;stroke:none"
             id="path5187"
             inkscape:connector-curvature="0" /></g></g></g></g></svg>