<?xml version="1.0" encoding="UTF-8" standalone="no"?>
<!-- Created with Inkscape (http://www.inkscape.org/) -->

<svg
   xmlns:dc="http://purl.org/dc/elements/1.1/"
   xmlns:cc="http://creativecommons.org/ns#"
   xmlns:rdf="http://www.w3.org/1999/02/22-rdf-syntax-ns#"
   xmlns:svg="http://www.w3.org/2000/svg"
   xmlns="http://www.w3.org/2000/svg"
   xmlns:sodipodi="http://sodipodi.sourceforge.net/DTD/sodipodi-0.dtd"
   xmlns:inkscape="http://www.inkscape.org/namespaces/inkscape"
   id="svg5227"
   version="1.1"
   inkscape:version="0.48.5 r10040"
   width="64"
   height="64"
   xml:space="preserve"
   sodipodi:docname="netplay - iRoom.svg"
   inkscape:export-filename="/Users/margetts/Desktop/Icon Workshop/Monochrome Plus June/png/netplay - iRoom.png"
   inkscape:export-xdpi="360"
   inkscape:export-ydpi="360"><metadata
     id="metadata5233"><rdf:RDF><cc:Work
         rdf:about=""><dc:format>image/svg+xml</dc:format><dc:type
           rdf:resource="http://purl.org/dc/dcmitype/StillImage" /><dc:title></dc:title></cc:Work></rdf:RDF></metadata><defs
     id="defs5231"><clipPath
       clipPathUnits="userSpaceOnUse"
       id="clipPath5241"><path
         d="M 0,64 64,64 64,0 0,0 0,64 z"
         id="path5243"
         inkscape:connector-curvature="0" /></clipPath></defs><sodipodi:namedview
     pagecolor="#ffffff"
     bordercolor="#666666"
     borderopacity="1"
     objecttolerance="10"
     gridtolerance="10"
     guidetolerance="10"
     inkscape:pageopacity="0"
     inkscape:pageshadow="2"
     inkscape:window-width="1676"
     inkscape:window-height="1005"
     id="namedview5229"
     showgrid="false"
     inkscape:zoom="3.8"
     inkscape:cx="6.9736842"
     inkscape:cy="40"
     inkscape:window-x="4"
     inkscape:window-y="1"
     inkscape:window-maximized="1"
     inkscape:current-layer="g5235" /><g
     id="g5235"
     inkscape:groupmode="layer"
     inkscape:label="netplay - iRoom"
     transform="matrix(1.25,0,0,-1.25,0,64)"><g
       id="g5237"
       transform="scale(0.8,0.8)"><g
         id="g5239"
         clip-path="url(#clipPath5241)"><g
           id="g5245"
           transform="translate(23.0679,31.4692)"><path
             d="M 0,0 3.382,0 C 3.424,-1.147 3.621,-2.292 3.975,-3.401 3.164,-3.731 2.378,-4.146 1.631,-4.645 0.69,-3.318 0.101,-1.724 0,0 M 1.631,5.699 C 2.387,5.194 3.184,4.775 4.006,4.442 3.647,3.344 3.439,2.203 3.387,1.054 L 0,1.054 c 0.1,1.722 0.689,3.317 1.631,4.645 m 5.25,3.548 C 5.797,8.113 4.959,6.816 4.375,5.43 3.655,5.723 2.958,6.087 2.292,6.524 c 1.199,1.33 2.79,2.299 4.589,2.723 m 1.525,10e-4 0,-4.697 C 7.38,4.596 6.359,4.771 5.368,5.076 6.034,6.633 7.05,8.065 8.406,9.248 m 0,-8.194 -3.966,0 C 4.492,2.083 4.678,3.104 4.997,4.087 6.108,3.74 7.254,3.542 8.406,3.497 l 0,-2.443 z m 0,-3.497 C 7.244,-2.489 6.086,-2.689 4.966,-3.043 4.652,-2.05 4.476,-1.027 4.435,0 l 3.971,0 0,-2.443 z m 0,-5.848 c -0.445,0.389 -0.863,0.814 -1.243,1.264 -0.779,0.924 -1.389,1.934 -1.834,2.993 1.003,0.313 2.038,0.492 3.077,0.537 l 0,-4.794 z M 2.292,-5.47 c 0.654,0.429 1.339,0.789 2.045,1.079 0.487,-1.174 1.16,-2.294 2.022,-3.316 0.131,-0.155 0.266,-0.307 0.405,-0.457 -1.75,0.438 -3.298,1.393 -4.472,2.694 m 7.166,1.973 c 1.039,-0.045 2.073,-0.224 3.075,-0.536 -0.666,-1.591 -1.694,-3.053 -3.075,-4.258 l 0,4.794 z m 0,3.497 3.97,0 c -0.043,-1.031 -0.22,-2.054 -0.533,-3.042 -1.119,0.353 -2.275,0.553 -3.437,0.599 l 0,2.443 z m 0,3.497 c 1.153,0.045 2.3,0.243 3.412,0.591 0.322,-0.989 0.505,-2.009 0.555,-3.034 l -3.967,0 0,2.443 z m 0,5.75 C 9.904,8.858 10.322,8.434 10.702,7.983 11.459,7.085 12.057,6.104 12.499,5.077 11.507,4.771 10.485,4.596 9.458,4.551 l 0,4.696 z M 15.566,6.521 C 14.903,6.085 14.208,5.723 13.492,5.431 13.008,6.575 12.347,7.666 11.505,8.663 11.338,8.862 11.164,9.056 10.984,9.245 12.777,8.819 14.366,7.849 15.566,6.521 M 16.227,5.695 C 17.17,4.367 17.763,2.773 17.864,1.054 l -3.386,0 c -0.051,1.144 -0.255,2.286 -0.616,3.39 0.819,0.331 1.612,0.748 2.365,1.251 m 0.006,-10.34 c -0.748,0.499 -1.535,0.915 -2.347,1.245 0.352,1.104 0.552,2.248 0.596,3.4 l 3.382,0 c -0.1,-1.722 -0.69,-3.317 -1.631,-4.645 m -5.131,-3.519 c 1.049,1.127 1.857,2.409 2.422,3.774 0.708,-0.29 1.393,-0.651 2.048,-1.08 -1.172,-1.3 -2.719,-2.255 -4.47,-2.694 m -2.696,-1.305 1.052,10e-4 c 3.389,0.176 6.332,2.049 8.004,4.779 l 0.504,0.925 c 0.626,1.316 0.974,2.79 0.966,4.343 -0.008,1.555 -0.377,3.03 -1.024,4.345 L 17.391,5.842 C 15.748,8.448 12.938,10.251 9.71,10.504 L 8.658,10.531 C 5.207,10.437 2.192,8.587 0.467,5.846 L -0.047,4.926 C -0.707,3.583 -1.076,2.072 -1.068,0.476 -1.06,-1.126 -0.671,-2.639 0.007,-3.98 l 0.525,-0.913 c 1.694,-2.622 4.575,-4.404 7.874,-4.576"
             style="fill:#f2f2f2;fill-opacity:1;fill-rule:nonzero;stroke:none"
             id="path5247"
             inkscape:connector-curvature="0" /></g><g
           id="g5249"
           transform="translate(17,43)"><path
             d="m 0,0 c 0,-3.313 -2.687,-6 -6,-6 -3.313,0 -6,2.687 -6,6 0,3.313 2.687,6 6,6 3.313,0 6,-2.687 6,-6"
             style="fill:#f2f2f2;fill-opacity:1;fill-rule:nonzero;stroke:none"
             id="path5251"
             inkscape:connector-curvature="0" /></g><g
           id="g5253"
           transform="translate(17,21)"><path
             d="m 0,0 c 0,-3.313 -2.687,-6 -6,-6 -3.313,0 -6,2.687 -6,6 0,3.313 2.687,6 6,6 3.313,0 6,-2.687 6,-6"
             style="fill:#f2f2f2;fill-opacity:1;fill-rule:nonzero;stroke:none"
             id="path5255"
             inkscape:connector-curvature="0" /></g><g
           id="g5257"
           transform="translate(59,43)"><path
             d="m 0,0 c 0,-3.313 -2.687,-6 -6,-6 -3.313,0 -6,2.687 -6,6 0,3.313 2.687,6 6,6 3.313,0 6,-2.687 6,-6"
             style="fill:#f2f2f2;fill-opacity:1;fill-rule:nonzero;stroke:none"
             id="path5259"
             inkscape:connector-curvature="0" /></g><g
           id="g5261"
           transform="translate(59,21)"><path
             d="m 0,0 c 0,-3.313 -2.687,-6 -6,-6 -3.313,0 -6,2.687 -6,6 0,3.313 2.687,6 6,6 3.313,0 6,-2.687 6,-6"
             style="fill:#f2f2f2;fill-opacity:1;fill-rule:nonzero;stroke:none"
             id="path5263"
             inkscape:connector-curvature="0" /></g><g
           id="g5265"
           transform="translate(38,11)"><path
             d="m 0,0 c 0,-3.313 -2.687,-6 -6,-6 -3.313,0 -6,2.687 -6,6 0,3.313 2.687,6 6,6 3.313,0 6,-2.687 6,-6"
             style="fill:#f2f2f2;fill-opacity:1;fill-rule:nonzero;stroke:none"
             id="path5267"
             inkscape:connector-curvature="0" /></g><g
           id="g5269"
           transform="translate(38,53)"><path
             d="m 0,0 c 0,-3.313 -2.687,-6 -6,-6 -3.313,0 -6,2.687 -6,6 0,3.313 2.687,6 6,6 3.313,0 6,-2.687 6,-6"
             style="fill:#f2f2f2;fill-opacity:1;fill-rule:nonzero;stroke:none"
             id="path5271"
             inkscape:connector-curvature="0" /></g></g></g></g></svg>