<?xml version="1.0" encoding="UTF-8" standalone="no"?>
<!-- Created with Inkscape (http://www.inkscape.org/) -->

<svg
   xmlns:dc="http://purl.org/dc/elements/1.1/"
   xmlns:cc="http://creativecommons.org/ns#"
   xmlns:rdf="http://www.w3.org/1999/02/22-rdf-syntax-ns#"
   xmlns:svg="http://www.w3.org/2000/svg"
   xmlns="http://www.w3.org/2000/svg"
   xmlns:sodipodi="http://sodipodi.sourceforge.net/DTD/sodipodi-0.dtd"
   xmlns:inkscape="http://www.inkscape.org/namespaces/inkscape"
   id="svg5159"
   version="1.1"
   inkscape:version="0.48.5 r10040"
   width="256"
   height="256"
   xml:space="preserve"
   sodipodi:docname="netplay - LAN Room-locked.svg"
   inkscape:export-filename="/Volumes/Verbatim16/GitHub Projects/baxy-retroarch-themes/monochrome plus/contributions/svg/netplay - LAN Room-locked.png"
   inkscape:export-xdpi="90.099998"
   inkscape:export-ydpi="90.099998"><metadata
     id="metadata5165"><rdf:RDF><cc:Work
         rdf:about=""><dc:format>image/svg+xml</dc:format><dc:type
           rdf:resource="http://purl.org/dc/dcmitype/StillImage" /><dc:title></dc:title></cc:Work></rdf:RDF></metadata><defs
     id="defs5163"><clipPath
       clipPathUnits="userSpaceOnUse"
       id="clipPath5219"><path
         d="M 0,256 256,256 256,0 0,0 0,256 z"
         id="path5221"
         inkscape:connector-curvature="0" /></clipPath></defs><sodipodi:namedview
     pagecolor="#ffffff"
     bordercolor="#666666"
     borderopacity="1"
     objecttolerance="10"
     gridtolerance="10"
     guidetolerance="10"
     inkscape:pageopacity="0"
     inkscape:pageshadow="2"
     inkscape:window-width="1676"
     inkscape:window-height="1005"
     id="namedview5161"
     showgrid="false"
     inkscape:zoom="2.61875"
     inkscape:cx="160"
     inkscape:cy="160"
     inkscape:window-x="4"
     inkscape:window-y="1"
     inkscape:window-maximized="1"
     inkscape:current-layer="g5167" /><g
     id="g5167"
     inkscape:groupmode="layer"
     inkscape:label="netplay - LAN Room-locked"
     transform="matrix(1.25,0,0,-1.25,0,256)"><g
       id="g5361"
       transform="matrix(0.79999862,0,0,0.79999862,2.5663986e-4,3.3663972e-4)"><path
         id="path5169"
         style="fill:#f2f2f2;fill-opacity:1;fill-rule:nonzero;stroke:none"
         d="m 44,138.268 -4,0 0,-4 4,0 0,4 z"
         inkscape:connector-curvature="0" /><g
         transform="translate(77.6406,196.5352)"
         id="g5171"><path
           id="path5173"
           style="fill:#f2f2f2;fill-opacity:1;fill-rule:nonzero;stroke:none"
           d="m 0,0 -2,3.465 -3.464,-2 2,-3.465 L 0,0 z"
           inkscape:connector-curvature="0" /></g><g
         transform="translate(79.1055,202)"
         id="g5175"><path
           id="path5177"
           style="fill:#f2f2f2;fill-opacity:1;fill-rule:nonzero;stroke:none"
           d="m 0,0 2,-3.465 3.464,2 L 3.464,2 0,0 z"
           inkscape:connector-curvature="0" /></g><g
         transform="translate(86.0332,50.5352)"
         id="g5179"><path
           id="path5181"
           style="fill:#f2f2f2;fill-opacity:1;fill-rule:nonzero;stroke:none"
           d="m 0,0 3.464,-2 2,3.465 L 2,3.465 0,0 z"
           inkscape:connector-curvature="0" /></g><g
         transform="translate(98.4258,208.5352)"
         id="g5183"><path
           id="path5185"
           style="fill:#f2f2f2;fill-opacity:1;fill-rule:nonzero;stroke:none"
           d="m 0,0 -2,3.465 -3.464,-2 2,-3.465 L 0,0 z"
           inkscape:connector-curvature="0" /></g><g
         transform="translate(99.8896,42.5352)"
         id="g5187"><path
           id="path5189"
           style="fill:#f2f2f2;fill-opacity:1;fill-rule:nonzero;stroke:none"
           d="m 0,0 3.464,-2 2,3.465 L 2,3.465 0,0 z"
           inkscape:connector-curvature="0" /></g><g
         transform="translate(91.4971,204.5352)"
         id="g5191"><path
           id="path5193"
           style="fill:#f2f2f2;fill-opacity:1;fill-rule:nonzero;stroke:none"
           d="m 0,0 -2,3.465 -3.464,-2 2,-3.465 L 0,0 z"
           inkscape:connector-curvature="0" /></g><g
         transform="translate(65.249,194)"
         id="g5195"><path
           id="path5197"
           style="fill:#f2f2f2;fill-opacity:1;fill-rule:nonzero;stroke:none"
           d="m 0,0 2,-3.465 3.464,2 L 3.464,2 0,0 z"
           inkscape:connector-curvature="0" /></g><path
         id="path5199"
         style="fill:#f2f2f2;fill-opacity:1;fill-rule:nonzero;stroke:none"
         d="m 44,146.268 -4,0 0,-4 4,0 0,4 z"
         inkscape:connector-curvature="0" /><g
         transform="translate(72.1768,58.5352)"
         id="g5201"><path
           id="path5203"
           style="fill:#f2f2f2;fill-opacity:1;fill-rule:nonzero;stroke:none"
           d="m 0,0 3.464,-2 2,3.465 L 2,3.465 0,0 z"
           inkscape:connector-curvature="0" /></g><path
         id="path5205"
         style="fill:#f2f2f2;fill-opacity:1;fill-rule:nonzero;stroke:none"
         d="m 44,130.268 -4,0 0,-4 4,0 0,4 z"
         inkscape:connector-curvature="0" /><path
         id="path5207"
         style="fill:#f2f2f2;fill-opacity:1;fill-rule:nonzero;stroke:none"
         d="m 44,114.268 -4,0 0,-4 4,0 0,4 z"
         inkscape:connector-curvature="0" /><path
         id="path5209"
         style="fill:#f2f2f2;fill-opacity:1;fill-rule:nonzero;stroke:none"
         d="m 44,122.268 -4,0 0,-4 4,0 0,4 z"
         inkscape:connector-curvature="0" /><g
         transform="translate(105.3535,212.5352)"
         id="g5211"><path
           id="path5213"
           style="fill:#f2f2f2;fill-opacity:1;fill-rule:nonzero;stroke:none"
           d="m 0,0 -2,3.465 -3.464,-2 2,-3.465 L 0,0 z"
           inkscape:connector-curvature="0" /></g><g
         id="g5215"><g
           clip-path="url(#clipPath5219)"
           id="g5217"><g
             transform="translate(108.646,214.832)"
             id="g5223"><path
               id="path5225"
               style="fill:#f2f2f2;fill-opacity:1;fill-rule:nonzero;stroke:none"
               d="m 0,0 c 0.038,-0.198 0.074,-0.4 0.115,-0.591 0.604,-2.794 1.598,-4.809 3.128,-6.341 1.531,-1.533 3.546,-2.529 6.34,-3.135 2.408,-0.522 5.513,-0.765 9.771,-0.765 4.26,0 7.364,0.243 9.771,0.764 2.795,0.606 4.81,1.602 6.34,3.133 1.531,1.532 2.524,3.547 3.128,6.342 0.013,0.062 0.025,0.128 0.037,0.191 l 1.907,3.302 -1.36,0.785 c 0.119,1.573 0.177,3.37 0.177,5.482 l 0,10e-4 c 0,4.251 -0.244,7.353 -0.769,9.763 -0.608,2.793 -1.605,4.808 -3.139,6.34 -1.533,1.532 -3.549,2.527 -6.342,3.133 -2.405,0.521 -5.503,0.764 -9.75,0.764 -4.246,0 -7.344,-0.243 -9.75,-0.766 C 6.811,27.796 4.796,26.8 3.263,25.269 1.729,23.736 0.731,21.721 0.123,18.927 -0.402,16.519 -0.646,13.417 -0.646,9.168 l 0,-10e-4 c 0,-2 0.053,-3.711 0.16,-5.224 L -1.829,3.168 0,0 z"
               inkscape:connector-curvature="0" /></g><path
             id="path5227"
             style="fill:#f2f2f2;fill-opacity:1;fill-rule:nonzero;stroke:none"
             d="m 40,102.268 4,0 0,4 -4,0 0,-4 z"
             inkscape:connector-curvature="0" /><g
             transform="translate(79.1055,54.5352)"
             id="g5229"><path
               id="path5231"
               style="fill:#f2f2f2;fill-opacity:1;fill-rule:nonzero;stroke:none"
               d="m 0,0 3.464,-2 2,3.465 L 2,3.465 0,0 z"
               inkscape:connector-curvature="0" /></g><g
             transform="translate(65.249,62.5352)"
             id="g5233"><path
               id="path5235"
               style="fill:#f2f2f2;fill-opacity:1;fill-rule:nonzero;stroke:none"
               d="m 0,0 3.464,-2 2,3.465 L 2,3.465 0,0 z"
               inkscape:connector-curvature="0" /></g><g
             transform="translate(92.9619,46.5352)"
             id="g5237"><path
               id="path5239"
               style="fill:#f2f2f2;fill-opacity:1;fill-rule:nonzero;stroke:none"
               d="m 0,0 3.464,-2 2,3.465 L 2,3.465 0,0 z"
               inkscape:connector-curvature="0" /></g><g
             transform="translate(150.6465,43.7324)"
             id="g5241"><path
               id="path5243"
               style="fill:#f2f2f2;fill-opacity:1;fill-rule:nonzero;stroke:none"
               d="m 0,0 2,-3.465 3.464,2 L 3.464,2 0,0 z"
               inkscape:connector-curvature="0" /></g><g
             transform="translate(157.5742,47.7324)"
             id="g5245"><path
               id="path5247"
               style="fill:#f2f2f2;fill-opacity:1;fill-rule:nonzero;stroke:none"
               d="m 0,0 2,-3.465 3.464,2 L 3.464,2 0,0 z"
               inkscape:connector-curvature="0" /></g><g
             transform="translate(164.5029,51.7324)"
             id="g5249"><path
               id="path5251"
               style="fill:#f2f2f2;fill-opacity:1;fill-rule:nonzero;stroke:none"
               d="m 0,0 2,-3.465 3.464,2 L 3.464,2 0,0 z"
               inkscape:connector-curvature="0" /></g><g
             transform="translate(149.1816,38.2676)"
             id="g5253"><path
               id="path5255"
               style="fill:#f2f2f2;fill-opacity:1;fill-rule:nonzero;stroke:none"
               d="m 0,0 -1.916,3.318 c -0.012,0.058 -0.021,0.12 -0.034,0.177 -0.609,2.794 -1.606,4.809 -3.14,6.341 -1.533,1.531 -3.549,2.526 -6.342,3.132 -2.405,0.521 -5.503,0.764 -9.75,0.764 -4.246,0 -7.344,-0.243 -9.75,-0.765 -2.793,-0.607 -4.808,-1.603 -6.341,-3.134 -1.49,-1.488 -2.47,-3.437 -3.082,-6.105 l -0.008,0.004 -2,-3.464 1.384,-0.799 c -0.136,-1.649 -0.203,-3.536 -0.203,-5.737 l 0,-0.001 c 0,-4.312 0.235,-7.321 0.762,-9.757 0.604,-2.795 1.598,-4.81 3.128,-6.341 1.53,-1.533 3.545,-2.529 6.34,-3.135 2.408,-0.522 5.512,-0.766 9.77,-0.766 4.26,0 7.365,0.244 9.772,0.765 2.795,0.606 4.809,1.601 6.34,3.133 1.53,1.531 2.523,3.546 3.128,6.341 0.526,2.436 0.76,5.447 0.76,9.76 l 0,0.001 c 0,2.087 -0.059,3.894 -0.181,5.481 L 0,0 z"
               inkscape:connector-curvature="0" /></g><g
             transform="translate(212,150)"
             id="g5257"><path
               id="path5259"
               style="fill:#f2f2f2;fill-opacity:1;fill-rule:nonzero;stroke:none"
               d="M 0,0 4,0 4,4 2,4 0,4 0,0 z"
               inkscape:connector-curvature="0" /></g><g
             transform="translate(190.751,193.7324)"
             id="g5261"><path
               id="path5263"
               style="fill:#f2f2f2;fill-opacity:1;fill-rule:nonzero;stroke:none"
               d="m 0,0 -3.464,2 -2,-3.465 3.464,-2 L 0,0 z"
               inkscape:connector-curvature="0" /></g><g
             transform="translate(185.2871,63.7324)"
             id="g5265"><path
               id="path5267"
               style="fill:#f2f2f2;fill-opacity:1;fill-rule:nonzero;stroke:none"
               d="m 0,0 2,-3.465 3.464,2 L 3.464,2 0,0 z"
               inkscape:connector-curvature="0" /></g><path
             id="path5269"
             style="fill:#f2f2f2;fill-opacity:1;fill-rule:nonzero;stroke:none"
             d="m 212,110 4,0 0,4 -4,0 0,-4 z"
             inkscape:connector-curvature="0" /><g
             transform="translate(171.4307,55.7324)"
             id="g5271"><path
               id="path5273"
               style="fill:#f2f2f2;fill-opacity:1;fill-rule:nonzero;stroke:none"
               d="m 0,0 2,-3.465 3.464,2 L 3.464,2 0,0 z"
               inkscape:connector-curvature="0" /></g><g
             transform="translate(163.0381,209.7324)"
             id="g5275"><path
               id="path5277"
               style="fill:#f2f2f2;fill-opacity:1;fill-rule:nonzero;stroke:none"
               d="m 0,0 -3.464,2 -2,-3.465 3.464,-2 L 0,0 z"
               inkscape:connector-curvature="0" /></g><g
             transform="translate(164.5029,204.2676)"
             id="g5279"><path
               id="path5281"
               style="fill:#f2f2f2;fill-opacity:1;fill-rule:nonzero;stroke:none"
               d="m 0,0 3.464,-2 2,3.465 L 2,3.465 0,0 z"
               inkscape:connector-curvature="0" /></g><path
             id="path5283"
             style="fill:#f2f2f2;fill-opacity:1;fill-rule:nonzero;stroke:none"
             d="m 212,118 4,0 0,4 -4,0 0,-4 z"
             inkscape:connector-curvature="0" /><g
             transform="translate(178.3594,196.2676)"
             id="g5285"><path
               id="path5287"
               style="fill:#f2f2f2;fill-opacity:1;fill-rule:nonzero;stroke:none"
               d="m 0,0 3.464,-2 2,3.465 L 2,3.465 0,0 z"
               inkscape:connector-curvature="0" /></g><g
             transform="translate(176.8945,201.7324)"
             id="g5289"><path
               id="path5291"
               style="fill:#f2f2f2;fill-opacity:1;fill-rule:nonzero;stroke:none"
               d="m 0,0 -3.464,2 -2,-3.465 3.464,-2 L 0,0 z"
               inkscape:connector-curvature="0" /></g><path
             id="path5293"
             style="fill:#f2f2f2;fill-opacity:1;fill-rule:nonzero;stroke:none"
             d="m 212,126 4,0 0,4 -4,0 0,-4 z"
             inkscape:connector-curvature="0" /><g
             transform="translate(156.1104,213.7324)"
             id="g5295"><path
               id="path5297"
               style="fill:#f2f2f2;fill-opacity:1;fill-rule:nonzero;stroke:none"
               d="m 0,0 -3.464,2 -2,-3.465 3.464,-2 L 0,0 z"
               inkscape:connector-curvature="0" /></g><g
             transform="translate(216,106)"
             id="g5299"><path
               id="path5301"
               style="fill:#f2f2f2;fill-opacity:1;fill-rule:nonzero;stroke:none"
               d="m 0,0 -4,0 0,-4 2,0 2,0 0,4 z"
               inkscape:connector-curvature="0" /></g><g
             transform="translate(178.3594,59.7324)"
             id="g5303"><path
               id="path5305"
               style="fill:#f2f2f2;fill-opacity:1;fill-rule:nonzero;stroke:none"
               d="m 0,0 2,-3.465 3.464,2 L 3.464,2 0,0 z"
               inkscape:connector-curvature="0" /></g><path
             id="path5307"
             style="fill:#f2f2f2;fill-opacity:1;fill-rule:nonzero;stroke:none"
             d="m 216,146 -4,0 0,-4 4,0 0,4 z"
             inkscape:connector-curvature="0" /><path
             id="path5309"
             style="fill:#f2f2f2;fill-opacity:1;fill-rule:nonzero;stroke:none"
             d="m 212,134 4,0 0,4 -4,0 0,-4 z"
             inkscape:connector-curvature="0" /><g
             transform="translate(234,174)"
             id="g5311"><path
               id="path5313"
               style="fill:#f2f2f2;fill-opacity:1;fill-rule:nonzero;stroke:none"
               d="m 0,0 0,0 c 0,4.251 -0.244,7.354 -0.769,9.763 -0.608,2.793 -1.605,4.808 -3.139,6.341 -1.533,1.531 -3.549,2.526 -6.342,3.132 C -12.655,19.757 -15.753,20 -20,20 c -4.246,0 -7.345,-0.243 -9.75,-0.766 -2.793,-0.606 -4.809,-1.602 -6.342,-3.133 -0.104,-0.105 -0.2,-0.218 -0.3,-0.327 l -3.392,1.958 -2,-3.464 3.32,-1.917 c -0.304,-0.784 -0.56,-1.639 -0.767,-2.592 C -39.756,7.351 -40,4.25 -40,0 l 0,0 c 0,-4.313 0.234,-7.323 0.762,-9.759 0.603,-2.794 1.597,-4.809 3.127,-6.341 1.531,-1.533 3.546,-2.529 6.34,-3.135 2.408,-0.522 5.512,-0.765 9.771,-0.765 4.26,0 7.364,0.243 9.771,0.764 2.795,0.606 4.81,1.602 6.34,3.133 1.531,1.532 2.524,3.547 3.128,6.342 C -0.234,-7.325 0,-4.315 0,0 z"
               inkscape:connector-curvature="0" /></g><g
             transform="translate(130,172)"
             id="g5315"><path
               id="path5317"
               style="fill:#f2f2f2;fill-opacity:1;fill-rule:nonzero;stroke:none"
               d="m 0,0 -4,0 0,-8 2,0 2,0 0,8 z"
               inkscape:connector-curvature="0" /></g><g
             transform="translate(126,196)"
             id="g5319"><path
               id="path5321"
               style="fill:#f2f2f2;fill-opacity:1;fill-rule:nonzero;stroke:none"
               d="M 0,0 4,0 4,8 2,8 0,8 0,0 z"
               inkscape:connector-curvature="0" /></g><path
             id="path5323"
             style="fill:#f2f2f2;fill-opacity:1;fill-rule:nonzero;stroke:none"
             d="m 130,188 -4,0 0,-8 4,0 0,8 z"
             inkscape:connector-curvature="0" /><g
             transform="translate(171.9258,101.3984)"
             id="g5325"><path
               id="path5327"
               style="fill:#f2f2f2;fill-opacity:1;fill-rule:nonzero;stroke:none"
               d="M 0,0 7.023,-3.831 8.939,-0.319 1.916,3.512 0,0 z"
               inkscape:connector-curvature="0" /></g><g
             transform="translate(185.9727,93.7363)"
             id="g5329"><path
               id="path5331"
               style="fill:#f2f2f2;fill-opacity:1;fill-rule:nonzero;stroke:none"
               d="M 0,0 7.023,-3.83 8.938,-0.318 1.916,3.512 0,0 z"
               inkscape:connector-curvature="0" /></g><g
             transform="translate(63.0039,89.9063)"
             id="g5333"><path
               id="path5335"
               style="fill:#f2f2f2;fill-opacity:1;fill-rule:nonzero;stroke:none"
               d="M 0,0 7.023,3.83 5.107,7.342 -1.916,3.512 0,0 z"
               inkscape:connector-curvature="0" /></g><g
             transform="translate(84.0742,101.3984)"
             id="g5337"><path
               id="path5339"
               style="fill:#f2f2f2;fill-opacity:1;fill-rule:nonzero;stroke:none"
               d="M 0,0 -1.916,3.512 -8.939,-0.319 -7.023,-3.831 0,0 z"
               inkscape:connector-curvature="0" /></g><g
             transform="translate(234,82)"
             id="g5341"><path
               id="path5343"
               style="fill:#f2f2f2;fill-opacity:1;fill-rule:nonzero;stroke:none"
               d="m 0,0 c 0,4.251 -0.244,7.354 -0.769,9.763 -0.608,2.794 -1.605,4.808 -3.139,6.341 -1.533,1.531 -3.549,2.526 -6.342,3.131 C -12.655,19.757 -15.753,20 -20,20 c -4.246,0 -7.345,-0.243 -9.75,-0.766 -2.793,-0.606 -4.809,-1.602 -6.342,-3.133 -1.534,-1.534 -2.531,-3.548 -3.139,-6.341 C -39.756,7.351 -40,4.249 -40,0 l 0,-0.001 c 0,-4.312 0.234,-7.321 0.762,-9.758 0.206,-0.955 0.462,-1.812 0.765,-2.597 l -3.311,-1.912 2,-3.464 3.38,1.952 c 0.097,-0.108 0.191,-0.218 0.293,-0.32 1.531,-1.533 3.546,-2.529 6.34,-3.134 2.408,-0.523 5.512,-0.766 9.771,-0.766 4.26,0 7.364,0.243 9.771,0.765 2.795,0.605 4.81,1.6 6.34,3.132 1.531,1.532 2.524,3.546 3.128,6.341 C -0.234,-7.325 0,-4.314 0,-0.001 L 0,0 z"
               inkscape:connector-curvature="0" /></g><g
             transform="translate(146,109.5908)"
             id="g5345"><path
               id="path5347"
               style="fill:#f2f2f2;fill-opacity:1;fill-rule:nonzero;stroke:none"
               d="m 0,0 c 0,-0.879 -0.714,-1.591 -1.594,-1.591 l -32.812,0 C -35.286,-1.591 -36,-0.879 -36,0 l 0,19.216 c 0,0.879 0.714,1.591 1.594,1.591 l 0.731,0 0,5.964 c 0,8.637 7.018,15.638 15.675,15.638 8.657,0 15.676,-7.001 15.676,-15.638 l 0,-5.964 0.73,0 C -0.714,20.807 0,20.095 0,19.216 L 0,0 z m 18.903,-4.361 1.915,3.511 -6.439,3.512 C 14.26,2.418 14.125,2.182 14,1.94 l 0,34.469 -32,18 -32,-18 0,-34.469 c -0.125,0.242 -0.259,0.478 -0.379,0.723 l -6.44,-3.513 1.916,-3.511 6.48,3.534 c -0.109,0.172 -0.208,0.351 -0.315,0.526 L -18,-17.591 12.738,-0.301 c -0.107,-0.175 -0.206,-0.354 -0.315,-0.526 l 6.48,-3.534 z"
               inkscape:connector-curvature="0" /></g><g
             transform="translate(128,146.0361)"
             id="g5349"><path
               id="path5351"
               style="fill:#f2f2f2;fill-opacity:1;fill-rule:nonzero;stroke:none"
               d="m 0,0 c -5.347,0 -9.697,-4.34 -9.697,-9.675 l 0,-5.964 9.697,0 9.697,0 0,5.964 C 9.697,-4.34 5.348,0 0,0"
               inkscape:connector-curvature="0" /></g><g
             transform="translate(22.7612,164.2412)"
             id="g5353"><path
               id="path5355"
               style="fill:#f2f2f2;fill-opacity:1;fill-rule:nonzero;stroke:none"
               d="m 0,0 c 0.604,-2.794 1.598,-4.81 3.128,-6.341 1.531,-1.533 3.545,-2.529 6.34,-3.135 2.011,-0.436 4.52,-0.675 7.771,-0.743 l 0,-3.755 4,0 0,3.755 c 3.251,0.068 5.76,0.306 7.771,0.742 2.795,0.606 4.81,1.602 6.34,3.133 1.53,1.532 2.524,3.547 3.128,6.342 0.526,2.436 0.761,5.446 0.761,9.76 l 0,0.001 c 0,4.251 -0.244,7.353 -0.769,9.762 -0.226,1.04 -0.507,1.97 -0.848,2.809 l 3.401,1.964 -2,3.465 -3.464,-2 0.225,-0.39 c -0.147,0.169 -0.296,0.335 -0.454,0.493 -1.533,1.532 -3.548,2.527 -6.342,3.133 -2.404,0.521 -5.502,0.764 -9.749,0.764 -4.246,0 -7.344,-0.243 -9.75,-0.766 C 6.696,28.387 4.681,27.391 3.147,25.859 1.613,24.327 0.616,22.312 0.007,19.518 -0.517,17.109 -0.761,14.008 -0.761,9.759 l 0,-0.001 C -0.761,5.445 -0.526,2.436 0,0"
               inkscape:connector-curvature="0" /></g><g
             transform="translate(61.2388,72.2383)"
             id="g5357"><path
               id="path5359"
               style="fill:#f2f2f2;fill-opacity:1;fill-rule:nonzero;stroke:none"
               d="m 0,0 c 0.526,2.437 0.761,5.447 0.761,9.761 l 0,0.001 c 0,4.251 -0.244,7.353 -0.768,9.762 -0.609,2.794 -1.606,4.809 -3.14,6.341 -1.534,1.531 -3.549,2.527 -6.342,3.132 -2.405,0.522 -5.503,0.765 -9.75,0.765 -4.246,0 -7.344,-0.243 -9.75,-0.766 -2.793,-0.606 -4.808,-1.602 -6.341,-3.134 -1.534,-1.533 -2.532,-3.548 -3.14,-6.341 -0.525,-2.409 -0.769,-5.51 -0.769,-9.759 l 0,-0.001 c 0,-4.313 0.235,-7.322 0.761,-9.758 0.604,-2.795 1.599,-4.81 3.128,-6.341 1.531,-1.533 3.546,-2.529 6.341,-3.135 2.407,-0.522 5.512,-0.765 9.77,-0.765 4.26,0 7.364,0.243 9.771,0.764 2.796,0.606 4.81,1.601 6.341,3.133 0.158,0.159 0.308,0.326 0.455,0.496 l 3.217,-1.858 2,3.465 -3.228,1.863 C -0.417,-1.649 -0.187,-0.866 0,0"
               inkscape:connector-curvature="0" /></g></g></g></g></g></svg>