<?xml version="1.0" encoding="UTF-8" standalone="no"?>
<!-- Created with Inkscape (http://www.inkscape.org/) -->

<svg
   xmlns:dc="http://purl.org/dc/elements/1.1/"
   xmlns:cc="http://creativecommons.org/ns#"
   xmlns:rdf="http://www.w3.org/1999/02/22-rdf-syntax-ns#"
   xmlns:svg="http://www.w3.org/2000/svg"
   xmlns="http://www.w3.org/2000/svg"
   xmlns:sodipodi="http://sodipodi.sourceforge.net/DTD/sodipodi-0.dtd"
   xmlns:inkscape="http://www.inkscape.org/namespaces/inkscape"
   id="svg4829"
   version="1.1"
   inkscape:version="0.48.5 r10040"
   width="256"
   height="256"
   xml:space="preserve"
   sodipodi:docname="netplay - LAN Room.svg"
   inkscape:export-filename="/Volumes/Verbatim16/GitHub Projects/baxy-retroarch-themes/monochrome plus/contributions/svg/netplay - LAN Room.png"
   inkscape:export-xdpi="90.099998"
   inkscape:export-ydpi="90.099998"><metadata
     id="metadata4835"><rdf:RDF><cc:Work
         rdf:about=""><dc:format>image/svg+xml</dc:format><dc:type
           rdf:resource="http://purl.org/dc/dcmitype/StillImage" /><dc:title></dc:title></cc:Work></rdf:RDF></metadata><defs
     id="defs4833"><clipPath
       clipPathUnits="userSpaceOnUse"
       id="clipPath4889"><path
         d="M 0,256 256,256 256,0 0,0 0,256 z"
         id="path4891"
         inkscape:connector-curvature="0" /></clipPath></defs><sodipodi:namedview
     pagecolor="#ffffff"
     bordercolor="#666666"
     borderopacity="1"
     objecttolerance="10"
     gridtolerance="10"
     guidetolerance="10"
     inkscape:pageopacity="0"
     inkscape:pageshadow="2"
     inkscape:window-width="1676"
     inkscape:window-height="1005"
     id="namedview4831"
     showgrid="false"
     inkscape:zoom="2.61875"
     inkscape:cx="160"
     inkscape:cy="160"
     inkscape:window-x="4"
     inkscape:window-y="1"
     inkscape:window-maximized="1"
     inkscape:current-layer="g4837" /><g
     id="g4837"
     inkscape:groupmode="layer"
     inkscape:label="netplay - LAN Room"
     transform="matrix(1.25,0,0,-1.25,0,256)"><g
       id="g5027"
       transform="matrix(0.80000103,0,0,0.80000103,-5.1839897e-5,-1.1839846e-5)"><path
         id="path4839"
         style="fill:#f2f2f2;fill-opacity:1;fill-rule:nonzero;stroke:none"
         d="m 212,117.732 4,0 0,4 -4,0 0,-4 z"
         inkscape:connector-curvature="0" /><g
         transform="translate(178.3594,59.4648)"
         id="g4841"><path
           id="path4843"
           style="fill:#f2f2f2;fill-opacity:1;fill-rule:nonzero;stroke:none"
           d="m 0,0 2,-3.465 3.464,2 L 3.464,2 0,0 z"
           inkscape:connector-curvature="0" /></g><g
         transform="translate(171.4307,55.4648)"
         id="g4845"><path
           id="path4847"
           style="fill:#f2f2f2;fill-opacity:1;fill-rule:nonzero;stroke:none"
           d="m 0,0 2,-3.465 3.464,2 L 3.464,2 0,0 z"
           inkscape:connector-curvature="0" /></g><g
         transform="translate(164.5029,204.0005)"
         id="g4849"><path
           id="path4851"
           style="fill:#f2f2f2;fill-opacity:1;fill-rule:nonzero;stroke:none"
           d="m 0,0 3.464,-2 2,3.464 L 2,3.464 0,0 z"
           inkscape:connector-curvature="0" /></g><g
         transform="translate(157.5742,47.4648)"
         id="g4853"><path
           id="path4855"
           style="fill:#f2f2f2;fill-opacity:1;fill-rule:nonzero;stroke:none"
           d="m 0,0 2,-3.465 3.464,2 L 3.464,2 0,0 z"
           inkscape:connector-curvature="0" /></g><g
         transform="translate(156.1104,213.4644)"
         id="g4857"><path
           id="path4859"
           style="fill:#f2f2f2;fill-opacity:1;fill-rule:nonzero;stroke:none"
           d="m 0,0 -3.464,2 -2,-3.464 3.464,-2 L 0,0 z"
           inkscape:connector-curvature="0" /></g><g
         transform="translate(164.5029,51.4648)"
         id="g4861"><path
           id="path4863"
           style="fill:#f2f2f2;fill-opacity:1;fill-rule:nonzero;stroke:none"
           d="m 0,0 2,-3.465 3.464,2 L 3.464,2 0,0 z"
           inkscape:connector-curvature="0" /></g><g
         transform="translate(185.2871,63.4648)"
         id="g4865"><path
           id="path4867"
           style="fill:#f2f2f2;fill-opacity:1;fill-rule:nonzero;stroke:none"
           d="m 0,0 2,-3.465 3.464,2 L 3.464,2 0,0 z"
           inkscape:connector-curvature="0" /></g><path
         id="path4869"
         style="fill:#f2f2f2;fill-opacity:1;fill-rule:nonzero;stroke:none"
         d="m 212,109.732 4,0 0,4 -4,0 0,-4 z"
         inkscape:connector-curvature="0" /><g
         transform="translate(178.3594,196.0005)"
         id="g4871"><path
           id="path4873"
           style="fill:#f2f2f2;fill-opacity:1;fill-rule:nonzero;stroke:none"
           d="m 0,0 3.464,-2 2,3.464 L 2,3.464 0,0 z"
           inkscape:connector-curvature="0" /></g><path
         id="path4875"
         style="fill:#f2f2f2;fill-opacity:1;fill-rule:nonzero;stroke:none"
         d="m 212,125.732 4,0 0,4 -4,0 0,-4 z"
         inkscape:connector-curvature="0" /><path
         id="path4877"
         style="fill:#f2f2f2;fill-opacity:1;fill-rule:nonzero;stroke:none"
         d="m 212,141.732 4,0 0,4 -4,0 0,-4 z"
         inkscape:connector-curvature="0" /><path
         id="path4879"
         style="fill:#f2f2f2;fill-opacity:1;fill-rule:nonzero;stroke:none"
         d="m 212,133.732 4,0 0,4 -4,0 0,-4 z"
         inkscape:connector-curvature="0" /><g
         transform="translate(150.6465,43.4648)"
         id="g4881"><path
           id="path4883"
           style="fill:#f2f2f2;fill-opacity:1;fill-rule:nonzero;stroke:none"
           d="m 0,0 2,-3.465 3.464,2 L 3.464,2 0,0 z"
           inkscape:connector-curvature="0" /></g><g
         id="g4885"><g
           clip-path="url(#clipPath4889)"
           id="g4887"><g
             transform="translate(149.1826,38)"
             id="g4893"><path
               id="path4895"
               style="fill:#f2f2f2;fill-opacity:1;fill-rule:nonzero;stroke:none"
               d="m 0,0 -1.838,3.184 c -0.037,0.194 -0.073,0.392 -0.113,0.579 -0.609,2.794 -1.606,4.808 -3.14,6.341 -1.533,1.531 -3.549,2.526 -6.342,3.131 -2.405,0.522 -5.503,0.765 -9.75,0.765 -4.246,0 -7.344,-0.243 -9.75,-0.766 -2.793,-0.606 -4.808,-1.602 -6.341,-3.133 -1.534,-1.534 -2.532,-3.548 -3.14,-6.341 -0.012,-0.055 -0.022,-0.114 -0.033,-0.169 l -1.918,-3.323 1.364,-0.788 c -0.122,-1.586 -0.182,-3.393 -0.182,-5.48 l 0,-0.001 c 0,-4.312 0.235,-7.321 0.762,-9.758 0.604,-2.795 1.598,-4.809 3.128,-6.341 1.53,-1.533 3.545,-2.529 6.34,-3.134 2.408,-0.523 5.512,-0.766 9.77,-0.766 4.26,0 7.365,0.243 9.772,0.765 2.795,0.605 4.809,1.6 6.34,3.132 1.53,1.532 2.523,3.546 3.128,6.341 0.526,2.437 0.76,5.448 0.76,9.761 l 0,0.001 c 0,1.977 -0.055,3.696 -0.164,5.223 L 0,0 z"
               inkscape:connector-curvature="0" /></g><path
             id="path4897"
             style="fill:#f2f2f2;fill-opacity:1;fill-rule:nonzero;stroke:none"
             d="m 216,153.732 -4,0 0,-4 4,0 0,4 z"
             inkscape:connector-curvature="0" /><g
             transform="translate(176.8945,201.4644)"
             id="g4899"><path
               id="path4901"
               style="fill:#f2f2f2;fill-opacity:1;fill-rule:nonzero;stroke:none"
               d="m 0,0 -3.464,2 -2,-3.464 3.464,-2 L 0,0 z"
               inkscape:connector-curvature="0" /></g><g
             transform="translate(190.751,193.4644)"
             id="g4903"><path
               id="path4905"
               style="fill:#f2f2f2;fill-opacity:1;fill-rule:nonzero;stroke:none"
               d="m 0,0 -3.464,2 -2,-3.464 3.464,-2 L 0,0 z"
               inkscape:connector-curvature="0" /></g><g
             transform="translate(163.0381,209.4644)"
             id="g4907"><path
               id="path4909"
               style="fill:#f2f2f2;fill-opacity:1;fill-rule:nonzero;stroke:none"
               d="m 0,0 -3.464,2 -2,-3.464 3.464,-2 L 0,0 z"
               inkscape:connector-curvature="0" /></g><g
             transform="translate(105.3535,212.2681)"
             id="g4911"><path
               id="path4913"
               style="fill:#f2f2f2;fill-opacity:1;fill-rule:nonzero;stroke:none"
               d="m 0,0 -2,3.464 -3.464,-2 2,-3.464 L 0,0 z"
               inkscape:connector-curvature="0" /></g><g
             transform="translate(98.4258,208.2681)"
             id="g4915"><path
               id="path4917"
               style="fill:#f2f2f2;fill-opacity:1;fill-rule:nonzero;stroke:none"
               d="m 0,0 -2,3.464 -3.464,-2 2,-3.464 L 0,0 z"
               inkscape:connector-curvature="0" /></g><g
             transform="translate(91.4971,204.2681)"
             id="g4919"><path
               id="path4921"
               style="fill:#f2f2f2;fill-opacity:1;fill-rule:nonzero;stroke:none"
               d="m 0,0 -2,3.464 -3.464,-2 2,-3.464 L 0,0 z"
               inkscape:connector-curvature="0" /></g><g
             transform="translate(108.7241,214.4307)"
             id="g4923"><path
               id="path4925"
               style="fill:#f2f2f2;fill-opacity:1;fill-rule:nonzero;stroke:none"
               d="m 0,0 c 0.013,-0.062 0.024,-0.128 0.037,-0.189 0.604,-2.795 1.598,-4.81 3.128,-6.342 1.531,-1.532 3.545,-2.529 6.34,-3.135 2.408,-0.522 5.513,-0.765 9.771,-0.765 4.26,0 7.364,0.243 9.771,0.764 2.795,0.606 4.81,1.602 6.34,3.134 1.486,1.486 2.462,3.434 3.071,6.103 l 2,3.464 -1.379,0.796 c 0.132,1.633 0.197,3.509 0.197,5.739 l 0,0 c 0,4.252 -0.244,7.354 -0.769,9.763 -0.608,2.793 -1.605,4.809 -3.139,6.341 -1.534,1.531 -3.549,2.526 -6.342,3.132 -2.405,0.522 -5.503,0.764 -9.75,0.764 -4.246,0 -7.344,-0.243 -9.75,-0.765 C 6.733,28.197 4.718,27.202 3.185,25.67 1.65,24.137 0.653,22.122 0.044,19.329 -0.48,16.92 -0.724,13.819 -0.724,9.569 l 0,0 c 0,-2.113 0.057,-3.91 0.177,-5.484 L -1.906,3.301 0,0 z"
               inkscape:connector-curvature="0" /></g><g
             transform="translate(44,106)"
             id="g4927"><path
               id="path4929"
               style="fill:#f2f2f2;fill-opacity:1;fill-rule:nonzero;stroke:none"
               d="m 0,0 -4,0 0,-4 2,0 2,0 0,4 z"
               inkscape:connector-curvature="0" /></g><g
             transform="translate(65.249,62.2676)"
             id="g4931"><path
               id="path4933"
               style="fill:#f2f2f2;fill-opacity:1;fill-rule:nonzero;stroke:none"
               d="m 0,0 3.464,-2 2,3.465 L 2,3.465 0,0 z"
               inkscape:connector-curvature="0" /></g><g
             transform="translate(65.249,193.7319)"
             id="g4935"><path
               id="path4937"
               style="fill:#f2f2f2;fill-opacity:1;fill-rule:nonzero;stroke:none"
               d="m 0,0 2,-3.464 3.464,2 L 3.464,2 0,0 z"
               inkscape:connector-curvature="0" /></g><path
             id="path4939"
             style="fill:#f2f2f2;fill-opacity:1;fill-rule:nonzero;stroke:none"
             d="m 44,146 -4,0 0,-4 4,0 0,4 z"
             inkscape:connector-curvature="0" /><g
             transform="translate(79.1055,201.7319)"
             id="g4941"><path
               id="path4943"
               style="fill:#f2f2f2;fill-opacity:1;fill-rule:nonzero;stroke:none"
               d="m 0,0 2,-3.464 3.464,2 L 3.464,2 0,0 z"
               inkscape:connector-curvature="0" /></g><g
             transform="translate(92.9619,46.2676)"
             id="g4945"><path
               id="path4947"
               style="fill:#f2f2f2;fill-opacity:1;fill-rule:nonzero;stroke:none"
               d="m 0,0 3.464,-2 2,3.465 L 2,3.465 0,0 z"
               inkscape:connector-curvature="0" /></g><g
             transform="translate(86.0332,50.2676)"
             id="g4949"><path
               id="path4951"
               style="fill:#f2f2f2;fill-opacity:1;fill-rule:nonzero;stroke:none"
               d="m 0,0 3.464,-2 2,3.465 L 2,3.465 0,0 z"
               inkscape:connector-curvature="0" /></g><path
             id="path4953"
             style="fill:#f2f2f2;fill-opacity:1;fill-rule:nonzero;stroke:none"
             d="m 44,138 -4,0 0,-4 4,0 0,4 z"
             inkscape:connector-curvature="0" /><g
             transform="translate(72.1768,58.2676)"
             id="g4955"><path
               id="path4957"
               style="fill:#f2f2f2;fill-opacity:1;fill-rule:nonzero;stroke:none"
               d="m 0,0 3.464,-2 2,3.465 L 2,3.465 0,0 z"
               inkscape:connector-curvature="0" /></g><g
             transform="translate(79.1055,54.2676)"
             id="g4959"><path
               id="path4961"
               style="fill:#f2f2f2;fill-opacity:1;fill-rule:nonzero;stroke:none"
               d="m 0,0 3.464,-2 2,3.465 L 2,3.465 0,0 z"
               inkscape:connector-curvature="0" /></g><path
             id="path4963"
             style="fill:#f2f2f2;fill-opacity:1;fill-rule:nonzero;stroke:none"
             d="m 44,130 -4,0 0,-4 4,0 0,4 z"
             inkscape:connector-curvature="0" /><g
             transform="translate(99.8896,42.2676)"
             id="g4965"><path
               id="path4967"
               style="fill:#f2f2f2;fill-opacity:1;fill-rule:nonzero;stroke:none"
               d="m 0,0 3.464,-2 2,3.465 L 2,3.465 0,0 z"
               inkscape:connector-curvature="0" /></g><g
             transform="translate(40,150)"
             id="g4969"><path
               id="path4971"
               style="fill:#f2f2f2;fill-opacity:1;fill-rule:nonzero;stroke:none"
               d="M 0,0 4,0 4,4 2,4 0,4 0,0 z"
               inkscape:connector-curvature="0" /></g><g
             transform="translate(77.6406,196.2681)"
             id="g4973"><path
               id="path4975"
               style="fill:#f2f2f2;fill-opacity:1;fill-rule:nonzero;stroke:none"
               d="m 0,0 -2,3.464 -3.464,-2 2,-3.464 L 0,0 z"
               inkscape:connector-curvature="0" /></g><path
             id="path4977"
             style="fill:#f2f2f2;fill-opacity:1;fill-rule:nonzero;stroke:none"
             d="m 40,110 4,0 0,4 -4,0 0,-4 z"
             inkscape:connector-curvature="0" /><path
             id="path4979"
             style="fill:#f2f2f2;fill-opacity:1;fill-rule:nonzero;stroke:none"
             d="m 44,122 -4,0 0,-4 4,0 0,4 z"
             inkscape:connector-curvature="0" /><g
             transform="translate(234,82)"
             id="g4981"><path
               id="path4983"
               style="fill:#f2f2f2;fill-opacity:1;fill-rule:nonzero;stroke:none"
               d="m 0,0 c 0,4.251 -0.244,7.354 -0.769,9.763 -0.608,2.794 -1.605,4.808 -3.139,6.341 -1.533,1.531 -3.549,2.526 -6.342,3.131 -2.008,0.436 -4.51,0.674 -7.75,0.743 l 0,3.754 -4,0 0,-3.754 c -3.239,-0.069 -5.741,-0.307 -7.75,-0.744 -2.793,-0.606 -4.809,-1.602 -6.342,-3.133 -1.534,-1.534 -2.531,-3.548 -3.139,-6.341 C -39.756,7.351 -40,4.249 -40,0 l 0,-0.001 c 0,-4.312 0.234,-7.321 0.762,-9.758 0.224,-1.043 0.505,-1.976 0.846,-2.817 l -3.392,-1.959 2,-3.465 3.464,2 -0.2,0.345 c 0.134,-0.152 0.267,-0.303 0.409,-0.445 1.531,-1.533 3.546,-2.529 6.34,-3.134 2.408,-0.523 5.512,-0.766 9.771,-0.766 4.26,0 7.364,0.243 9.771,0.765 2.795,0.605 4.81,1.6 6.34,3.132 1.531,1.532 2.524,3.546 3.128,6.341 C -0.234,-7.325 0,-4.314 0,-0.001 L 0,0 z"
               inkscape:connector-curvature="0" /></g><g
             transform="translate(126,84)"
             id="g4985"><path
               id="path4987"
               style="fill:#f2f2f2;fill-opacity:1;fill-rule:nonzero;stroke:none"
               d="M 0,0 4,0 4,8 2,8 0,8 0,0 z"
               inkscape:connector-curvature="0" /></g><g
             transform="translate(130,60)"
             id="g4989"><path
               id="path4991"
               style="fill:#f2f2f2;fill-opacity:1;fill-rule:nonzero;stroke:none"
               d="m 0,0 -4,0 0,-8 2,0 2,0 0,8 z"
               inkscape:connector-curvature="0" /></g><path
             id="path4993"
             style="fill:#f2f2f2;fill-opacity:1;fill-rule:nonzero;stroke:none"
             d="m 126,68 4,0 0,8 -4,0 0,-8 z"
             inkscape:connector-curvature="0" /><g
             transform="translate(82.1577,151.0898)"
             id="g4995"><path
               id="path4997"
               style="fill:#f2f2f2;fill-opacity:1;fill-rule:nonzero;stroke:none"
               d="M 0,0 1.916,3.512 -5.107,7.343 -7.023,3.831 0,0 z"
               inkscape:connector-curvature="0" /></g><g
             transform="translate(68.1118,158.752)"
             id="g4999"><path
               id="path5001"
               style="fill:#f2f2f2;fill-opacity:1;fill-rule:nonzero;stroke:none"
               d="M 0,0 1.915,3.512 -5.108,7.342 -7.023,3.83 0,0 z"
               inkscape:connector-curvature="0" /></g><g
             transform="translate(187.8887,158.752)"
             id="g5003"><path
               id="path5005"
               style="fill:#f2f2f2;fill-opacity:1;fill-rule:nonzero;stroke:none"
               d="M 0,0 7.023,3.83 5.107,7.342 -1.916,3.512 0,0 z"
               inkscape:connector-curvature="0" /></g><g
             transform="translate(173.8418,151.0898)"
             id="g5007"><path
               id="path5009"
               style="fill:#f2f2f2;fill-opacity:1;fill-rule:nonzero;stroke:none"
               d="M 0,0 7.023,3.831 5.107,7.343 -1.916,3.512 0,0 z"
               inkscape:connector-curvature="0" /></g><g
             transform="translate(234,174)"
             id="g5011"><path
               id="path5013"
               style="fill:#f2f2f2;fill-opacity:1;fill-rule:nonzero;stroke:none"
               d="m 0,0 0,0 c 0,4.251 -0.244,7.354 -0.769,9.763 -0.608,2.793 -1.605,4.808 -3.139,6.341 -1.533,1.531 -3.549,2.526 -6.342,3.132 C -12.655,19.757 -15.753,20 -20,20 c -4.246,0 -7.345,-0.243 -9.75,-0.766 -2.793,-0.606 -4.809,-1.602 -6.342,-3.133 -0.16,-0.162 -0.312,-0.33 -0.461,-0.502 l -3.231,1.865 -2,-3.464 3.239,-1.87 C -38.813,11.406 -39.043,10.624 -39.231,9.759 -39.756,7.351 -40,4.25 -40,0 l 0,0 c 0,-4.313 0.234,-7.323 0.762,-9.759 0.603,-2.794 1.597,-4.809 3.127,-6.341 1.531,-1.533 3.546,-2.529 6.34,-3.135 2.408,-0.522 5.512,-0.765 9.771,-0.765 4.26,0 7.364,0.243 9.771,0.764 2.795,0.606 4.81,1.602 6.34,3.133 1.531,1.532 2.524,3.547 3.128,6.342 C -0.234,-7.325 0,-4.315 0,0 z"
               inkscape:connector-curvature="0" /></g><g
             transform="translate(136,108)"
             id="g5015"><path
               id="path5017"
               style="fill:#f2f2f2;fill-opacity:1;fill-rule:nonzero;stroke:none"
               d="M 0,0 0,4 4,8 0,12 0,16 8,8 0,0 z m -2,6 c -1.104,0 -2,0.896 -2,2 0,1.104 0.896,2 2,2 C -0.896,10 0,9.104 0,8 0,6.896 -0.896,6 -2,6 m -3.83,11.952 -1.63,-1.708 c -0.311,-0.326 -0.803,-0.325 -1.112,0.001 l -1.627,1.712 c -0.086,0.091 -0.078,0.242 0.014,0.326 0.581,0.532 1.339,0.854 2.168,0.854 0.832,0 1.592,-0.325 2.173,-0.859 0.092,-0.085 0.1,-0.235 0.014,-0.326 M -8,6 c -1.104,0 -2,0.896 -2,2 0,1.104 0.896,2 2,2 1.104,0 2,-0.896 2,-2 0,-1.104 -0.896,-2 -2,-2 m -6,0 c -1.104,0 -2,0.896 -2,2 0,1.104 0.896,2 2,2 1.104,0 2,-0.896 2,-2 0,-1.104 -0.896,-2 -2,-2 m -2,-6 -8,8 8,8 0,-4 -4,-4 4,-4 0,-4 z m 14.701,22.703 -2.04,-2.139 c -1.196,1.266 -2.851,2.05 -4.678,2.05 -1.821,0 -3.472,-0.78 -4.669,-2.039 l -2.035,2.143 c -0.168,0.177 -0.158,0.464 0.017,0.633 1.764,1.701 4.112,2.74 6.687,2.74 2.582,0 4.937,-1.045 6.703,-2.756 0.174,-0.168 0.183,-0.456 0.015,-0.632 m -6.718,6.865 c -3.642,0 -6.945,-1.559 -9.337,-4.078 l -1.726,1.817 c -0.333,0.351 -0.326,0.941 0.024,1.273 2.928,2.774 6.799,4.466 11.039,4.466 4.252,0 8.134,-1.702 11.064,-4.491 0.356,-0.339 0.362,-0.916 0.021,-1.273 L 1.34,25.469 C -1.055,28 -4.364,29.568 -8.017,29.568 m -15.715,3.929 C -19.604,37.53 -14.08,40 -8.017,40 -1.937,40 3.602,37.516 7.733,33.462 8.082,33.119 8.089,32.546 7.751,32.191 L 6.018,30.375 c -3.59,3.795 -8.556,6.148 -14.035,6.148 -5.463,0 -10.418,-2.34 -14.005,-6.118 l -1.73,1.821 c -0.338,0.356 -0.33,0.929 0.02,1.271 M 24,36.469 c 0.125,-0.241 0.26,-0.477 0.379,-0.722 l 6.44,3.512 -1.916,3.512 -6.48,-3.534 c 0.109,-0.173 0.208,-0.353 0.315,-0.527 L -8,56 -38.738,38.71 c 0.107,0.174 0.205,0.354 0.315,0.526 l -6.48,3.535 -1.915,-3.512 6.439,-3.512 c 0.12,0.245 0.254,0.481 0.379,0.722 L -40,2 -8,-16 24,2 24,36.469 z"
               inkscape:connector-curvature="0" /></g><g
             transform="translate(22.7612,164.2412)"
             id="g5019"><path
               id="path5021"
               style="fill:#f2f2f2;fill-opacity:1;fill-rule:nonzero;stroke:none"
               d="m 0,0 c 0.604,-2.794 1.598,-4.81 3.128,-6.341 1.531,-1.533 3.545,-2.529 6.34,-3.135 2.408,-0.522 5.512,-0.765 9.771,-0.765 4.259,0 7.364,0.242 9.771,0.764 2.795,0.606 4.81,1.602 6.34,3.133 1.53,1.532 2.524,3.547 3.128,6.342 0.526,2.436 0.761,5.446 0.761,9.76 l 0,0.001 c 0,4.251 -0.244,7.353 -0.769,9.762 -0.207,0.952 -0.464,1.807 -0.767,2.589 l 3.32,1.917 -2,3.464 -3.39,-1.958 c -0.101,0.111 -0.197,0.224 -0.303,0.329 -1.533,1.532 -3.548,2.527 -6.342,3.133 -2.404,0.521 -5.502,0.764 -9.749,0.764 -4.246,0 -7.344,-0.243 -9.75,-0.766 C 6.696,28.387 4.681,27.391 3.147,25.859 1.613,24.327 0.616,22.312 0.007,19.518 -0.517,17.109 -0.761,14.008 -0.761,9.759 l 0,-0.001 C -0.761,5.445 -0.526,2.436 0,0"
               inkscape:connector-curvature="0" /></g><g
             transform="translate(61.2388,72.2383)"
             id="g5023"><path
               id="path5025"
               style="fill:#f2f2f2;fill-opacity:1;fill-rule:nonzero;stroke:none"
               d="m 0,0 c 0.526,2.437 0.761,5.447 0.761,9.761 l 0,0.001 c 0,4.251 -0.244,7.353 -0.768,9.762 -0.609,2.794 -1.606,4.809 -3.14,6.341 -1.534,1.531 -3.549,2.527 -6.342,3.132 -2.405,0.522 -5.503,0.765 -9.75,0.765 -4.246,0 -7.344,-0.243 -9.75,-0.766 -2.793,-0.606 -4.808,-1.602 -6.341,-3.134 -1.534,-1.533 -2.532,-3.548 -3.14,-6.341 -0.525,-2.409 -0.769,-5.51 -0.769,-9.759 l 0,-0.001 c 0,-4.313 0.235,-7.322 0.761,-9.758 0.604,-2.795 1.599,-4.81 3.128,-6.341 1.531,-1.533 3.546,-2.529 6.341,-3.135 2.407,-0.522 5.512,-0.765 9.77,-0.765 4.26,0 7.364,0.243 9.771,0.764 2.796,0.606 4.81,1.601 6.341,3.133 0.103,0.103 0.196,0.214 0.294,0.32 l 3.378,-1.95 2,3.465 -3.309,1.911 C -0.461,-1.811 -0.206,-0.954 0,0"
               inkscape:connector-curvature="0" /></g></g></g></g></g></svg>