<?xml version="1.0" encoding="UTF-8" standalone="no"?>
<!-- Created with Inkscape (http://www.inkscape.org/) -->

<svg
   xmlns:dc="http://purl.org/dc/elements/1.1/"
   xmlns:cc="http://creativecommons.org/ns#"
   xmlns:rdf="http://www.w3.org/1999/02/22-rdf-syntax-ns#"
   xmlns:svg="http://www.w3.org/2000/svg"
   xmlns="http://www.w3.org/2000/svg"
   xmlns:sodipodi="http://sodipodi.sourceforge.net/DTD/sodipodi-0.dtd"
   xmlns:inkscape="http://www.inkscape.org/namespaces/inkscape"
   id="svg3131"
   version="1.1"
   inkscape:version="0.48.5 r10040"
   width="256"
   height="256"
   xml:space="preserve"
   sodipodi:docname="netplay - rooms-locked.pdf"><metadata
     id="metadata3137"><rdf:RDF><cc:Work
         rdf:about=""><dc:format>image/svg+xml</dc:format><dc:type
           rdf:resource="http://purl.org/dc/dcmitype/StillImage" /><dc:title></dc:title></cc:Work></rdf:RDF></metadata><defs
     id="defs3135"><clipPath
       clipPathUnits="userSpaceOnUse"
       id="clipPath3145"><path
         d="M 0,256 256,256 256,0 0,0 0,256 z"
         id="path3147"
         inkscape:connector-curvature="0" /></clipPath></defs><sodipodi:namedview
     pagecolor="#ffffff"
     bordercolor="#666666"
     borderopacity="1"
     objecttolerance="10"
     gridtolerance="10"
     guidetolerance="10"
     inkscape:pageopacity="0"
     inkscape:pageshadow="2"
     inkscape:window-width="1676"
     inkscape:window-height="1005"
     id="namedview3133"
     showgrid="false"
     inkscape:zoom="2.61875"
     inkscape:cx="112.07637"
     inkscape:cy="160"
     inkscape:window-x="4"
     inkscape:window-y="1"
     inkscape:window-maximized="1"
     inkscape:current-layer="g3139" /><g
     id="g3139"
     inkscape:groupmode="layer"
     inkscape:label="netplay - rooms-locked"
     transform="matrix(1.25,0,0,-1.25,0,256)"><g
       id="g3141"
       transform="matrix(0.79999897,0,0,0.79999897,1.3184e-4,4.1183964e-4)"><g
         id="g3143"
         clip-path="url(#clipPath3145)"><g
           id="g3149"
           transform="translate(144.0918,48.1035)"><path
             d="m 0,0 c -1.533,1.531 -3.549,2.526 -6.342,3.132 -2.405,0.521 -5.503,0.764 -9.75,0.764 -4.246,0 -7.344,-0.243 -9.75,-0.765 -2.793,-0.607 -4.808,-1.603 -6.341,-3.134 -1.534,-1.533 -2.532,-3.548 -3.14,-6.341 -0.525,-2.409 -0.769,-5.51 -0.769,-9.76 0,-4.313 0.235,-7.322 0.761,-9.758 0.604,-2.795 1.599,-4.81 3.128,-6.341 1.531,-1.533 3.546,-2.529 6.341,-3.135 2.407,-0.522 5.512,-0.766 9.77,-0.766 4.26,0 7.364,0.244 9.772,0.765 2.795,0.606 4.809,1.601 6.34,3.133 1.53,1.531 2.523,3.546 3.127,6.341 0.527,2.436 0.761,5.447 0.761,9.761 0,4.251 -0.244,7.354 -0.768,9.763 C 2.531,-3.547 1.534,-1.532 0,0"
             style="fill:#f2f2f2;fill-opacity:1;fill-rule:nonzero;stroke:none"
             id="path3151"
             inkscape:connector-curvature="0" /></g><g
           id="g3153"
           transform="translate(25.8892,157.8999)"><path
             d="m 0,0 c 1.531,-1.533 3.545,-2.529 6.34,-3.135 2.408,-0.522 5.513,-0.765 9.771,-0.765 4.259,0 7.364,0.243 9.771,0.764 2.795,0.606 4.81,1.602 6.34,3.134 1.53,1.531 2.524,3.546 3.128,6.341 0.526,2.436 0.761,5.446 0.761,9.761 0,4.251 -0.244,7.353 -0.769,9.763 -0.608,2.793 -1.606,4.808 -3.14,6.341 -1.533,1.531 -3.548,2.526 -6.342,3.132 -2.404,0.521 -5.502,0.764 -9.749,0.764 -4.246,0 -7.344,-0.243 -9.75,-0.766 C 3.568,34.728 1.553,33.732 0.02,32.201 -1.515,30.668 -2.512,28.653 -3.121,25.859 -3.645,23.451 -3.889,20.349 -3.889,16.1 c 0,-4.313 0.235,-7.323 0.761,-9.759 C -2.524,3.547 -1.53,1.532 0,0"
             style="fill:#f2f2f2;fill-opacity:1;fill-rule:nonzero;stroke:none"
             id="path3155"
             inkscape:connector-curvature="0" /></g><g
           id="g3157"
           transform="translate(197.8887,157.8999)"><path
             d="m 0,0 c 1.531,-1.533 3.546,-2.529 6.341,-3.135 2.407,-0.522 5.512,-0.765 9.77,-0.765 4.26,0 7.365,0.243 9.772,0.764 2.795,0.606 4.809,1.602 6.34,3.134 1.53,1.531 2.523,3.546 3.128,6.341 0.526,2.436 0.76,5.446 0.76,9.761 0,4.251 -0.244,7.353 -0.768,9.763 -0.609,2.793 -1.606,4.808 -3.14,6.341 -1.533,1.531 -3.549,2.526 -6.342,3.132 -2.405,0.521 -5.503,0.764 -9.75,0.764 -4.246,0 -7.344,-0.243 -9.75,-0.766 C 3.568,34.728 1.553,33.732 0.02,32.201 -1.515,30.668 -2.512,28.653 -3.12,25.859 -3.645,23.451 -3.889,20.349 -3.889,16.1 c 0,-4.313 0.235,-7.323 0.762,-9.759 C -2.523,3.547 -1.529,1.532 0,0"
             style="fill:#f2f2f2;fill-opacity:1;fill-rule:nonzero;stroke:none"
             id="path3159"
             inkscape:connector-curvature="0" /></g><g
           id="g3161"
           transform="translate(126,84)"><path
             d="M 0,0 4,0 4,8 2,8 0,8 0,0 z"
             style="fill:#f2f2f2;fill-opacity:1;fill-rule:nonzero;stroke:none"
             id="path3163"
             inkscape:connector-curvature="0" /></g><g
           id="g3165"
           transform="translate(130,60)"><path
             d="m 0,0 -4,0 0,-8 2,0 2,0 0,8 z"
             style="fill:#f2f2f2;fill-opacity:1;fill-rule:nonzero;stroke:none"
             id="path3167"
             inkscape:connector-curvature="0" /></g><path
           d="m 130,76 -4,0 0,-8 4,0 0,8 z"
           style="fill:#f2f2f2;fill-opacity:1;fill-rule:nonzero;stroke:none"
           id="path3169"
           inkscape:connector-curvature="0" /><g
           id="g3171"
           transform="translate(84.0737,154.6016)"><path
             d="M 0,0 -7.023,3.831 -8.939,0.319 -1.916,-3.512 0,0 z"
             style="fill:#f2f2f2;fill-opacity:1;fill-rule:nonzero;stroke:none"
             id="path3173"
             inkscape:connector-curvature="0" /></g><g
           id="g3175"
           transform="translate(68.1118,158.752)"><path
             d="M 0,0 1.915,3.512 -5.108,7.342 -7.023,3.83 0,0 z"
             style="fill:#f2f2f2;fill-opacity:1;fill-rule:nonzero;stroke:none"
             id="path3177"
             inkscape:connector-curvature="0" /></g><g
           id="g3179"
           transform="translate(194.9121,162.582)"><path
             d="M 0,0 -1.916,3.512 -8.939,-0.318 -7.023,-3.83 0,0 z"
             style="fill:#f2f2f2;fill-opacity:1;fill-rule:nonzero;stroke:none"
             id="path3181"
             inkscape:connector-curvature="0" /></g><g
           id="g3183"
           transform="translate(180.8652,154.9209)"><path
             d="M 0,0 -1.916,3.512 -8.939,-0.319 -7.023,-3.831 0,0 z"
             style="fill:#f2f2f2;fill-opacity:1;fill-rule:nonzero;stroke:none"
             id="path3185"
             inkscape:connector-curvature="0" /></g><g
           id="g3187"
           transform="translate(128,146.0361)"><path
             d="m 0,0 c -5.347,0 -9.697,-4.34 -9.697,-9.675 l 0,-5.964 9.697,0 9.697,0 0,5.964 C 9.697,-4.34 5.348,0 0,0"
             style="fill:#f2f2f2;fill-opacity:1;fill-rule:nonzero;stroke:none"
             id="path3189"
             inkscape:connector-curvature="0" /></g><g
           id="g3191"
           transform="translate(146,109.5908)"><path
             d="m 0,0 c 0,-0.879 -0.714,-1.591 -1.594,-1.591 l -32.812,0 C -35.286,-1.591 -36,-0.879 -36,0 l 0,19.216 c 0,0.879 0.714,1.591 1.594,1.591 l 0.731,0 0,5.964 c 0,8.637 7.018,15.638 15.675,15.638 8.657,0 15.676,-7.001 15.676,-15.638 l 0,-5.964 0.73,0 C -0.714,20.807 0,20.095 0,19.216 L 0,0 z m 87.231,-17.828 c -0.608,2.794 -1.605,4.808 -3.139,6.341 -1.533,1.531 -3.549,2.526 -6.342,3.132 -2.405,0.521 -5.503,0.764 -9.75,0.764 -4.246,0 -7.345,-0.243 -9.75,-0.765 -2.793,-0.607 -4.809,-1.603 -6.342,-3.134 -1.176,-1.175 -2.034,-2.637 -2.645,-4.511 L 16.8,1.706 c 0.824,4.233 1.2,9.433 1.2,16.702 0,7.342 -0.41,12.767 -1.276,17.027 l 4.095,2.233 -1.916,3.512 -3.22,-1.757 c -1.098,3.306 -2.632,5.889 -4.718,7.972 -2.76,2.756 -6.388,4.548 -11.415,5.638 -3.939,0.854 -8.928,1.289 -15.55,1.362 l 0,40.037 c 3.251,0.067 5.76,0.306 7.771,0.741 2.795,0.606 4.81,1.602 6.34,3.134 1.531,1.531 2.524,3.546 3.128,6.341 0.527,2.436 0.761,5.446 0.761,9.761 0,4.251 -0.244,7.353 -0.769,9.763 -0.608,2.793 -1.605,4.808 -3.139,6.341 -1.533,1.531 -3.549,2.526 -6.342,3.132 -2.405,0.522 -5.503,0.764 -9.75,0.764 -4.246,0 -7.344,-0.243 -9.75,-0.765 -2.793,-0.607 -4.808,-1.602 -6.341,-3.134 -1.534,-1.533 -2.532,-3.548 -3.14,-6.342 -0.525,-2.408 -0.769,-5.51 -0.769,-9.759 0,-4.313 0.235,-7.323 0.761,-9.759 0.604,-2.794 1.598,-4.809 3.128,-6.341 1.531,-1.533 3.546,-2.529 6.34,-3.135 2.012,-0.436 4.521,-0.674 7.771,-0.742 l 0,-40.037 c -6.621,-0.073 -11.61,-0.508 -15.55,-1.364 -5.028,-1.091 -8.655,-2.884 -11.415,-5.641 -2.085,-2.083 -3.618,-4.664 -4.716,-7.968 l -3.222,1.758 -1.915,-3.512 4.095,-2.234 C -53.59,31.175 -54,25.75 -54,18.408 -54,11.14 -53.624,5.94 -52.798,1.706 l -32.464,-17.707 c -0.612,1.876 -1.47,3.339 -2.647,4.514 -1.533,1.531 -3.548,2.526 -6.341,3.132 -2.405,0.521 -5.503,0.764 -9.75,0.764 -4.246,0 -7.344,-0.243 -9.75,-0.765 -2.793,-0.607 -4.808,-1.603 -6.341,-3.134 -1.534,-1.533 -2.532,-3.548 -3.14,-6.341 -0.525,-2.409 -0.769,-5.511 -0.769,-9.761 0,-4.312 0.235,-7.321 0.761,-9.758 0.604,-2.795 1.598,-4.809 3.128,-6.34 1.531,-1.534 3.546,-2.53 6.34,-3.135 2.408,-0.523 5.513,-0.766 9.771,-0.766 4.259,0 7.364,0.243 9.771,0.765 2.795,0.605 4.81,1.6 6.34,3.133 1.531,1.531 2.524,3.546 3.128,6.34 0.526,2.437 0.761,5.448 0.761,9.761 0,3.037 -0.127,5.48 -0.39,7.511 l 32.599,17.78 c 1.099,-3.446 2.65,-6.126 4.791,-8.27 2.756,-2.758 6.382,-4.551 11.413,-5.643 4.334,-0.939 9.922,-1.377 17.587,-1.377 7.667,0 13.256,0.438 17.588,1.376 5.031,1.09 8.658,2.882 11.413,5.64 2.142,2.143 3.693,4.825 4.792,8.273 l 32.597,-17.78 c -0.263,-2.03 -0.39,-4.473 -0.39,-7.51 0,-4.312 0.234,-7.321 0.762,-9.758 0.603,-2.795 1.597,-4.809 3.127,-6.34 1.531,-1.534 3.546,-2.53 6.34,-3.135 2.408,-0.523 5.512,-0.766 9.771,-0.766 4.26,0 7.364,0.243 9.771,0.765 2.795,0.605 4.81,1.6 6.34,3.133 1.531,1.531 2.524,3.546 3.128,6.34 0.527,2.437 0.761,5.448 0.761,9.761 0,4.252 -0.244,7.355 -0.769,9.764"
             style="fill:#f2f2f2;fill-opacity:1;fill-rule:nonzero;stroke:none"
             id="path3193"
             inkscape:connector-curvature="0" /></g></g></g></g></svg>