<?xml version="1.0" encoding="UTF-8" standalone="no"?>
<!-- Generator: Adobe Illustrator 16.0.0, SVG Export Plug-In . SVG Version: 6.00 Build 0)  -->

<svg
   xmlns:dc="http://purl.org/dc/elements/1.1/"
   xmlns:cc="http://creativecommons.org/ns#"
   xmlns:rdf="http://www.w3.org/1999/02/22-rdf-syntax-ns#"
   xmlns:svg="http://www.w3.org/2000/svg"
   xmlns="http://www.w3.org/2000/svg"
   xmlns:sodipodi="http://sodipodi.sourceforge.net/DTD/sodipodi-0.dtd"
   xmlns:inkscape="http://www.inkscape.org/namespaces/inkscape"
   version="1.1"
   id="svg2"
   inkscape:export-filename="/home/kivutar/Bureau/lakka-menu/reload.png"
   inkscape:export-xdpi="90"
   inkscape:version="0.48.5 r10040"
   inkscape:export-ydpi="90"
   sodipodi:docname="Nintendo - Nintendo 64DD.svg"
   x="0px"
   y="0px"
   width="256"
   height="256"
   viewBox="0 128 256 256"
   enable-background="new 0 128 64 64"
   xml:space="preserve"><metadata
     id="metadata3325"><rdf:RDF><cc:Work
         rdf:about=""><dc:format>image/svg+xml</dc:format><dc:type
           rdf:resource="http://purl.org/dc/dcmitype/StillImage" /></cc:Work></rdf:RDF></metadata><defs
     id="defs3323" /><sodipodi:namedview
     pagecolor="#ffffff"
     bordercolor="#666666"
     borderopacity="1"
     objecttolerance="10"
     gridtolerance="10"
     guidetolerance="10"
     inkscape:pageopacity="0"
     inkscape:pageshadow="2"
     inkscape:window-width="1676"
     inkscape:window-height="1005"
     id="namedview3321"
     showgrid="false"
     inkscape:zoom="13.09375"
     inkscape:cx="22.415274"
     inkscape:cy="32"
     inkscape:window-x="4"
     inkscape:window-y="1"
     inkscape:window-maximized="1"
     inkscape:current-layer="svg2" /><path
     id="N64"
     d="m 244.91477,202.96129 -0.047,0.0513 c -0.64566,-14.69639 -8.5818,-25.59146 -20.14393,-33.10857 0.14538,-0.13683 0.29076,-0.29076 0.39766,-0.46607 0.61574,-1.02623 0.28221,-2.36032 -0.74401,-2.97606 -7.89338,-4.74628 -17.62113,-7.35888 -24.24456,-8.90677 -6.20438,-1.45382 -13.35802,-2.6639 -21.11457,-3.63453 l -3.38226,-8.11145 -0.0513,0.27366 c -0.3207,-1.98831 -2.24059,-2.92474 -4.28877,-3.74572 -10.81384,-4.3358 -26.24569,-6.06328 -43.29385,-6.06328 -17.04815,0 -32.480001,1.72748 -43.302394,6.059 -1.962654,0.7825 -4.151933,1.71465 -4.361454,3.54047 l -3.35661,8.04304 c -7.747995,0.97064 -14.89736,2.18073 -21.11457,3.63453 -0.05986,0.009 -0.106898,0.0257 -0.153934,0.0428 -1.488025,0.3934 -17.210641,4.70781 -24.099173,8.86829 -1.026225,0.6243 -1.355472,1.95411 -0.735461,2.97178 0.102622,0.17531 0.243728,0.3378 0.38911,0.47463 -11.553628,7.50854 -19.489765,18.41646 -20.135431,33.10002 l -0.04704,-0.0513 C 6.3004558,217.31561 4.0000024,237.3612 4.0000024,256 c 0,32.51422 7.7479946,63.54896 24.8004266,63.54896 13.952378,0 23.92386,-41.54498 28.08007,-60.19234 l 19.151916,4.22035 c 22.038172,5.25084 17.869135,112.14923 51.969715,112.14923 34.10059,0 29.93155,-106.89839 51.9569,-112.14924 l 19.16474,-4.22035 c 4.15621,18.64736 14.12769,60.19235 28.0758,60.19235 17.04815,0 24.80042,-31.03902 24.80042,-63.54896 0.004,-18.6388 -2.29617,-38.68439 -7.08522,-53.03871 z m -172.499797,6.00342 c 0,2.36459 -1.911343,4.27593 -4.275936,4.27593 h -8.551871 v 8.55187 c 0,2.3646 -1.911343,4.27594 -4.275936,4.27594 h -4.275935 c -2.364593,0 -4.275936,-1.91134 -4.275936,-4.27594 v -8.55187 h -8.551871 c -2.364593,0 -4.275936,-1.91134 -4.275936,-4.27593 v -4.27593 c 0,-2.36459 1.911343,-4.27593 4.275936,-4.27593 h 8.551871 v -8.55187 c 0,-2.3646 1.911343,-4.27594 4.275936,-4.27594 h 4.275935 c 2.364593,0 4.275936,1.91134 4.275936,4.27594 v 8.55187 h 8.551871 c 2.364593,0 4.275936,1.91134 4.275936,4.27593 v 4.27593 z M 211.38288,179.03316 c 3.54048,0 6.4139,2.87343 6.4139,6.4139 0,3.54048 -2.87342,6.41391 -6.4139,6.41391 -3.54047,0 -6.4139,-2.87343 -6.4139,-6.41391 0,-3.54047 2.87343,-6.4139 6.4139,-6.4139 z m -12.82781,12.82781 c 3.54048,0 6.41391,2.87342 6.41391,6.4139 0,3.54047 -2.87343,6.41391 -6.41391,6.41391 -3.54047,0 -6.4139,-2.87344 -6.4139,-6.41391 0,-3.54048 2.87343,-6.4139 6.4139,-6.4139 z m -70.55294,12.8278 c 4.72064,0 8.55188,3.83124 8.55188,8.55187 0,4.72064 -3.83124,8.55187 -8.55188,8.55187 -4.72063,0 -8.55187,-3.83123 -8.55187,-8.55187 0,-4.72063 3.83124,-8.55187 8.55187,-8.55187 z m 12.09663,71.95972 -12.09663,5.00712 -12.09662,-5.00712 -5.00712,-12.09662 5.00712,-12.09661 12.09662,-5.00712 12.09663,5.00712 5.00712,12.09661 -5.00712,12.09662 z m 37.07664,-50.58004 c -5.90507,0 -10.68984,-4.78477 -10.68984,-10.68984 0,-5.90507 4.78477,-10.68984 10.68984,-10.68984 5.90506,0 10.68983,4.78477 10.68983,10.68984 0,5.90507 -4.78477,10.68984 -10.68983,10.68984 z m 17.10374,17.10374 c -5.90507,0 -10.68984,-4.78477 -10.68984,-10.68984 0,-5.90506 4.78477,-10.68984 10.68984,-10.68984 5.90507,0 10.68984,4.78478 10.68984,10.68984 0,5.90507 -4.78477,10.68984 -10.68984,10.68984 z m 17.10374,-25.65561 c -3.54047,0 -6.4139,-2.87343 -6.4139,-6.4139 0,-3.54048 2.87343,-6.41391 6.4139,-6.41391 3.54048,0 6.4139,2.87343 6.4139,6.41391 0,3.54047 -2.87342,6.4139 -6.4139,6.4139 z m 12.82781,-12.82781 c -3.54048,0 -6.41391,-2.87343 -6.41391,-6.4139 0,-3.54048 2.87343,-6.4139 6.41391,-6.4139 3.54047,0 6.4139,2.87342 6.4139,6.4139 0,3.54047 -2.87343,6.4139 -6.4139,6.4139 z M 128.00213,256 c -4.72063,0 -8.55187,3.83124 -8.55187,8.55187 0,4.72064 3.83124,8.55187 8.55187,8.55187 4.72064,0 8.55188,-3.83123 8.55188,-8.55187 0,-4.72062 -3.83124,-8.55187 -8.55188,-8.55187 z"
     inkscape:connector-curvature="0"
     style="fill:#f2f2f2" /></svg>