<?xml version="1.0" encoding="utf-8"?>
<!-- Generator: Adobe Illustrator 16.0.0, SVG Export Plug-In . SVG Version: 6.00 Build 0)  -->
<!DOCTYPE svg PUBLIC "-//W3C//DTD SVG 1.1//EN" "http://www.w3.org/Graphics/SVG/1.1/DTD/svg11.dtd">
<svg version="1.1"
	 id="svg2" inkscape:export-filename="/home/kivutar/Bureau/lakka-menu/reload.png" inkscape:export-xdpi="90" inkscape:version="0.48.4 r9939" inkscape:export-ydpi="90" sodipodi:docname="reload.svg" xmlns:svg="http://www.w3.org/2000/svg" xmlns:cc="http://creativecommons.org/ns#" xmlns:sodipodi="http://sodipodi.sourceforge.net/DTD/sodipodi-0.dtd" xmlns:rdf="http://www.w3.org/1999/02/22-rdf-syntax-ns#" xmlns:dc="http://purl.org/dc/elements/1.1/" xmlns:inkscape="http://www.inkscape.org/namespaces/inkscape"
	 xmlns="http://www.w3.org/2000/svg" xmlns:xlink="http://www.w3.org/1999/xlink" x="0px" y="0px" width="64px" height="64px"
	 viewBox="0 128 64 64" enable-background="new 0 128 64 64" xml:space="preserve">
<path id="Game_Boy_1_" fill="#F2F2F2" d="M52,138h-3v-1c0-0.553-0.447-1-1-1H12c-0.553,0-1,0.447-1,1v23h1v24h40v-24h1v-21
	C53,138.447,52.553,138,52,138z M32,183l-3-4h6L32,183z M48,177c0,0.553-0.447,1-1,1H17c-0.553,0-1-0.447-1-1v-26
	c0-0.553,0.447-1,1-1h30c0.553,0,1,0.447,1,1V177z M44,147H20c-2.209,0-4-1.791-4-4s1.791-4,4-4h24c2.209,0,4,1.791,4,4
	S46.209,147,44,147z M44,141H20c-1.104,0-2,0.896-2,2s0.896,2,2,2h24c1.104,0,2-0.896,2-2S45.104,141,44,141z M45,152H19
	c-0.553,0-1,0.447-1,1v22c0,0.553,0.447,1,1,1h26c0.553,0,1-0.447,1-1v-22C46,152.447,45.553,152,45,152z"/>
</svg>
