<?xml version="1.0" encoding="UTF-8" standalone="no"?>
<!-- Created with Inkscape (http://www.inkscape.org/) -->

<svg
   xmlns:dc="http://purl.org/dc/elements/1.1/"
   xmlns:cc="http://creativecommons.org/ns#"
   xmlns:rdf="http://www.w3.org/1999/02/22-rdf-syntax-ns#"
   xmlns:svg="http://www.w3.org/2000/svg"
   xmlns="http://www.w3.org/2000/svg"
   xmlns:sodipodi="http://sodipodi.sourceforge.net/DTD/sodipodi-0.dtd"
   xmlns:inkscape="http://www.inkscape.org/namespaces/inkscape"
   id="svg4498"
   version="1.1"
   inkscape:version="0.48.5 r10040"
   width="64"
   height="64"
   xml:space="preserve"
   sodipodi:docname="Nintendo - Nintendo 3DS.svg"
   inkscape:export-filename="/Users/margetts/Desktop/Icon Workshop/Monochrome Plus June/png/Nintendo - Nintendo 3DS.png"
   inkscape:export-xdpi="360"
   inkscape:export-ydpi="360"><metadata
     id="metadata4504"><rdf:RDF><cc:Work
         rdf:about=""><dc:format>image/svg+xml</dc:format><dc:type
           rdf:resource="http://purl.org/dc/dcmitype/StillImage" /><dc:title></dc:title></cc:Work></rdf:RDF></metadata><defs
     id="defs4502"><clipPath
       clipPathUnits="userSpaceOnUse"
       id="clipPath4512"><path
         d="M 0,64 64,64 64,0 0,0 0,64 z"
         id="path4514"
         inkscape:connector-curvature="0" /></clipPath></defs><sodipodi:namedview
     pagecolor="#ffffff"
     bordercolor="#666666"
     borderopacity="1"
     objecttolerance="10"
     gridtolerance="10"
     guidetolerance="10"
     inkscape:pageopacity="0"
     inkscape:pageshadow="2"
     inkscape:window-width="1676"
     inkscape:window-height="1005"
     id="namedview4500"
     showgrid="false"
     inkscape:zoom="3.8"
     inkscape:cx="6.9736842"
     inkscape:cy="40"
     inkscape:window-x="4"
     inkscape:window-y="1"
     inkscape:window-maximized="1"
     inkscape:current-layer="g4506" /><g
     id="g4506"
     inkscape:groupmode="layer"
     inkscape:label="Nintendo - Nintendo 3DS"
     transform="matrix(1.25,0,0,-1.25,0,64)"><g
       id="g4508"
       transform="scale(0.8,0.8)"><g
         id="g4510"
         clip-path="url(#clipPath4512)"><g
           id="g4516"
           transform="translate(55,23.5)"><path
             d="M 0,0 C 0,-0.828 -0.672,-1.5 -1.5,-1.5 -2.328,-1.5 -3,-0.828 -3,0 -3,0.828 -2.328,1.5 -1.5,1.5 -0.672,1.5 0,0.828 0,0 m -4.5,-4.5 c -0.828,0 -1.5,0.672 -1.5,1.5 0,0.828 0.672,1.5 1.5,1.5 0.828,0 1.5,-0.672 1.5,-1.5 0,-0.828 -0.672,-1.5 -1.5,-1.5 m -1.5,-12 c -0.553,0 -1,0.447 -1,1 0,0.553 0.447,1 1,1 0.553,0 1,-0.447 1,-1 0,-0.553 -0.447,-1 -1,-1 M -9,0 c 0,0.828 0.672,1.5 1.5,1.5 C -6.672,1.5 -6,0.828 -6,0 -6,-0.828 -6.672,-1.5 -7.5,-1.5 -8.328,-1.5 -9,-0.828 -9,0 m -1,-14.5 -26,0 0,20 26,0 0,-20 z m 0,-3 -8,0 0,2 8,0 0,-2 z m -9,0 -8,0 0,2 8,0 0,-2 z m -9,0 -8,0 0,2 8,0 0,-2 z m -13,16 c -1.657,0 -3,1.343 -3,3 0,1.657 1.343,3 3,3 1.657,0 3,-1.343 3,-3 0,-1.657 -1.343,-3 -3,-3 m 3,-7 -2,0 0,-2 -2,0 0,2 -2,0 0,2 2,0 0,2 2,0 0,-2 2,0 0,-2 z m -1,40 32,0 0,-20 -32,0 0,20 z m 16,3 c 0.552,0 1,-0.448 1,-1 0,-0.552 -0.448,-1 -1,-1 -0.552,0 -1,0.448 -1,1 0,0.552 0.448,1 1,1 M -4.5,4.5 C -3.672,4.5 -3,3.828 -3,3 -3,2.172 -3.672,1.5 -4.5,1.5 -5.328,1.5 -6,2.172 -6,3 c 0,0.828 0.672,1.5 1.5,1.5 m 5.5,13 0,15 c 0,1.657 -1.343,3 -3,3 l -42,0 c -1.657,0 -3,-1.343 -3,-3 L -47,11 c 0,-0.276 0.224,-0.5 0.5,-0.5 l 1.5,0 c -1.028,0 -2,-0.972 -2,-2 l 0,-24 c 0,-1.657 1.343,-3 3,-3 l 42,0 c 1.657,0 3,1.343 3,3 l 0,24 c 0,1.028 -0.972,2 -2,2 l 1.5,0 C 0.776,10.5 1,10.724 1,11 l 0,5.5 -1,0 0,1 1,0 z"
             style="fill:#f2f2f2;fill-opacity:1;fill-rule:nonzero;stroke:none"
             id="path4518"
             inkscape:connector-curvature="0" /></g></g></g></g></svg>