<?xml version="1.0" encoding="UTF-8" standalone="no"?>
<!-- Created with Inkscape (http://www.inkscape.org/) -->

<svg
   xmlns:dc="http://purl.org/dc/elements/1.1/"
   xmlns:cc="http://creativecommons.org/ns#"
   xmlns:rdf="http://www.w3.org/1999/02/22-rdf-syntax-ns#"
   xmlns:svg="http://www.w3.org/2000/svg"
   xmlns="http://www.w3.org/2000/svg"
   xmlns:sodipodi="http://sodipodi.sourceforge.net/DTD/sodipodi-0.dtd"
   xmlns:inkscape="http://www.inkscape.org/namespaces/inkscape"
   id="svg4903"
   version="1.1"
   inkscape:version="0.48.5 r10040"
   width="64"
   height="64"
   xml:space="preserve"
   sodipodi:docname="Nintendo - Wii U.svg"
   inkscape:export-filename="/Users/margetts/Desktop/Icon Workshop/Monochrome Plus June/png/Nintendo - Wii U.png"
   inkscape:export-xdpi="360"
   inkscape:export-ydpi="360"><metadata
     id="metadata4909"><rdf:RDF><cc:Work
         rdf:about=""><dc:format>image/svg+xml</dc:format><dc:type
           rdf:resource="http://purl.org/dc/dcmitype/StillImage" /><dc:title></dc:title></cc:Work></rdf:RDF></metadata><defs
     id="defs4907"><clipPath
       clipPathUnits="userSpaceOnUse"
       id="clipPath4917"><path
         d="M 0,64 64,64 64,0 0,0 0,64 z"
         id="path4919"
         inkscape:connector-curvature="0" /></clipPath></defs><sodipodi:namedview
     pagecolor="#ffffff"
     bordercolor="#666666"
     borderopacity="1"
     objecttolerance="10"
     gridtolerance="10"
     guidetolerance="10"
     inkscape:pageopacity="0"
     inkscape:pageshadow="2"
     inkscape:window-width="1676"
     inkscape:window-height="1005"
     id="namedview4905"
     showgrid="false"
     inkscape:zoom="3.8"
     inkscape:cx="6.9736842"
     inkscape:cy="40"
     inkscape:window-x="4"
     inkscape:window-y="1"
     inkscape:window-maximized="1"
     inkscape:current-layer="g4911" /><g
     id="g4911"
     inkscape:groupmode="layer"
     inkscape:label="Nintendo - Wii U"
     transform="matrix(1.25,0,0,-1.25,0,64)"><g
       id="g4913"
       transform="scale(0.8,0.8)"><g
         id="g4915"
         clip-path="url(#clipPath4917)"><g
           id="g4921"
           transform="translate(54.5,37)"><path
             d="M 0,0 C -1.381,0 -2.5,1.119 -2.5,2.5 -2.5,3.881 -1.381,5 0,5 1.381,5 2.5,3.881 2.5,2.5 2.5,1.119 1.381,0 0,0 m -0.5,-5 c -0.553,0 -1,0.448 -1,1 0,0.552 0.447,1 1,1 0.553,0 1,-0.448 1,-1 0,-0.552 -0.447,-1 -1,-1 m -2,-2 c -0.553,0 -1,0.447 -1,1 0,0.552 0.447,1 1,1 0.553,0 1,-0.448 1,-1 0,-0.553 -0.447,-1 -1,-1 m -2,2 c -0.553,0 -1,0.448 -1,1 0,0.552 0.447,1 1,1 0.553,0 1,-0.448 1,-1 0,-0.552 -0.447,-1 -1,-1 M -5,-10 c -0.276,0 -0.5,0.224 -0.5,0.5 0,0.276 0.224,0.5 0.5,0.5 0.276,0 0.5,-0.224 0.5,-0.5 0,-0.276 -0.224,-0.5 -0.5,-0.5 m 0,-2 c -0.276,0 -0.5,0.224 -0.5,0.5 0,0.276 0.224,0.5 0.5,0.5 0.276,0 0.5,-0.224 0.5,-0.5 0,-0.276 -0.224,-0.5 -0.5,-0.5 m -2.5,-2 -30,0 0,18 30,0 0,-18 z M -8,-17 c -0.276,0 -0.5,0.224 -0.5,0.5 0,0.276 0.224,0.5 0.5,0.5 0.276,0 0.5,-0.224 0.5,-0.5 0,-0.276 -0.224,-0.5 -0.5,-0.5 m -3,0 c -0.276,0 -0.5,0.224 -0.5,0.5 0,0.276 0.224,0.5 0.5,0.5 0.276,0 0.5,-0.224 0.5,-0.5 0,-0.276 -0.224,-0.5 -0.5,-0.5 m -11.5,-1 c -0.827,0 -1.5,0.673 -1.5,1.5 0,0.827 0.673,1.5 1.5,1.5 0.827,0 1.5,-0.673 1.5,-1.5 0,-0.827 -0.673,-1.5 -1.5,-1.5 m -17,13 -2,0 0,-2 -2,0 0,2 -2,0 0,2 2,0 0,2 2,0 0,-2 2,0 0,-2 z m -8,7.5 c 0,1.381 1.119,2.5 2.5,2.5 1.381,0 2.5,-1.119 2.5,-2.5 0,-1.381 -1.119,-2.5 -2.5,-2.5 -1.381,0 -2.5,1.119 -2.5,2.5 m 25,5.5 c 0.552,0 1,-0.448 1,-1 0,-0.552 -0.448,-1 -1,-1 -0.552,0 -1,0.448 -1,1 0,0.552 0.448,1 1,1 m 20,-9 c 0.553,0 1,-0.448 1,-1 0,-0.552 -0.447,-1 -1,-1 -0.553,0 -1,0.448 -1,1 0,0.552 0.447,1 1,1 m 3,10 -46,0 c -2.2,0 -4,-1.8 -4,-4 l 0,-20 c 0,-2.2 1.8,-4 4,-4 l 46,0 c 2.2,0 4,1.8 4,4 l 0,20 c 0,2.2 -1.8,4 -4,4"
             style="fill:#f2f2f2;fill-opacity:1;fill-rule:nonzero;stroke:none"
             id="path4923"
             inkscape:connector-curvature="0" /></g></g></g></g></svg>