<?xml version="1.0" encoding="UTF-8" standalone="no"?>
<!-- Created with Inkscape (http://www.inkscape.org/) -->

<svg
   xmlns:dc="http://purl.org/dc/elements/1.1/"
   xmlns:cc="http://creativecommons.org/ns#"
   xmlns:rdf="http://www.w3.org/1999/02/22-rdf-syntax-ns#"
   xmlns:svg="http://www.w3.org/2000/svg"
   xmlns="http://www.w3.org/2000/svg"
   xmlns:sodipodi="http://sodipodi.sourceforge.net/DTD/sodipodi-0.dtd"
   xmlns:inkscape="http://www.inkscape.org/namespaces/inkscape"
   id="svg4434"
   version="1.1"
   inkscape:version="0.48.5 r10040"
   width="64"
   height="64"
   xml:space="preserve"
   sodipodi:docname="Nintendo - New Nintendo 3DS-content.svg"
   inkscape:export-filename="/Users/margetts/Desktop/Icon Workshop/Monochrome Plus June/png/Nintendo - New Nintendo 3DS-content.png"
   inkscape:export-xdpi="360"
   inkscape:export-ydpi="360"><metadata
     id="metadata4440"><rdf:RDF><cc:Work
         rdf:about=""><dc:format>image/svg+xml</dc:format><dc:type
           rdf:resource="http://purl.org/dc/dcmitype/StillImage" /><dc:title></dc:title></cc:Work></rdf:RDF></metadata><defs
     id="defs4438"><clipPath
       clipPathUnits="userSpaceOnUse"
       id="clipPath4448"><path
         d="M 0,64 64,64 64,0 0,0 0,64 z"
         id="path4450"
         inkscape:connector-curvature="0" /></clipPath></defs><sodipodi:namedview
     pagecolor="#ffffff"
     bordercolor="#666666"
     borderopacity="1"
     objecttolerance="10"
     gridtolerance="10"
     guidetolerance="10"
     inkscape:pageopacity="0"
     inkscape:pageshadow="2"
     inkscape:window-width="1676"
     inkscape:window-height="1005"
     id="namedview4436"
     showgrid="false"
     inkscape:zoom="3.8"
     inkscape:cx="6.9736842"
     inkscape:cy="40"
     inkscape:window-x="4"
     inkscape:window-y="1"
     inkscape:window-maximized="1"
     inkscape:current-layer="g4442" /><g
     id="g4442"
     inkscape:groupmode="layer"
     inkscape:label="Nintendo - New Nintendo 3DS-content"
     transform="matrix(1.25,0,0,-1.25,0,64)"><g
       id="g4444"
       transform="matrix(0.93913043,0,0,0.93913043,-4.4521738,-4.4521738)"><g
         id="g4446"
         clip-path="url(#clipPath4448)"><g
           id="g4452"
           transform="translate(46,49)"><path
             d="m 0,0 -30,0 c -0.553,0 -1,-0.447 -1,-1 l 0,-29 4,-4 27,0 c 0.553,0 1,0.447 1,1 L 1,-1 C 1,-0.447 0.553,0 0,0"
             style="fill:#f2f2f2;fill-opacity:1;fill-rule:nonzero;stroke:none"
             id="path4454"
             inkscape:connector-curvature="0" /></g><g
           id="g4456"
           transform="translate(49,14)"><path
             d="m 0,0 c 0,-0.553 -0.447,-1 -1,-1 l -30,0 -5,5 0,32 c 0,0.553 0.447,1 1,1 l 34,0 c 0.553,0 1,-0.447 1,-1 L 0,0 z m 5,41 -44,0 c -0.553,0 -1,-0.447 -1,-1 l 0,-39 c 0,-3.313 2.687,-6 6,-6 l 37,0 c 0.553,0 1,0.447 1,1 l 0,36 1,0 c 0.553,0 1,0.448 1,1 l 0,7 c 0,0.552 -0.447,1 -1,1"
             style="fill:#f2f2f2;fill-opacity:1;fill-rule:nonzero;stroke:none"
             id="path4458"
             inkscape:connector-curvature="0" /></g></g></g></g></svg>