<?xml version="1.0" encoding="UTF-8" standalone="no"?>
<!-- Created with Inkscape (http://www.inkscape.org/) -->

<svg
   xmlns:dc="http://purl.org/dc/elements/1.1/"
   xmlns:cc="http://creativecommons.org/ns#"
   xmlns:rdf="http://www.w3.org/1999/02/22-rdf-syntax-ns#"
   xmlns:svg="http://www.w3.org/2000/svg"
   xmlns="http://www.w3.org/2000/svg"
   xmlns:sodipodi="http://sodipodi.sourceforge.net/DTD/sodipodi-0.dtd"
   xmlns:inkscape="http://www.inkscape.org/namespaces/inkscape"
   id="svg4839"
   version="1.1"
   inkscape:version="0.48.5 r10040"
   width="64"
   height="64"
   xml:space="preserve"
   sodipodi:docname="Nintendo - Switch-content.svg"
   inkscape:export-filename="/Users/margetts/Desktop/Icon Workshop/Monochrome Plus June/png/Nintendo - Switch-content.png"
   inkscape:export-xdpi="360"
   inkscape:export-ydpi="360"><metadata
     id="metadata4845"><rdf:RDF><cc:Work
         rdf:about=""><dc:format>image/svg+xml</dc:format><dc:type
           rdf:resource="http://purl.org/dc/dcmitype/StillImage" /><dc:title></dc:title></cc:Work></rdf:RDF></metadata><defs
     id="defs4843"><clipPath
       clipPathUnits="userSpaceOnUse"
       id="clipPath4853"><path
         d="M 0,64 64,64 64,0 0,0 0,64 z"
         id="path4855"
         inkscape:connector-curvature="0" /></clipPath></defs><sodipodi:namedview
     pagecolor="#ffffff"
     bordercolor="#666666"
     borderopacity="1"
     objecttolerance="10"
     gridtolerance="10"
     guidetolerance="10"
     inkscape:pageopacity="0"
     inkscape:pageshadow="2"
     inkscape:window-width="1676"
     inkscape:window-height="1005"
     id="namedview4841"
     showgrid="false"
     inkscape:zoom="3.8"
     inkscape:cx="6.9736842"
     inkscape:cy="40"
     inkscape:window-x="4"
     inkscape:window-y="1"
     inkscape:window-maximized="1"
     inkscape:current-layer="g4847" /><g
     id="g4847"
     inkscape:groupmode="layer"
     inkscape:label="Nintendo - Switch-content"
     transform="matrix(1.25,0,0,-1.25,0,64)"><g
       id="g4849"
       transform="scale(0.8,0.8)"><g
         id="g4851"
         clip-path="url(#clipPath4853)"><g
           id="g4857"
           transform="translate(48,15)"><path
             d="m 0,0 c 0,-1.104 -0.896,-2 -2,-2 l -28,0 c -1.104,0 -2,0.896 -2,2 l 0,37 c 0,1.104 0.896,2 2,2 l 28,0 c 1.104,0 2,-0.896 2,-2 L 0,0 z m -16,-8 -3,3 6,0 -3,-3 z m -5.5,50 11,0 c 0.275,0 0.5,-0.225 0.5,-0.5 0,-0.275 -0.225,-0.5 -0.5,-0.5 l -11,0 c -0.275,0 -0.5,0.225 -0.5,0.5 0,0.275 0.225,0.5 0.5,0.5 M 0,44 -32,44 c -1.104,0 -2,-0.896 -2,-2 l 0,-50 c 0,-1.104 0.896,-2 2,-2 l 32,0 c 1.104,0 2,0.896 2,2 l 0,50 c 0,1.104 -0.896,2 -2,2"
             style="fill:#f2f2f2;fill-opacity:1;fill-rule:nonzero;stroke:none"
             id="path4859"
             inkscape:connector-curvature="0" /></g><g
           id="g4861"
           transform="translate(45,14)"><path
             d="m 0,0 -26,0 c -1.104,0 -2,0.896 -2,2 l 0,35 c 0,1.104 0.896,2 2,2 l 26,0 c 1.104,0 2,-0.896 2,-2 L 2,2 C 2,0.896 1.104,0 0,0"
             style="fill:#f2f2f2;fill-opacity:1;fill-rule:nonzero;stroke:none"
             id="path4863"
             inkscape:connector-curvature="0" /></g></g></g></g></svg>