<?xml version="1.0" encoding="utf-8"?>
<!-- Generator: Adobe Illustrator 16.0.0, SVG Export Plug-In . SVG Version: 6.00 Build 0)  -->
<!DOCTYPE svg PUBLIC "-//W3C//DTD SVG 1.1//EN" "http://www.w3.org/Graphics/SVG/1.1/DTD/svg11.dtd">
<svg version="1.1"
	 id="svg2" inkscape:export-filename="/home/kivutar/Bureau/lakka-menu/reload.png" inkscape:export-xdpi="90" inkscape:version="0.48.4 r9939" inkscape:export-ydpi="90" sodipodi:docname="reload.svg" xmlns:svg="http://www.w3.org/2000/svg" xmlns:cc="http://creativecommons.org/ns#" xmlns:sodipodi="http://sodipodi.sourceforge.net/DTD/sodipodi-0.dtd" xmlns:rdf="http://www.w3.org/1999/02/22-rdf-syntax-ns#" xmlns:dc="http://purl.org/dc/elements/1.1/" xmlns:inkscape="http://www.inkscape.org/namespaces/inkscape"
	 xmlns="http://www.w3.org/2000/svg" xmlns:xlink="http://www.w3.org/1999/xlink" x="0px" y="0px" width="64px" height="64px"
	 viewBox="0 128 64 64" enable-background="new 0 128 64 64" xml:space="preserve">
<path id="Virtual_Boy_2_" fill="#F2F2F2" d="M55,175v-34c0-1.627-1.372-3-3-3H12c-1.627,0-3,1.373-3,3v34c0,0.553,0.447,1,1,1
	c-0.553,0-1,0.447-1,1v2c0,1.627,1.373,3,3,3h40c1.628,0,3-1.373,3-3v-2c0-0.553-0.447-1-1-1C54.553,176,55,175.553,55,175z M32,175
	l-2-4h4L32,175z M46,165c0,0.553-0.447,1-1,1H19c-0.553,0-1-0.447-1-1v-20c0-0.553,0.447-1,1-1h26c0.553,0,1,0.447,1,1V165z M48,167
	c0,0.553-0.447,1-1,1H17c-0.553,0-1-0.447-1-1v-24c0-0.553,0.447-1,1-1h30c0.553,0,1,0.447,1,1V167z"/>
</svg>
