<?xml version="1.0" encoding="UTF-8" standalone="no"?>
<!-- Created with Inkscape (http://www.inkscape.org/) -->

<svg
   xmlns:dc="http://purl.org/dc/elements/1.1/"
   xmlns:cc="http://creativecommons.org/ns#"
   xmlns:rdf="http://www.w3.org/1999/02/22-rdf-syntax-ns#"
   xmlns:svg="http://www.w3.org/2000/svg"
   xmlns="http://www.w3.org/2000/svg"
   xmlns:sodipodi="http://sodipodi.sourceforge.net/DTD/sodipodi-0.dtd"
   xmlns:inkscape="http://www.inkscape.org/namespaces/inkscape"
   id="svg3004"
   version="1.1"
   inkscape:version="0.48.5 r10040"
   width="64"
   height="64"
   xml:space="preserve"
   sodipodi:docname="Nintendo - GameCube.pdf"><metadata
     id="metadata3010"><rdf:RDF><cc:Work
         rdf:about=""><dc:format>image/svg+xml</dc:format><dc:type
           rdf:resource="http://purl.org/dc/dcmitype/StillImage" /><dc:title></dc:title></cc:Work></rdf:RDF></metadata><defs
     id="defs3008"><clipPath
       clipPathUnits="userSpaceOnUse"
       id="clipPath3018"><path
         d="M 0,64 64,64 64,0 0,0 0,64 z"
         id="path3020"
         inkscape:connector-curvature="0" /></clipPath></defs><sodipodi:namedview
     pagecolor="#ffffff"
     bordercolor="#666666"
     borderopacity="1"
     objecttolerance="10"
     gridtolerance="10"
     guidetolerance="10"
     inkscape:pageopacity="0"
     inkscape:pageshadow="2"
     inkscape:window-width="1564"
     inkscape:window-height="1011"
     id="namedview3006"
     showgrid="false"
     inkscape:zoom="3.8"
     inkscape:cx="6.9736842"
     inkscape:cy="40"
     inkscape:window-x="0"
     inkscape:window-y="0"
     inkscape:window-maximized="0"
     inkscape:current-layer="g3012" /><g
     id="g3012"
     inkscape:groupmode="layer"
     inkscape:label="Nintendo - GameCube"
     transform="matrix(1.25,0,0,-1.25,0,64)"><g
       id="g3014"
       transform="matrix(0.79999469,0,0,0.79999469,0.01373076,-0.00743922)"><g
         id="g3016"
         clip-path="url(#clipPath3018)"><g
           id="g3022"
           transform="translate(44,29)"><path
             d="m 0,0 c 0.001,-1.104 -0.896,-2.001 -2,-2 -1.104,-10e-4 -2,0.896 -2,2 0,1.104 0.896,2 2,2 1.104,0 2.001,-0.896 2,-2"
             style="fill:#f2f2f2;fill-opacity:1;fill-rule:nonzero;stroke:none"
             id="path3024"
             inkscape:connector-curvature="0" /></g><g
           id="g3026"
           transform="translate(55.9277,41.083)"><path
             d="m 0,0 c -0.007,-0.051 -0.018,-0.099 -0.03,-0.148 -0.031,-0.124 -0.057,-0.204 -0.057,-0.204 l -0.021,0.004 c -0.16,-0.366 -0.456,-0.651 -0.859,-0.719 -0.67,-0.113 -1.322,0.387 -1.458,1.117 0,0 -0.087,1.419 -1.283,2.827 l 0,0.001 c -0.093,0.149 -0.16,0.318 -0.194,0.503 -0.137,0.73 0.297,1.413 0.965,1.527 0.097,0.016 0.19,-0.006 0.285,-0.014 l 0.011,0.023 c 0,0 0.065,-0.008 0.16,-0.031 C -2.457,4.88 -2.435,4.874 -2.411,4.867 -2.01,4.749 -1.152,4.344 -0.467,2.972 0.191,1.651 0.104,0.539 0,0 m -6.928,-3.083 c -1.657,0 -3,1.343 -3,3 0,1.657 1.343,3 3,3 1.657,0 3,-1.343 3,-3 0,-1.657 -1.343,-3 -3,-3 m -5,-3 c -1.104,0 -2,0.896 -2,2 0,1.104 0.896,2 2,2 1.105,0 2,-0.896 2,-2 0,-1.104 -0.895,-2 -2,-2 m -2,-10 c -2.209,0 -4,1.791 -4,4.001 0,2.207 1.791,3.999 3.999,3.999 2.211,0 4.001,-1.792 4.001,-4 0,-2.208 -1.79,-4 -4,-4 m 2.009,20.418 c 0,0 0.012,0.066 0.039,0.164 0.007,0.024 0.014,0.047 0.023,0.071 0.137,0.411 0.58,1.28 1.967,1.909 1.335,0.607 2.428,0.45 2.953,0.309 0.05,-0.011 0.097,-0.025 0.145,-0.041 0.12,-0.039 0.197,-0.071 0.197,-0.071 L -6.6,6.654 c 0.353,-0.188 0.619,-0.514 0.664,-0.936 0.078,-0.704 -0.449,-1.353 -1.175,-1.45 0,0 -1.403,-0.006 -2.853,-1.166 l -10e-4,0 c -0.151,-0.087 -0.321,-0.148 -0.505,-0.173 -0.726,-0.097 -1.378,0.394 -1.455,1.097 -0.012,0.102 0.016,0.197 0.029,0.295 l -0.023,0.014 z m -12.009,-7.418 c -0.828,0 -1.5,0.671 -1.5,1.5 0,0.829 0.672,1.5 1.5,1.5 0.828,0 1.5,-0.671 1.5,-1.5 0,-0.829 -0.672,-1.5 -1.5,-1.5 m -5,-10 -2,0 0,-2 -2,0 0,2 -2,0 0,2 2,0 0,2 2,0 0,-2 2,0 0,-2 z m -8,10 -3,-1 -3,1 -1,3 1,3 3,1 3,-1 1,-3 -1,-3 z M 2.206,-4.487 c 0.559,1.236 0.864,2.954 0.849,4.4 -0.047,4.43 -2.907,7.909 -6.995,8.996 -3.286,1.514 -6.956,0.999 -6.956,0.999 -6.336,2.251 -12.551,2.007 -13.032,1.991 -0.488,0.017 -6.558,0.365 -12.991,-1.991 -2.426,0.451 -4.264,-0.4 -4.997,-0.999 -4.608,-0.689 -7.944,-4.196 -7.995,-8.996 -0.007,-0.672 -0.124,-2.364 0,-2.999 -0.297,-2.175 -2.286,-17.685 0.201,-24.5 0.333,-0.911 0.951,-1.71 1.805,-2.159 1.103,-0.58 2.725,-0.664 4.307,2.077 0.431,0.746 0.565,1.737 0.682,2.592 0.436,3.156 1.814,11.508 2.909,12.11 0,0 0.106,0.152 0.308,0.406 0.427,-0.606 0.839,-1.328 1.207,-2.199 0.017,-0.042 0.035,-0.083 0.053,-0.125 0.013,-0.031 0.026,-0.062 0.04,-0.095 l 0.002,10e-4 c 1.017,-2.275 2.816,-4.073 5.475,-4.1 3.64,-0.038 6.957,3.363 6.996,6.996 0.019,1.873 -0.611,3.284 -1.858,4.496 l 0.002,0.001 c 0,0 -0.003,0.001 -0.007,0.003 -0.226,0.22 -0.809,0.898 -1.135,1.498 1.667,0.487 2.968,1.042 4.996,0.999 2.355,0.05 4.131,-0.363 5.996,-0.999 -0.282,-0.475 -0.979,-1.278 -1.205,-1.498 l -0.007,-0.003 0.002,-0.001 c -1.247,-1.212 -1.807,-2.623 -1.788,-4.496 0.038,-3.633 2.357,-7.034 5.996,-6.996 2.66,0.027 5.389,1.825 6.406,4.1 l 0.002,-10e-4 c 0.013,0.033 0.027,0.064 0.04,0.095 0.017,0.042 0.035,0.083 0.053,0.125 0.249,0.59 0.214,1.213 0.495,1.678 1.041,-1.471 2.59,-9.044 2.998,-11.995 0.118,-0.855 0.252,-1.846 0.682,-2.592 1.582,-2.741 3.204,-2.657 4.307,-2.077 0.854,0.449 1.472,1.248 1.805,2.159 2.08,5.698 0.952,17.962 0.352,23.099"
             style="fill:#f2f2f2;fill-opacity:1;fill-rule:nonzero;stroke:none"
             id="path3028"
             inkscape:connector-curvature="0" /></g><g
           id="g3030"
           transform="translate(16,44)"><path
             d="m 0,0 c 1.657,0 3,-1.343 3,-3 0,-1.657 -1.343,-3 -3,-3 -1.657,0 -3,1.343 -3,3 0,1.657 1.343,3 3,3"
             style="fill:#f2f2f2;fill-opacity:1;fill-rule:nonzero;stroke:none"
             id="path3032"
             inkscape:connector-curvature="0" /></g></g></g></g></svg>