<?xml version="1.0" encoding="utf-8"?>
<!-- Generator: Adobe Illustrator 16.0.0, SVG Export Plug-In . SVG Version: 6.00 Build 0)  -->
<!DOCTYPE svg PUBLIC "-//W3C//DTD SVG 1.1//EN" "http://www.w3.org/Graphics/SVG/1.1/DTD/svg11.dtd">
<svg version="1.1"
	 id="svg2" inkscape:export-filename="/home/kivutar/Bureau/lakka-menu/reload.png" inkscape:export-xdpi="90" inkscape:version="0.48.4 r9939" inkscape:export-ydpi="90" sodipodi:docname="reload.svg" xmlns:svg="http://www.w3.org/2000/svg" xmlns:cc="http://creativecommons.org/ns#" xmlns:sodipodi="http://sodipodi.sourceforge.net/DTD/sodipodi-0.dtd" xmlns:rdf="http://www.w3.org/1999/02/22-rdf-syntax-ns#" xmlns:dc="http://purl.org/dc/elements/1.1/" xmlns:inkscape="http://www.inkscape.org/namespaces/inkscape"
	 xmlns="http://www.w3.org/2000/svg" xmlns:xlink="http://www.w3.org/1999/xlink" x="0px" y="0px" width="64px" height="64px"
	 viewBox="0 128 64 64" enable-background="new 0 128 64 64" xml:space="preserve">
<path id="NES_1_" fill="#F2F2F2" d="M32,176l-3-5h6L32,176z M47,166c0,1-1,2-2,2H30c-1,0-2-1-2-2v-26c0-1,1-2,2-2h15c1,0,2,1,2,2
	V166z M45,165c0,0.553-0.447,1-1,1H31c-0.553,0-1-0.447-1-1v-24c0-0.553,0.447-1,1-1h13c0.553,0,1,0.447,1,1V165z M52,136h-1v1h-2
	v-1H15v1h-2v-1h-1c-0.553,0-1,0.447-1,1v37c0,0.553,0.447,1,1,1h2v8c0,0.553,0.447,1,1,1h34c0.553,0,1-0.447,1-1v-8h2
	c0.553,0,1-0.447,1-1v-37C53,136.447,52.553,136,52,136z"/>
</svg>
