<?xml version="1.0" encoding="utf-8"?>
<!-- Generator: Adobe Illustrator 16.0.0, SVG Export Plug-In . SVG Version: 6.00 Build 0)  -->
<!DOCTYPE svg PUBLIC "-//W3C//DTD SVG 1.1//EN" "http://www.w3.org/Graphics/SVG/1.1/DTD/svg11.dtd">
<svg version="1.1"
	 id="svg2" inkscape:export-filename="/home/kivutar/Bureau/lakka-menu/reload.png" inkscape:export-xdpi="90" inkscape:version="0.48.4 r9939" inkscape:export-ydpi="90" sodipodi:docname="reload.svg" xmlns:svg="http://www.w3.org/2000/svg" xmlns:cc="http://creativecommons.org/ns#" xmlns:sodipodi="http://sodipodi.sourceforge.net/DTD/sodipodi-0.dtd" xmlns:rdf="http://www.w3.org/1999/02/22-rdf-syntax-ns#" xmlns:dc="http://purl.org/dc/elements/1.1/" xmlns:inkscape="http://www.inkscape.org/namespaces/inkscape"
	 xmlns="http://www.w3.org/2000/svg" xmlns:xlink="http://www.w3.org/1999/xlink" x="0px" y="0px" width="64px" height="64px"
	 viewBox="0 128 64 64" enable-background="new 0 128 64 64" xml:space="preserve">
<path id="Virtual_Boy" fill="#F2F2F2" d="M54.363,157.191c-1.023-1.729-1.492-3.479-0.639-5.957C57.027,147.713,54.375,140,48,140
	c-1.771,0-3.32,0.365-5.498,1.762L39,144H25l-3.573-2.238C19.285,140.389,17.771,140,16,140c-6.375,0-9.126,7.743-5.768,11.264
	c0.859,2.392,0.466,3.97-0.666,5.928C7.242,161.33,6,165.104,6,169c0,5,1,11,5,11c1.771,0,3.299-0.912,3.544-2.899
	c0.606-9.456,0.829-9.125,1.66-16.59C16.766,157.908,18.34,157,20,157h3v7c0,0.553,0.447,1,1,1h16c0.553,0,1-0.447,1-1v-7h3
	c1.66,0,3.136,0.41,3.727,3.511c1.232,7.383,1.067,7.548,1.658,16.59C49.646,179.182,51.229,180,53,180c4,0,5-5,5-10
	C58,165.749,56.738,161.684,54.363,157.191z M18,147h-1v1c0,1,0,1-1,1s-1,0-1-1v-1h-1c-1,0-1,0-1-1s0-1,1-1h1v-1c0-1,0-1,1-1
	s1,0,1,1v1h1c1,0,1,0,1,1S19,147,18,147z M38.5,149c0.828,0,1.5,0.672,1.5,1.5s-0.672,1.5-1.5,1.5s-1.5-0.672-1.5-1.5
	S37.672,149,38.5,149z M30,145h4c0.354,0,0.479,0.125,0.479,0.479C34.479,145.833,34,147,33,147h-2c-1,0-1.479-1.167-1.479-1.521
	C29.521,145.125,29.646,145,30,145z M25.5,149c0.828,0,1.5,0.672,1.5,1.5s-0.672,1.5-1.5,1.5s-1.5-0.672-1.5-1.5
	S24.672,149,25.5,149z M21.5,150c-0.828,0-1.5-0.672-1.5-1.5s0.672-1.5,1.5-1.5s1.5,0.672,1.5,1.5S22.328,150,21.5,150z M42.5,150
	c-0.828,0-1.5-0.672-1.5-1.5s0.672-1.5,1.5-1.5s1.5,0.672,1.5,1.5S43.328,150,42.5,150z M50,147h-1v1c0,1,0,1-1,1s-1,0-1-1v-1h-1
	c-1,0-1,0-1-1s0-1,1-1h1v-1c0-1,0-1,1-1s1,0,1,1v1h1c1,0,1,0,1,1S51,147,50,147z"/>
</svg>
