<?xml version="1.0" encoding="UTF-8" standalone="no"?>
<!-- Created with Inkscape (http://www.inkscape.org/) -->

<svg
   xmlns:dc="http://purl.org/dc/elements/1.1/"
   xmlns:cc="http://creativecommons.org/ns#"
   xmlns:rdf="http://www.w3.org/1999/02/22-rdf-syntax-ns#"
   xmlns:svg="http://www.w3.org/2000/svg"
   xmlns="http://www.w3.org/2000/svg"
   xmlns:sodipodi="http://sodipodi.sourceforge.net/DTD/sodipodi-0.dtd"
   xmlns:inkscape="http://www.inkscape.org/namespaces/inkscape"
   id="svg4593"
   version="1.1"
   inkscape:version="0.48.5 r10040"
   width="64"
   height="64"
   xml:space="preserve"
   sodipodi:docname="Nintendo - Nintendo 64DD-content.svg"
   inkscape:export-filename="/Users/margetts/Desktop/Icon Workshop/Monochrome Plus June/png/Nintendo - Nintendo 64DD-content.png"
   inkscape:export-xdpi="360"
   inkscape:export-ydpi="360"><metadata
     id="metadata4599"><rdf:RDF><cc:Work
         rdf:about=""><dc:format>image/svg+xml</dc:format><dc:type
           rdf:resource="http://purl.org/dc/dcmitype/StillImage" /><dc:title></dc:title></cc:Work></rdf:RDF></metadata><defs
     id="defs4597"><clipPath
       clipPathUnits="userSpaceOnUse"
       id="clipPath4607"><path
         d="M 0,64 64,64 64,0 0,0 0,64 z"
         id="path4609"
         inkscape:connector-curvature="0" /></clipPath></defs><sodipodi:namedview
     pagecolor="#ffffff"
     bordercolor="#666666"
     borderopacity="1"
     objecttolerance="10"
     gridtolerance="10"
     guidetolerance="10"
     inkscape:pageopacity="0"
     inkscape:pageshadow="2"
     inkscape:window-width="1676"
     inkscape:window-height="1005"
     id="namedview4595"
     showgrid="false"
     inkscape:zoom="3.8"
     inkscape:cx="6.9736842"
     inkscape:cy="40"
     inkscape:window-x="4"
     inkscape:window-y="1"
     inkscape:window-maximized="1"
     inkscape:current-layer="g4601" /><g
     id="g4601"
     inkscape:groupmode="layer"
     inkscape:label="Nintendo - Nintendo 64DD-content"
     transform="matrix(1.25,0,0,-1.25,0,64)"><g
       id="g4603"
       transform="scale(0.8,0.8)"><g
         id="g4605"
         clip-path="url(#clipPath4607)"><g
           id="g4611"
           transform="translate(56,59)"><path
             d="m 0,0 -1,-1 -2,0 0,-51 -16,0 0,5 c 0,2.762 -2.238,5 -5,5 -2.761,0 -5,-2.238 -5,-5 l 0,-5 -16,0 0,52 -3,0 c -1.104,0 -2,-0.896 -2,-2 l 0,-50 c 0,-1.104 0.896,-2 2,-2 l 3,0 42,0 3,0 c 1.104,0 2,0.896 2,2 L 2,-2 C 2,-0.896 1.104,0 0,0"
             style="fill:#f2f2f2;fill-opacity:1;fill-rule:nonzero;stroke:none"
             id="path4613"
             inkscape:connector-curvature="0" /></g><g
           id="g4615"
           transform="translate(29,53)"><path
             d="M 0,0 3,2 6,0 0,0 z m -2,6 0,-9 c 0,-2.761 2.239,-5 5,-5 2.762,0 5,2.239 5,5 L 8,6 -2,6 z"
             style="fill:#f2f2f2;fill-opacity:1;fill-rule:nonzero;stroke:none"
             id="path4617"
             inkscape:connector-curvature="0" /></g><g
           id="g4619"
           transform="translate(32,38.98)"><path
             d="M 0,0 C 0.2,0 0.399,-0.006 0.599,-0.019 L 13.133,-0.805 C 14.184,-0.871 15,-1.692 15,-2.683 l 0,-11.415 c 0,-1.039 -0.896,-1.882 -2,-1.882 l -26,0 c -1.104,0 -2,0.843 -2,1.882 l 0,11.415 c 0,0.991 0.816,1.812 1.867,1.878 l 12.534,0.786 C -0.399,-0.006 -0.2,0 0,0"
             style="fill:#f2f2f2;fill-opacity:1;fill-rule:nonzero;stroke:none"
             id="path4621"
             inkscape:connector-curvature="0" /></g><g
           id="g4623"
           transform="translate(48,24.8818)"><path
             d="m 0,0 c 0,-1.589 -1.346,-2.882 -3,-2.882 l -26,0 c -1.654,0 -3,1.293 -3,2.882 l 0,11.415 c 0,1.514 1.232,2.777 2.804,2.876 l 12.535,0.787 c 0.22,0.013 0.44,0.02 0.661,0.02 0.221,0 0.441,-0.007 0.661,-0.02 L -2.805,14.291 C -1.231,14.192 0,12.929 0,11.415 L 0,0 z m -8,33.118 0,-9 c 0,-4.418 -3.582,-8 -8,-8 -4.418,0 -8,3.582 -8,8 l 0,10 -10,0 0,-51 10,0 0,5 c 0,4.418 3.582,8 8,8 4.418,0 8,-3.582 8,-8 l 0,-5 10,0 0,50 -10,0 z"
             style="fill:#f2f2f2;fill-opacity:1;fill-rule:nonzero;stroke:none"
             id="path4625"
             inkscape:connector-curvature="0" /></g></g></g></g></svg>