<?xml version="1.0" encoding="utf-8"?>
<!-- Generator: Adobe Illustrator 16.0.0, SVG Export Plug-In . SVG Version: 6.00 Build 0)  -->
<!DOCTYPE svg PUBLIC "-//W3C//DTD SVG 1.1//EN" "http://www.w3.org/Graphics/SVG/1.1/DTD/svg11.dtd">
<svg version="1.1"
	 id="svg2" inkscape:export-filename="/home/kivutar/Bureau/lakka-menu/reload.png" inkscape:export-xdpi="90" inkscape:version="0.48.4 r9939" inkscape:export-ydpi="90" sodipodi:docname="reload.svg" xmlns:svg="http://www.w3.org/2000/svg" xmlns:cc="http://creativecommons.org/ns#" xmlns:sodipodi="http://sodipodi.sourceforge.net/DTD/sodipodi-0.dtd" xmlns:rdf="http://www.w3.org/1999/02/22-rdf-syntax-ns#" xmlns:dc="http://purl.org/dc/elements/1.1/" xmlns:inkscape="http://www.inkscape.org/namespaces/inkscape"
	 xmlns="http://www.w3.org/2000/svg" xmlns:xlink="http://www.w3.org/1999/xlink" x="0px" y="0px" width="64px" height="64px"
	 viewBox="0 128 64 64" enable-background="new 0 128 64 64" xml:space="preserve">
<sodipodi:namedview  id="base" pagecolor="#ffffff" inkscape:cy="103.59544" showgrid="true" inkscape:cx="75.572686" inkscape:zoom="11.2" borderopacity="1.0" bordercolor="#666666" inkscape:window-height="837" inkscape:document-units="px" inkscape:window-width="1440" inkscape:window-maximized="1" inkscape:pageshadow="2" inkscape:pageopacity="0.0" inkscape:window-y="27" inkscape:window-x="0" inkscape:current-layer="layer1">
	<inkscape:grid  type="xygrid" id="grid2985" enabled="true" visible="true" empspacing="4" snapvisiblegridlinesonly="true">
		</inkscape:grid>
</sodipodi:namedview>
<path id="NES" fill="#F2F2F2" d="M60,147H4c-0.507,0-1,0.492-1,1v24c0,0.508,0.492,1,1,1h56c0.508,0,1-0.492,1-1v-24
	C61,147.492,60.508,147,60,147z M59,170c0,0.507-0.493,1-1,1H39v-2c0-0.511-0.49-1-1-1H25c-0.507,0-1,0.489-1,1v2H6
	c-0.51,0-1-0.492-1-1v-20c0-0.507,0.492-1,1-1h18c0,0.508,0.493,1,1,1h13c0.51,0,1-0.492,1-1h19c0.507,0,1,0.493,1,1V170z M38,156
	H25c-0.507,0-1,0.492-1,1v2c0,0.508,0.493,1,1,1h13c0.51,0,1-0.492,1-1v-2C39,156.492,38.51,156,38,156z M38,151H25
	c-0.507,0-1,0.491-1,1v2c0,0.508,0.493,1,1,1h13c0.51,0,1-0.492,1-1v-2C39,151.492,38.51,151,38,151z M19,159h-2v-2
	c0-0.602-0.4-1-1-1h-3c-0.601,0-1,0.532-1,1.134V159h-2c-0.601,0-1,0.398-1,1v4c0,0.602,0.399,1,1,1h2v2c0,0.601,0.399,1,1,1h3
	c0.6,0,1-0.399,1-1v-2h2c0.602,0,1-0.401,1-1v-4C20,159.398,19.602,159,19,159z M19,163c0,1,0,1-1,1h-2v2c0,1,0,1-1,1h-1
	c-1,0-1,0-1-1v-2h-2c-1,0-1,0-1-1v-2c0-1,0-1,1-1h2v-2c0-1,0-1,1-1h1c1,0,1,0,1,1v2h2c1,0,1,0,1,1V163z M38,161H25
	c-0.507,0-1,0.49-1,1v4c0,0.508,0.493,1,1,1h13c0.51,0,1-0.492,1-1v-4C39,161.49,38.51,161,38,161z M31,164c0,1,0,1-1,1h-3
	c-1,0-1,0-1-1l0,0c0-1,0-1,1-1h3C31,163,31,163,31,164L31,164z M37,164c0,1,0,1-1,1h-3c-1,0-1,0-1-1l0,0c0-1,0-1,1-1h3
	C37,163,37,163,37,164L37,164z M47,161h-4c-0.507,0-1,0.49-1,1v4c0,0.508,0.493,1,1,1h4c0.51,0,1-0.492,1-1v-4
	C48,161.49,47.51,161,47,161z M45,166c-1.104,0-2-0.896-2-2s0.896-2,2-2s2,0.896,2,2S46.104,166,45,166z M55,161h-4
	c-0.507,0-1,0.49-1,1v4c0,0.508,0.493,1,1,1h4c0.51,0,1-0.492,1-1v-4C56,161.49,55.51,161,55,161z M53,166c-1.104,0-2-0.896-2-2
	s0.896-2,2-2s2,0.896,2,2S54.104,166,53,166z"/>
</svg>
