<?xml version="1.0" encoding="UTF-8" standalone="no"?>
<!-- Created with Inkscape (http://www.inkscape.org/) -->

<svg
   xmlns:dc="http://purl.org/dc/elements/1.1/"
   xmlns:cc="http://creativecommons.org/ns#"
   xmlns:rdf="http://www.w3.org/1999/02/22-rdf-syntax-ns#"
   xmlns:svg="http://www.w3.org/2000/svg"
   xmlns="http://www.w3.org/2000/svg"
   xmlns:sodipodi="http://sodipodi.sourceforge.net/DTD/sodipodi-0.dtd"
   xmlns:inkscape="http://www.inkscape.org/namespaces/inkscape"
   id="svg4618"
   version="1.1"
   inkscape:version="0.48.5 r10040"
   width="64"
   height="64"
   xml:space="preserve"
   sodipodi:docname="Nintendo - Nintendo DSi.svg"
   inkscape:export-filename="/Users/margetts/Desktop/Icon Workshop/Monochrome Plus June/png/Nintendo - Nintendo DSi.png"
   inkscape:export-xdpi="360"
   inkscape:export-ydpi="360"><metadata
     id="metadata4624"><rdf:RDF><cc:Work
         rdf:about=""><dc:format>image/svg+xml</dc:format><dc:type
           rdf:resource="http://purl.org/dc/dcmitype/StillImage" /><dc:title></dc:title></cc:Work></rdf:RDF></metadata><defs
     id="defs4622"><clipPath
       clipPathUnits="userSpaceOnUse"
       id="clipPath4632"><path
         d="M 0,64 64,64 64,0 0,0 0,64 z"
         id="path4634"
         inkscape:connector-curvature="0" /></clipPath></defs><sodipodi:namedview
     pagecolor="#ffffff"
     bordercolor="#666666"
     borderopacity="1"
     objecttolerance="10"
     gridtolerance="10"
     guidetolerance="10"
     inkscape:pageopacity="0"
     inkscape:pageshadow="2"
     inkscape:window-width="1676"
     inkscape:window-height="1005"
     id="namedview4620"
     showgrid="false"
     inkscape:zoom="3.8"
     inkscape:cx="6.9736842"
     inkscape:cy="40"
     inkscape:window-x="4"
     inkscape:window-y="1"
     inkscape:window-maximized="1"
     inkscape:current-layer="g4626" /><g
     id="g4626"
     inkscape:groupmode="layer"
     inkscape:label="Nintendo - Nintendo DSi"
     transform="matrix(1.25,0,0,-1.25,0,64)"><g
       id="g4628"
       transform="scale(0.8,0.8)"><g
         id="g4630"
         clip-path="url(#clipPath4632)"><g
           id="g4636"
           transform="translate(54.5,21)"><path
             d="M 0,0 C -0.827,0 -1.5,0.673 -1.5,1.5 -1.5,2.327 -0.827,3 0,3 0.827,3 1.5,2.327 1.5,1.5 1.5,0.673 0.827,0 0,0 m -3,-3 c -0.827,0 -1.5,0.673 -1.5,1.5 0,0.827 0.673,1.5 1.5,1.5 0.827,0 1.5,-0.673 1.5,-1.5 C -1.5,-2.327 -2.173,-3 -3,-3 m -2.5,-7 c -0.553,0 -1,0.447 -1,1 0,0.553 0.447,1 1,1 0.553,0 1,-0.447 1,-1 0,-0.553 -0.447,-1 -1,-1 m 0,-3 c -0.553,0 -1,0.447 -1,1 0,0.553 0.447,1 1,1 0.553,0 1,-0.447 1,-1 0,-0.553 -0.447,-1 -1,-1 m -2,14.5 C -7.5,2.327 -6.827,3 -6,3 -5.173,3 -4.5,2.327 -4.5,1.5 -4.5,0.673 -5.173,0 -6,0 -6.827,0 -7.5,0.673 -7.5,1.5 m -2,13.5 -26,0 0,20 26,0 0,-20 z m -11,-4 c 0,0.276 0.224,0.5 0.5,0.5 0.276,0 0.5,-0.224 0.5,-0.5 0,-0.276 -0.224,-0.5 -0.5,-0.5 -0.276,0 -0.5,0.224 -0.5,0.5 m -3,0 c 0,0.552 0.448,1 1,1 0.552,0 1,-0.448 1,-1 0,-0.552 -0.448,-1 -1,-1 -0.552,0 -1,0.448 -1,1 m 14,-24 -26,0 0,20 26,0 0,-20 z m -30,1 c -0.552,0 -1,0.447 -1,1 0,0.553 0.448,1 1,1 0.552,0 1,-0.447 1,-1 0,-0.553 -0.448,-1 -1,-1 m -2,10 -2,0 0,2 -2,0 0,2 2,0 0,2 2,0 0,-2 2,0 0,-2 -2,0 0,-2 z M -3,6 C -2.173,6 -1.5,5.327 -1.5,4.5 -1.5,3.673 -2.173,3 -3,3 -3.827,3 -4.5,3.673 -4.5,4.5 -4.5,5.327 -3.827,6 -3,6 m 3.508,7 1.992,0 0,22 c 0,1.847 -1.497,3 -3.344,3 l -43.312,0 c -1.847,0 -3.344,-1.153 -3.344,-3 l 0,-22 2.008,0 c -1.104,0 -2.008,-0.896 -2.008,-2 l 0,-23 c 0,-2.172 1.153,-4 3,-4 l 43,0 c 1.847,0 4,1.828 4,4 l 0,23 c 0,1.104 -0.888,2 -1.992,2"
             style="fill:#f2f2f2;fill-opacity:1;fill-rule:nonzero;stroke:none"
             id="path4638"
             inkscape:connector-curvature="0" /></g></g></g></g></svg>