<?xml version="1.0" encoding="utf-8"?>
<!-- Generator: Adobe Illustrator 16.0.0, SVG Export Plug-In . SVG Version: 6.00 Build 0)  -->
<!DOCTYPE svg PUBLIC "-//W3C//DTD SVG 1.1//EN" "http://www.w3.org/Graphics/SVG/1.1/DTD/svg11.dtd">
<svg version="1.1"
	 id="svg2" inkscape:export-filename="/home/kivutar/Bureau/lakka-menu/reload.png" inkscape:export-xdpi="90" inkscape:version="0.48.4 r9939" inkscape:export-ydpi="90" sodipodi:docname="reload.svg" xmlns:svg="http://www.w3.org/2000/svg" xmlns:cc="http://creativecommons.org/ns#" xmlns:sodipodi="http://sodipodi.sourceforge.net/DTD/sodipodi-0.dtd" xmlns:rdf="http://www.w3.org/1999/02/22-rdf-syntax-ns#" xmlns:dc="http://purl.org/dc/elements/1.1/" xmlns:inkscape="http://www.inkscape.org/namespaces/inkscape"
	 xmlns="http://www.w3.org/2000/svg" xmlns:xlink="http://www.w3.org/1999/xlink" x="0px" y="0px" width="64px" height="64px"
	 viewBox="0 128 64 64" enable-background="new 0 128 64 64" xml:space="preserve">
<path id="Game_Boy_Advance_1_" fill="#F2F2F2" d="M58,144H6c-0.553,0-1,0.447-1,1v6h1v24c0,0.553,0.447,1,1,1h50
	c0.553,0,1-0.447,1-1v-24h1v-6C59,144.447,58.553,144,58,144z M52,171c0,0.553-0.447,1-1,1H13c-0.553,0-1-0.447-1-1v-18
	c0-0.553,0.447-1,1-1h38c0.553,0,1,0.447,1,1V171z M50,169c0,0.553-0.447,1-1,1H15c-0.553,0-1-0.447-1-1v-14c0-0.553,0.447-1,1-1h34
	c0.553,0,1,0.447,1,1V169z"/>
</svg>
