<?xml version="1.0" encoding="UTF-8" standalone="no"?>
<!-- Created with Inkscape (http://www.inkscape.org/) -->

<svg
   xmlns:dc="http://purl.org/dc/elements/1.1/"
   xmlns:cc="http://creativecommons.org/ns#"
   xmlns:rdf="http://www.w3.org/1999/02/22-rdf-syntax-ns#"
   xmlns:svg="http://www.w3.org/2000/svg"
   xmlns="http://www.w3.org/2000/svg"
   xmlns:sodipodi="http://sodipodi.sourceforge.net/DTD/sodipodi-0.dtd"
   xmlns:inkscape="http://www.inkscape.org/namespaces/inkscape"
   id="svg4779"
   version="1.1"
   inkscape:version="0.48.5 r10040"
   width="64"
   height="64"
   xml:space="preserve"
   sodipodi:docname="Nintendo - Switch.svg"
   inkscape:export-filename="/Users/margetts/Desktop/Icon Workshop/Monochrome Plus June/png/Nintendo - Switch.png"
   inkscape:export-xdpi="360"
   inkscape:export-ydpi="360"><metadata
     id="metadata4785"><rdf:RDF><cc:Work
         rdf:about=""><dc:format>image/svg+xml</dc:format><dc:type
           rdf:resource="http://purl.org/dc/dcmitype/StillImage" /><dc:title></dc:title></cc:Work></rdf:RDF></metadata><defs
     id="defs4783"><clipPath
       clipPathUnits="userSpaceOnUse"
       id="clipPath4793"><path
         d="M 0,64 64,64 64,0 0,0 0,64 z"
         id="path4795"
         inkscape:connector-curvature="0" /></clipPath></defs><sodipodi:namedview
     pagecolor="#ffffff"
     bordercolor="#666666"
     borderopacity="1"
     objecttolerance="10"
     gridtolerance="10"
     guidetolerance="10"
     inkscape:pageopacity="0"
     inkscape:pageshadow="2"
     inkscape:window-width="1676"
     inkscape:window-height="1005"
     id="namedview4781"
     showgrid="false"
     inkscape:zoom="3.8"
     inkscape:cx="6.9736842"
     inkscape:cy="40"
     inkscape:window-x="4"
     inkscape:window-y="1"
     inkscape:window-maximized="1"
     inkscape:current-layer="g4787" /><g
     id="g4787"
     inkscape:groupmode="layer"
     inkscape:label="Nintendo - Switch"
     transform="matrix(1.25,0,0,-1.25,0,64)"><g
       id="g4789"
       transform="scale(0.8,0.8)"><g
         id="g4791"
         clip-path="url(#clipPath4793)"><g
           id="g4797"
           transform="translate(57,36)"><path
             d="M 0,0 C -0.553,0 -1,0.448 -1,1 -1,1.552 -0.553,2 0,2 0.553,2 1,1.552 1,1 1,0.448 0.553,0 0,0 m -2,-7 c -1.104,0 -2,0.896 -2,2 0,1.104 0.896,2 2,2 1.104,0 2,-0.896 2,-2 0,-1.104 -0.896,-2 -2,-2 m -2,-5 c -0.553,0 -1,0.447 -1,1 0,0.553 0.447,1 1,1 0.553,0 1,-0.447 1,-1 0,-0.553 -0.447,-1 -1,-1 m 0,14 c 0.553,0 1,-0.448 1,-1 0,-0.552 -0.447,-1 -1,-1 -0.553,0 -1,0.448 -1,1 0,0.552 0.447,1 1,1 m -1,3 1,0 0,-1 -1,0 0,1 z m 4,-6 c 0,-0.552 -0.447,-1 -1,-1 -0.553,0 -1,0.448 -1,1 0,0.552 0.447,1 1,1 0.553,0 1,-0.448 1,-1 m -1,5 c 0.553,0 1,-0.448 1,-1 0,-0.552 -0.447,-1 -1,-1 -0.553,0 -1,0.448 -1,1 0,0.552 0.447,1 1,1 m -7,-17 -32,0 0,19 32,0 0,-19 z m -36,17 -1,0 0,1 1,0 0,-1 z m -1,-10 c -0.552,0 -1,0.447 -1,1 0,0.552 0.448,1 1,1 0.552,0 1,-0.448 1,-1 0,-0.553 -0.448,-1 -1,-1 m 1,-4.5 c 0,-0.276 -0.224,-0.5 -0.5,-0.5 l -1,0 c -0.276,0 -0.5,0.224 -0.5,0.5 l 0,1 c 0,0.276 0.224,0.5 0.5,0.5 l 1,0 c 0.276,0 0.5,-0.224 0.5,-0.5 l 0,-1 z m -3,2.5 c -0.552,0 -1,0.447 -1,1 0,0.553 0.448,1 1,1 0.552,0 1,-0.447 1,-1 0,-0.553 -0.448,-1 -1,-1 m -2,2 c -0.552,0 -1,0.447 -1,1 0,0.552 0.448,1 1,1 0.552,0 1,-0.448 1,-1 0,-0.553 -0.448,-1 -1,-1 m 3,3 c 0,-0.552 -0.448,-1 -1,-1 -0.552,0 -1,0.448 -1,1 0,0.552 0.448,1 1,1 0.552,0 1,-0.448 1,-1 m -1,6 c 1.104,0 2,-0.896 2,-2 0,-1.104 -0.896,-2 -2,-2 -1.104,0 -2,0.896 -2,2 0,1.104 0.896,2 2,2 m 45,4 -3,0 0,-1 c -0.553,0 -1,0.448 -1,1 l -36,0 c 0,-0.552 -0.448,-1 -1,-1 l 0,1 -3,0 c -3,0 -5,-3 -5,-6 l 0,-11 c 0,-3 2,-5 5,-5 l 44,0 c 2.571,0 5,0.929 5,3.499 L 2,2.5 C 2,5.5 0,7 -3,7"
             style="fill:#f2f2f2;fill-opacity:1;fill-rule:nonzero;stroke:none"
             id="path4799"
             inkscape:connector-curvature="0" /></g></g></g></g></svg>