<?xml version="1.0" encoding="UTF-8" standalone="no"?>
<!-- Created with Inkscape (http://www.inkscape.org/) -->

<svg
   xmlns:dc="http://purl.org/dc/elements/1.1/"
   xmlns:cc="http://creativecommons.org/ns#"
   xmlns:rdf="http://www.w3.org/1999/02/22-rdf-syntax-ns#"
   xmlns:svg="http://www.w3.org/2000/svg"
   xmlns="http://www.w3.org/2000/svg"
   xmlns:sodipodi="http://sodipodi.sourceforge.net/DTD/sodipodi-0.dtd"
   xmlns:inkscape="http://www.inkscape.org/namespaces/inkscape"
   id="svg5586"
   version="1.1"
   inkscape:version="0.48.5 r10040"
   width="64"
   height="64"
   xml:space="preserve"
   sodipodi:docname="Philips - Videopac+.svg"
   inkscape:export-filename="/Users/margetts/Desktop/Icon Workshop/Monochrome July/Philips - Videopac+.png"
   inkscape:export-xdpi="360"
   inkscape:export-ydpi="360"><metadata
     id="metadata5592"><rdf:RDF><cc:Work
         rdf:about=""><dc:format>image/svg+xml</dc:format><dc:type
           rdf:resource="http://purl.org/dc/dcmitype/StillImage" /><dc:title></dc:title></cc:Work></rdf:RDF></metadata><defs
     id="defs5590"><clipPath
       clipPathUnits="userSpaceOnUse"
       id="clipPath5600"><path
         d="M 0,64 64,64 64,0 0,0 0,64 z"
         id="path5602"
         inkscape:connector-curvature="0" /></clipPath></defs><sodipodi:namedview
     pagecolor="#ffffff"
     bordercolor="#666666"
     borderopacity="1"
     objecttolerance="10"
     gridtolerance="10"
     guidetolerance="10"
     inkscape:pageopacity="0"
     inkscape:pageshadow="2"
     inkscape:window-width="1676"
     inkscape:window-height="1005"
     id="namedview5588"
     showgrid="false"
     inkscape:zoom="10.4375"
     inkscape:cx="27.976048"
     inkscape:cy="40"
     inkscape:window-x="4"
     inkscape:window-y="1"
     inkscape:window-maximized="1"
     inkscape:current-layer="g5594" /><g
     id="g5594"
     inkscape:groupmode="layer"
     inkscape:label="Philips - Videopac+"
     transform="matrix(1.25,0,0,-1.25,0,64)"><g
       id="g5596"
       transform="scale(0.8,0.8)"><g
         id="g5598"
         clip-path="url(#clipPath5600)"><path
           d="m 49,16 -33,0 0,13 33,0 0,-13 z m -41,24 -1,3 0,3 5,0 0,-3 1,-3 -5,0 z m 16,9 16,0 0,-6 -0.941,-5 -14.118,0 -0.941,5 0,6 z M 58,52 6,52 5,49 5,42.964 6,37.931 6,37.906 6,13 c 0,-0.553 0.448,-1 1,-1 l 50,0 c 0.553,0 1,0.447 1,1 l 0,25 1,5 0,6 -1,3 z"
           style="fill:#f2f2f2;fill-opacity:1;fill-rule:nonzero;stroke:none"
           id="path5604"
           inkscape:connector-curvature="0" /><g
           id="g5606"
           transform="translate(38.2998,42)"><path
             d="m 0,0 -12.6,0 c -0.386,0 -0.7,0.336 -0.7,0.75 l 0,3.5 c 0,0.414 0.314,0.75 0.7,0.75 L 0,5 C 0.387,5 0.7,4.664 0.7,4.25 l 0,-3.5 C 0.7,0.336 0.387,0 0,0"
             style="fill:#f2f2f2;fill-opacity:1;fill-rule:nonzero;stroke:none"
             id="path5608"
             inkscape:connector-curvature="0" /></g><g
           id="g5610"
           transform="translate(10,44.5)"><path
             d="M 0,0 C 0,-0.276 -0.224,-0.5 -0.5,-0.5 -0.776,-0.5 -1,-0.276 -1,0 -1,0.276 -0.776,0.5 -0.5,0.5 -0.224,0.5 0,0.276 0,0"
             style="fill:#f2f2f2;fill-opacity:1;fill-rule:nonzero;stroke:none"
             id="path5612"
             inkscape:connector-curvature="0" /></g><g
           id="g5614"
           transform="translate(18.5,27)"><path
             d="M 0,0 -1,0 C -1.276,0 -1.5,0.224 -1.5,0.5 -1.5,0.776 -1.276,1 -1,1 L 0,1 C 0.276,1 0.5,0.776 0.5,0.5 0.5,0.224 0.276,0 0,0"
             style="fill:#f2f2f2;fill-opacity:1;fill-rule:nonzero;stroke:none"
             id="path5616"
             inkscape:connector-curvature="0" /></g><g
           id="g5618"
           transform="translate(21.5,27)"><path
             d="M 0,0 -1,0 C -1.276,0 -1.5,0.224 -1.5,0.5 -1.5,0.776 -1.276,1 -1,1 L 0,1 C 0.276,1 0.5,0.776 0.5,0.5 0.5,0.224 0.276,0 0,0"
             style="fill:#f2f2f2;fill-opacity:1;fill-rule:nonzero;stroke:none"
             id="path5620"
             inkscape:connector-curvature="0" /></g><g
           id="g5622"
           transform="translate(24.5,27)"><path
             d="M 0,0 -1,0 C -1.276,0 -1.5,0.224 -1.5,0.5 -1.5,0.776 -1.276,1 -1,1 L 0,1 C 0.276,1 0.5,0.776 0.5,0.5 0.5,0.224 0.276,0 0,0"
             style="fill:#f2f2f2;fill-opacity:1;fill-rule:nonzero;stroke:none"
             id="path5624"
             inkscape:connector-curvature="0" /></g><g
           id="g5626"
           transform="translate(27.5,27)"><path
             d="M 0,0 -1,0 C -1.276,0 -1.5,0.224 -1.5,0.5 -1.5,0.776 -1.276,1 -1,1 L 0,1 C 0.276,1 0.5,0.776 0.5,0.5 0.5,0.224 0.276,0 0,0"
             style="fill:#f2f2f2;fill-opacity:1;fill-rule:nonzero;stroke:none"
             id="path5628"
             inkscape:connector-curvature="0" /></g><g
           id="g5630"
           transform="translate(30.5,27)"><path
             d="M 0,0 -1,0 C -1.276,0 -1.5,0.224 -1.5,0.5 -1.5,0.776 -1.276,1 -1,1 L 0,1 C 0.276,1 0.5,0.776 0.5,0.5 0.5,0.224 0.276,0 0,0"
             style="fill:#f2f2f2;fill-opacity:1;fill-rule:nonzero;stroke:none"
             id="path5632"
             inkscape:connector-curvature="0" /></g><g
           id="g5634"
           transform="translate(33.5,27)"><path
             d="M 0,0 -1,0 C -1.276,0 -1.5,0.224 -1.5,0.5 -1.5,0.776 -1.276,1 -1,1 L 0,1 C 0.276,1 0.5,0.776 0.5,0.5 0.5,0.224 0.276,0 0,0"
             style="fill:#f2f2f2;fill-opacity:1;fill-rule:nonzero;stroke:none"
             id="path5636"
             inkscape:connector-curvature="0" /></g><g
           id="g5638"
           transform="translate(36.5,27)"><path
             d="M 0,0 -1,0 C -1.276,0 -1.5,0.224 -1.5,0.5 -1.5,0.776 -1.276,1 -1,1 L 0,1 C 0.276,1 0.5,0.776 0.5,0.5 0.5,0.224 0.276,0 0,0"
             style="fill:#f2f2f2;fill-opacity:1;fill-rule:nonzero;stroke:none"
             id="path5640"
             inkscape:connector-curvature="0" /></g><g
           id="g5642"
           transform="translate(39.5,27)"><path
             d="M 0,0 -1,0 C -1.276,0 -1.5,0.224 -1.5,0.5 -1.5,0.776 -1.276,1 -1,1 L 0,1 C 0.276,1 0.5,0.776 0.5,0.5 0.5,0.224 0.276,0 0,0"
             style="fill:#f2f2f2;fill-opacity:1;fill-rule:nonzero;stroke:none"
             id="path5644"
             inkscape:connector-curvature="0" /></g><g
           id="g5646"
           transform="translate(42.5,27)"><path
             d="M 0,0 -1,0 C -1.276,0 -1.5,0.224 -1.5,0.5 -1.5,0.776 -1.276,1 -1,1 L 0,1 C 0.276,1 0.5,0.776 0.5,0.5 0.5,0.224 0.276,0 0,0"
             style="fill:#f2f2f2;fill-opacity:1;fill-rule:nonzero;stroke:none"
             id="path5648"
             inkscape:connector-curvature="0" /></g><g
           id="g5650"
           transform="translate(45.5,27)"><path
             d="M 0,0 -1,0 C -1.276,0 -1.5,0.224 -1.5,0.5 -1.5,0.776 -1.276,1 -1,1 L 0,1 C 0.276,1 0.5,0.776 0.5,0.5 0.5,0.224 0.276,0 0,0"
             style="fill:#f2f2f2;fill-opacity:1;fill-rule:nonzero;stroke:none"
             id="path5652"
             inkscape:connector-curvature="0" /></g><g
           id="g5654"
           transform="translate(47.75,27)"><path
             d="m 0,0 -0.5,0 c -0.138,0 -0.25,0.224 -0.25,0.5 0,0.276 0.112,0.5 0.25,0.5 L 0,1 C 0.138,1 0.25,0.776 0.25,0.5 0.25,0.224 0.138,0 0,0"
             style="fill:#f2f2f2;fill-opacity:1;fill-rule:nonzero;stroke:none"
             id="path5656"
             inkscape:connector-curvature="0" /></g><g
           id="g5658"
           transform="translate(19.5,25)"><path
             d="M 0,0 -2,0 C -2.276,0 -2.5,0.224 -2.5,0.5 -2.5,0.776 -2.276,1 -2,1 L 0,1 C 0.276,1 0.5,0.776 0.5,0.5 0.5,0.224 0.276,0 0,0"
             style="fill:#f2f2f2;fill-opacity:1;fill-rule:nonzero;stroke:none"
             id="path5660"
             inkscape:connector-curvature="0" /></g><g
           id="g5662"
           transform="translate(23.5,25)"><path
             d="M 0,0 -2,0 C -2.276,0 -2.5,0.224 -2.5,0.5 -2.5,0.776 -2.276,1 -2,1 L 0,1 C 0.276,1 0.5,0.776 0.5,0.5 0.5,0.224 0.276,0 0,0"
             style="fill:#f2f2f2;fill-opacity:1;fill-rule:nonzero;stroke:none"
             id="path5664"
             inkscape:connector-curvature="0" /></g><g
           id="g5666"
           transform="translate(27.5,25)"><path
             d="M 0,0 -2,0 C -2.276,0 -2.5,0.224 -2.5,0.5 -2.5,0.776 -2.276,1 -2,1 L 0,1 C 0.276,1 0.5,0.776 0.5,0.5 0.5,0.224 0.276,0 0,0"
             style="fill:#f2f2f2;fill-opacity:1;fill-rule:nonzero;stroke:none"
             id="path5668"
             inkscape:connector-curvature="0" /></g><g
           id="g5670"
           transform="translate(31.5,25)"><path
             d="M 0,0 -2,0 C -2.276,0 -2.5,0.224 -2.5,0.5 -2.5,0.776 -2.276,1 -2,1 L 0,1 C 0.276,1 0.5,0.776 0.5,0.5 0.5,0.224 0.276,0 0,0"
             style="fill:#f2f2f2;fill-opacity:1;fill-rule:nonzero;stroke:none"
             id="path5672"
             inkscape:connector-curvature="0" /></g><g
           id="g5674"
           transform="translate(35.5,25)"><path
             d="M 0,0 -2,0 C -2.276,0 -2.5,0.224 -2.5,0.5 -2.5,0.776 -2.276,1 -2,1 L 0,1 C 0.276,1 0.5,0.776 0.5,0.5 0.5,0.224 0.276,0 0,0"
             style="fill:#f2f2f2;fill-opacity:1;fill-rule:nonzero;stroke:none"
             id="path5676"
             inkscape:connector-curvature="0" /></g><g
           id="g5678"
           transform="translate(39.5,25)"><path
             d="M 0,0 -2,0 C -2.276,0 -2.5,0.224 -2.5,0.5 -2.5,0.776 -2.276,1 -2,1 L 0,1 C 0.276,1 0.5,0.776 0.5,0.5 0.5,0.224 0.276,0 0,0"
             style="fill:#f2f2f2;fill-opacity:1;fill-rule:nonzero;stroke:none"
             id="path5680"
             inkscape:connector-curvature="0" /></g><g
           id="g5682"
           transform="translate(43.5,25)"><path
             d="M 0,0 -2,0 C -2.276,0 -2.5,0.224 -2.5,0.5 -2.5,0.776 -2.276,1 -2,1 L 0,1 C 0.276,1 0.5,0.776 0.5,0.5 0.5,0.224 0.276,0 0,0"
             style="fill:#f2f2f2;fill-opacity:1;fill-rule:nonzero;stroke:none"
             id="path5684"
             inkscape:connector-curvature="0" /></g><g
           id="g5686"
           transform="translate(47.5,25)"><path
             d="M 0,0 -2,0 C -2.276,0 -2.5,0.224 -2.5,0.5 -2.5,0.776 -2.276,1 -2,1 L 0,1 C 0.276,1 0.5,0.776 0.5,0.5 0.5,0.224 0.276,0 0,0"
             style="fill:#f2f2f2;fill-opacity:1;fill-rule:nonzero;stroke:none"
             id="path5688"
             inkscape:connector-curvature="0" /></g><g
           id="g5690"
           transform="translate(19.5,23)"><path
             d="M 0,0 -2,0 C -2.276,0 -2.5,0.224 -2.5,0.5 -2.5,0.776 -2.276,1 -2,1 L 0,1 C 0.276,1 0.5,0.776 0.5,0.5 0.5,0.224 0.276,0 0,0"
             style="fill:#f2f2f2;fill-opacity:1;fill-rule:nonzero;stroke:none"
             id="path5692"
             inkscape:connector-curvature="0" /></g><g
           id="g5694"
           transform="translate(23.5,23)"><path
             d="M 0,0 -2,0 C -2.276,0 -2.5,0.224 -2.5,0.5 -2.5,0.776 -2.276,1 -2,1 L 0,1 C 0.276,1 0.5,0.776 0.5,0.5 0.5,0.224 0.276,0 0,0"
             style="fill:#f2f2f2;fill-opacity:1;fill-rule:nonzero;stroke:none"
             id="path5696"
             inkscape:connector-curvature="0" /></g><g
           id="g5698"
           transform="translate(27.5,23)"><path
             d="M 0,0 -2,0 C -2.276,0 -2.5,0.224 -2.5,0.5 -2.5,0.776 -2.276,1 -2,1 L 0,1 C 0.276,1 0.5,0.776 0.5,0.5 0.5,0.224 0.276,0 0,0"
             style="fill:#f2f2f2;fill-opacity:1;fill-rule:nonzero;stroke:none"
             id="path5700"
             inkscape:connector-curvature="0" /></g><g
           id="g5702"
           transform="translate(31.5,23)"><path
             d="M 0,0 -2,0 C -2.276,0 -2.5,0.224 -2.5,0.5 -2.5,0.776 -2.276,1 -2,1 L 0,1 C 0.276,1 0.5,0.776 0.5,0.5 0.5,0.224 0.276,0 0,0"
             style="fill:#f2f2f2;fill-opacity:1;fill-rule:nonzero;stroke:none"
             id="path5704"
             inkscape:connector-curvature="0" /></g><g
           id="g5706"
           transform="translate(35.5,23)"><path
             d="M 0,0 -2,0 C -2.276,0 -2.5,0.224 -2.5,0.5 -2.5,0.776 -2.276,1 -2,1 L 0,1 C 0.276,1 0.5,0.776 0.5,0.5 0.5,0.224 0.276,0 0,0"
             style="fill:#f2f2f2;fill-opacity:1;fill-rule:nonzero;stroke:none"
             id="path5708"
             inkscape:connector-curvature="0" /></g><g
           id="g5710"
           transform="translate(39.5,23)"><path
             d="M 0,0 -2,0 C -2.276,0 -2.5,0.224 -2.5,0.5 -2.5,0.776 -2.276,1 -2,1 L 0,1 C 0.276,1 0.5,0.776 0.5,0.5 0.5,0.224 0.276,0 0,0"
             style="fill:#f2f2f2;fill-opacity:1;fill-rule:nonzero;stroke:none"
             id="path5712"
             inkscape:connector-curvature="0" /></g><g
           id="g5714"
           transform="translate(43.5,23)"><path
             d="M 0,0 -2,0 C -2.276,0 -2.5,0.224 -2.5,0.5 -2.5,0.776 -2.276,1 -2,1 L 0,1 C 0.276,1 0.5,0.776 0.5,0.5 0.5,0.224 0.276,0 0,0"
             style="fill:#f2f2f2;fill-opacity:1;fill-rule:nonzero;stroke:none"
             id="path5716"
             inkscape:connector-curvature="0" /></g><g
           id="g5718"
           transform="translate(47.5,23)"><path
             d="M 0,0 -2,0 C -2.276,0 -2.5,0.224 -2.5,0.5 -2.5,0.776 -2.276,1 -2,1 L 0,1 C 0.276,1 0.5,0.776 0.5,0.5 0.5,0.224 0.276,0 0,0"
             style="fill:#f2f2f2;fill-opacity:1;fill-rule:nonzero;stroke:none"
             id="path5720"
             inkscape:connector-curvature="0" /></g><g
           id="g5722"
           transform="translate(19.5,21)"><path
             d="M 0,0 -2,0 C -2.276,0 -2.5,0.224 -2.5,0.5 -2.5,0.776 -2.276,1 -2,1 L 0,1 C 0.276,1 0.5,0.776 0.5,0.5 0.5,0.224 0.276,0 0,0"
             style="fill:#f2f2f2;fill-opacity:1;fill-rule:nonzero;stroke:none"
             id="path5724"
             inkscape:connector-curvature="0" /></g><g
           id="g5726"
           transform="translate(23.5,21)"><path
             d="M 0,0 -2,0 C -2.276,0 -2.5,0.224 -2.5,0.5 -2.5,0.776 -2.276,1 -2,1 L 0,1 C 0.276,1 0.5,0.776 0.5,0.5 0.5,0.224 0.276,0 0,0"
             style="fill:#f2f2f2;fill-opacity:1;fill-rule:nonzero;stroke:none"
             id="path5728"
             inkscape:connector-curvature="0" /></g><g
           id="g5730"
           transform="translate(27.5,21)"><path
             d="M 0,0 -2,0 C -2.276,0 -2.5,0.224 -2.5,0.5 -2.5,0.776 -2.276,1 -2,1 L 0,1 C 0.276,1 0.5,0.776 0.5,0.5 0.5,0.224 0.276,0 0,0"
             style="fill:#f2f2f2;fill-opacity:1;fill-rule:nonzero;stroke:none"
             id="path5732"
             inkscape:connector-curvature="0" /></g><g
           id="g5734"
           transform="translate(31.5,21)"><path
             d="M 0,0 -2,0 C -2.276,0 -2.5,0.224 -2.5,0.5 -2.5,0.776 -2.276,1 -2,1 L 0,1 C 0.276,1 0.5,0.776 0.5,0.5 0.5,0.224 0.276,0 0,0"
             style="fill:#f2f2f2;fill-opacity:1;fill-rule:nonzero;stroke:none"
             id="path5736"
             inkscape:connector-curvature="0" /></g><g
           id="g5738"
           transform="translate(35.5,21)"><path
             d="M 0,0 -2,0 C -2.276,0 -2.5,0.224 -2.5,0.5 -2.5,0.776 -2.276,1 -2,1 L 0,1 C 0.276,1 0.5,0.776 0.5,0.5 0.5,0.224 0.276,0 0,0"
             style="fill:#f2f2f2;fill-opacity:1;fill-rule:nonzero;stroke:none"
             id="path5740"
             inkscape:connector-curvature="0" /></g><g
           id="g5742"
           transform="translate(39.5,21)"><path
             d="M 0,0 -2,0 C -2.276,0 -2.5,0.224 -2.5,0.5 -2.5,0.776 -2.276,1 -2,1 L 0,1 C 0.276,1 0.5,0.776 0.5,0.5 0.5,0.224 0.276,0 0,0"
             style="fill:#f2f2f2;fill-opacity:1;fill-rule:nonzero;stroke:none"
             id="path5744"
             inkscape:connector-curvature="0" /></g><g
           id="g5746"
           transform="translate(43.5,21)"><path
             d="M 0,0 -2,0 C -2.276,0 -2.5,0.224 -2.5,0.5 -2.5,0.776 -2.276,1 -2,1 L 0,1 C 0.276,1 0.5,0.776 0.5,0.5 0.5,0.224 0.276,0 0,0"
             style="fill:#f2f2f2;fill-opacity:1;fill-rule:nonzero;stroke:none"
             id="path5748"
             inkscape:connector-curvature="0" /></g><g
           id="g5750"
           transform="translate(47.5,21)"><path
             d="M 0,0 -2,0 C -2.276,0 -2.5,0.224 -2.5,0.5 -2.5,0.776 -2.276,1 -2,1 L 0,1 C 0.276,1 0.5,0.776 0.5,0.5 0.5,0.224 0.276,0 0,0"
             style="fill:#f2f2f2;fill-opacity:1;fill-rule:nonzero;stroke:none"
             id="path5752"
             inkscape:connector-curvature="0" /></g><g
           id="g5754"
           transform="translate(19.5,17)"><path
             d="M 0,0 -2,0 C -2.276,0 -2.5,0.224 -2.5,0.5 -2.5,0.776 -2.276,1 -2,1 L 0,1 C 0.276,1 0.5,0.776 0.5,0.5 0.5,0.224 0.276,0 0,0"
             style="fill:#f2f2f2;fill-opacity:1;fill-rule:nonzero;stroke:none"
             id="path5756"
             inkscape:connector-curvature="0" /></g><g
           id="g5758"
           transform="translate(23.5,17)"><path
             d="M 0,0 -2,0 C -2.276,0 -2.5,0.224 -2.5,0.5 -2.5,0.776 -2.276,1 -2,1 L 0,1 C 0.276,1 0.5,0.776 0.5,0.5 0.5,0.224 0.276,0 0,0"
             style="fill:#f2f2f2;fill-opacity:1;fill-rule:nonzero;stroke:none"
             id="path5760"
             inkscape:connector-curvature="0" /></g><g
           id="g5762"
           transform="translate(27.5,17)"><path
             d="M 0,0 -2,0 C -2.276,0 -2.5,0.224 -2.5,0.5 -2.5,0.776 -2.276,1 -2,1 L 0,1 C 0.276,1 0.5,0.776 0.5,0.5 0.5,0.224 0.276,0 0,0"
             style="fill:#f2f2f2;fill-opacity:1;fill-rule:nonzero;stroke:none"
             id="path5764"
             inkscape:connector-curvature="0" /></g><g
           id="g5766"
           transform="translate(31.5,17)"><path
             d="M 0,0 -2,0 C -2.276,0 -2.5,0.224 -2.5,0.5 -2.5,0.776 -2.276,1 -2,1 L 0,1 C 0.276,1 0.5,0.776 0.5,0.5 0.5,0.224 0.276,0 0,0"
             style="fill:#f2f2f2;fill-opacity:1;fill-rule:nonzero;stroke:none"
             id="path5768"
             inkscape:connector-curvature="0" /></g><g
           id="g5770"
           transform="translate(35.5,17)"><path
             d="M 0,0 -2,0 C -2.276,0 -2.5,0.224 -2.5,0.5 -2.5,0.776 -2.276,1 -2,1 L 0,1 C 0.276,1 0.5,0.776 0.5,0.5 0.5,0.224 0.276,0 0,0"
             style="fill:#f2f2f2;fill-opacity:1;fill-rule:nonzero;stroke:none"
             id="path5772"
             inkscape:connector-curvature="0" /></g><g
           id="g5774"
           transform="translate(39.5,17)"><path
             d="M 0,0 -2,0 C -2.276,0 -2.5,0.224 -2.5,0.5 -2.5,0.776 -2.276,1 -2,1 L 0,1 C 0.276,1 0.5,0.776 0.5,0.5 0.5,0.224 0.276,0 0,0"
             style="fill:#f2f2f2;fill-opacity:1;fill-rule:nonzero;stroke:none"
             id="path5776"
             inkscape:connector-curvature="0" /></g><g
           id="g5778"
           transform="translate(43.5,17)"><path
             d="M 0,0 -2,0 C -2.276,0 -2.5,0.224 -2.5,0.5 -2.5,0.776 -2.276,1 -2,1 L 0,1 C 0.276,1 0.5,0.776 0.5,0.5 0.5,0.224 0.276,0 0,0"
             style="fill:#f2f2f2;fill-opacity:1;fill-rule:nonzero;stroke:none"
             id="path5780"
             inkscape:connector-curvature="0" /></g><g
           id="g5782"
           transform="translate(47.5,17)"><path
             d="M 0,0 -2,0 C -2.276,0 -2.5,0.224 -2.5,0.5 -2.5,0.776 -2.276,1 -2,1 L 0,1 C 0.276,1 0.5,0.776 0.5,0.5 0.5,0.224 0.276,0 0,0"
             style="fill:#f2f2f2;fill-opacity:1;fill-rule:nonzero;stroke:none"
             id="path5784"
             inkscape:connector-curvature="0" /></g><g
           id="g5786"
           transform="translate(21.5,19)"><path
             d="M 0,0 -2,0 C -2.276,0 -2.5,0.224 -2.5,0.5 -2.5,0.776 -2.276,1 -2,1 L 0,1 C 0.276,1 0.5,0.776 0.5,0.5 0.5,0.224 0.276,0 0,0"
             style="fill:#f2f2f2;fill-opacity:1;fill-rule:nonzero;stroke:none"
             id="path5788"
             inkscape:connector-curvature="0" /></g><g
           id="g5790"
           transform="translate(25.5,19)"><path
             d="M 0,0 -2,0 C -2.276,0 -2.5,0.224 -2.5,0.5 -2.5,0.776 -2.276,1 -2,1 L 0,1 C 0.276,1 0.5,0.776 0.5,0.5 0.5,0.224 0.276,0 0,0"
             style="fill:#f2f2f2;fill-opacity:1;fill-rule:nonzero;stroke:none"
             id="path5792"
             inkscape:connector-curvature="0" /></g><g
           id="g5794"
           transform="translate(29.5,19)"><path
             d="M 0,0 -2,0 C -2.276,0 -2.5,0.224 -2.5,0.5 -2.5,0.776 -2.276,1 -2,1 L 0,1 C 0.276,1 0.5,0.776 0.5,0.5 0.5,0.224 0.276,0 0,0"
             style="fill:#f2f2f2;fill-opacity:1;fill-rule:nonzero;stroke:none"
             id="path5796"
             inkscape:connector-curvature="0" /></g><g
           id="g5798"
           transform="translate(33.5,19)"><path
             d="M 0,0 -2,0 C -2.276,0 -2.5,0.224 -2.5,0.5 -2.5,0.776 -2.276,1 -2,1 L 0,1 C 0.276,1 0.5,0.776 0.5,0.5 0.5,0.224 0.276,0 0,0"
             style="fill:#f2f2f2;fill-opacity:1;fill-rule:nonzero;stroke:none"
             id="path5800"
             inkscape:connector-curvature="0" /></g><g
           id="g5802"
           transform="translate(37.5,19)"><path
             d="M 0,0 -2,0 C -2.276,0 -2.5,0.224 -2.5,0.5 -2.5,0.776 -2.276,1 -2,1 L 0,1 C 0.276,1 0.5,0.776 0.5,0.5 0.5,0.224 0.276,0 0,0"
             style="fill:#f2f2f2;fill-opacity:1;fill-rule:nonzero;stroke:none"
             id="path5804"
             inkscape:connector-curvature="0" /></g><g
           id="g5806"
           transform="translate(41.5,19)"><path
             d="M 0,0 -2,0 C -2.276,0 -2.5,0.224 -2.5,0.5 -2.5,0.776 -2.276,1 -2,1 L 0,1 C 0.276,1 0.5,0.776 0.5,0.5 0.5,0.224 0.276,0 0,0"
             style="fill:#f2f2f2;fill-opacity:1;fill-rule:nonzero;stroke:none"
             id="path5808"
             inkscape:connector-curvature="0" /></g><g
           id="g5810"
           transform="translate(45.5,19)"><path
             d="M 0,0 -2,0 C -2.276,0 -2.5,0.224 -2.5,0.5 -2.5,0.776 -2.276,1 -2,1 L 0,1 C 0.276,1 0.5,0.776 0.5,0.5 0.5,0.224 0.276,0 0,0"
             style="fill:#f2f2f2;fill-opacity:1;fill-rule:nonzero;stroke:none"
             id="path5812"
             inkscape:connector-curvature="0" /></g></g></g></g></svg>