<?xml version="1.0" encoding="UTF-8" standalone="no"?>
<!-- Created with Inkscape (http://www.inkscape.org/) -->

<svg
   xmlns:dc="http://purl.org/dc/elements/1.1/"
   xmlns:cc="http://creativecommons.org/ns#"
   xmlns:rdf="http://www.w3.org/1999/02/22-rdf-syntax-ns#"
   xmlns:svg="http://www.w3.org/2000/svg"
   xmlns="http://www.w3.org/2000/svg"
   xmlns:sodipodi="http://sodipodi.sourceforge.net/DTD/sodipodi-0.dtd"
   xmlns:inkscape="http://www.inkscape.org/namespaces/inkscape"
   id="svg6789"
   version="1.1"
   inkscape:version="0.48.5 r10040"
   width="64"
   height="64"
   xml:space="preserve"
   sodipodi:docname="Philips - Videopac+-content.svg"
   inkscape:export-filename="/Users/margetts/Desktop/Icon Workshop/Monochrome July/PDF/Philips - Videopac+-content.png"
   inkscape:export-xdpi="360"
   inkscape:export-ydpi="360"><metadata
     id="metadata6795"><rdf:RDF><cc:Work
         rdf:about=""><dc:format>image/svg+xml</dc:format><dc:type
           rdf:resource="http://purl.org/dc/dcmitype/StillImage" /><dc:title></dc:title></cc:Work></rdf:RDF></metadata><defs
     id="defs6793"><clipPath
       clipPathUnits="userSpaceOnUse"
       id="clipPath6803"><path
         d="M 0,64 64,64 64,0 0,0 0,64 z"
         id="path6805"
         inkscape:connector-curvature="0" /></clipPath></defs><sodipodi:namedview
     pagecolor="#ffffff"
     bordercolor="#666666"
     borderopacity="1"
     objecttolerance="10"
     gridtolerance="10"
     guidetolerance="10"
     inkscape:pageopacity="0"
     inkscape:pageshadow="2"
     inkscape:window-width="1676"
     inkscape:window-height="1005"
     id="namedview6791"
     showgrid="false"
     inkscape:zoom="10.45"
     inkscape:cx="27.990431"
     inkscape:cy="40"
     inkscape:window-x="4"
     inkscape:window-y="1"
     inkscape:window-maximized="1"
     inkscape:current-layer="g6797" /><g
     id="g6797"
     inkscape:groupmode="layer"
     inkscape:label="Philips - Videopac+-content"
     transform="matrix(1.25,0,0,-1.25,0,64)"><g
       id="g6799"
       transform="scale(0.8,0.8)"><g
         id="g6801"
         clip-path="url(#clipPath6803)"><g
           id="g6807"
           transform="translate(43,17)"><path
             d="m 0,0 c 0,-0.553 -0.447,-1 -1,-1 l -20,0 c -0.553,0 -1,0.447 -1,1 l 0,23 c 0,0.553 0.447,1 1,1 l 20,0 c 0.553,0 1,-0.447 1,-1 L 0,0 z M 2,29 C 2,28.447 1.553,28 1,28 l -24,0 c -0.553,0 -1,0.447 -1,1 l 0,7 c 0,0.553 0.447,1 1,1 l 24,0 c 0.553,0 1,-0.447 1,-1 L 2,29 z M 2,-2 C 2,-2.553 1.553,-3 1,-3 l -24,0 c -0.553,0 -1,0.447 -1,1 l 0,27 c 0,0.553 0.447,1 1,1 l 24,0 c 0.553,0 1,-0.447 1,-1 L 2,-2 z m 3,43 -32,0 c -0.553,0 -1,-0.447 -1,-1 l 0,-50 c 0,-0.553 0.447,-1 1,-1 l 32,0 c 0.553,0 1,0.447 1,1 l 0,50 c 0,0.553 -0.447,1 -1,1"
             style="fill:#f2f2f2;fill-opacity:1;fill-rule:nonzero;stroke:none"
             id="path6809"
             inkscape:connector-curvature="0" /></g></g></g></g></svg>