<?xml version="1.0" encoding="UTF-8" standalone="no"?>
<!-- Created with Inkscape (http://www.inkscape.org/) -->

<svg
   xmlns:dc="http://purl.org/dc/elements/1.1/"
   xmlns:cc="http://creativecommons.org/ns#"
   xmlns:rdf="http://www.w3.org/1999/02/22-rdf-syntax-ns#"
   xmlns:svg="http://www.w3.org/2000/svg"
   xmlns="http://www.w3.org/2000/svg"
   xmlns:sodipodi="http://sodipodi.sourceforge.net/DTD/sodipodi-0.dtd"
   xmlns:inkscape="http://www.inkscape.org/namespaces/inkscape"
   id="svg6723"
   version="1.1"
   inkscape:version="0.48.5 r10040"
   width="64"
   height="64"
   xml:space="preserve"
   sodipodi:docname="RCA - Studio II-content.svg"
   inkscape:export-filename="/Users/margetts/Desktop/Icon Workshop/Monochrome July/PDF/RCA - Studio II-content.png"
   inkscape:export-xdpi="360"
   inkscape:export-ydpi="360"><metadata
     id="metadata6729"><rdf:RDF><cc:Work
         rdf:about=""><dc:format>image/svg+xml</dc:format><dc:type
           rdf:resource="http://purl.org/dc/dcmitype/StillImage" /><dc:title></dc:title></cc:Work></rdf:RDF></metadata><defs
     id="defs6727"><clipPath
       clipPathUnits="userSpaceOnUse"
       id="clipPath6739"><path
         d="M 0,64 64,64 64,0 0,0 0,64 z"
         id="path6741"
         inkscape:connector-curvature="0" /></clipPath></defs><sodipodi:namedview
     pagecolor="#ffffff"
     bordercolor="#666666"
     borderopacity="1"
     objecttolerance="10"
     gridtolerance="10"
     guidetolerance="10"
     inkscape:pageopacity="0"
     inkscape:pageshadow="2"
     inkscape:window-width="1676"
     inkscape:window-height="1005"
     id="namedview6725"
     showgrid="false"
     inkscape:zoom="10.45"
     inkscape:cx="27.990431"
     inkscape:cy="40"
     inkscape:window-x="4"
     inkscape:window-y="1"
     inkscape:window-maximized="1"
     inkscape:current-layer="g6731" /><g
     id="g6731"
     inkscape:groupmode="layer"
     inkscape:label="RCA - Studio II-content"
     transform="matrix(1.25,0,0,-1.25,0,64)"><g
       id="g6735"
       transform="matrix(0.8,0,0,0.8,0,0.4)"><g
         id="g6737"
         clip-path="url(#clipPath6739)"><g
           id="g6743"
           transform="translate(55,32)"><path
             d="m 0,0 c 0,-0.552 -0.447,-1 -1,-1 l -44,0 c -0.552,0 -1,0.448 -1,1 l 0,18 c 0,0.552 0.448,1 1,1 l 44,0 c 0.553,0 1,-0.448 1,-1 L 0,0 z m 2,20 -50,0 -1,-12 0,-23 5,0 0,-6 42,0 0,6 5,0 0,23 -1,12 z"
             style="fill:#f2f2f2;fill-opacity:1;fill-rule:nonzero;stroke:none"
             id="path6745"
             inkscape:connector-curvature="0" /></g><g
           id="g6747"
           transform="translate(53,32)"><path
             d="m 0,0 -42,0 c -0.552,0 -1,0.448 -1,1 l 0,16 c 0,0.552 0.448,1 1,1 l 42,0 c 0.553,0 1,-0.448 1,-1 L 1,1 C 1,0.448 0.553,0 0,0"
             style="fill:#f2f2f2;fill-opacity:1;fill-rule:nonzero;stroke:none"
             id="path6749"
             inkscape:connector-curvature="0" /></g></g></g></g></svg>