<?xml version="1.0" encoding="UTF-8" standalone="no"?>
<!-- Created with Inkscape (http://www.inkscape.org/) -->

<svg
   xmlns:dc="http://purl.org/dc/elements/1.1/"
   xmlns:cc="http://creativecommons.org/ns#"
   xmlns:rdf="http://www.w3.org/1999/02/22-rdf-syntax-ns#"
   xmlns:svg="http://www.w3.org/2000/svg"
   xmlns="http://www.w3.org/2000/svg"
   xmlns:sodipodi="http://sodipodi.sourceforge.net/DTD/sodipodi-0.dtd"
   xmlns:inkscape="http://www.inkscape.org/namespaces/inkscape"
   id="svg5893"
   version="1.1"
   inkscape:version="0.48.5 r10040"
   width="64"
   height="64"
   xml:space="preserve"
   sodipodi:docname="RCA - Studio II.svg"
   inkscape:export-filename="/Users/margetts/Desktop/Icon Workshop/Monochrome July/RCA - Studio II.png"
   inkscape:export-xdpi="360"
   inkscape:export-ydpi="360"><metadata
     id="metadata5899"><rdf:RDF><cc:Work
         rdf:about=""><dc:format>image/svg+xml</dc:format><dc:type
           rdf:resource="http://purl.org/dc/dcmitype/StillImage" /><dc:title></dc:title></cc:Work></rdf:RDF></metadata><defs
     id="defs5897"><clipPath
       clipPathUnits="userSpaceOnUse"
       id="clipPath5949"><path
         d="M 0,64 64,64 64,0 0,0 0,64 z"
         id="path5951"
         inkscape:connector-curvature="0" /></clipPath></defs><sodipodi:namedview
     pagecolor="#ffffff"
     bordercolor="#666666"
     borderopacity="1"
     objecttolerance="10"
     gridtolerance="10"
     guidetolerance="10"
     inkscape:pageopacity="0"
     inkscape:pageshadow="2"
     inkscape:window-width="1676"
     inkscape:window-height="1005"
     id="namedview5895"
     showgrid="false"
     inkscape:zoom="14.760854"
     inkscape:cx="31.497782"
     inkscape:cy="40"
     inkscape:window-x="4"
     inkscape:window-y="1"
     inkscape:window-maximized="1"
     inkscape:current-layer="g5901" /><g
     id="g5901"
     inkscape:groupmode="layer"
     inkscape:label="RCA - Studio II"
     transform="matrix(1.25,0,0,-1.25,0,64)"><g
       id="g5957"
       transform="scale(0.8,0.8)"><path
         id="path5903"
         style="fill:#f2f2f2;fill-opacity:1;fill-rule:nonzero;stroke:none"
         d="m 13,37 -2,0 0,2 2,0 0,-2 z"
         inkscape:connector-curvature="0" /><path
         id="path5905"
         style="fill:#f2f2f2;fill-opacity:1;fill-rule:nonzero;stroke:none"
         d="m 16,37 -2,0 0,2 2,0 0,-2 z"
         inkscape:connector-curvature="0" /><path
         id="path5907"
         style="fill:#f2f2f2;fill-opacity:1;fill-rule:nonzero;stroke:none"
         d="m 19,37 -2,0 0,2 2,0 0,-2 z"
         inkscape:connector-curvature="0" /><path
         id="path5909"
         style="fill:#f2f2f2;fill-opacity:1;fill-rule:nonzero;stroke:none"
         d="m 13,34 -2,0 0,2 2,0 0,-2 z"
         inkscape:connector-curvature="0" /><path
         id="path5911"
         style="fill:#f2f2f2;fill-opacity:1;fill-rule:nonzero;stroke:none"
         d="m 16,34 -2,0 0,2 2,0 0,-2 z"
         inkscape:connector-curvature="0" /><path
         id="path5913"
         style="fill:#f2f2f2;fill-opacity:1;fill-rule:nonzero;stroke:none"
         d="m 19,34 -2,0 0,2 2,0 0,-2 z"
         inkscape:connector-curvature="0" /><path
         id="path5915"
         style="fill:#f2f2f2;fill-opacity:1;fill-rule:nonzero;stroke:none"
         d="m 13,31 -2,0 0,2 2,0 0,-2 z"
         inkscape:connector-curvature="0" /><path
         id="path5917"
         style="fill:#f2f2f2;fill-opacity:1;fill-rule:nonzero;stroke:none"
         d="m 16,31 -2,0 0,2 2,0 0,-2 z"
         inkscape:connector-curvature="0" /><path
         id="path5919"
         style="fill:#f2f2f2;fill-opacity:1;fill-rule:nonzero;stroke:none"
         d="m 16,28 -2,0 0,2 2,0 0,-2 z"
         inkscape:connector-curvature="0" /><path
         id="path5921"
         style="fill:#f2f2f2;fill-opacity:1;fill-rule:nonzero;stroke:none"
         d="m 19,31 -2,0 0,2 2,0 0,-2 z"
         inkscape:connector-curvature="0" /><path
         id="path5923"
         style="fill:#f2f2f2;fill-opacity:1;fill-rule:nonzero;stroke:none"
         d="m 47,37 -2,0 0,2 2,0 0,-2 z"
         inkscape:connector-curvature="0" /><path
         id="path5925"
         style="fill:#f2f2f2;fill-opacity:1;fill-rule:nonzero;stroke:none"
         d="m 50,37 -2,0 0,2 2,0 0,-2 z"
         inkscape:connector-curvature="0" /><path
         id="path5927"
         style="fill:#f2f2f2;fill-opacity:1;fill-rule:nonzero;stroke:none"
         d="m 53,37 -2,0 0,2 2,0 0,-2 z"
         inkscape:connector-curvature="0" /><path
         id="path5929"
         style="fill:#f2f2f2;fill-opacity:1;fill-rule:nonzero;stroke:none"
         d="m 47,34 -2,0 0,2 2,0 0,-2 z"
         inkscape:connector-curvature="0" /><path
         id="path5931"
         style="fill:#f2f2f2;fill-opacity:1;fill-rule:nonzero;stroke:none"
         d="m 50,34 -2,0 0,2 2,0 0,-2 z"
         inkscape:connector-curvature="0" /><path
         id="path5933"
         style="fill:#f2f2f2;fill-opacity:1;fill-rule:nonzero;stroke:none"
         d="m 53,34 -2,0 0,2 2,0 0,-2 z"
         inkscape:connector-curvature="0" /><path
         id="path5935"
         style="fill:#f2f2f2;fill-opacity:1;fill-rule:nonzero;stroke:none"
         d="m 47,31 -2,0 0,2 2,0 0,-2 z"
         inkscape:connector-curvature="0" /><path
         id="path5937"
         style="fill:#f2f2f2;fill-opacity:1;fill-rule:nonzero;stroke:none"
         d="m 50,31 -2,0 0,2 2,0 0,-2 z"
         inkscape:connector-curvature="0" /><path
         id="path5939"
         style="fill:#f2f2f2;fill-opacity:1;fill-rule:nonzero;stroke:none"
         d="m 50,28 -2,0 0,2 2,0 0,-2 z"
         inkscape:connector-curvature="0" /><path
         id="path5941"
         style="fill:#f2f2f2;fill-opacity:1;fill-rule:nonzero;stroke:none"
         d="m 53,31 -2,0 0,2 2,0 0,-2 z"
         inkscape:connector-curvature="0" /><g
         id="g5945"><g
           clip-path="url(#clipPath5949)"
           id="g5947"><path
             id="path5953"
             style="fill:#f2f2f2;fill-opacity:1;fill-rule:nonzero;stroke:none"
             d="m 54,27 -10,0 0,13 10,0 0,-13 z m -14,4 -16,0 0,9 16,0 0,-9 z m 0,-2.061 -5,0 0,1 5,0 0,-1 z M 40,27 l -5,0 0,1 5,0 0,-1 z m 0,-1.939 -5,0 0,1 5,0 0,-1 z m 0,-1.94 -5,0 0,1 5,0 0,-1 z M 31.5,28.5 c 0,0.276 0.224,0.5 0.5,0.5 0.276,0 0.5,-0.224 0.5,-0.5 0,-0.276 -0.224,-0.5 -0.5,-0.5 -0.276,0 -0.5,0.224 -0.5,0.5 M 33,23 l -2.001,0 0,1 2.001,0 0,-1 z m -4,5.939 -5,0 0,1 5,0 0,-1 z M 29,27 l -5,0 0,1 5,0 0,-1 z m 0,-1.939 -5,0 0,1 5,0 0,-1 z m 0,-1.94 -5,0 0,1 5,0 0,-1 z M 20,27 l -10,0 0,13 10,0 0,-13 z m 38.951,14.947 c -0.01,0.053 -0.024,0.102 -0.037,0.153 -0.026,0.11 -0.057,0.217 -0.097,0.322 -0.02,0.055 -0.043,0.108 -0.066,0.161 -0.044,0.099 -0.095,0.194 -0.149,0.286 -0.029,0.047 -0.055,0.095 -0.085,0.14 -0.071,0.104 -0.149,0.201 -0.233,0.295 -0.022,0.026 -0.042,0.054 -0.066,0.079 -0.11,0.114 -0.23,0.218 -0.358,0.311 -0.036,0.027 -0.075,0.048 -0.112,0.073 -0.097,0.064 -0.195,0.124 -0.299,0.175 -0.053,0.027 -0.106,0.049 -0.161,0.072 -0.051,0.021 -0.098,0.048 -0.15,0.066 l 0,-0.013 c -0.251,0.089 -0.513,0.155 -0.791,0.169 L 41,45 l -1,-1 -7.069,0.104 -1.862,0 L 24,44 23,45 7.654,44.236 C 7.375,44.222 7.113,44.156 6.862,44.067 l 0,0.013 C 6.81,44.062 6.762,44.035 6.711,44.014 6.657,43.991 6.604,43.969 6.551,43.942 6.447,43.891 6.349,43.831 6.252,43.767 6.215,43.742 6.175,43.721 6.139,43.694 6.012,43.601 5.892,43.497 5.782,43.383 5.758,43.358 5.739,43.33 5.716,43.304 5.632,43.21 5.554,43.113 5.483,43.009 5.453,42.964 5.426,42.916 5.398,42.869 5.343,42.777 5.293,42.682 5.249,42.583 5.226,42.53 5.203,42.477 5.182,42.422 5.143,42.317 5.112,42.21 5.086,42.1 5.073,42.049 5.058,42 5.049,41.947 5.019,41.784 5,41.618 5,41.446 L 5,22.592 C 5,21.088 6.19,19.854 7.693,19.801 L 31,19 l 2,0 23.307,0.801 C 57.81,19.854 59,21.088 59,22.592 l 0,18.854 c 0,0.172 -0.02,0.338 -0.049,0.501"
             inkscape:connector-curvature="0" /><path
             id="path5955"
             style="fill:#f2f2f2;fill-opacity:1;fill-rule:nonzero;stroke:none"
             d="m 29,35 -4,0 0,4 4,0 0,-4 z"
             inkscape:connector-curvature="0" /></g></g></g></g></svg>