<?xml version="1.0" encoding="UTF-8" standalone="no"?>
<!-- Created with Inkscape (http://www.inkscape.org/) -->

<svg
   xmlns:dc="http://purl.org/dc/elements/1.1/"
   xmlns:cc="http://creativecommons.org/ns#"
   xmlns:rdf="http://www.w3.org/1999/02/22-rdf-syntax-ns#"
   xmlns:svg="http://www.w3.org/2000/svg"
   xmlns="http://www.w3.org/2000/svg"
   xmlns:sodipodi="http://sodipodi.sourceforge.net/DTD/sodipodi-0.dtd"
   xmlns:inkscape="http://www.inkscape.org/namespaces/inkscape"
   id="svg3004"
   version="1.1"
   inkscape:version="0.48.5 r10040"
   width="64"
   height="64"
   xml:space="preserve"
   sodipodi:docname="Mono Rick Dangerous.svg"
   inkscape:export-filename="/Users/margetts/Desktop/Mono Rick Dangerous.png"
   inkscape:export-xdpi="360"
   inkscape:export-ydpi="360"><metadata
     id="metadata3010"><rdf:RDF><cc:Work
         rdf:about=""><dc:format>image/svg+xml</dc:format><dc:type
           rdf:resource="http://purl.org/dc/dcmitype/StillImage" /><dc:title></dc:title></cc:Work></rdf:RDF></metadata><defs
     id="defs3008"><clipPath
       clipPathUnits="userSpaceOnUse"
       id="clipPath3048"><path
         d="M 0,64 64,64 64,0 0,0 0,64 z"
         id="path3050"
         inkscape:connector-curvature="0" /></clipPath></defs><sodipodi:namedview
     pagecolor="#ffffff"
     bordercolor="#666666"
     borderopacity="1"
     objecttolerance="10"
     gridtolerance="10"
     guidetolerance="10"
     inkscape:pageopacity="0"
     inkscape:pageshadow="2"
     inkscape:window-width="1612"
     inkscape:window-height="1001"
     id="namedview3006"
     showgrid="false"
     inkscape:zoom="9.8625"
     inkscape:cx="40"
     inkscape:cy="40"
     inkscape:window-x="0"
     inkscape:window-y="0"
     inkscape:window-maximized="0"
     inkscape:current-layer="g3012" /><g
     id="g3012"
     inkscape:groupmode="layer"
     inkscape:label="Mono Rick Dangerous"
     transform="matrix(1.25,0,0,-1.25,0,64)"><g
       id="g3056"
       transform="scale(0.8,0.8)"><g
         transform="translate(34,40)"
         id="g3014"><path
           id="path3016"
           style="fill:#f2f2f2;fill-opacity:1;fill-rule:nonzero;stroke:none"
           d="m 0,0 -6,0 -2,0 0,-2 -2,0 0,2 -4,0 0,-2 0,-2 6,0 0,-2 2,0 0,2 0,2 2,0 0,-2 2,0 0,-2 4,0 0,-2 -6,0 0,2 -2,0 0,-6 2,0 10,0 0,2 2,0 0,2 -2,0 0,4 -2,0 -2,0 0,2 -2,0 0,2 z"
           inkscape:connector-curvature="0" /></g><path
         id="path3018"
         style="fill:#f2f2f2;fill-opacity:1;fill-rule:nonzero;stroke:none"
         d="m 36,38 8,0 0,2 -8,0 0,-2 z"
         inkscape:connector-curvature="0" /><g
         transform="translate(36,44)"
         id="g3020"><path
           id="path3022"
           style="fill:#f2f2f2;fill-opacity:1;fill-rule:nonzero;stroke:none"
           d="m 0,0 0,2 4,0 0,2 0,2 -4,0 0,-2 -4,0 0,2 -8,0 0,-2 -2,0 0,-2 12,0 0,-2 -18,0 0,-2 32,0 0,2 -12,0 z"
           inkscape:connector-curvature="0" /></g><g
         transform="translate(26,20)"
         id="g3024"><path
           id="path3026"
           style="fill:#f2f2f2;fill-opacity:1;fill-rule:nonzero;stroke:none"
           d="M 0,0 0,2 2,2 2,4 -8,4 -8,2 -6,2 -6,0 0,0 z"
           inkscape:connector-curvature="0" /></g><g
         transform="translate(22,32)"
         id="g3028"><path
           id="path3030"
           style="fill:#f2f2f2;fill-opacity:1;fill-rule:nonzero;stroke:none"
           d="m 0,0 -2,0 0,-2 2,0 0,-4 4,0 0,4 0,2 0,2 -4,0 0,-2 z"
           inkscape:connector-curvature="0" /></g><g
         transform="translate(34,22)"
         id="g3032"><path
           id="path3034"
           style="fill:#f2f2f2;fill-opacity:1;fill-rule:nonzero;stroke:none"
           d="m 0,0 2,0 0,2 2,0 0,2 -2,0 -2,0 -4,0 0,-2 0,-2 2,0 0,-2 2,0 0,2 z"
           inkscape:connector-curvature="0" /></g><g
         transform="translate(34,18)"
         id="g3036"><path
           id="path3038"
           style="fill:#f2f2f2;fill-opacity:1;fill-rule:nonzero;stroke:none"
           d="m 0,0 -2,0 0,2 -4,0 0,-2 -4,0 0,-6 4,0 4,0 2,0 2,0 0,2 -2,0 0,4 z"
           inkscape:connector-curvature="0" /></g><g
         transform="translate(40,18)"
         id="g3040"><path
           id="path3042"
           style="fill:#f2f2f2;fill-opacity:1;fill-rule:nonzero;stroke:none"
           d="m 0,0 -2,0 0,2 -2,0 0,-2 0,-4 2,0 0.063,0 0,-2 3.937,0 0,4 -2,0 0,2 z"
           inkscape:connector-curvature="0" /></g><g
         id="g3044"><g
           clip-path="url(#clipPath3048)"
           id="g3046"><g
             transform="translate(52,42)"
             id="g3052"><path
               id="path3054"
               style="fill:#f2f2f2;fill-opacity:1;fill-rule:nonzero;stroke:none"
               d="m 0,0 -2,0 0,-2 -4,0 0,-2 -2,0 0,-2 -2,0 0,-2 2,0 0,-6 -2,0 0,-4 -2,0 0,-2 -2,0 0,-2 2,0 0,-2 2,0 0,-2 2,0 0,-4 0,-2 -22,0 0,2 0,6 -2,0 0,2 -2,0 0,2 -2,0 0,12 2,0 0,6 -4,0 0,2 -2,0 0,2 2,0 0,2 6,0 0,4 2,0 0,2 18,0 0,-2 2,0 0,-2 2,0 0,-2 6,0 0,-2 2,0 0,-2 z m -20,17 c -22.415,0 -27,-4.553 -27,-27 0,-22.447 4.514,-27 27,-27 22.489,0 27,4.544 27,27 0,22.458 -4.585,27 -27,27"
               inkscape:connector-curvature="0" /></g></g></g></g></g></svg>