<?xml version="1.0" encoding="UTF-8" standalone="no"?>
<!-- Created with Inkscape (http://www.inkscape.org/) -->

<svg
   xmlns:dc="http://purl.org/dc/elements/1.1/"
   xmlns:cc="http://creativecommons.org/ns#"
   xmlns:rdf="http://www.w3.org/1999/02/22-rdf-syntax-ns#"
   xmlns:svg="http://www.w3.org/2000/svg"
   xmlns="http://www.w3.org/2000/svg"
   xmlns:sodipodi="http://sodipodi.sourceforge.net/DTD/sodipodi-0.dtd"
   xmlns:inkscape="http://www.inkscape.org/namespaces/inkscape"
   id="svg3199"
   version="1.1"
   inkscape:version="0.48.5 r10040"
   width="64"
   height="64"
   xml:space="preserve"
   sodipodi:docname="Mono Rick Dangerous-content.svg"
   inkscape:export-filename="/Users/margetts/Desktop/Mono Rick Dangerous-content.png"
   inkscape:export-xdpi="360"
   inkscape:export-ydpi="360"><metadata
     id="metadata3205"><rdf:RDF><cc:Work
         rdf:about=""><dc:format>image/svg+xml</dc:format><dc:type
           rdf:resource="http://purl.org/dc/dcmitype/StillImage" /><dc:title></dc:title></cc:Work></rdf:RDF></metadata><defs
     id="defs3203" /><sodipodi:namedview
     pagecolor="#ffffff"
     bordercolor="#666666"
     borderopacity="1"
     objecttolerance="10"
     gridtolerance="10"
     guidetolerance="10"
     inkscape:pageopacity="0"
     inkscape:pageshadow="2"
     inkscape:window-width="1653"
     inkscape:window-height="1010"
     id="namedview3201"
     showgrid="false"
     inkscape:zoom="9.8625"
     inkscape:cx="40"
     inkscape:cy="40"
     inkscape:window-x="0"
     inkscape:window-y="0"
     inkscape:window-maximized="0"
     inkscape:current-layer="g3207" /><g
     id="g3207"
     inkscape:groupmode="layer"
     inkscape:label="Mono Rick Dangerous-content"
     transform="matrix(1.25,0,0,-1.25,0,64)"><g
       id="g3223"
       transform="matrix(0.8,0,0,0.8,0,0.8)"><path
         inkscape:connector-curvature="0"
         id="path3209"
         style="fill:#f2f2f2;fill-opacity:1;fill-rule:nonzero;stroke:none"
         d="m 40,20 -2,0 0,-2 2,0 0,2 z" /><g
         transform="translate(30,32)"
         id="g3211"><path
           inkscape:connector-curvature="0"
           id="path3213"
           style="fill:#f2f2f2;fill-opacity:1;fill-rule:nonzero;stroke:none"
           d="M 0,0 6,0 6,2 2,2 2,4 0,4 0,6 -2,6 -2,4 -2,2 0,2 0,0 z" /></g><path
         inkscape:connector-curvature="0"
         id="path3215"
         style="fill:#f2f2f2;fill-opacity:1;fill-rule:nonzero;stroke:none"
         d="m 42,18 -2,0 0,-2 2,0 0,2 z" /><path
         inkscape:connector-curvature="0"
         id="path3217"
         style="fill:#f2f2f2;fill-opacity:1;fill-rule:nonzero;stroke:none"
         d="m 18,20 2,0 0,2 -2,0 0,-2 z" /><g
         transform="translate(50,44)"
         id="g3219"><path
           inkscape:connector-curvature="0"
           id="path3221"
           style="fill:#f2f2f2;fill-opacity:1;fill-rule:nonzero;stroke:none"
           d="m 0,0 0,2 -6,0 0,2 -2,0 0,2 -2,0 0,-2 0,-2 -4,0 0,-2 12,0 0,-2 -32,0 0,2 18,0 0,2 -12,0 0,2 2,0 0,2 8,0 0,-2 4,0 0,2 4,0 0,2 -18,0 0,-2 -2,0 0,-4 -6,0 0,-2 -2,0 0,-2 2,0 0,-2 4,0 0,-6 -2,0 0,-12 2,0 0,2 10,0 0,-2 -2,0 0,-2 -6,0 0,-2 2,0 0,-6 0,-2 22,0 0,2 0,4 -2,0 0,-4 -3.938,0 0,2 -0.062,0 -2,0 0,-2 -2,0 -2,0 -4,0 -4,0 0,6 4,0 0,2 4,0 0,2 -2,0 0,2 0,2 4,0 2,0 2,0 0,-2 -2,0 0,-2 -2,0 0,-2 -2,0 0,-2 2,0 0,-4 2,0 0,4 0,2 2,0 0,2 2,0 0,2 2,0 0,4 2,0 0,6 -2,0 0,2 2,0 0,2 -8,0 0,-2 2,0 2,0 0,-4 2,0 0,-2 -2,0 0,-2 -10,0 -2,0 0,6 -2,0 0,-2 0,-2 0,-4 -4,0 0,4 -2,0 0,2 2,0 0,2 4,0 0,2 -6,0 0,2 0,2 4,0 0,-2 2,0 0,2 2,0 6,0 0,-2 2,0 0,2 8,0 0,-2 2,0 0,2 4,0 0,2 2,0 0,2 -2,0 z" /></g></g></g></svg>