<?xml version="1.0" encoding="UTF-8" standalone="no"?>
<!-- Generator: Adobe Illustrator 16.0.0, SVG Export Plug-In . SVG Version: 6.00 Build 0)  -->

<svg
   xmlns:dc="http://purl.org/dc/elements/1.1/"
   xmlns:cc="http://creativecommons.org/ns#"
   xmlns:rdf="http://www.w3.org/1999/02/22-rdf-syntax-ns#"
   xmlns:svg="http://www.w3.org/2000/svg"
   xmlns="http://www.w3.org/2000/svg"
   xmlns:sodipodi="http://sodipodi.sourceforge.net/DTD/sodipodi-0.dtd"
   xmlns:inkscape="http://www.inkscape.org/namespaces/inkscape"
   version="1.1"
   id="svg2"
   inkscape:export-filename="D:\Documents\Github\retroarch-assets\xmb\monochrome\png\RPG Maker 2000.png"
   inkscape:export-xdpi="384"
   inkscape:version="0.92.2 (5c3e80d, 2017-08-06)"
   inkscape:export-ydpi="384"
   sodipodi:docname="RPG Maker 2000.svg"
   x="0px"
   y="0px"
   width="64px"
   height="64px"
   viewBox="0 128 64 64"
   enable-background="new 0 128 64 64"
   xml:space="preserve"><metadata
     id="metadata8"><rdf:RDF><cc:Work
         rdf:about=""><dc:format>image/svg+xml</dc:format><dc:type
           rdf:resource="http://purl.org/dc/dcmitype/StillImage" /><dc:title /></cc:Work></rdf:RDF></metadata><defs
     id="defs6"><linearGradient
       y2="381.18069"
       y1="381.18069"
       x2="-1289.9851"
       x1="-1292.1372"
       id="XMLID_2_-3"
       gradientUnits="userSpaceOnUse"
       gradientTransform="matrix(0.85278194,5.1451198,4.1055758,-1.0687089,-2117.9743,-3451.6677)"><stop
         style="stop-color:#F4F4F4"
         offset="0"
         id="stop12-6" /><stop
         style="stop-color:#CDCDCD"
         offset="1"
         id="stop14-7" /></linearGradient><linearGradient
       y2="381.18069"
       y1="381.18069"
       x2="-1289.9851"
       x1="-1292.1372"
       id="XMLID_2_"
       gradientUnits="userSpaceOnUse"
       gradientTransform="matrix(0.84575923,4.8617736,4.0717661,-1.0098542,-2146.2065,-3054.4403)"><stop
         style="stop-color:#F4F4F4"
         offset="0"
         id="stop12" /><stop
         style="stop-color:#CDCDCD"
         offset="1"
         id="stop14" /></linearGradient><linearGradient
       y2="381.18069"
       y1="381.18069"
       x2="-1289.9851"
       x1="-1292.1372"
       id="XMLID_2_-3-2"
       gradientUnits="userSpaceOnUse"
       gradientTransform="matrix(0.84107336,3.4336677,4.0492068,-0.71321785,-2134.2832,-2118.8589)"><stop
         style="stop-color:#F4F4F4"
         offset="0"
         id="stop12-6-7" /><stop
         style="stop-color:#CDCDCD"
         offset="1"
         id="stop14-7-0" /></linearGradient><linearGradient
       y2="381.18069"
       y1="381.18069"
       x2="-1289.9851"
       x1="-1292.1372"
       id="XMLID_2_-3-2-2"
       gradientUnits="userSpaceOnUse"
       gradientTransform="matrix(-0.85278194,-5.1451198,-4.1055758,1.0687089,2274.3634,3364.023)"><stop
         style="stop-color:#F4F4F4"
         offset="0"
         id="stop12-6-7-6" /><stop
         style="stop-color:#CDCDCD"
         offset="1"
         id="stop14-7-0-1" /></linearGradient><linearGradient
       y2="381.18069"
       y1="381.18069"
       x2="-1289.9851"
       x1="-1292.1372"
       id="XMLID_2_-3-2-7"
       gradientUnits="userSpaceOnUse"
       gradientTransform="matrix(-0.84107336,-3.4336677,-4.0492068,0.71321785,2198.2832,2438.859)"><stop
         style="stop-color:#F4F4F4"
         offset="0"
         id="stop12-6-7-9" /><stop
         style="stop-color:#CDCDCD"
         offset="1"
         id="stop14-7-0-2" /></linearGradient><linearGradient
       y2="381.18069"
       y1="381.18069"
       x2="-1289.9851"
       x1="-1292.1372"
       id="linearGradient4315"
       gradientUnits="userSpaceOnUse"
       gradientTransform="matrix(0.85278194,5.1451198,4.1055758,-1.0687089,-2117.9743,-3451.6677)"><stop
         style="stop-color:#F4F4F4"
         offset="0"
         id="stop4184-6" /><stop
         style="stop-color:#CDCDCD"
         offset="1"
         id="stop4186-0" /></linearGradient></defs><sodipodi:namedview
     pagecolor="#ffffff"
     bordercolor="#666666"
     borderopacity="1"
     objecttolerance="10"
     gridtolerance="10"
     guidetolerance="10"
     inkscape:pageopacity="0"
     inkscape:pageshadow="2"
     inkscape:window-width="1024"
     inkscape:window-height="705"
     id="namedview4"
     showgrid="false"
     inkscape:zoom="5.2149125"
     inkscape:cx="-8.2733329"
     inkscape:cy="29.192604"
     inkscape:window-x="-8"
     inkscape:window-y="-8"
     inkscape:window-maximized="1"
     inkscape:current-layer="svg2"
     inkscape:snap-grids="true" /><path
     style="fill:#f2f2f2;fill-opacity:1"
     d="M 32,5 C 9.5849999,5 5,9.553 5,32 5,54.447 9.5139989,59 32,59 54.488999,59 59,54.456 59,32 59,9.542 54.414999,5 32,5 Z"
     id="Utilities-6-5"
     inkscape:connector-curvature="0"
     sodipodi:nodetypes="sssss"
     transform="translate(0,128)" /><g
     id="g938"
     transform="matrix(0.99832696,0,0,1,8.066794,11.365667)"><g
       transform="matrix(0.27700308,0,0,-0.27700308,36.45327,126.47409)"
       id="g48"><path
         id="path50"
         style="fill:#ffffff;fill-opacity:1;fill-rule:nonzero;stroke:none"
         d="m 0,0 c 0,0 63.894,-9.17 40,-108.227 0,0 -11.688,67.827 -60.858,42.422 -6.589,-3.404 -10.4,-10.844 -11.142,-18.195 -0.641,-6.337 -4.61,-14.103 -16.204,-22.246 -2.86,-2.009 -4.311,-3.22 -7.796,-3.557 -9.114,-0.881 -27.316,-4.796 -16,-22.197 0,0 -30.601,17.036 6.975,26.58 4.066,1.033 7.647,3.433 10.114,6.811 4.681,6.408 7.897,18.856 -5.089,26.609 -19.912,11.887 -75.912,8.792 -56,-48 0,0 -53.026,80.34 16,116 0,0 14.726,6.604 28,0 0,0 -15.949,0.113 -9.312,-6.491 6.637,-6.603 14.602,-25.094 27.876,-15.849 0,0 4.126,18.34 9.436,18.34 0,0 -4,4.038 -4,8 0,0 6.672,-6.642 8,-4 0,0 -7.982,6.717 -4,12 0,0 0.035,-6.679 8,-8 0,0 5.292,2.717 -4,8 0,0 12,0 12,-10.566 0,0 -1.543,-3.962 1.112,-7.925 2.655,-3.962 1.327,-6.603 1.327,-6.603 0,0 -1.327,2.641 -3.982,3.962 0,0 0.664,-3.962 -0.995,-6.604 0,0 -2.987,10.378 -5.642,7.736 -2.655,-2.642 -1.327,-14.679 3.983,-16 5.309,-1.321 10.84,-3.887 20.021,8 0,0 13.449,16 0.176,16 0,0 2.708,5.321 12,4"
         inkscape:connector-curvature="0" /></g><path
       id="path52"
       style="fill:#ffffff;fill-opacity:1;fill-rule:nonzero;stroke:none;stroke-width:0.27700305"
       d="M 43.625601,166.36253 H 3.7371565 v -1.10801 H 43.625601 Z"
       inkscape:connector-curvature="0" /><path
       id="path54"
       style="fill:#ffffff;fill-opacity:1;fill-rule:nonzero;stroke:none;stroke-width:0.27700305"
       d="m 15.925293,168.57855 h -3.324038 v -1.10801 h 3.324038 z"
       inkscape:connector-curvature="0" /><path
       id="path56"
       style="fill:#ffffff;fill-opacity:1;fill-rule:nonzero;stroke:none;stroke-width:0.27700305"
       d="m 15.925293,169.68657 h 1.108012 v -1.10802 h -1.108012 z"
       inkscape:connector-curvature="0" /><path
       id="path58"
       style="fill:#ffffff;fill-opacity:1;fill-rule:nonzero;stroke:none;stroke-width:0.27700305"
       d="m 14.817281,170.79458 h 1.108012 v -1.10801 h -1.108012 z"
       inkscape:connector-curvature="0" /><path
       id="path60"
       style="fill:#ffffff;fill-opacity:1;fill-rule:nonzero;stroke:none;stroke-width:0.27700305"
       d="m 14.817281,171.90259 h -1.108014 v -1.10801 h 1.108014 z"
       inkscape:connector-curvature="0" /><path
       id="path62"
       style="fill:#ffffff;fill-opacity:1;fill-rule:nonzero;stroke:none;stroke-width:0.27700305"
       d="m 17.033305,173.0106 h -4.43205 v -1.10801 h 4.43205 z"
       inkscape:connector-curvature="0" /><path
       id="path64"
       style="fill:#ffffff;fill-opacity:1;fill-rule:nonzero;stroke:none;stroke-width:0.27700305"
       d="m 19.24933,171.90259 h -1.108012 v -3.32404 h 1.108012 z"
       inkscape:connector-curvature="0" /><path
       id="path66"
       style="fill:#ffffff;fill-opacity:1;fill-rule:nonzero;stroke:none;stroke-width:0.27700305"
       d="m 22.573368,171.90259 h -1.108011 v -3.32404 h 1.108011 z"
       inkscape:connector-curvature="0" /><path
       id="path68"
       style="fill:#ffffff;fill-opacity:1;fill-rule:nonzero;stroke:none;stroke-width:0.27700305"
       d="M 21.465357,168.57855 H 19.24933 v -1.10801 h 2.216027 z"
       inkscape:connector-curvature="0" /><path
       id="path70"
       style="fill:#ffffff;fill-opacity:1;fill-rule:nonzero;stroke:none;stroke-width:0.27700305"
       d="M 21.465357,173.0106 H 19.24933 v -1.10801 h 2.216027 z"
       inkscape:connector-curvature="0" /><path
       id="path72"
       style="fill:#ffffff;fill-opacity:1;fill-rule:nonzero;stroke:none;stroke-width:0.27700305"
       d="M 24.789393,171.90259 H 23.68138 v -3.32404 h 1.108013 z"
       inkscape:connector-curvature="0" /><path
       id="path74"
       style="fill:#ffffff;fill-opacity:1;fill-rule:nonzero;stroke:none;stroke-width:0.27700305"
       d="m 28.11343,171.90259 h -1.108013 v -3.32404 h 1.108013 z"
       inkscape:connector-curvature="0" /><path
       id="path76"
       style="fill:#ffffff;fill-opacity:1;fill-rule:nonzero;stroke:none;stroke-width:0.27700305"
       d="m 27.005417,168.57855 h -2.216024 v -1.10801 h 2.216024 z"
       inkscape:connector-curvature="0" /><path
       id="path78"
       style="fill:#ffffff;fill-opacity:1;fill-rule:nonzero;stroke:none;stroke-width:0.27700305"
       d="m 27.005417,173.0106 h -2.216024 v -1.10801 h 2.216024 z"
       inkscape:connector-curvature="0" /><path
       id="path80"
       style="fill:#ffffff;fill-opacity:1;fill-rule:nonzero;stroke:none;stroke-width:0.27700305"
       d="m 30.329453,171.90259 h -1.108011 v -3.32404 h 1.108011 z"
       inkscape:connector-curvature="0" /><path
       id="path82"
       style="fill:#ffffff;fill-opacity:1;fill-rule:nonzero;stroke:none;stroke-width:0.27700305"
       d="m 32.545479,173.0106 h -2.216026 v -1.10801 h 2.216026 z"
       inkscape:connector-curvature="0" /><path
       id="path84"
       style="fill:#ffffff;fill-opacity:1;fill-rule:nonzero;stroke:none;stroke-width:0.27700305"
       d="m 33.653491,171.90259 h -1.108012 v -3.32404 h 1.108012 z"
       inkscape:connector-curvature="0" /><path
       id="path86"
       style="fill:#ffffff;fill-opacity:1;fill-rule:nonzero;stroke:none;stroke-width:0.27700305"
       d="m 32.545479,168.57855 h -2.216026 v -1.10801 h 2.216026 z"
       inkscape:connector-curvature="0" /></g></svg>