<?xml version="1.0" encoding="UTF-8" standalone="no"?>
<!-- Generator: Adobe Illustrator 16.0.0, SVG Export Plug-In . SVG Version: 6.00 Build 0)  -->

<svg
   xmlns:dc="http://purl.org/dc/elements/1.1/"
   xmlns:cc="http://creativecommons.org/ns#"
   xmlns:rdf="http://www.w3.org/1999/02/22-rdf-syntax-ns#"
   xmlns:svg="http://www.w3.org/2000/svg"
   xmlns="http://www.w3.org/2000/svg"
   xmlns:sodipodi="http://sodipodi.sourceforge.net/DTD/sodipodi-0.dtd"
   xmlns:inkscape="http://www.inkscape.org/namespaces/inkscape"
   version="1.1"
   id="svg2"
   inkscape:export-filename="/home/lollo78/Scrivania/Caz"
   inkscape:export-xdpi="360"
   inkscape:version="0.91 r13725"
   inkscape:export-ydpi="360"
   sodipodi:docname="ScummVM (2 test inside).svg"
   x="0px"
   y="0px"
   width="64px"
   height="64px"
   viewBox="0 128 64 64"
   enable-background="new 0 128 64 64"
   xml:space="preserve"><metadata
     id="metadata8"><rdf:RDF><cc:Work
         rdf:about=""><dc:format>image/svg+xml</dc:format><dc:type
           rdf:resource="http://purl.org/dc/dcmitype/StillImage" /></cc:Work></rdf:RDF></metadata><defs
     id="defs6" /><sodipodi:namedview
     pagecolor="#ffffff"
     bordercolor="#666666"
     borderopacity="1"
     objecttolerance="10"
     gridtolerance="10"
     guidetolerance="10"
     inkscape:pageopacity="0"
     inkscape:pageshadow="2"
     inkscape:window-width="1615"
     inkscape:window-height="1026"
     id="namedview4"
     showgrid="false"
     inkscape:zoom="7.3750001"
     inkscape:cx="24.972789"
     inkscape:cy="18.496899"
     inkscape:window-x="1985"
     inkscape:window-y="24"
     inkscape:window-maximized="1"
     inkscape:current-layer="layer1" /><path
     style="fill:#f2f2f2;fill-opacity:1"
     d="m 33.627119,196.59323 c -22.415001,0 -27.0000004,4.55495 -27.0000004,27.00195 0,22.447 4.5139994,26.99804 27.0000004,26.99804 22.489,0 27,-4.54204 27,-26.99804 0,-22.458 -4.585,-27.00195 -27,-27.00195 z m 0.146484,9.82812 c 3.852672,-0.0294 7.501114,1.0885 10.595704,3.38086 4.570926,3.03717 2.524752,5.52519 0.421874,9.15234 -0.808154,2.41143 0.796109,3.31979 1.830079,5.28125 1.077768,1.91212 1.302303,4.80831 1.234375,6.90821 -2.44556,11.651 -13.87352,11.19226 -19.423828,9.42187 -3.839663,-1.8519 -6.470659,-3.36713 -7.314454,-7.24609 0.30744,-2.87863 1.805684,-4.2904 3.216797,-6.06836 2.200767,-2.24391 0.33583,-2.93788 -1.123047,-5.43945 -2.768041,-6.44391 -0.655568,-12.90055 6.654297,-14.98047 1.316931,-0.26373 2.623979,-0.40035 3.908203,-0.41016 z m 0.466797,2.42383 c -4.511609,-0.0507 -8.509054,2.10951 -9.501953,6.23047 -1.088631,4.51826 0.976901,7.9704 6.9375,11.5957 3.917751,2.38283 4.513672,2.92301 4.513672,4.08594 0,2.51486 -5.058322,1.6344 -8.552734,-1.48828 -1.010103,-0.90265 -0.973447,-0.92054 -2.75586,1.36914 -1.741464,2.23709 -1.709501,2.15116 -1.130859,2.93945 2.987348,4.06957 8.960143,6.06689 14.169922,4.74023 5.356879,-1.36411 8.098873,-5.06859 7.435547,-10.04687 -0.493989,-3.7074 -2.50503,-5.97701 -7.966797,-8.99023 -3.295641,-1.8182 -4.016192,-2.51913 -3.669922,-3.56836 0.561555,-1.70152 4.528644,-0.74148 7.726562,1.86914 0.46814,0.38217 0.680675,0.47522 1.00586,0.4414 1.021839,-0.10632 2.770699,-4.26233 2.074219,-4.92968 -2.955354,-2.83172 -6.776127,-4.20864 -10.285157,-4.24805 z"
     id="Games"
     inkscape:connector-curvature="0" /><g
     inkscape:groupmode="layer"
     id="layer1"
     inkscape:label="S"
     style="display:inline"><path
       style="fill:#f2f2f2;fill-opacity:1"
       d="m 32.453084,132.58899 c -22.415001,0 -26.9999999,4.55495 -26.9999999,27.00195 0,22.447 4.5139988,26.99805 26.9999999,26.99805 22.488999,0 27,-4.54205 27,-26.99805 0,-22.458 -4.585001,-27.00195 -27,-27.00195 z m -0.501953,10.16797 c 3.632005,-0.17665 8.062819,0.99984 12.978516,4.17187 0.84661,0.8112 -1.27743,5.86295 -2.519532,5.99219 -0.395281,0.0411 -0.655559,-0.0726 -1.224609,-0.53711 -3.887249,-3.17335 -8.709976,-4.33978 -9.392578,-2.27149 -0.42091,1.2754 0.456853,2.12778 4.46289,4.33789 6.639084,3.66275 9.083122,6.42119 9.683594,10.92774 0.806309,6.05138 -2.525522,10.55473 -9.037109,12.21289 -6.332779,1.61263 -13.593321,-0.81687 -17.22461,-5.76367 -0.703372,-0.95821 -0.743801,-0.85297 1.373047,-3.57227 2.166622,-2.78324 2.121772,-2.76128 3.34961,-1.66406 4.247654,3.7958 10.396484,4.86556 10.396484,1.80859 0,-1.4136 -0.724082,-2.06838 -5.486328,-4.96484 -11.961626,-7.44976 -8.25539,-20.14778 2.640625,-20.67773 z"
       id="Games-4"
       inkscape:connector-curvature="0" /></g></svg>