<?xml version="1.0" encoding="utf-8"?>
<!-- Generator: Adobe Illustrator 16.0.0, SVG Export Plug-In . SVG Version: 6.00 Build 0)  -->
<!DOCTYPE svg PUBLIC "-//W3C//DTD SVG 1.1//EN" "http://www.w3.org/Graphics/SVG/1.1/DTD/svg11.dtd">
<svg version="1.1"
	 id="svg2" inkscape:export-filename="/home/kivutar/Bureau/lakka-menu/reload.png" inkscape:export-xdpi="90" inkscape:version="0.48.4 r9939" inkscape:export-ydpi="90" sodipodi:docname="reload.svg" xmlns:svg="http://www.w3.org/2000/svg" xmlns:cc="http://creativecommons.org/ns#" xmlns:sodipodi="http://sodipodi.sourceforge.net/DTD/sodipodi-0.dtd" xmlns:rdf="http://www.w3.org/1999/02/22-rdf-syntax-ns#" xmlns:dc="http://purl.org/dc/elements/1.1/" xmlns:inkscape="http://www.inkscape.org/namespaces/inkscape"
	 xmlns="http://www.w3.org/2000/svg" xmlns:xlink="http://www.w3.org/1999/xlink" x="0px" y="0px" width="64px" height="64px"
	 viewBox="0 128 64 64" enable-background="new 0 128 64 64" xml:space="preserve">
<path id="SG-1000_1_" fill="#F2F2F2" d="M52,139v-1h-1v-2c0-0.553-0.447-1-1-1h-1v1H15v-1h-1c-0.553,0-1,0.447-1,1v2h-1v1h1v1h-1v1
	h1v1h-1v1h1v1h-1v1h1v1h-1v1h1v1h-1v1h1v1h-1v1h1v1h-1v1h1v31c0,0.553,0.447,1,1,1h36c0.553,0,1-0.447,1-1v-31h1v-1h-1v-1h1v-1h-1
	v-1h1v-1h-1v-1h1v-1h-1v-1h1v-1h-1v-1h1v-1h-1v-1h1v-1h-1v-1H52z M49,163c0,0.553-0.447,1-1,1H16c-0.553,0-1-0.447-1-1v-25
	c0-0.553,0.447-1,1-1h32c0.553,0,1,0.447,1,1V163z M46,139H18c-0.553,0-1,0.447-1,1v21c0,0.553,0.447,1,1,1h28c0.553,0,1-0.447,1-1
	v-21C47,139.447,46.553,139,46,139z"/>
</svg>
