<?xml version="1.0" encoding="utf-8"?>
<!-- Generator: Adobe Illustrator 16.0.0, SVG Export Plug-In . SVG Version: 6.00 Build 0)  -->
<!DOCTYPE svg PUBLIC "-//W3C//DTD SVG 1.1//EN" "http://www.w3.org/Graphics/SVG/1.1/DTD/svg11.dtd">
<svg version="1.1"
	 id="svg2" inkscape:export-filename="/home/kivutar/Bureau/lakka-menu/reload.png" inkscape:export-xdpi="90" inkscape:version="0.48.4 r9939" inkscape:export-ydpi="90" sodipodi:docname="reload.svg" xmlns:svg="http://www.w3.org/2000/svg" xmlns:cc="http://creativecommons.org/ns#" xmlns:sodipodi="http://sodipodi.sourceforge.net/DTD/sodipodi-0.dtd" xmlns:rdf="http://www.w3.org/1999/02/22-rdf-syntax-ns#" xmlns:dc="http://purl.org/dc/elements/1.1/" xmlns:inkscape="http://www.inkscape.org/namespaces/inkscape"
	 xmlns="http://www.w3.org/2000/svg" xmlns:xlink="http://www.w3.org/1999/xlink" x="0px" y="0px" width="64px" height="64px"
	 viewBox="0 128 64 64" enable-background="new 0 128 64 64" xml:space="preserve">
<path id="Game_Gear" fill="#F2F2F2" d="M51,137H13c-2.271,0-4,2.152-4,6v12c0,1,0,1,1,1v26c0,0.669,0.331,1,1,1h42
	c0.669,0,1-0.331,1-1v-26c1,0,1,0,1-1v-12C55,139.152,53.273,137,51,137z M21,142h21v1H21V142z M21,144h21v1H21V144z M50,173
	c0,0.67-0.331,1-1,1H14c-0.672,0-1-0.33-1-1v-21c0-2.677,2.323-5,5-5h27c2.678,0,5,2.323,5,5V173z M44,149H19c-2.209,0-4,1.791-4,4
	v18c0,0.553,0.447,1,1,1h31c0.553,0,1-0.447,1-1v-18C48,150.791,46.209,149,44,149z"/>
</svg>
