<?xml version="1.0" encoding="utf-8"?>
<!-- Generator: Adobe Illustrator 16.0.0, SVG Export Plug-In . SVG Version: 6.00 Build 0)  -->
<!DOCTYPE svg PUBLIC "-//W3C//DTD SVG 1.1//EN" "http://www.w3.org/Graphics/SVG/1.1/DTD/svg11.dtd">
<svg version="1.1"
	 id="svg2" inkscape:export-filename="/home/kivutar/Bureau/lakka-menu/reload.png" inkscape:export-xdpi="90" inkscape:version="0.48.4 r9939" inkscape:export-ydpi="90" sodipodi:docname="reload.svg" xmlns:svg="http://www.w3.org/2000/svg" xmlns:cc="http://creativecommons.org/ns#" xmlns:sodipodi="http://sodipodi.sourceforge.net/DTD/sodipodi-0.dtd" xmlns:rdf="http://www.w3.org/1999/02/22-rdf-syntax-ns#" xmlns:dc="http://purl.org/dc/elements/1.1/" xmlns:inkscape="http://www.inkscape.org/namespaces/inkscape"
	 xmlns="http://www.w3.org/2000/svg" xmlns:xlink="http://www.w3.org/1999/xlink" x="0px" y="0px" width="64px" height="64px"
	 viewBox="0 128 64 64" enable-background="new 0 128 64 64" xml:space="preserve">
<path id="Game_Gear_1_" fill="#F2F2F2" d="M60.022,148.752c-0.45-2.043-1.03-1.877-2.94-2.189c-0.532-0.089-2.092-0.246-4.242-0.426
	l-1.097,2.864c-0.064-0.03-0.13-0.059-0.196-0.085c-0.134-0.052-0.275-0.077-0.419-0.077c-0.018,0-0.034,0.003-0.052,0.004
	l1.058-2.763C46.566,145.627,37.728,145,32,145c-3.412,0-7.934,0.266-12.206,0.522l-0.022-0.349l-4.942,0.317l0.024,0.359
	c-1.482,0.106-2.849,0.214-4.021,0.313l5.858,15.455c1.723,4.53,4.092,5.486,7.606,5.609c3.671,0.129,10.61,0.129,14.28,0
	c3.513-0.123,5.881-1.079,7.604-5.609l3.526-9.206c0.113,0.114,0.25,0.206,0.409,0.266c0.063,0.025,0.133,0.038,0.196,0.056
	l-3.493,9.127c-1.844,4.847-4.62,5.924-8.222,6.049c-1.839,0.062-4.501,0.096-7.161,0.096c-2.662,0-5.323-0.033-7.164-0.096
	c-3.602-0.125-6.377-1.202-8.221-6.049l-5.926-15.636c-1.609,0.141-2.766,0.263-3.213,0.337c-1.906,0.312-2.487,0.146-2.935,2.189
	C3.529,150.792,3,157.1,3,160c0,3.135,0.001,6.087,0.431,9.653C3.863,173.222,16.533,175,32,175s28.136-1.778,28.569-5.347
	C60.999,166.087,61,163.135,61,160C61,157.1,60.469,150.792,60.022,148.752z M43,163c0,1,0,1-1,1H22c-1,0-1,0-1-1v-14c0-1,0-1,1-1
	h20c1,0,1,0,1,1V163z M11,158h-1v1c0,1,0,1-1,1s-1,0-1-1v-1H7c-1,0-1,0-1-1s0-1,1-1h1v-1c0-1,0-1,1-1s1,0,1,1v1h1c1,0,1,0,1,1
	S12,158,11,158z M50.071,151.399l0.591-1.559c0.098-0.257,0.385-0.387,0.642-0.288c0.687,0.262,1.032,1.029,0.772,1.716
	c-0.262,0.688-1.031,1.034-1.716,0.774C50.103,151.945,49.974,151.657,50.071,151.399z M51.5,160c-0.828,0-1.5-0.672-1.5-1.5
	s0.672-1.5,1.5-1.5s1.5,0.672,1.5,1.5S52.328,160,51.5,160z M55.5,157c-0.828,0-1.5-0.672-1.5-1.5s0.672-1.5,1.5-1.5
	s1.5,0.672,1.5,1.5S56.328,157,55.5,157z"/>
</svg>
