<?xml version="1.0" encoding="utf-8"?>
<!-- Generator: Adobe Illustrator 16.0.0, SVG Export Plug-In . SVG Version: 6.00 Build 0)  -->
<!DOCTYPE svg PUBLIC "-//W3C//DTD SVG 1.1//EN" "http://www.w3.org/Graphics/SVG/1.1/DTD/svg11.dtd">
<svg version="1.1"
	 id="svg2" inkscape:export-filename="/home/kivutar/Bureau/lakka-menu/reload.png" inkscape:export-xdpi="90" inkscape:version="0.48.4 r9939" inkscape:export-ydpi="90" sodipodi:docname="reload.svg" xmlns:svg="http://www.w3.org/2000/svg" xmlns:cc="http://creativecommons.org/ns#" xmlns:sodipodi="http://sodipodi.sourceforge.net/DTD/sodipodi-0.dtd" xmlns:rdf="http://www.w3.org/1999/02/22-rdf-syntax-ns#" xmlns:dc="http://purl.org/dc/elements/1.1/" xmlns:inkscape="http://www.inkscape.org/namespaces/inkscape"
	 xmlns="http://www.w3.org/2000/svg" xmlns:xlink="http://www.w3.org/1999/xlink" x="0px" y="0px" width="64px" height="64px"
	 viewBox="0 128 64 64" enable-background="new 0 128 64 64" xml:space="preserve">
<path id="Settings_2_" fill="#F2F2F2" d="M37.654,154.818c0-0.852-0.102-1.677-0.295-2.469l2.059-1.438
	c-0.566-1.769-1.504-3.372-2.723-4.714l-2.275,1.065c-1.191-1.137-2.65-1.995-4.273-2.471l-0.215-2.499
	C29.053,142.104,27.936,142,27,142c-0.934,0-1.635,0.104-2.512,0.293l-0.217,2.499c-1.623,0.476-3.082,1.334-4.273,2.471
	l-2.273-1.065c-1.221,1.342-2.158,3.034-2.725,4.803l2.061,1.35c-0.193,0.792-0.297,1.617-0.297,2.469
	c0,0.85,0.104,1.676,0.297,2.468L15,158.723c0.566,1.77,1.504,3.373,2.725,4.715l2.273-1.065c1.191,1.139,2.65,1.995,4.273,2.47
	l0.217,2.5c0.877,0.189,1.787,0.293,2.721,0.293c0.936,0,1.844-0.104,2.723-0.293l0.215-2.5c1.623-0.475,3.082-1.331,4.273-2.47
	l2.275,1.065c1.219-1.342,2.156-2.945,2.723-4.715l-2.059-1.437C37.553,156.494,37.654,155.668,37.654,154.818z M27.209,161.615
	c-3.75,0-6.791-3.04-6.791-6.79c0-3.752,3.041-6.792,6.791-6.792S34,151.073,34,154.825C34,158.575,30.959,161.615,27.209,161.615z
	 M47.617,170.813c0.064-0.508,0.072-1.028,0.016-1.559c-0.059-0.531-0.18-1.039-0.355-1.521l1.184-1.037
	c-0.473-1.063-1.168-1.999-2.021-2.753l-1.346,0.82c-0.82-0.627-1.789-1.062-2.834-1.245l-0.307-1.546
	c-0.561-0.056-1.135-0.058-1.717,0.006c-0.584,0.064-1.143,0.19-1.678,0.369l0.037,1.575c-0.98,0.406-1.83,1.042-2.494,1.832
	l-1.492-0.506c-0.668,0.921-1.143,1.984-1.375,3.127l1.385,0.755c-0.066,0.507-0.074,1.03-0.016,1.56
	c0.059,0.53,0.18,1.038,0.354,1.519l-1.184,1.039c0.475,1.063,1.168,1.999,2.023,2.75l1.344-0.819
	c0.822,0.627,1.791,1.062,2.836,1.247l0.307,1.543c0.129,0.014,0.311,0.03,0.311,0.03c1,0,2.549-0.225,3.082-0.405l-0.035-1.573
	c0.979-0.408,1.828-1.044,2.492-1.834l1.494,0.507c0.668-0.92,1.143-1.983,1.373-3.126L47.617,170.813z M41.535,173.758
	c-2.089,0.23-3.969-1.276-4.199-3.363c-0.23-2.09,1.277-3.97,3.365-4.199c2.089-0.23,3.969,1.275,4.199,3.365
	C45.129,171.648,43.625,173.527,41.535,173.758z"/>
</svg>
