<?xml version="1.0" encoding="utf-8"?>
<!-- Generator: Adobe Illustrator 16.0.0, SVG Export Plug-In . SVG Version: 6.00 Build 0)  -->
<!DOCTYPE svg PUBLIC "-//W3C//DTD SVG 1.1//EN" "http://www.w3.org/Graphics/SVG/1.1/DTD/svg11.dtd">
<svg version="1.1"
	 id="svg2" inkscape:export-filename="/home/kivutar/Bureau/lakka-menu/reload.png" inkscape:export-xdpi="90" inkscape:version="0.48.4 r9939" inkscape:export-ydpi="90" sodipodi:docname="reload.svg" xmlns:svg="http://www.w3.org/2000/svg" xmlns:cc="http://creativecommons.org/ns#" xmlns:sodipodi="http://sodipodi.sourceforge.net/DTD/sodipodi-0.dtd" xmlns:rdf="http://www.w3.org/1999/02/22-rdf-syntax-ns#" xmlns:dc="http://purl.org/dc/elements/1.1/" xmlns:inkscape="http://www.inkscape.org/namespaces/inkscape"
	 xmlns="http://www.w3.org/2000/svg" xmlns:xlink="http://www.w3.org/1999/xlink" x="0px" y="0px" width="64px" height="64px"
	 viewBox="0 128 64 64" enable-background="new 0 128 64 64" xml:space="preserve">
<path id="Settings_1_" fill="#F2F2F2" d="M32,133c-22.415,0-27,4.554-27,27.001S9.514,187,32,187c22.489,0,27-4.543,27-26.999
	C59,137.543,54.415,133,32,133z M30.146,164.842l-0.215,2.5c-0.879,0.189-1.787,0.293-2.723,0.293c-0.934,0-1.844-0.104-2.721-0.293
	l-0.217-2.5c-1.623-0.475-3.082-1.331-4.273-2.47l-2.273,1.065c-1.221-1.342-2.158-2.945-2.725-4.715l2.061-1.437
	c-0.193-0.792-0.297-1.618-0.297-2.468c0-0.852,0.104-1.677,0.297-2.469L15,151c0.566-1.769,1.504-3.461,2.725-4.803l2.273,1.065
	c1.191-1.137,2.65-1.995,4.273-2.471l0.217-2.499C25.365,142.104,26.066,142,27,142c0.936,0,2.053,0.104,2.932,0.293l0.215,2.499
	c1.623,0.476,3.082,1.334,4.273,2.471l2.275-1.065c1.219,1.342,2.156,2.945,2.723,4.714l-2.059,1.438
	c0.193,0.792,0.295,1.617,0.295,2.469c0,0.85-0.102,1.676-0.295,2.468l2.059,1.437c-0.566,1.77-1.504,3.373-2.723,4.715
	l-2.275-1.065C33.229,163.511,31.77,164.367,30.146,164.842z M47.627,174.694l-1.494-0.507c-0.664,0.79-1.514,1.426-2.492,1.834
	l0.035,1.573c-0.533,0.181-2.082,0.405-3.082,0.405c0,0-0.182-0.017-0.311-0.03l-0.307-1.543c-1.045-0.186-2.014-0.62-2.836-1.247
	l-1.344,0.819c-0.855-0.751-1.549-1.687-2.023-2.75l1.184-1.039c-0.174-0.48-0.295-0.988-0.354-1.519
	c-0.059-0.529-0.051-1.053,0.016-1.56l-1.385-0.755c0.232-1.143,0.707-2.206,1.375-3.127l1.492,0.506
	c0.664-0.79,1.514-1.426,2.494-1.832l-0.037-1.575c0.535-0.179,1.094-0.305,1.678-0.369c0.582-0.063,1.156-0.062,1.717-0.006
	l0.307,1.546c1.045,0.184,2.014,0.618,2.834,1.245l1.346-0.82c0.854,0.754,1.549,1.689,2.021,2.753l-1.184,1.037
	c0.176,0.481,0.297,0.989,0.355,1.521c0.057,0.53,0.049,1.051-0.016,1.559L49,171.568C48.77,172.711,48.295,173.774,47.627,174.694z
	 M40.701,166.195c-2.088,0.229-3.596,2.109-3.365,4.199c0.23,2.087,2.11,3.594,4.199,3.363c2.09-0.23,3.594-2.109,3.365-4.197
	C44.67,167.471,42.79,165.965,40.701,166.195z M27.209,148.033c-3.75,0-6.791,3.04-6.791,6.792c0,3.75,3.041,6.79,6.791,6.79
	s6.791-3.04,6.791-6.79C34,151.073,30.959,148.033,27.209,148.033z"/>
</svg>
