<?xml version="1.0" encoding="UTF-8" standalone="no"?>
<!-- Created with Inkscape (http://www.inkscape.org/) -->

<svg
   xmlns:dc="http://purl.org/dc/elements/1.1/"
   xmlns:cc="http://creativecommons.org/ns#"
   xmlns:rdf="http://www.w3.org/1999/02/22-rdf-syntax-ns#"
   xmlns:svg="http://www.w3.org/2000/svg"
   xmlns="http://www.w3.org/2000/svg"
   xmlns:sodipodi="http://sodipodi.sourceforge.net/DTD/sodipodi-0.dtd"
   xmlns:inkscape="http://www.inkscape.org/namespaces/inkscape"
   id="svg4963"
   version="1.1"
   inkscape:version="0.48.5 r10040"
   width="64"
   height="64"
   xml:space="preserve"
   sodipodi:docname="Sharp - X68000.svg"
   inkscape:export-filename="/Users/margetts/Desktop/Icon Workshop/Monochrome Plus June/png/Sharp - X68000.png"
   inkscape:export-xdpi="360"
   inkscape:export-ydpi="360"><metadata
     id="metadata4969"><rdf:RDF><cc:Work
         rdf:about=""><dc:format>image/svg+xml</dc:format><dc:type
           rdf:resource="http://purl.org/dc/dcmitype/StillImage" /><dc:title></dc:title></cc:Work></rdf:RDF></metadata><defs
     id="defs4967"><clipPath
       clipPathUnits="userSpaceOnUse"
       id="clipPath4977"><path
         d="M 0,64 64,64 64,0 0,0 0,64 z"
         id="path4979"
         inkscape:connector-curvature="0" /></clipPath></defs><sodipodi:namedview
     pagecolor="#ffffff"
     bordercolor="#666666"
     borderopacity="1"
     objecttolerance="10"
     gridtolerance="10"
     guidetolerance="10"
     inkscape:pageopacity="0"
     inkscape:pageshadow="2"
     inkscape:window-width="1676"
     inkscape:window-height="1005"
     id="namedview4965"
     showgrid="false"
     inkscape:zoom="3.8"
     inkscape:cx="6.9736842"
     inkscape:cy="40"
     inkscape:window-x="4"
     inkscape:window-y="1"
     inkscape:window-maximized="1"
     inkscape:current-layer="g4971" /><g
     id="g4971"
     inkscape:groupmode="layer"
     inkscape:label="Sharp - X68000"
     transform="matrix(1.25,0,0,-1.25,0,64)"><g
       id="g4973"
       transform="scale(0.8,0.8)"><g
         id="g4975"
         clip-path="url(#clipPath4977)"><path
           d="m 57,39 -2,0 0,2 2,0 0,-2 z m 0,-4 -2,0 0,2 2,0 0,-2 z m 0,-3 -2,0 0,2 2,0 0,-2 z m 0,-3 -2,0 0,2 2,0 0,-2 z m 0,-3 -2,0 0,2 2,0 0,-2 z m 0,-3 -2,0 0,2 2,0 0,-2 z m -3,16 -2,0 0,2 2,0 0,-2 z m 0,-4 -2,0 0,2 2,0 0,-2 z m 0,-3 -2,0 0,2 2,0 0,-2 z m 0,-3 -2,0 0,2 2,0 0,-2 z m 0,-3 -2,0 0,2 2,0 0,-2 z m 0,-3 -2,0 0,2 2,0 0,-2 z m -3,16 -2,0 0,2 2,0 0,-2 z m 0,-4 -2,0 0,2 2,0 0,-2 z m 0,-3 -2,0 0,2 2,0 0,-2 z m 0,-6 -2,0 0,5 2,0 0,-5 z m 0,-3 -2,0 0,2 2,0 0,-2 z m -3,16 -2,0 0,2 2,0 0,-2 z m 0,-4 -2,0 0,2 2,0 0,-2 z m 0,-3 -2,0 0,2 2,0 0,-2 z m 0,-3 -2,0 0,2 2,0 0,-2 z m 0,-3 -2,0 0,2 2,0 0,-2 z m 0,-3 -2,0 0,2 2,0 0,-2 z m -3,16 -2,0 0,2 2,0 0,-2 z m 0,-4 -2,0 0,2 2,0 0,-2 z m 0,-3 -2,0 0,2 2,0 0,-2 z m 0,-6 -2,0 0,5 2,0 0,-5 z m 0,-3 -2,0 0,2 2,0 0,-2 z m -4,16 -2,0 0,1 2,0 0,-1 z m 0,-4 -2,0 0,2 2,0 0,-2 z m 0,-6 -3,0 0,3 -1,0 0,2 4,0 0,-5 z m 0,-3 -5,0 0,2 5,0 0,-2 z m -4,-3 -3,0 0,2 3,0 0,-2 z m -4,5 2,0 0,-2 -2,0 0,2 z m 0,-5 -3,0 0,2 3,0 0,-2 z m -4,8 2,0 0,-2 -2,0 0,2 z m 0,-5 -2,0 0,2 2,0 0,-2 z m 0,-3 -3,0 0,2 3,0 0,-2 z m -4,0 -7,0 0,2 7,0 0,-2 z m -8,8 2,0 0,-2 -2,0 0,2 z m 0,-5 -2,0 0,2 2,0 0,-2 z m 0,-3 -2,0 0,2 2,0 0,-2 z m -3,8 2,0 0,-2 -2,0 0,2 z m 0,-5 -2,0 0,2 2,0 0,-2 z m 0,-3 -2,0 0,2 2,0 0,-2 z m -3,8 2,0 0,-2 -2,0 0,2 z m 0,-5 -5,0 0,2 5,0 0,-2 z m 0,-3 -2,0 0,2 2,0 0,-2 z m -5,8 4,0 0,-2 -4,0 0,2 z m 0,3 3,0 0,-2 -3,0 0,2 z m 0,3 2,0 0,-2 -2,0 0,2 z m 0,4 2,0 0,-2 -2,0 0,2 z m 3,-4 2,0 0,-2 -2,0 0,2 z m 3,-5 -2,0 0,2 2,0 0,-2 z m -3,9 2,0 0,-2 -2,0 0,2 z m 3,-4 2,0 0,-2 -2,0 0,2 z m 3,-5 -2,0 0,2 2,0 0,-2 z m -3,8 2,0 0,-1 -2,0 0,1 z m 3,-3 2,0 0,-2 -2,0 0,2 z m 3,-5 -2,0 0,2 2,0 0,-2 z m -3,8 2,0 0,-1 -2,0 0,1 z m 3,-3 2,0 0,-2 -2,0 0,2 z m 0,3 2,0 0,-1 -2,0 0,1 z m 2,-14 -2,0 0,2 2,0 0,-2 z m 1,6 -2,0 0,2 2,0 0,-2 z m 0,5 2,0 0,-2 -2,0 0,2 z m 0,3 2,0 0,-1 -2,0 0,1 z m -1,-9 2,0 0,-2 -2,0 0,2 z m 1,-3 2,0 0,-2 -2,0 0,2 z m 3,4 -2,0 0,2 2,0 0,-2 z m 0,5 2,0 0,-2 -2,0 0,2 z m 0,3 2,0 0,-1 -2,0 0,1 z m -1,-9 2,0 0,-2 -2,0 0,2 z m 1,-3 2,0 0,-2 -2,0 0,2 z m 3,4 -2,0 0,2 2,0 0,-2 z m 1,-3 -2,0 0,2 2,0 0,-2 z m -1,8 2,0 0,-2 -2,0 0,2 z m 3,-5 -2,0 0,2 2,0 0,-2 z m -3,8 2,0 0,-1 -2,0 0,1 z m 3,-3 2,0 0,-2 -2,0 0,2 z m 0,3 2,0 0,-1 -2,0 0,1 z m 2,-14 -2,0 0,2 2,0 0,-2 z m 1,6 -2,0 0,2 2,0 0,-2 z m 1,-3 -2,0 0,2 2,0 0,-2 z m -1,8 2,0 0,-2 -2,0 0,2 z m 0,3 2,0 0,-1 -2,0 0,1 z m 3,-8 -2,0 0,2 2,0 0,-2 z m 1,-3 -2,0 0,2 2,0 0,-2 z m -1,8 2,0 0,-2 -2,0 0,2 z m 0,3 2,0 0,-1 -2,0 0,1 z M 58,43 6,43 C 5.448,43 5,42.552 5,42 L 5,23 c 0,-1.104 0.896,-2 2,-2 l 50,0 c 1.104,0 2,0.896 2,2 l 0,19 c 0,0.552 -0.447,1 -1,1"
           style="fill:#f2f2f2;fill-opacity:1;fill-rule:nonzero;stroke:none"
           id="path4981"
           inkscape:connector-curvature="0" /></g></g></g></svg>