<?xml version="1.0" encoding="UTF-8" standalone="no"?>
<!-- Generator: Adobe Illustrator 16.0.0, SVG Export Plug-In . SVG Version: 6.00 Build 0)  -->

<svg
   xmlns:dc="http://purl.org/dc/elements/1.1/"
   xmlns:cc="http://creativecommons.org/ns#"
   xmlns:rdf="http://www.w3.org/1999/02/22-rdf-syntax-ns#"
   xmlns:svg="http://www.w3.org/2000/svg"
   xmlns="http://www.w3.org/2000/svg"
   xmlns:sodipodi="http://sodipodi.sourceforge.net/DTD/sodipodi-0.dtd"
   xmlns:inkscape="http://www.inkscape.org/namespaces/inkscape"
   version="1.1"
   id="svg2"
   inkscape:export-filename="/home/kivutar/Bureau/lakka-menu/reload.png"
   inkscape:export-xdpi="90"
   inkscape:version="0.91 r13725"
   inkscape:export-ydpi="90"
   sodipodi:docname="index.svg"
   x="0px"
   y="0px"
   width="64px"
   height="64px"
   viewBox="0 128 64 64"
   enable-background="new 0 128 64 64"
   xml:space="preserve"><metadata
     id="metadata8"><rdf:RDF><cc:Work
         rdf:about=""><dc:format>image/svg+xml</dc:format><dc:type
           rdf:resource="http://purl.org/dc/dcmitype/StillImage" /></cc:Work></rdf:RDF></metadata><defs
     id="defs6" /><sodipodi:namedview
     pagecolor="#ffffff"
     bordercolor="#666666"
     borderopacity="1"
     objecttolerance="10"
     gridtolerance="10"
     guidetolerance="10"
     inkscape:pageopacity="0"
     inkscape:pageshadow="2"
     inkscape:window-width="1855"
     inkscape:window-height="1056"
     id="namedview4"
     showgrid="false"
     inkscape:zoom="3.6875"
     inkscape:cx="32"
     inkscape:cy="32"
     inkscape:window-x="65"
     inkscape:window-y="24"
     inkscape:window-maximized="1"
     inkscape:current-layer="svg2" /><path
     inkscape:connector-curvature="0"
     style="fill:#f2f2f2;fill-opacity:1"
     d="m 7.0140904,134.90745 c -1.202691,0 -1.2020072,-0.002 -1.2020072,0.97571 l 0,48.77424 c 0,0.97733 -6.838e-4,0.97756 1.2020072,0.97756 l 50.5123286,0 c 1.202681,0 1.203868,-2.3e-4 1.203868,-0.97756 l 0,-48.77424 c 0,-0.97734 -9.5e-4,-0.97571 -1.203868,-0.97571 l -50.5123286,0 z m 1.6991374,2.93084 22.6471732,0 0,3.41497 -22.6471732,0 0,-3.41497 z M 54.287661,162.1679 c 1.2027,-0.004 1.202016,6.6e-4 1.202016,0.48044 l 0,20.15039 c 0,0.47977 6.84e-4,0.47663 -1.202016,0.48043 l -44.3112054,0.12985 c -1.2027288,0.004 -1.2038688,-6.6e-4 -1.2038688,-0.48044 l 0,-20.15038 c 0,-0.47978 9.5e-4,-0.47664 1.2038688,-0.48044 L 54.287661,162.1679 Z m -38.850213,1.58784 c -0.426528,0 -0.771662,0.34509 -0.771662,0.77166 l 0,2.04046 c 0,0.42656 0.345134,0.77166 0.771662,0.77166 l 2.313134,0 c 0.426622,0 0.771662,-0.3451 0.771662,-0.77166 l 0,-2.04046 c 0,-0.42657 -0.34504,-0.77166 -0.771662,-0.77166 l -2.313134,0 z m 4.62812,0 c -0.426528,0 -0.771662,0.34509 -0.771662,0.77166 l 0,2.04046 c 0,0.42656 0.345134,0.77166 0.771662,0.77166 l 2.313134,0 c 0.426622,0 0.771662,-0.3451 0.771662,-0.77166 l 0,-2.04046 c 0,-0.42657 -0.34504,-0.77166 -0.771662,-0.77166 l -2.313134,0 z m 4.62812,0 c -0.426528,0 -0.771662,0.34509 -0.771662,0.77166 l 0,2.04046 c 0,0.42656 0.345134,0.77166 0.771662,0.77166 l 2.313124,0 c 0.426622,0 0.771662,-0.3451 0.771662,-0.77166 l 0,-2.04046 c 0,-0.42657 -0.34504,-0.77166 -0.771662,-0.77166 l -2.313124,0 z m 4.62811,0 c -0.426527,0 -0.771662,0.34509 -0.771662,0.77166 l 0,2.04046 c 0,0.42656 0.345135,0.77166 0.771662,0.77166 l 2.313134,0 c 0.426527,0 0.771662,-0.3451 0.771662,-0.77166 l 0,-2.04046 c 0,-0.42657 -0.345135,-0.77166 -0.771662,-0.77166 l -2.313134,0 z m 4.62812,0 c -0.426622,0 -0.771662,0.34509 -0.771662,0.77166 l 0,2.04046 c 0,0.42656 0.34504,0.77166 0.771662,0.77166 l 2.313134,0 c 0.426527,0 0.771662,-0.3451 0.771662,-0.77166 l 0,-2.04046 c 0,-0.42657 -0.345135,-0.77166 -0.771662,-0.77166 l -2.313134,0 z m 4.62812,0 c -0.426622,0 -0.771662,0.34509 -0.771662,0.77166 l 0,2.04046 c 0,0.42656 0.34504,0.77166 0.771662,0.77166 l 2.313124,0 c 0.426527,0 0.771662,-0.3451 0.771662,-0.77166 l 0,-2.04046 c 0,-0.42657 -0.345135,-0.77166 -0.771662,-0.77166 l -2.313124,0 z m 4.62811,0 c -0.426622,0 -0.771662,0.34509 -0.771662,0.77166 l 0,2.04046 c 0,0.42656 0.34504,0.77166 0.771662,0.77166 l 2.313134,0 c 0.426527,0 0.771662,-0.3451 0.771662,-0.77166 l 0,-2.04046 c 0,-0.42657 -0.345135,-0.77166 -0.771662,-0.77166 l -2.313134,0 z m -25.45928,4.71716 c -0.426622,0 -0.7698,0.3451 -0.7698,0.77166 l 0,2.04046 c 0,0.42657 0.343178,0.77166 0.7698,0.77166 l 2.314986,0 c 0.426527,0 0.771662,-0.34509 0.771662,-0.77166 l 0,-2.04046 c 0,-0.42656 -0.345135,-0.77166 -0.771662,-0.77166 l -2.314986,0 z m 4.62812,0 c -0.426527,0 -0.76981,0.3451 -0.76981,0.77166 l 0,2.04046 c 0,0.42657 0.343283,0.77166 0.76981,0.77166 l 2.314986,0 c 0.426622,0 0.771662,-0.34509 0.771662,-0.77166 l 0,-2.04046 c 0,-0.42656 -0.34504,-0.77166 -0.771662,-0.77166 l -2.314986,0 z m 4.62812,0 c -0.426527,0 -0.76981,0.3451 -0.76981,0.77166 l 0,2.04046 c 0,0.42657 0.343283,0.77166 0.76981,0.77166 l 2.314986,0 c 0.426622,0 0.771662,-0.34509 0.771662,-0.77166 l 0,-2.04046 c 0,-0.42656 -0.34504,-0.77166 -0.771662,-0.77166 l -2.314986,0 z m 4.62811,0 c -0.426527,0 -0.7698,0.3451 -0.7698,0.77166 l 0,2.04046 c 0,0.42657 0.343273,0.77166 0.7698,0.77166 l 2.314986,0 c 0.426623,0 0.771662,-0.34509 0.771662,-0.77166 l 0,-2.04046 c 0,-0.42656 -0.345039,-0.77166 -0.771662,-0.77166 l -2.314986,0 z m 4.62812,0 c -0.426527,0 -0.76981,0.3451 -0.76981,0.77166 l 0,2.04046 c 0,0.42657 0.343283,0.77166 0.76981,0.77166 l 2.314986,0 c 0.426528,0 0.771662,-0.34509 0.771662,-0.77166 l 0,-2.04046 c 0,-0.42656 -0.345134,-0.77166 -0.771662,-0.77166 l -2.314986,0 z m 4.62812,0 c -0.426622,0 -0.76981,0.3451 -0.76981,0.77166 l 0,2.04046 c 0,0.42657 0.343188,0.77166 0.76981,0.77166 l 2.314986,0 c 0.426527,0 0.771662,-0.34509 0.771662,-0.77166 l 0,-2.04046 c 0,-0.42656 -0.345135,-0.77166 -0.771662,-0.77166 l -2.314986,0 z m 4.629972,0 c -0.426622,0 -0.771662,0.3451 -0.771662,0.77166 l 0,2.04046 c 0,0.42657 0.34504,0.77166 0.771662,0.77166 l 2.314986,0 c 0.426527,0 0.771662,-0.34509 0.771662,-0.77166 l 0,-2.04046 c 0,-0.42656 -0.345135,-0.77166 -0.771662,-0.77166 l -2.314986,0 z m -26.640887,4.71716 c -0.426527,0 -0.771662,0.34508 -0.771662,0.77166 l 0,2.04044 c 0,0.42657 0.345135,0.77167 0.771662,0.77167 l 2.314986,0 c 0.426623,0 0.771662,-0.3451 0.771662,-0.77167 l 0,-2.04044 c 0,-0.42658 -0.345039,-0.77166 -0.771662,-0.77166 l -2.314986,0 z m 4.628111,0 c -0.426528,0 -0.771662,0.34508 -0.771662,0.77166 l 0,2.04044 c 0,0.42657 0.345134,0.77167 0.771662,0.77167 l 2.314986,0 c 0.426622,0 0.771662,-0.3451 0.771662,-0.77167 l 0,-2.04044 c 0,-0.42658 -0.34504,-0.77166 -0.771662,-0.77166 l -2.314986,0 z m 4.62812,0 c -0.426623,0 -0.771662,0.34508 -0.771662,0.77166 l 0,2.04044 c 0,0.42657 0.345039,0.77167 0.771662,0.77167 l 2.314986,0 c 0.426527,0 0.771662,-0.3451 0.771662,-0.77167 l 0,-2.04044 c 0,-0.42658 -0.345135,-0.77166 -0.771662,-0.77166 l -2.314986,0 z m 4.62812,0 c -0.426623,0 -0.771662,0.34508 -0.771662,0.77166 l 0,2.04044 c 0,0.42657 0.345039,0.77167 0.771662,0.77167 l 2.314986,0 c 0.426527,0 0.771661,-0.3451 0.771661,-0.77167 l 0,-2.04044 c 0,-0.42658 -0.345134,-0.77166 -0.771661,-0.77166 l -2.314986,0 z m 4.62811,0 c -0.426622,0 -0.771662,0.34508 -0.771662,0.77166 l 0,2.04044 c 0,0.42657 0.34504,0.77167 0.771662,0.77167 l 2.314986,0 c 0.426527,0 0.771662,-0.3451 0.771662,-0.77167 l 0,-2.04044 c 0,-0.42658 -0.345135,-0.77166 -0.771662,-0.77166 l -2.314986,0 z m 4.62812,0 c -0.426622,0 -0.771662,0.34508 -0.771662,0.77166 l 0,2.04044 c 0,0.42657 0.34504,0.77167 0.771662,0.77167 l 2.314986,0 c 0.426622,0 0.771662,-0.3451 0.771662,-0.77167 l 0,-2.04044 c 0,-0.42658 -0.34504,-0.77166 -0.771662,-0.77166 l -2.314986,0 z m 4.62812,0 c -0.426527,0 -0.771662,0.34508 -0.771662,0.77166 l 0,2.04044 c 0,0.42657 0.345135,0.77167 0.771662,0.77167 l 2.314986,0 c 0.426622,0 0.771662,-0.3451 0.771662,-0.77167 l 0,-2.04044 c 0,-0.42658 -0.34504,-0.77166 -0.771662,-0.77166 l -2.314986,0 z m -28.779659,4.71714 c -0.426622,0 -0.771662,0.34509 -0.771662,0.77167 l 0,2.04045 c 0,0.42658 0.34504,0.77166 0.771662,0.77166 l 2.313134,0 c 0.426528,0 0.771662,-0.34508 0.771662,-0.77166 l 0,-2.04045 c 0,-0.42658 -0.345134,-0.77167 -0.771662,-0.77167 l -2.313134,0 z m 4.62812,0 c -0.426622,0 -0.771662,0.34509 -0.771662,0.77167 l 0,2.04045 c 0,0.42658 0.34504,0.77166 0.771662,0.77166 l 2.313134,0 c 0.426528,0 0.771662,-0.34508 0.771662,-0.77166 l 0,-2.04045 c 0,-0.42658 -0.345134,-0.77167 -0.771662,-0.77167 l -2.313134,0 z m 4.62812,0 c -0.426527,0 -0.771662,0.34509 -0.771662,0.77167 l 0,2.04045 c 0,0.42658 0.345135,0.77166 0.771662,0.77166 l 2.313125,0 c 0.426622,0 0.771662,-0.34508 0.771662,-0.77166 l 0,-2.04045 c 0,-0.42658 -0.34504,-0.77167 -0.771662,-0.77167 l -2.313125,0 z m 4.628111,0 c -0.426528,0 -0.771662,0.34509 -0.771662,0.77167 l 0,2.04045 c 0,0.42658 0.345134,0.77166 0.771662,0.77166 l 2.313134,0 c 0.426622,0 0.771662,-0.34508 0.771662,-0.77166 l 0,-2.04045 c 0,-0.42658 -0.34504,-0.77167 -0.771662,-0.77167 l -2.313134,0 z m 4.62812,0 c -0.426528,0 -0.771662,0.34509 -0.771662,0.77167 l 0,2.04045 c 0,0.42658 0.345134,0.77166 0.771662,0.77166 l 2.313134,0 c 0.426622,0 0.771661,-0.34508 0.771661,-0.77166 l 0,-2.04045 c 0,-0.42658 -0.345039,-0.77167 -0.771661,-0.77167 l -2.313134,0 z m 4.629971,0 c -0.426622,0 -0.773514,0.34509 -0.773514,0.77167 l 0,2.04045 c 0,0.42658 0.346892,0.77166 0.773514,0.77166 l 2.313134,0 c 0.426528,0 0.771662,-0.34508 0.771662,-0.77166 l 0,-2.04045 c 0,-0.42658 -0.345134,-0.77167 -0.771662,-0.77167 l -2.313134,0 z m 4.62812,0 c -0.426622,0 -0.771662,0.34509 -0.771662,0.77167 l 0,2.04045 c 0,0.42658 0.34504,0.77166 0.771662,0.77166 l 2.313125,0 c 0.426527,0 0.771662,-0.34508 0.771662,-0.77166 l 0,-2.04045 c 0,-0.42658 -0.345135,-0.77167 -0.771662,-0.77167 l -2.313125,0 z"
     id="Nintendo_DS" /></svg>