<?xml version="1.0" encoding="UTF-8" standalone="no"?>
<!-- Created with Inkscape (http://www.inkscape.org/) -->

<svg
   xmlns:dc="http://purl.org/dc/elements/1.1/"
   xmlns:cc="http://creativecommons.org/ns#"
   xmlns:rdf="http://www.w3.org/1999/02/22-rdf-syntax-ns#"
   xmlns:svg="http://www.w3.org/2000/svg"
   xmlns="http://www.w3.org/2000/svg"
   xmlns:sodipodi="http://sodipodi.sourceforge.net/DTD/sodipodi-0.dtd"
   xmlns:inkscape="http://www.inkscape.org/namespaces/inkscape"
   id="svg3299"
   version="1.1"
   inkscape:version="0.48.5 r10040"
   width="256"
   height="256"
   xml:space="preserve"
   sodipodi:docname="SNK - Neo Geo-content.svg"
   inkscape:export-filename="/Volumes/Verbatim16/GitHub Projects/baxy-retroarch-themes/monochrome plus/contributions/svg/SNK - Neo Geo-content.png"
   inkscape:export-xdpi="90.099998"
   inkscape:export-ydpi="90.099998"><metadata
     id="metadata3305"><rdf:RDF><cc:Work
         rdf:about=""><dc:format>image/svg+xml</dc:format><dc:type
           rdf:resource="http://purl.org/dc/dcmitype/StillImage" /><dc:title></dc:title></cc:Work></rdf:RDF></metadata><defs
     id="defs3303"><clipPath
       clipPathUnits="userSpaceOnUse"
       id="clipPath3313"><path
         d="M 0,256 256,256 256,0 0,0 0,256 z"
         id="path3315"
         inkscape:connector-curvature="0" /></clipPath></defs><sodipodi:namedview
     pagecolor="#ffffff"
     bordercolor="#666666"
     borderopacity="1"
     objecttolerance="10"
     gridtolerance="10"
     guidetolerance="10"
     inkscape:pageopacity="0"
     inkscape:pageshadow="2"
     inkscape:window-width="1676"
     inkscape:window-height="1005"
     id="namedview3301"
     showgrid="false"
     inkscape:zoom="2.61875"
     inkscape:cx="160"
     inkscape:cy="160"
     inkscape:window-x="4"
     inkscape:window-y="1"
     inkscape:window-maximized="1"
     inkscape:current-layer="g3307" /><g
     id="g3307"
     inkscape:groupmode="layer"
     inkscape:label="SNK - Neo Geo-content"
     transform="matrix(1.25,0,0,-1.25,0,256)"><g
       id="g3309"
       transform="scale(0.8,0.8)"><g
         id="g3311"
         clip-path="url(#clipPath3313)"><g
           id="g3317"
           transform="translate(72,216)"><path
             d="m 0,0 0,-72 c 0,-2.209 1.791,-4 4,-4 l 28,0 76,0 c 2.209,0 4,1.791 4,4 L 112,0 0,0 z"
             style="fill:#f2f2f2;fill-opacity:1;fill-rule:nonzero;stroke:none"
             id="path3319"
             inkscape:connector-curvature="0" /></g><path
           d="m 208,84 -76,0 0,4 76,0 0,-4 z m 0,-8 -76,0 0,4 76,0 0,-4 z m 0,-8 -76,0 0,4 76,0 0,-4 z m 0,-8 -76,0 0,4 76,0 0,-4 z m 0,-8 -76,0 0,4 76,0 0,-4 z m 0,-8 -76,0 0,4 76,0 0,-4 z m -84,40 -76,0 0,4 76,0 0,-4 z m 0,-8 -76,0 0,4 76,0 0,-4 z m 0,-8 -76,0 0,4 76,0 0,-4 z m 0,-8 -76,0 0,4 76,0 0,-4 z m 0,-8 -76,0 0,4 76,0 0,-4 z m 0,-8 -76,0 0,4 76,0 0,-4 z m 116,44 4,0 0,124 -40,0 -16,4 0,-72 c 0,-4.411 -3.589,-8 -8,-8 l -76,0 -28,0 c -4.411,0 -8,3.589 -8,8 l 0,72 -16,-4 -40,0 0,-124 4,0 24,0 0,-4 -24,0 -4,0 0,-4 4,0 24,0 0,-4 -24,0 -4,0 0,-4 4,0 24,0 0,-4 -24,0 -4,0 0,-0.134 0,-3.866 4,0 24,0 0,-4 -24,0 -4,0 0,-4 4,0 24,0 0,-4 -24,0 -4,0 0,-4 4,0 24,0 0,-4 -24,0 -4,0 0,-4 232,0 0,4 -4,0 -24,0 0,4 24,0 4,0 0,4 -4,0 -24,0 0,4 24,0 4,0 0,4 -4,0 -24,0 0,4 24,0 4,0 0,4 -4,0 -24,0 0,4 24,0 4,0 0,4 -4,0 -24,0 0,4 24,0 4,0 0,4 -4,0 -24,0 0,4 24,0 z"
           style="fill:#f2f2f2;fill-opacity:1;fill-rule:nonzero;stroke:none"
           id="path3321"
           inkscape:connector-curvature="0" /></g></g></g></svg>