<?xml version="1.0" encoding="UTF-8" standalone="no"?>
<!-- Created with Inkscape (http://www.inkscape.org/) -->

<svg
   xmlns:dc="http://purl.org/dc/elements/1.1/"
   xmlns:cc="http://creativecommons.org/ns#"
   xmlns:rdf="http://www.w3.org/1999/02/22-rdf-syntax-ns#"
   xmlns:svg="http://www.w3.org/2000/svg"
   xmlns="http://www.w3.org/2000/svg"
   xmlns:sodipodi="http://sodipodi.sourceforge.net/DTD/sodipodi-0.dtd"
   xmlns:inkscape="http://www.inkscape.org/namespaces/inkscape"
   id="svg4809"
   version="1.1"
   inkscape:version="0.91 r13725"
   xml:space="preserve"
   width="256"
   height="256"
   viewBox="0 0 256 256"
   sodipodi:docname="SNK - Neo Geo.svg"
   inkscape:export-filename="/Volumes/Verbatim16/GitHub Projects/baxy-retroarch-themes/monochrome plus/contributions/svg/SNK - Neo Geo.png"
   inkscape:export-xdpi="90.099998"
   inkscape:export-ydpi="90.099998"><metadata
     id="metadata4815"><rdf:RDF><cc:Work
         rdf:about=""><dc:format>image/svg+xml</dc:format><dc:type
           rdf:resource="http://purl.org/dc/dcmitype/StillImage" /><dc:title></dc:title></cc:Work></rdf:RDF></metadata><defs
     id="defs4813"><clipPath
       clipPathUnits="userSpaceOnUse"
       id="clipPath4823"><path
         d="M 0,256 256,256 256,0 0,0 0,256 Z"
         id="path4825"
         inkscape:connector-curvature="0" /></clipPath></defs><sodipodi:namedview
     pagecolor="#ffffff"
     bordercolor="#666666"
     borderopacity="1"
     objecttolerance="10"
     gridtolerance="10"
     guidetolerance="10"
     inkscape:pageopacity="0"
     inkscape:pageshadow="2"
     inkscape:window-width="640"
     inkscape:window-height="480"
     id="namedview4811"
     showgrid="false"
     inkscape:zoom="2.634375"
     inkscape:cx="102.3013"
     inkscape:cy="160"
     inkscape:current-layer="g4817" /><g
     id="g4817"
     inkscape:groupmode="layer"
     inkscape:label="SNK - Neo Geo"
     transform="matrix(1.25,0,0,-1.25,0,256)"><g
       id="g4819"
       transform="scale(0.8,0.8)"><g
         id="g4821"
         clip-path="url(#clipPath4823)"><g
           id="g4827"
           transform="translate(196,168)"><path
             d="m 0,0 c -4.418,0 -8,3.582 -8,8 0,4.418 3.582,8 8,8 C 4.418,16 8,12.418 8,8 8,3.582 4.418,0 0,0 m -20,-12 c -4.418,0 -8,3.582 -8,8 0,4.418 3.582,8 8,8 4.418,0 8,-3.582 8,-8 0,-4.418 -3.582,-8 -8,-8 m -16,-16 c -4.418,0 -8,3.582 -8,8 0,4.418 3.582,8 8,8 4.418,0 8,-3.582 8,-8 0,-4.418 -3.582,-8 -8,-8 m -14,-18 c -4.418,0 -8,3.582 -8,8 0,4.418 3.582,8 8,8 4.418,0 8,-3.582 8,-8 0,-4.418 -3.582,-8 -8,-8 m -19.851,63.668 c -0.503,-0.475 -1.148,-0.701 -1.805,-0.664 l -9.011,0.63 c -0.662,0.046 -1.269,0.368 -1.71,0.91 -0.442,0.541 -0.661,1.231 -0.618,1.944 0.043,0.712 0.343,1.366 0.846,1.841 0.461,0.436 1.038,0.671 1.641,0.671 0.055,0 0.11,-0.003 0.164,-0.006 l 9.011,-0.63 c 0.662,-0.047 1.269,-0.369 1.71,-0.91 0.442,-0.542 0.661,-1.231 0.618,-1.944 -0.043,-0.712 -0.343,-1.366 -0.846,-1.842 M -114,-48 c -16.568,0 -30,13.432 -30,30 0,16.568 13.432,30 30,30 16.568,0 30,-13.432 30,-30 0,-16.568 -13.432,-30 -30,-30 m 61.335,70.364 9.009,0.63 c 0.054,0.003 0.109,0.006 0.162,0.006 1.303,0 2.402,-1.093 2.489,-2.51 0.088,-1.478 -0.958,-2.757 -2.33,-2.853 l -9.009,-0.629 c -1.388,-0.113 -2.559,1.028 -2.651,2.504 -0.088,1.477 0.958,2.757 2.33,2.852 M 44.224,36 -180.224,36 C -182.31,36 -184,34.276 -184,32.15 l 0,-144.3 c 0,-2.126 1.69,-3.85 3.776,-3.85 l 224.448,0 c 2.086,0 3.776,1.724 3.776,3.85 l 0,144.3 C 48,34.276 46.31,36 44.224,36"
             style="fill:#f2f2f2;fill-opacity:1;fill-rule:nonzero;stroke:none"
             id="path4829"
             inkscape:connector-curvature="0" /></g><g
           id="g4831"
           transform="translate(82,164)"><path
             d="m 0,0 c -7.72,0 -14,-6.28 -14,-14 0,-7.72 6.28,-14 14,-14 7.72,0 14,6.28 14,14 C 14,-6.28 7.72,0 0,0"
             style="fill:#f2f2f2;fill-opacity:1;fill-rule:nonzero;stroke:none"
             id="path4833"
             inkscape:connector-curvature="0" /></g></g></g></g></svg>