<?xml version="1.0" encoding="UTF-8" standalone="no"?>
<!-- Created with Inkscape (http://www.inkscape.org/) -->

<svg
   xmlns:dc="http://purl.org/dc/elements/1.1/"
   xmlns:cc="http://creativecommons.org/ns#"
   xmlns:rdf="http://www.w3.org/1999/02/22-rdf-syntax-ns#"
   xmlns:svg="http://www.w3.org/2000/svg"
   xmlns="http://www.w3.org/2000/svg"
   xmlns:sodipodi="http://sodipodi.sourceforge.net/DTD/sodipodi-0.dtd"
   xmlns:inkscape="http://www.inkscape.org/namespaces/inkscape"
   id="svg4729"
   version="1.1"
   inkscape:version="0.48.5 r10040"
   width="64"
   height="64"
   xml:space="preserve"
   sodipodi:docname="SNK - Neo Geo-content.svg"
   inkscape:export-filename="/Users/margetts/Desktop/Icon Workshop/Monochrome Plus June/png/SNK - Neo Geo-content.png"
   inkscape:export-xdpi="360"
   inkscape:export-ydpi="360"><metadata
     id="metadata4735"><rdf:RDF><cc:Work
         rdf:about=""><dc:format>image/svg+xml</dc:format><dc:type
           rdf:resource="http://purl.org/dc/dcmitype/StillImage" /><dc:title></dc:title></cc:Work></rdf:RDF></metadata><defs
     id="defs4733"><clipPath
       clipPathUnits="userSpaceOnUse"
       id="clipPath4743"><path
         d="M 0,64 64,64 64,0 0,0 0,64 z"
         id="path4745"
         inkscape:connector-curvature="0" /></clipPath></defs><sodipodi:namedview
     pagecolor="#ffffff"
     bordercolor="#666666"
     borderopacity="1"
     objecttolerance="10"
     gridtolerance="10"
     guidetolerance="10"
     inkscape:pageopacity="0"
     inkscape:pageshadow="2"
     inkscape:window-width="1676"
     inkscape:window-height="1005"
     id="namedview4731"
     showgrid="false"
     inkscape:zoom="3.8"
     inkscape:cx="40"
     inkscape:cy="40"
     inkscape:window-x="4"
     inkscape:window-y="1"
     inkscape:window-maximized="1"
     inkscape:current-layer="g4737" /><g
     id="g4737"
     inkscape:groupmode="layer"
     inkscape:label="SNK - Neo Geo-content"
     transform="matrix(1.25,0,0,-1.25,0,64)"><g
       id="g4739"
       transform="matrix(0.8,0,0,0.8,0,-0.4)"><g
         id="g4741"
         clip-path="url(#clipPath4743)"><path
           d="m 51,21 -18,0 0,1 18,0 0,-1 z m 0,-2 -18,0 0,1 18,0 0,-1 z m 0,-2 -18,0 0,1 18,0 0,-1 z m 0,-2 -18,0 0,1 18,0 0,-1 z m 0,-2 -18,0 0,1 18,0 0,-1 z m -38,1 18,0 0,-1 -18,0 0,1 z m 0,2 18,0 0,-1 -18,0 0,1 z m 0,2 18,0 0,-1 -18,0 0,1 z m 0,2 18,0 0,-1 -18,0 0,1 z m 0,2 18,0 0,-1 -18,0 0,1 z m 46,0 0,30 -9,0 -4,1 0,-18 c 0,-0.552 -0.447,-1 -1,-1 l -26,0 c -0.552,0 -1,0.448 -1,1 l 0,18 -4,-1 -9,0 0,-30 6,0 0,-1 -6,0 0,-1 6,0 0,-1 -6,0 0,-1 6,0 0,-1 -6,0 0,-1 6,0 0,-1 -6,0 0,-1 6,0 0,-1 -6,0 0,-1 6,0 2,0 18,0 2,0 18,0 2,0 6,0 0,1 -6,0 0,1 6,0 0,1 -6,0 0,1 6,0 0,1 -6,0 0,1 6,0 0,1 -6,0 0,1 6,0 0,1 -6,0 0,1 6,0 z"
           style="fill:#f2f2f2;fill-opacity:1;fill-rule:nonzero;stroke:none"
           id="path4747"
           inkscape:connector-curvature="0" /><g
           id="g4749"
           transform="translate(20,35)"><path
             d="m 0,0 24,0 c 0.553,0 1,0.448 1,1 L 25,18 -1,18 -1,1 C -1,0.448 -0.552,0 0,0"
             style="fill:#f2f2f2;fill-opacity:1;fill-rule:nonzero;stroke:none"
             id="path4751"
             inkscape:connector-curvature="0" /></g></g></g></g></svg>