<?xml version="1.0" encoding="UTF-8" standalone="no"?>
<!-- Created with Inkscape (http://www.inkscape.org/) -->

<svg
   xmlns:dc="http://purl.org/dc/elements/1.1/"
   xmlns:cc="http://creativecommons.org/ns#"
   xmlns:rdf="http://www.w3.org/1999/02/22-rdf-syntax-ns#"
   xmlns:svg="http://www.w3.org/2000/svg"
   xmlns="http://www.w3.org/2000/svg"
   xmlns:sodipodi="http://sodipodi.sourceforge.net/DTD/sodipodi-0.dtd"
   xmlns:inkscape="http://www.inkscape.org/namespaces/inkscape"
   id="svg4665"
   version="1.1"
   inkscape:version="0.48.5 r10040"
   width="64"
   height="64"
   xml:space="preserve"
   sodipodi:docname="SNK - Neo Geo.svg"
   inkscape:export-filename="/Users/margetts/Desktop/Icon Workshop/Monochrome Plus June/png/SNK - Neo Geo.png"
   inkscape:export-xdpi="360"
   inkscape:export-ydpi="360"><metadata
     id="metadata4671"><rdf:RDF><cc:Work
         rdf:about=""><dc:format>image/svg+xml</dc:format><dc:type
           rdf:resource="http://purl.org/dc/dcmitype/StillImage" /><dc:title></dc:title></cc:Work></rdf:RDF></metadata><defs
     id="defs4669"><clipPath
       clipPathUnits="userSpaceOnUse"
       id="clipPath4679"><path
         d="M 0,64 64,64 64,0 0,0 0,64 z"
         id="path4681"
         inkscape:connector-curvature="0" /></clipPath></defs><sodipodi:namedview
     pagecolor="#ffffff"
     bordercolor="#666666"
     borderopacity="1"
     objecttolerance="10"
     gridtolerance="10"
     guidetolerance="10"
     inkscape:pageopacity="0"
     inkscape:pageshadow="2"
     inkscape:window-width="1676"
     inkscape:window-height="1005"
     id="namedview4667"
     showgrid="false"
     inkscape:zoom="3.8"
     inkscape:cx="6.9736842"
     inkscape:cy="40"
     inkscape:window-x="4"
     inkscape:window-y="1"
     inkscape:window-maximized="1"
     inkscape:current-layer="g4673" /><g
     id="g4673"
     inkscape:groupmode="layer"
     inkscape:label="SNK - Neo Geo"
     transform="matrix(1.25,0,0,-1.25,0,64)"><g
       id="g4675"
       transform="scale(0.8,0.8)"><g
         id="g4677"
         clip-path="url(#clipPath4679)"><g
           id="g4683"
           transform="translate(21,40)"><path
             d="m 0,0 c -1.654,0 -3,-1.346 -3,-3 0,-1.654 1.346,-3 3,-3 1.654,0 3,1.346 3,3 0,1.654 -1.346,3 -3,3"
             style="fill:#f2f2f2;fill-opacity:1;fill-rule:nonzero;stroke:none"
             id="path4685"
             inkscape:connector-curvature="0" /></g><g
           id="g4687"
           transform="translate(48,41)"><path
             d="M 0,0 C -1.104,0 -2,0.896 -2,2 -2,3.104 -1.104,4 0,4 1.104,4 2,3.104 2,2 2,0.896 1.104,0 0,0 m -5,-3 c -1.104,0 -2,0.896 -2,2 0,1.104 0.896,2 2,2 1.104,0 2,-0.896 2,-2 0,-1.104 -0.896,-2 -2,-2 m -4,-4 c -1.104,0 -2,0.896 -2,2 0,1.104 0.896,2 2,2 1.104,0 2,-0.896 2,-2 0,-1.104 -0.896,-2 -2,-2 m -3,-5 c -1.104,0 -2,0.896 -2,2 0,1.104 0.896,2 2,2 1.104,0 2,-0.896 2,-2 0,-1.104 -0.896,-2 -2,-2 m -4.609,16.486 -2.955,0.521 c -0.272,0.048 -0.454,0.307 -0.406,0.579 0.048,0.272 0.308,0.454 0.579,0.406 l 2.955,-0.521 c 0.272,-0.048 0.454,-0.307 0.406,-0.579 -0.048,-0.272 -0.308,-0.454 -0.579,-0.406 M -27,-11 c -3.866,0 -7,3.134 -7,7 0,3.866 3.134,7 7,7 3.866,0 7,-3.134 7,-7 0,-3.866 -3.134,-7 -7,-7 m 14.459,16.471 2.954,0.521 C -9.314,6.04 -9.056,5.859 -9.008,5.587 -8.96,5.315 -9.142,5.056 -9.413,5.007 l -2.954,-0.521 c -0.273,-0.048 -0.532,0.134 -0.58,0.406 -0.048,0.272 0.134,0.531 0.406,0.579 M 10,8 -42,8 c -0.55,0 -1,-0.45 -1,-1 l 0,-32 c 0,-0.55 0.45,-1 1,-1 l 52,0 c 0.55,0 1,0.45 1,1 l 0,32 c 0,0.55 -0.45,1 -1,1"
             style="fill:#f2f2f2;fill-opacity:1;fill-rule:nonzero;stroke:none"
             id="path4689"
             inkscape:connector-curvature="0" /></g></g></g></g></svg>