<?xml version="1.0" encoding="UTF-8" standalone="no"?>
<!-- Created with Inkscape (http://www.inkscape.org/) -->

<svg
   xmlns:dc="http://purl.org/dc/elements/1.1/"
   xmlns:cc="http://creativecommons.org/ns#"
   xmlns:rdf="http://www.w3.org/1999/02/22-rdf-syntax-ns#"
   xmlns:svg="http://www.w3.org/2000/svg"
   xmlns="http://www.w3.org/2000/svg"
   xmlns:sodipodi="http://sodipodi.sourceforge.net/DTD/sodipodi-0.dtd"
   xmlns:inkscape="http://www.inkscape.org/namespaces/inkscape"
   id="svg5205"
   version="1.1"
   inkscape:version="0.48.5 r10040"
   width="64"
   height="64"
   xml:space="preserve"
   sodipodi:docname="Sony - PlayStation Vita-content.svg"
   inkscape:export-filename="/Users/margetts/Desktop/Icon Workshop/Monochrome Plus June/png/Sony - PlayStation Vita-content.png"
   inkscape:export-xdpi="360"
   inkscape:export-ydpi="360"><metadata
     id="metadata5211"><rdf:RDF><cc:Work
         rdf:about=""><dc:format>image/svg+xml</dc:format><dc:type
           rdf:resource="http://purl.org/dc/dcmitype/StillImage" /><dc:title></dc:title></cc:Work></rdf:RDF></metadata><defs
     id="defs5209"><clipPath
       clipPathUnits="userSpaceOnUse"
       id="clipPath5219"><path
         d="M 0,64 64,64 64,0 0,0 0,64 z"
         id="path5221"
         inkscape:connector-curvature="0" /></clipPath></defs><sodipodi:namedview
     pagecolor="#ffffff"
     bordercolor="#666666"
     borderopacity="1"
     objecttolerance="10"
     gridtolerance="10"
     guidetolerance="10"
     inkscape:pageopacity="0"
     inkscape:pageshadow="2"
     inkscape:window-width="1676"
     inkscape:window-height="1005"
     id="namedview5207"
     showgrid="false"
     inkscape:zoom="3.8"
     inkscape:cx="6.9736842"
     inkscape:cy="40"
     inkscape:window-x="4"
     inkscape:window-y="1"
     inkscape:window-maximized="1"
     inkscape:current-layer="g5213" /><g
     id="g5213"
     inkscape:groupmode="layer"
     inkscape:label="Sony - PlayStation Vita-content"
     transform="matrix(1.25,0,0,-1.25,0,64)"><g
       id="g5215"
       transform="scale(0.8,0.8)"><g
         id="g5217"
         clip-path="url(#clipPath5219)"><g
           id="g5223"
           transform="translate(32.5,53)"><path
             d="m 0,0 c 7.637,0 12.721,-1.366 13.5,-2.15 l 0,-3.85 0,-0.104 0,-32.896 -27,0 0,32.896 0,0.104 0,3.85 C -12.721,-1.366 -7.637,0 0,0"
             style="fill:#f2f2f2;fill-opacity:1;fill-rule:nonzero;stroke:none"
             id="path5225"
             inkscape:connector-curvature="0" /></g><g
           id="g5227"
           transform="translate(47,47)"><path
             d="M 0,0 0,-0.104 0,-34 l -29,0 0,33.896 0,0.104 0,4 c 0,1.471 6.492,3 14.5,3 C -6.492,7 0,5.471 0,4 L 0,0 z m -11,-36 -3.5,-3 -3.5,3 0,1 3.5,-3 3.5,3 0,-1 z M 4,4 4,8 c 0,2.057 -8.507,4 -19,4 -10.493,0 -19,-1.943 -19,-4 l 0,-4 1,0 0,-6 -1,0 0,-34 5,-6 33,0 0,40 -1,0 0,6 1,0 z"
             style="fill:#f2f2f2;fill-opacity:1;fill-rule:nonzero;stroke:none"
             id="path5229"
             inkscape:connector-curvature="0" /></g></g></g></g></svg>