<?xml version="1.0" encoding="utf-8"?>
<!-- Generator: Adobe Illustrator 16.0.0, SVG Export Plug-In . SVG Version: 6.00 Build 0)  -->
<!DOCTYPE svg PUBLIC "-//W3C//DTD SVG 1.1//EN" "http://www.w3.org/Graphics/SVG/1.1/DTD/svg11.dtd">
<svg version="1.1"
	 id="svg2" inkscape:export-filename="/home/kivutar/Bureau/lakka-menu/reload.png" inkscape:export-xdpi="90" inkscape:version="0.48.4 r9939" inkscape:export-ydpi="90" sodipodi:docname="reload.svg" xmlns:svg="http://www.w3.org/2000/svg" xmlns:cc="http://creativecommons.org/ns#" xmlns:sodipodi="http://sodipodi.sourceforge.net/DTD/sodipodi-0.dtd" xmlns:rdf="http://www.w3.org/1999/02/22-rdf-syntax-ns#" xmlns:dc="http://purl.org/dc/elements/1.1/" xmlns:inkscape="http://www.inkscape.org/namespaces/inkscape"
	 xmlns="http://www.w3.org/2000/svg" xmlns:xlink="http://www.w3.org/1999/xlink" x="0px" y="0px" width="64px" height="64px"
	 viewBox="0 128 64 64" enable-background="new 0 128 64 64" xml:space="preserve">
<path id="PlayStation" fill="#F2F2F2" d="M55.902,146.162c-0.432-1.45-0.982-2.847-1.643-4.182h0.001
	C53.008,141.524,51.413,141,50,141c-1.411,0-2.525,0.524-3.78,0.98h0.001c-0.659,1.335-1.21,2.731-1.642,4.182
	C44.036,146.5,43.472,146.573,43,147H21c-0.472-0.427-1.037-0.5-1.579-0.838c-0.432-1.45-0.982-2.847-1.642-4.182
	C16.525,141.524,15.413,141,14,141s-3.007,0.524-4.261,0.98H9.74c-0.66,1.335-1.211,2.731-1.643,4.182
	C5.067,148.053,3,151.164,3,155c0,2.937,0.739,17.365,0.739,17.365c0,3.511,2.75,6.635,6.261,6.635c2.335,0,4.47-1.535,5.574-3.411
	h0.001c0,0,0.003-0.005,0.004-0.008c0.108-0.186,0.209-0.378,0.3-0.576c0.879-1.688,3.405-6.548,4.043-7.771
	C21.274,164.634,21.333,164,25,164h14c3.669,0,3.726,0.634,5.079,3.234c0.636,1.223,3.16,6.076,4.04,7.768
	c0.092,0.201,0.193,0.394,0.304,0.583l0.002,0.004C49.53,177.465,51.665,179,54,179c3.511,0,6.262-3.124,6.262-6.635
	c0,0,0.738-14.062,0.738-17.365C61,151.163,58.933,148.053,55.902,146.162z M11,150c0-1,0-1,1-1h2c1,0,1,0,1,1v2c0,0-1,2-2,2
	s-2-2-2-2V150z M8,157c-1,0-1,0-1-1v-2c0-1,0-1,1-1h2c0,0,2,1,2,2s-2,2-2,2H8z M15,160c0,1,0,1-1,1h-2c-1,0-1,0-1-1v-2c0,0,1-2,2-2
	s2,2,2,2V160z M19,156c0,1,0,1-1,1h-2c0,0-2-1-2-2s2-2,2-2h2c1,0,1,0,1,1V156z M30,161h-4v-2h4V161z M34,161v-2c0,0,4,0.667,4,1
	S34,161,34,161z M51,148c1.381,0,2.5,1.119,2.5,2.5S52.381,153,51,153s-2.5-1.119-2.5-2.5S49.619,148,51,148z M46.5,157.5
	c-1.381,0-2.5-1.119-2.5-2.5s1.119-2.5,2.5-2.5s2.5,1.119,2.5,2.5S47.881,157.5,46.5,157.5z M51,162c-1.381,0-2.5-1.119-2.5-2.5
	s1.119-2.5,2.5-2.5s2.5,1.119,2.5,2.5S52.381,162,51,162z M55.5,157.5c-1.381,0-2.5-1.119-2.5-2.5s1.119-2.5,2.5-2.5
	s2.5,1.119,2.5,2.5S56.881,157.5,55.5,157.5z"/>
</svg>
