<?xml version="1.0" encoding="UTF-8" standalone="no"?>
<!-- Created with Inkscape (http://www.inkscape.org/) -->

<svg
   xmlns:dc="http://purl.org/dc/elements/1.1/"
   xmlns:cc="http://creativecommons.org/ns#"
   xmlns:rdf="http://www.w3.org/1999/02/22-rdf-syntax-ns#"
   xmlns:svg="http://www.w3.org/2000/svg"
   xmlns="http://www.w3.org/2000/svg"
   xmlns:sodipodi="http://sodipodi.sourceforge.net/DTD/sodipodi-0.dtd"
   xmlns:inkscape="http://www.inkscape.org/namespaces/inkscape"
   id="svg5081"
   version="1.1"
   inkscape:version="0.48.5 r10040"
   width="64"
   height="64"
   xml:space="preserve"
   sodipodi:docname="Sony - PlayStation 4.svg"
   inkscape:export-filename="/Users/margetts/Desktop/Icon Workshop/Monochrome Plus June/png/Sony - PlayStation 4.png"
   inkscape:export-xdpi="360"
   inkscape:export-ydpi="360"><metadata
     id="metadata5087"><rdf:RDF><cc:Work
         rdf:about=""><dc:format>image/svg+xml</dc:format><dc:type
           rdf:resource="http://purl.org/dc/dcmitype/StillImage" /><dc:title></dc:title></cc:Work></rdf:RDF></metadata><defs
     id="defs5085"><clipPath
       clipPathUnits="userSpaceOnUse"
       id="clipPath5095"><path
         d="M 0,64 64,64 64,0 0,0 0,64 z"
         id="path5097"
         inkscape:connector-curvature="0" /></clipPath></defs><sodipodi:namedview
     pagecolor="#ffffff"
     bordercolor="#666666"
     borderopacity="1"
     objecttolerance="10"
     gridtolerance="10"
     guidetolerance="10"
     inkscape:pageopacity="0"
     inkscape:pageshadow="2"
     inkscape:window-width="1676"
     inkscape:window-height="1005"
     id="namedview5083"
     showgrid="false"
     inkscape:zoom="3.8"
     inkscape:cx="6.9736842"
     inkscape:cy="40"
     inkscape:window-x="4"
     inkscape:window-y="1"
     inkscape:window-maximized="1"
     inkscape:current-layer="g5089" /><g
     id="g5089"
     inkscape:groupmode="layer"
     inkscape:label="Sony - PlayStation 4"
     transform="matrix(1.25,0,0,-1.25,0,64)"><g
       id="g5091"
       transform="matrix(0.8,0,0,0.8,0,-0.4)"><g
         id="g5093"
         clip-path="url(#clipPath5095)"><g
           id="g5099"
           transform="translate(39,39)"><path
             d="m 0,0 -14,0 c -0.552,0 -1,0.448 -1,1 L -15,8 1,8 1,1 C 1,0.448 0.553,0 0,0"
             style="fill:#f2f2f2;fill-opacity:1;fill-rule:nonzero;stroke:none"
             id="path5101"
             inkscape:connector-curvature="0" /></g><g
           id="g5103"
           transform="translate(53,37)"><path
             d="M 0,0 C -1.104,0 -2,0.896 -2,2 -2,3.104 -1.104,4 0,4 1.104,4 2,3.104 2,2 2,0.896 1.104,0 0,0 m -4,-4 c -1.104,0 -2,0.896 -2,2 0,1.104 0.896,2 2,2 1.104,0 2,-0.896 2,-2 0,-1.104 -0.896,-2 -2,-2 m -4,4 c -1.104,0 -2,0.896 -2,2 0,1.104 0.896,2 2,2 1.104,0 2,-0.896 2,-2 0,-1.104 -0.896,-2 -2,-2 m -5,-9 c -1.657,0 -3,1.343 -3,3 0,1.657 1.343,3 3,3 1.657,0 3,-1.343 3,-3 0,-1.657 -1.343,-3 -3,-3 m 2,17.069 C -11,8.583 -10.583,9 -10.069,9 l 0.138,0 C -9.417,9 -9,8.583 -9,8.069 L -9,6.931 C -9,6.417 -9.417,6 -9.931,6 l -0.138,0 C -10.583,6 -11,6.417 -11,6.931 l 0,1.138 z M -4,8 c 1.104,0 2,-0.896 2,-2 0,-1.104 -0.896,-2 -2,-2 -1.104,0 -2,0.896 -2,2 0,1.104 0.896,2 2,2 M -20.5,-7 c -0.829,0 -1.5,0.672 -1.5,1.5 0,0.829 0.671,1.5 1.5,1.5 0.828,0 1.5,-0.671 1.5,-1.5 0,-0.828 -0.672,-1.5 -1.5,-1.5 M -29,-9 c -1.657,0 -3,1.343 -3,3 0,1.657 1.343,3 3,3 1.657,0 3,-1.343 3,-3 0,-1.657 -1.343,-3 -3,-3 m -4,15.931 0,1.138 C -33,8.583 -32.583,9 -32.069,9 l 0.138,0 C -31.417,9 -31,8.583 -31,8.069 l 0,-1.138 C -31,6.417 -31.417,6 -31.931,6 l -0.138,0 C -32.583,6 -33,6.417 -33,6.931 m 0,-5.698 C -33,1.104 -33.123,1 -33.274,1 l -1.792,0 c -0.227,0 -0.449,0.058 -0.633,0.17 C -36.16,1.45 -37,2.025 -37,2.5 c 0,0.454 0.676,0.999 1.091,1.291 0.195,0.137 0.441,0.209 0.694,0.209 l 1.941,0 C -33.123,4 -33,3.896 -33,3.767 l 0,-2.534 z m -3,-2.959 C -36,-1.877 -36.104,-2 -36.233,-2 l -2.534,0 C -38.896,-2 -39,-1.877 -39,-1.726 l 0,1.792 c 0,0.227 0.058,0.449 0.17,0.633 C -38.55,1.16 -37.975,2 -37.5,2 -37.046,2 -36.501,1.324 -36.209,0.909 -36.072,0.714 -36,0.468 -36,0.215 l 0,-1.941 z M -39.934,1 -41.726,1 C -41.877,1 -42,1.104 -42,1.233 l 0,2.534 C -42,3.896 -41.877,4 -41.726,4 l 1.941,0 c 0.253,0 0.499,-0.072 0.694,-0.209 C -38.676,3.499 -38,2.954 -38,2.5 -38,2.025 -38.84,1.45 -39.301,1.17 -39.485,1.058 -39.707,1 -39.934,1 M -39,6.726 C -39,6.877 -38.896,7 -38.767,7 l 2.534,0 C -36.104,7 -36,6.877 -36,6.726 l 0,-1.941 C -36,4.532 -36.072,4.286 -36.209,4.091 -36.501,3.676 -37.046,3 -37.5,3 -37.975,3 -38.55,3.84 -38.83,4.301 -38.942,4.485 -39,4.707 -39,4.934 l 0,1.792 z M 4,-1 C 2.138,7.25 0,10 0,10 c -0.121,0.119 -0.717,0.928 -1,1 -0.007,0.166 -0.243,0.229 -0.407,0.303 C -2.014,11.574 -3.097,12 -5,12 -7.793,12 -8,11 -8,11 l 0.034,-0.008 C -8.066,10.947 -8.753,10 -9,10 l -3,0 0,-8 c 0,-0.552 -0.447,-1 -1,-1 l -16,0 c -0.552,0 -1,0.448 -1,1 l 0,8 -3,0 c -0.247,0 -1,1 -1,1 0,0 -0.035,1 -2.828,1 -1.903,0 -3.158,-0.426 -3.764,-0.697 C -40.757,11.229 -40.993,11.166 -41,11 c -0.283,-0.072 -0.879,-0.881 -1,-1 0,0 -2.138,-2.75 -4,-11 -1.862,-8.25 -2,-13 -2,-13 0,0 1.345,-7 6,-7 4.615,0 5.246,3.791 8,11 0,0 0.836,0.937 1,1 0.915,-1.18 2.392,-2 4,-2 1.63,0 3.064,0.792 3.978,2 l 8.044,0 c 0.914,-1.208 2.347,-2 3.978,-2 1.608,0 3.085,0.82 4,2 0.164,-0.063 1,-1 1,-1 2.754,-7.209 4.385,-11 9,-11 4.655,0 5,7 5,7 0,0 -0.138,4.75 -2,13"
             style="fill:#f2f2f2;fill-opacity:1;fill-rule:nonzero;stroke:none"
             id="path5105"
             inkscape:connector-curvature="0" /></g></g></g></g></svg>