<?xml version="1.0" encoding="utf-8"?>
<!-- Generator: Adobe Illustrator 16.0.0, SVG Export Plug-In . SVG Version: 6.00 Build 0)  -->
<!DOCTYPE svg PUBLIC "-//W3C//DTD SVG 1.1//EN" "http://www.w3.org/Graphics/SVG/1.1/DTD/svg11.dtd">
<svg version="1.1"
	 id="svg2" inkscape:export-filename="/home/kivutar/Bureau/lakka-menu/reload.png" inkscape:export-xdpi="90" inkscape:version="0.48.4 r9939" inkscape:export-ydpi="90" sodipodi:docname="reload.svg" xmlns:svg="http://www.w3.org/2000/svg" xmlns:cc="http://creativecommons.org/ns#" xmlns:sodipodi="http://sodipodi.sourceforge.net/DTD/sodipodi-0.dtd" xmlns:rdf="http://www.w3.org/1999/02/22-rdf-syntax-ns#" xmlns:dc="http://purl.org/dc/elements/1.1/" xmlns:inkscape="http://www.inkscape.org/namespaces/inkscape"
	 xmlns="http://www.w3.org/2000/svg" xmlns:xlink="http://www.w3.org/1999/xlink" x="0px" y="0px" width="64px" height="64px"
	 viewBox="0 128 64 64" enable-background="new 0 128 64 64" xml:space="preserve">
<path id="PSP" fill="#F2F2F2" d="M32,134.5c-13.254,0-24,10.746-24,24c0,1.078,0,12.341,0,17c0,2,2,3,2,3c6.685,5.021,12.996,7,22,7
	c9.005,0,15.314-1.979,22-7c0,0,2-1.77,2-3c0-4.659,0-15.922,0-17C56,145.246,45.254,134.5,32,134.5z M32,180.5
	c-12.15,0-22-9.85-22-22s9.85-22,22-22s22,9.85,22,22S44.15,180.5,32,180.5z M32,138.5c-11.046,0-20,8.954-20,20s8.954,20,20,20
	s20-8.954,20-20S43.046,138.5,32,138.5z M32,166.5c-4.418,0-8-3.582-8-8c0-4.419,3.582-8,8-8s8,3.581,8,8
	C40,162.918,36.418,166.5,32,166.5z M38,158.5c0,3.314-2.686,6-6,6s-6-2.686-6-6s2.686-6,6-6S38,155.186,38,158.5z"/>
</svg>
