<?xml version="1.0" encoding="UTF-8" standalone="no"?>
<!-- Created with Inkscape (http://www.inkscape.org/) -->

<svg
   xmlns:dc="http://purl.org/dc/elements/1.1/"
   xmlns:cc="http://creativecommons.org/ns#"
   xmlns:rdf="http://www.w3.org/1999/02/22-rdf-syntax-ns#"
   xmlns:svg="http://www.w3.org/2000/svg"
   xmlns="http://www.w3.org/2000/svg"
   xmlns:sodipodi="http://sodipodi.sourceforge.net/DTD/sodipodi-0.dtd"
   xmlns:inkscape="http://www.inkscape.org/namespaces/inkscape"
   id="svg5145"
   version="1.1"
   inkscape:version="0.48.5 r10040"
   width="64"
   height="64"
   xml:space="preserve"
   sodipodi:docname="Sony - PlayStation Vita.svg"
   inkscape:export-filename="/Users/margetts/Desktop/Icon Workshop/Monochrome Plus June/png/Sony - PlayStation Vita.png"
   inkscape:export-xdpi="360"
   inkscape:export-ydpi="360"><metadata
     id="metadata5151"><rdf:RDF><cc:Work
         rdf:about=""><dc:format>image/svg+xml</dc:format><dc:type
           rdf:resource="http://purl.org/dc/dcmitype/StillImage" /><dc:title></dc:title></cc:Work></rdf:RDF></metadata><defs
     id="defs5149"><clipPath
       clipPathUnits="userSpaceOnUse"
       id="clipPath5159"><path
         d="M 0,64 64,64 64,0 0,0 0,64 z"
         id="path5161"
         inkscape:connector-curvature="0" /></clipPath></defs><sodipodi:namedview
     pagecolor="#ffffff"
     bordercolor="#666666"
     borderopacity="1"
     objecttolerance="10"
     gridtolerance="10"
     guidetolerance="10"
     inkscape:pageopacity="0"
     inkscape:pageshadow="2"
     inkscape:window-width="1676"
     inkscape:window-height="1005"
     id="namedview5147"
     showgrid="false"
     inkscape:zoom="3.8"
     inkscape:cx="6.9736842"
     inkscape:cy="40"
     inkscape:window-x="4"
     inkscape:window-y="1"
     inkscape:window-maximized="1"
     inkscape:current-layer="g5153" /><g
     id="g5153"
     inkscape:groupmode="layer"
     inkscape:label="Sony - PlayStation Vita"
     transform="matrix(1.25,0,0,-1.25,0,64)"><g
       id="g5155"
       transform="scale(0.8,0.8)"><g
         id="g5157"
         clip-path="url(#clipPath5159)"><g
           id="g5163"
           transform="translate(56,35)"><path
             d="M 0,0 C -0.553,0 -1,0.448 -1,1 -1,1.552 -0.553,2 0,2 0.553,2 1,1.552 1,1 1,0.448 0.553,0 0,0 m -2,-2 c -0.553,0 -1,0.448 -1,1 0,0.552 0.447,1 1,1 0.553,0 1,-0.448 1,-1 0,-0.552 -0.447,-1 -1,-1 m 0,-8 c -0.553,0 -1,0.224 -1,0.5 0,0.276 0.447,0.5 1,0.5 0.553,0 1,-0.224 1,-0.5 0,-0.276 -0.447,-0.5 -1,-0.5 m -4,-4 c 0,2 4,2 4,2 -1,-2 -4,-2 -4,-2 m 1,5 c 0.553,0 1,-0.224 1,-0.5 0,-0.276 -0.447,-0.5 -1,-0.5 -0.553,0 -1,0.224 -1,0.5 0,0.276 0.447,0.5 1,0.5 M -5.5,5 C -5.224,5 -5,4.776 -5,4.5 -5,4.224 -5.224,4 -5.5,4 -5.776,4 -6,4.224 -6,4.5 -6,4.776 -5.776,5 -5.5,5 M -2,-5.5 C -2,-6.327 -2.673,-7 -3.5,-7 -4.327,-7 -5,-6.327 -5,-5.5 c 0,0.827 0.673,1.5 1.5,1.5 0.827,0 1.5,-0.673 1.5,-1.5 m -2,7.457 c 0.553,0 1,-0.448 1,-1 0,-0.552 -0.447,-1 -1,-1 -0.553,0 -1,0.448 -1,1 0,0.552 0.447,1 1,1 M -2,4 c 0.553,0 1,-0.448 1,-1 0,-0.552 -0.447,-1 -1,-1 -0.553,0 -1,0.448 -1,1 0,0.552 0.447,1 1,1 m -6,-16 -32,0 0,19 32,0 0,-19 z m -38,0 c 0,0 3,0 4,-2 0,0 -3,0 -4,2 m -1,3 c 0,0.553 0.896,1 2,1 1.104,0 2,-0.447 2,-1 0,-0.553 -0.896,-1 -2,-1 -1.104,0 -2,0.447 -2,1 m -1.252,9 -0.05,0.105 c -0.264,0.563 -0.264,1.227 0,1.79 l 0.05,0.105 1.41,0 0.773,-0.823 c 0.092,-0.098 0.092,-0.256 0,-0.354 L -46.842,0 l -1.41,0 z m 1.752,3.752 0.105,0.05 c 0.563,0.264 1.227,0.264 1.79,0 l 0.105,-0.05 0,-1.41 -0.823,-0.773 c -0.098,-0.092 -0.256,-0.092 -0.354,0 l -0.823,0.773 0,1.41 z m 0.105,-5.554 -0.105,0.05 0,1.41 0.823,0.773 c 0.098,0.092 0.256,0.092 0.354,0 l 0.823,-0.773 0,-1.41 -0.105,-0.05 c -0.563,-0.264 -1.227,-0.264 -1.79,0 M -44.5,-4 c 0.829,0 1.5,-0.672 1.5,-1.5 0,-0.828 -0.671,-1.5 -1.5,-1.5 -0.829,0 -1.5,0.672 -1.5,1.5 0,0.828 0.671,1.5 1.5,1.5 m 1.752,6 0.05,-0.105 c 0.264,-0.563 0.264,-1.227 0,-1.79 L -42.748,0 l -1.41,0 -0.773,0.823 c -0.092,0.098 -0.092,0.256 0,0.354 l 0.773,0.823 1.41,0 z M -0.725,6.231 C -3.518,9 -8,9 -8,9 l -32,0 c 0,0 -4.483,0 -7.276,-2.769 0,0 -3.724,-2.77 -3.724,-7.385 l 0,-2.836 c 0,-0.632 0.082,-1.26 0.243,-1.872 0.387,-1.467 1.237,-4.144 2.55,-5.446 0,0 0.931,-1.846 3.724,-2.769 C -41.689,-15 -39.828,-15 -39.828,-15 l 31.655,0 c 0,0 1.862,0 4.655,0.923 2.793,0.923 3.725,2.769 3.725,2.769 1.313,1.302 2.162,3.979 2.55,5.446 C 2.918,-5.25 3,-4.633 3,-4 l 0,3 c 0,4.615 -3.725,7.231 -3.725,7.231"
             style="fill:#f2f2f2;fill-opacity:1;fill-rule:nonzero;stroke:none"
             id="path5165"
             inkscape:connector-curvature="0" /></g></g></g></g></svg>