<?xml version="1.0" encoding="utf-8"?>
<!-- Generator: Adobe Illustrator 16.0.0, SVG Export Plug-In . SVG Version: 6.00 Build 0)  -->
<!DOCTYPE svg PUBLIC "-//W3C//DTD SVG 1.1//EN" "http://www.w3.org/Graphics/SVG/1.1/DTD/svg11.dtd">
<svg version="1.1" id="Calque_1" xmlns="http://www.w3.org/2000/svg" xmlns:xlink="http://www.w3.org/1999/xlink" x="0px" y="0px"
	 width="64px" height="64px" viewBox="0 0 64 64" enable-background="new 0 0 64 64" xml:space="preserve">
<path id="CD" fill="#F2F2F2" d="M32,8C18.744,8,8,18.745,8,32s10.744,24,24,24c13.252,0,24-10.745,24-24S45.252,8,32,8z M32,41.001
	c-4.964,0-9.001-4.038-9.001-9.001s4.037-9.001,9.001-9.001c4.963,0,9,4.038,9,9.001S36.963,41.001,32,41.001z M32,39.001
	c-3.86,0-7.001-3.143-7.001-7.001S28.14,24.999,32,24.999c3.856,0,7,3.143,7,7.001S35.856,39.001,32,39.001z M32,28.998
	c-1.654,0-3.002,1.346-3.002,3.002c0,1.655,1.348,3,3.002,3c1.655,0,3-1.345,3-3C35,30.344,33.655,28.998,32,28.998z"/>
</svg>
