<?xml version="1.0" encoding="UTF-8" standalone="no"?>
<!-- Created with Inkscape (http://www.inkscape.org/) -->

<svg
   xmlns:dc="http://purl.org/dc/elements/1.1/"
   xmlns:cc="http://creativecommons.org/ns#"
   xmlns:rdf="http://www.w3.org/1999/02/22-rdf-syntax-ns#"
   xmlns:svg="http://www.w3.org/2000/svg"
   xmlns="http://www.w3.org/2000/svg"
   xmlns:sodipodi="http://sodipodi.sourceforge.net/DTD/sodipodi-0.dtd"
   xmlns:inkscape="http://www.inkscape.org/namespaces/inkscape"
   id="svg3004"
   version="1.1"
   inkscape:version="0.48.5 r10040"
   width="64"
   height="64"
   xml:space="preserve"
   sodipodi:docname="Tiger - Game.com-content.svg"
   inkscape:export-filename="/Users/margetts/Desktop/Icon Workshop/Monochrome Plus June/png/Tiger - Game.com-content.png"
   inkscape:export-xdpi="360"
   inkscape:export-ydpi="360"><metadata
     id="metadata3010"><rdf:RDF><cc:Work
         rdf:about=""><dc:format>image/svg+xml</dc:format><dc:type
           rdf:resource="http://purl.org/dc/dcmitype/StillImage" /><dc:title></dc:title></cc:Work></rdf:RDF></metadata><defs
     id="defs3008"><clipPath
       clipPathUnits="userSpaceOnUse"
       id="clipPath3018"><path
         d="M 0,64 64,64 64,0 0,0 0,64 z"
         id="path3020"
         inkscape:connector-curvature="0" /></clipPath></defs><sodipodi:namedview
     pagecolor="#ffffff"
     bordercolor="#666666"
     borderopacity="1"
     objecttolerance="10"
     gridtolerance="10"
     guidetolerance="10"
     inkscape:pageopacity="0"
     inkscape:pageshadow="2"
     inkscape:window-width="1676"
     inkscape:window-height="1005"
     id="namedview3006"
     showgrid="false"
     inkscape:zoom="3.8"
     inkscape:cx="6.9736842"
     inkscape:cy="40"
     inkscape:window-x="4"
     inkscape:window-y="1"
     inkscape:window-maximized="1"
     inkscape:current-layer="g3012" /><g
     id="g3012"
     inkscape:groupmode="layer"
     inkscape:label="Tiger - Game.com-content"
     transform="matrix(1.25,0,0,-1.25,0,64)"><g
       id="g3014"
       transform="scale(0.8,0.8)"><g
         id="g3016"
         clip-path="url(#clipPath3018)"><g
           id="g3022"
           transform="translate(54,26)"><path
             d="m 0,0 -44,0 c -0.552,0 -1,0.447 -1,1 l 0,22 c 0,0.552 0.448,1 1,1 l 44,0 c 0.553,0 1,-0.448 1,-1 L 1,1 C 1,0.447 0.553,0 0,0"
             style="fill:#f2f2f2;fill-opacity:1;fill-rule:nonzero;stroke:none"
             id="path3024"
             inkscape:connector-curvature="0" /></g><g
           id="g3026"
           transform="translate(56,26)"><path
             d="m 0,0 c 0,-0.553 -0.447,-1 -1,-1 l -46,0 c -0.552,0 -1,0.447 -1,1 l 0,24 c 0,0.552 0.448,1 1,1 l 46,0 c 0.553,0 1,-0.448 1,-1 L 0,0 z m -24,-16 -5,5 11,0 -6,-5 z M 2.128,31.112 C -1.228,31.534 -13.638,33 -24,33 -34.363,33 -46.773,31.534 -50.128,31.112 -50.628,31.049 -51,30.625 -51,30.121 l 0,-46.902 c 0,-0.144 0.031,-0.287 0.092,-0.418 l 1.512,-3.286 c 0.159,-0.316 0.481,-0.515 0.833,-0.515 l 49.125,0 c 0.353,0 0.675,0.199 0.834,0.515 l 1.512,3.286 C 2.969,-17.068 3,-16.925 3,-16.781 l 0,46.902 c 0,0.504 -0.371,0.928 -0.872,0.991"
             style="fill:#f2f2f2;fill-opacity:1;fill-rule:nonzero;stroke:none"
             id="path3028"
             inkscape:connector-curvature="0" /></g></g></g></g></svg>