<?xml version="1.0" encoding="UTF-8" standalone="no"?>
<!-- Created with Inkscape (http://www.inkscape.org/) -->

<svg
   xmlns:dc="http://purl.org/dc/elements/1.1/"
   xmlns:cc="http://creativecommons.org/ns#"
   xmlns:rdf="http://www.w3.org/1999/02/22-rdf-syntax-ns#"
   xmlns:svg="http://www.w3.org/2000/svg"
   xmlns="http://www.w3.org/2000/svg"
   xmlns:sodipodi="http://sodipodi.sourceforge.net/DTD/sodipodi-0.dtd"
   xmlns:inkscape="http://www.inkscape.org/namespaces/inkscape"
   id="svg3235"
   version="1.1"
   inkscape:version="0.48.5 r10040"
   width="256"
   height="256"
   xml:space="preserve"
   sodipodi:docname="Tiger - Game.com-content.svg"
   inkscape:export-filename="/Volumes/Verbatim16/GitHub Projects/baxy-retroarch-themes/monochrome plus/contributions/svg/Tiger - Game.com-content.png"
   inkscape:export-xdpi="90.099998"
   inkscape:export-ydpi="90.099998"><metadata
     id="metadata3241"><rdf:RDF><cc:Work
         rdf:about=""><dc:format>image/svg+xml</dc:format><dc:type
           rdf:resource="http://purl.org/dc/dcmitype/StillImage" /><dc:title></dc:title></cc:Work></rdf:RDF></metadata><defs
     id="defs3239"><clipPath
       clipPathUnits="userSpaceOnUse"
       id="clipPath3249"><path
         d="M 0,256 256,256 256,0 0,0 0,256 z"
         id="path3251"
         inkscape:connector-curvature="0" /></clipPath></defs><sodipodi:namedview
     pagecolor="#ffffff"
     bordercolor="#666666"
     borderopacity="1"
     objecttolerance="10"
     gridtolerance="10"
     guidetolerance="10"
     inkscape:pageopacity="0"
     inkscape:pageshadow="2"
     inkscape:window-width="1676"
     inkscape:window-height="1005"
     id="namedview3237"
     showgrid="false"
     inkscape:zoom="2.61875"
     inkscape:cx="160"
     inkscape:cy="160"
     inkscape:window-x="4"
     inkscape:window-y="1"
     inkscape:window-maximized="1"
     inkscape:current-layer="g3243" /><g
     id="g3243"
     inkscape:groupmode="layer"
     inkscape:label="Tiger - Game.com-content"
     transform="matrix(1.25,0,0,-1.25,0,256)"><g
       id="g3245"
       transform="scale(0.8,0.8)"><g
         id="g3247"
         clip-path="url(#clipPath3249)"><g
           id="g3253"
           transform="translate(232,104)"><path
             d="m 0,0 c 0,-2.209 -1.791,-4 -4,-4 l -200,0 c -2.209,0 -4,1.791 -4,4 l 0,104 c 0,2.209 1.791,4 4,4 l 200,0 c 2.209,0 4,-1.791 4,-4 L 0,0 z m -104,-72 -24,24 48,0 -24,-24 z M 8.466,132.424 C -5.633,134.078 -59.259,140 -104,140 c -44.742,0 -98.367,-5.922 -112.466,-7.576 -2.015,-0.237 -3.534,-1.943 -3.534,-3.973 l 0,-8.451 0,-195.056 c 0,-0.621 0.145,-1.233 0.422,-1.789 l 6.473,-12.944 c 0.677,-1.355 2.062,-2.211 3.577,-2.211 l 211.056,0 c 1.515,0 2.9,0.856 3.577,2.211 l 6.473,12.944 c 0.277,0.556 0.422,1.168 0.422,1.789 L 12,120 l 0,8.451 c 0,2.03 -1.519,3.736 -3.534,3.973"
             style="fill:#f2f2f2;fill-opacity:1;fill-rule:nonzero;stroke:none"
             id="path3255"
             inkscape:connector-curvature="0" /></g><g
           id="g3257"
           transform="translate(224,208)"><path
             d="m 0,0 -16,0 -4,0 -172,0 c -2.209,0 -4,-1.791 -4,-4 l 0,-96 c 0,-2.209 1.791,-4 4,-4 l 172,0 4,0 16,0 c 2.209,0 4,1.791 4,4 L 4,-4 C 4,-1.791 2.209,0 0,0"
             style="fill:#f2f2f2;fill-opacity:1;fill-rule:nonzero;stroke:none"
             id="path3259"
             inkscape:connector-curvature="0" /></g></g></g></g></svg>