<?xml version="1.0" encoding="UTF-8" standalone="no"?>
<!-- Created with Inkscape (http://www.inkscape.org/) -->

<svg
   xmlns:dc="http://purl.org/dc/elements/1.1/"
   xmlns:cc="http://creativecommons.org/ns#"
   xmlns:rdf="http://www.w3.org/1999/02/22-rdf-syntax-ns#"
   xmlns:svg="http://www.w3.org/2000/svg"
   xmlns="http://www.w3.org/2000/svg"
   xmlns:sodipodi="http://sodipodi.sourceforge.net/DTD/sodipodi-0.dtd"
   xmlns:inkscape="http://www.inkscape.org/namespaces/inkscape"
   id="svg3004"
   version="1.1"
   inkscape:version="0.48.5 r10040"
   width="64"
   height="64"
   xml:space="preserve"
   sodipodi:docname="Tiger - Game.com.svg"
   inkscape:export-filename="/Users/margetts/Desktop/Icon Workshop/Monochrome Plus June/png/Tiger - Game.com.png"
   inkscape:export-xdpi="360"
   inkscape:export-ydpi="360"><metadata
     id="metadata3010"><rdf:RDF><cc:Work
         rdf:about=""><dc:format>image/svg+xml</dc:format><dc:type
           rdf:resource="http://purl.org/dc/dcmitype/StillImage" /><dc:title></dc:title></cc:Work></rdf:RDF></metadata><defs
     id="defs3008"><clipPath
       clipPathUnits="userSpaceOnUse"
       id="clipPath3018"><path
         d="M 0,64 64,64 64,0 0,0 0,64 z"
         id="path3020"
         inkscape:connector-curvature="0" /></clipPath></defs><sodipodi:namedview
     pagecolor="#ffffff"
     bordercolor="#666666"
     borderopacity="1"
     objecttolerance="10"
     gridtolerance="10"
     guidetolerance="10"
     inkscape:pageopacity="0"
     inkscape:pageshadow="2"
     inkscape:window-width="1676"
     inkscape:window-height="1005"
     id="namedview3006"
     showgrid="false"
     inkscape:zoom="3.8"
     inkscape:cx="6.9736842"
     inkscape:cy="40"
     inkscape:window-x="4"
     inkscape:window-y="1"
     inkscape:window-maximized="1"
     inkscape:current-layer="g3012" /><g
     id="g3012"
     inkscape:groupmode="layer"
     inkscape:label="Tiger - Game.com"
     transform="matrix(1.25,0,0,-1.25,0,64)"><g
       id="g3014"
       transform="matrix(0.8,0,0,0.8,0,-4e-5)"><g
         id="g3016"
         clip-path="url(#clipPath3018)"><g
           id="g3022"
           transform="translate(48.5,26)"><path
             d="M 0,0 -2,0 C -2.275,0 -2.5,0.225 -2.5,0.5 -2.5,0.775 -2.275,1 -2,1 L 0,1 C 0.275,1 0.5,0.775 0.5,0.5 0.5,0.225 0.275,0 0,0 m 4,0.5 -2,0 C 1.725,0.5 1.5,0.725 1.5,1 1.5,1.275 1.725,1.5 2,1.5 l 2,0 C 4.275,1.5 4.5,1.275 4.5,1 4.5,0.725 4.275,0.5 4,0.5 m 4,0.505 -2,0 c -0.275,0 -0.5,0.225 -0.5,0.5 0,0.275 0.225,0.5 0.5,0.5 l 2,0 c 0.275,0 0.5,-0.225 0.5,-0.5 C 8.5,1.23 8.275,1.005 8,1.005 M 2.622,10.909 C 2.295,11.67 2.648,12.552 3.409,12.878 4.171,13.205 5.052,12.852 5.378,12.091 5.705,11.33 5.352,10.448 4.591,10.122 3.829,9.795 2.948,10.148 2.622,10.909 M -0.409,9.122 c -0.762,-0.327 -1.643,0.026 -1.969,0.787 -0.327,0.761 0.026,1.643 0.787,1.969 0.762,0.327 1.643,-0.026 1.969,-0.787 C 0.705,10.33 0.352,9.448 -0.409,9.122 M 3.622,6.909 C 3.295,7.67 3.648,8.552 4.409,8.878 5.171,9.205 6.052,8.852 6.378,8.091 6.705,7.33 6.352,6.448 5.591,6.122 4.829,5.795 3.948,6.148 3.622,6.909 M 0.591,5.122 C -0.171,4.795 -1.052,5.148 -1.378,5.909 -1.705,6.67 -1.352,7.552 -0.591,7.878 0.171,8.205 1.052,7.852 1.378,7.091 1.705,6.33 1.352,5.448 0.591,5.122 M -1.5,17 c 0.553,0 1,-0.448 1,-1 0,-0.552 -0.447,-1 -1,-1 -0.553,0 -1,0.448 -1,1 0,0.552 0.447,1 1,1 m -3,-15.977 -25,0 0,15.977 25,0 0,-15.977 z M -35,2.5 c -2.209,0 -4,1.791 -4,4 0,2.209 1.791,4 4,4 2.209,0 4,-2.155 4,-4 0,-2.209 -1.791,-4 -4,-4 M 7.607,20.309 -11.566,21 l -9.867,0 -19.174,-0.691 c -1.598,0 -2.893,-1.295 -2.893,-2.893 l 0,-17.416 6,0 7,-1 27,0 8,1 6,0 0,17.416 c 0,1.598 -1.295,2.893 -2.893,2.893"
             style="fill:#f2f2f2;fill-opacity:1;fill-rule:nonzero;stroke:none"
             id="path3024"
             inkscape:connector-curvature="0" /></g><g
           id="g3026"
           transform="translate(31,22.5)"><path
             d="m 0,0 -4,0 c -0.552,0 -1,-0.447 -1,-1 0,-0.553 0.448,-1 1,-1 l 4,0 c 0.552,0 1,0.447 1,1 0,0.553 -0.448,1 -1,1"
             style="fill:#f2f2f2;fill-opacity:1;fill-rule:nonzero;stroke:none"
             id="path3028"
             inkscape:connector-curvature="0" /></g><g
           id="g3030"
           transform="translate(48,21.4521)"><path
             d="m 0,0 c 0,-0.257 -0.178,-0.472 -0.412,-0.497 l -3.245,-0.356 -5.486,-0.599 -13.714,0 0,0 -8.731,0.955 C -31.822,-0.472 -32,-0.257 -32,0 l 0,0.096 c 0,0.257 0.178,0.471 0.412,0.497 l 8.731,0.955 0,0 13.714,0 5.486,-0.6 3.245,-0.355 C -0.178,0.567 0,0.353 0,0.096 L 0,0 z m 5,3.548 -8,-1 -27,0 -7,1 -6,0 0,-6 c 0,-1.598 1.402,-2 3,-2 l 48.107,0 c 1.598,0 2.893,0.402 2.893,2 l 0,6"
             style="fill:#f2f2f2;fill-opacity:1;fill-rule:nonzero;stroke:none"
             id="path3032"
             inkscape:connector-curvature="0" /></g><path
           d="m 41,27.987 -19,0 0,14.013 19,0 0,-14.013 z"
           style="fill:#f2f2f2;fill-opacity:1;fill-rule:nonzero;stroke:none"
           id="path3034"
           inkscape:connector-curvature="0" /><g
           id="g3036"
           transform="translate(11,33)"><path
             d="M 0,0 z"
             style="fill:#f2f2f2;fill-opacity:1;fill-rule:nonzero;stroke:none"
             id="path3038"
             inkscape:connector-curvature="0" /></g><g
           id="g3040"
           transform="translate(17,33.5)"><path
             d="m 0,0 -1.5,0 c -0.552,0 -1,0.448 -1,1 l 0,1.5 -2,0 0,-1.5 c 0,-0.552 -0.448,-1 -1,-1 l -1.5,0 0,-2 1.5,0 c 0.552,0 1,-0.448 1,-1 l 0,-1.5 2,0 0,1.5 c 0,0.552 0.448,1 1,1 L 0,-2 0,0 z"
             style="fill:#f2f2f2;fill-opacity:1;fill-rule:nonzero;stroke:none"
             id="path3042"
             inkscape:connector-curvature="0" /></g></g></g></g></svg>