<?xml version="1.0" encoding="UTF-8" standalone="no"?>
<!-- Created with Inkscape (http://www.inkscape.org/) -->

<svg
   xmlns:dc="http://purl.org/dc/elements/1.1/"
   xmlns:cc="http://creativecommons.org/ns#"
   xmlns:rdf="http://www.w3.org/1999/02/22-rdf-syntax-ns#"
   xmlns:svg="http://www.w3.org/2000/svg"
   xmlns="http://www.w3.org/2000/svg"
   xmlns:sodipodi="http://sodipodi.sourceforge.net/DTD/sodipodi-0.dtd"
   xmlns:inkscape="http://www.inkscape.org/namespaces/inkscape"
   id="svg6300"
   version="1.1"
   inkscape:version="0.48.5 r10040"
   width="64"
   height="64"
   xml:space="preserve"
   sodipodi:docname="VTech - V.Smile-content.svg"
   inkscape:export-filename="/Users/margetts/Desktop/Icon Workshop/Monochrome July/VTech - V.Smile-content.png"
   inkscape:export-xdpi="360"
   inkscape:export-ydpi="360"><metadata
     id="metadata6306"><rdf:RDF><cc:Work
         rdf:about=""><dc:format>image/svg+xml</dc:format><dc:type
           rdf:resource="http://purl.org/dc/dcmitype/StillImage" /><dc:title></dc:title></cc:Work></rdf:RDF></metadata><defs
     id="defs6304"><clipPath
       clipPathUnits="userSpaceOnUse"
       id="clipPath6314"><path
         d="M 0,64 64,64 64,0 0,0 0,64 z"
         id="path6316"
         inkscape:connector-curvature="0" /></clipPath></defs><sodipodi:namedview
     pagecolor="#ffffff"
     bordercolor="#666666"
     borderopacity="1"
     objecttolerance="10"
     gridtolerance="10"
     guidetolerance="10"
     inkscape:pageopacity="0"
     inkscape:pageshadow="2"
     inkscape:window-width="1651"
     inkscape:window-height="1012"
     id="namedview6302"
     showgrid="false"
     inkscape:zoom="9.9625"
     inkscape:cx="27.40276"
     inkscape:cy="48.030113"
     inkscape:window-x="0"
     inkscape:window-y="0"
     inkscape:window-maximized="0"
     inkscape:current-layer="g6308" /><g
     id="g6308"
     inkscape:groupmode="layer"
     inkscape:label="VTech - V.Smile-content"
     transform="matrix(1.25,0,0,-1.25,0,64)"><g
       id="g6310"
       transform="matrix(0.8,0,0,0.8,0,-8e-5)"><g
         id="g6312"
         clip-path="url(#clipPath6314)"><g
           id="g6318"
           transform="translate(57,27.8271)"><path
             d="m 0,0 c 0,-2.666 -2.152,-4.827 -4.808,-4.827 l -40.384,0 C -47.848,-4.827 -50,-2.666 -50,0 l 0,22.208 c 0,0.533 0.431,0.965 0.961,0.965 l 48.077,0 C -0.431,23.173 0,22.741 0,22.208 L 0,0 z m -7,31.173 c -6.75,0 -4.5,-2.06 -9.321,-2.06 -4.822,0 -3.858,2.06 -8.679,2.06 -4.821,0 -3.857,-2.06 -8.679,-2.06 -4.821,0 -3.571,2.06 -10.321,2.06 -5.564,0 -8,-7 -8,-7 l 0,-39 4,0 0,-8 46,0 0,8 4,0 0,39 c -0.645,2.776 -3.436,7 -9,7"
             style="fill:#f2f2f2;fill-opacity:1;fill-rule:nonzero;stroke:none"
             id="path6320"
             inkscape:connector-curvature="0" /></g><g
           id="g6322"
           transform="translate(56,50)"><path
             d="M 0,0 0,-22.148 C 0,-24.272 -1.723,-26 -3.84,-26 l -40.32,0 c -2.117,0 -3.84,1.728 -3.84,3.852 L -48,0 0,0"
             style="fill:#f2f2f2;fill-opacity:1;fill-rule:nonzero;stroke:none"
             id="path6324"
             inkscape:connector-curvature="0" /></g></g></g></g></svg>