<?xml version="1.0" encoding="UTF-8" standalone="no"?>
<!-- Created with Inkscape (http://www.inkscape.org/) -->

<svg
   xmlns:dc="http://purl.org/dc/elements/1.1/"
   xmlns:cc="http://creativecommons.org/ns#"
   xmlns:rdf="http://www.w3.org/1999/02/22-rdf-syntax-ns#"
   xmlns:svg="http://www.w3.org/2000/svg"
   xmlns="http://www.w3.org/2000/svg"
   xmlns:sodipodi="http://sodipodi.sourceforge.net/DTD/sodipodi-0.dtd"
   xmlns:inkscape="http://www.inkscape.org/namespaces/inkscape"
   id="svg6240"
   version="1.1"
   inkscape:version="0.48.5 r10040"
   width="64"
   height="64"
   xml:space="preserve"
   sodipodi:docname="VTech - V.Smile.svg"
   inkscape:export-filename="/Users/margetts/Desktop/Icon Workshop/Monochrome July/VTech - V.Smile.png"
   inkscape:export-xdpi="360"
   inkscape:export-ydpi="360"><metadata
     id="metadata6246"><rdf:RDF><cc:Work
         rdf:about=""><dc:format>image/svg+xml</dc:format><dc:type
           rdf:resource="http://purl.org/dc/dcmitype/StillImage" /><dc:title></dc:title></cc:Work></rdf:RDF></metadata><defs
     id="defs6244"><clipPath
       clipPathUnits="userSpaceOnUse"
       id="clipPath6254"><path
         d="M 0,64 64,64 64,0 0,0 0,64 z"
         id="path6256"
         inkscape:connector-curvature="0" /></clipPath></defs><sodipodi:namedview
     pagecolor="#ffffff"
     bordercolor="#666666"
     borderopacity="1"
     objecttolerance="10"
     gridtolerance="10"
     guidetolerance="10"
     inkscape:pageopacity="0"
     inkscape:pageshadow="2"
     inkscape:window-width="1546"
     inkscape:window-height="973"
     id="namedview6242"
     showgrid="false"
     inkscape:zoom="10.4375"
     inkscape:cx="27.976048"
     inkscape:cy="40"
     inkscape:window-x="0"
     inkscape:window-y="0"
     inkscape:window-maximized="0"
     inkscape:current-layer="g6248" /><g
     id="g6248"
     inkscape:groupmode="layer"
     inkscape:label="VTech - V.Smile"
     transform="matrix(1.25,0,0,-1.25,0,64)"><g
       id="g6250"
       transform="matrix(0.80000535,0,0,0.80000535,-3.1557447e-4,-1.712e-4)"><g
         id="g6252"
         clip-path="url(#clipPath6254)"><g
           id="g6258"
           transform="translate(54.5,37)"><path
             d="M 0,0 C -1.933,0 -3.5,1.567 -3.5,3.5 -3.5,5.433 -1.933,7 0,7 1.933,7 3.5,5.433 3.5,3.5 3.5,1.567 1.933,0 0,0 M -1.726,-14.652 C -3.848,-17.314 -6.991,-19 -10.5,-19 c -3.509,0 -6.652,1.686 -8.774,4.348 -0.517,0.647 -0.088,1.652 0.704,1.652 l 16.14,0 c 0.792,0 1.221,-1.005 0.704,-1.652 M -22,0 c -1.933,0 -3.5,1.567 -3.5,3.5 0,1.933 1.567,3.5 3.5,3.5 1.933,0 3.5,-1.567 3.5,-3.5 C -18.5,1.567 -20.067,0 -22,0 m 7,10.5 c 1.933,0 3.5,-1.567 3.5,-3.5 0,-1.933 -1.567,-3.5 -3.5,-3.5 -1.933,0 -3.5,1.567 -3.5,3.5 0,1.933 1.567,3.5 3.5,3.5 M -10.5,3 C -9.345,3 -8.232,2.82 -7.187,2.489 -6.775,2.358 -6.5,1.97 -6.5,1.538 L -6.5,1 c 0,-0.552 -0.447,-1 -1,-1 l -6,0 c -0.553,0 -1,0.448 -1,1 l 0,0.538 c 0,0.432 0.275,0.82 0.687,0.951 C -12.768,2.82 -11.655,3 -10.5,3 m 6,-3 c -0.553,0 -1,0.448 -1,1 0,0.552 0.447,1 1,1 0.553,0 1,-0.448 1,-1 0,-0.552 -0.447,-1 -1,-1 m -13,1 c 0,0.552 0.447,1 1,1 0.553,0 1,-0.448 1,-1 0,-0.552 -0.447,-1 -1,-1 -0.553,0 -1,0.448 -1,1 m 14,-3 c 0.553,0 1,-0.448 1,-1 l 0,-8 c 0,-0.553 -0.447,-1 -1,-1 l -14,0 c -0.553,0 -1,0.447 -1,1 l 0,8 c 0,0.552 0.447,1 1,1 l 14,0 z M -7,10.5 c 1.933,0 3.5,-1.567 3.5,-3.5 0,-1.933 -1.567,-3.5 -3.5,-3.5 -1.933,0 -3.5,1.567 -3.5,3.5 0,1.933 1.567,3.5 3.5,3.5 M -37.5,-13 c -3.866,0 -7,3.134 -7,7 0,3.866 3.134,7 7,7 3.866,0 7,-3.134 7,-7 0,-3.866 -3.134,-7 -7,-7 m 42,16.486 c 0,2.859 -2.317,5.185 -5.167,5.185 -0.63,0 -1.246,-0.114 -1.825,-0.335 -0.798,1.868 -2.662,3.164 -4.75,3.164 -1.448,0 -2.796,-0.602 -3.758,-1.63 -0.962,1.028 -2.31,1.63 -3.758,1.63 -2.088,0 -3.952,-1.296 -4.75,-3.164 -0.579,0.221 -1.195,0.335 -1.825,0.335 -2.849,0 -5.167,-2.326 -5.167,-5.185 0,-0.911 0.244,-1.762 0.657,-2.507 -0.448,0.075 -0.86,0.3 -1.141,0.662 -2.415,3.105 -6.266,5.048 -10.564,4.844 -6.462,-0.307 -11.693,-5.561 -11.942,-11.99 -0.277,-7.129 5.452,-12.995 12.559,-12.995 4.046,0 7.645,1.902 9.944,4.855 0.349,0.449 0.896,0.701 1.466,0.701 l 0.693,0 c 2.554,-5.072 7.78,-8.556 13.828,-8.556 8.561,0 15.5,6.965 15.5,15.557 0,2.157 -0.438,4.211 -1.229,6.078 C 4.037,1.04 4.5,2.209 4.5,3.486"
             style="fill:#f2f2f2;fill-opacity:1;fill-rule:nonzero;stroke:none"
             id="path6260"
             inkscape:connector-curvature="0" /></g></g></g></g></svg>