<?xml version="1.0" encoding="UTF-8" standalone="no"?>
<!-- Created with Inkscape (http://www.inkscape.org/) -->

<svg
   xmlns:dc="http://purl.org/dc/elements/1.1/"
   xmlns:cc="http://creativecommons.org/ns#"
   xmlns:rdf="http://www.w3.org/1999/02/22-rdf-syntax-ns#"
   xmlns:svg="http://www.w3.org/2000/svg"
   xmlns="http://www.w3.org/2000/svg"
   xmlns:sodipodi="http://sodipodi.sourceforge.net/DTD/sodipodi-0.dtd"
   xmlns:inkscape="http://www.inkscape.org/namespaces/inkscape"
   id="svg6066"
   version="1.1"
   inkscape:version="0.48.5 r10040"
   width="64"
   height="64"
   xml:space="preserve"
   sodipodi:docname="VTech - CreatiVision.svg"
   inkscape:export-filename="/Users/margetts/Desktop/Icon Workshop/Monochrome July/VTech - CreatiVision.png"
   inkscape:export-xdpi="360"
   inkscape:export-ydpi="360"><metadata
     id="metadata6072"><rdf:RDF><cc:Work
         rdf:about=""><dc:format>image/svg+xml</dc:format><dc:type
           rdf:resource="http://purl.org/dc/dcmitype/StillImage" /><dc:title></dc:title></cc:Work></rdf:RDF></metadata><defs
     id="defs6070"><clipPath
       clipPathUnits="userSpaceOnUse"
       id="clipPath6080"><path
         d="M 0,64 64,64 64,0 0,0 0,64 z"
         id="path6082"
         inkscape:connector-curvature="0" /></clipPath></defs><sodipodi:namedview
     pagecolor="#ffffff"
     bordercolor="#666666"
     borderopacity="1"
     objecttolerance="10"
     gridtolerance="10"
     guidetolerance="10"
     inkscape:pageopacity="0"
     inkscape:pageshadow="2"
     inkscape:window-width="1676"
     inkscape:window-height="1005"
     id="namedview6068"
     showgrid="false"
     inkscape:zoom="10.4375"
     inkscape:cx="27.976048"
     inkscape:cy="40"
     inkscape:window-x="4"
     inkscape:window-y="1"
     inkscape:window-maximized="1"
     inkscape:current-layer="g6074" /><g
     id="g6074"
     inkscape:groupmode="layer"
     inkscape:label="VTech - CreatiVision"
     transform="matrix(1.25,0,0,-1.25,0,64)"><g
       id="g6076"
       transform="scale(0.8,0.8)"><g
         id="g6078"
         clip-path="url(#clipPath6080)"><g
           id="g6084"
           transform="translate(42,6)"><path
             d="m 0,0 -20,0 0,32.547 c 0,0.499 0.389,0.452 0.87,0.452 l 18.261,0 C -0.39,32.999 0,33.046 0,32.547 L 0,0 z M -10.001,49 C -6.135,49 -3,45.866 -3,42 c 0,-3.866 -3.135,-7 -7.001,-7 -3.866,0 -6.999,3.134 -6.999,7 0,3.866 3.133,7 6.999,7 m 12.537,4 -25.072,0 C -22.792,53 -23,52.792 -23,52.535 l 0,-53.069 C -23,-0.792 -22.792,-1 -22.536,-1 L 2.536,-1 C 2.792,-1 3,-0.792 3,-0.534 L 3,52.535 C 3,52.792 2.792,53 2.536,53"
             style="fill:#f2f2f2;fill-opacity:1;fill-rule:nonzero;stroke:none"
             id="path6086"
             inkscape:connector-curvature="0" /></g><g
           id="g6088"
           transform="translate(32,54)"><path
             d="m 0,0 c 3.313,0 6,-2.687 6,-6 0,-3.313 -2.687,-6 -6,-6 -3.313,0 -6,2.687 -6,6 0,3.313 2.687,6 6,6"
             style="fill:#f2f2f2;fill-opacity:1;fill-rule:nonzero;stroke:none"
             id="path6090"
             inkscape:connector-curvature="0" /></g><path
           d="m 26,33 -3,0 0,4 3,0 0,-4 z"
           style="fill:#f2f2f2;fill-opacity:1;fill-rule:nonzero;stroke:none"
           id="path6092"
           inkscape:connector-curvature="0" /><path
           d="m 31,33 -3,0 0,4 3,0 0,-4 z"
           style="fill:#f2f2f2;fill-opacity:1;fill-rule:nonzero;stroke:none"
           id="path6094"
           inkscape:connector-curvature="0" /><path
           d="m 36,33 -3,0 0,4 3,0 0,-4 z"
           style="fill:#f2f2f2;fill-opacity:1;fill-rule:nonzero;stroke:none"
           id="path6096"
           inkscape:connector-curvature="0" /><path
           d="m 41,33 -3,0 0,4 3,0 0,-4 z"
           style="fill:#f2f2f2;fill-opacity:1;fill-rule:nonzero;stroke:none"
           id="path6098"
           inkscape:connector-curvature="0" /><path
           d="m 26,28 -3,0 0,4 3,0 0,-4 z"
           style="fill:#f2f2f2;fill-opacity:1;fill-rule:nonzero;stroke:none"
           id="path6100"
           inkscape:connector-curvature="0" /><path
           d="m 31,28 -3,0 0,4 3,0 0,-4 z"
           style="fill:#f2f2f2;fill-opacity:1;fill-rule:nonzero;stroke:none"
           id="path6102"
           inkscape:connector-curvature="0" /><path
           d="m 36,28 -3,0 0,4 3,0 0,-4 z"
           style="fill:#f2f2f2;fill-opacity:1;fill-rule:nonzero;stroke:none"
           id="path6104"
           inkscape:connector-curvature="0" /><path
           d="m 41,28 -3,0 0,4 3,0 0,-4 z"
           style="fill:#f2f2f2;fill-opacity:1;fill-rule:nonzero;stroke:none"
           id="path6106"
           inkscape:connector-curvature="0" /><path
           d="m 26,23 -3,0 0,4 3,0 0,-4 z"
           style="fill:#f2f2f2;fill-opacity:1;fill-rule:nonzero;stroke:none"
           id="path6108"
           inkscape:connector-curvature="0" /><path
           d="m 31,23 -3,0 0,4 3,0 0,-4 z"
           style="fill:#f2f2f2;fill-opacity:1;fill-rule:nonzero;stroke:none"
           id="path6110"
           inkscape:connector-curvature="0" /><path
           d="m 36,23 -3,0 0,4 3,0 0,-4 z"
           style="fill:#f2f2f2;fill-opacity:1;fill-rule:nonzero;stroke:none"
           id="path6112"
           inkscape:connector-curvature="0" /><path
           d="m 41,23 -3,0 0,4 3,0 0,-4 z"
           style="fill:#f2f2f2;fill-opacity:1;fill-rule:nonzero;stroke:none"
           id="path6114"
           inkscape:connector-curvature="0" /><path
           d="m 26,18 -3,0 0,4 3,0 0,-4 z"
           style="fill:#f2f2f2;fill-opacity:1;fill-rule:nonzero;stroke:none"
           id="path6116"
           inkscape:connector-curvature="0" /><path
           d="m 31,18 -3,0 0,4 3,0 0,-4 z"
           style="fill:#f2f2f2;fill-opacity:1;fill-rule:nonzero;stroke:none"
           id="path6118"
           inkscape:connector-curvature="0" /><path
           d="m 36,18 -3,0 0,4 3,0 0,-4 z"
           style="fill:#f2f2f2;fill-opacity:1;fill-rule:nonzero;stroke:none"
           id="path6120"
           inkscape:connector-curvature="0" /><path
           d="m 41,18 -3,0 0,4 3,0 0,-4 z"
           style="fill:#f2f2f2;fill-opacity:1;fill-rule:nonzero;stroke:none"
           id="path6122"
           inkscape:connector-curvature="0" /><path
           d="m 26,13 -3,0 0,4 3,0 0,-4 z"
           style="fill:#f2f2f2;fill-opacity:1;fill-rule:nonzero;stroke:none"
           id="path6124"
           inkscape:connector-curvature="0" /><path
           d="m 31,13 -3,0 0,4 3,0 0,-4 z"
           style="fill:#f2f2f2;fill-opacity:1;fill-rule:nonzero;stroke:none"
           id="path6126"
           inkscape:connector-curvature="0" /><path
           d="m 36,13 -3,0 0,4 3,0 0,-4 z"
           style="fill:#f2f2f2;fill-opacity:1;fill-rule:nonzero;stroke:none"
           id="path6128"
           inkscape:connector-curvature="0" /><path
           d="m 41,13 -3,0 0,4 3,0 0,-4 z"
           style="fill:#f2f2f2;fill-opacity:1;fill-rule:nonzero;stroke:none"
           id="path6130"
           inkscape:connector-curvature="0" /><path
           d="m 26,8 -3,0 0,4 3,0 0,-4 z"
           style="fill:#f2f2f2;fill-opacity:1;fill-rule:nonzero;stroke:none"
           id="path6132"
           inkscape:connector-curvature="0" /><path
           d="m 31,8 -3,0 0,4 3,0 0,-4 z"
           style="fill:#f2f2f2;fill-opacity:1;fill-rule:nonzero;stroke:none"
           id="path6134"
           inkscape:connector-curvature="0" /><path
           d="m 36,8 -3,0 0,4 3,0 0,-4 z"
           style="fill:#f2f2f2;fill-opacity:1;fill-rule:nonzero;stroke:none"
           id="path6136"
           inkscape:connector-curvature="0" /><path
           d="m 41,8 -3,0 0,4 3,0 0,-4 z"
           style="fill:#f2f2f2;fill-opacity:1;fill-rule:nonzero;stroke:none"
           id="path6138"
           inkscape:connector-curvature="0" /></g></g></g></svg>