<?xml version="1.0" encoding="UTF-8" standalone="no"?>
<!-- Created with Inkscape (http://www.inkscape.org/) -->

<svg
   xmlns:dc="http://purl.org/dc/elements/1.1/"
   xmlns:cc="http://creativecommons.org/ns#"
   xmlns:rdf="http://www.w3.org/1999/02/22-rdf-syntax-ns#"
   xmlns:svg="http://www.w3.org/2000/svg"
   xmlns="http://www.w3.org/2000/svg"
   xmlns:sodipodi="http://sodipodi.sourceforge.net/DTD/sodipodi-0.dtd"
   xmlns:inkscape="http://www.inkscape.org/namespaces/inkscape"
   id="svg6462"
   version="1.1"
   inkscape:version="0.48.5 r10040"
   width="64"
   height="64"
   xml:space="preserve"
   sodipodi:docname="Watara - Supervision-content.svg"
   inkscape:export-filename="/Users/margetts/Desktop/Icon Workshop/Monochrome July/SVG/Watara - Supervision-content.png"
   inkscape:export-xdpi="360"
   inkscape:export-ydpi="360"><metadata
     id="metadata6468"><rdf:RDF><cc:Work
         rdf:about=""><dc:format>image/svg+xml</dc:format><dc:type
           rdf:resource="http://purl.org/dc/dcmitype/StillImage" /><dc:title></dc:title></cc:Work></rdf:RDF></metadata><defs
     id="defs6466"><clipPath
       clipPathUnits="userSpaceOnUse"
       id="clipPath6476"><path
         d="M 0,64 64,64 64,0 0,0 0,64 z"
         id="path6478"
         inkscape:connector-curvature="0" /></clipPath></defs><sodipodi:namedview
     pagecolor="#ffffff"
     bordercolor="#666666"
     borderopacity="1"
     objecttolerance="10"
     gridtolerance="10"
     guidetolerance="10"
     inkscape:pageopacity="0"
     inkscape:pageshadow="2"
     inkscape:window-width="1651"
     inkscape:window-height="1012"
     id="namedview6464"
     showgrid="false"
     inkscape:zoom="10.45"
     inkscape:cx="27.990431"
     inkscape:cy="40"
     inkscape:window-x="4"
     inkscape:window-y="1"
     inkscape:window-maximized="1"
     inkscape:current-layer="g6470" /><g
     id="g6470"
     inkscape:groupmode="layer"
     inkscape:label="Watara - Supervision-content"
     transform="matrix(1.25,0,0,-1.25,0,64)"><g
       id="g6472"
       transform="scale(0.8,0.8)"><g
         id="g6474"
         clip-path="url(#clipPath6476)"><g
           id="g6480"
           transform="translate(54,18)"><path
             d="m 0,0 -44,0 c -0.552,0 -1,0.447 -1,1 l 0,26 c 0,0.552 0.448,1 1,1 l 44,0 c 0.553,0 1,-0.448 1,-1 L 1,1 C 1,0.447 0.553,0 0,0 m 5,-6 0,47 -54,0 0,-47 4,0 0,-2 -2,0 0,-5 50,0 0,5 -2,0 0,2 4,0 z"
             style="fill:#f2f2f2;fill-opacity:1;fill-rule:nonzero;stroke:none"
             id="path6482"
             inkscape:connector-curvature="0" /></g><g
           id="g6484"
           transform="translate(53,19)"><path
             d="m 0,0 -42,0 c -0.552,0 -1,0.447 -1,1 l 0,24 c 0,0.552 0.448,1 1,1 l 42,0 c 0.553,0 1,-0.448 1,-1 L 1,1 C 1,0.447 0.553,0 0,0"
             style="fill:#f2f2f2;fill-opacity:1;fill-rule:nonzero;stroke:none"
             id="path6486"
             inkscape:connector-curvature="0" /></g></g></g></g></svg>