<?xml version="1.0" encoding="utf-8"?>
<!-- Generator: Adobe Illustrator 16.0.0, SVG Export Plug-In . SVG Version: 6.00 Build 0)  -->
<!DOCTYPE svg PUBLIC "-//W3C//DTD SVG 1.1//EN" "http://www.w3.org/Graphics/SVG/1.1/DTD/svg11.dtd">
<svg version="1.1" id="Calque_1" xmlns="http://www.w3.org/2000/svg" xmlns:xlink="http://www.w3.org/1999/xlink" x="0px" y="0px"
	 width="64px" height="64px" viewBox="0 0 64 64" enable-background="new 0 0 64 64" xml:space="preserve">
<path id="zip_1_" fill="#F2F2F2" d="M44,14H20c-1.105,0-2,0.895-2,2v32c0,1.105,0.895,2,2,2h24c1.105,0,2-0.895,2-2V16
	C46,14.895,45.105,14,44,14z M42,46H22V34h20V46z M42,30H22V18h20V30z M24,20v8h16v-8H24z M34,24h-4v-2h4V24z M24,36v8h16v-8H24z
	 M34,40h-4v-2h4V40z"/>
</svg>
