<?xml version="1.0" encoding="utf-8"?>
<!-- Generator: Adobe Illustrator 16.0.3, SVG Export Plug-In . SVG Version: 6.00 Build 0)  -->
<!DOCTYPE svg PUBLIC "-//W3C//DTD SVG 1.1//EN" "http://www.w3.org/Graphics/SVG/1.1/DTD/svg11.dtd">
<svg version="1.1" id="Layer_1" xmlns="http://www.w3.org/2000/svg" xmlns:xlink="http://www.w3.org/1999/xlink" x="0px" y="0px"
	 width="566.929px" height="70.521px" viewBox="0 0 566.929 70.521" enable-background="new 0 0 566.929 70.521"
	 xml:space="preserve">
<g>
	<path d="M215.935,24.467c-2.663,0-4.929,0.934-6.792,2.797c-1.864,1.863-2.794,4.127-2.794,6.79c0,2.624,0.93,4.869,2.794,6.733
		c1.863,1.862,4.129,2.796,6.792,2.796c2.62,0,4.869-0.934,6.729-2.796c1.866-1.864,2.799-4.109,2.799-6.733
		c0-2.663-0.933-4.927-2.799-6.79C220.804,25.401,218.555,24.467,215.935,24.467z M398.414,1.085
		c-9.875-0.395-18.195,2.721-24.957,9.348c-6.766,6.628-10.148,14.906-10.148,24.836c0,8.848,2.601,16.494,7.802,22.939
		c6.582,8.156,15.899,12.232,27.946,12.232c12.013,0,21.31-4.272,27.894-12.824c4.97-6.445,7.454-13.911,7.454-22.396
		c0-9.931-3.332-18.201-9.997-24.812C417.741,3.798,409.078,0.69,398.414,1.085z M414.136,54.179
		c-1.606,4.621-3.859,7.982-6.754,10.085c-2.268,1.646-5.09,2.466-8.476,2.466c-5.027,0-8.938-1.907-11.73-5.721
		c-4.01-5.457-6.015-13.891-6.015-25.299c0-9.602,1.297-16.965,3.895-22.093c3.188-6.248,7.838-9.373,13.95-9.373
		c3.317,0,6.249,0.906,8.799,2.713c2.545,1.81,4.64,4.907,6.282,9.295c1.642,4.391,2.466,11.007,2.466,19.851
		C416.553,43.535,415.746,49.56,414.136,54.179z M302.368,40.899h-32.546v1.736h1.724c1.606,0,2.976,0.318,4.105,0.948
		c1.135,0.63,1.879,1.336,2.24,2.115c0.36,0.78,0.541,2.499,0.541,5.153v13.935c-1.77,0.659-3.498,1.161-5.187,1.504
		c-1.689,0.348-3.337,0.52-4.942,0.52c-4.622,0-8.613-1.136-11.975-3.405c-3.36-2.268-5.792-5.821-7.302-10.655
		c-1.509-4.834-2.261-10.458-2.261-16.872c0-5.296,0.692-10.457,2.076-15.49c1.381-5.031,3.739-8.954,7.064-11.765
		c3.327-2.812,7.492-4.219,12.5-4.219c5.236,0,10.06,1.678,14.473,5.036c4.416,3.357,7.725,8.263,9.934,14.713h1.736V0.532h-1.736
		c-0.659,1.899-1.386,3.191-2.176,3.873c-0.791,0.684-1.646,1.025-2.569,1.025c-0.591,0-2.513-0.618-5.758-1.854
		c-3.247-1.238-5.591-1.988-7.041-2.252c-2.671-0.526-5.667-0.791-8.995-0.791c-10.741,0-19.651,3.468-26.734,10.401
		c-7.085,6.933-10.624,15.427-10.624,25.481c0,5.617,1.151,10.696,3.455,15.231c1.807,3.514,4.315,6.676,7.524,9.487
		c3.206,2.809,6.91,5.077,11.103,6.802c4.194,1.724,9.469,2.586,15.818,2.586c4.967,0,9.761-0.482,14.382-1.443
		c4.622-0.966,9.072-2.394,13.351-4.291V50.852c0-2.456,0.149-3.999,0.444-4.632c0.523-1.194,1.268-2.048,2.235-2.563
		c0.969-0.513,2.683-0.853,5.141-1.021V40.899z M166.569,1.085c-9.876-0.395-18.196,2.721-24.958,9.348
		c-6.766,6.628-10.145,14.906-10.145,24.836c0,8.848,2.597,16.494,7.8,22.939c6.582,8.156,15.897,12.232,27.942,12.232
		c12.015,0,21.313-4.272,27.897-12.824c4.968-6.445,7.456-13.911,7.456-22.396c0-9.931-3.333-18.201-9.998-24.812
		C185.897,3.798,177.232,0.69,166.569,1.085z M182.291,54.179c-1.61,4.621-3.86,7.982-6.752,10.085
		c-2.268,1.646-5.093,2.466-8.476,2.466c-5.031,0-8.94-1.907-11.731-5.721c-4.011-5.457-6.015-13.891-6.015-25.299
		c0-9.602,1.295-16.965,3.893-22.093c3.189-6.248,7.838-9.373,13.949-9.373c3.319,0,6.25,0.906,8.799,2.713
		c2.548,1.81,4.639,4.907,6.283,9.295c1.645,4.391,2.466,11.007,2.466,19.851C184.708,43.535,183.901,49.56,182.291,54.179z
		 M350.628,60.968c-3.766,2.893-8.773,4.34-15.019,4.34h-3.998c-1.907,0-3.289-0.261-4.144-0.79
		c-0.854-0.526-1.439-1.202-1.751-2.022c-0.313-0.822-0.466-3.079-0.466-6.765v-18.86c3.189,0,5.626,0.421,7.305,1.259
		c1.681,0.84,3.153,2.479,4.419,4.916c1.268,2.437,2.098,5.567,2.493,9.386h1.896V17.357h-1.896
		c-0.526,5.202-1.743,9.136-3.653,11.801c-1.909,2.666-4.986,3.999-9.23,3.999h-1.333V5.904h6.872c5.066,0,8.525,0.297,10.368,0.889
		c3.158,0.989,5.603,2.538,7.329,4.646c1.73,2.107,3.07,5.583,4.026,10.424h1.896V2.033h-56.01v1.737h2.215
		c2.167,0,3.873,0.466,5.118,1.395c0.887,0.633,1.494,1.529,1.823,2.692c0.162,0.698,0.248,2.574,0.248,5.631v44.079
		c0,3.392-0.185,5.48-0.547,6.277c-0.455,1.13-1.111,1.928-1.969,2.394c-1.181,0.698-2.738,1.046-4.674,1.046h-2.215v1.737h57.817
		l3.009-21.279h-1.82C357.1,53.667,354.393,58.076,350.628,60.968z M118.786,60.968c-3.767,2.893-8.774,4.34-15.021,4.34h-3.996
		c-1.907,0-3.288-0.261-4.144-0.79c-0.856-0.526-1.438-1.202-1.751-2.022c-0.312-0.822-0.469-3.079-0.469-6.765v-18.86
		c3.192,0,5.631,0.421,7.308,1.259c1.679,0.84,3.153,2.479,4.419,4.916c1.265,2.437,2.098,5.567,2.496,9.386h1.894V17.357h-1.894
		c-0.53,5.202-1.747,9.136-3.655,11.801c-1.912,2.666-4.988,3.999-9.233,3.999h-1.334V5.904h6.874c5.07,0,8.523,0.297,10.367,0.889
		c3.163,0.989,5.604,2.538,7.334,4.646c1.728,2.107,3.068,5.583,4.022,10.424h1.896V2.033H46.922v1.737
		c3.734-0.065,6.395,0.863,7.984,2.783c1.155,1.424,1.733,4.158,1.733,8.198v28.722L23.738,2.033H0.003v1.737
		c2.042,0.069,3.606,0.388,4.691,0.958s2.335,1.763,3.752,3.575l1.428,1.773V57.33c0,3.603-0.723,6.152-2.173,7.652
		C6.254,66.484,3.686,67.25,0,67.284v1.737h23.778v-1.737h-1.581c-2.271,0-4.286-0.682-6.047-2.049
		c-1.761-1.368-2.64-4.005-2.64-7.905v-42.62l45.096,55.812h1.668v-55.77c0-3.179,0.271-5.423,0.812-6.731
		c0.544-1.309,1.299-2.253,2.266-2.832c0.971-0.58,2.868-1.052,5.69-1.417h1.063c2.165,0,3.873,0.466,5.119,1.395
		c0.889,0.633,1.496,1.529,1.822,2.692c0.163,0.698,0.246,2.574,0.246,5.631v44.079c0,3.392-0.182,5.48-0.54,6.277
		c-0.461,1.13-1.117,1.928-1.971,2.394c-1.18,0.698-2.741,1.046-4.676,1.046h-2.212v1.737h57.815l3.01-21.279h-1.818
		C125.253,53.667,122.547,58.076,118.786,60.968z M536.658,7.374c-2.166-0.937-5.761-1.389-10.783-1.359v49.376
		c0,2.538,0.12,4.095,0.362,4.668c0.238,0.574,0.645,1.014,1.217,1.313c0.813,0.453,1.984,0.678,3.52,0.678
		c5.021,0,8.854-1.719,11.504-5.162c3.607-4.653,5.413-12.488,5.413-22.277c0-7.884-1.235-14.182-3.699-18.893
		C542.235,12.032,539.724,8.702,536.658,7.374z M540.364,55.249c-2.14,2.782-5.208,4.131-9.391,4.131
		c-1.492,0-2.074-0.261-2.217-0.342c-0.021-0.011-0.026-0.015-0.04-0.021c-0.049-0.288-0.169-1.196-0.169-3.625V8.726
		c3.969,0.141,6.014,0.653,7.046,1.1c2.518,1.092,4.558,3.981,6.238,7.144c2.243,4.293,3.383,10.233,3.383,17.641
		C545.214,43.748,543.584,51.1,540.364,55.249z M562.349,16.192c-3.093-5.43-7.681-10.359-13.643-13.031
		c-4.791-2.14-11.105-3.154-18.773-3.154L502.274,0h-6.741l-0.316,2.309c-0.18,1.304-0.521,1.729-0.621,1.83
		c-0.223,0.223-0.391,0.273-0.597,0.277c-0.151-0.018-1.082-0.167-4.347-1.439C484.563,1.001,479.642,0,475.02,0
		c-6.285,0-12.3,1.574-17.88,4.681c-5.603,3.12-10.113,7.563-13.403,13.207c-3.289,5.636-4.957,11.692-4.957,17.997
		c0,5.989,1.509,11.712,4.483,17.01c3.004,5.355,7.333,9.521,12.864,12.377c5.441,2.811,11.724,4.233,18.665,4.233
		c5.319,0,10.067-0.889,14.114-2.645c4.032-1.75,7.939-4.583,11.613-8.424l0.74-0.775V44.082l-4.699,5.467
		c-3.318,3.86-6.465,6.589-9.356,8.112c-2.802,1.478-5.943,2.225-9.338,2.225c-4.063,0-7.371-0.974-9.822-2.894
		c-2.499-1.951-4.38-4.949-5.595-8.904c-1.299-4.229-1.956-9.012-1.956-14.213c0-5.199,0.887-9.967,2.639-14.175
		c1.285-3.107,3.265-5.548,6.045-7.469c2.76-1.903,5.705-2.83,9.003-2.83c3.973,0,7.435,1.255,10.584,3.839
		c3.132,2.569,5.318,6.385,6.498,11.342l0.489,2.054h6.522V6.878h2.242c1.522,0,2.323,0.283,2.727,0.521
		c0.674,0.398,0.85,0.699,0.891,0.793c0.049,0.162,0.297,2.604,0.297,6.357v40.408c0,3.365-0.156,4.448-0.219,4.744
		c-0.19,0.389-0.51,0.739-0.979,1.018c-0.295,0.178-1.041,0.473-2.717,0.473h-4.703v6.938h30.12c4.158,0,7.167-0.195,9.199-0.592
		c4.365-0.826,8.151-2.023,11.235-3.562c3.151-1.567,5.972-3.683,8.382-6.276c2.426-2.611,4.418-5.935,5.922-9.882
		c1.498-3.924,2.258-8.874,2.258-13.5C566.929,27.627,565.389,21.529,562.349,16.192z M499.601,23.963h-1.736
		c-1.326-5.563-3.794-9.826-7.405-12.789c-3.612-2.964-7.706-4.446-12.279-4.446c-3.822,0-7.33,1.101-10.52,3.302
		c-3.19,2.203-5.522,5.083-6.998,8.643c-1.896,4.556-2.844,9.621-2.844,15.201c0,5.49,0.692,10.489,2.076,14.999
		c1.384,4.509,3.552,7.916,6.502,10.225c2.949,2.31,6.773,3.46,11.47,3.46c3.85,0,7.377-0.843,10.585-2.531
		c3.205-1.69,6.583-4.602,10.137-8.735v5.297c-3.438,3.594-7.021,6.199-10.745,7.819c-3.723,1.614-8.074,2.424-13.051,2.424
		c-6.545,0-12.357-1.313-17.438-3.936c-5.082-2.625-9.003-6.395-11.761-11.313c-2.761-4.916-4.139-10.148-4.139-15.699
		c0-5.852,1.528-11.402,4.59-16.651c3.062-5.248,7.191-9.319,12.395-12.217c5.203-2.895,10.728-4.344,16.581-4.344
		c4.311,0,8.864,0.933,13.661,2.795c2.775,1.082,4.538,1.623,5.293,1.623c0.964,0,1.802-0.353,2.509-1.059
		c0.71-0.707,1.169-1.825,1.382-3.359h1.736V23.963z M562.173,46.866c-1.387,3.639-3.179,6.643-5.381,9.013
		c-2.201,2.369-4.741,4.272-7.618,5.704c-2.88,1.435-6.4,2.545-10.557,3.33c-1.844,0.361-4.736,0.542-8.685,0.542h-27.447v-1.591
		h2.03c1.773,0,3.135-0.282,4.082-0.847c0.946-0.563,1.646-1.333,2.098-2.307c0.271-0.638,0.406-2.558,0.406-5.754V14.548
		c0-3.165-0.165-6.583-0.495-7.375c-0.331-0.792-1-1.484-2.009-2.078c-1.006-0.594-2.367-0.891-4.082-0.891h-2.03V2.611h27.447
		c7.326,0,13.22,0.997,17.68,2.989c5.457,2.445,9.594,6.965,12.414,11.917c2.819,4.951,4.228,10.551,4.228,16.8
		C564.254,38.634,563.563,43.228,562.173,46.866z"/>
</g>
</svg>
