<?xml version="1.0" encoding="UTF-8" standalone="no"?>
<svg
   xmlns:dc="http://purl.org/dc/elements/1.1/"
   xmlns:cc="http://creativecommons.org/ns#"
   xmlns:rdf="http://www.w3.org/1999/02/22-rdf-syntax-ns#"
   xmlns:svg="http://www.w3.org/2000/svg"
   xmlns="http://www.w3.org/2000/svg"
   xmlns:sodipodi="http://sodipodi.sourceforge.net/DTD/sodipodi-0.dtd"
   xmlns:inkscape="http://www.inkscape.org/namespaces/inkscape"
   width="800pt"
   height="260pt"
   viewBox="0 0 800 260"
   version="1.1"
   id="svg2"
   inkscape:version="0.91 r"
   sodipodi:docname="daphne.svg">
  <metadata
     id="metadata506">
    <rdf:RDF>
      <cc:Work
         rdf:about="">
        <dc:format>image/svg+xml</dc:format>
        <dc:type
           rdf:resource="http://purl.org/dc/dcmitype/StillImage" />
        <dc:title></dc:title>
      </cc:Work>
    </rdf:RDF>
  </metadata>
  <defs
     id="defs504" />
  <sodipodi:namedview
     pagecolor="#57363a"
     bordercolor="#666666"
     borderopacity="1"
     objecttolerance="10"
     gridtolerance="10"
     guidetolerance="10"
     inkscape:pageopacity="0"
     inkscape:pageshadow="2"
     inkscape:window-width="1366"
     inkscape:window-height="716"
     id="namedview502"
     showgrid="false"
     inkscape:zoom="3.0320739"
     inkscape:cx="421.61837"
     inkscape:cy="126.89535"
     inkscape:window-x="0"
     inkscape:window-y="0"
     inkscape:window-maximized="1"
     inkscape:current-layer="svg2" />
  <path
     style="fill:#3c2014"
     d="m 124.04569,51.961081 c 28.95318,-3.541507 59.84878,-4.60526 87.60011,4.716171 1.57434,-0.975738 -58.36741,-6.828684 -18.92321,0.186484 26.94305,3.538777 20.85478,50.943314 28.60591,51.579574 10.61901,-15.269923 13.80099,-12.935421 1.44088,1.09545 -12.0782,12.03457 -3.32176,-23.625557 -12.22701,-30.896373 -0.94892,-29.955534 -53.84998,-19.517252 -59.31059,-25.480132 10.38545,2.38109 37.84758,-0.762348 11.89805,-2.103851 -12.64608,-0.356246 -29.93356,1.084557 -39.08414,0.902677 z"
     id="path6"
     inkscape:connector-curvature="0" />
  <path
     style="fill:#6c2b1e"
     d="m 158.65444,51.183108 c 15.98908,-2.634895 21.907,5.291831 3.16535,2.528411 -15.54391,-1.6495 -17.45625,1.882065 -12.86224,1.25473 -13.06124,-1.231645 -53.767195,2.076773 -19.12133,-1.119729 25.61198,-0.07386 2.00071,-5.012596 4.68555,-2.484721 7.95015,-2.25904 16.14321,1.736507 24.13267,-0.178691 z"
     id="path8"
     inkscape:connector-curvature="0" />
  <path
     style="fill:#741f20"
     d="m 176.64062,53.782451 c 21.26859,-3.307632 49.42827,2.849097 49.22914,25.551845 8.57192,10.306887 -1.75229,34.521664 -7.83617,29.295884 -0.068,-25.082694 -8.35928,-55.910362 -41.39297,-54.847729 z"
     id="path10"
     inkscape:connector-curvature="0" />
  <path
     style="fill:#9c9897"
     d="m 129.80741,52.958716 c 21.22074,-1.831447 18.93757,3.408345 0,0 z"
     id="path12"
     inkscape:connector-curvature="0" />
  <path
     style="fill:#d18c38"
     d="m 113.75141,56.747899 c 21.09944,-2.782238 55.88117,-4.339091 69.6222,3.085343 -27.04332,-4.875839 -51.86348,10.441361 -78.07289,4.041256 -15.206614,-0.771923 6.96539,-4.262443 8.45069,-7.126599 z"
     id="path14"
     inkscape:connector-curvature="0" />
  <path
     style="fill:#442718"
     d="M 75.205466,76.032462 C 81.904059,65.297213 132.97579,48.565171 99.836836,62.724558 82.631652,69.213513 70.635529,77.87999 87.698804,91.216651 c 2.474309,35.643419 8.131207,70.999159 11.216157,106.554759 41.206379,4.28354 81.395339,-18.75363 104.085549,-50.45837 3.83261,-12.75647 14.55756,-22.14767 4.12324,-4.98932 -15.301,27.41327 -44.81049,48.33827 -76.36113,55.51165 -11.73971,-1.79415 -48.230116,7.01523 -20.02477,6.39177 14.29976,-0.95297 34.98158,0.22435 8.62403,0.81831 C 87.892976,215.52799 97.367381,184.88063 93.775979,165.0527 88.862197,137.9877 92.223721,108.1102 81.06892,83.038074 78.708087,81.207677 74.846077,79.63144 75.205466,76.032462 Z"
     id="path16"
     inkscape:connector-curvature="0" />
  <path
     style="fill:#c37c29"
     d="m 164.8483,57.928587 c 14.70814,9.020756 24.5733,-7.927969 26.7548,6.526959 19.91246,15.713155 -27.76752,-5.412781 -16.60457,9.252151 -12.11201,10.042986 -15.2214,-12.140674 -26.0718,-13.390278 5.07248,-2.144792 12.14727,2.946966 15.92157,-2.388832 z"
     id="path18"
     inkscape:connector-curvature="0" />
  <path
     style="fill:#d79b31"
     d="m 187.31902,58.578422 c 23.88883,-4.181756 12.3063,25.903891 -2.36861,17.34049 -2.80839,10.168649 -17.75679,-4.249793 -16.90436,2.786113 3.11577,-9.388352 9.9133,-14.146258 24.13803,-7.055523 15.66754,-2.257588 -6.06806,-6.770375 -4.86506,-13.07108 z"
     id="path20"
     inkscape:connector-curvature="0" />
  <path
     style="fill:#a06138"
     d="m 130.66207,66.641877 c 12.65239,-11.527897 39.38733,0.380053 9.99059,-2.93799 l -4.98945,1.553085 -5.00114,1.384905 z"
     id="path22"
     inkscape:connector-curvature="0" />
  <path
     style="fill:#3b1b18"
     d="m 218.45154,60.939797 c 11.23957,8.483371 5.08689,27.038916 3.04291,3.672488 l -3.04291,-3.672488 z"
     id="path24"
     inkscape:connector-curvature="0" />
  <path
     style="fill:#dead38"
     d="m 93.940672,65.470342 c 9.012288,-5.512986 41.017678,-0.747858 15.257768,2.3179 -22.002642,6.77112 20.64184,15.364099 -1.3564,20.370291 -13.906225,-5.393875 -2.68773,29.217987 -11.815687,8.512327 8.306667,-14.698098 -0.82407,-19.185695 -2.085681,-31.200518 z"
     id="path26"
     inkscape:connector-curvature="0" />
  <path
     style="fill:#371b15"
     d="m 130.66207,66.641877 c 9.27027,-4.498438 29.72149,-4.980618 9.60407,2.396842 -24.72429,23.09358 0.16767,62.652831 -3.71382,92.475071 2.32172,10.52319 1.13158,39.43879 -12.3914,22.98633 -1.07636,-20.54131 -3.76135,-40.92367 -5.48324,-61.41406 -3.39658,-9.92059 -5.48723,-48.847613 -2.90072,-42.540204 2.98205,34.891394 7.5744,69.682624 10.82309,104.540024 18.55594,5.84361 5.11118,-34.48358 6.3451,-46.50901 1.83612,-23.03 -17.75955,-54.532156 5.82174,-70.928205 -8.71236,0.02822 -31.88276,12.395126 -12.28207,0.951872 l 4.17725,-1.95866 z"
     id="path28"
     inkscape:connector-curvature="0" />
  <path
     style="fill:#e8c25f"
     d="m 102.03589,75.602289 c 2.02169,-14.946111 38.95208,-10.172289 13.62649,0 -2.08162,8.448476 -8.19114,-0.492334 -13.62649,0 z"
     id="path32"
     inkscape:connector-curvature="0" />
  <path
     style="fill:#2a1c0e"
     d="m 152.99835,65.031017 c 15.76155,4.406543 -4.93912,5.860844 0,0 z"
     id="path34"
     inkscape:connector-curvature="0" />
  <path
     style="fill:#d69326"
     d="m 77.241275,77.011792 c 8.829568,-6.460566 16.798892,-16.567507 18.17824,-3.175958 11.896865,7.87396 -6.793813,24.85158 5.560065,34.102646 -19.609083,-3.79755 -0.05,-34.484572 -23.738305,-30.926688 z"
     id="path36"
     inkscape:connector-curvature="0" />
  <path
     style="fill:#e6b73e"
     d="m 195.83677,78.604346 c -3.92958,-16.438295 19.00336,-13.039976 10.98539,-3.923754 -26.43668,7.444051 25.25083,31.852208 1.01355,38.726428 -10.51432,16.86118 2.7585,-26.434342 -19.00904,-19.755773 -12.87193,13.248143 -31.01935,-30.389922 -6.91737,-13.279017 3.38563,-8.98005 7.01698,-3.492423 13.92747,-1.767884 z"
     id="path38"
     inkscape:connector-curvature="0" />
  <path
     style="fill:#721d1f"
     d="m 117.03559,74.320922 c 9.19991,-4.47744 31.70497,-10.747983 12.12843,0.860346 -4.90477,26.376572 4.29581,52.371502 6.03597,78.784332 2.56865,11.17468 -0.0361,50.69257 -9.82206,23.43038 -1.53584,-34.08433 -8.41426,-67.71681 -9.71555,-101.793691 l 1.37321,-1.281367 z"
     id="path40"
     inkscape:connector-curvature="0" />
  <path
     style="fill:#52351f"
     d="m 162.54361,71.035133 c 10.69642,8.776358 19.4189,44.560917 7.45543,14.909611 -1.91895,-5.190255 -3.87534,-10.504708 -7.45543,-14.909611 z"
     id="path42"
     inkscape:connector-curvature="0" />
  <path
     style="fill:#392219"
     d="m 369.83123,74.293465 c 28.07536,-7.140177 54.73627,4.871812 80.36735,4.947417 26.15164,-12.923088 14.19209,23.834298 14.68189,29.567098 -4.3841,-13.673789 10.02346,-38.426514 -15.48943,-28.071075 -21.32167,1.241513 -1.25077,38.886095 -8.56096,54.297895 1.50662,18.44971 -2.39692,49.84349 -4.78808,58.7947 32.41456,-0.90594 -28.23837,7.90004 -0.34594,-7.7731 5.18175,-32.07446 5.18042,-65.30272 3.15657,-97.603124 -3.51301,-17.786513 -62.82767,-17.42236 -29.00784,-9.19189 20.57735,3.378805 26.54674,21.055424 3.46334,25.736854 -8.96211,5.03664 -48.87233,23.26762 -18.42075,14.13232 12.10392,-4.56566 52.41939,-25.51889 22.31933,-8.11674 -13.64409,5.87987 -42.58437,23.57158 -46.6257,13.28496 6.8151,-8.3664 38.06239,-15.1309 52.78414,-27.316982 19.57623,-20.196717 -60.43292,-20.953483 -53.53392,-22.688333 z"
     id="path44"
     inkscape:connector-curvature="0" />
  <path
     style="fill:#8a8886"
     d="m 366.33579,75.007369 c 1.46429,-3.389222 5.6058,1.050417 0,0 z"
     id="path46"
     inkscape:connector-curvature="0" />
  <path
     style="fill:#702221"
     d="m 395.54773,74.165328 c 27.09159,-11.050066 66.06436,26.051252 23.75871,33.318952 -9.53221,8.92249 -56.32703,22.34331 -24.09928,6.71391 15.08066,-6.89334 53.97523,-21.844312 19.43108,-33.199291 -6.28636,-2.476718 -12.90856,-4.104366 -19.09051,-6.833571 z"
     id="path48"
     inkscape:connector-curvature="0" />
  <path
     style="fill:#e9ce60"
     d="m 199.19777,79.217571 c 16.87931,-21.615764 19.3609,42.236419 4.28753,11.255573 -1.63647,-3.656746 -4.63733,-7.001298 -4.28753,-11.255573 z"
     id="path50"
     inkscape:connector-curvature="0" />
  <path
     style="fill:#442b1b"
     d="m 333.35952,83.189807 c 10.51945,-9.870303 51.17823,-6.732712 16.31528,-4.106093 -5.55854,0.851019 -11.10631,2.022255 -16.31528,4.106093 z"
     id="path52"
     inkscape:connector-curvature="0" />
  <path
     style="fill:#89583b"
     d="m 365.92286,75.895172 c 15.41585,-1.319673 31.83265,2.983 0,0 z"
     id="path54"
     inkscape:connector-curvature="0" />
  <path
     style="fill:#3d1f15"
     d="m 306.52909,77.515185 c 23.11088,-5.019017 -10.39764,18.122823 13.94577,9.739527 5.94432,-7.242486 12.63349,-10.201247 -3.23857,-8.604603 14.07814,-5.734755 14.25056,6.271632 5.72313,7.994596 -4.40488,9.653535 -25.04367,0.936513 -8.47915,-7.948833 -16.08783,-2.84593 -51.74177,4.1634 -55.69667,-0.869498 15.9112,-0.51257 31.8342,0.192236 47.74549,-0.311189 z"
     id="path56"
     inkscape:connector-curvature="0" />
  <path
     style="fill:#876346"
     d="m 333.35952,83.189807 c 13.4057,-5.499116 48.5144,-8.086881 16.09922,-2.376248 -8.16811,1.330372 -39.8411,12.594917 -16.09922,2.376248 z"
     id="path58"
     inkscape:connector-curvature="0" />
  <path
     style="fill:#ba8a5f"
     d="m 366.42221,76.755518 c 18.86495,4.485285 -9.17994,10.137983 -17.93567,5.301438 -36.13397,8.759607 6.12327,-3.284522 17.93567,-5.301438 z"
     id="path60"
     inkscape:connector-curvature="0" />
  <path
     style="fill:#cba466"
     d="m 369.77362,76.782976 c 19.38191,1.372952 49.70112,-0.575397 57.55002,18.085569 -7.38992,6.977725 -39.96195,19.117945 -30.48913,1.217298 1.7364,17.942647 32.10429,-8.137878 6.1751,-2.50982 -4.64344,-13.403694 -26.24257,-8.308356 -33.23599,-16.793047 z"
     id="path62"
     inkscape:connector-curvature="0" />
  <path
     style="fill:#ad6f4e"
     d="m 386.25215,76.663992 c 14.35883,-2.922549 24.10137,8.328536 4.8559,0.844758 l -4.8559,-0.844758 z"
     id="path64"
     inkscape:connector-curvature="0" />
  <path
     style="fill:#ae8251"
     d="m 113.29047,79.547065 c 3.5291,0.918637 1.56965,46.014385 0.25223,13.059068 -0.0754,-4.353059 -0.0519,-8.708524 -0.25223,-13.059068 z"
     id="path66"
     inkscape:connector-curvature="0" />
  <path
     style="fill:#3b1d18"
     d="m 468.71202,80.590464 c 24.96763,-20.104535 5.32086,54.542416 10.15264,13.067647 -0.48546,-8.907082 7.62173,-21.966134 -10.15264,-13.067647 z"
     id="path68"
     inkscape:connector-curvature="0" />
  <path
     style="fill:#311a11"
     d="m 507.00828,79.812491 c 13.07931,-3.955378 58.72085,-3.698616 32.16992,6.354776 1.46483,33.944763 -0.39836,68.096713 1.20007,102.094573 -5.36541,13.80954 21.46805,4.7367 10.04072,-6.96953 4.08407,-24.18762 -0.30021,-50.05422 6.47321,-73.24629 29.8025,-0.47442 7.48237,44.05881 11.81255,62.17656 2.59689,12.74682 0.0135,46.04574 -15.43943,24.88542 -32.67741,8.74839 -9.9805,-39.08331 -15.3633,-56.55998 -4.88153,-23.9582 15.84074,-71.194012 -25.64097,-59.842995 36.70747,-4.290881 4.95983,34.911455 11.71604,54.991865 -0.99781,19.95087 -1.85255,48.95203 3.67377,62.09184 -16.84397,-1.48843 7.57966,0.26951 -4.98624,-9.18929 -3.09981,-28.31922 0.88012,-56.89263 1.82089,-85.21423 12.07068,-18.93026 0.39634,-21.454352 -17.47723,-21.572719 z"
     id="path70"
     inkscape:connector-curvature="0" />
  <path
     style="fill:#8a4a2b"
     d="m 256.59415,81.459962 c 17.20694,-3.751957 43.63366,-4.529191 57.06027,-1.089161 -20.86064,-3.856313 -52.14616,2.701999 -66.28143,2.111966 3.07906,-0.90455 6.36824,1.070401 9.22116,-1.022805 z"
     id="path72"
     inkscape:connector-curvature="0" />
  <path
     style="fill:#741e1f"
     d="m 317.23629,78.650109 c 25.64418,-7.232247 -5.51548,18.842842 -7.16659,6.973435 2.09569,-2.662229 6.08665,-3.492469 7.16659,-6.973435 z"
     id="path74"
     inkscape:connector-curvature="0" />
  <path
     style="fill:#83603b"
     d="m 449.39104,80.736905 c 16.35651,-3.596572 23.38086,2.293657 4.29518,1.072573 -10.46094,2.615942 -21.10767,-0.93684 -4.29518,-1.072573 z"
     id="path76"
     inkscape:connector-curvature="0" />
  <path
     style="fill:#731e1f"
     d="m 468.71202,80.590464 c 22.42945,-14.482722 8.22319,50.456776 -3.01275,21.279406 -1.19952,-7.167546 -0.0749,-14.657653 3.01275,-21.279406 z"
     id="path78"
     inkscape:connector-curvature="0" />
  <path
     style="fill:#634f33"
     d="m 497.46302,86.786785 c -11.90845,-11.835218 25.62393,-6.512752 0.0672,-6.26039 7.81137,9.668455 4.75596,28.442525 2.21827,7.10243 0.69386,-1.535499 -2.68617,-3.800558 -2.28549,-0.84204 z"
     id="path80"
     inkscape:connector-curvature="0" />
  <path
     style="fill:#741f1f"
     d="m 512.26105,78.705025 c 41.48171,-11.351017 20.75944,35.884795 25.64097,59.842995 -2.18827,18.61384 -0.62125,54.84435 0.45624,60.68681 -13.38234,5.31735 -49.2664,-4.46946 -16.59036,-3.48615 17.10923,1.45067 -7.44331,-18.50986 1.6697,-30.36709 -1.42728,-28.79221 2.68865,-57.79523 7.15534,-85.230452 -6.0274,-1.525189 -12.49457,0.987757 -18.33189,-1.446113 z"
     id="path82"
     inkscape:connector-curvature="0" />
  <path
     style="fill:#8a8580"
     d="m 559.27672,79.473844 c 0.90341,-3.931443 7.56618,2.506972 0,0 z"
     id="path84"
     inkscape:connector-curvature="0" />
  <path
     style="fill:#cb8123"
     d="m 79.718816,79.711812 c 19.148813,-3.528124 6.71727,28.867538 21.228654,33.220848 5.77853,14.62485 -10.65138,47.72207 -7.995894,15.40958 -4.640762,-16.10965 2.021914,-36.515995 -13.23276,-48.630428 z"
     id="path86"
     inkscape:connector-curvature="0" />
  <path
     style="fill:#3b1a19"
     d="m 225.88416,79.364013 c 6.50118,10.928463 4.78945,23.809187 0.53131,4.360792 l -0.53131,-4.360792 z"
     id="path88"
     inkscape:connector-curvature="0" />
  <path
     style="fill:#c28341"
     d="m 245.93496,84.278968 c 20.04489,-3.551936 52.91992,-8.273757 65.8385,-2.150865 -10.35972,-4.305036 -40.74141,4.695895 -58.96284,3.075279 3.47296,13.725649 -8.5753,5.932146 -14.05981,8.428416 -4.30932,-5.399968 3.96569,-7.279214 7.18415,-9.35283 z"
     id="path90"
     inkscape:connector-curvature="0" />
  <path
     style="fill:#3a1f15"
     d="m 551.21031,81.450809 c 21.80495,-6.437072 41.77051,11.941599 65.61704,4.419999 17.40588,-8.54687 -3.38477,30.996892 11.5752,17.092082 12.15759,-4.508456 15.73865,-21.86141 -2.01135,-16.139495 36.48924,-11.297094 -9.2517,43.697845 -6.52035,8.905496 18.81892,-14.582037 -39.41016,-12.778772 -21.93896,0.346655 -2.42124,19.565324 -33.44777,-16.414692 -46.72158,-14.624737 z"
     id="path92"
     inkscape:connector-curvature="0" />
  <path
     style="fill:#3c2314"
     d="m 249.77611,82.237934 c 4.4688,-4.871714 9.77767,2.269753 0,0 z"
     id="path94"
     inkscape:connector-curvature="0" />
  <path
     style="fill:#d7b054"
     d="m 291.1933,83.8671 c 34.99728,-17.00025 5.27198,26.64382 13.40561,44.06985 0.2853,14.18614 -0.22977,31.69004 -1.0179,8.24593 -4.03273,-15.12636 12.81275,-64.91869 -16.94937,-46.094861 -10.38678,-8.088014 -52.43239,23.822671 -18.63528,21.544691 32.93151,-2.82212 -29.15564,7.93724 -19.4014,-5.10373 C 231.657,99.180707 285.71905,77.828026 291.1933,83.8671 Z"
     id="path96"
     inkscape:connector-curvature="0" />
  <path
     style="fill:#cdac5d"
     d="m 458.39853,81.286062 c 15.58823,-0.901857 0.65278,29.619708 -11.29189,23.203478 4.84168,3.95971 28.56799,4.796 13.23138,12.25719 0.95991,14.59786 -24.4472,4.57407 -9.26918,-2.63595 -14.03812,-0.19302 -10.5983,-44.762578 -2.41722,-18.830367 5.30222,-3.473628 3.18834,-11.593984 9.74691,-13.994351 z"
     id="path98"
     inkscape:connector-curvature="0" />
  <path
     style="fill:#a76c33"
     d="m 497.53024,80.526395 c 13.60796,-3.22736 40.88296,3.247499 29.54669,10.986 0.53358,-20.141481 -20.16501,2.531885 -23.03918,-11.41342 -5.01861,5.083989 2.2343,14.613498 -5.65104,3.063374 l -0.85647,-2.635954 z"
     id="path100"
     inkscape:connector-curvature="0" />
  <path
     style="fill:#721e20"
     d="m 557.90351,80.47148 c 11.90883,-4.014091 49.96797,16.944045 31.92115,19.341767 -8.57835,-9.383874 -22.88747,-10.47475 -31.92115,-19.341767 z"
     id="path102"
     inkscape:connector-curvature="0" />
  <path
     style="fill:#d0b671"
     d="m 332.43764,84.782362 c 8.94673,-1.394001 34.45985,-3.969633 13.56466,4.990035 -8.42723,10.302223 6.55532,22.209223 -8.59037,21.067463 -11.38556,0.64049 -11.71466,-16.789508 -20.51174,-20.446944 4.80778,-2.432405 12.73617,-0.389157 15.53745,-5.610554 z"
     id="path104"
     inkscape:connector-curvature="0" />
  <path
     style="fill:#3b221b"
     d="m 355.76302,85.853218 c 10.1636,-8.521877 45.99342,-3.814531 16.92027,1.757302 -23.28347,16.65487 -5.60041,40.67775 13.54005,15.64182 4.99517,-6.188447 7.2263,-24.275212 7.11573,-6.873613 -10.8105,15.263733 -31.48234,23.518553 -27.03209,29.828373 -10.57014,14.75139 3.14294,57.13754 -3.80274,63.72052 -2.68359,-21.26453 -2.52642,-43.69449 -2.6843,-64.11365 -3.30124,-7.14305 -0.64427,-37.7221 15.82013,-43.287013 -5.74296,-1.83678 -18.01364,6.77517 -19.87705,3.326261 z"
     id="path106"
     inkscape:connector-curvature="0" />
  <path
     style="fill:#b89052"
     d="m 439.68253,82.988449 c 19.85699,-7.487898 19.18533,6.139855 6.94408,10.507203 -5.11933,-22.130771 -5.36504,19.124888 -6.05701,-7.103859 l -0.88707,-3.403344 z"
     id="path108"
     inkscape:connector-curvature="0" />
  <path
     style="fill:#d0a240"
     d="m 501.47703,81.322673 c 8.14442,-1.778033 6.87416,10.017258 14.99848,0.4828 13.42974,-3.147047 14.45675,22.068977 5.81094,10.262371 -13.99979,-7.573523 -27.54019,10.292086 -9.94857,17.774386 -10.3315,5.64659 -29.54277,0.76816 -8.75466,-3.12734 1.40785,-7.923422 -1.15204,-17.311847 -2.10619,-25.392217 z"
     id="path110"
     inkscape:connector-curvature="0" />
  <path
     style="fill:#8b6236"
     d="m 540.79119,83.089128 c 12.85059,-5.47957 24.66109,2.751012 0,0 z"
     id="path112"
     inkscape:connector-curvature="0" />
  <path
     style="fill:#7b633e"
     d="m 386.25215,82.384376 c 16.83338,-0.58222 10.08705,22.762654 5.54046,5.812126 -2.6357,2.020445 -4.43981,-5.561409 -5.54046,-5.812126 z"
     id="path114"
     inkscape:connector-curvature="0" />
  <path
     style="fill:#ddb54f"
     d="m 540.79119,83.089128 c 22.48492,-6.108169 -8.73281,13.486244 13.00229,9.710926 13.34358,-0.427472 38.82278,22.528866 14.74041,17.810996 -24.11633,-12.638629 -11.62496,33.18089 -19.52664,44.74882 -8.76592,-16.45271 9.37273,-52.02314 -10.06942,-58.633344 0.3001,-4.53025 -1.42464,-9.692907 1.85336,-13.637398 z"
     id="path116"
     inkscape:connector-curvature="0" />
  <path
     style="fill:#daaa42"
     d="m 252.81062,85.203382 c 15.4211,-4.760697 25.7524,2.443443 5.66209,7.248872 -14.80506,5.690653 -15.40621,10.107086 -10.31949,21.096786 -15.78318,14.31108 23.47767,1.11263 1.14275,7.96048 -14.14982,14.01217 -5.63558,-25.454233 -24.27307,-6.9537 -0.21267,10.09489 -16.64724,31.05596 -10.23726,7.4285 8.82114,-12.55748 19.24859,-35.089103 29.50723,-28.862781 4.73945,-3.244447 11.74914,6.584871 8.51775,-7.918157 z"
     id="path118"
     inkscape:connector-curvature="0" />
  <path
     style="fill:#f5f5f5"
     d="m 323.69903,88.058998 c -4.02906,-6.704539 9.69942,-5.325212 0,0 z"
     id="path120"
     inkscape:connector-curvature="0" />
  <path
     style="fill:#721e1f"
     d="m 356.46403,87.546452 c 11.49256,-5.973275 29.24645,-7.371979 8.66239,3.771021 -12.8619,23.892787 -1.29392,36.309027 -5.77522,60.348497 -1.67982,14.73294 8.41891,41.19231 2.98003,45.71488 -13.41795,4.00236 -35.61317,-2.5819 -9.05865,-3.13634 10.48311,-4.48023 -14.58073,-10.66789 -4.80016,-22.53598 3.87519,-26.55103 -10.46065,-62.51583 7.99161,-84.162078 z"
     id="path122"
     inkscape:connector-curvature="0" />
  <path
     style="fill:#ca9e3b"
     d="m 551.60402,83.189807 c 21.71806,1.588977 6.70071,6.954391 7.6787,8.134101 10.59354,9.112582 18.65555,-5.856822 29.62847,11.031482 11.81555,5.19022 12.43722,-8.910759 24.77541,-3.880713 -8.50739,-17.954262 17.99099,-10.001579 5.09193,3.571803 -19.05728,0.83778 12.8224,8.96588 3.20856,23.41812 -6.36483,27.12029 0.46342,-27.824943 -7.92403,-5.44209 -3.5627,19.26204 10.11008,14.57947 -1.71216,26.7837 -8.86139,16.29412 9.57905,20.0168 -7.57187,30.97832 -21.05167,18.28563 -10.90907,-11.87462 -5.90966,-27.09647 -0.19589,-28.06923 6.16649,31.68217 10.79963,-0.22538 1.24188,-12.55836 12.91764,-48.01509 -12.91691,-36.20632 3.97632,11.97911 -14.7225,-12.57413 -14.09837,7.0571 -1.677,5.40359 1.12507,-15.28128 -10.21146,-5.34813 -10.62728,-4.9196 16.04106,-3.28893 3.80994,-12.71642 -5.24249,-9.389762 -46.66423,-8.553808 -24.64818,-20.059103 z"
     id="path126"
     inkscape:connector-curvature="0" />
  <path
     style="fill:#342812"
     d="m 242.32428,85.889828 c -0.0395,-4.542654 6.927,-0.392249 0,0 z"
     id="path128"
     inkscape:connector-curvature="0" />
  <path
     style="fill:#e9d269"
     d="m 283.65505,92.415644 c 29.92255,-24.821842 18.43194,23.715386 19.83588,40.039376 -0.49776,18.81307 8.22744,41.99504 -2.54831,48.60943 -25.99188,-2.71227 -12.05716,-41.11045 -18.18064,-62.41741 -11.83985,-5.08211 -53.74609,8.15991 -28.99734,-6.84086 16.48358,2.80579 36.04181,2.863 29.89041,-19.390536 z"
     id="path130"
     inkscape:connector-curvature="0" />
  <path
     style="fill:#ffffff"
     d="m 497.46302,86.786785 c 0.32703,-5.008401 5.13158,4.161765 0,0 z"
     id="path132"
     inkscape:connector-curvature="0" />
  <path
     style="fill:#bf9065"
     d="m 343.12564,91.655977 c 24.96286,-16.730651 -7.01817,14.819083 2.66369,28.334743 -0.52531,11.74006 1.40611,43.08959 -0.83148,45.47061 -0.31912,-24.61359 1.01981,-49.29208 -1.83221,-73.805353 z"
     id="path134"
     inkscape:connector-curvature="0" />
  <path
     style="fill:#22110e"
     d="m 346.6595,97.596025 c 18.28279,-25.931004 -6.36344,9.851945 1.26038,22.641995 -1.26263,23.74499 0.40884,61.87487 5.3527,74.00649 -15.07452,4.12478 -22.11086,2.5238 -3.50175,-1.27822 11.04273,2.01695 -9.54196,-13.75125 -2.60238,-22.98222 -0.83548,-24.12294 0.14407,-48.26267 -0.50895,-72.388045 z"
     id="path136"
     inkscape:connector-curvature="0" />
  <path
     style="fill:#383329"
     d="m 497.46302,86.786785 c 5.54872,2.314894 -0.21831,9.716746 0,0 z"
     id="path138"
     inkscape:connector-curvature="0" />
  <path
     style="fill:#b08331"
     d="m 563.2235,86.576275 c 19.52071,5.268282 2.94074,14.478985 -7.23096,2.315612 -0.0993,0.06244 10.99448,2.631125 7.23096,-2.315612 z"
     id="path140"
     inkscape:connector-curvature="0" />
  <path
     style="fill:#8d5230"
     d="m 593.58779,87.903404 c 16.37314,-3.101446 47.53218,1.943639 13.59227,0.13829 -6.08425,-5.021735 -13.46599,7.543057 -13.59227,-0.13829 z"
     id="path142"
     inkscape:connector-curvature="0" />
  <path
     style="fill:#782220"
     d="m 626.3912,86.823395 c 34.14701,-6.872009 -16.44741,40.817745 -2.82639,5.061826 l 2.82639,-5.061826 z"
     id="path144"
     inkscape:connector-curvature="0" />
  <path
     style="fill:#e7cb64"
     d="m 102.17994,87.894251 c 21.57835,0.289317 11.48803,38.074899 17.48564,55.906469 -9.62717,20.472 3.6865,-20.08964 -10.28003,-7.24816 -5.03887,-11.90453 6.4206,-11.19915 1.25453,-20.08498 0.79736,-3.70222 -18.154127,-6.12746 -3.44624,-17.168309 3.49603,-7.6876 -14.160717,1.875019 -5.0139,-11.40502 z"
     id="path146"
     inkscape:connector-curvature="0" />
  <path
     style="fill:#92583e"
     d="m 462.89268,96.680763 c 1.86385,-26.832303 1.37171,30.372707 -0.46859,3.414927 l 0.46859,-3.414927 z"
     id="path148"
     inkscape:connector-curvature="0" />
  <path
     style="fill:#ffffff"
     d="m 499.74851,87.628825 c 3.56546,5.722367 -2.17026,6.43482 0,0 z"
     id="path150"
     inkscape:connector-curvature="0" />
  <path
     style="fill:#ad7e2e"
     d="m 595.51796,91.399703 c 17.00046,-13.967549 24.14033,13.253557 5.44861,9.019747 -6.37891,7.26611 -17.04501,1.49385 -2.52933,0.84677 l -0.50535,-5.190674 -2.41393,-4.675843 z"
     id="path152"
     inkscape:connector-curvature="0" />
  <path
     style="fill:#3a1f13"
     d="m 271.31535,90.823089 c 16.78464,-9.771602 7.23074,18.295931 8.05681,0.640683 -13.11164,-2.322169 -33.9417,27.225188 -10.05045,14.391628 21.89496,-19.190009 -15.45905,21.196 -14.55256,-1.07829 5.57313,-4.57816 10.39988,-10.034678 16.5462,-13.954021 z"
     id="path154"
     inkscape:connector-curvature="0" />
  <path
     style="fill:#a38f63"
     d="m 398.15971,88.370187 c 5.35671,7.219175 -15.13672,16.413813 5.40447,18.526043 24.82474,-9.497012 -52.42435,27.13071 -26.78511,6.65266 7.65153,-7.28837 19.11766,-15.05296 21.38064,-25.178703 z"
     id="path156"
     inkscape:connector-curvature="0" />
  <path
     style="fill:#af7d36"
     d="m 173.875,89.560027 c 10.50511,6.389361 14.89884,47.144913 5.10873,37.580643 2.13232,-12.58796 -0.37769,-25.76973 -5.10873,-37.580643 z"
     id="path158"
     inkscape:connector-curvature="0" />
  <path
     style="fill:#362111"
     d="m 642.49522,93.989894 c 3.88676,-10.107457 39.7747,-1.43554 12.7034,-3.034093 -4.57452,-0.384324 -8.53339,1.746851 -12.7034,3.034093 z"
     id="path160"
     inkscape:connector-curvature="0" />
  <path
     style="fill:#3a1f14"
     d="m 676.55661,89.523417 c 14.63908,0.558114 65.72896,3.741957 42.12661,24.748673 -17.2786,4.23863 22.3111,-14.13572 -4.685,-18.714811 -28.04086,-8.877771 10.76271,19.697501 -10.54246,17.316601 -12.58685,0.96871 -23.44075,-20.270161 -27.68658,3.47586 -4.46502,5.54751 37.30702,16.72016 7.89236,7.55663 -29.8981,0.90718 12.97714,-27.137975 -13.08091,-23.27082 -13.53505,10.47542 -16.77408,20.2269 2.89346,22.70679 6.70532,8.55425 25.58752,13.78751 24.13142,6.25939 12.15757,10.73936 -16.68802,4.13382 -19.77142,2.38482 -23.45316,3.88873 -6.28996,43.95879 3.90207,58.69387 19.74112,24.47605 -15.99759,-12.48025 -13.83022,-25.35194 -5.43559,-10.91063 1.94166,-49.79048 -15.7263,-30.1894 -13.03294,27.64052 19.4152,56.7291 28.77029,69.4762 -16.42237,-1.19336 11.38659,5.23948 -9.03585,1.6253 -15.27093,-1.5156 -36.91108,-22.1826 -45.13411,-23.93366 -6.31009,25.33746 1.04863,-33.72873 -13.36705,-8.91922 -12.36614,18.64012 6.50639,-31.39606 6.65959,-7.74197 11.66467,20.36753 34.7897,39.29533 60.3077,36.78108 -19.77759,-10.58675 -31.28134,-33.02325 -32.08426,-54.40731 -4.37193,-23.48215 14.35421,-21.3226 31.35699,-17.2318 -7.60537,-10.86054 -39.68718,-8.84161 -15.55395,-26.30362 12.01418,-24.217178 44.04318,27.61908 39.83782,-4.10795 -5.45389,-9.245976 -23.62998,-2.358587 -27.3802,-10.852713 z"
     id="path162"
     inkscape:connector-curvature="0" />
  <path
     style="fill:#d29c35"
     d="m 214.57197,90.264779 c 6.51004,21.528911 -0.7376,42.103431 -11.39174,55.157761 -14.48315,-7.57343 -20.90096,24.57252 -28.86215,9.70812 -17.65448,22.62215 -5.70203,-18.06249 7.6994,-4.92325 14.05975,-17.27876 -18.58768,0.29797 -4.42617,-19.75349 22.53041,-2.61027 -14.50287,-46.026097 14.71821,-34.86618 20.28086,-2.736459 2.05072,36.38847 20.11655,16.42936 4.80746,-4.84747 0.16253,-15.338438 2.1459,-21.752321 z"
     id="path164"
     inkscape:connector-curvature="0" />
  <path
     style="fill:#aa753d"
     d="m 307.68144,90.411221 c 18.14483,-2.362775 9.11146,11.680269 0,0 z"
     id="path166"
     inkscape:connector-curvature="0" />
  <path
     style="fill:#a37d2f"
     d="m 502.64858,90.493594 c 4.07459,13.540626 -2.60852,25.079696 -0.0936,4.498511 l 0.0936,-4.498511 z"
     id="path168"
     inkscape:connector-curvature="0" />
  <path
     style="fill:#e4c14e"
     d="m 505.60626,91.70174 c 18.09518,-5.46423 28.12126,8.92835 13.21475,25.08618 0.85825,14.46648 -23.14016,-1.61138 -5.50891,-6.07078 -9.66708,-1.43492 -10.47024,-11.367744 -7.70584,-19.0154 z"
     id="path170"
     inkscape:connector-curvature="0" />
  <path
     style="fill:#8c4a28"
     d="m 644.56944,93.294295 c 11.47436,-8.57611 64.49306,4.827086 27.76009,0.376831 -9.18879,-1.039925 -18.57709,-2.09115 -27.76009,-0.376831 z"
     id="path172"
     inkscape:connector-curvature="0" />
  <path
     style="fill:#2a140b"
     d="m 666.36797,90.621731 c 10.84544,-0.713667 10.7457,1.698911 0,0 z"
     id="path174"
     inkscape:connector-curvature="0" />
  <path
     style="fill:#994e23"
     d="m 87.698804,91.216651 c 5.243751,26.078619 5.822591,53.224629 10.620178,79.639059 -0.107595,14.14231 1.744838,38.92407 -1.587288,10.63631 -1.041347,-30.27174 -7.913476,-59.99212 -9.03289,-90.275369 z"
     id="path176"
     inkscape:connector-curvature="0" />
  <path
     style="fill:#3a3422"
     d="m 233.64328,95.088208 c -4.11568,-3.397298 10.1295,-6.4229 0,0 z"
     id="path178"
     inkscape:connector-curvature="0" />
  <path
     style="fill:#721d1e"
     d="m 256.74779,105.34829 c 6.67712,-11.437781 36.05406,-20.100893 14.99609,-2.28586 -0.67745,5.36947 -16.58009,10.0165 -14.99609,2.28586 z"
     id="path180"
     inkscape:connector-curvature="0" />
  <path
     style="fill:#84693c"
     d="m 282.76198,91.31733 c 8.15932,19.34687 -10.80347,24.30697 -27.32978,19.56829 19.59002,-1.17689 29.97282,4.10367 27.32978,-19.56829 z"
     id="path182"
     inkscape:connector-curvature="0" />
  <path
     style="fill:#d3c177"
     d="m 409.69276,93.614637 c 20.41222,5.637817 -30.88602,14.213623 -6.68315,-0.03862 2.10879,0.438892 4.82848,2.327572 6.68315,0.03862 z"
     id="path184"
     inkscape:connector-curvature="0" />
  <path
     style="fill:#a6a4a2"
     d="m 499.14353,92.33327 c 4.83952,-0.874218 -0.76128,6.161223 0,0 z"
     id="path186"
     inkscape:connector-curvature="0" />
  <path
     style="fill:#bd8c35"
     d="m 644.56944,93.294295 c 14.37501,-2.006729 32.7869,0.392975 45.00867,2.59019 -19.80484,-2.293206 -35.25858,21.483195 -48.41889,18.163365 -16.29623,-15.445101 -16.95365,37.20203 -16.84824,4.31317 1.01281,-11.43222 11.62263,-20.866669 20.25846,-25.066725 z"
     id="path188"
     inkscape:connector-curvature="0" />
  <path
     style="fill:#85542e"
     d="m 215.6763,93.861757 c 2.05812,12.270043 -1.37786,22.831403 -0.15889,4.25897 l 0.15889,-4.25897 z"
     id="path190"
     inkscape:connector-curvature="0" />
  <path
     style="fill:#3d3324"
     d="m 308.60331,94.209557 c 33.5437,-1.375468 9.78341,45.671013 18.48793,65.880253 4.08539,13.29517 0.33427,44.89718 0.51076,14.23559 -11.00684,-23.75279 13.80365,-74.747337 -19.57486,-79.401939 l 0.57617,-0.713904 z"
     id="path192"
     inkscape:connector-curvature="0" />
  <path
     style="fill:#fbfbfb"
     d="m 500.48793,95.06075 c 6.07035,-2.414221 -2.96386,14.08278 0,0 z"
     id="path194"
     inkscape:connector-curvature="0" />
  <path
     style="fill:#372014"
     d="m 304.84859,104.8632 c -6.76574,-16.837018 28.70545,-5.815602 2.80404,-7.84379 -1.85078,29.62238 -2.71322,60.17529 4.09863,89.29206 25.70248,15.12777 -31.40655,6.06613 -5.52961,14.05514 15.47852,-1.55578 27.90719,1.52443 16.79178,-14.26507 -1.87418,-29.78624 -2.92687,-59.61641 -3.80855,-89.493998 4.25189,29.082288 1.87836,59.656638 5.27993,89.466968 0.61352,10.96662 21.12969,4.42841 5.54221,9.51558 -1.04257,13.89657 -41.19674,-0.98686 -38.9263,0.32606 0.4432,4.97878 -15.93258,-9.34922 -8.35557,-20.00206 -3.75759,-16.74211 0.40999,-43.301 -4.87698,-53.86756 -37.12951,0.58594 -21.84431,51.30774 -10.52841,70.76416 -12.93963,-18.53092 -26.21044,-62.95902 3.34271,-71.45046 -1.13052,-6.15037 -44.33052,5.12562 -30.35559,27.11519 -0.13614,23.66935 13.43103,50.80582 31.7642,61.77816 6.27523,-4.76457 -1.43221,-15.21898 5.42548,-1.5365 -16.59124,5.12362 -18.07405,-5.30986 -32.8637,-8.83772 -13.67921,-7.7933 -34.27944,-40.25771 -27.66456,-42.17009 1.06561,18.09578 30.28375,50.79501 42.57614,41.6484 -18.91798,-18.4664 -27.45972,-49.06194 -17.09612,-73.14141 13.29386,-10.7599 52.29691,-17.30501 39.34778,11.73365 4.48195,22.91924 -9.74623,67.61618 29.68175,55.76416 -2.37977,-14.06478 -8.88426,-48.097 -5.81521,-70.93237 -0.0183,-5.97961 -0.20776,-11.96551 -0.83405,-17.9185 z"
     id="path196"
     inkscape:connector-curvature="0" />
  <path
     style="fill:#3a2a18"
     d="m 499.84454,94.987529 c 2.71306,4.649957 2.86389,19.839161 -1.20697,3.078139 l 1.20697,-3.078139 z"
     id="path200"
     inkscape:connector-curvature="0" />
  <path
     style="fill:#804e25"
     d="m 689.84699,94.969224 c 17.2076,-0.17859 4.39367,2.893177 0,0 z"
     id="path202"
     inkscape:connector-curvature="0" />
  <path
     style="fill:#782421"
     d="m 701.08235,95.042445 c 17.61741,-8.789306 33.07979,19.241815 10.76482,17.389975 -5.0088,-5.06742 -4.12731,-13.458394 -10.76482,-17.389975 z"
     id="path204"
     inkscape:connector-curvature="0" />
  <path
     style="fill:#e5c953"
     d="m 101.08521,95.911943 c 16.59489,-2.543211 -13.115685,22.689627 11.72511,17.664547 -7.80663,6.60685 6.06616,10.8035 -5.65609,12.77706 0.15957,15.59748 16.3067,2.89268 6.662,21.72831 16.03174,6.10554 1.68275,28.78045 -5.6825,5.2719 -6.04253,-18.52148 -8.02374,-38.111 -7.04852,-57.441817 z"
     id="path206"
     inkscape:connector-curvature="0" />
  <path
     style="fill:#b47d2f"
     d="m 619.87085,95.728891 c 2.21619,11.689549 4.72566,36.254309 -0.51855,11.440769 -20.44282,-2.75874 4.32461,-2.6194 0.51855,-11.440769 z"
     id="path208"
     inkscape:connector-curvature="0" />
  <path
     style="fill:#d3ac5e"
     d="m 679.86961,98.868239 c 13.13103,-14.853422 31.77538,28.824091 7.06771,3.395621 l -3.38261,-2.01358 -3.6851,-1.382041 z"
     id="path210"
     inkscape:connector-curvature="0" />
  <path
     style="fill:#c2973c"
     d="m 690.47118,95.976012 c 24.5671,-2.288799 16.29808,30.089968 0,0 z"
     id="path212"
     inkscape:connector-curvature="0" />
  <path
     style="fill:#751e20"
     d="m 307.65263,97.01941 c 24.04241,-0.624832 6.81669,39.36675 14.0661,57.10089 -4.51827,14.36213 7.2829,40.03498 2.97675,44.93262 -14.84189,4.6357 -40.27076,-4.42763 -10.89536,-3.31725 7.08437,-2.42893 -11.39266,-23.95099 -4.904,-37.13754 2.18496,-20.59685 -4.25717,-41.18679 -1.24349,-61.57872 z"
     id="path216"
     inkscape:connector-curvature="0" />
  <path
     style="fill:#6e5835"
     d="m 441.05575,96.927884 c 3.25927,14.633006 0.27998,34.582456 0.80664,51.163126 -1.34906,11.5325 -1.3917,37.0142 -1.48515,10.7458 0.29993,-20.63502 1.0374,-41.26994 0.67851,-61.908926 z"
     id="path218"
     inkscape:connector-curvature="0" />
  <path
     style="fill:#bf9256"
     d="m 456.14186,104.65269 c 11.1225,-18.160709 -0.016,11.65307 19.27297,6.00412 8.51515,8.11236 17.153,7.15 -1.57247,5.9389 -28.233,2.95638 -7.50275,46.53728 -14.71385,66.64392 -0.61923,9.26511 -2.07141,-30.71312 0.12948,-39.99722 -0.22559,-11.33452 -2.57391,-29.16656 5.75692,-32.14856 -7.42478,-1.86991 -29.03354,-10.57654 -8.87305,-6.44116 z"
     id="path220"
     inkscape:connector-curvature="0" />
  <path
     style="fill:#8b5d2b"
     d="m 538.93783,96.726526 c 7.54217,20.004174 -0.66619,42.088584 1.86932,62.957824 -3.56394,18.14983 3.49673,35.71887 10.68811,33.75881 -24.90175,8.01339 -5.98571,-31.9187 -11.77466,-45.19578 0.29852,-17.17178 0.7734,-34.38713 -0.78277,-51.520854 z"
     id="path222"
     inkscape:connector-curvature="0" />
  <path
     style="fill:#7c4c3c"
     d="m 345.76643,169.36169 c 0.56388,-16.97365 -0.66181,-77.585778 0.99721,-67.24178 -0.40878,21.67298 1.35961,49.0822 -0.99721,67.24178 z"
     id="path224"
     inkscape:connector-curvature="0" />
  <path
     style="fill:#ae9559"
     d="m 442.15047,97.568567 c -3.70391,14.496343 19.13751,16.564083 1.52686,24.867663 2.32192,7.6434 1.39202,23.97138 -1.69597,21.81447 0.07,-15.56012 0.8623,-31.12521 0.16911,-46.682133 z"
     id="path226"
     inkscape:connector-curvature="0" />
  <path
     style="fill:#bb9341"
     d="m 539.88852,97.833993 c 18.19647,5.160147 -0.26459,44.982947 9.80558,56.800857 2.27663,-15.71427 1.42785,29.76737 -1.75837,4.95185 0.18322,12.85161 -6.44133,-16.84586 -6.13624,2.43474 0.2055,12.03503 -0.57739,25.18501 -1.06732,5.96966 -2.15721,-23.36229 4.49012,-47.18552 -0.84365,-70.157107 z"
     id="path228"
     inkscape:connector-curvature="0" />
  <path
     style="fill:#935536"
     d="m 679.05336,98.639424 c 10.26975,3.183426 10.50619,6.276646 0,0 z"
     id="path232"
     inkscape:connector-curvature="0" />
  <path
     style="fill:#87794f"
     d="m 326.03253,99.362481 c 4.81326,22.871679 -1.72478,47.779879 4.1078,71.095699 3.96245,12.31638 -5.55676,31.12772 -0.51633,9.71275 -4.58465,-26.69851 -3.86798,-53.85968 -3.59147,-80.808449 z"
     id="path236"
     inkscape:connector-curvature="0" />
  <path
     style="fill:#731f1e"
     d="m 667.89482,103.56353 c 16.90966,-11.326435 10.2553,7.79624 3.77393,15.84318 14.65877,2.67727 40.08054,18.60592 10.84165,12.83197 -4.07514,-17.3214 -43.09439,-6.72562 -14.61558,-28.67515 z"
     id="path238"
     inkscape:connector-curvature="0" />
  <path
     style="fill:#48311f"
     d="m 177.8986,101.49504 c 2.50139,9.49959 -0.40384,10.32261 0,0 z"
     id="path240"
     inkscape:connector-curvature="0" />
  <path
     style="fill:#997b4a"
     d="m 523.458,112.21275 c 1.26979,-28.007133 1.55499,3.43968 0,0 z"
     id="path242"
     inkscape:connector-curvature="0" />
  <path
     style="fill:#855d31"
     d="m 688.75226,103.16082 c 6.81447,8.49584 13.28253,8.64378 16.30824,5.48141 -4.96697,9.74133 -12.86746,-0.76603 -16.30824,-5.48141 z"
     id="path244"
     inkscape:connector-curvature="0" />
  <path
     style="fill:#5e4923"
     d="m 304.84859,104.8632 c 0.91853,13.97351 1.71914,38.34407 -0.35531,46.14749 0.30731,-15.38115 -0.14406,-30.76879 0.35531,-46.14749 z"
     id="path250"
     inkscape:connector-curvature="0" />
  <path
     style="fill:#20130d"
     d="m 491.18274,105.25676 c 7.38122,0.0252 -6.0945,3.60284 0,0 z"
     id="path252"
     inkscape:connector-curvature="0" />
  <path
     style="fill:#714b33"
     d="m 500.98728,107.30695 c -7.01355,6.70154 -53.36067,1.49283 -16.95387,2.36595 5.70868,-0.29461 11.42083,-0.95559 16.95387,-2.36595 z"
     id="path254"
     inkscape:connector-curvature="0" />
  <path
     style="fill:#d0c476"
     d="m 327.77065,107.6456 c 16.6236,3.05831 10.06954,31.88453 1.87631,36.17071 1.53879,12.6865 6.97467,30.38662 13.59572,36.71229 5.34099,-30.76907 6.86151,21.92848 -9.95638,3.27463 -2.34772,-17.09606 -8.47424,-39.16385 -5.55692,-61.23958 0.0861,-4.97208 0.14225,-9.94572 0.0413,-14.91805 z"
     id="path256"
     inkscape:connector-curvature="0" />
  <path
     style="fill:#dfd57e"
     d="m 337.41193,110.83986 c 16.11549,-1.82225 3.5685,37.03714 7.52045,51.04107 4.32633,17.82885 -9.64299,25.07901 -7.58767,4.51531 -11.92563,-11.40215 -9.12152,-26.46947 -0.21925,-31.96873 0.094,-7.85696 -1.45277,-15.80133 0.28647,-23.58765 z"
     id="path258"
     inkscape:connector-curvature="0" />
  <path
     style="fill:#221509"
     d="m 483.54846,108.09408 c 4.24794,-2.7483 2.32853,3.42737 0,0 z"
     id="path260"
     inkscape:connector-curvature="0" />
  <path
     style="fill:#755018"
     d="m 622.3676,108.07577 c 6.6918,7.5374 -2.06632,36.26699 -3.57227,52.18822 -1.81296,-16.8994 4.8519,-34.88724 3.57227,-52.18822 z"
     id="path262"
     inkscape:connector-curvature="0" />
  <path
     style="fill:#cba042"
     d="m 651.90604,111.02291 c 16.58523,-9.89141 -7.97421,13.47309 13.22556,12.14438 17.2127,2.10854 17.32657,13.43632 -0.6422,4.07978 -16.42852,-11.84999 -17.5535,24.07008 -19.10371,-0.0698 -15.70295,-1.13273 -17.85218,-24.83514 0.37136,-11.64729 10.22334,7.37805 -0.59294,-6.51005 6.14899,-4.50708 z"
     id="path264"
     inkscape:connector-curvature="0" />
  <path
     style="fill:#ecc94a"
     d="m 226.96928,112.04801 c 31.32836,-4.05844 -0.98064,38.09545 10.06277,55.34501 -8.80587,30.10909 -32.34884,-26.31243 -18.06796,-38.28454 4.17425,-5.20073 4.15913,-11.93105 8.00519,-17.06047 z"
     id="path266"
     inkscape:connector-curvature="0" />
  <path
     style="fill:#1c160c"
     d="m 270.88322,109.88799 c 2.0006,0.28983 2.0006,0.28983 0,0 z"
     id="path268"
     inkscape:connector-curvature="0" />
  <path
     style="fill:#dab354"
     d="m 512.33788,109.84223 c -14.00988,6.53646 6.79724,21.89097 7.91081,4.1334 6.7798,0.035 -1.10031,42.45642 -0.29634,45.32962 -26.90767,4.34844 -12.02856,-22.86309 -17.7167,-42.18669 -15.10919,4.58628 -40.88584,-9.90401 -10.53435,-6.78209 6.54184,1.46453 14.83258,4.61551 20.63658,-0.49424 z"
     id="path270"
     inkscape:connector-curvature="0" />
  <path
     style="fill:#762121"
     d="m 557.36575,109.769 c 25.23919,4.36666 6.95799,40.72672 9.73052,58.80719 -4.88091,10.23132 5.4871,41.95188 -11.66212,26.18574 0.31111,-28.23223 -2.9789,-57.16244 1.9316,-84.99293 z"
     id="path272"
     inkscape:connector-curvature="0" />
  <path
     style="fill:#533e26"
     d="m 178.98373,110.38223 c 2.99617,19.99344 -2.55077,18.33479 0,0 z"
     id="path274"
     inkscape:connector-curvature="0" />
  <path
     style="fill:#67533d"
     d="m 365.91326,121.46605 c 15.81612,-14.40389 8.7763,-9.31085 4.26368,0.25627 l -4.26368,-0.25627 z"
     id="path276"
     inkscape:connector-curvature="0" />
  <path
     style="fill:#e5be3f"
     d="m 597.3041,119.86434 c -0.79764,-17.14552 24.43444,-6.11731 15.50699,9.29005 1.21817,10.06005 -29.78396,14.96539 -23.13167,-4.77781 -16.64507,12.25419 -2.36093,-28.824263 7.62468,-4.51224 z"
     id="path278"
     inkscape:connector-curvature="0" />
  <path
     style="fill:#979592"
     d="m 440.00903,122.5186 c -3.88543,-12.33179 2.1654,-15.30954 0,0 z"
     id="path280"
     inkscape:connector-curvature="0" />
  <path
     style="fill:#9d7b3f"
     d="m 116.69949,112.23106 c 4.08698,14.7373 -0.021,15.25558 0,0 z"
     id="path282"
     inkscape:connector-curvature="0" />
  <path
     style="fill:#be8937"
     d="m 574.12276,116.4138 c 13.8876,-12.97053 1.39277,20.91586 15.55666,7.96278 0.26473,16.731 16.87565,16.66725 8.71941,36.38165 -9.65284,9.45369 -7.8338,25.71468 -6.39896,3.86584 2.80851,-20.07188 -4.90835,-35.67921 -17.87711,-48.21027 z"
     id="path284"
     inkscape:connector-curvature="0" />
  <path
     style="fill:#92928e"
     d="m 321.10625,114.19887 c 3.3793,4.67809 -1.64409,5.39769 0,0 z"
     id="path286"
     inkscape:connector-curvature="0" />
  <path
     style="fill:#987c45"
     d="m 522.61295,127.18643 c -0.39283,-9.42168 1.84641,-17.25795 0.5292,-3.21399 l -0.5292,3.21399 z"
     id="path288"
     inkscape:connector-curvature="0" />
  <path
     style="fill:#e0b844"
     d="m 613.92667,114.24463 c 14.5901,0.8084 -1.48962,38.29084 -0.52935,11.89383 l 0.66574,-6.11595 -0.13639,-5.77788 z"
     id="path290"
     inkscape:connector-curvature="0" />
  <path
     style="fill:#803828"
     d="m 306.78837,114.94023 c 2.77111,12.25589 2.86241,59.04148 1.13634,50.35968 -2.09959,-16.71134 -1.39622,-33.57611 -1.13634,-50.35968 z"
     id="path292"
     inkscape:connector-curvature="0" />
  <path
     style="fill:#d7ad44"
     d="m 625.57496,122.37216 c 5.47766,-16.42421 12.61,5.47795 19.29172,7.81305 4.49634,9.13514 7.7313,46.38714 -4.91622,30.01471 -6.4307,-8.90258 13.25656,-12.34059 -7.60817,-7.28906 -10.82933,-0.4294 -2.77577,-23.44104 -6.76733,-30.5387 z"
     id="path294"
     inkscape:connector-curvature="0" />
  <path
     style="fill:#85502f"
     d="m 461.12575,119.81858 c 7.65413,-7.55664 44.9919,0.0257 17.10272,-1.76646 -5.69388,0.0619 -11.93511,-1.35612 -17.10272,1.76646 z"
     id="path296"
     inkscape:connector-curvature="0" />
  <path
     style="fill:#3e2c15"
     d="m 572.44226,115.96533 c 6.10132,4.78124 2.81316,9.96885 0,0 z"
     id="path298"
     inkscape:connector-curvature="0" />
  <path
     style="fill:#86602b"
     d="m 573.2489,116.21245 c 15.26829,12.36071 22.29615,31.71724 18.10982,53.01882 3.92918,14.75763 -27.09839,40.02254 3.18935,28.31133 -9.12629,8.93715 -27.46358,2.71738 -11.02529,-7.2546 10.84286,-19.60911 10.46126,-46.15223 -3.996,-64.10035 -2.8417,-2.89128 -4.15323,-6.6611 -6.27788,-9.9752 z"
     id="path300"
     inkscape:connector-curvature="0" />
  <path
     style="fill:#9a9594"
     d="m 131.94885,116.9355 c 3.2705,4.6426 -1.74886,5.49269 0,0 z"
     id="path302"
     inkscape:connector-curvature="0" />
  <path
     style="fill:#a48a3c"
     d="m 263.22013,117.84161 c 11.25125,-1.84449 21.02203,0.096 3.92368,0.0148 l -3.92368,-0.0148 z"
     id="path304"
     inkscape:connector-curvature="0" />
  <path
     style="fill:#b6893b"
     d="m 494.82223,118.04297 c 20.16842,-0.66639 3.39653,31.28524 6.81804,44.95765 -4.00754,-11.40893 7.68979,-43.07584 -6.81804,-44.95765 z"
     id="path306"
     inkscape:connector-curvature="0" />
  <path
     style="fill:#947934"
     d="m 258.50512,118.61959 c 6.28285,-3.41594 6.21413,1.81951 0,0 z"
     id="path308"
     inkscape:connector-curvature="0" />
  <path
     style="fill:#2e1613"
     d="m 461.12575,119.81858 c 32.40194,-12.51676 10.83087,31.83821 15.37056,48.31975 -2.32602,11.83321 1.45301,28.15324 6.8829,32.48183 -9.85814,0.87064 -51.33922,-0.26141 -35.65907,-1.78247 18.98659,4.80262 34.42222,0.15588 28.01585,-20.87508 -7.13522,-17.44742 15.98662,-65.83109 -13.4675,-56.06639 2.72999,23.01541 -5.87633,50.41623 2.60643,70.82567 -2.28844,8.26662 -32.73553,0.55272 -5.31444,1.4617 1.20426,-17.92095 1.53162,-46.48295 1.39037,-68.13971 l -0.0364,-5.5114 0.21126,-0.7139 z"
     id="path310"
     inkscape:connector-curvature="0" />
  <path
     style="fill:#453731"
     d="m 491.24036,117.66771 c 10.84941,4.23675 -21.16656,2.51645 0.3558,1.45384 l -0.3558,-1.45384 z"
     id="path312"
     inkscape:connector-curvature="0" />
  <path
     style="fill:#876033"
     d="m 282.76198,118.64704 c 2.1372,23.34116 -2.48832,56.20532 7.37501,74.39247 15.36648,-0.74815 36.36415,0.38872 9.53925,1.07886 -28.05158,2.80416 -11.38138,-38.66835 -17.86014,-56.16846 0.41147,-6.42825 1.12748,-12.85305 0.94588,-19.30287 z"
     id="path314"
     inkscape:connector-curvature="0" />
  <path
     style="fill:#5c401d"
     d="m 494.46693,118.73857 c 15.58613,12.84323 4.79807,48.96261 4.76302,70.18226 -22.36316,8.78014 44.6013,3.37569 10.15971,5.93726 -14.93644,1.27528 -26.55651,0.52067 -10.94529,-11.9094 1.07091,-19.12269 8.523,-50.84412 -3.97744,-64.21012 z"
     id="path316"
     inkscape:connector-curvature="0" />
  <path
     style="fill:#9a9795"
     d="m 178.09066,123.46132 c -1.89693,-5.28137 3.24004,-4.66074 0,0 z"
     id="path318"
     inkscape:connector-curvature="0" />
  <path
     style="fill:#741f1f"
     d="m 247.83633,124.23014 c 12.27494,-5.16861 38.28989,-6.05866 11.84034,0.3478 -14.38094,26.11844 -1.62486,57.59894 14.80643,79.72844 -8.53672,17.94259 -19.89998,-18.36361 -26.56259,-27.10376 -7.68985,-14.98736 -13.03727,-40.08417 -0.0842,-52.97248 z"
     id="path320"
     inkscape:connector-curvature="0" />
  <path
     style="fill:#741e20"
     d="m 462.26849,121.89622 c 29.45412,-9.7647 6.33228,38.61897 13.4675,56.06639 8.22282,21.1562 -13.58541,28.08624 -29.31224,18.72879 12.0861,0.32207 22.45908,0.42754 14.83468,-13.25273 0.88742,-20.50272 0.83901,-41.02694 1.01006,-61.54245 z"
     id="path322"
     inkscape:connector-curvature="0" />
  <path
     style="fill:#bc9651"
     d="m 283.78949,120.47757 c -1.77733,23.12875 6.04259,57.79051 2.6984,72.38804 -0.92762,-24.24104 -5.36424,-48.12293 -2.6984,-72.38804 z"
     id="path324"
     inkscape:connector-curvature="0" />
  <path
     style="fill:#533125"
     d="m 460.17507,164.62063 c -0.39331,-12.50348 0.35529,-63.47583 1.01102,-27.53123 0.19456,9.1817 0.23918,18.40634 -1.01102,27.53123 z"
     id="path326"
     inkscape:connector-curvature="0" />
  <path
     style="fill:#905b2f"
     d="m 657.85022,120.73384 c 11.87377,-0.16089 26.7709,9.89398 0,0 z"
     id="path328"
     inkscape:connector-curvature="0" />
  <path
     style="fill:#eae9e9"
     d="m 370.17694,121.72232 c 12.90726,4.29544 -16.03432,3.85703 0,0 z"
     id="path330"
     inkscape:connector-curvature="0" />
  <path
     style="fill:#241c13"
     d="m 497.7223,121.67656 c 2.5699,8.0778 0.0641,54.64403 -0.26048,18.3796 0.0669,-6.12678 0.3633,-12.25143 0.26048,-18.3796 z"
     id="path332"
     inkscape:connector-curvature="0" />
  <path
     style="fill:#d8c867"
     d="m 443.67733,122.43623 c 17.79108,-9.26324 19.96605,22.29138 6.17465,10.91907 -1.14015,-6.87986 -11.58208,1.43869 -6.17465,-10.91907 z"
     id="path334"
     inkscape:connector-curvature="0" />
  <path
     style="fill:#472d1d"
     d="m 576.65792,122.30809 c 9.02311,10.02563 2.3543,10.97474 0,0 z"
     id="path336"
     inkscape:connector-curvature="0" />
  <path
     style="fill:#b48a50"
     d="m 117.67898,123.29657 c 4.49419,11.0369 -0.4629,20.67815 0,0 z"
     id="path338"
     inkscape:connector-curvature="0" />
  <path
     style="fill:#948f8e"
     d="m 366.30698,126.2071 c 4.75017,-5.57237 4.88593,9.26831 0,0 z"
     id="path340"
     inkscape:connector-curvature="0" />
  <path
     style="fill:#7b5f35"
     d="m 551.40236,148.85068 c 1.58462,-9.96417 1.50959,-34.81561 2.11479,-11.7216 -0.82705,13.13123 -2.33778,45.82896 -4.6417,47.56381 -0.40643,-12.03878 2.77577,-23.795 2.52691,-35.84221 z"
     id="path342"
     inkscape:connector-curvature="0" />
  <path
     style="fill:#976035"
     d="m 654.1339,125.28269 c 16.6296,1.4091 26.31504,10.00893 3.71031,1.57768 -15.22651,-0.55768 -7.57688,44.78781 -10.26982,15.55988 0.58147,-5.83094 -0.11724,-14.12798 6.55951,-17.13756 z"
     id="path344"
     inkscape:connector-curvature="0" />
  <path
     style="fill:#d39d2f"
     d="m 102.3816,127.80881 c 2.4942,11.1091 10.33002,46.80494 0.31689,20.54763 -17.225143,1.78659 -0.60914,-14.1049 -0.31689,-20.54763 z"
     id="path346"
     inkscape:connector-curvature="0" />
  <path
     style="fill:#928d8c"
     d="m 478.24767,128.12 c 3.6322,6.15376 -1.67591,9.74255 0,0 z"
     id="path348"
     inkscape:connector-curvature="0" />
  <path
     style="fill:#93613c"
     d="m 520.53873,163.88843 c 0.16913,-12.30869 2.66681,-52.25215 2.01585,-20.31238 -3.97368,13.61809 2.97117,40.52713 -2.8321,45.56444 0.60392,-8.42406 0.92041,-16.808 0.81625,-25.25206 z"
     id="path350"
     inkscape:connector-curvature="0" />
  <path
     style="fill:#a76e23"
     d="m 618.79533,160.26399 c 3.42568,-9.92136 4.18344,-47.89549 8.05801,-18.34528 7.06133,8.7194 -3.59827,32.42695 -8.05801,18.34528 z"
     id="path352"
     inkscape:connector-curvature="0" />
  <path
     style="fill:#751f1f"
     d="m 653.54813,130.16103 c 23.61934,-2.67565 3.62409,35.28211 19.35864,48.47555 8.31073,16.26959 37.31105,40.88668 3.24652,26.88023 1.80104,0.95381 15.33152,-4.45221 -1.64569,-10.07817 -19.3672,-12.82294 -30.27734,-43.27514 -20.95947,-65.27761 z"
     id="path354"
     inkscape:connector-curvature="0" />
  <path
     style="fill:#c9b161"
     d="m 443.9078,130.78341 c 10.0574,4.05937 21.77346,5.08052 12.45493,20.55678 -0.73886,4.45794 -19.08029,23.19927 -14.51985,0.90525 -2.18764,-8.99301 8.49644,-16.17042 2.06492,-21.46203 z"
     id="path356"
     inkscape:connector-curvature="0" />
  <path
     style="fill:#ad7f2a"
     d="m 618.73771,134.51768 c 5.38268,-10.95853 -5.42047,48.02741 -1.28048,11.72765 0.31683,-3.91025 0.0677,-7.92258 1.28048,-11.72765 z"
     id="path358"
     inkscape:connector-curvature="0" />
  <path
     style="fill:#3b2617"
     d="m 581.48817,130.52714 c 14.61582,18.08141 11.84638,46.86795 -1.64135,64.66452 -9.2491,14.64053 25.0621,2.18278 23.61257,-10.88675 14.21362,-7.56608 -29.88758,31.61028 -1.8484,21.6089 31.07563,-7.81473 -19.04952,10.33173 -10.75042,-3.78575 -36.75469,6.32272 6.89668,-22.86127 -1.54376,-41.12834 1.1148,-11.18054 -3.03579,-20.60785 -7.82864,-30.47258 z"
     id="path360"
     inkscape:connector-curvature="0" />
  <path
     style="fill:#4b2d1a"
     d="m 150.36716,173.25155 c 11.96923,-6.42846 24.4488,-44.01347 25.41881,-36.26266 -3.74951,13.41583 -21.65412,39.90635 -27.98037,38.48789 l 2.56156,-2.22523 z"
     id="path362"
     inkscape:connector-curvature="0" />
  <path
     style="fill:#722120"
     d="m 213.48685,131.2502 c 9.41421,26.37703 -10.34753,45.85241 -34.90794,56.47507 -20.16396,9.63263 -41.31379,18.72748 -64.33221,16.26692 -25.078828,4.63518 -9.94693,-8.43132 6.78901,-5.27504 34.16374,-2.14049 64.05856,-24.81208 83.21843,-50.67176 3.18407,-5.54361 4.99045,-11.82726 9.23271,-16.79519 z"
     id="path364"
     inkscape:connector-curvature="0" />
  <path
     style="fill:#905731"
     d="m 241.48883,131.39664 c 1.6451,12.69305 -4.08308,22.63114 -1.5063,4.12425 l 1.5063,-4.12425 z"
     id="path366"
     inkscape:connector-curvature="0" />
  <path
     style="fill:#301c0f"
     d="m 215.3402,153.72902 c -6.01579,-10.18064 0.37998,-30.47815 -0.78728,-8.21633 -2.12382,1.73017 5.02082,8.0006 0.78728,8.21633 z"
     id="path368"
     inkscape:connector-curvature="0" />
  <path
     style="fill:#997038"
     d="m 214.30309,134.23395 c 2.93764,14.15894 -0.74327,20.28779 0,0 z"
     id="path370"
     inkscape:connector-curvature="0" />
  <path
     style="fill:#a8a6a4"
     d="m 439.30802,142.89232 c -1.46956,-11.35492 2.25113,-10.15079 0,0 z"
     id="path372"
     inkscape:connector-curvature="0" />
  <path
     style="fill:#dcab36"
     d="m 598.41803,138.29771 c 23.64126,-23.13011 8.97352,42.09091 2.9841,12.74731 -0.98229,-4.03923 1.40494,-9.87612 -2.9841,-12.74731 z"
     id="path374"
     inkscape:connector-curvature="0" />
  <path
     style="fill:#b1944a"
     d="m 236.96588,140.56756 c 2.6587,-13.44421 1.05224,23.0006 0,0 z"
     id="path376"
     inkscape:connector-curvature="0" />
  <path
     style="fill:#d0ad4a"
     d="m 119.19624,137.17194 c 1.96276,10.15867 10.19411,39.20438 -8.46974,27.38463 -2.32459,10.46507 10.23,31.97294 13.39601,13.79299 -0.27566,25.36983 -24.836326,9.53455 -17.10032,-9.85722 -9.778092,-20.23985 25.39594,7.23693 12.44413,-13.77026 -2.76412,-4.32662 2.24046,-11.44232 -0.27008,-17.55014 z"
     id="path378"
     inkscape:connector-curvature="0" />
  <path
     style="fill:#b8852e"
     d="m 169.03515,151.79782 c 4.3115,-5.21101 5.89789,-20.47247 7.76872,-9.27847 14.87128,-9.25993 6.64701,15.72328 -3.51945,5.11975 l -2.39291,1.67393 -1.85636,2.48479 z"
     id="path380"
     inkscape:connector-curvature="0" />
  <path
     style="fill:#e6cc61"
     d="m 235.17974,176.22615 c 2.56493,-10.77478 -1.51396,-52.13708 3.40182,-21.10479 -0.55199,18.73791 14.19679,33.55656 21.12392,48.33383 -15.04098,-3.04871 -21.25959,-17.93525 -33.11071,-25.80123 2.37014,0.0479 7.17824,1.90946 8.58497,-1.42781 z"
     id="path382"
     inkscape:connector-curvature="0" />
  <path
     style="fill:#888381"
     d="m 362.63868,146.30625 c -2.98403,-7.60852 3.51311,-6.66603 0,0 z"
     id="path384"
     inkscape:connector-curvature="0" />
  <path
     style="fill:#d8af4a"
     d="m 613.12963,140.78722 c 15.30005,2.65222 -9.74033,41.71301 -2.0382,11.96934 l 1.25947,-5.95035 0.77873,-6.01899 z"
     id="path386"
     inkscape:connector-curvature="0" />
  <path
     style="fill:#e4c24b"
     d="m 193.58009,144.82353 c 22.4809,-3.42634 -4.47322,18.41292 -13.10357,18.34656 -13.0984,9.8974 12.21171,-15.7227 13.10357,-18.34656 z"
     id="path388"
     inkscape:connector-curvature="0" />
  <path
     style="fill:#bd7a22"
     d="m 95.083414,146.36117 c 25.837936,5.39274 -7.650219,36.71866 16.488136,45.93698 -20.100219,3.87666 -11.13713,-34.95387 -16.488136,-45.93698 z"
     id="path390"
     inkscape:connector-curvature="0" />
  <path
     style="fill:#ac8546"
     d="m 440.25871,173.11426 c 1.0226,-9.75242 1.2647,-37.04412 1.682,-12.55653 -2.66522,10.19573 3.3361,44.93034 -4.76453,27.80479 2.94561,-4.64635 1.61695,-10.23414 3.08253,-15.24826 z"
     id="path392"
     inkscape:connector-curvature="0" />
  <path
     style="fill:#cd9c3c"
     d="m 628.17734,152.86868 c 11.73883,-1.86795 19.93151,-4.24795 9.31943,2.63852 2.39412,15.47601 17.9514,0.82115 18.60572,21.0759 -7.74323,-4.25413 -24.63173,5.85046 -33.03388,-6.58073 22.41331,1.41604 9.42235,8.25257 5.10873,-17.13369 z"
     id="path394"
     inkscape:connector-curvature="0" />
  <path
     style="fill:#a08144"
     d="m 238.32948,149.97645 c 1.89107,13.52328 0.387,13.67061 0,0 z"
     id="path396"
     inkscape:connector-curvature="0" />
  <path
     style="fill:#dabf65"
     d="m 455.03753,156.2826 c 0.30687,-15.8915 13.01703,31.72358 -8.76742,25.29783 -14.70248,-2.49162 -0.29842,-22.56359 8.76742,-25.29783 z"
     id="path398"
     inkscape:connector-curvature="0" />
  <path
     style="fill:#9b823d"
     d="m 305.58801,152.71308 c 2.51926,11.1625 -0.43032,21.14428 -0.036,3.93834 l 0.036,-3.93834 z"
     id="path400"
     inkscape:connector-curvature="0" />
  <path
     style="fill:#bc892e"
     d="m 166.27912,162.70774 c 11.89462,-19.27159 19.57342,5.38469 1.12354,6.56242 -4.12044,-3.47247 -7.58042,-12.69059 -1.12354,-6.56242 z"
     id="path402"
     inkscape:connector-curvature="0" />
  <path
     style="fill:#e8c24f"
     d="m 502.44692,157.41753 c 14.50926,-6.60614 23.09022,8.94909 16.35369,25.42596 -8.38636,-4.36065 -19.37682,12.66819 -16.691,-7.02463 -0.36214,-6.11667 -1.14274,-12.34542 0.33731,-18.40133 z"
     id="path404"
     inkscape:connector-curvature="0" />
  <path
     style="fill:#d6ab48"
     d="m 542.46209,156.00802 c 6.21249,11.16415 7.36921,-4.14114 7.22136,13.33536 -4.46854,31.63898 -11.99026,0.71983 -7.22136,-13.33536 z"
     id="path406"
     inkscape:connector-curvature="0" />
  <path
     style="fill:#756e6c"
     d="m 476.46154,164.62979 c -0.764,-10.77604 3.09374,-7.36234 0,0 z"
     id="path408"
     inkscape:connector-curvature="0" />
  <path
     style="fill:#e2cc71"
     d="m 175.74756,166.29556 c 7.13886,-8.37112 29.26775,-13.18704 10.81793,-0.24697 -3.55535,7.64316 -46.6539,30.32155 -28.87734,13.4951 6.64174,-3.59485 13.6931,-7.08147 18.05941,-13.24813 z"
     id="path410"
     inkscape:connector-curvature="0" />
  <path
     style="fill:#9c633a"
     d="m 613.84985,162.79926 c 6.2426,-8.92371 -6.29754,17.19116 0,0 z"
     id="path412"
     inkscape:connector-curvature="0" />
  <path
     style="fill:#c7952b"
     d="m 100.09611,177.35192 c 6.98279,-14.03872 6.11032,-20.05085 7.38462,-1.19098 1.83133,17.78383 3.22833,20.02314 -7.38462,1.19098 z"
     id="path414"
     inkscape:connector-curvature="0" />
  <path
     style="fill:#bd7d30"
     d="m 620.07251,165.64573 c 8.92724,-15.80898 25.68733,18.60568 6.87341,3.41078 l -3.87731,0.94586 -2.9961,-4.35664 z"
     id="path416"
     inkscape:connector-curvature="0" />
  <path
     style="fill:#9a6c39"
     d="m 218.03861,161.87485 c 6.04687,15.09934 18.64461,26.85991 30.84443,38.51421 -13.06975,-10.23532 -27.77487,-21.69642 -30.84443,-38.51421 z"
     id="path418"
     inkscape:connector-curvature="0" />
  <path
     style="fill:#989694"
     d="m 438.53979,168.181 c -4.23574,-3.176 4.89577,-12.59509 0,0 z"
     id="path420"
     inkscape:connector-curvature="0" />
  <path
     style="fill:#cca13a"
     d="m 158.44318,167.24744 c 2.04094,-9.07634 10.80257,2.89819 14.54542,2.25465 -6.29181,9.00007 -37.78658,20.40677 -19.67576,7.27894 9.08961,2.35231 2.90923,-5.27291 5.13034,-9.53359 z"
     id="path422"
     inkscape:connector-curvature="0" />
  <path
     style="fill:#e4ca55"
     d="m 110.7265,164.55657 c 23.53773,-3.49102 8.2488,39.97512 1.77053,10.65707 l -1.03156,-5.31523 -0.73897,-5.34184 z"
     id="path424"
     inkscape:connector-curvature="0" />
  <path
     style="fill:#855435"
     d="m 459.10915,189.46084 c -0.66804,-11.16691 1.51582,-36.13192 1.04191,-11.48196 -0.65399,0.90462 1.21689,17.99228 -1.04191,11.48196 z"
     id="path426"
     inkscape:connector-curvature="0" />
  <path
     style="fill:#8a5836"
     d="m 242.11302,165.31623 c 6.42158,10.80172 20.67374,40.77208 4.95748,15.0961 -2.27865,-4.82247 -3.78166,-9.93957 -4.95748,-15.0961 z"
     id="path428"
     inkscape:connector-curvature="0" />
  <path
     style="fill:#731f1f"
     d="m 607.73282,178.1482 c 7.80891,-14.35757 18.08634,-11.45917 17.00669,5.6117 -0.92555,15.54107 -29.66475,29.80592 -32.25373,19.35355 7.86724,-6.66256 11.67564,-16.01991 15.24704,-24.96525 z"
     id="path430"
     inkscape:connector-curvature="0" />
  <path
     style="fill:#b47f38"
     d="m 146.1515,178.34041 c 7.74239,-7.32464 17.71176,-14.0764 9.79223,-1.39878 -11.65587,-0.72847 -8.62959,14.6039 -22.0244,14.60891 15.37694,11.39488 -26.80881,-1.05144 -9.04478,-4.34772 6.18064,7.86309 17.47667,-4.46043 21.27695,-8.86241 z"
     id="path432"
     inkscape:connector-curvature="0" />
  <path
     style="fill:#c9a960"
     d="m 329.53758,167.24744 c 6.71787,6.01743 -0.31685,26.55724 17.0547,18.53404 12.40032,6.44887 -29.26525,12.56933 -15.7042,-2.33016 0.5396,-5.43072 -0.28694,-10.87848 -1.3505,-16.20388 z"
     id="path434"
     inkscape:connector-curvature="0" />
  <path
     style="fill:#918239"
     d="m 306.30822,168.43728 c 3.76475,2.99403 -0.94026,6.26304 0,0 z"
     id="path436"
     inkscape:connector-curvature="0" />
  <path
     style="fill:#825a39"
     d="m 123.32547,169.91085 c 2.69211,11.12904 -1.57274,11.9524 0,0 z"
     id="path438"
     inkscape:connector-curvature="0" />
  <path
     style="fill:#875a43"
     d="m 347.16845,169.98407 c 2.53907,13.40168 -1.56953,23.48798 -0.1589,3.94721 l 0.1589,-3.94721 z"
     id="path440"
     inkscape:connector-curvature="0" />
  <path
     style="fill:#cd9f49"
     d="m 518.80061,182.84349 c 5.60681,-26.27393 -5.48935,7.18787 8.10002,10.91107 -10.04686,-0.89698 -39.09625,4.34595 -24.90985,-8.79109 -3.36886,-6.96339 7.06111,9.52571 10.16464,-3.79948 l 3.53776,-0.10325 3.10743,1.78275 z"
     id="path442"
     inkscape:connector-curvature="0" />
  <path
     style="fill:#c09449"
     d="m 541.86671,181.90993 c 10.63767,4.93064 7.23347,-24.11807 6.94408,-2.06163 9.8247,15.94863 -12.70999,18.89913 -6.94408,2.06163 z"
     id="path444"
     inkscape:connector-curvature="0" />
  <path
     style="fill:#a57b35"
     d="m 501.76511,170.77119 c 7.57204,12.49471 -15.02725,25.43403 5.6849,22.96392 -30.45029,2.90053 0.7656,-6.29239 -5.6849,-22.96392 z"
     id="path446"
     inkscape:connector-curvature="0" />
  <path
     style="fill:#ddc967"
     d="m 624.97958,173.57189 c 20.54872,2.58878 37.09482,24.38462 52.42839,28.64383 -20.74887,1.71279 -39.6677,-14.90771 -52.42839,-28.64383 z"
     id="path448"
     inkscape:connector-curvature="0" />
  <path
     style="fill:#d8b64e"
     d="m 645.51052,178.23973 c 10.47656,-15.44983 25.10606,23.50292 25.60262,21.09192 -4.83115,-1.45887 -45.06449,-29.10597 -25.60262,-21.09192 z"
     id="path450"
     inkscape:connector-curvature="0" />
  <path
     style="fill:#b9864d"
     d="m 307.64302,173.53528 c -1.45455,10.75333 14.75542,23.50504 -5.16634,19.40355 8.57383,-3.725 4.72118,-12.79018 5.16634,-19.40355 z"
     id="path452"
     inkscape:connector-curvature="0" />
  <path
     style="fill:#dbb051"
     d="m 301.66043,176.68378 c 11.90988,-5.67693 5.98476,26.70073 -11.52344,16.35573 -6.96241,-8.52122 -1.37432,-24.15049 8.65789,-11.30648 2.52838,0.14834 4.83103,-3.00172 2.86555,-5.04925 z"
     id="path454"
     inkscape:connector-curvature="0" />
  <path
     style="fill:#d1a954"
     d="m 445.01213,192.91137 c -5.6918,-8.08246 -8.38563,-19.7431 1.25798,-11.33094 17.99448,-11.86174 19.85577,22.61949 -1.25798,11.33094 z"
     id="path456"
     inkscape:connector-curvature="0" />
  <path
     style="fill:#dec949"
     d="m 595.69082,185.76318 c 24.15739,-25.7138 0.51121,24.41468 -17.67889,14.5069 3.16904,-2.88478 16.31947,-30.80909 17.67889,-14.5069 z"
     id="path458"
     inkscape:connector-curvature="0" />
  <path
     style="fill:#412c1b"
     d="m 140.49541,179.25567 c 15.68992,-3.71239 -3.18449,9.33133 0,0 z"
     id="path460"
     inkscape:connector-curvature="0" />
  <path
     style="fill:#ad642e"
     d="m 98.281171,179.00855 c -4.455318,21.29887 33.271929,9.25694 28.803219,17.68559 -18.46746,2.05202 -33.907517,6.41687 -28.803219,-17.68559 z"
     id="path462"
     inkscape:connector-curvature="0" />
  <path
     style="fill:#c7a761"
     d="m 147.32305,185.73572 c 24.35685,-3.66923 -25.61415,16.7894 -8.48774,2.97117 l 4.59002,-0.8459 3.89772,-2.12527 z"
     id="path464"
     inkscape:connector-curvature="0" />
  <path
     style="fill:#d1a34d"
     d="m 232.3661,184.82961 c 12.49655,3.09266 16.19122,16.67984 3.19791,2.73491 l -3.19791,-2.73491 z"
     id="path466"
     inkscape:connector-curvature="0" />
  <path
     style="fill:#8f7c45"
     d="m 635.02419,184.67402 c 14.72813,6.18346 25.01558,18.63349 5.73291,4.53054 l -3.26618,-1.76416 -2.46673,-2.76638 z"
     id="path468"
     inkscape:connector-curvature="0" />
  <path
     style="fill:#845a36"
     d="m 432.06746,193.6985 c 2.687,-7.70292 14.44747,3.47827 27.49302,0.48509 -9.14002,1.31756 -18.31854,-0.64687 -27.49302,-0.48509 z"
     id="path470"
     inkscape:connector-curvature="0" />
  <path
     style="fill:#8c614b"
     d="m 351.0096,189.30524 c 15.55077,8.10994 -35.77155,4.28039 -13.39601,4.21936 -18.32824,-1.54994 0.79434,-1.99244 8.50484,-2.50939 l 4.89117,-1.70997 z"
     id="path472"
     inkscape:connector-curvature="0" />
  <path
     style="fill:#b1aead"
     d="m 95.813232,191.18153 c 2.928922,7.60973 -3.456685,6.66473 0,0 z"
     id="path474"
     inkscape:connector-curvature="0" />
  <path
     style="fill:#3b1d1a"
     d="m 145.39287,200.7094 c 12.32712,-2.5968 37.02714,-14.75002 13.23985,-2.40824 -5.55634,4.51386 -32.88351,5.90827 -13.23985,2.40824 z"
     id="path476"
     inkscape:connector-curvature="0" />
  <path
     style="fill:#8b4e3d"
     d="m 460.04063,191.33712 c 5.52582,0.73965 -3.83902,6.13414 0,0 z"
     id="path478"
     inkscape:connector-curvature="0" />
  <path
     style="fill:#3c1e1c"
     d="m 364.91456,193.10358 c 25.42612,9.05643 -43.12808,5.04922 -8.44693,4.7422 2.00337,-1.45849 18.84624,1.6134 8.44693,-4.7422 z"
     id="path480"
     inkscape:connector-curvature="0" />
  <path
     style="fill:#9b9895"
     d="m 293.91092,195.4558 c -6.0462,2.81987 -2.52449,-3.65505 0,0 z"
     id="path482"
     inkscape:connector-curvature="0" />
  <path
     style="fill:#837f7c"
     d="m 440.01863,195.21783 c 7.75858,-2.80329 6.9647,3.37256 0,0 z"
     id="path484"
     inkscape:connector-curvature="0" />
  <path
     style="fill:#94908e"
     d="m 496.0418,196.36191 c 7.87938,-3.23263 9.37405,2.4397 0,0 z"
     id="path486"
     inkscape:connector-curvature="0" />
  <path
     style="fill:#331914"
     d="m 502.22605,195.89512 c 7.55174,10.31843 63.91456,-2.00919 33.50549,5.43283 -10.69026,-1.83508 -26.00539,4.23677 -33.50549,-5.43283 z"
     id="path488"
     inkscape:connector-curvature="0" />
  <path
     style="fill:#94794b"
     d="m 657.90783,199.43719 c 13.42117,2.55783 12.41434,4.78302 0,0 z"
     id="path490"
     inkscape:connector-curvature="0" />
  <path
     style="fill:#8e7346"
     d="m 248.88304,200.38906 c 16.47642,2.44281 10.0879,7.07202 0,0 z"
     id="path492"
     inkscape:connector-curvature="0" />
  <path
     style="fill:#b28054"
     d="m 677.53611,200.02295 c 9.2468,6.46716 -22.66599,0.80824 -0.12814,2.19277 l 0.46727,-0.79311 -0.33913,-1.39966 z"
     id="path494"
     inkscape:connector-curvature="0" />
  <path
     style="fill:#381f19"
     d="m 690.57681,201.33178 c 23.88444,10.84258 -15.21855,10.58158 -6.21936,7.22098 9.74798,3.08099 17.99597,3.83957 6.21936,-7.22098 z"
     id="path496"
     inkscape:connector-curvature="0" />
  <path
     style="fill:#a19b9a"
     d="m 576.54269,202.16467 c 10.76812,-2.04835 0.83979,3.69902 0,0 z"
     id="path498"
     inkscape:connector-curvature="0" />
  <path
     style="fill:#a9a4a4"
     d="m 590.9662,206.75928 c 7.62678,-2.33246 0.87591,3.77769 0,0 z"
     id="path500"
     inkscape:connector-curvature="0" />
</svg>
