<?xml version="1.0" encoding="utf-8"?>
<!-- Generator: Adobe Illustrator 16.0.3, SVG Export Plug-In . SVG Version: 6.00 Build 0)  -->
<!DOCTYPE svg PUBLIC "-//W3C//DTD SVG 1.1//EN" "http://www.w3.org/Graphics/SVG/1.1/DTD/svg11.dtd">
<svg version="1.1" id="Ebene_1" xmlns="http://www.w3.org/2000/svg" xmlns:xlink="http://www.w3.org/1999/xlink" x="0px" y="0px"
	 width="566.929px" height="170.079px" viewBox="0 -13.883 566.929 170.079" enable-background="new 0 -13.883 566.929 170.079"
	 xml:space="preserve">
<path fill="#404040" d="M240.575,77.262c-14.877,14.885-14.877,39.008,0,53.894c14.885,14.877,39.008,14.877,53.893,0
	c12.871-12.871,14.605-32.655,5.219-47.392l-20.5,20.5c-0.016,2.971-1.151,5.934-3.414,8.194c-4.557,4.55-11.945,4.55-16.502,0
	c-4.55-4.557-4.55-11.942,0-16.501c4.557-4.55,11.945-4.55,16.502,0l0.35,0.372l18.705-18.703l-0.356-0.364
	C279.583,62.385,255.46,62.385,240.575,77.262z"/>
<path d="M92.1,142.16l92.101-104.839h-38.433l-58.87,59.936c-1.797,1.827-4.713,1.827-6.509,0c-1.796-1.826-1.796-4.798,0-6.634
	l52.361-53.301H0L92.1,142.16z"/>
<path fill="#404040" d="M503.134,104.037l-31.893,37.501h26.061l24.832-25.282c1.439-1.463,3.771-1.463,5.211,0
	c1.438,1.462,1.438,3.834,0,5.306l-19.621,19.979h59.205l-31.893-37.501l31.893-37.499h-26.061l-24.832,25.282
	c-1.439,1.47-3.771,1.47-5.211,0c-1.439-1.462-1.439-3.833,0-5.304l19.621-19.979h-59.205L503.134,104.037z"/>
<path fill="#404040" d="M356.339,66.539v75h23.938V92.793h18.15l22.326-26.254h-26.061l-24.839,25.282
	c-1.431,1.47-3.765,1.47-5.202,0c-1.439-1.462-1.439-3.833,0-5.304l19.62-19.979L356.339,66.539L356.339,66.539z"/>
<path fill="#404040" d="M338.494,66.857h14.465l23.892-24.691h-38.354V0l-58.35,66.857h25.518l17.473-16.23
	c1.439-1.462,3.773-1.462,5.203,0c1.438,1.472,1.438,3.842,0,5.306L314.56,69.969v71.57h23.938V66.857H338.494z"/>
<path fill="#404040" d="M158.919,77.262c-14.877,14.885-14.877,39.008,0,53.894c14.885,14.877,39.008,14.877,53.893,0
	c12.871-12.871,14.605-32.655,5.218-47.392l-20.5,20.5c-0.016,2.971-1.151,5.934-3.414,8.194c-3.741,3.733-9.379,4.401-13.796,2.017
	l34.747-34.747c-0.599-0.715-4.425-4.512-5.576-5.42C194.537,62.456,172.738,63.443,158.919,77.262z M175.094,108.704
	c-1.765-4.229-0.925-9.301,2.52-12.745c3.445-3.444,8.516-4.286,12.746-2.521L175.094,108.704z"/>
<path fill="#404040" d="M418.664,77.262c-14.877,14.885-14.877,39.008,0,53.894c14.887,14.877,39.01,14.877,53.895,0
	c12.871-12.871,14.605-32.655,5.221-47.392l-20.5,20.5c-0.018,2.971-1.15,5.934-3.414,8.194c-3.74,3.733-9.379,4.401-13.795,2.017
	l34.746-34.747c-0.602-0.715-4.428-4.512-5.576-5.42C454.283,62.456,432.484,63.443,418.664,77.262z M434.839,108.704
	c-1.766-4.229-0.926-9.301,2.52-12.745s8.518-4.286,12.746-2.521L434.839,108.704z"/>
</svg>
