<?xml version="1.0" encoding="UTF-8" standalone="no"?>
<!-- Generator: Adobe Illustrator 16.0.0, SVG Export Plug-In . SVG Version: 6.00 Build 0)  -->

<svg
   xmlns:dc="http://purl.org/dc/elements/1.1/"
   xmlns:cc="http://creativecommons.org/ns#"
   xmlns:rdf="http://www.w3.org/1999/02/22-rdf-syntax-ns#"
   xmlns:svg="http://www.w3.org/2000/svg"
   xmlns="http://www.w3.org/2000/svg"
   xmlns:sodipodi="http://sodipodi.sourceforge.net/DTD/sodipodi-0.dtd"
   xmlns:inkscape="http://www.inkscape.org/namespaces/inkscape"
   version="1.1"
   id="Calque_1"
   x="0px"
   y="0px"
   width="64px"
   height="64px"
   viewBox="0 0 64 64"
   enable-background="new 0 0 64 64"
   xml:space="preserve"
   inkscape:version="0.91 r13725"
   sodipodi:docname="controller.svg"
   inkscape:export-filename="/home/lollo78/Scrivania/Atari - 5200"
   inkscape:export-xdpi="360"
   inkscape:export-ydpi="360"><metadata
     id="metadata8"><rdf:RDF><cc:Work
         rdf:about=""><dc:format>image/svg+xml</dc:format><dc:type
           rdf:resource="http://purl.org/dc/dcmitype/StillImage" /></cc:Work></rdf:RDF></metadata><defs
     id="defs6" /><sodipodi:namedview
     pagecolor="#ffffff"
     bordercolor="#666666"
     borderopacity="1"
     objecttolerance="10"
     gridtolerance="10"
     guidetolerance="10"
     inkscape:pageopacity="0"
     inkscape:pageshadow="2"
     inkscape:window-width="873"
     inkscape:window-height="373"
     id="namedview4"
     showgrid="false"
     showguides="true"
     inkscape:guide-bbox="true"
     inkscape:zoom="3.9999999"
     inkscape:cx="11.923356"
     inkscape:cy="53.510203"
     inkscape:window-x="134"
     inkscape:window-y="574"
     inkscape:window-maximized="0"
     inkscape:current-layer="Calque_1" /><path
     style="fill:#f2f2f2;fill-opacity:1"
     d="m 45.195312,1.7753906 -26.412109,0.087891 -0.002,31.6689258 1.457031,29.036152 23.5,-0.0039 1.457031,-29.05373 z m -14.546874,2.3886719 2.623046,0 c 1.011564,0 1.830078,0.3374754 1.830078,0.7558594 l 0,2.9003906 c 0,0.418386 -0.818514,0.7558594 -1.830078,0.7558594 l -2.623046,0 c -1.011564,0 -1.830079,-0.3374744 -1.830079,-0.7558594 l 0,-2.9003906 c 0,-0.418384 0.818514,-0.7558594 1.830079,-0.7558594 z m -7.248047,0.00391 2.558593,0 c 1.011565,0 1.830078,0.3374762 1.830078,0.7558593 l 0,2.9003907 c 0,0.4183839 -0.818513,0.7558593 -1.830078,0.7558593 l -2.558593,0 c -1.011565,0 -1.830078,-0.3374754 -1.830079,-0.7558593 l 0,-2.9003907 c 0,-0.418384 0.818514,-0.7558593 1.830079,-0.7558593 z m 14.513671,0.00391 2.623047,0 c 1.011564,0 1.830079,0.3394345 1.830079,0.7578125 l 0,2.8984375 c 0,0.418383 -0.818515,0.7558594 -1.830079,0.7558594 l -2.623047,0 c -1.011563,0 -1.830078,-0.3374764 -1.830078,-0.7558594 l 0,-2.8984375 c 0,-0.418381 0.818515,-0.7578125 1.830078,-0.7578125 z m -8.429687,0.7128906 0,2.9824219 4.964844,0 0,-2.9824219 z m 7.3125,0.00586 0,2.9003906 4.884766,0 0,-2.9003906 z m -14.5625,0.00391 0,2.9003907 4.818359,0 0,-2.9003907 z m -5.966797,1.2753907 0,10.8789061 1.652344,0 0,-10.8789061 z m 29.789063,0 0,10.8789061 1.652343,0 0,-10.8789061 z M 32,10.563457 c 4.646602,0 8.693359,3.953007 8.693359,8.59961 0,4.646599 -4.046757,8.693359 -8.693359,8.693359 -4.646602,0 -8.691406,-4.046757 -8.691406,-8.693359 0,-4.646602 4.044804,-8.59961 8.691406,-8.59961 z m -0.01172,1.033204 c -4.161584,6.38e-4 -7.632914,3.442995 -7.632812,7.566406 -1.02e-4,4.123408 3.471221,7.563815 7.632812,7.564453 4.162393,4.86e-4 7.634868,-3.440248 7.634766,-7.564453 1.02e-4,-4.124208 -3.472368,-7.566893 -7.634766,-7.566406 z m -0.02148,1.328124 c 3.557779,0 6.310547,2.75278 6.310547,6.310547 0,3.557779 -2.752768,6.308594 -6.310547,6.308594 -3.557778,0 -6.308594,-2.750815 -6.308594,-6.308594 0,-3.557767 2.750816,-6.310547 6.308594,-6.310547 z m -0.01563,1.142579 c -3.025094,-4.72e-4 -5.20637,2.179985 -5.207031,5.205078 -4.72e-4,3.025895 2.181136,5.205551 5.207031,5.205078 3.025093,-6.62e-4 5.20555,-2.179983 5.205078,-5.205078 -6.61e-4,-3.02429 -2.180787,-5.204415 -5.205078,-5.205078 z m 0.01563,1.441406 c 2.026787,0 3.792969,1.725165 3.792969,3.751953 0,2.026786 -1.766182,3.791016 -3.792969,3.791016 -2.026788,0 -3.791016,-1.764229 -3.791016,-3.791016 0,-2.026788 1.764228,-3.751953 3.791016,-3.751953 z m -0.0039,0.763672 c -1.815228,2.78e-4 -3.017623,1.189702 -3.017579,2.988281 -4.3e-5,1.798577 1.202348,2.986049 3.017579,2.986328 1.815582,2.12e-4 3.017623,-1.187404 3.017578,-2.986328 4.5e-5,-1.79893 -1.201993,-2.988498 -3.017578,-2.988281 z M 20.0625,29.627911 l 23.878906,0 0,3.886718 -23.878906,0 z m 11.003906,6.328124 1.830078,0 c 1.011563,0 1.828125,0.339432 1.828125,0.757813 l 0,2.898437 c 0,0.418383 -0.81656,0.757813 -1.828125,0.757813 l -1.830078,0 c -1.011563,0 -1.828125,-0.33943 -1.828125,-0.757813 l 0,-2.898437 c 0,-0.418381 0.816562,-0.757813 1.828125,-0.757813 z m -7.267578,0.0039 1.830078,0 c 1.011565,0 1.828125,0.339426 1.828125,0.757812 l 0,2.898438 c 0,0.418384 -0.81656,0.755859 -1.828125,0.755859 l -1.830078,0 c -1.011565,0 -1.828117,-0.337475 -1.828125,-0.755859 l 0,-2.898438 c 0,-0.418386 0.81656,-0.757812 1.828125,-0.757812 z m 14.533203,0.0039 1.830078,0 c 1.011565,0 1.828125,0.337475 1.828125,0.755859 l 0,2.900391 c 0,0.418384 -0.81656,0.755859 -1.828125,0.755859 l -1.830078,0 c -1.011562,0 -1.828125,-0.337475 -1.828125,-0.755859 l 0,-2.900391 c 0,-0.418384 0.816563,-0.755859 1.828125,-0.755859 z m -15.695312,0.769531 0,2.898438 4.08789,0 0,-2.898438 z m 7.308593,0.0078 0,2.898437 4.089844,0 0,-2.898437 z m 7.285157,0 0,2.898437 4.089843,0 0,-2.898437 z m -6.208985,5.216797 1.828125,0 c 1.011564,0 1.830079,0.337475 1.830079,0.755859 l 0,2.898437 c 0,0.418386 -0.818515,0.757813 -1.830079,0.757813 l -1.828125,0 c -1.011564,0 -1.830078,-0.339427 -1.830078,-0.757813 l 0,-2.898437 c 0,-0.418384 0.818514,-0.755859 1.830078,-0.755859 z m -7.267578,0.0039 1.828125,0 c 1.011565,0 1.830078,0.339429 1.830078,0.757812 l 0,2.896485 c 0,0.418383 -0.818513,0.757812 -1.830078,0.757812 l -1.828125,0 c -1.011565,0 -1.830078,-0.339429 -1.830078,-0.757812 l 0,-2.896485 c 0,-0.418383 0.818513,-0.757812 1.830078,-0.757812 z m 14.533203,0.0039 1.828125,0 c 1.011564,0 1.830078,0.33943 1.830078,0.757813 l 0,2.896484 c 0,0.418382 -0.818514,0.755859 -1.830078,0.755859 l -1.828125,0 c -1.011563,0 -1.830078,-0.337477 -1.830078,-0.755859 l 0,-2.896484 c 0,-0.418383 0.818515,-0.757813 1.830078,-0.757813 z m -15.65625,0.775391 0,2.90039 4.087891,0 0,-2.90039 z m 7.308594,0.0059 0,2.902344 4.087891,0 0,-2.902344 z m 7.285156,0 0,2.902344 4.089844,0 0,-2.902344 z m -6.183593,5.210938 1.830078,0 c 1.011563,0 1.828125,0.337475 1.828125,0.755859 l 0,2.900391 c 0,0.418384 -0.816562,0.755859 -1.828125,0.755859 l -1.830078,0 c -1.011563,0 -1.828125,-0.337475 -1.828125,-0.755859 l 0,-2.900391 c 0,-0.418384 0.816562,-0.755859 1.828125,-0.755859 z m -7.265625,0.0039 1.830078,0 c 1.011564,0 1.828125,0.337476 1.828125,0.755859 l 0,2.900391 c 0,0.418383 -0.816561,0.755859 -1.828125,0.755859 l -1.830078,0 c -1.011564,0 -1.828125,-0.337476 -1.828125,-0.755859 l 0,-2.900391 c 0,-0.418383 0.816561,-0.755859 1.828125,-0.755859 z m 14.533203,0.0039 1.830078,0 c 1.011565,0 1.828125,0.337477 1.828125,0.75586 l 0,2.898437 c 0,0.418383 -0.81656,0.759766 -1.828125,0.759766 l -1.830078,0 c -1.011564,0 -1.828125,-0.341383 -1.828125,-0.759766 l 0,-2.898437 c 0,-0.418383 0.816561,-0.75586 1.828125,-0.75586 z m -15.695313,0.738281 0,2.900391 4.087891,0 0,-2.900391 z m 7.310547,0.0078 0,2.90039 4.181641,0 0,-2.90039 z m 7.269531,0 0,2.90039 4.121094,0 0,-2.90039 z m -6.132812,5.246094 1.828125,0 c 1.011564,0 1.830078,0.337475 1.830078,0.755859 l 0,2.900391 c 0,0.418386 -0.818514,0.755859 -1.830078,0.755859 l -1.828125,0 c -1.011564,0 -1.830078,-0.337474 -1.830078,-0.755859 l 0,-2.900391 c 0,-0.418384 0.818514,-0.755859 1.830078,-0.755859 z m -7.267578,0.0039 1.828125,0 c 1.011565,0 1.830078,0.337476 1.830078,0.755859 l 0,2.900391 c 0,0.418384 -0.818513,0.755859 -1.830078,0.755859 l -1.828125,0 c -1.011565,0 -1.830078,-0.337475 -1.830078,-0.755859 l 0,-2.900391 c 0,-0.418384 0.818513,-0.755859 1.830078,-0.755859 z m 14.533203,0.0039 1.828125,0 c 1.011564,0 1.830078,0.339435 1.830078,0.757813 l 0,2.898437 c 0,0.418383 -0.818514,0.75586 -1.830078,0.75586 l -1.828125,0 c -1.011563,0 -1.830078,-0.337477 -1.830078,-0.75586 l 0,-2.898437 c 0,-0.418381 0.818515,-0.757813 1.830078,-0.757813 z m -8.429688,0.712891 0,2.982422 4.169922,0 0,-2.982422 z m 7.3125,0.0059 0,2.900391 4.089844,0 0,-2.900391 z m -14.582031,0.0039 0,2.900391 4.087891,0 0,-2.900391 z"
     id="rect3343-0"
     inkscape:connector-curvature="0"
     sodipodi:nodetypes="cccccccssssssssssssssssssssssssssscccccccccccccccccccccccccssssscccccssssscccccsssssccccccccccssssssssssssssscssssssssssscccccccccccccccssssssssssssssssssssssssssscccccccccccccccssssssssssssssssssssssssssscccccccccccccccsssssssssssssssssssssssssssccccccccccccccc" /><g
     id="g3427" /></svg>