<?xml version="1.0" encoding="UTF-8" standalone="no"?>
<!-- Generator: Adobe Illustrator 16.0.0, SVG Export Plug-In . SVG Version: 6.00 Build 0)  -->

<svg
   xmlns:dc="http://purl.org/dc/elements/1.1/"
   xmlns:cc="http://creativecommons.org/ns#"
   xmlns:rdf="http://www.w3.org/1999/02/22-rdf-syntax-ns#"
   xmlns:svg="http://www.w3.org/2000/svg"
   xmlns="http://www.w3.org/2000/svg"
   xmlns:sodipodi="http://sodipodi.sourceforge.net/DTD/sodipodi-0.dtd"
   xmlns:inkscape="http://www.inkscape.org/namespaces/inkscape"
   version="1.1"
   id="svg2"
   inkscape:export-filename="/home/lollo78/Scrivania/Cave Story-content.png"
   inkscape:export-xdpi="360"
   inkscape:version="0.91 r13725"
   inkscape:export-ydpi="360"
   sodipodi:docname="Cave Story-content.svg"
   x="0px"
   y="0px"
   width="64px"
   height="64px"
   viewBox="0 128 64 64"
   enable-background="new 0 128 64 64"
   xml:space="preserve"><metadata
     id="metadata8"><rdf:RDF><cc:Work
         rdf:about=""><dc:format>image/svg+xml</dc:format><dc:type
           rdf:resource="http://purl.org/dc/dcmitype/StillImage" /></cc:Work></rdf:RDF></metadata><defs
     id="defs6" /><sodipodi:namedview
     pagecolor="#ffffff"
     bordercolor="#666666"
     borderopacity="1"
     objecttolerance="10"
     gridtolerance="10"
     guidetolerance="10"
     inkscape:pageopacity="0"
     inkscape:pageshadow="2"
     inkscape:window-width="1615"
     inkscape:window-height="1026"
     id="namedview4"
     showgrid="false"
     inkscape:zoom="3.6875"
     inkscape:cx="-33.922529"
     inkscape:cy="22.920145"
     inkscape:window-x="1985"
     inkscape:window-y="24"
     inkscape:window-maximized="1"
     inkscape:current-layer="svg2" /><path
     style="fill:#f2f2f2;fill-opacity:1"
     d="m 27.280281,177.22762 0,-2.57985 1.28992,0 1.28992,0 0,-1.28991 0,-1.28992 1.28992,0 1.28992,0 0,-1.28992 0,-1.28992 -1.28992,0 -1.28992,0 0,-2.57984 0,-2.57984 1.28992,0 1.28992,0 0,-1.28992 0,-1.28992 -5.15968,0 -5.15968,0 0,-1.28992 0,-1.28992 -1.28992,0 -1.28992,0 0,-1.28992 0,-1.28992 -1.28991,0 -1.28993,0 0,-2.57984 0,-2.57984 -1.28992,0 -1.28992,0 0,-2.57984 0,-2.57983 1.28992,0 1.28992,0 0,2.57983 0,2.57984 1.28993,0 1.28991,0 0,-3.86976 0,-3.86976 1.28992,0 1.28992,0 0,-1.28992 0,-1.28991 1.28992,0 1.28992,0 0,1.28991 0,1.28992 12.8992,0 12.8992,0 0,1.28992 0,1.28993 -2.57984,0 -2.57984,0 0,1.28991 0,1.28992 -1.28992,0 -1.28992,0 0,3.86976 0,3.86976 1.28992,0 1.28992,0 0,-2.57984 0,-2.57984 1.28991,0 1.28993,0 0,2.57984 0,2.57984 -1.28993,0 -1.28991,0 0,1.28992 0,1.28992 -1.28992,0 -1.28992,0 0,1.28992 0,1.28992 -3.86976,0 -3.86976,0 0,1.28992 0,1.28992 1.28992,0 1.28992,0 0,5.15968 0,5.15967 -1.28992,0 -1.28992,0 0,1.28993 0,1.28992 2.57984,0 2.57984,0 0,1.28992 0,1.28991 -6.4496,0 -6.4496,0 0,-2.57983 z m 7.73952,-16.76896 0,-1.28992 3.86976,0 3.86976,0 0,-1.28992 0,-1.28992 -1.28992,0 -1.28992,0 0,-3.86976 0,-3.86976 1.28992,0 1.28992,0 0,-1.28992 0,-1.28991 -5.15968,0 -5.15968,0 0,1.28991 0,1.28992 -2.57984,0 -2.57984,0 0,3.86976 0,3.86976 -1.28992,0 -1.28992,0 0,-3.86976 0,-3.86976 -1.28992,0 -1.28992,0 0,5.15968 0,5.15968 5.15968,0 5.15968,0 0,1.28992 0,1.28992 1.28992,0 1.28992,0 0,-1.28992 z"
     id="path4147-6-9"
     inkscape:connector-curvature="0" /></svg>