<?xml version="1.0" encoding="UTF-8" standalone="no"?>
<!-- Generator: Adobe Illustrator 16.0.0, SVG Export Plug-In . SVG Version: 6.00 Build 0)  -->

<svg
   xmlns:dc="http://purl.org/dc/elements/1.1/"
   xmlns:cc="http://creativecommons.org/ns#"
   xmlns:rdf="http://www.w3.org/1999/02/22-rdf-syntax-ns#"
   xmlns:svg="http://www.w3.org/2000/svg"
   xmlns="http://www.w3.org/2000/svg"
   xmlns:sodipodi="http://sodipodi.sourceforge.net/DTD/sodipodi-0.dtd"
   xmlns:inkscape="http://www.inkscape.org/namespaces/inkscape"
   version="1.1"
   id="svg2"
   inkscape:export-filename="/home/kivutar/Bureau/lakka-menu/reload.png"
   inkscape:export-xdpi="90"
   inkscape:version="0.91 r13725"
   inkscape:export-ydpi="90"
   sodipodi:docname="FFmpeg.svg"
   x="0px"
   y="0px"
   width="64px"
   height="64px"
   viewBox="0 128 64 64"
   enable-background="new 0 128 64 64"
   xml:space="preserve"><metadata
     id="metadata8"><rdf:RDF><cc:Work
         rdf:about=""><dc:format>image/svg+xml</dc:format><dc:type
           rdf:resource="http://purl.org/dc/dcmitype/StillImage" /></cc:Work></rdf:RDF></metadata><defs
     id="defs6" /><sodipodi:namedview
     pagecolor="#ffffff"
     bordercolor="#666666"
     borderopacity="1"
     objecttolerance="10"
     gridtolerance="10"
     guidetolerance="10"
     inkscape:pageopacity="0"
     inkscape:pageshadow="2"
     inkscape:window-width="928"
     inkscape:window-height="1028"
     id="namedview4"
     showgrid="false"
     inkscape:zoom="3.6875"
     inkscape:cx="59.204087"
     inkscape:cy="35.782472"
     inkscape:window-x="2399"
     inkscape:window-y="52"
     inkscape:window-maximized="0"
     inkscape:current-layer="svg2" /><path
     inkscape:connector-curvature="0"
     style="fill:#f2f2f2;fill-opacity:1"
     d="m 32.215306,133.24742 c -22.4150001,0 -27.0000001,4.553 -27.0000001,27 0,22.447 4.514,27 27.0000001,27 22.489,0 27,-4.544 27,-27 0,-22.458 -4.585,-27 -27,-27 z m -10.06836,9.37305 1.29101,0 1.28907,0 0,1.28906 0,1.29101 12.89843,0 12.90039,0 0,1.28907 0,1.29101 -2.58007,0 -2.58008,0 0,1.28906 0,1.29102 0,2.57812 1.28906,0 1.29102,0 0,2.58008 0,2.58008 -1.29102,0 -1.28906,0 0,1.29102 0,1.28906 -1.28906,0 -1.29102,0 0,1.29101 0,1.28907 -3.86914,0 -3.86914,0 0,1.28906 0,1.29101 1.28906,0 1.28906,0 0,5.16016 0,5.1582 -1.28906,0 -1.28906,0 0,1.29102 0,1.28906 2.57812,0 2.58008,0 0,1.29102 0,1.28906 -6.44922,0 -6.44921,0 0,-2.58008 0,-2.58008 1.28906,0 1.29101,0 0,-1.28906 0,-1.29101 1.28907,0 1.29101,0 0,-1.28907 0,-1.28906 -1.29101,0 -1.28907,0 0,-2.58008 0,-2.58008 1.28907,0 1.29101,0 0,-1.29101 0,-1.28906 -5.16015,0 -5.16016,0 0,-1.28907 0,-1.29101 -1.28906,0 -1.29102,0 0,-1.28906 0,-1.29102 -1.28906,0 -1.29102,0 0,-2.58008 0,-2.58008 -1.28906,0 -1.29102,0 0,-2.57812 0,-2.58008 1.29102,0 1.28906,0 0,2.58008 0,2.57812 1.29102,0 1.28906,0 0,-3.86914 0,-3.86914 1.29102,0 1.28906,0 0,-1.29101 0,-1.28906 z m 2.57226,7.68554 0,7.73633 2.58985,0 0,-7.73633 -2.58985,0 z m 15.48243,0.0605 0,7.73633 2.58984,0 0,-7.73633 -2.58984,0 z"
     id="Utilities-6" /></svg>