<?xml version="1.0" encoding="UTF-8" standalone="no"?>
<!-- Generator: Adobe Illustrator 16.0.0, SVG Export Plug-In . SVG Version: 6.00 Build 0)  -->

<svg
   xmlns:dc="http://purl.org/dc/elements/1.1/"
   xmlns:cc="http://creativecommons.org/ns#"
   xmlns:rdf="http://www.w3.org/1999/02/22-rdf-syntax-ns#"
   xmlns:svg="http://www.w3.org/2000/svg"
   xmlns="http://www.w3.org/2000/svg"
   xmlns:sodipodi="http://sodipodi.sourceforge.net/DTD/sodipodi-0.dtd"
   xmlns:inkscape="http://www.inkscape.org/namespaces/inkscape"
   version="1.1"
   id="svg2"
   inkscape:export-filename="C:\Users\lollo78\Desktop\Coleco - ColecoVision-content.png"
   inkscape:export-xdpi="360"
   inkscape:version="0.91 r13725"
   inkscape:export-ydpi="360"
   sodipodi:docname="Coleco - ColecoVision-content.svg"
   x="0px"
   y="0px"
   width="64px"
   height="64px"
   viewBox="0 128 64 64"
   enable-background="new 0 128 64 64"
   xml:space="preserve"><metadata
     id="metadata8"><rdf:RDF><cc:Work
         rdf:about=""><dc:format>image/svg+xml</dc:format><dc:type
           rdf:resource="http://purl.org/dc/dcmitype/StillImage" /></cc:Work></rdf:RDF></metadata><defs
     id="defs6" /><sodipodi:namedview
     pagecolor="#ffffff"
     bordercolor="#666666"
     borderopacity="1"
     objecttolerance="10"
     gridtolerance="10"
     guidetolerance="10"
     inkscape:pageopacity="0"
     inkscape:pageshadow="2"
     inkscape:window-width="1920"
     inkscape:window-height="1057"
     id="namedview4"
     showgrid="false"
     showguides="true"
     inkscape:guide-bbox="true"
     inkscape:zoom="8"
     inkscape:cx="13.722896"
     inkscape:cy="18.188448"
     inkscape:window-x="-8"
     inkscape:window-y="-8"
     inkscape:window-maximized="1"
     inkscape:current-layer="svg2" /><path
     id="SG-1000_1_"
     d="m 52,139 0,-1 -1,0 0,-2 c 0,-0.553 -0.447,-1 -1,-1 l -1,0 0.0078,0.24531 -34.008344,0.0482 L 15,135 l -1,0 c -0.553,0 -1,0.447 -1,1 l 0,2 -1,0 0,1 1,0 0,1 -1,0 0,1 1,0 0,1 -1,0 0,1 1,0 0,1 -1,0 0,1 1,0 0,1 -1,0 0,1 1,0 0,1 -1,0 0,1 1,0 c 0.03439,10.80118 0,22.93034 0,35 0,0.553 0.447,1 1,1 l 36,0 c 0.553,0 1,-0.447 1,-1 l 0,-35 1,0 0,-1 -1,0 0,-1 1,0 0,-1 -1,0 0,-1 1,0 0,-1 -1,0 0,-1 1,0 0,-1 -1,0 0,-1 1,0 0,-1 -1,0 0,-1 z m -3,34 c 0,0.553 -0.447,1 -1,1 l -32,0 c -0.553,0 -1,-0.447 -1,-1 l 0,-33 c 0,-0.553 0.447,-1 1,-1 l 32,0 c 0.553,0 1,0.447 1,1 z m -3,-32 -28,0 c -0.553,0 -1,0.447 -1,1 l 0,29 c 0,0.553 0.447,1 1,1 l 28,0 c 0.553,0 1,-0.447 1,-1 l 0,-29 c 0,-0.553 -0.447,-1 -1,-1 z"
     inkscape:connector-curvature="0"
     style="fill:#f2f2f2"
     sodipodi:nodetypes="cccssccccsscccccccccccccccccccccccccsscccccccccccccccccccccccssssssssssssssssss" /></svg>