<?xml version="1.0" encoding="UTF-8" standalone="no"?>
<!-- Generator: Adobe Illustrator 16.0.0, SVG Export Plug-In . SVG Version: 6.00 Build 0)  -->

<svg
   xmlns:dc="http://purl.org/dc/elements/1.1/"
   xmlns:cc="http://creativecommons.org/ns#"
   xmlns:rdf="http://www.w3.org/1999/02/22-rdf-syntax-ns#"
   xmlns:svg="http://www.w3.org/2000/svg"
   xmlns="http://www.w3.org/2000/svg"
   xmlns:sodipodi="http://sodipodi.sourceforge.net/DTD/sodipodi-0.dtd"
   xmlns:inkscape="http://www.inkscape.org/namespaces/inkscape"
   version="1.1"
   id="Calque_1"
   x="0px"
   y="0px"
   width="64px"
   height="64px"
   viewBox="0 0 64 64"
   enable-background="new 0 0 64 64"
   xml:space="preserve"
   inkscape:version="0.91 r13725"
   sodipodi:docname="Coleco - ColecoVision.svg"
   inkscape:export-filename="C:\Users\lollo78\Desktop\Coleco - ColecoVision.png"
   inkscape:export-xdpi="360"
   inkscape:export-ydpi="360"><metadata
     id="metadata8"><rdf:RDF><cc:Work
         rdf:about=""><dc:format>image/svg+xml</dc:format><dc:type
           rdf:resource="http://purl.org/dc/dcmitype/StillImage" /></cc:Work></rdf:RDF></metadata><defs
     id="defs6" /><sodipodi:namedview
     pagecolor="#ffffff"
     bordercolor="#666666"
     borderopacity="1"
     objecttolerance="10"
     gridtolerance="10"
     guidetolerance="10"
     inkscape:pageopacity="0"
     inkscape:pageshadow="2"
     inkscape:window-width="1920"
     inkscape:window-height="1057"
     id="namedview4"
     showgrid="false"
     showguides="true"
     inkscape:guide-bbox="true"
     inkscape:zoom="7.9999998"
     inkscape:cx="54.712975"
     inkscape:cy="17.449108"
     inkscape:window-x="-8"
     inkscape:window-y="-8"
     inkscape:window-maximized="1"
     inkscape:current-layer="Calque_1" /><rect
     style="fill:#ffffff;fill-opacity:1"
     id="rect3348"
     width="4.1523438"
     height="3.8632812"
     x="-16.464844"
     y="78.726562" /><path
     style="fill:#f2f2f2;fill-opacity:1"
     d="M 19.974609 3.0234375 L 19.974609 19.712891 L 22.566406 22.810547 L 22.566406 23.808594 L 23.539062 23.808594 L 23.492188 29.175781 L 22.519531 29.175781 L 22.519531 30.078125 L 19.974609 32.849609 L 19.974609 61.001953 L 44.001953 60.998047 L 44.001953 32.828125 L 41.417969 30.0625 L 41.417969 29.142578 L 40.449219 29.142578 L 40.449219 23.794922 L 41.417969 23.794922 L 41.417969 22.814453 L 44.001953 19.710938 L 44.001953 3.0234375 L 19.974609 3.0234375 z M 32 5 C 36.418 5 40 8.582 40 13 C 40 17.418 36.418 21 32 21 C 27.582 21 24 17.418 24 13 C 24 8.582 27.582 5 32 5 z M 31.988281 5.9003906 C 28.031436 5.9009977 24.824122 9.0794514 24.824219 13 C 24.824122 16.920548 28.031431 20.099002 31.988281 20.099609 C 35.945894 20.100071 39.154394 16.921305 39.154297 13 C 39.154394 9.0786953 35.945898 5.8999285 31.988281 5.9003906 z M 31.96875 6.9433594 C 35.351494 6.9433594 38.09375 9.6856251 38.09375 13.068359 C 38.09375 16.451103 35.351494 19.193359 31.96875 19.193359 C 28.586006 19.193359 25.84375 16.451103 25.84375 13.068359 C 25.84375 9.6856251 28.586006 6.9433594 31.96875 6.9433594 z M 31.953125 7.8964844 C 29.076859 7.8960356 26.74477 10.22725 26.744141 13.103516 C 26.743692 15.980544 29.076097 18.312949 31.953125 18.3125 C 34.829391 18.31187 37.160605 15.979782 37.160156 13.103516 C 37.159527 10.228013 34.828628 7.897114 31.953125 7.8964844 z M 20.597656 21.658203 L 20.597656 31 L 21.929688 29.601562 L 21.929688 28.666016 L 22.792969 28.666016 L 22.824219 24.445312 L 21.929688 24.445312 L 21.929688 23.199219 L 20.597656 21.658203 z M 43.384766 21.664062 L 42.050781 23.205078 L 42.050781 24.451172 L 41.15625 24.451172 L 41.1875 28.671875 L 42.050781 28.671875 L 42.050781 29.607422 L 43.384766 31.005859 L 43.384766 21.664062 z M 27.220703 23.853516 L 36.900391 23.853516 C 37.156101 23.853516 37.361328 24.060696 37.361328 24.316406 L 37.361328 25.701172 C 37.361328 25.956882 37.156101 26.162109 36.900391 26.162109 L 27.220703 26.162109 C 26.964993 26.162109 26.759766 25.956882 26.759766 25.701172 L 26.759766 24.316406 C 26.759766 24.060696 26.964993 23.853516 27.220703 23.853516 z M 27.513672 24.287109 C 27.292072 24.287109 27.113281 24.4659 27.113281 24.6875 L 27.113281 25.330078 C 27.113281 25.551678 27.292072 25.728516 27.513672 25.728516 L 36.546875 25.728516 C 36.768475 25.728516 36.947266 25.551678 36.947266 25.330078 L 36.947266 24.6875 C 36.947266 24.4659 36.768475 24.287109 36.546875 24.287109 L 27.513672 24.287109 z M 31.111328 36.287109 L 32.851562 36.287109 C 33.813359 36.287109 34.589844 36.610014 34.589844 37.007812 L 34.589844 40.603516 C 34.589844 41.001316 33.813361 41.324219 32.851562 41.324219 L 31.111328 41.324219 C 30.149531 41.324219 29.373047 41.001316 29.373047 40.603516 L 29.373047 37.007812 C 29.373047 36.610014 30.149531 36.287109 31.111328 36.287109 z M 23.277344 36.291016 L 25.017578 36.291016 C 25.979376 36.291016 26.755859 36.613919 26.755859 37.011719 L 26.755859 40.607422 C 26.755859 41.005222 25.979376 41.326172 25.017578 41.326172 L 23.277344 41.326172 C 22.315546 41.326172 21.53907 41.005222 21.539062 40.607422 L 21.539062 37.011719 C 21.539062 36.613919 22.315546 36.291016 23.277344 36.291016 z M 38.945312 36.294922 L 40.685547 36.294922 C 41.647345 36.294922 42.423828 36.615872 42.423828 37.013672 L 42.423828 40.611328 C 42.423828 41.009128 41.647345 41.330078 40.685547 41.330078 L 38.945312 41.330078 C 37.983517 41.330078 37.207031 41.009128 37.207031 40.611328 L 37.207031 37.013672 C 37.207031 36.615872 37.983517 36.294922 38.945312 36.294922 z M 22.039062 36.892578 L 22.039062 40.755859 L 26.191406 40.755859 L 26.191406 36.892578 L 22.039062 36.892578 z M 29.914062 36.900391 L 29.914062 40.763672 L 34.066406 40.763672 L 34.066406 36.900391 L 29.914062 36.900391 z M 37.765625 36.900391 L 37.765625 40.763672 L 41.917969 40.763672 L 41.917969 36.900391 L 37.765625 36.900391 z M 31.068359 42.078125 L 32.806641 42.078125 C 33.768438 42.078125 34.546875 42.399075 34.546875 42.796875 L 34.546875 46.392578 C 34.546875 46.790378 33.768438 47.113281 32.806641 47.113281 L 31.068359 47.113281 C 30.106562 47.113281 29.328125 46.790378 29.328125 46.392578 L 29.328125 42.796875 C 29.328125 42.399075 30.106562 42.078125 31.068359 42.078125 z M 23.234375 42.080078 L 24.972656 42.080078 C 25.934454 42.080078 26.712891 42.402981 26.712891 42.800781 L 26.712891 46.396484 C 26.712891 46.794284 25.934454 47.117185 24.972656 47.117188 L 23.234375 47.117188 C 22.272577 47.117187 21.494141 46.794284 21.494141 46.396484 L 21.494141 42.800781 C 21.494141 42.402981 22.272577 42.080078 23.234375 42.080078 z M 38.902344 42.083984 L 40.640625 42.083984 C 41.602423 42.083984 42.380859 42.406888 42.380859 42.804688 L 42.380859 46.400391 C 42.380859 46.798191 41.602423 47.119141 40.640625 47.119141 L 38.902344 47.119141 C 37.940547 47.119141 37.162109 46.798191 37.162109 46.400391 L 37.162109 42.804688 C 37.162109 42.406888 37.940547 42.083984 38.902344 42.083984 z M 22.033203 42.689453 L 22.033203 46.552734 L 26.185547 46.552734 L 26.185547 42.689453 L 22.033203 42.689453 z M 29.908203 42.697266 L 29.908203 46.560547 L 34.060547 46.560547 L 34.060547 42.697266 L 29.908203 42.697266 z M 37.759766 42.697266 L 37.759766 46.560547 L 41.912109 46.560547 L 41.912109 42.697266 L 37.759766 42.697266 z M 31.087891 47.867188 L 32.828125 47.867188 C 33.789922 47.867187 34.566406 48.188138 34.566406 48.585938 L 34.566406 52.183594 C 34.566406 52.581394 33.789922 52.902344 32.828125 52.902344 L 31.087891 52.902344 C 30.126094 52.902344 29.349609 52.581394 29.349609 52.183594 L 29.349609 48.585938 C 29.349609 48.188138 30.126094 47.867186 31.087891 47.867188 z M 23.253906 47.871094 L 24.994141 47.871094 C 25.955939 47.871094 26.732422 48.192044 26.732422 48.589844 L 26.732422 52.1875 C 26.732422 52.5853 25.955939 52.90625 24.994141 52.90625 L 23.253906 52.90625 C 22.292108 52.90625 21.515625 52.5853 21.515625 52.1875 L 21.515625 48.589844 C 21.515625 48.192044 22.292108 47.871094 23.253906 47.871094 z M 38.921875 47.875 L 40.662109 47.875 C 41.623907 47.875 42.400391 48.19595 42.400391 48.59375 L 42.400391 52.189453 C 42.400391 52.587253 41.623907 52.910156 40.662109 52.910156 L 38.921875 52.910156 C 37.960078 52.910156 37.183594 52.587253 37.183594 52.189453 L 37.183594 48.59375 C 37.183594 48.19595 37.960078 47.875 38.921875 47.875 z M 22.017578 48.443359 L 22.017578 52.306641 L 26.169922 52.306641 L 26.169922 48.443359 L 22.017578 48.443359 z M 29.892578 48.451172 L 29.892578 52.314453 L 34.044922 52.314453 L 34.044922 48.451172 L 29.892578 48.451172 z M 37.767578 48.451172 L 37.767578 52.314453 L 41.919922 52.314453 L 41.919922 48.451172 L 37.767578 48.451172 z M 31.105469 53.65625 L 32.84375 53.65625 C 33.805547 53.65625 34.583984 53.9772 34.583984 54.375 L 34.583984 57.972656 C 34.583984 58.370456 33.805547 58.691406 32.84375 58.691406 L 31.105469 58.691406 C 30.143672 58.691406 29.365234 58.370456 29.365234 57.972656 L 29.365234 54.375 C 29.365234 53.9772 30.143672 53.65625 31.105469 53.65625 z M 23.271484 53.660156 L 25.009766 53.660156 C 25.971564 53.660156 26.75 53.981106 26.75 54.378906 L 26.75 57.976562 C 26.75 58.374362 25.971564 58.695315 25.009766 58.695312 L 23.271484 58.695312 C 22.309686 58.695313 21.53125 58.374362 21.53125 57.976562 L 21.53125 54.378906 C 21.53125 53.981106 22.309686 53.660156 23.271484 53.660156 z M 38.939453 53.664062 L 40.677734 53.664062 C 41.639532 53.664063 42.417969 53.985017 42.417969 54.382812 L 42.417969 57.980469 C 42.417969 58.378269 41.639532 58.699219 40.677734 58.699219 L 38.939453 58.699219 C 37.977656 58.699219 37.199219 58.378269 37.199219 57.980469 L 37.199219 54.382812 C 37.199219 53.985014 37.977656 53.664064 38.939453 53.664062 z M 29.90625 54.248047 L 29.90625 58.111328 L 34.058594 58.111328 L 34.058594 54.248047 L 29.90625 54.248047 z "
     id="rect3343-0" /><g
     id="g3427" /></svg>