<?xml version="1.0" encoding="UTF-8" standalone="no"?>
<!-- Created with Inkscape (http://www.inkscape.org/) -->

<svg
   xmlns:osb="http://www.openswatchbook.org/uri/2009/osb"
   xmlns:dc="http://purl.org/dc/elements/1.1/"
   xmlns:cc="http://creativecommons.org/ns#"
   xmlns:rdf="http://www.w3.org/1999/02/22-rdf-syntax-ns#"
   xmlns:svg="http://www.w3.org/2000/svg"
   xmlns="http://www.w3.org/2000/svg"
   xmlns:xlink="http://www.w3.org/1999/xlink"
   xmlns:sodipodi="http://sodipodi.sourceforge.net/DTD/sodipodi-0.dtd"
   xmlns:inkscape="http://www.inkscape.org/namespaces/inkscape"
   width="256"
   height="256"
   viewBox="0 0 256 256"
   id="svg2"
   version="1.1"
   inkscape:version="0.91 r13725"
   sodipodi:docname="Commodore Amiga.svg"
   inkscape:export-filename="/home/lollo78/Scrivania/no typo/Commodore Amiga.png"
   inkscape:export-xdpi="90"
   inkscape:export-ydpi="90">
  <defs
     id="defs4">
    <linearGradient
       id="linearGradient5709"
       osb:paint="solid">
      <stop
         style="stop-color:#f2f2f2;stop-opacity:1;"
         offset="0"
         id="stop5711" />
    </linearGradient>
    <linearGradient
       gradientTransform="translate(8.5155721,239.81222)"
       inkscape:collect="always"
       xlink:href="#linearGradient5709"
       id="linearGradient5713"
       x1="5.9631491"
       y1="930.73138"
       x2="249.86285"
       y2="930.73138"
       gradientUnits="userSpaceOnUse" />
  </defs>
  <sodipodi:namedview
     id="base"
     pagecolor="#ffffff"
     bordercolor="#666666"
     borderopacity="1.0"
     inkscape:pageopacity="0.0"
     inkscape:pageshadow="2"
     inkscape:zoom="1.4"
     inkscape:cx="202.50545"
     inkscape:cy="-131.52022"
     inkscape:document-units="px"
     inkscape:current-layer="layer1"
     showgrid="false"
     inkscape:window-width="1615"
     inkscape:window-height="1026"
     inkscape:window-x="1985"
     inkscape:window-y="24"
     inkscape:window-maximized="1"
     units="px" />
  <metadata
     id="metadata7">
    <rdf:RDF>
      <cc:Work
         rdf:about="">
        <dc:format>image/svg+xml</dc:format>
        <dc:type
           rdf:resource="http://purl.org/dc/dcmitype/StillImage" />
        <dc:title />
      </cc:Work>
    </rdf:RDF>
  </metadata>
  <g
     inkscape:label="Livello 1"
     inkscape:groupmode="layer"
     id="layer1"
     transform="translate(0,-796.36216)">
    <path
       style="fill:#f2f2f2"
       d="m 127.85156,18.910156 c -90.129478,0 -108.564451,18.308247 -108.564451,108.566404 0,90.25824 18.149485,108.56641 108.564451,108.56641 90.42707,0 108.56641,-18.27207 108.56641,-108.56641 0,-90.302377 -18.4369,-108.566404 -108.56641,-108.566404 z m 64.48985,45.253906 11.84571,0 c 6.51536,0 11.84765,0.17077 11.84765,0.38086 0,0.21015 -18.75507,30.064188 -41.67578,66.341798 l -41.67383,65.95898 -12.08008,0 c -11.66909,0 -12.11338,-0.0567 -13.14062,-1.68945 l -1.06445,-1.69141 -0.85743,1.69141 c -0.83293,1.64207 -1.19994,1.68945 -13.060545,1.68945 l -12.203126,0 -21.957031,-34.50586 C 46.246225,143.36214 36.12098,127.40705 35.819925,126.88281 c -0.429602,-0.74805 2.065664,-0.94813 11.59961,-0.92578 l 12.148437,0.0293 16.603516,26.20312 c 15.482347,24.43373 16.67248,26.1018 17.61914,24.67578 0.93784,-1.41277 -0.134979,-3.33205 -14.074219,-25.17578 -8.299335,-13.00556 -15.350099,-24.12191 -15.667968,-24.70312 -0.482881,-0.88303 1.422049,-1.05664 11.578125,-1.05664 l 12.154297,0 9.382812,14.86328 c 5.159605,8.17541 9.543445,14.85245 9.742195,14.83789 0.19874,-0.0145 1.74929,-2.32903 3.44726,-5.14258 1.69799,-2.81346 14.41494,-23.30128 28.25977,-45.5293 l 25.17383,-40.414058 12.03124,-0.208984 c 6.61715,-0.114941 12.03126,-0.02361 12.03126,0.205078 0,0.22861 -10.03388,16.279648 -22.29688,35.667964 -12.26301,19.38841 -27.86164,44.06461 -34.66406,54.83594 l -12.36914,19.58399 1.46679,1.76757 c 0.8065,0.97178 1.61137,1.42331 1.78907,1.00391 0.17772,-0.4194 8.25873,-13.45889 17.95703,-28.97656 9.6983,-15.51768 21.79701,-34.90575 26.88672,-43.08399 5.08971,-8.178226 12.95944,-20.788844 17.48828,-28.023434 z"
       transform="translate(0,796.36216)"
       id="Settings_1_"
       inkscape:connector-curvature="0"
       sodipodi:nodetypes="ssssscssscscccscccccssscsccccccsssccccsscc" />
    <path
       style="color:#000000;clip-rule:nonzero;display:inline;overflow:visible;visibility:visible;opacity:1;isolation:auto;mix-blend-mode:normal;color-interpolation:sRGB;color-interpolation-filters:linearRGB;solid-color:#000000;solid-opacity:1;fill:#f2f2f2;fill-opacity:1;fill-rule:nonzero;stroke-width:1;stroke-linecap:butt;stroke-linejoin:miter;stroke-miterlimit:4;stroke-dasharray:none;stroke-dashoffset:0;stroke-opacity:1;color-rendering:auto;image-rendering:auto;shape-rendering:auto;text-rendering:auto;enable-background:accumulate"
       d="m 36.945181,1494.135 c 0,-15.5443 -0.27579,-24.0936 -0.77722,-24.0936 -0.50027,0 -0.77721,-8.0312 -0.77721,-22.5392 0,-14.508 0.27694,-22.5392 0.77721,-22.5392 0.42747,0 0.77722,-0.6223 0.77722,-1.3829 0,-0.7605 0.699488,-1.887 1.554428,-2.5032 0.854929,-0.6162 1.554419,-1.577 1.554419,-2.1351 0,-1.2157 6.59903,-7.9687 7.78702,-7.9687 1.5822,0 4.64841,-3.8217 4.64841,-5.7938 0,-1.0881 0.34975,-1.9783 0.77721,-1.9783 0.42747,0 0.77722,-0.6995 0.77722,-1.5544 0,-0.855 0.34974,-1.5545 0.77721,-1.5545 0.42747,0 0.77722,-0.6995 0.77722,-1.5544 0,-0.8549 0.34974,-1.5544 0.77721,-1.5544 0.42747,0 0.77721,-0.6995 0.77721,-1.5545 0,-0.8549 0.34975,-1.5544 0.77722,-1.5544 0.42746,0 0.77721,-0.5405 0.77721,-1.2011 0,-1.5548 3.46177,-5.0166 5.01656,-5.0166 0.66064,0 1.20115,-0.3497 1.20115,-0.7772 0,-0.4275 0.6995,-0.7772 1.55443,-0.7772 0.85494,0 1.55443,-0.3498 1.55443,-0.7772 0,-0.4275 0.5496,-0.7773 1.22134,-0.7773 3.40261,0 3.44194,-0.4123 3.44194,-36.0849 l 0,-33.8644 72.677122,0 72.67714,0 9.70755,9.7076 9.70756,9.7076 0,57.1328 0,57.1329 -40.41513,0 -40.41513,0 0,3.8861 c 0,2.1373 -0.34975,3.886 -0.77721,3.886 -0.42747,0 -0.77722,0.6995 -0.77722,1.5545 0,0.8549 -0.34974,1.5544 -0.77721,1.5544 -0.42747,0 -0.77722,0.6995 -0.77722,1.5544 0,0.855 -0.34974,1.5544 -0.77721,1.5544 -0.42747,0 -0.77721,0.6995 -0.77721,1.5545 0,0.8549 -0.34975,1.5544 -0.77722,1.5544 -0.42747,0 -0.77721,0.6223 -0.77721,1.3829 0,0.7605 -0.6995,1.887 -1.55443,2.5032 -0.85494,0.6162 -1.55443,1.5794 -1.55443,2.1405 0,1.2246 -5.03726,6.4088 -6.22713,6.4088 -1.18588,0 -4.65387,3.6104 -4.65387,4.845 0,0.5663 -0.69949,1.5337 -1.55442,2.1499 -0.85494,0.6162 -1.55443,1.6655 -1.55443,2.3317 0,0.6662 -0.69949,1.7154 -1.55443,2.3316 -0.85493,0.6162 -1.55443,1.5928 -1.55443,2.1702 0,1.4233 -1.94396,3.2703 -3.44194,3.2703 -0.67174,0 -1.22134,0.3498 -1.22134,0.7772 0,0.4275 -0.69949,0.7773 -1.55443,0.7773 -0.85493,0 -1.55442,0.3497 -1.55442,0.7772 0,0.4274 -0.69949,0.7772 -1.55443,0.7772 -0.85493,0 -1.55442,0.3497 -1.55442,0.7772 0,0.4275 -0.6995,0.7772 -1.55443,0.7772 -1.46807,0 -1.55443,0.5182 -1.55443,9.3266 l 0,9.3265 -39.637922,0 -39.637907,0 z m 46.632837,4.6633 0,-16.3215 6.63223,0 c 6.53125,0 6.67324,-0.041 9.32656,-2.6943 l 2.694352,-2.6944 0,-15.1816 c 0,-9.6029 -0.2856,-15.1815 -0.77722,-15.1815 -0.42747,0 -0.77721,-0.6995 -0.77721,-1.5545 0,-0.8549 -0.34975,-1.5544 -0.777222,-1.5544 -0.46895,0 -0.77721,-3.247 -0.77721,-8.1866 l 0,-8.1867 2.694342,-2.6943 c 1.48189,-1.4819 3.07263,-2.6944 3.53498,-2.6944 0.46236,0 3.2551,-2.4482 6.2061,-5.4405 2.95101,-2.9923 5.74799,-5.4405 6.21553,-5.4405 0.46753,0 1.70852,-0.8584 2.75776,-1.9077 1.82272,-1.8227 1.90771,-2.3421 1.90771,-11.6582 0,-9.2324 -0.0826,-9.7505 -1.55443,-9.7505 -0.85493,0 -1.55442,-0.3497 -1.55442,-0.7772 0,-0.4275 -0.6995,-0.7772 -1.55443,-0.7772 -0.85494,0 -1.55443,0.2725 -1.55443,0.6056 0,0.3331 0.69949,1.1098 1.55443,1.726 1.31183,0.9455 1.55443,2.012 1.55443,6.8334 0,7.3635 -0.56012,7.9337 -7.79341,7.9337 -5.2407,0 -5.70815,-0.1449 -7.84417,-2.4315 l -2.27138,-2.4316 -1.434772,1.6543 c -0.78913,0.9099 -1.86548,1.6544 -2.39191,1.6544 -0.52642,0 -1.93727,1.0492 -3.13521,2.3316 -1.19795,1.2824 -2.66005,2.3316 -3.24911,2.3316 -0.58906,0 -1.57519,0.6995 -2.19139,1.5545 -0.6162,0.8549 -1.74265,1.5544 -2.50322,1.5544 -0.76057,0 -1.38285,0.3497 -1.38285,0.7772 l -3.10886,1.8875 c 0,0.8903 -2.98927,0.4163 -3.32629,-0.5274 -0.20182,-0.5651 -0.63534,-0.6831 -1.03628,-0.2822 -0.40095,0.401 -0.28289,0.8345 0.2822,1.0363 1.53412,0.5479 1.13146,1.7719 -0.58291,1.7719 -0.85494,0 -1.55443,0.3497 -1.55443,0.7772 0,0.4275 -0.69949,0.7772 -1.55443,0.7772 -0.85493,0 -1.55443,-0.3497 -1.55443,-0.7772 0,-0.4275 -0.69949,-0.7772 -1.55442,-0.7772 -0.85494,0 -1.55443,-0.3498 -1.55443,-0.7772 0,-0.4275 0.69949,-0.7772 1.55443,-0.7772 1.49347,0 1.55442,-0.5182 1.55442,-13.2127 0,-12.6945 -0.061,-13.2126 -1.55442,-13.2126 -0.85494,0 -1.55443,0.3497 -1.55443,0.7772 0,0.4275 -0.6995,0.7772 -1.55443,0.7772 -0.85494,0 -1.55443,0.3497 -1.55443,0.7772 0,0.4275 -0.5496,0.7772 -1.22134,0.7772 -1.57078,0 -3.44194,1.8712 -3.44194,3.442 0,0.6717 -0.34975,1.2213 -0.77722,1.2213 -0.42746,0 -0.77721,0.6995 -0.77721,1.5544 0,0.855 -0.34975,1.5545 -0.77721,1.5545 -0.42747,0 -0.77722,0.6995 -0.77722,1.5544 0,0.8549 -0.34975,1.5544 -0.77721,1.5544 -0.42747,0 -0.77722,0.6995 -0.77722,1.5545 0,0.8549 -0.34974,1.5544 -0.77721,1.5544 -0.42747,0 -0.77721,0.886 -0.77721,1.9689 0,1.9762 -4.54775,7.3577 -6.21772,7.3577 -1.18286,0 -6.21771,5.1896 -6.21771,6.4088 0,0.5611 -0.69949,1.5243 -1.55443,2.1405 -0.85493,0.6162 -1.55443,1.7427 -1.55443,2.5032 0,0.7606 -0.34974,1.3829 -0.77721,1.3829 -0.499639,0 -0.777209,7.7721 -0.777209,21.762 0,13.9898 0.27757,21.762 0.777209,21.762 0.50087,0 0.77721,8.2902 0.77721,23.3164 l 0,23.3164 21.762,0 21.76199,0 z m -34.19742,-67.2643 c 0,-1.3947 3.3968,-5.0166 4.70474,-5.0166 0.48913,0 1.86946,-1.0492 3.0674,-2.3316 1.19795,-1.2824 2.57828,-2.3317 3.06741,-2.3317 1.30793,0 4.70473,-3.6219 4.70473,-5.0165 0,-0.6607 -0.53627,-1.2012 -1.19172,-1.2012 -1.50086,0 -6.93648,-5.3581 -6.16313,-6.0752 0.31501,-0.2921 0.72887,-0.094 0.91971,0.4404 0.19083,0.5343 1.01731,0.9715 1.83663,0.9715 0.81931,0 1.48966,0.3498 1.48966,0.7772 0,0.4275 0.69949,0.7773 1.55443,0.7773 0.85493,0 1.55442,0.3497 1.55442,0.7772 0,0.4274 1.04924,0.7772 2.33165,0.7772 1.2824,0 2.33164,0.3497 2.33164,0.7772 0,0.4275 0.69949,0.7772 1.55443,0.7772 0.85493,0 1.55442,0.3498 1.55442,0.7772 0,0.4275 -0.62228,0.7772 -1.38285,0.7772 -0.76057,0 -1.88701,0.6995 -2.50322,1.5545 -0.6162,0.8549 -1.60233,1.5544 -2.19139,1.5544 -0.58906,0 -2.05116,1.0492 -3.2491,2.3316 -1.19795,1.2824 -2.59693,2.3317 -3.10886,2.3317 -0.51193,0 -1.91091,1.0492 -3.10886,2.3316 -1.19794,1.2824 -2.66004,2.3317 -3.2491,2.3317 -0.58907,0 -1.57519,0.6995 -2.1914,1.5544 -1.33862,1.8572 -2.33164,2.0077 -2.33164,0.3533 z m 63.731552,75.0364 c 0,-8.0312 0.0942,-8.5493 1.55443,-8.5493 0.85494,0 1.55443,-0.3498 1.55443,-0.7772 0,-0.4275 0.69949,-0.7772 1.55443,-0.7772 0.85493,0 1.55443,-0.3498 1.55443,-0.7773 0,-0.4274 1.04924,-0.7772 2.33164,-0.7772 1.28239,0 2.33163,-0.3497 2.33163,-0.7772 0,-0.4275 0.69949,-0.7772 1.55443,-0.7772 0.972,0 1.55443,-0.5182 1.55443,-1.3829 0,-0.7605 0.69949,-1.887 1.55442,-2.5032 0.85494,-0.6162 1.55443,-1.6654 1.55443,-2.3316 0,-0.6662 0.6995,-1.7155 1.55443,-2.3317 0.85494,-0.6162 1.55443,-1.7426 1.55443,-2.5032 0,-0.7605 0.34975,-1.3828 0.77721,-1.3828 0.42747,0 0.77722,-0.6995 0.77722,-1.5544 0,-1.2622 -0.51815,-1.5545 -2.75558,-1.5545 -1.88939,0 -3.35525,-0.5996 -4.66328,-1.9077 -1.9314,-1.9314 -2.55529,-4.31 -1.1305,-4.31 0.42747,0 0.77722,0.5496 0.77722,1.2214 0,1.5383 2.22113,3.8256 2.95156,3.0394 0.30025,-0.3231 0.10872,-0.7437 -0.42562,-0.9345 -0.53433,-0.1908 -0.97152,-0.8674 -0.97152,-1.5035 0,-0.6361 -0.55636,-1.713 -1.23635,-2.393 -1.0015,-1.0015 -1.35719,-1.0408 -1.8725,-0.207 -0.51531,0.8338 -0.871,0.7945 -1.8725,-0.207 -0.68,-0.68 -1.23635,-1.786 -1.23635,-2.4577 0,-1.0199 -1.15404,-1.2214 -6.99492,-1.2214 -4.14515,0 -6.99493,-0.3166 -6.99493,-0.7772 0,-0.4274 -0.69949,-0.7772 -1.55443,-0.7772 -1.41666,0 -1.55443,0.5182 -1.55443,5.846 l 0,5.846 -4.25778,4.2578 -4.257782,4.2578 -5.06879,0 -5.06878,0 0,14.767 0,14.7671 13.21263,0 13.212642,0 z m 25.64806,-28.7569 c 0.6162,-0.8549 1.74265,-1.5544 2.50322,-1.5544 0.76056,0 1.38285,-0.3497 1.38285,-0.7772 0,-0.4275 -0.6995,-0.7772 -1.55443,-0.7772 -0.85494,0 -1.55443,-0.3498 -1.55443,-0.7772 0,-0.4275 -0.69949,-0.7773 -1.55443,-0.7773 -0.85493,0 -1.55443,-0.3497 -1.55443,-0.7772 0,-0.4274 0.5496,-0.7772 1.22134,-0.7772 0.67173,0 1.72097,-0.4996 2.33164,-1.1103 1.54284,-1.5428 1.38865,-3.553 -0.27254,-3.553 -0.76057,0 -1.88701,-0.6995 -2.50322,-1.5544 -1.15432,-1.6015 -5.4405,-2.2138 -5.4405,-0.7772 0,0.4275 -0.69949,0.7772 -1.55443,0.7772 -1.209,0 -1.55443,0.5182 -1.55443,2.3316 0,1.2825 0.34975,2.3317 0.77722,2.3317 0.42747,0 0.77721,0.6995 0.77721,1.5544 0,1.2954 0.51815,1.5544 3.10886,1.5544 1.70987,0 3.10885,0.3498 3.10885,0.7773 0,0.4274 0.6995,0.7772 1.55443,0.7772 0.85494,0 1.55443,0.3497 1.55443,0.7772 0,0.4275 -0.69949,0.7772 -1.55443,0.7772 -1.03628,0 -1.55443,0.5181 -1.55443,1.5544 0,0.855 0.27254,1.5545 0.60564,1.5545 0.3331,0 1.1098,-0.6995 1.72601,-1.5545 z m 5.4405,-6.0461 c 0,-0.7606 0.69949,-1.887 1.55442,-2.5032 0.85494,-0.6162 1.55443,-1.7427 1.55443,-2.5032 0,-0.7606 0.34975,-1.3829 0.77722,-1.3829 0.42746,0 0.77721,-0.6995 0.77721,-1.5544 0,-0.855 0.34975,-1.5545 0.77721,-1.5545 0.42747,0 0.77722,-0.6994 0.77722,-1.5544 0,-0.8549 0.34974,-1.5544 0.77721,-1.5544 0.42747,0 0.77722,-0.6995 0.77722,-1.5544 0,-0.855 0.34974,-1.5545 0.77721,-1.5545 0.42747,0 0.77721,-1.7487 0.77721,-3.886 l 0,-3.8861 -5.06185,0 -5.06186,0 -7.37357,7.3736 c -4.05546,4.0554 -7.37357,7.5529 -7.37357,7.7721 0,0.2192 0.6995,0.3986 1.55443,0.3986 0.85494,0 1.55443,-0.3498 1.55443,-0.7772 0,-1.4367 4.28618,-0.8243 5.4405,0.7772 0.61621,0.8549 1.59276,1.5544 2.17013,1.5544 0.57737,0 1.54939,0.4996 2.16006,1.1103 1.27376,1.2738 1.48744,3.553 0.33309,3.553 -0.42746,0 -0.77721,0.6995 -0.77721,1.5544 0,1.0363 0.51814,1.5544 1.55443,1.5544 0.972,0 1.55443,-0.5181 1.55443,-1.3828 z m -29.53413,-7.1665 c 0,-0.4275 1.04924,-0.7772 2.33164,-0.7772 1.77972,0 2.33165,-0.3526 2.33165,-1.4897 0,-0.8193 0.42407,-1.631 0.94237,-1.8038 0.56466,-0.1882 -0.20374,-1.4602 -1.91713,-3.1736 -2.06652,-2.0665 -3.52868,-2.8595 -5.27256,-2.8595 -1.32719,0 -2.93769,-0.5246 -3.57889,-1.1658 -1.03629,-1.0363 -1.03629,-1.2954 0,-2.3317 1.3188,-1.3188 3.60849,-1.5653 3.60849,-0.3886 0,0.4275 0.54733,0.7773 1.21628,0.7773 0.66896,0 2.91961,1.7487 5.00144,3.886 2.08183,2.1374 4.16407,3.8861 4.6272,3.8861 0.82537,0 10.91707,-9.6858 10.91707,-10.478 0,-0.2217 -5.59594,-0.403 -12.43542,-0.403 -7.77214,0 -12.43542,0.2915 -12.43542,0.7772 0,0.4275 -0.6995,0.7772 -1.55443,0.7772 -0.85494,0 -1.55443,-0.3497 -1.55443,-0.7772 0,-0.4275 -0.34975,-0.7772 -0.77721,-0.7772 -0.42747,0 -0.77722,1.0492 -0.77722,2.3316 0,1.6016 0.38244,2.3317 1.22134,2.3317 1.17787,0 3.44195,1.7528 3.44195,2.6647 0,0.8885 -2.98827,0.4173 -3.30085,-0.5204 -0.58999,-1.77 -2.91687,1.4795 -2.91687,4.0734 0,2.6422 1.49177,4.6633 3.44195,4.6633 0.67174,0 1.22134,0.3497 1.22134,0.7772 0,0.4275 1.39898,0.7772 3.10885,0.7772 1.70988,0 3.10886,-0.3497 3.10886,-0.7772 z m -6.21771,-1.5544 c 0,-0.4275 -0.69949,-0.7773 -1.55443,-0.7773 -1.29536,0 -1.55443,-0.5181 -1.55443,-3.1088 0,-1.7099 0.34975,-3.1089 0.77722,-3.1089 0.42746,0 0.77721,0.8994 0.77721,1.9986 0,2.766 1.72083,4.2191 4.99638,4.2191 1.52667,0 2.77576,0.3498 2.77576,0.7773 0,0.4274 -1.39898,0.7772 -3.10886,0.7772 -1.70987,0 -3.10885,-0.3498 -3.10885,-0.7772 z m 107.25553,-45.8557 0,-27.9797 -45.07842,0 -45.07841,0 0,8.9639 0,8.9639 -2.69435,2.6943 c -1.48187,1.4819 -3.07262,2.6944 -3.53497,2.6944 -0.46234,0 -3.25509,2.4482 -6.2061,5.4404 -2.951,2.9923 -5.74799,5.4405 -6.21552,5.4405 -0.46753,0 -1.70853,0.8585 -2.75777,1.9078 -1.75899,1.7589 -1.9077,2.486 -1.9077,9.3265 0,4.4278 0.31335,7.4189 0.77721,7.4189 0.42747,0 0.77721,0.6995 0.77721,1.5544 0,1.54 0.51815,1.5544 55.95941,1.5544 l 55.95941,0 z m -96.37453,19.4304 c 0,-4.9224 -0.14805,-5.4405 -1.55443,-5.4405 -0.85494,0 -1.55443,-0.3498 -1.55443,-0.7772 0,-0.4275 1.74873,-0.7772 3.88607,-0.7772 2.13734,0 3.88606,0.3497 3.88606,0.7772 0,0.4274 -0.34975,0.7772 -0.77721,0.7772 -0.42747,0 -0.77721,0.3497 -0.77721,0.7772 0,0.4275 1.39898,0.7772 3.10885,0.7772 1.70987,0 3.10885,-0.3497 3.10885,-0.7772 0,-0.4275 -0.34974,-0.7772 -0.77721,-0.7772 -0.42747,0 -0.77721,-0.3498 -0.77721,-0.7772 0,-0.4275 1.39898,-0.7772 3.10885,-0.7772 1.70987,0 3.10886,0.3497 3.10886,0.7772 0,0.4274 -0.5415,0.7772 -1.20334,0.7772 -0.66183,0 -3.6178,2.4482 -6.5688,5.4405 -2.95101,2.9923 -5.55721,5.4405 -5.79158,5.4405 -0.23437,0 -0.42612,-2.4482 -0.42612,-5.4405 z m 5.10739,-0.3331 c 1.50614,-1.5062 1.39672,-1.9986 -0.44412,-1.9986 -1.03628,0 -1.55442,0.5182 -1.55442,1.5545 0,1.8408 0.4924,1.9502 1.99854,0.4441 z m 10.43688,3.4419 c 0,-1.2824 0.34974,-2.3316 0.77721,-2.3316 0.42747,0 0.77721,0.6995 0.77721,1.5544 0,1.2643 0.51815,1.5545 2.77577,1.5545 1.52667,0 3.2754,-0.4997 3.88607,-1.1103 2.25461,-2.2547 0.80447,-8.2163 -1.99855,-8.2163 -1.4631,0 -3.65507,2.5382 -2.51901,2.9169 2.08859,0.6961 0.7991,1.7464 -2.14428,1.7464 -3.45021,0 -3.88485,-0.652 -1.55442,-2.3317 0.85493,-0.6162 1.55442,-1.7426 1.55442,-2.5032 0,-1.1413 0.67887,-1.3828 3.88607,-1.3828 2.13734,0 3.88608,0.3497 3.88608,0.7772 0,0.4274 0.54959,0.7772 1.22133,0.7772 1.72624,0 3.44195,1.927 3.44195,3.8659 0,1.911 -3.261,5.4607 -5.01657,5.4607 -0.66063,0 -1.20114,0.3497 -1.20114,0.7772 0,0.4274 -1.74873,0.7772 -3.88607,0.7772 -3.79972,0 -3.88607,-0.052 -3.88607,-2.3317 z m 13.98985,1.5545 c 0,-0.4275 0.69949,-0.7772 1.55443,-0.7772 1.03628,0 1.55443,-0.5182 1.55443,-1.5545 0,-0.8549 0.34974,-1.5544 0.77721,-1.5544 0.42747,0 0.77721,-0.6995 0.77721,-1.5544 0,-0.855 0.34975,-1.5545 0.77722,-1.5545 0.42747,0 0.77721,-0.6994 0.77721,-1.5544 0,-1.0363 -0.51814,-1.5544 -1.55443,-1.5544 -0.85493,0 -1.55442,-0.3498 -1.55442,-0.7772 0,-0.4318 2.07257,-0.7772 4.66328,-0.7772 2.59071,0 4.66328,0.3454 4.66328,0.7772 0,0.4274 -0.69949,0.7772 -1.55442,0.7772 -1.03629,0 -1.55443,0.5181 -1.55443,1.5544 0,0.855 -0.34975,1.5544 -0.77722,1.5544 -0.42746,0 -0.77721,0.6995 -0.77721,1.5545 0,0.8549 -0.34975,1.5544 -0.77721,1.5544 -0.42747,0 -0.77722,0.6995 -0.77722,1.5544 0,0.855 0.34975,1.5545 0.77722,1.5545 0.42746,0 0.77721,0.3497 0.77721,0.7772 0,0.4274 -1.74873,0.7772 -3.88607,0.7772 -2.13734,0 -3.88607,-0.3498 -3.88607,-0.7772 z m 12.43542,0 c 0,-0.4275 0.34975,-0.7772 0.77722,-0.7772 0.42747,0 0.77721,-0.6995 0.77721,-1.5545 0,-0.8549 0.34975,-1.5544 0.77722,-1.5544 0.42746,0 0.77721,-0.6995 0.77721,-1.5544 0,-0.855 0.34975,-1.5545 0.77721,-1.5545 0.42747,0 0.77722,-0.6994 0.77722,-1.5544 0,-1.0363 -0.51815,-1.5544 -1.55443,-1.5544 -0.85494,0 -1.55443,-0.3498 -1.55443,-0.7772 0,-0.4318 2.07257,-0.7772 4.66329,-0.7772 2.59071,0 4.66328,0.3454 4.66328,0.7772 0,0.4274 -0.69949,0.7772 -1.55443,0.7772 -1.03628,0 -1.55443,0.5181 -1.55443,1.5544 0,0.855 -0.34974,1.5544 -0.77721,1.5544 -0.42747,0 -0.77721,0.6704 -0.77721,1.4897 0,0.8193 -0.43719,1.6458 -0.97152,1.8366 -0.56509,0.2019 -0.68315,0.6354 -0.28221,1.0363 0.40095,0.401 0.83447,0.2829 1.03629,-0.2822 0.19083,-0.5343 0.85834,-0.9715 1.48335,-0.9715 1.33291,0 4.9518,-3.4228 4.9518,-4.6835 0,-0.9013 1.88714,-3.0886 2.66473,-3.0886 0.24427,0 0.44412,1.7487 0.44412,3.886 0,2.1374 0.18654,3.8861 0.41452,3.8861 0.22798,0 1.62697,-1.2125 3.10885,-2.6943 3.12235,-3.1224 3.25209,-3.5234 1.13992,-3.5234 -0.85494,0 -1.55443,-0.3498 -1.55443,-0.7772 0,-0.4664 3.10886,-0.7772 7.77214,-0.7772 4.66328,0 7.77214,0.3108 7.77214,0.7772 0,0.4274 -0.34975,0.7772 -0.77721,0.7772 -0.42747,0 -0.77722,0.3497 -0.77722,0.7772 0,0.4275 1.39899,0.7772 3.10886,0.7772 1.70987,0 3.10885,-0.3497 3.10885,-0.7772 0,-0.4275 -0.34974,-0.7772 -0.77721,-0.7772 -0.42747,0 -0.77721,-0.3498 -0.77721,-0.7772 0,-0.4275 1.39898,-0.7772 3.10885,-0.7772 1.70987,0 3.10886,0.3497 3.10886,0.7772 0,0.4274 -0.5415,0.7772 -1.20334,0.7772 -0.66183,0 -3.6178,2.4482 -6.5688,5.4405 -2.95101,2.9923 -5.55722,5.4405 -5.79159,5.4405 -0.23437,0 -0.42612,-2.4482 -0.42612,-5.4405 0,-5.2976 -0.0515,-5.4405 -1.95994,-5.4405 -2.20872,0 -11.48157,8.6026 -9.85667,9.1442 2.06364,0.6879 0.75116,1.7368 -2.17325,1.7368 -3.10885,0 -3.10885,0 -3.10885,-3.1089 0,-1.7098 -0.2023,-3.1088 -0.44954,-3.1088 -0.24725,0 -1.79369,1.399 -3.43653,3.1088 -2.39367,2.4914 -3.53943,3.1089 -5.76817,3.1089 -1.52965,0 -2.78119,-0.3498 -2.78119,-0.7772 z m 34.64154,-4.9964 c 1.50614,-1.5062 1.39672,-1.9986 -0.44412,-1.9986 -1.03628,0 -1.55443,0.5182 -1.55443,1.5545 0,1.8408 0.49241,1.9502 1.99855,0.4441 z m -79.71994,-42.0806 c 0,-6.7899 -0.81082,-8.1052 -4.99638,-8.1052 -1.52667,0 -2.77576,-0.3498 -2.77576,-0.7772 0,-0.4275 -1.04924,-0.7773 -2.33164,-0.7773 -1.8135,0 -2.33165,0.3455 -2.33165,1.5545 0,0.8549 -0.34974,1.5544 -0.77721,1.5544 -0.42747,0 -0.77721,1.0492 -0.77721,2.3316 0,1.2824 -0.34975,2.3317 -0.77722,2.3317 -1.563962,0 -0.71303,2.443 1.74873,5.0205 2.37058,2.4821 2.84864,2.6481 7.77214,2.6982 l 5.2462,0.053 0,-5.8846 z m -17.794702,4.3571 c 0.84171,-0.8417 -0.13641,-3.2887 0.69564,-5.5716 0,0 -0.2137,-3.332 0.48641,-3.5281 2.936762,-0.8224 -2.03721,-0.5291 -2.04049,-0.53 -1.52455,-0.059 -1.45544,0.7971 -1.55443,2.6079 -0.41432,7.5795 0.79433,8.6404 2.41287,7.0218 z m 95.516092,-65.3129 0,-15.5443 -38.8607,0 -38.86069,0 0,15.5443 0,15.5443 38.86069,0 38.8607,0 z m -23.31642,-0.7772 0,-11.6582 9.32657,0 9.32657,0 0,11.6582 0,11.6582 -9.32657,0 -9.32657,0 z m 13.98985,0 0,-8.5494 -4.66328,0 -4.66328,0 0,8.5494 0,8.5493 4.66328,0 4.66328,0 z"
       id="path4151"
       inkscape:connector-curvature="0"
       sodipodi:nodetypes="ssssssssssssssssssssssscccccccccssssssssssssssssssssssssscccsccsscssssscsssssssssssssscssssssccsssssssssssssssssssssssssssssssssccccssssssscssssssssssssssssssssssssssssssssssssccssssssssscccccccccsssssssssssssssssssssssssssssssssssscccsssssssssssssscssssssssssssssssssssssssssssssssccccccsssssssssccsssssssssssssssssssssssssssssssssssssssssssssssssssssssssssssssssssssssssssscssssssssssssssssssssssssssssssssssscssssssssscccssscssccccccccccccccccccccccccccc" />
    <path
       style="fill:url(#linearGradient5713);fill-opacity:1"
       d="m 44.98837,1213.6195 c -16.338878,-25.6776 -30.040338,-47.267 -30.447688,-47.9763 -0.58126,-1.0122 2.79626,-1.2813 15.696089,-1.2511 l 16.436731,0.038 22.465815,35.4554 c 20.948042,33.0601 22.558613,35.3156 23.839482,33.3861 1.268948,-1.9115 -0.182937,-4.5086 -19.043324,-34.0642 -11.229358,-17.597 -20.768899,-32.6382 -21.198988,-33.4246 -0.653361,-1.1948 1.923093,-1.4299 15.664708,-1.4299 l 16.446687,0 12.692997,20.1122 c 6.981151,11.0617 12.912991,20.096 13.181911,20.0763 0.2689,-0.02 2.36865,-3.1507 4.66608,-6.9575 2.29745,-3.8068 19.5039,-31.5286 38.23656,-61.6041 l 34.05937,-54.6827 16.27871,-0.2829 c 8.95327,-0.1556 16.27868,-0.03 16.27868,0.2794 0,0.3093 -13.57557,22.026 -30.16795,48.2592 -16.59237,26.2334 -37.69845,59.6211 -46.90241,74.1952 l -16.73446,26.4981 1.98405,2.3909 c 1.09123,1.3148 2.1808,1.9264 2.42124,1.359 0.24045,-0.5675 11.17354,-18.2104 24.29577,-39.2065 13.12222,-20.9961 29.49308,-47.2283 36.37967,-58.2938 6.8866,-11.0655 17.53469,-28.1281 23.66241,-37.9168 l 11.14132,-17.7977 16.0283,0 c 8.81556,0 16.02829,0.2326 16.02829,0.5169 0,0.2843 -25.37452,40.6773 -56.38781,89.7621 l -56.38782,89.2453 -16.34288,0 c -15.78879,0 -16.39166,-0.077 -17.78156,-2.2861 l -1.43868,-2.2862 -1.15963,2.2862 c -1.12698,2.2218 -1.62422,2.2861 -17.672111,2.2861 l -16.512516,0 -29.707043,-46.6866 z"
       id="path4263"
       inkscape:connector-curvature="0"
       sodipodi:nodetypes="ccccssscscsccscsssscccssscssscsscssccc" />
  </g>
</svg>
