<?xml version="1.0" encoding="UTF-8" standalone="no"?>
<!-- Created with Inkscape (http://www.inkscape.org/) -->

<svg
   xmlns:dc="http://purl.org/dc/elements/1.1/"
   xmlns:cc="http://creativecommons.org/ns#"
   xmlns:rdf="http://www.w3.org/1999/02/22-rdf-syntax-ns#"
   xmlns:svg="http://www.w3.org/2000/svg"
   xmlns="http://www.w3.org/2000/svg"
   xmlns:sodipodi="http://sodipodi.sourceforge.net/DTD/sodipodi-0.dtd"
   xmlns:inkscape="http://www.inkscape.org/namespaces/inkscape"
   id="svg3004"
   version="1.1"
   inkscape:version="0.48.5 r10040"
   width="256"
   height="256"
   xml:space="preserve"
   sodipodi:docname="Dinothawr.svg"
   inkscape:export-filename="/Volumes/Verbatim16/GitHub Projects/baxy-retroarch-themes/monochrome plus/contributions/svg/Dinothawr.png"
   inkscape:export-xdpi="90.099998"
   inkscape:export-ydpi="90.099998"><metadata
     id="metadata3010"><rdf:RDF><cc:Work
         rdf:about=""><dc:format>image/svg+xml</dc:format><dc:type
           rdf:resource="http://purl.org/dc/dcmitype/StillImage" /><dc:title></dc:title></cc:Work></rdf:RDF></metadata><defs
     id="defs3008"><clipPath
       clipPathUnits="userSpaceOnUse"
       id="clipPath3018"><path
         d="M 0,256 256,256 256,0 0,0 0,256 z"
         id="path3020"
         inkscape:connector-curvature="0" /></clipPath></defs><sodipodi:namedview
     pagecolor="#ffffff"
     bordercolor="#666666"
     borderopacity="1"
     objecttolerance="10"
     gridtolerance="10"
     guidetolerance="10"
     inkscape:pageopacity="0"
     inkscape:pageshadow="2"
     inkscape:window-width="1676"
     inkscape:window-height="1005"
     id="namedview3006"
     showgrid="false"
     inkscape:zoom="2.61875"
     inkscape:cx="112.07637"
     inkscape:cy="160"
     inkscape:window-x="4"
     inkscape:window-y="1"
     inkscape:window-maximized="1"
     inkscape:current-layer="g3012" /><g
     id="g3012"
     inkscape:groupmode="layer"
     inkscape:label="Dinothawr"
     transform="matrix(1.25,0,0,-1.25,0,256)"><g
       id="g3014"
       transform="matrix(0.7483871,0,0,0.7483871,6.606526,7.3548383)"><g
         id="g3016"
         clip-path="url(#clipPath3018)"><g
           id="g3022"
           transform="translate(186.0869,54)"><path
             d="m 0,0 c -9.266,-9.021 -10.454,-10.354 -19.967,-20 -8.339,3.438 -27.62,3.223 -43.927,4 -8.758,3.803 -34.718,-1.475 -39.933,0 -7.743,12.92 -19.508,28.258 -31.947,44 -11.559,11.174 -35.558,29.27 -31.947,32 7.162,13.976 12.367,26.489 23.96,40 10.253,11.949 18.158,20.476 23.96,32 9.291,18.451 24.446,33.612 31.947,36 L 3.993,140 c 3.686,-3.116 7.909,-7.611 11.056,-13.819 C 25.088,106.374 35.939,80 47.92,60 50.825,55.149 49.664,55.398 51.913,52 42.722,40.475 18.154,17.675 0,0 m 61.147,133.528 c -3.769,17.321 -9.956,29.813 -19.467,39.313 -9.506,9.493 -22,15.664 -39.32,19.42 -14.908,3.233 -34.115,4.739 -60.447,4.739 -26.327,0 -45.535,-1.508 -60.45,-4.746 -17.317,-3.76 -29.811,-9.935 -39.317,-19.432 -9.511,-9.502 -15.697,-21.994 -19.467,-39.314 -3.252,-14.936 -4.766,-34.164 -4.766,-60.512 0,-26.738 1.456,-45.396 4.72,-60.5 3.745,-17.327 9.908,-29.82 19.392,-39.316 9.491,-9.502 21.982,-15.678 39.312,-19.436 14.926,-3.236 34.174,-4.744 60.576,-4.744 26.408,0 45.658,1.506 60.58,4.738 17.331,3.755 29.822,9.928 39.312,19.427 9.484,9.493 15.646,21.986 19.389,39.315 3.264,15.104 4.719,33.767 4.719,60.516 0,26.359 -1.515,45.594 -4.766,60.532"
             style="fill:#f2f2f2;fill-opacity:1;fill-rule:nonzero;stroke:none"
             id="path3024"
             inkscape:connector-curvature="0" /></g><g
           id="g3026"
           transform="translate(49.6992,150.1631)"><path
             d="M 0,0 C 7.254,-30.938 11.133,-51.504 6.783,-52.325"
             style="fill:#ecf0f1;fill-opacity:1;fill-rule:nonzero;stroke:none"
             id="path3028"
             inkscape:connector-curvature="0" /></g><g
           id="g3030"
           transform="translate(56.4805,96)"><path
             d="m 0,0 c -0.811,0 -1.528,0.628 -1.672,1.521 -0.161,1 0.457,1.952 1.381,2.127 2.883,3.06 -5.412,38.438 -8.137,50.063 -0.231,0.984 0.32,1.983 1.23,2.233 0.902,0.247 1.834,-0.345 2.064,-1.33 C 3.036,19.767 5.029,5.905 2.48,1.651 1.805,0.522 0.918,0.146 0.293,0.027 0.195,0.009 0.097,0 0,0"
             style="fill:#ecf0f1;fill-opacity:1;fill-rule:nonzero;stroke:none"
             id="path3032"
             inkscape:connector-curvature="0" /></g><g
           id="g3034"
           transform="translate(211.8311,112.8037)"><path
             d="m 0,0 c -4.311,3.455 -12.008,6.107 -21.753,9.464 -5.79,1.995 -12.17,4.195 -18.903,6.923 -0.107,-0.283 -0.222,-0.563 -0.35,-0.839 6.753,-2.736 13.143,-4.94 18.943,-6.939 9.66,-3.326 17.287,-5.954 21.47,-9.31 0.088,-0.07 0.194,-0.103 0.297,-0.103 0.134,0 0.267,0.057 0.359,0.164 C 0.226,-0.446 0.198,-0.159 0,0"
             style="fill:#f2f2f2;fill-opacity:1;fill-rule:nonzero;stroke:none"
             id="path3036"
             inkscape:connector-curvature="0" /></g><g
           id="g3038"
           transform="translate(188.8203,180.9707)"><path
             d="M 0,0 C -4.596,-2.162 -9.321,-4.083 -13.929,-5.954 -18.913,-7.977 -23.784,-9.96 -28.424,-12.183 -19.199,-7.362 -9.743,-2.854 0,0 M 6.963,1.315 C 6.663,1.896 6.114,2.259 5.516,2.345 5.642,2.691 5.673,3.076 5.581,3.461 5.334,4.507 4.293,5.145 3.249,4.903 3.179,4.886 3.108,4.865 3.038,4.848 3.06,5.029 3.065,5.214 3.034,5.402 2.856,6.463 1.853,7.185 0.806,7 -9.627,5.243 -18.812,0.168 -27.695,-4.74 c -7.531,-4.159 -15.316,-8.461 -23.659,-10.559 -1.037,-0.261 -1.667,-1.317 -1.407,-2.36 0.219,-0.883 1.007,-1.473 1.874,-1.473 0.156,0 0.314,0.018 0.471,0.058 0.522,0.131 1.032,0.294 1.549,0.44 -0.964,-0.497 -1.926,-0.991 -2.883,-1.472 -0.956,-0.481 -1.344,-1.649 -0.865,-2.611 0.34,-0.682 1.022,-1.075 1.732,-1.075 0.291,0 0.586,0.065 0.863,0.205 4.374,2.198 8.814,4.584 13.109,6.89 0.329,0.176 0.66,0.354 0.989,0.53 -4.225,-2.516 -8.166,-5.413 -11.697,-8.964 -0.756,-0.761 -0.756,-1.992 0,-2.752 0.378,-0.38 0.873,-0.57 1.368,-0.57 0.495,0 0.99,0.19 1.368,0.57 0.457,0.46 0.927,0.903 1.401,1.341 -0.164,-0.644 -0.003,-1.354 0.498,-1.858 0.378,-0.381 0.873,-0.571 1.368,-0.571 0.495,0 0.99,0.19 1.368,0.571 6.68,6.717 17.005,11.091 26.989,15.321 5.927,2.511 12.057,5.108 17.405,8.185 0.927,0.534 1.25,1.723 0.719,2.656 -0.047,0.081 -0.104,0.152 -0.16,0.224 0.476,0.239 0.958,0.46 1.43,0.706 0.948,0.495 1.319,1.668 0.828,2.623"
             style="fill:#ecf0f1;fill-opacity:1;fill-rule:nonzero;stroke:none"
             id="path3040"
             inkscape:connector-curvature="0" /></g><g
           id="g3042"
           transform="translate(144.5752,121.668)"><path
             d="m 0,0 c -6.353,1.866 -10.345,8.636 -10.171,17.247 0.147,7.327 3.732,16.07 11.259,17.955 L 1.317,34.281 C -5.727,32.518 -9.085,24.205 -9.226,17.228 -9.35,11.023 -6.938,3.026 0.267,0.912 L 0,0 z"
             style="fill:#f2f2f2;fill-opacity:1;fill-rule:nonzero;stroke:none"
             id="path3044"
             inkscape:connector-curvature="0" /></g><g
           id="g3046"
           transform="translate(163.8477,124)"><path
             d="m 0,0 0,0.889 c 2.702,0 4.714,1.269 5.983,3.772 2.384,4.701 1.648,13.416 -1.677,19.841 -2.207,4.265 -5.077,6.609 -8.089,6.609 l -0.059,0 -0.006,0.889 0.065,0 C -0.481,32 2.63,29.5 4.984,24.951 8.437,18.276 9.176,9.17 6.665,4.218 5.267,1.458 2.961,0 0,0"
             style="fill:#f2f2f2;fill-opacity:1;fill-rule:nonzero;stroke:none"
             id="path3048"
             inkscape:connector-curvature="0" /></g><g
           id="g3050"
           transform="translate(152.3164,140.8662)"><path
             d="m 0,0 c -0.081,-0.466 0.283,-0.851 1.079,-1.143 0.24,-0.04 0.525,0.252 0.852,0.839 C 2.506,0.734 2.535,1.72 2.393,1.858 1.563,1.855 0.148,0.86 0,0"
             style="fill:#f2f2f2;fill-opacity:1;fill-rule:nonzero;stroke:none"
             id="path3052"
             inkscape:connector-curvature="0" /></g><g
           id="g3054"
           transform="translate(154.667,139.4937)"><path
             d="m 0,0 c -0.478,-0.583 -0.931,-0.719 -1.251,-0.719 -0.103,0 -0.192,0.014 -0.265,0.032 l -0.044,0.013 c -1.726,0.618 -1.821,1.649 -1.724,2.209 0.236,1.36 2.062,2.642 3.307,2.642 0.397,0 0.722,-0.208 0.893,-0.57 C 1.336,2.717 0.768,0.938 0,0 m 9.993,-7.535 c 2.203,-0.984 4.376,-1.901 6.515,-2.768 5.892,15.752 -21.469,42.245 -34.53,15.132 -2.22,-4.609 2.006,-10.619 2.006,-14.056 0,-6.051 4.315,-6.039 6.019,-10.932 0,-6.334 19.994,-3.786 26.082,8.85 0.026,0.055 0.048,0.112 0.073,0.167 -2.15,0.871 -4.337,1.794 -6.554,2.785 -0.232,0.104 -0.335,0.373 -0.229,0.6 0.107,0.227 0.384,0.326 0.618,0.222"
             style="fill:#f2f2f2;fill-opacity:1;fill-rule:nonzero;stroke:none"
             id="path3056"
             inkscape:connector-curvature="0" /></g><g
           id="g3058"
           transform="translate(64.6465,120)"><path
             d="m 0,0 c -0.137,0 -0.273,0.064 -0.362,0.187 -4.404,6.122 -5.472,16.068 -2.929,27.293 3.328,14.688 12.019,28.264 21.134,33.013 2.346,1.222 5.046,1.619 7.657,2.004 2.524,0.372 5.135,0.757 7.324,1.898 0.498,0.259 0.995,0.531 1.493,0.803 2.631,1.439 5.366,2.927 8.601,2.794 0.25,-0.012 0.445,-0.23 0.435,-0.49 -0.01,-0.26 -0.21,-0.48 -0.47,-0.453 -2.999,0.15 -5.619,-1.303 -8.145,-2.686 -0.504,-0.275 -1.006,-0.55 -1.509,-0.812 C 30.908,62.343 28.223,61.947 25.626,61.564 23.087,61.189 20.462,60.803 18.248,59.649 9.355,55.017 0.86,41.699 -2.41,27.264 -4.892,16.311 -3.881,6.648 0.362,0.755 0.512,0.545 0.471,0.25 0.271,0.094 0.19,0.031 0.095,0 0,0"
             style="fill:#f2f2f2;fill-opacity:1;fill-rule:nonzero;stroke:none"
             id="path3060"
             inkscape:connector-curvature="0" /></g><g
           id="g3062"
           transform="translate(59.6157,100)"><path
             d="m 0,0 c -0.212,0 -0.384,0.199 -0.384,0.444 0,10.779 -2.358,23.522 -7.208,38.96 -0.073,0.231 0.03,0.486 0.229,0.569 0.201,0.084 0.421,-0.035 0.493,-0.265 C -1.989,24.171 0.384,11.328 0.384,0.444 0.384,0.199 0.212,0 0,0"
             style="fill:#f2f2f2;fill-opacity:1;fill-rule:nonzero;stroke:none"
             id="path3064"
             inkscape:connector-curvature="0" /></g><g
           id="g3066"
           transform="translate(64.8184,110.9814)"><path
             d="M 0,0 C 0.153,0.198 0.437,0.246 0.643,0.109 3.355,-1.713 5.124,-5.412 6.835,-8.989 8.571,-12.62 10.36,-16.354 13.067,-17.86 8.421,-12.215 4.956,1.019 0.324,1.019 -0.413,1.019 -0.758,0.165 -0.808,-1.273 -0.57,-0.827 -0.301,-0.402 0,0"
             style="fill:#f2f2f2;fill-opacity:1;fill-rule:nonzero;stroke:none"
             id="path3068"
             inkscape:connector-curvature="0" /></g><g
           id="g3070"
           transform="translate(75.2148,94.0938)"><path
             d="m 0,0 c -1.769,1.956 -3.107,4.751 -4.417,7.489 -1.571,3.286 -3.193,6.68 -5.49,8.449 -0.516,-0.769 -0.914,-1.624 -1.198,-2.559 0.49,-4.732 2.565,-12.405 4.895,-19.258 0.002,0.059 0.014,0.118 0.04,0.176 C -4.859,-2.78 -2.352,-1.209 0,0"
             style="fill:#f2f2f2;fill-opacity:1;fill-rule:nonzero;stroke:none"
             id="path3072"
             inkscape:connector-curvature="0" /></g><g
           id="g3074"
           transform="translate(94.9189,99.7285)"><path
             d="m 0,0 c 0,1.332 -0.275,6.02 -1.514,6.647 -0.144,0.074 -0.306,0.07 -0.485,0.002 0.04,-3.543 1.275,-8.298 2.589,-13.298 2.371,-9.015 4.822,-18.337 1.076,-23.206 -1.646,-2.139 -4.408,-3.223 -8.211,-3.223 -0.263,0 -0.474,0.213 -0.474,0.474 0,0.261 0.211,0.475 0.474,0.475 3.543,0 5.983,0.934 7.461,2.854 3.462,4.498 1.07,13.59 -1.242,22.385 -0.19,0.724 -0.379,1.442 -0.563,2.154 -0.086,-0.076 -0.19,-0.128 -0.308,-0.128 -0.038,0 -0.076,0.004 -0.115,0.014 -1.589,0.397 -3.449,0.375 -5.246,0.351 -0.597,-0.008 -1.189,-0.019 -1.776,-0.01 -0.262,0.004 -0.471,0.219 -0.468,0.481 0.003,0.259 0.215,0.468 0.474,0.468 0.117,-0.002 0.314,-0.002 0.474,-0.002 0.425,0 0.854,0.006 1.284,0.012 1.853,0.024 3.771,0.047 5.475,-0.378 -0.924,3.616 -1.687,7.009 -1.837,9.822 -3.026,-3.39 -8.46,-16.229 -11.704,-14.585 -0.339,0.171 -0.671,0.398 -0.997,0.662 -0.095,-0.041 -0.197,-0.062 -0.297,-0.036 -1.164,0.292 -2.171,0.903 -3.07,1.726 -2.378,-1.202 -4.772,-2.629 -6.011,-5.389 -0.078,-0.175 -0.251,-0.279 -0.431,-0.279 -0.065,0 -0.132,0.013 -0.195,0.042 -0.069,0.03 -0.123,0.078 -0.168,0.133 0.611,-1.783 1.236,-3.5 1.854,-5.095 1.357,-2.396 2.879,-4.907 4.611,-7.561 0.142,-0.219 0.081,-0.513 -0.138,-0.656 -0.216,-0.148 -0.511,-0.084 -0.656,0.137 -0.233,0.357 -0.442,0.697 -0.668,1.05 0.634,-1.128 1.192,-1.882 1.624,-2.118 0,-10.111 18.921,-13.305 23.216,-4.602 C 7.847,-22.959 0,-7.925 0,0"
             style="fill:#f2f2f2;fill-opacity:1;fill-rule:nonzero;stroke:none"
             id="path3076"
             inkscape:connector-curvature="0" /></g><g
           id="g3078"
           transform="translate(121.6724,68.6387)"><path
             d="m 0,0 c -2.354,0 -4.537,0.194 -6.288,0.518 -0.256,0.047 -0.427,0.294 -0.379,0.553 0.046,0.258 0.293,0.436 0.552,0.38 7.821,-1.445 22.791,-0.057 24.77,7.864 0.062,0.252 0.314,0.417 0.573,0.345 C 19.482,9.597 19.637,9.34 19.573,9.085 17.859,2.211 7.955,0 0,0"
             style="fill:#f2f2f2;fill-opacity:1;fill-rule:nonzero;stroke:none"
             id="path3080"
             inkscape:connector-curvature="0" /></g><g
           id="g3082"
           transform="translate(115.4712,103.792)"><path
             d="m 0,0 c -0.141,0 -0.281,0.062 -0.375,0.184 -0.16,0.207 -0.122,0.505 0.084,0.665 0.107,0.084 0.222,0.159 0.344,0.241 0.63,0.413 1.411,0.927 1.978,3.764 C 2.083,5.111 2.34,5.272 2.588,5.227 2.846,5.175 3.012,4.925 2.96,4.669 2.315,1.44 1.309,0.778 0.573,0.297 0.474,0.229 0.378,0.167 0.29,0.1 0.204,0.033 0.102,0 0,0"
             style="fill:#2c3e50;fill-opacity:1;fill-rule:nonzero;stroke:none"
             id="path3084"
             inkscape:connector-curvature="0" /></g><g
           id="g3086"
           transform="translate(136.8633,98.4355)"><path
             d="M 0,0 C -0.24,0 -0.446,0.182 -0.472,0.427 -0.627,1.95 0.029,2.843 0.664,3.707 1.09,4.285 1.491,4.832 1.682,5.588 1.745,5.84 1.998,6.007 2.256,5.933 2.509,5.87 2.664,5.612 2.6,5.358 2.364,4.419 1.867,3.742 1.429,3.144 0.851,2.359 0.354,1.681 0.472,0.522 0.498,0.262 0.309,0.029 0.048,0.002 0.031,0 0.015,0 0,0"
             style="fill:#2c3e50;fill-opacity:1;fill-rule:nonzero;stroke:none"
             id="path3088"
             inkscape:connector-curvature="0" /></g><g
           id="g3090"
           transform="translate(114.0454,110.5771)"><path
             d="M 0,0 C -0.213,0 -0.406,0.145 -0.46,0.359 -0.788,1.674 -0.891,3.27 -1,4.958 c -0.241,3.71 -0.489,7.547 -3.107,8.651 -0.24,0.102 -0.354,0.38 -0.252,0.621 0.101,0.242 0.376,0.36 0.62,0.254 3.158,-1.333 3.437,-5.653 3.684,-9.463 C 0.052,3.375 0.152,1.82 0.459,0.59 0.522,0.336 0.369,0.078 0.115,0.015 0.077,0.004 0.038,0 0,0"
             style="fill:#2c3e50;fill-opacity:1;fill-rule:nonzero;stroke:none"
             id="path3092"
             inkscape:connector-curvature="0" /></g><g
           id="g3094"
           transform="translate(143.4277,174.5566)"><path
             d="m 0,0 c -2.389,1.196 -4.424,3.499 -6.391,5.725 -1.8,2.038 -3.662,4.146 -5.757,5.36 l 0.473,0.821 C -9.443,10.615 -7.53,8.449 -5.68,6.354 -3.774,4.195 -1.802,1.963 0.422,0.849 L 0,0 z"
             style="fill:#f2f2f2;fill-opacity:1;fill-rule:nonzero;stroke:none"
             id="path3096"
             inkscape:connector-curvature="0" /></g><g
           id="g3098"
           transform="translate(173.584,91.6172)"><path
             d="M 0,0 C -1.004,3.43 -1.889,7.854 -2.643,11.995 -2.227,6.894 -1.626,0.757 -0.848,0.213 -0.616,0.097 -0.322,0.036 0,0"
             style="fill:#f2f2f2;fill-opacity:1;fill-rule:nonzero;stroke:none"
             id="path3100"
             inkscape:connector-curvature="0" /></g><g
           id="g3102"
           transform="translate(198.8857,95.6504)"><path
             d="m 0,0 c -0.828,0.408 -2.061,0.421 -3.532,0.187 -1.214,-3.397 -7.319,-8.329 -7.953,-8.751 -1.599,-1.069 -3.781,-3.187 -6.306,-5.641 -5.786,-5.625 -13.293,-12.92 -19.536,-12.92 -1.523,0 -2.969,0.436 -4.3,1.433 -0.209,0.158 -0.251,0.454 -0.094,0.666 0.158,0.209 0.457,0.246 0.664,0.094 6.128,-4.609 15.652,4.65 22.607,11.408 0.181,0.176 0.357,0.346 0.535,0.519 -1.598,1.683 -3,4.679 -3.22,6.933 l 0.944,0.093 c 0.198,-2.036 1.511,-4.841 2.957,-6.367 2.044,1.975 3.824,3.636 5.223,4.571 1.143,0.763 6.012,4.963 7.381,7.754 -7.391,-1.623 -19.337,-8.069 -20.182,-5.575 -0.065,0.193 -0.129,0.395 -0.194,0.597 -0.612,0.02 -1.146,0.119 -1.572,0.334 -1.206,0.603 -1.739,5.085 -2.548,15.572 -0.189,2.46 -0.395,5.107 -0.609,6.991 -0.187,0.915 -0.354,1.619 -0.5,2.03 -1.401,-1.52 -5.159,-7.134 -8.38,-12.365 -0.337,-0.671 -0.673,-1.358 -1.008,-2.056 0.081,0.011 0.164,0.009 0.244,-0.024 3.691,-1.53 6.885,-3.129 10.048,-5.033 0.224,-0.134 0.296,-0.427 0.16,-0.65 -0.089,-0.149 -0.244,-0.231 -0.405,-0.231 -0.083,0 -0.168,0.023 -0.244,0.07 -3.119,1.877 -6.273,3.456 -9.921,4.966 -0.097,0.041 -0.165,0.113 -0.216,0.196 -1.539,-3.269 -3.014,-6.774 -4.204,-10.229 -0.029,-0.477 -0.054,-0.96 -0.076,-1.45 -0.101,-2.178 -0.206,-4.43 -0.937,-6.452 -0.089,-0.246 -0.358,-0.374 -0.606,-0.285 -0.246,0.089 -0.374,0.361 -0.285,0.607 0.433,1.2 0.623,2.523 0.736,3.865 -2.692,-9.519 -2.496,-17.794 5.526,-18.328 -2.688,-13.233 16.86,9.092 20.16,10.174 C -17.362,-16.548 6.486,-3.191 0,0"
             style="fill:#f2f2f2;fill-opacity:1;fill-rule:nonzero;stroke:none"
             id="path3104"
             inkscape:connector-curvature="0" /></g><g
           id="g3106"
           transform="translate(104.8887,211.7144)"><path
             d="M 0,0 C -0.1,0.24 -0.372,0.348 -0.605,0.25 -0.841,0.148 -0.952,-0.126 -0.852,-0.364 3.515,-10.812 8.125,-19.74 12.61,-27.729 c 0.359,-0.005 0.719,-0.016 1.078,-0.024 C 9.132,-19.663 4.437,-10.618 0,0"
             style="fill:#f2f2f2;fill-opacity:1;fill-rule:nonzero;stroke:none"
             id="path3108"
             inkscape:connector-curvature="0" /></g><g
           id="g3110"
           transform="translate(135.252,154.9878)"><path
             d="m 0,0 c -0.194,-0.303 -0.363,-0.646 -0.513,-1.015 1.677,-3.264 3.155,-6.464 4.367,-9.672 0.07,-0.187 0.246,-0.301 0.431,-0.301 0.055,0 0.111,0.01 0.164,0.031 0.24,0.093 0.36,0.363 0.268,0.604 C 3.418,-6.916 1.815,-3.494 0,0"
             style="fill:#f2f2f2;fill-opacity:1;fill-rule:nonzero;stroke:none"
             id="path3112"
             inkscape:connector-curvature="0" /></g><g
           id="g3114"
           transform="translate(135.252,154.9878)"><path
             d="m 0,0 c 1.926,2.994 5.764,3.198 5.764,8.567 0,5.422 -4.202,15.33 -9.405,17.951 -3.763,1.896 -8.406,2.347 -13.034,2.455 2.6,-4.616 5.156,-8.924 7.592,-13.029 C -5.713,10.27 -2.627,5.056 0,0"
             style="fill:#f2f2f2;fill-opacity:1;fill-rule:nonzero;stroke:none"
             id="path3116"
             inkscape:connector-curvature="0" /></g><g
           id="g3118"
           transform="translate(117.4985,183.9854)"><path
             d="m 0,0 c -0.756,0.01 -1.511,0.014 -2.259,0.014 8.452,-14.242 14.062,-27.41 18.605,-39.802 -0.045,4.018 0.186,7.721 0.737,9.386 0.046,0.139 0.105,0.26 0.158,0.39 -2.678,5.214 -5.871,10.598 -9.361,16.477 C 5.353,-9.279 2.7,-4.81 0,0"
             style="fill:#f2f2f2;fill-opacity:1;fill-rule:nonzero;stroke:none"
             id="path3120"
             inkscape:connector-curvature="0" /></g><g
           id="g3122"
           transform="translate(134.7246,136.1025)"><path
             d="M 0,0 C 0.987,0.334 1.512,1.392 1.172,2.363 0.51,4.256 -0.172,6.166 -0.88,8.095 -0.848,5.336 -0.686,2.433 -0.406,-0.068 -0.271,-0.053 -0.135,-0.045 0,0"
             style="fill:#f2f2f2;fill-opacity:1;fill-rule:nonzero;stroke:none"
             id="path3124"
             inkscape:connector-curvature="0" /></g><g
           id="g3126"
           transform="translate(115.2397,183.9995)"><path
             d="m 0,0 c -4.419,7.447 -9.615,15.188 -15.843,23.266 -0.632,0.817 -1.815,0.976 -2.649,0.358 -0.832,-0.621 -0.994,-1.787 -0.363,-2.606 C -13.206,13.691 -8.422,6.644 -4.3,-0.158 -3.589,-0.058 -2.81,0 -1.942,0 -1.301,0 -0.652,0 0,0"
             style="fill:#f2f2f2;fill-opacity:1;fill-rule:nonzero;stroke:none"
             id="path3128"
             inkscape:connector-curvature="0" /></g><g
           id="g3130"
           transform="translate(162.127,40)"><path
             d="M 0,0 C -0.121,0 -0.242,0.011 -0.364,0.035 -19.17,3.775 -43.538,4.507 -74.33,4.521 l -0.001,0 c -0.615,0 -1.191,0.305 -1.541,0.814 -1.776,2.58 -3.43,5.083 -5.083,7.587 -6.611,10.011 -13.448,20.363 -28.632,35.865 -0.727,0.743 -0.719,1.938 0.018,2.669 0.739,0.733 1.923,0.723 2.651,-0.018 15.438,-15.76 22.375,-26.266 29.085,-36.426 1.466,-2.219 2.933,-4.441 4.486,-6.715 C -42.792,8.293 -18.54,7.499 0.36,3.74 1.376,3.537 2.037,2.544 1.838,1.522 1.66,0.623 0.877,0 0,0"
             style="fill:#ecf0f1;fill-opacity:1;fill-rule:nonzero;stroke:none"
             id="path3132"
             inkscape:connector-curvature="0" /></g><g
           id="g3134"
           transform="translate(201.4141,162.9844)"><path
             d="m 0,0 c -3.377,-1.279 -6.821,-2.443 -10.19,-3.572 -3.132,-1.049 -6.208,-2.08 -9.183,-3.184 C -13.063,-4.103 -6.616,-1.668 0,0 M 6.45,1.136 C 6.227,1.584 5.775,1.86 5.285,1.913 5.348,2.119 5.365,2.339 5.314,2.563 5.144,3.3 4.363,3.767 3.571,3.612 3.471,3.592 3.371,3.569 3.27,3.548 3.278,3.648 3.277,3.75 3.261,3.854 3.141,4.6 2.375,5.112 1.591,5 -6.749,3.84 -14.108,0.485 -21.228,-2.761 c -6.054,-2.76 -12.314,-5.614 -19.038,-7.01 -0.792,-0.164 -1.29,-0.892 -1.112,-1.628 0.151,-0.635 0.76,-1.067 1.431,-1.067 0.107,0 0.214,0.012 0.323,0.034 0.21,0.044 0.415,0.101 0.625,0.147 -0.516,-0.217 -1.034,-0.447 -1.546,-0.659 -0.739,-0.308 -1.071,-1.114 -0.741,-1.802 0.244,-0.506 0.78,-0.808 1.341,-0.808 0.201,0 0.405,0.038 0.6,0.119 3.351,1.391 6.747,2.893 10.049,4.356 -2.833,-1.488 -5.49,-3.176 -7.907,-5.182 -0.604,-0.502 -0.656,-1.364 -0.116,-1.926 0.291,-0.301 0.692,-0.454 1.094,-0.454 0.35,0 0.701,0.114 0.98,0.346 0.445,0.37 0.9,0.728 1.364,1.076 -0.148,-0.443 -0.074,-0.94 0.282,-1.311 0.291,-0.301 0.693,-0.454 1.096,-0.454 0.349,0 0.699,0.114 0.979,0.346 5.373,4.46 13.673,7.363 21.701,10.17 4.753,1.662 9.668,3.381 13.956,5.416 0.721,0.343 1.007,1.164 0.638,1.835 -0.024,0.042 -0.055,0.078 -0.083,0.117 0.348,0.144 0.701,0.278 1.046,0.426 0.736,0.316 1.056,1.127 0.716,1.81"
             style="fill:#ecf0f1;fill-opacity:1;fill-rule:nonzero;stroke:none"
             id="path3136"
             inkscape:connector-curvature="0" /></g><g
           id="g3138"
           transform="translate(207.3926,144.5269)"><path
             d="M 0,0 C -2.177,-0.828 -4.392,-1.586 -6.561,-2.322 -8.527,-2.989 -10.456,-3.65 -12.332,-4.348 -8.312,-2.647 -4.209,-1.091 0,0 M 4.522,0.836 C 4.375,1.153 4.066,1.337 3.734,1.37 3.773,1.507 3.79,1.652 3.758,1.801 3.65,2.307 3.131,2.624 2.617,2.528 2.537,2.512 2.458,2.49 2.378,2.473 2.383,2.54 2.399,2.604 2.39,2.673 2.313,3.185 1.808,3.537 1.295,3.463 -4.264,2.682 -9.172,0.417 -13.919,-1.773 c -4.041,-1.865 -8.222,-3.793 -12.713,-4.736 -0.521,-0.11 -0.85,-0.608 -0.738,-1.112 0.098,-0.438 0.499,-0.737 0.941,-0.737 0.068,0 0.138,0.007 0.207,0.022 0.103,0.022 0.203,0.05 0.306,0.073 -0.298,-0.127 -0.597,-0.261 -0.895,-0.386 -0.49,-0.205 -0.713,-0.756 -0.501,-1.23 0.158,-0.352 0.511,-0.563 0.885,-0.563 0.128,0 0.259,0.025 0.384,0.077 2.233,0.938 4.466,1.937 6.708,2.943 -1.873,-0.999 -3.642,-2.12 -5.24,-3.463 -0.404,-0.339 -0.446,-0.929 -0.098,-1.319 0.192,-0.213 0.46,-0.323 0.73,-0.323 0.223,0 0.45,0.076 0.631,0.229 1.181,0.991 2.465,1.864 3.831,2.654 l 9.576,4.182 c 1.307,0.463 2.634,0.918 3.982,1.375 3.298,1.119 6.709,2.275 9.961,3.689 0.486,0.211 0.703,0.764 0.484,1.234"
             style="fill:#ecf0f1;fill-opacity:1;fill-rule:nonzero;stroke:none"
             id="path3140"
             inkscape:connector-curvature="0" /></g><g
           id="g3142"
           transform="translate(210.8711,133.4956)"><path
             d="M 0,0 C -1.437,-0.668 -2.905,-1.273 -4.342,-1.861 -5.758,-2.44 -7.143,-3.012 -8.479,-3.629 -5.721,-2.2 -2.899,-0.884 0,0 M 2.601,0.546 C 2.505,0.769 2.313,0.895 2.105,0.919 2.139,1.031 2.155,1.148 2.131,1.271 2.058,1.636 1.735,1.876 1.392,1.792 1.351,1.782 1.311,1.768 1.27,1.758 1.275,1.813 1.285,1.868 1.277,1.926 1.225,2.298 0.904,2.551 0.57,2.497 -2.904,1.907 -5.971,0.201 -8.935,-1.448 c -2.518,-1.403 -5.125,-2.853 -7.923,-3.56 -0.332,-0.085 -0.541,-0.451 -0.465,-0.819 0.066,-0.317 0.322,-0.53 0.604,-0.53 0.046,0 0.092,0.005 0.14,0.017 0.108,0.027 0.213,0.062 0.319,0.091 -0.239,-0.124 -0.478,-0.252 -0.718,-0.374 -0.311,-0.158 -0.448,-0.564 -0.304,-0.906 0.105,-0.252 0.329,-0.398 0.563,-0.398 0.087,0 0.176,0.02 0.259,0.062 1.458,0.74 2.915,1.526 4.38,2.318 0.002,0.002 0.005,0.003 0.007,0.004 -1.262,-0.79 -2.447,-1.685 -3.515,-2.767 -0.252,-0.255 -0.268,-0.687 -0.037,-0.964 0.123,-0.146 0.29,-0.222 0.457,-0.222 0.149,0 0.301,0.061 0.419,0.18 0.711,0.721 1.483,1.358 2.303,1.938 l 6.189,3.26 c 0.772,0.328 1.554,0.652 2.348,0.976 2.057,0.843 4.186,1.713 6.217,2.779 0.308,0.162 0.439,0.569 0.293,0.909"
             style="fill:#ecf0f1;fill-opacity:1;fill-rule:nonzero;stroke:none"
             id="path3144"
             inkscape:connector-curvature="0" /></g><g
           id="g3146"
           transform="translate(112.3691,81.2734)"><path
             d="m 0,0 c -8.305,-10.544 -15.478,-19.649 -18.513,-26.895 -0.102,-0.241 0.012,-0.518 0.253,-0.621 0.06,-0.025 0.122,-0.037 0.183,-0.037 0.185,0 0.361,0.11 0.437,0.291 2.986,7.125 10.465,16.621 18.383,26.674 0.208,0.265 0.419,0.533 0.628,0.799 C 1.11,0.388 0.849,0.566 0.586,0.745 0.392,0.497 0.194,0.246 0,0"
             style="fill:#f2f2f2;fill-opacity:1;fill-rule:nonzero;stroke:none"
             id="path3148"
             inkscape:connector-curvature="0" /></g><g
           id="g3150"
           transform="translate(114.166,150.4331)"><path
             d="m 0,0 c -0.042,0.193 -0.087,0.382 -0.132,0.572 -1.304,3.574 -3.704,6.921 -6.75,9.388 -2.342,0.939 -4.476,1.617 -6.654,2.115 -1.755,0.402 -3.502,0.588 -5.216,0.588 -0.566,0 -1.128,-0.025 -1.686,-0.065 -7.065,-2.158 -15.591,-7.471 -17.436,-11.154 -2.799,-5.591 -0.25,-14.142 4.453,-19.35 1.491,-1.016 3.241,-2.009 5.312,-2.956 2.65,-1.213 5.211,-0.534 7.924,0.184 1.652,0.437 3.358,0.889 5.102,0.889 0.029,0 0.056,0 0.084,0 0.666,0.243 1.335,0.479 2.004,0.714 4.658,1.639 9.09,3.202 12.058,7.028 0.982,1.586 1.552,3.308 1.773,5.086 C 0.849,-5.044 0.566,-2.577 0,0"
             style="fill:#f2f2f2;fill-opacity:1;fill-rule:nonzero;stroke:none"
             id="path3152"
             inkscape:connector-curvature="0" /></g><g
           id="g3154"
           transform="translate(90.7134,128.1143)"><path
             d="M 0,0 C -0.454,-0.06 -0.91,-0.098 -1.369,-0.105 -0.915,-0.108 -0.458,-0.073 0,0"
             style="fill:#f2f2f2;fill-opacity:1;fill-rule:nonzero;stroke:none"
             id="path3156"
             inkscape:connector-curvature="0" /></g><g
           id="g3158"
           transform="translate(126.1675,128.792)"><path
             d="m 0,0 c -0.262,0 -0.474,0.212 -0.474,0.475 0,10.442 -2.797,19.991 -5.504,29.227 -1.183,4.039 -2.406,8.215 -3.397,12.45 -0.06,0.255 0.099,0.51 0.353,0.57 0.257,0.065 0.511,-0.099 0.569,-0.353 0.985,-4.209 2.205,-8.373 3.385,-12.4 C -2.343,20.669 0.474,11.053 0.474,0.475 0.474,0.212 0.262,0 0,0 M 9.404,1.355 C 8.867,2.438 8.445,4.618 8.151,7.243 8.082,7.235 8.011,7.208 7.942,7.208 7.158,7.208 6.425,7.693 6.156,8.463 1.136,22.802 -4.997,38.167 -15.228,55.05 c -10.404,-1.469 -4.462,-13.317 0.684,-24.626 1.76,-1.853 2.922,-6.076 3.39,-8.068 1.354,-3.778 2.049,-7.131 1.254,-9.532 -0.591,-1.786 -1.444,-3.058 -2.464,-4.032 -3.16,-3.853 -7.781,-5.49 -12.277,-7.072 -0.695,-0.245 -1.392,-0.49 -2.084,-0.743 l -0.093,-0.035 -0.1,0.002 c -0.594,0.014 -1.188,-0.049 -1.782,-0.137 -2.058,-2.621 -1.513,-7.969 -2.978,-10.92 -8.286,-16.696 5.717,-27.962 18.466,-36.66 8.919,11.325 18.883,24.078 24.838,36.383 0.115,0.238 0.396,0.337 0.633,0.219 0.236,-0.113 0.333,-0.396 0.218,-0.634 -5.989,-12.379 -15.965,-25.152 -24.904,-36.503 1.367,-0.926 2.715,-1.824 4.012,-2.695 3.27,-2.196 9.548,-0.571 13.364,-2.493 5.567,-2.804 21.341,15.131 22.768,19.446 8.49,25.657 -10.821,19.31 -18.313,34.405"
             style="fill:#f2f2f2;fill-opacity:1;fill-rule:nonzero;stroke:none"
             id="path3160"
             inkscape:connector-curvature="0" /></g><g
           id="g3162"
           transform="translate(104.0806,162.5156)"><path
             d="M 0,0 C -0.875,0.465 -1.779,0.865 -2.711,1.175 -3.719,1.51 -5.002,1.556 -6.449,1.382 -5.375,1.286 -4.294,1.121 -3.211,0.873 -2.138,0.627 -1.077,0.337 0,0"
             style="fill:#f2f2f2;fill-opacity:1;fill-rule:nonzero;stroke:none"
             id="path3164"
             inkscape:connector-curvature="0" /></g><g
           id="g3166"
           transform="translate(110.2236,159.1304)"><path
             d="m 0,0 c 1.292,-0.592 2.799,-3.826 3.811,-8.125 0.902,-2.476 1.276,-5.057 0.968,-7.533 -0.009,-1.429 -0.182,-2.554 -0.527,-3.184 -0.378,-0.693 -0.797,-1.322 -1.247,-1.902 -0.585,-0.945 -1.313,-1.843 -2.201,-2.674 1.011,0.483 1.947,1.081 2.776,1.872 0.567,0.693 1.094,1.449 1.558,2.298 1.124,2.055 0.581,7.064 -0.225,10.729 C 4.88,-8.368 4.837,-8.183 4.79,-7.982 3.876,-5.433 2.663,-2.69 1.4,0.085 1.098,0.404 0.78,0.657 0.443,0.811 -1.954,1.907 -4.079,2.738 -6.143,3.385 -5.018,2.787 -3.943,2.075 -2.94,1.263 -1.999,0.885 -1.027,0.47 0,0"
             style="fill:#f2f2f2;fill-opacity:1;fill-rule:nonzero;stroke:none"
             id="path3168"
             inkscape:connector-curvature="0" /></g><g
           id="g3170"
           transform="translate(80.7446,132.5269)"><path
             d="m 0,0 c -9.641,6.569 -8.066,14.157 -6.746,17.423 2.674,6.615 10.603,12.432 19.729,13.081 1.377,0.421 2.698,0.722 3.904,0.867 C 5.768,32.371 -4.5,25.592 -7.675,17.737 -11.042,9.407 -6.353,1.368 4.87,-3.767 c 1.211,-0.554 2.401,-0.76 3.573,-0.76 0.053,0 0.104,0.008 0.157,0.009 C 5.449,-4.496 2.437,-2.699 0,0"
             style="fill:#f2f2f2;fill-opacity:1;fill-rule:nonzero;stroke:none"
             id="path3172"
             inkscape:connector-curvature="0" /></g><g
           id="g3174"
           transform="translate(91.4336,128.252)"><path
             d="M 0,0 C -0.24,-0.06 -0.48,-0.1 -0.72,-0.138 0.479,0.021 1.659,0.324 2.822,0.633 3.88,0.913 4.955,1.187 6.034,1.347 6.199,1.557 6.375,1.754 6.575,1.926 4.368,1.407 2.144,0.856 0,0"
             style="fill:#f2f2f2;fill-opacity:1;fill-rule:nonzero;stroke:none"
             id="path3176"
             inkscape:connector-curvature="0" /></g></g></g></g></svg>