<?xml version="1.0" encoding="UTF-8" standalone="no"?>
<!-- Created with Inkscape (http://www.inkscape.org/) -->

<svg
   xmlns:dc="http://purl.org/dc/elements/1.1/"
   xmlns:cc="http://creativecommons.org/ns#"
   xmlns:rdf="http://www.w3.org/1999/02/22-rdf-syntax-ns#"
   xmlns:svg="http://www.w3.org/2000/svg"
   xmlns="http://www.w3.org/2000/svg"
   xmlns:sodipodi="http://sodipodi.sourceforge.net/DTD/sodipodi-0.dtd"
   xmlns:inkscape="http://www.inkscape.org/namespaces/inkscape"
   width="256"
   height="256"
   viewBox="0 0 256 256"
   id="svg2"
   version="1.1"
   inkscape:version="0.91 r13725"
   sodipodi:docname="DOOM NUOVO.svg"
   inkscape:export-filename="C:\Users\lollo78\Desktop\DOOM.png"
   inkscape:export-xdpi="90"
   inkscape:export-ydpi="90">
  <defs
     id="defs4" />
  <sodipodi:namedview
     id="base"
     pagecolor="#ffffff"
     bordercolor="#666666"
     borderopacity="1.0"
     inkscape:pageopacity="0.0"
     inkscape:pageshadow="2"
     inkscape:zoom="0.9899495"
     inkscape:cx="428.09428"
     inkscape:cy="401.8446"
     inkscape:document-units="px"
     inkscape:current-layer="layer1"
     showgrid="false"
     inkscape:window-width="1920"
     inkscape:window-height="1057"
     inkscape:window-x="-8"
     inkscape:window-y="-8"
     inkscape:window-maximized="1"
     units="px" />
  <metadata
     id="metadata7">
    <rdf:RDF>
      <cc:Work
         rdf:about="">
        <dc:format>image/svg+xml</dc:format>
        <dc:type
           rdf:resource="http://purl.org/dc/dcmitype/StillImage" />
        <dc:title></dc:title>
      </cc:Work>
    </rdf:RDF>
  </metadata>
  <g
     inkscape:label="Livello 1"
     inkscape:groupmode="layer"
     id="layer1"
     transform="translate(0,-796.36216)">
    <path
       style="fill:#f2f2f2"
       d="m 127.8519,815.27301 c -90.129481,0 -108.565349,18.30719 -108.565349,108.56535 0,90.25824 18.15038,108.56594 108.565349,108.56594 90.42707,0 108.56537,-18.2716 108.56537,-108.56594 0,-90.30238 -18.43586,-108.56535 -108.56537,-108.56535 z m -95.320643,63.56371 17.963377,0 17.963956,0 3.575771,2.49827 3.576345,2.49887 0.08743,33.94839 0.08799,33.94781 1.279542,1.11221 1.279541,1.11223 -0.490397,0.39022 c -2.719173,2.16195 -43.7477,34.38835 -44.105398,34.64316 -0.460426,0.32798 -0.446706,0.27036 0.394283,-1.61708 l 0.871943,-1.95637 0,-51.94129 0,-51.94072 -1.241908,-1.34786 -1.242489,-1.34784 z m 97.340713,0.17484 15.27692,0 15.27691,0 3.22896,2.20012 3.22896,2.2001 0,17.22056 c -5e-5,9.47138 -0.0529,24.39225 -0.11692,33.15693 l -0.1164,15.93521 -2.99621,2.38134 c -8.41909,6.69186 -18.18791,14.40903 -18.24013,14.40903 -0.0325,0 -1.46831,-1.15533 -3.19133,-2.5672 -1.723,-1.41186 -6.30698,-5.16433 -10.18655,-8.33901 -3.87955,-3.17468 -7.09168,-5.83295 -7.13764,-5.90732 -0.13986,-0.2263 -0.3345,-63.49075 -0.19974,-64.92602 l 0.12568,-1.33862 2.52376,-2.21227 2.52376,-2.21285 z m 48.58496,0 c 5.78675,0 10.52176,0.0304 10.52176,0.0672 0,0.0367 0.75398,2.81819 1.67557,6.18118 0.92158,3.36301 2.12176,7.75163 2.66735,9.75289 0.54555,2.00125 1.03431,3.63849 1.08618,3.63771 0.0517,-5.8e-4 0.53939,-1.5202 1.08325,-3.37602 0.54387,-1.85581 1.84033,-6.2739 2.88099,-9.8183 l 1.89211,-6.4446 11.21364,0 11.21423,0 -2.21458,1.76993 -2.21459,1.77052 0,51.51864 c 0,45.9976 0.0297,51.67414 0.27443,52.96492 0.33348,1.758 1.16265,4.28181 1.862,5.66877 0.28455,0.56432 0.48918,1.05377 0.45507,1.08791 -0.0342,0.0342 -0.68998,-0.43389 -1.45787,-1.03986 -1.58588,-1.2515 -9.85527,-7.76822 -15.03201,-11.84647 l -3.46518,-2.72988 1.05373,-1.02537 1.05432,-1.02536 0,-23.77286 c 0,-13.07521 -0.0455,-23.72795 -0.10079,-23.67268 -0.0552,0.0552 -0.28138,0.87731 -0.50255,1.82669 -0.22111,0.94936 -1.1161,4.68524 -1.98879,8.30195 -0.87271,3.61673 -2.27584,9.4558 -3.1178,12.97607 -0.84196,3.52028 -2.01774,8.41268 -2.61351,10.87205 l -1.08327,4.47202 -0.39195,-1.6663 c -0.21553,-0.91623 -2.12566,-9.47764 -4.24451,-19.0258 -5.22581,-23.54906 -5.08812,-22.93817 -5.21832,-23.23498 -0.0634,-0.14464 -0.13588,9.19281 -0.16038,20.75 l -0.0446,21.01345 -0.65656,-0.52282 c -1.53721,-1.22338 -14.86504,-12.52653 -14.90926,-12.64432 -0.0267,-0.0711 0.50572,-0.62164 1.18342,-1.22395 l 1.23207,-1.09543 0,-33.41051 0,-33.40992 -1.22744,-1.74157 c -0.67514,-0.95774 -1.22743,-1.77829 -1.22743,-1.82321 0,-0.0449 4.73444,-0.0816 10.52121,-0.0816 z m -93.12402,0.35085 15.31918,0 15.31976,0 2.56835,2.23602 2.56777,2.23543 0,33.05504 0,33.05444 -10.28555,8.41718 c -5.65727,4.62942 -10.33155,8.43356 -10.38686,8.45365 -0.0554,0.02 -1.80635,-1.32162 -3.89189,-2.98114 l -6e-4,0 c -2.08582,-1.65979 -6.878589,-5.46396 -10.651459,-8.45368 l -6.860313,-5.43601 -5.94e-4,-33.14882 -5.93e-4,-33.14882 3.15138,-2.14165 3.151378,-2.14164 z m -34.885754,15.42631 0,25.60473 c 0,14.08259 0.04348,25.60472 0.09669,25.60472 0.05321,0 2.243143,-1.78589 4.866313,-3.96832 2.623173,-2.18242 4.868115,-4.0915 4.989056,-4.24275 0.174123,-0.21774 0.210699,-4.71186 0.175431,-21.59067 l -0.04458,-21.31507 -5.041742,-0.0464 -5.041163,-0.0464 z m 89.957574,0 0,25.62614 c 0,20.47268 0.0444,25.59284 0.21944,25.45999 0.12061,-0.0914 2.48797,-1.96986 5.26118,-4.17385 l 5.04232,-4.00711 -0.0446,-21.40598 -0.0446,-21.40655 -5.2166,-0.0464 -5.21718,-0.0464 z m -45.20082,0.35606 -0.10594,0.39428 c -0.0582,0.21701 -0.10696,9.83992 -0.10828,21.38398 l -0.002,20.98912 0.83314,0.70637 c 0.90339,0.76616 9.57276,7.70666 9.64464,7.72124 0.0241,0.005 0.0441,-11.51203 0.0441,-25.59316 l 0,-25.60183 -5.15291,0 -5.15233,0 z"
       id="Settings_1_"
       inkscape:connector-curvature="0"
       inkscape:export-xdpi="90"
       inkscape:export-ydpi="90" />
  </g>
</svg>
