<?xml version="1.0" encoding="UTF-8" standalone="no"?>
<!-- Created with Inkscape (http://www.inkscape.org/) -->

<svg
   xmlns:osb="http://www.openswatchbook.org/uri/2009/osb"
   xmlns:dc="http://purl.org/dc/elements/1.1/"
   xmlns:cc="http://creativecommons.org/ns#"
   xmlns:rdf="http://www.w3.org/1999/02/22-rdf-syntax-ns#"
   xmlns:svg="http://www.w3.org/2000/svg"
   xmlns="http://www.w3.org/2000/svg"
   xmlns:sodipodi="http://sodipodi.sourceforge.net/DTD/sodipodi-0.dtd"
   xmlns:inkscape="http://www.inkscape.org/namespaces/inkscape"
   width="256"
   height="256"
   viewBox="0 0 256 256"
   id="svg2"
   version="1.1"
   inkscape:version="0.91 r13725"
   sodipodi:docname="DOS.svg"
   inkscape:export-filename="/home/lollo78/Scrivania/no typo/DOS.png"
   inkscape:export-xdpi="90"
   inkscape:export-ydpi="90">
  <defs
     id="defs4">
    <linearGradient
       id="linearGradient5709"
       osb:paint="solid">
      <stop
         style="stop-color:#f2f2f2;stop-opacity:1;"
         offset="0"
         id="stop5711" />
    </linearGradient>
    <linearGradient
       osb:paint="solid"
       id="linearGradient6547">
      <stop
         id="stop6549"
         offset="0"
         style="stop-color:#000000;stop-opacity:1;" />
    </linearGradient>
  </defs>
  <sodipodi:namedview
     id="base"
     pagecolor="#ffffff"
     bordercolor="#666666"
     borderopacity="1.0"
     inkscape:pageopacity="0.0"
     inkscape:pageshadow="2"
     inkscape:zoom="0.98994949"
     inkscape:cx="-40.115459"
     inkscape:cy="-143.67109"
     inkscape:document-units="px"
     inkscape:current-layer="layer1"
     showgrid="false"
     inkscape:window-width="1615"
     inkscape:window-height="1026"
     inkscape:window-x="1985"
     inkscape:window-y="24"
     inkscape:window-maximized="1"
     units="px" />
  <metadata
     id="metadata7">
    <rdf:RDF>
      <cc:Work
         rdf:about="">
        <dc:format>image/svg+xml</dc:format>
        <dc:type
           rdf:resource="http://purl.org/dc/dcmitype/StillImage" />
        <dc:title />
      </cc:Work>
    </rdf:RDF>
  </metadata>
  <g
     inkscape:label="Livello 1"
     inkscape:groupmode="layer"
     id="layer1"
     transform="translate(0,-796.36216)">
    <path
       style="fill:#f2f2f2"
       d="m 127.85156,18.910156 c -90.129476,0 -108.564451,18.308249 -108.564451,108.566404 0,90.25824 18.149487,108.56641 108.564451,108.56641 90.42707,0 108.56641,-18.27207 108.56641,-108.56641 0,-90.302375 -18.4369,-108.566404 -108.56641,-108.566404 z m 3.63555,54.248047 c 2.62093,0.03588 5.24938,0.295066 7.85742,0.791016 6.36799,1.211 6.08405,1.002437 3.88086,2.835937 -4.5937,3.8229 -9.51915,10.35721 -10.91016,14.47461 -0.59049,1.7478 -0.59138,1.747503 -4.53906,1.970703 -19.6611,1.1114 -30.581254,20.366191 -26.51172,46.742191 0.81551,5.2856 -2.839714,12.19352 -8.755864,16.54882 -2.5173,1.8532 -2.305839,1.85963 -4.068359,-0.14257 -8.62154,-9.7946 -9.518316,-39.95288 -1.660156,-55.85938 8.361727,-16.926174 26.360489,-27.612504 44.707039,-27.361327 z m 43.60742,0.544922 c 19.71334,-0.397556 39.09315,12.736353 40.49609,31.595705 0.25759,3.4628 -17.87585,4.81493 -18.69922,1.39453 -1.63452,-6.790101 -4.20299,-10.845372 -8.72265,-13.763672 -15.78727,-10.194401 -39.64574,5.769134 -30.81055,20.615232 2.22665,3.7416 2.46198,8.4629 0.80273,16.1582 -0.44357,2.0573 -0.4727,2.06811 -3.4746,1.28321 -21.93255,-5.7345 -21.13491,-39.284839 1.23828,-52.085939 5.99216,-3.42845 12.59881,-5.064747 19.16992,-5.197266 z M 67.573039,75.136719 c 8.671068,0.0069 17.208764,0.636165 23.917969,1.884765 3.71525,0.6912 3.659067,0.614744 1.654297,2.214844 -2.90365,2.3177 -8.020183,8.961019 -10.695312,13.886719 -0.586321,1.0796 -0.585837,1.079875 -6.972657,1.046875 -5.49699,-0.028 -9.67159,0.280766 -12.75,0.947266 -1.78941,0.3876 -1.098814,68.006742 0.697266,68.273432 0.81498,0.12101 3.286927,0.4845 5.492187,0.8086 30.04327,4.4142 44.293621,-7.34938 43.439461,-35.85938 -0.48797,-16.2876 4.65947,-29.184259 11.66601,-29.226559 1.39012,-0.01 5.18534,12.882529 6.46485,21.957029 5.9073,41.8957 -19.70738,65.99926 -65.929696,62.03907 -5.01946,-0.42991 -12.838525,-1.46776 -18.390625,-2.43946 -4.42989,-0.7752 -7.69372,-102.939198 -3.3125,-103.687498 7.244205,-1.2372 16.047683,-1.852603 24.71875,-1.845703 z M 177.50859,98.738281 c 1.80578,-0.02058 3.25089,0.156966 3.67383,0.580078 1.49993,1.500601 4.6441,11.290901 5.81055,18.095701 2.34533,13.6822 -2.12126,38.24889 -7.20313,39.61719 -1.63846,0.4411 -5.7515,0.25453 -7.8457,-0.35547 -2.63319,-0.7669 -4.81398,-1.87611 -6.71289,-3.41601 -2.39065,-1.9385 -2.39076,-1.9777 -0.25391,-6.25 5.74436,-11.4845 5.78949,-23.52697 0.14844,-39.22657 -1.58378,-4.4079 -1.12146,-5.42909 3.41015,-7.52539 1.95112,-0.90256 5.96304,-1.485228 8.97266,-1.519529 z m 16.97266,24.525389 c 1.03635,0.11833 4.88213,1.2876 6.87695,2.12891 24.11412,10.1701 23.28589,43.32531 -1.34766,53.94531 -7.68978,3.3153 -19.12956,4.87986 -28.58984,3.91016 -20.35562,-2.0865 -33.41872,-11.59933 -35.85742,-26.11133 -1.16418,-6.9276 -1.85004,-6.42578 8.82031,-6.42578 9.60539,0 9.60547,3.5e-4 9.60547,1.18945 0,10.1306 12.5455,17.45972 27.25195,15.91992 18.37163,-1.9236 25.25669,-15.16779 12.88086,-24.77929 -0.93664,-0.7275 -0.84616,-18.32177 0.10156,-19.75977 0.0198,-0.03 0.10977,-0.0345 0.25782,-0.0176 z m -63.66211,41.15821 c 0.74353,-0.0825 1.38974,0.62762 2.13281,2.10742 2.58471,5.1473 7.97981,12.80025 10.26758,14.56445 2.42436,1.8697 -11.61559,3.85334 -19.21484,2.71484 -1.05468,-0.1581 -3.2938,-0.68793 -4.97461,-1.17773 -1.68081,-0.4899 -3.14232,-0.89063 -3.24805,-0.89063 -0.10573,0 1.15814,-1.27744 2.80859,-2.83984 2.94702,-2.7896 6.00322,-6.59148 9.51367,-11.83398 1.13,-1.68755 1.97132,-2.56207 2.71485,-2.64453 z"
       transform="translate(0,796.36216)"
       id="Settings_1_"
       inkscape:connector-curvature="0"
       sodipodi:nodetypes="ssssssssscsscssssscscssssccsccscscscccsscsccccssscsssssssccccscccscsc" />
    <g
       id="layer1-2"
       inkscape:label="Livello 1"
       transform="translate(10.350281,0.66431083)">
      <g
         transform="matrix(1.3899297,0,0,1.3899297,-233.02614,-1310.4653)"
         id="g4949">
        <path
           style="fill:#f2f2f2;fill-opacity:1"
           d="m 235.82354,1871.8673 c -0.0476,-4.2037 -0.0993,-18.7473 -0.1151,-32.319 l -0.0287,-24.676 c 7.89041,0.3979 18.94748,-1.5272 24.72998,1.8052 7.74379,5.4433 7.43312,17.7682 2.42262,23.9437 l -1.25067,1.4305 0.76394,0.5365 c 4.78773,3.3619 6.40428,6.6522 6.67671,13.5896 0.14479,3.687 0.0622,4.2299 -1.2781,8.4041 -2.19792,6.8451 -7.81626,11.0059 -16.68672,12.358 -1.18015,0.1799 -3.5941,0.5832 -5.36433,0.8964 -1.77023,0.3131 -4.02325,0.7047 -5.00671,0.87 -0.98347,0.1654 -2.46051,0.414 -3.28231,0.5525 l -1.49421,0.2517 -0.0864,-7.6431 z m 13.62469,-3.1683 c 7.73276,-1.0554 10.36252,-3.5375 10.65407,-10.0558 0.30852,-7.2486 -3.55374,-8.7843 -9.49321,-8.7039 -6.78098,0.024 -6.15537,-0.9932 -6.1621,10.0234 -0.006,9.6394 -0.0101,9.6149 1.60179,9.2783 0.5912,-0.1235 2.12095,-0.3673 3.39945,-0.5418 z m 2.25694,-28.2712 c 4.67858,-1.2186 5.59479,-3.6118 5.60536,-8.9745 -1.46601,-8.3335 -6.39704,-7.0762 -12.6902,-6.9252 -0.0641,5.424 -0.12813,10.8479 -0.1922,16.2719 2.30882,-0.1121 5.35071,0.092 7.27704,-0.3722 z m 25.88247,30.2583 c -1.99488,-1.2012 -3.5829,-2.7649 -4.39218,-4.3248 -0.40407,-0.7788 -0.48336,-1.0961 -1.2043,-4.8193 -0.72973,-3.7685 -0.31398,-33.9499 0.51972,-37.7291 2.36977,-10.7424 16.08658,-15.2538 23.03552,-7.5762 4.03549,4.4586 4.51635,9.85 3.39915,38.1109 -0.19282,4.8778 -0.44338,5.985 -2.16363,9.5614 -3.23102,6.7172 -13.35666,10.2923 -19.19428,6.7771 z m 11.77051,-2.9555 c 2.97329,-1.3968 4.97102,-3.6288 6.49919,-7.2614 0.9043,-2.1496 1.59949,-21.8129 1.20113,-33.9741 -0.4737,-14.4617 -20.21565,-14.5057 -22.26288,-0.05 -0.5087,3.5921 -0.70634,32.4598 -0.23539,34.3813 1.76485,7.2005 7.9871,10.1034 14.79795,6.9038 z m 10.87244,0.3932 c 2.8554,-6.0243 5.923,-12.6193 8.41865,-17.8469 5.57362,-11.6322 5.29659,-10.5583 3.61102,-13.9974 -3.43137,-7.3604 -6.0813,-13.286 -9.23449,-20.0721 -1.14659,-2.4664 -1.09599,-2.9358 0.30486,-2.8282 1.10232,0.085 1.28731,0.4158 5.9308,10.6125 0.67179,1.4752 1.52978,3.3889 1.90666,4.2527 3.37757,7.7413 3.92273,8.289 5.28873,5.3139 3.18631,-6.7245 6.2049,-13.7776 9.13339,-19.9376 0.2598,-0.4934 2.53492,-1.0049 2.53492,-0.57 -3.01116,6.0948 -5.80596,12.9854 -8.54266,18.9364 -3.85683,8.2056 -3.70164,6.4623 -1.06308,11.9417 2.7771,5.7673 5.40753,11.2569 8.18126,17.033 1.13584,2.3651 1.06291,3.0836 -0.31296,3.0836 -1.00695,0 -0.905,0.1885 -8.94142,-16.5346 -2.38859,-4.9705 -2.53688,-5.0213 -4.19032,-1.4359 -1.89756,4.1018 -3.78882,7.9568 -5.73067,12.0697 -5.30302,11.2416 -4.67991,10.1923 -6.05229,10.1923 -0.68332,0 -1.2424,-0.096 -1.2424,-0.2131 z m -15.73538,-64.7422 c -6.69199,-1.0751 -10.6412,-5.3156 -12.11315,-13.0064 -0.4551,-2.3778 -0.21162,-34.2279 0.28432,-37.1927 1.18784,-7.101 4.26785,-10.7086 9.72878,-11.3954 8.37001,-1.0525 15.27978,4.1202 17.28218,12.9375 0.75571,3.3276 0.79327,30.8191 0.0493,36.0688 -1.26779,8.9458 -7.23046,13.8737 -15.23141,12.5882 z m 5.36433,-9.7326 c 3.4357,-2.1344 3.73939,-3.8198 3.883,-21.5489 0.10652,-13.1511 -0.13178,-15.3584 -1.9098,-17.6895 -2.87692,-3.7718 -9.0636,-3.7212 -11.03461,0.09 -1.53336,2.9652 -1.83812,32.7354 -0.36767,35.9154 1.67304,3.618 6.27129,5.1945 9.42908,3.2327 z m 22.88783,9.648 c -5.23877,-0.8485 -9.77921,-6.3181 -10.49673,-12.6449 -0.22477,-1.9819 -0.29902,-2.2474 2.41209,-2.5379 1.25308,-0.202 3.0344,-0.3641 3.95284,-0.1489 0.0738,0.2436 0.34347,1.2037 0.5993,2.1334 1.66078,6.0355 8.96197,7.5901 12.39177,2.6384 3.22325,-4.6534 0.1533,-11.8525 -7.07116,-16.5818 -8.90113,-5.827 -10.87716,-8.8293 -10.88326,-16.5356 -0.006,-8.1758 4.33972,-12.8941 11.43355,-12.4123 6.1605,0.4183 10.37803,2.6324 9.55325,5.0152 -0.21679,0.6263 -0.66882,2.1445 -1.00451,3.3739 -0.69267,2.5366 -0.84901,2.5983 -3.22182,1.2721 -10.02177,-4.4248 -12.19662,5.2055 -5.67049,10.1543 4.1218,2.9988 9.02677,7.2183 9.68368,8.3303 1.35545,1.7396 2.44134,3.6795 3.27978,5.7238 1.53088,3.8049 1.52751,10.7796 -0.007,14.3049 -1.16561,2.678 -1.66954,3.4955 -2.97104,4.8199 -2.68473,2.7318 -7.13112,3.8806 -11.98034,3.0952 z m -77.02338,-1.053 c -0.0822,-0.1353 -0.24744,-12.1549 -0.36717,-26.7101 -0.11973,-14.5552 -0.31325,-29.623 -0.43004,-33.484 -0.24464,-8.0871 -0.49048,-7.5985 3.46136,-6.8797 1.65747,0.3014 4.05963,0.6965 5.33813,0.8779 8.69816,0.8091 18.03496,4.2959 21.86151,11.4395 2.60879,5.3802 2.63562,5.6366 2.63562,25.1853 0,22.4088 -0.64309,24.798 -7.55252,28.0591 -3.33596,1.5746 -24.14298,2.8356 -24.94689,1.512 z m 21.07036,-9.4967 c 3.71302,-1.729 3.85154,-2.4466 3.90986,-20.2532 0.0649,-19.8202 -0.43242,-21.887 -5.81556,-24.1669 -2.20753,-0.935 -9.69279,-2.0481 -10.48405,-1.5591 -0.3398,0.21 -0.37423,5.7551 -0.26295,42.3526 0.0142,4.6843 -0.2574,4.4738 5.76619,4.4696 4.57983,0 5.26218,-0.087 6.88651,-0.843 z"
           id="path4641"
           inkscape:connector-curvature="0"
           sodipodi:nodetypes="cscccccsscccccccccccccccccccccsssssccsssscccccccssccccccssccsccsscsscccsscccccsccsssccsccccccccccsscccscccscsscc" />
        <path
           style="fill:#f2f2f2;fill-opacity:1;fill-rule:evenodd;stroke:#f2f2f2;stroke-width:1.00236034px;stroke-linecap:butt;stroke-linejoin:miter;stroke-opacity:1"
           d="m 225.43362,1725.0248 -36.80507,12.1332 -0.19579,137.0415 37.19697,15.2704 z"
           id="path4633"
           inkscape:connector-curvature="0" />
        <path
           style="fill:none;fill-rule:evenodd;stroke:#f2f2f2;stroke-width:1.96107149;stroke-linecap:square;stroke-linejoin:miter;stroke-miterlimit:57.5;stroke-dasharray:none;stroke-opacity:1"
           d="m 226.87228,1889.079 107.62257,-18.6769 0.68361,-127.2367 -108.55035,-17.7042"
           id="path4947"
           inkscape:connector-curvature="0" />
      </g>
    </g>
    <path
       style="fill:#f2f2f2;fill-opacity:1"
       d="m 134.54372,1483.8473 c -1.25831,-0.1886 -3.92856,-0.8208 -5.93387,-1.4052 -2.00533,-0.5844 -3.74925,-1.0624 -3.87539,-1.0624 -0.12614,0 1.38174,-1.525 3.35084,-3.389 3.516,-3.3282 7.16266,-7.864 11.35087,-14.1186 2.69632,-4.0267 4.00994,-4.1723 5.78303,-0.6413 3.08373,6.1411 9.52128,15.2727 12.25076,17.3776 2.89241,2.2306 -13.8598,4.5972 -22.92624,3.2389 z m -70.923226,-0.8354 c -5.98856,-0.513 -15.31849,-1.7501 -21.94253,-2.9094 -5.28516,-0.9249 -9.17883,-122.8149 -3.95173,-123.7076 17.28568,-2.9522 42.019,-2.9327 58.02809,0.046 4.432556,0.8247 4.364936,0.734 1.973113,2.6431 -3.464263,2.7651 -9.568353,10.6905 -12.759963,16.5672 -0.69953,1.288 -0.69953,1.288 -8.31944,1.2486 -6.55828,-0.034 -11.53865,0.3368 -15.2114,1.1321 -2.13488,0.4623 -1.31091,81.1362 0.83195,81.4543 0.97233,0.1444 3.92053,0.5787 6.55156,0.9653 35.843686,5.2664 52.845286,-8.7684 51.826206,-42.7828 -0.58218,-19.4323 5.56018,-34.8198 13.91947,-34.8703 1.65851,-0.01 6.18754,15.3706 7.71408,26.1971 7.04781,49.9844 -23.51302,78.7413 -78.659406,74.0165 z m 127.495426,0.1653 c -24.28564,-2.4894 -39.87017,-13.8378 -42.7797,-31.1516 -1.38895,-8.2652 -2.20924,-7.6674 10.52121,-7.6674 11.45989,0 11.45989,0 11.45989,1.4188 0,12.0864 14.96923,20.8304 32.51504,18.9933 21.91861,-2.295 30.13182,-18.0962 15.36661,-29.5635 -1.11747,-0.8679 -1.01,-21.8584 0.1207,-23.5742 0.18875,-0.2864 5.79358,1.3721 8.51354,2.5192 28.76979,12.1336 27.78148,51.6899 -1.60804,64.3604 -9.17443,3.9553 -22.82247,5.8219 -34.10925,4.665 z m -99.002566,-32.0555 c -10.28609,-11.6857 -11.35486,-47.6682 -1.97955,-66.6458 11.401286,-23.0789 37.820116,-36.4325 62.712696,-31.6988 7.59744,1.4448 7.25754,1.1963 4.62898,3.3838 -5.4806,4.561 -11.35596,12.3563 -13.01554,17.2686 -0.70449,2.0853 -0.70449,2.0853 -5.41435,2.3516 -23.45704,1.3259 -36.48749,24.2981 -31.63226,55.7665 0.97296,6.306 -3.38718,14.5471 -10.445573,19.7433 -3.003303,2.2109 -2.751603,2.2196 -4.854403,-0.1692 z m 99.626526,0.3537 c -3.14158,-0.915 -5.7424,-2.2387 -8.00794,-4.0759 -2.8522,-2.3128 -2.85416,-2.3605 -0.30475,-7.4575 6.85342,-13.7019 6.90802,-28.0685 0.17786,-46.7992 -1.88956,-5.2589 -1.33715,-6.4778 4.06939,-8.9788 3.7245,-1.723 13.74203,-2.4675 15.08762,-1.1214 1.78953,1.7903 5.53969,13.4716 6.93135,21.5902 2.79813,16.3238 -2.53113,45.6335 -8.59416,47.2659 -1.95479,0.5263 -6.86085,0.3044 -9.35937,-0.4233 z m -20.59061,-30.6487 c -26.16705,-6.8417 -25.21545,-46.8713 1.47731,-62.1438 28.59626,-16.3615 68.95433,1.4941 71.18607,31.4949 0.30732,4.1312 -21.32596,5.7447 -22.3083,1.6639 -1.9501,-8.1011 -5.01594,-12.9377 -10.4082,-16.4195 -18.83529,-12.1626 -47.29857,6.8832 -36.7576,24.5957 2.65655,4.4639 2.93601,10.0969 0.95641,19.278 -0.52922,2.4544 -0.56422,2.4673 -4.14569,1.5308 z"
       id="path4147"
       inkscape:connector-curvature="0" />
  </g>
</svg>
