<?xml version="1.0" encoding="UTF-8" standalone="no"?>
<!-- Created with Inkscape (http://www.inkscape.org/) -->

<svg
   xmlns:osb="http://www.openswatchbook.org/uri/2009/osb"
   xmlns:dc="http://purl.org/dc/elements/1.1/"
   xmlns:cc="http://creativecommons.org/ns#"
   xmlns:rdf="http://www.w3.org/1999/02/22-rdf-syntax-ns#"
   xmlns:svg="http://www.w3.org/2000/svg"
   xmlns="http://www.w3.org/2000/svg"
   xmlns:sodipodi="http://sodipodi.sourceforge.net/DTD/sodipodi-0.dtd"
   xmlns:inkscape="http://www.inkscape.org/namespaces/inkscape"
   width="256"
   height="256"
   viewBox="0 0 256 256"
   id="svg2"
   version="1.1"
   inkscape:version="0.92.1 r"
   sodipodi:docname="Dungeon Crawl Stone Soup.svg"
   inkscape:export-filename="/home/lollo78/Scrivania/no typo/DOS.png"
   inkscape:export-xdpi="90"
   inkscape:export-ydpi="90">
  <defs
     id="defs4">
    <linearGradient
       id="linearGradient5709"
       osb:paint="solid">
      <stop
         style="stop-color:#f2f2f2;stop-opacity:1;"
         offset="0"
         id="stop5711" />
    </linearGradient>
    <linearGradient
       osb:paint="solid"
       id="linearGradient6547">
      <stop
         id="stop6549"
         offset="0"
         style="stop-color:#000000;stop-opacity:1;" />
    </linearGradient>
    <clipPath
       clipPathUnits="userSpaceOnUse"
       id="clipPath3098">
      <path
         d="M 0,256 H 256 V 0 H 0 Z"
         id="path3100"
         inkscape:connector-curvature="0" />
    </clipPath>
  </defs>
  <sodipodi:namedview
     id="base"
     pagecolor="#ffffff"
     bordercolor="#666666"
     borderopacity="1.0"
     inkscape:pageopacity="0.0"
     inkscape:pageshadow="2"
     inkscape:zoom="1.979899"
     inkscape:cx="168.3892"
     inkscape:cy="110.45353"
     inkscape:document-units="px"
     inkscape:current-layer="layer1"
     showgrid="true"
     inkscape:window-width="1440"
     inkscape:window-height="836"
     inkscape:window-x="0"
     inkscape:window-y="27"
     inkscape:window-maximized="1"
     units="px">
    <inkscape:grid
       type="xygrid"
       id="grid40"
       spacingx="4"
       spacingy="4"
       empspacing="4" />
  </sodipodi:namedview>
  <metadata
     id="metadata7">
    <rdf:RDF>
      <cc:Work
         rdf:about="">
        <dc:format>image/svg+xml</dc:format>
        <dc:type
           rdf:resource="http://purl.org/dc/dcmitype/StillImage" />
        <dc:title></dc:title>
      </cc:Work>
    </rdf:RDF>
  </metadata>
  <g
     inkscape:label="Livello 1"
     inkscape:groupmode="layer"
     id="layer1"
     transform="translate(0,-796.36216)">
    <path
       style="fill:#f2f2f2"
       d="M 127.85156 18.910156 C 37.722087 18.910156 19.287109 37.218407 19.287109 127.47656 C 19.287109 217.7348 37.436599 236.04297 127.85156 236.04297 C 218.27863 236.04297 236.41797 217.7709 236.41797 127.47656 C 236.41797 37.174188 217.98107 18.910156 127.85156 18.910156 z M 199.17578 46.595703 C 199.79542 46.618203 200.45206 46.596808 201.02539 46.923828 C 202.07451 47.521718 203.12873 48.112718 204.1582 48.742188 C 204.86347 49.174467 205.54692 49.649405 206.21289 50.140625 C 206.4985 50.351155 206.83444 50.612948 206.94531 50.923828 C 207.23514 51.735758 207.40989 52.587495 207.63867 53.421875 C 207.75095 53.831695 207.8786 54.237511 208 54.644531 L 208 55.748047 C 207.9347 55.824547 207.83651 55.890796 207.81055 55.978516 C 207.65897 56.504836 207.28069 56.774332 206.79297 56.951172 C 206.52771 57.047272 206.2724 57.176913 206.02539 57.314453 C 204.93767 57.921473 203.85148 58.531441 202.77148 59.150391 C 202.18902 59.483721 201.57048 59.779026 201.05469 60.197266 C 200.2996 60.808496 199.60429 61.49768 198.91797 62.1875 C 198.47938 62.6282 198.07154 63.107615 197.70312 63.609375 C 197.32699 64.122355 197.01036 64.680749 196.67773 65.224609 C 196.37177 65.726359 196.02174 66.209954 195.79297 66.746094 C 195.19157 68.156614 194.65316 69.595275 194.07422 71.015625 C 193.83562 71.601585 193.4891 72.151253 193.30664 72.751953 C 192.83506 74.307733 192.13595 75.749005 191.21875 77.078125 C 190.1949 78.563025 189.22117 80.071756 188.42188 81.691406 C 188.22396 82.091406 187.98744 82.473009 187.75586 82.855469 C 187.20499 83.765639 186.64569 84.672036 186.08008 85.597656 C 186.65692 85.848876 186.84588 86.42426 187.375 86.5625 C 187.4164 86.5737 187.47526 86.682976 187.4668 86.691406 C 187.21909 86.962276 187.49611 86.885928 187.61328 86.923828 C 187.69538 86.950528 187.78926 86.978276 187.84961 87.035156 C 188.61171 87.759356 189.43514 88.433675 190.10742 89.234375 C 190.76215 90.012615 191.55624 90.699297 191.83203 91.779297 C 192.07483 92.730167 192.55185 93.620989 192.81641 94.568359 C 193.04308 95.376079 193.25634 96.233334 193.22266 97.058594 C 193.16016 98.605264 193.17978 100.17382 192.74609 101.6875 C 192.47872 102.61873 192.27764 103.57294 191.94922 104.48242 C 191.55834 105.56382 191.07183 106.61128 190.60938 107.66602 C 190.2655 108.44987 189.97331 109.27405 189.51367 109.98633 C 188.82314 111.05791 188.34236 112.21637 187.94727 113.40234 C 187.61324 114.40514 187.44951 115.46641 187.23828 116.50781 C 187.02705 117.54851 187.10806 118.59178 187.33398 119.61914 C 187.53398 120.52932 187.86991 121.38518 188.3457 122.19922 C 189.10851 123.50307 189.80963 124.84336 190.54297 126.16406 C 190.59627 126.25946 190.69737 126.34174 190.79492 126.39648 C 191.27772 126.66595 191.78193 126.90088 192.25 127.19141 C 192.86053 127.57035 193.44383 127.99258 194.04102 128.39258 C 194.4333 128.65573 194.84331 128.89352 195.21875 129.17773 C 195.56541 129.44018 195.85109 129.78844 196.20898 130.03125 C 196.86301 130.47616 197.44635 130.97542 197.90039 131.63086 C 198.60214 132.64278 199.36288 133.6163 200.03516 134.64648 C 200.64498 135.57981 201.19298 136.55661 201.7207 137.53906 C 201.95789 137.98046 202.06569 138.48951 202.25586 138.95898 C 202.90849 140.56459 203.5797 142.16306 204.22461 143.77148 C 204.37829 144.15463 204.4437 144.57116 204.57422 144.96484 C 204.75317 145.50378 205.00324 146.02209 205.13867 146.57227 C 205.3513 147.43262 205.49143 148.31271 205.66406 149.18359 C 206.00863 150.92323 205.96506 152.66565 205.6543 154.40039 C 205.582 154.80389 205.38939 155.19532 205.19922 155.56445 C 204.72834 156.47392 204.26285 157.39029 203.72461 158.25977 C 203.439 158.72012 203.38789 159.33225 202.86719 159.64453 C 202.95699 160.16734 202.40128 160.45483 202.41602 161.00781 C 202.42502 161.37483 201.95373 161.73071 201.82812 162.13281 C 201.6506 162.70334 201.02525 162.81612 200.79297 163.42383 C 200.51367 164.15927 199.72309 164.60828 198.90625 164.92969 C 198.06626 165.25881 197.30415 165.79126 196.50977 166.23828 C 196.30416 166.35407 196.11318 166.55731 195.89844 166.58398 C 195.59248 166.62328 195.25652 166.58209 194.95898 166.49219 C 194.62635 166.39259 194.51767 166.56462 194.4082 166.79688 C 194.19697 167.2446 194.00572 167.70218 193.77344 168.13867 C 192.78607 169.99481 191.77146 171.83591 190.79883 173.70117 C 190.1455 174.9552 189.5003 176.2195 188.9375 177.51562 C 188.42592 178.69248 187.99008 179.9059 187.5957 181.12695 C 187.26517 182.14871 187.12535 183.23648 186.74219 184.23438 C 186.52044 184.81471 186.56791 185.23137 186.83594 185.73242 C 186.99453 186.02926 187.04855 186.38306 187.14258 186.71289 C 187.52433 188.04903 187.89062 189.39074 188.28711 190.72266 C 188.59518 191.75213 188.92411 192.77543 189.27148 193.79297 C 189.45394 194.32771 189.73413 194.83004 189.89062 195.37109 C 189.96922 195.64057 189.96758 196.02263 189.83008 196.25 C 189.53394 196.74193 189.1571 197.19644 188.75781 197.61328 C 187.91781 198.49047 187.12363 199.39188 186.42188 200.39258 C 185.73206 201.37433 184.82684 202.18166 183.80859 202.83008 C 183.22684 203.2006 182.60677 203.38257 181.92188 202.98047 C 181.37871 202.66328 180.79605 202.40906 180.21289 202.17188 C 179.88377 202.03854 179.50816 202.01953 179.16992 201.90234 C 178.95939 201.82934 178.71445 201.71365 178.59375 201.54102 C 177.05481 199.34523 175.53733 197.13585 174.01172 194.93164 C 173.61804 194.36182 173.20081 193.80731 172.81836 193.23047 C 172.42818 192.641 172.07151 192.02977 171.68555 191.4375 C 171.62305 191.3406 171.48847 191.28963 171.38672 191.21875 L 171.44727 191.36328 C 171.24657 191.52118 171.0623 191.71624 170.83984 191.83203 C 170.40195 192.0587 169.95128 192.26487 169.49023 192.4375 C 168.70707 192.73013 167.9214 193.02655 167.11719 193.25391 C 166.29404 193.4869 165.45187 193.64948 164.61328 193.82422 C 163.54802 194.04457 162.48665 194.30527 161.41016 194.44141 C 159.85929 194.6386 158.29111 194.69609 156.74023 194.89258 C 155.47918 195.05188 154.23591 195.34376 152.98047 195.55078 C 151.61135 195.77604 150.23856 195.98404 148.86523 196.17773 C 148.07716 196.2879 147.28166 196.3395 146.49219 196.44336 C 144.94623 196.64617 143.40814 196.89908 141.85938 197.07031 C 140.36042 197.23732 138.85362 197.35369 137.34766 197.44141 C 136.11538 197.51301 134.87961 197.51176 133.64453 197.53906 C 133.25716 197.54706 132.86909 197.54706 132.48242 197.53906 C 131.06278 197.51166 129.64356 197.48432 128.22461 197.44922 C 127.28075 197.42462 126.33769 197.39042 125.39453 197.35742 C 123.76576 197.30062 122.13728 197.22244 120.50781 197.18945 C 119.45237 197.16845 118.39528 197.23065 117.33984 197.21875 C 116.79528 197.21375 116.25229 197.11205 115.70703 197.08398 C 114.96668 197.04468 114.22472 197.04627 113.48438 197.00977 C 112.70402 196.96977 111.92558 196.8883 111.14453 196.85742 C 110.19716 196.81952 109.24815 196.82447 108.30078 196.79297 C 106.79833 196.74457 105.29737 196.67553 103.79492 196.625 C 102.6251 196.5857 101.45302 196.58344 100.2832 196.52734 C 98.81865 196.45714 97.354481 196.34669 95.890625 196.25195 C 95.462556 196.22385 95.032684 196.20429 94.607422 196.15234 C 93.453039 196.01059 92.301569 195.84543 91.146484 195.70508 C 90.123329 195.58016 89.090357 195.51998 88.074219 195.35156 C 87.053871 195.18314 86.049738 194.91341 85.037109 194.69727 C 84.345181 194.5492 83.641088 194.45144 82.958984 194.26758 C 81.937232 193.99319 80.932856 193.6562 79.916016 193.35938 C 79.507596 193.24075 79.088902 193.15669 78.6875 193.06055 C 78.513465 193.26827 78.317443 193.46169 78.167969 193.68555 C 77.748321 194.31432 77.364471 194.96684 76.933594 195.58789 C 76.494999 196.21947 75.957528 196.78888 75.572266 197.44922 C 75.095776 198.26396 74.676287 199.12391 74.335938 200.00391 C 74.003304 200.86566 73.828946 201.78632 73.529297 202.66211 C 73.364386 203.14632 73.170994 203.67849 72.480469 203.65039 C 72.269241 203.64039 72.056229 203.67031 71.845703 203.69531 C 71.353774 203.75431 70.863725 203.82731 70.371094 203.88281 C 70.011095 203.92381 69.649213 203.95166 69.287109 203.97266 C 68.489216 204.02066 67.709207 204.00876 67.183594 203.25 C 67.150614 203.2023 67.058702 203.17243 66.994141 203.17383 C 66.330984 203.18853 65.921435 202.78725 65.576172 202.29883 C 65.325646 201.94374 65.12824 201.55104 64.867188 201.20508 C 64.293154 200.44508 63.695947 199.70159 63.101562 198.95703 C 62.992794 198.82159 62.869627 198.66823 62.71875 198.60156 C 62.153138 198.35174 62.000265 197.84297 62.095703 197.32227 C 62.193953 196.78613 62.389682 196.26905 62.546875 195.74414 C 62.860559 194.69923 63.163463 193.64993 63.496094 192.61133 C 63.739602 191.84712 64.047566 191.10491 64.28125 190.33789 C 64.6616 189.08807 64.967679 187.81546 65.378906 186.57617 C 65.60838 185.88424 65.642093 185.32353 65.234375 184.64844 C 64.630867 183.64915 64.481549 182.47064 64.394531 181.31836 C 64.27804 179.78433 63.661242 178.43188 62.898438 177.1582 C 61.965805 175.60031 60.886083 174.13269 59.921875 172.59375 C 59.183631 171.41481 58.515632 170.1895 57.839844 168.97266 C 57.543003 168.43792 57.330103 167.85724 57.023438 167.32812 C 56.903438 167.1218 56.632798 166.8714 56.425781 166.86719 C 55.514906 166.84959 54.698641 166.55286 54.003906 166.01953 C 53.565311 165.68269 53.268963 165.16385 52.898438 164.73438 C 52.319489 164.06421 51.723723 163.40876 51.150391 162.73438 C 50.784778 162.30349 50.442766 161.85467 50.099609 161.40625 C 49.430838 160.53467 48.869735 159.62289 48.654297 158.50781 C 48.395351 157.16886 48.305414 155.82469 48.277344 154.4668 C 48.254884 153.37978 48.189211 152.29218 48.066406 151.21289 C 47.871318 149.49429 48.148169 147.80099 48.332031 146.11328 C 48.520101 144.38135 48.899452 142.66389 49.498047 141.01758 C 49.976643 139.69969 50.507202 138.39609 51.074219 137.11328 C 51.443341 136.2796 51.87968 135.47161 52.355469 134.69336 C 53.261432 133.20986 54.420281 131.92788 55.802734 130.88086 C 57.113608 129.88718 58.546861 129.10012 60.177734 128.75977 C 60.654224 128.66087 61.002237 128.53412 61.1875 128.00781 C 61.421886 127.34606 61.771552 126.72532 62.085938 126.09375 C 62.669093 124.92112 63.46415 123.86672 63.789062 122.54883 C 64.061342 121.44357 64.276422 120.34256 64.244141 119.21484 C 64.200631 117.6766 64.017398 116.14677 63.605469 114.65625 C 63.424417 113.99941 63.229812 113.34679 63.013672 112.70117 C 62.8649 112.25837 62.657649 111.83313 62.494141 111.39453 C 62.29765 110.86471 62.128985 110.32599 61.929688 109.79688 C 61.68618 109.14913 61.39247 108.51942 61.177734 107.86328 C 60.839489 106.8289 60.529905 105.78295 60.242188 104.73242 C 59.943241 103.64049 59.645032 102.54502 59.421875 101.43555 C 59.285735 100.75906 59.290972 100.05309 59.228516 99.318359 C 59.3822 99.366759 59.460692 99.392025 59.455078 99.390625 C 59.565955 99.284655 59.638638 99.218235 59.621094 99.234375 C 59.496884 98.722795 59.374058 98.22051 59.251953 97.71875 C 59.104584 97.66545 58.986844 97.556947 58.970703 97.435547 C 58.917373 97.031337 58.887234 96.623264 58.871094 96.214844 C 58.826884 95.093444 59.030547 94.012248 59.310547 92.923828 C 59.763177 91.168048 60.749093 89.743064 61.923828 88.433594 C 62.608738 87.670084 63.353749 86.944834 64.152344 86.302734 C 65.073043 85.561684 66.057193 84.893142 67.058594 84.263672 C 68.032627 83.651042 69.056984 83.116429 70.070312 82.568359 C 71.031012 82.049759 71.991149 81.523697 72.978516 81.060547 C 74.250793 80.463347 75.539496 79.902324 76.839844 79.371094 C 77.969666 78.910044 79.114142 78.477306 80.273438 78.097656 C 81.293785 77.762926 82.345926 77.527309 83.378906 77.230469 C 84.474342 76.916079 85.558709 76.568379 86.65625 76.261719 C 87.381161 76.059609 88.13678 75.959303 88.847656 75.720703 C 90.207653 75.263863 91.557254 74.773151 92.990234 74.587891 C 93.426022 74.531791 93.923847 74.625129 94.292969 74.443359 C 94.927353 74.131789 95.594867 74.159763 96.246094 74.039062 C 97.04118 73.892393 97.841481 73.779271 98.638672 73.644531 C 99.757968 73.455761 100.87686 73.260482 101.98633 73.070312 C 102.04953 73.265394 102.08438 73.377874 102.08008 73.365234 C 102.31025 73.259274 102.51073 73.098724 102.72266 73.083984 C 103.28336 73.043984 103.8479 73.074494 104.41211 73.058594 C 104.6058 73.053594 104.79865 72.998334 104.99023 72.958984 C 105.50742 72.852314 106.0214 72.604944 106.5 72.927734 C 106.66561 72.797914 106.79148 72.622834 106.94727 72.589844 C 108.62445 72.234764 110.30392 71.882989 111.99023 71.574219 C 112.59163 71.464039 113.21479 71.475808 113.82812 71.423828 C 114.18884 71.393628 114.5507 71.347174 114.91211 71.308594 C 114.92111 71.346494 114.93691 71.421241 114.94531 71.457031 C 115.04501 71.367931 115.12707 71.23138 115.22461 71.21875 C 115.63654 71.16755 116.05401 71.147806 116.46875 71.128906 C 116.61612 71.122906 116.76896 71.179203 116.91211 71.158203 C 117.23211 71.111903 117.54649 71.013053 117.86719 70.976562 C 118.2735 70.930962 118.70262 70.994719 119.08789 70.886719 C 119.49701 70.773039 119.85504 70.692272 120.23047 71.013672 C 120.22247 70.892972 120.21864 70.819062 120.21094 70.701172 C 120.69726 70.955902 121.28609 70.392714 121.64258 71.021484 C 122.02714 70.620084 121.8504 70.684646 122.69531 70.742188 C 122.97601 70.761188 123.29382 70.926904 123.52539 70.839844 C 124.13381 70.608974 124.21532 70.593505 124.41602 70.984375 C 124.98936 71.055275 125.49082 71.126661 125.99609 71.175781 C 126.33573 71.209481 126.68113 71.23425 127.02148 71.21875 C 127.25376 71.20755 127.4822 71.121343 127.72852 71.064453 C 127.79452 71.120553 127.88021 71.255041 127.98828 71.275391 C 128.44442 71.359591 128.90684 71.412453 129.36719 71.470703 C 129.66474 71.508603 129.98078 71.483208 130.25586 71.580078 C 130.78428 71.766748 131.2905 71.995344 131.86523 71.771484 C 131.91713 71.751084 131.99693 71.810478 132.06641 71.830078 C 132.51413 71.956398 132.96525 72.074797 133.41016 72.210938 C 133.56314 72.257936 133.70294 72.346546 133.84961 72.416016 C 134.26154 72.396416 134.67847 72.446812 135.0918 72.507812 C 135.46794 72.563212 135.84022 72.630503 136.19531 72.689453 C 136.56794 72.348393 136.98717 72.773087 137.38086 72.742188 C 137.82086 72.707087 138.28285 72.984797 138.73828 73.123047 C 139.13618 73.243747 139.53576 73.359519 139.92383 73.474609 C 139.90213 73.501309 139.86088 73.549192 139.8125 73.607422 C 140.04759 73.567422 140.25313 73.494629 140.45312 73.505859 C 141.21733 73.547959 141.97994 73.630871 142.74414 73.675781 C 143.52028 73.720681 144.29808 73.726438 145.07422 73.773438 C 145.7886 73.816937 146.50412 73.867724 147.21289 73.958984 C 148.21639 74.088114 149.215 74.247754 150.21289 74.414062 C 151.08517 74.560035 151.9552 74.719027 152.81836 74.904297 C 153.09134 74.962497 153.341 75.126094 153.61328 75.246094 C 153.60328 75.260794 153.67477 75.115327 153.69727 75.123047 C 154.44885 75.358827 155.35709 75.098698 155.94727 75.804688 C 156.00477 75.721187 156.08144 75.536659 156.13477 75.542969 C 156.46109 75.581569 156.78336 75.662399 157.10547 75.730469 C 157.17497 75.745169 157.24233 75.776203 157.3125 75.783203 C 157.65847 75.816903 158.00996 75.819159 158.34961 75.880859 C 159.12224 76.020509 159.89501 76.161632 160.6543 76.357422 C 160.95816 76.436022 161.37857 76.336658 161.52734 76.767578 C 161.57504 76.740178 162.38836 76.706997 162.50977 76.716797 C 163.00801 76.754697 163.42506 77.103634 163.93945 77.083984 C 163.96545 77.083284 163.99338 77.123578 164.02148 77.142578 C 164.09728 77.194478 164.16774 77.270122 164.25195 77.289062 C 164.33685 77.308065 164.44243 77.246025 164.52734 77.265625 C 164.79962 77.328125 165.06491 77.423325 165.33789 77.484375 C 165.80175 77.587535 166.27137 77.659204 166.73242 77.771484 C 167.37242 77.926574 168.01622 78.077979 168.63867 78.287109 C 169.28148 78.503249 170.06261 78.19499 170.60156 78.8125 C 170.64576 78.8637 170.8049 78.818594 170.91016 78.808594 C 171.08279 78.790394 171.26383 78.717 171.42383 78.75 C 171.80278 78.8279 172.17174 78.952873 172.54297 79.064453 C 172.94156 79.185153 173.38386 79.240744 173.7207 79.458984 C 174.03509 79.661794 174.62489 79.378397 174.68945 79.998047 C 174.76875 79.976247 174.84791 79.954525 174.85352 79.953125 C 174.88302 80.193125 174.90955 80.410113 174.93555 80.626953 C 175.28643 79.986253 175.59117 79.338692 175.83398 78.669922 C 176.17503 77.730982 176.39487 76.742451 176.80469 75.837891 C 177.26434 74.821751 177.84482 73.854467 178.43359 72.904297 C 179.46797 71.234827 180.56998 69.606417 181.60156 67.935547 C 182.34682 66.729237 183.02365 65.481423 183.73242 64.251953 C 184.10505 63.605633 184.4823 62.958967 184.85352 62.310547 C 184.97282 62.102127 185.08373 61.889111 185.19531 61.675781 C 185.62478 60.856131 185.96511 59.971519 186.50195 59.230469 C 187.2809 58.156789 188.1836 57.172124 189.06641 56.177734 C 189.72816 55.431774 190.44144 54.729619 191.13477 54.011719 C 191.72916 53.396289 192.32337 52.779291 192.92969 52.175781 C 193.12618 51.981391 193.37562 51.841971 193.57422 51.650391 C 194.06965 51.172501 194.52453 50.651849 195.04102 50.199219 C 195.7933 49.540979 196.60023 48.943093 197.35742 48.289062 C 197.7511 47.948715 198.07979 47.534132 198.45312 47.169922 C 198.67909 46.950982 198.94139 46.587283 199.17578 46.595703 z M 200.36523 48.617188 C 200.07725 48.617448 199.79025 48.759491 199.47656 49.119141 C 198.83375 49.856681 197.97508 50.403522 197.2207 51.044922 C 196.80456 51.398602 196.41684 51.785692 196 52.138672 C 195.38175 52.662182 194.71331 53.133359 194.13086 53.693359 C 193.44735 54.350199 192.83576 55.079251 192.18945 55.775391 C 191.63717 56.369771 191.05741 56.942307 190.5332 57.560547 C 189.77811 58.451777 189.00675 59.336875 188.3457 60.296875 C 187.74009 61.176875 187.27567 62.154164 186.74023 63.083984 C 186.4869 63.523284 186.19819 63.942656 185.95117 64.384766 C 185.24099 65.659146 184.58431 66.963217 183.83203 68.210938 C 182.94783 69.676897 181.97213 71.087289 181.06055 72.537109 C 180.4009 73.587639 179.6981 74.623901 179.16406 75.738281 C 178.55214 77.014071 178.10367 78.369306 177.58789 79.691406 C 177.17947 80.739126 176.78909 81.794538 176.36523 82.835938 C 176.08453 83.525058 175.78582 84.210744 175.44336 84.871094 C 174.71354 86.279514 173.92112 87.655979 173.21094 89.074219 C 172.66779 90.158429 172.20757 91.285458 171.72266 92.398438 C 171.52827 92.841947 171.36755 93.29807 171.19141 93.75 C 171.21741 93.759 171.24353 93.769397 171.26953 93.779297 C 171.25903 93.942107 171.28656 94.122779 171.22266 94.261719 C 171.17146 94.374009 170.93011 94.524956 170.90625 94.503906 C 170.62906 94.265306 170.64361 94.571702 170.61133 94.669922 C 170.3166 95.563952 170.04163 96.463235 169.75391 97.359375 C 169.64935 97.686385 169.40988 98.016388 169.43164 98.330078 C 169.48424 99.078148 169.72981 99.801083 170.39648 100.23828 C 171.02876 100.65231 171.71044 100.99321 172.375 101.35742 C 172.436 101.39112 172.54536 101.38487 172.61133 101.35547 C 173.10185 101.13653 173.65072 100.98757 174.06055 100.66406 C 174.92019 99.985468 175.91763 99.632569 176.9043 99.230469 C 177.0657 99.165169 177.23231 98.997337 177.29688 98.835938 C 177.53757 98.232427 177.71563 97.604753 177.95703 97.001953 C 178.28685 96.180203 178.60495 95.346746 179.01758 94.566406 C 179.63512 93.396576 180.33395 92.269864 180.99219 91.121094 C 181.2378 90.691624 181.47536 90.255853 181.69922 89.814453 C 182.28869 88.653053 182.83793 87.470022 183.45898 86.326172 C 184.16144 85.034942 184.70487 83.662456 185.55469 82.441406 C 186.1203 81.628076 186.52876 80.704854 187.01367 79.833984 C 187.10067 79.677494 187.22503 79.542352 187.31836 79.388672 C 187.80047 78.587972 188.2729 77.781012 188.75781 76.982422 C 189.3136 76.067332 189.92964 75.185494 190.42578 74.240234 C 190.83209 73.464794 191.09409 72.615364 191.43164 71.802734 C 191.59234 71.414664 191.72789 70.999899 191.9707 70.667969 C 192.22544 70.319199 192.4162 69.955231 192.54883 69.556641 C 192.65199 69.247161 192.69927 68.918698 192.80664 68.611328 C 193.05366 67.899048 193.28808 67.179354 193.58984 66.490234 C 193.91124 65.755504 194.27508 65.035284 194.67578 64.339844 C 194.97683 63.815634 195.36973 63.346053 195.71289 62.845703 C 195.96833 62.473073 196.18119 62.06542 196.4668 61.71875 C 196.84083 61.26612 197.25192 60.841867 197.67578 60.435547 C 198.34034 59.799767 198.97544 59.111548 199.7207 58.585938 C 200.74596 57.863825 201.86 57.268353 202.94141 56.626953 C 203.74842 56.149063 204.56869 55.691094 205.375 55.208984 C 205.66764 55.034254 205.93427 54.825651 205.79883 54.400391 C 205.68725 54.048811 205.66446 53.661547 205.50586 53.335938 C 205.16411 52.632775 205.1715 51.845778 204.46484 51.205078 C 203.47326 50.305428 202.33475 49.691007 201.25195 48.966797 C 200.94072 48.758377 200.65322 48.616925 200.36523 48.617188 z M 122.28516 72.521484 C 121.39534 72.562884 120.50561 72.607056 119.61719 72.666016 C 118.87333 72.715116 118.13128 72.78901 117.38672 72.84375 C 117.15725 72.86055 116.92353 72.840969 116.69336 72.855469 C 116.33055 72.877169 115.96671 72.898719 115.60742 72.949219 C 115.4025 72.978719 115.21077 73.098644 115.00586 73.121094 C 114.05078 73.225654 113.08619 73.272459 112.13672 73.412109 C 111.06725 73.568599 110.00832 73.794776 108.94727 74.003906 C 108.16131 74.159696 107.38447 74.358407 106.5957 74.498047 C 106.04131 74.597047 105.47461 74.620379 104.91602 74.693359 C 104.6262 74.731259 104.34256 74.840739 104.05273 74.855469 C 103.51379 74.883569 102.97113 74.836953 102.43359 74.876953 C 102.05043 74.905753 101.67543 75.042069 101.29297 75.099609 C 100.68596 75.191509 100.07326 75.249627 99.464844 75.335938 C 98.690108 75.446116 97.92198 75.573016 97.136719 75.634766 C 96.185843 75.709166 95.249095 75.959418 94.306641 76.142578 C 94.062431 76.190278 93.823984 76.335384 93.583984 76.333984 C 92.660478 76.328984 91.824491 76.680411 90.964844 76.931641 C 90.279933 77.131641 89.609441 77.377729 88.923828 77.574219 C 88.422075 77.718079 87.900343 77.797297 87.396484 77.935547 C 86.360697 78.221157 85.328452 78.525269 84.296875 78.824219 C 83.884946 78.944219 83.477083 79.077422 83.064453 79.195312 C 81.837789 79.544792 80.589372 79.830203 79.388672 80.251953 C 78.133938 80.691953 76.923228 81.256091 75.697266 81.775391 C 75.217969 81.978901 74.753285 82.214155 74.275391 82.421875 C 73.855041 82.604335 73.414279 82.742346 73.005859 82.947266 C 72.315334 83.293926 71.642188 83.677202 70.962891 84.044922 C 70.103244 84.511582 69.233033 84.961342 68.386719 85.451172 C 67.800053 85.791522 67.239136 86.176834 66.677734 86.558594 C 65.685455 87.234374 64.644553 87.854491 63.896484 88.832031 C 63.725257 89.055191 63.553303 89.278461 63.365234 89.488281 C 62.793305 90.126881 62.140155 90.709106 61.660156 91.410156 C 61.271385 91.978576 60.84747 92.573469 60.832031 93.349609 C 60.823631 93.734869 60.604653 94.11264 60.507812 94.5 C 60.220093 95.64948 60.320179 96.806926 60.529297 97.947266 C 60.726489 99.022356 61.011438 100.08262 61.267578 101.14648 C 61.287228 101.22928 61.378292 101.29508 61.503906 101.45508 C 61.523502 101.16675 61.534712 100.99038 61.550781 100.75 C 61.723412 100.95912 61.879603 101.11262 61.996094 101.29297 C 62.37083 101.87542 62.670931 102.51635 63.107422 103.04688 C 64.061805 104.20826 65.19315 105.17491 66.484375 105.9707 C 67.338408 106.49561 68.076018 107.20553 68.916016 107.75781 C 69.735663 108.29816 70.602729 108.77298 71.478516 109.2207 C 72.467286 109.72666 73.479102 110.1893 74.498047 110.63281 C 75.237695 110.95491 76.001873 111.22351 76.759766 111.5 C 77.673448 111.83263 78.585406 112.17011 79.511719 112.46484 C 80.330665 112.7259 81.16647 112.93715 81.998047 113.1582 C 83.144711 113.46347 84.281958 113.80944 85.443359 114.04102 C 86.932478 114.33786 88.443163 114.53323 89.941406 114.78516 C 91.257192 115.00621 92.573494 115.21996 93.880859 115.48242 C 95.007874 115.70838 96.120635 116.00899 97.244141 116.25391 C 98.343788 116.4932 99.47739 116.61714 100.54688 116.95117 C 101.6795 117.30415 102.83295 117.31799 103.98242 117.44922 C 104.68698 117.52992 105.39591 117.5852 106.09766 117.68555 C 106.90959 117.80204 107.71206 117.97717 108.52539 118.08594 C 109.60328 118.23051 110.68883 118.33055 111.76953 118.45898 C 112.75128 118.57476 113.72989 118.70463 114.71094 118.82812 C 116.04918 118.99656 117.3848 119.26017 118.72656 119.30859 C 120.54901 119.37459 122.37928 119.31403 124.20312 119.23633 C 125.4256 119.18443 126.64379 119.02442 127.86133 118.88477 C 128.94133 118.76196 130.0323 118.67384 131.08984 118.43945 C 133.12983 117.98753 135.19967 117.9505 137.26562 117.80664 C 138.57299 117.71614 139.87247 117.50779 141.17773 117.37305 C 141.74615 117.31485 142.34005 117.20828 142.88672 117.30859 C 143.48742 117.41947 144.08145 117.68387 144.62109 117.98633 C 145.97267 118.74492 147.25345 119.58288 147.93555 121.09375 C 148.32994 121.96744 148.58874 122.84709 148.54102 123.80078 C 148.51852 124.26463 148.38974 124.72434 148.375 125.1875 C 148.3469 126.07592 148.38293 126.9651 148.36133 127.85352 C 148.34103 128.6451 148.50001 129.3257 149.10352 129.91797 C 149.80668 130.6078 150.59332 131.07977 151.57227 131.03906 C 152.21858 131.01166 152.86 130.79425 153.5 130.65039 C 154.83333 130.35004 155.47228 129.43204 155.7207 128.15625 C 155.89052 127.28397 156.08448 126.4165 156.25781 125.54492 C 156.28381 125.41369 156.28055 125.26459 156.24805 125.13477 C 156.07822 124.46319 155.87999 123.79868 155.7207 123.125 C 155.5235 122.2864 155.31903 121.44553 155.18359 120.5957 C 155.02008 119.56623 154.77607 118.52241 155.08203 117.48242 C 155.28414 116.794 155.41387 116.00074 156.35352 115.90039 C 156.64405 115.87019 156.95086 115.94464 157.23438 115.89062 C 158.1221 115.7215 159.00858 115.54564 159.88086 115.31055 C 160.36718 115.17932 160.81243 114.90155 161.29102 114.73242 C 162.37102 114.34997 163.46197 113.99537 164.54688 113.62695 C 165.29635 113.37222 166.03071 113.06383 166.79492 112.86523 C 168.03773 112.54243 169.30728 112.3189 170.55078 111.99609 C 171.51288 111.74557 172.45442 111.41354 173.40039 111.10547 C 174.28881 110.81564 175.17329 110.51565 176.05469 110.20898 C 176.95434 109.896 177.86725 109.61302 178.74023 109.23828 C 179.71987 108.81863 180.66741 108.31844 181.62109 107.83984 C 181.93899 107.68054 182.24573 107.49313 182.53906 107.29102 C 183.39661 106.70225 184.23279 106.08044 185.10156 105.50781 C 185.98226 104.92816 186.89292 104.39243 187.78906 103.83594 C 187.82416 103.81424 187.84605 103.77354 187.87695 103.74414 C 188.418 103.24309 189.01771 102.79063 189.48438 102.22852 C 189.96999 101.64256 190.29527 100.92528 190.75 100.31055 C 191.26369 99.615801 191.03637 98.812919 191.13672 98.068359 C 191.42304 95.944159 190.68202 94.005792 189.80273 92.132812 C 189.33957 91.146154 188.6913 90.262229 187.91797 89.480469 C 187.67657 89.236259 187.46833 88.958392 187.21289 88.732422 C 186.91394 88.468572 186.57681 88.248263 186.26172 88.001953 C 185.94874 87.755633 185.64332 87.499476 185.26367 87.191406 C 184.53315 88.659466 183.80117 90.128912 183.08398 91.570312 C 183.43345 91.973822 183.89367 92.339916 184.13086 92.816406 C 184.59753 93.754656 184.95634 94.748562 185.32617 95.732422 C 185.46441 96.098732 185.5334 96.495996 185.59375 96.884766 C 185.81972 98.345816 185.12263 99.576068 184.58789 100.84766 C 184.39702 101.30029 184.0385 101.59489 183.71289 101.93945 C 183.46026 102.20542 183.18731 102.31943 182.89258 102.4668 C 182.64275 102.59241 182.31175 102.71926 182.20508 102.9375 C 181.85491 103.6561 181.20718 104.07183 180.60156 104.44727 C 179.78613 104.95393 178.90282 105.38021 177.98633 105.72266 C 177.22423 106.00758 176.51379 106.42802 175.77344 106.77539 C 175.06046 107.11083 174.34335 107.44052 173.61914 107.75 C 173.40581 107.8412 173.15074 107.82961 172.92969 107.9082 C 172.38513 108.10259 171.84879 108.32002 171.31055 108.53125 C 170.33231 108.9137 169.26371 108.93728 168.28125 109.3457 C 167.47985 109.67903 166.61163 109.85545 165.76953 110.08984 C 165.12462 110.27019 164.47865 110.44382 163.82812 110.59961 C 162.90672 110.82136 161.963 110.96946 161.06055 111.24805 C 159.74055 111.65577 158.3943 111.90911 157.03711 112.13086 C 156.06939 112.28946 155.08649 112.37355 154.13281 112.5918 C 153.17772 112.81145 152.2488 113.15323 151.31055 113.44727 C 150.80459 113.60586 150.3093 113.81149 149.79492 113.93359 C 148.83562 114.16236 147.85954 114.32101 146.90234 114.55469 C 145.562 114.88241 144.2024 115.11061 142.83398 115.18359 C 141.24872 115.26849 139.65518 115.18897 138.06641 115.20117 C 137.26992 115.20717 136.47351 115.28449 135.67773 115.27539 C 134.72264 115.26349 133.76704 115.16452 132.81055 115.1582 C 131.89897 115.1522 130.9865 115.203 130.07422 115.25 C 129.07422 115.3005 128.07336 115.3625 127.07617 115.44531 C 126.30705 115.50921 125.54451 115.65733 124.77539 115.6875 C 123.81399 115.724 122.84952 115.66912 121.88672 115.66992 C 120.92181 115.67062 119.95514 115.70077 118.99023 115.69727 C 118.41339 115.69627 117.82227 115.56125 117.26367 115.65039 C 116.26157 115.81109 115.26712 115.72945 114.27344 115.68945 C 113.64888 115.66485 113.03487 115.42799 112.4082 115.36133 C 111.83066 115.30103 111.24121 115.36628 110.66016 115.33008 C 109.46437 115.25568 108.27125 115.1425 107.07617 115.0625 C 106.43336 115.019 105.78804 115.01848 105.14453 114.98828 C 103.59085 114.91528 102.0588 114.61128 100.48828 114.66602 C 99.470744 114.70112 98.444878 114.50745 97.423828 114.4043 C 96.636461 114.3243 95.8261 114.31611 95.070312 114.11328 C 94.194525 113.87819 93.279206 113.80308 92.433594 113.41992 C 91.949384 113.20027 91.387035 113.15689 90.869141 113.00391 C 90.052301 112.76251 89.242013 112.5044 88.433594 112.23633 C 87.70728 111.99633 86.987576 111.73816 86.267578 111.47852 C 85.779158 111.30167 85.307692 111.00527 84.806641 110.94141 C 83.423486 110.76527 82.086206 110.40225 80.785156 109.95312 C 79.394282 109.47314 78.049426 108.84572 76.716797 108.21484 C 75.350484 107.56853 74.025953 106.83039 72.675781 106.15039 C 71.728415 105.6739 70.78159 105.21887 69.957031 104.52344 C 68.613876 103.39221 67.212202 102.33234 65.861328 101.21094 C 65.558171 100.95972 65.404568 100.53083 65.103516 100.27539 C 64.558956 99.813643 64.911473 98.923568 64.226562 98.548828 C 64.182354 98.524928 64.191342 98.374286 64.201172 98.285156 C 64.303628 97.375686 64.226914 96.436126 64.609375 95.572266 C 64.9799 94.738586 65.429203 93.934118 65.742188 93.080078 C 66.119731 92.049208 66.755745 91.183009 67.496094 90.443359 C 68.738197 89.201259 70.086361 88.057946 71.621094 87.166016 C 72.101093 86.886016 72.55476 86.561001 73.03125 86.275391 C 73.466337 86.014331 73.912908 85.771646 74.361328 85.535156 C 75.299571 85.039716 76.225397 84.517176 77.1875 84.072266 C 78.269602 83.571916 79.387078 83.140987 80.490234 82.685547 C 81.526021 82.258177 82.539354 81.755694 83.607422 81.433594 C 84.930226 81.034294 86.304733 80.8091 87.646484 80.46875 C 88.969288 80.13332 90.274303 79.732522 91.595703 79.388672 C 93.486225 78.897442 95.391734 78.457436 97.277344 77.947266 C 98.788218 77.538846 100.3127 77.212381 101.85938 76.994141 C 103.21584 76.803261 104.5754 76.620966 105.9375 76.478516 C 106.87013 76.381716 107.80925 76.363084 108.74609 76.302734 C 109.13135 76.277434 109.51583 76.233975 109.90039 76.203125 C 111.60775 76.066285 113.31326 75.87495 115.02344 75.8125 C 116.16028 75.7711 117.30371 75.910009 118.44336 75.974609 C 119.44967 76.032109 120.45462 76.101759 121.46094 76.162109 C 122.53532 76.225309 123.61047 76.28972 124.68555 76.34375 C 126.01608 76.41115 127.34846 76.466543 128.67969 76.533203 C 128.87267 76.543203 129.06358 76.602781 129.25586 76.613281 C 129.88533 76.647681 130.51732 76.640578 131.14258 76.705078 C 131.75311 76.768278 132.35377 76.923261 132.96289 76.994141 C 133.69061 77.077641 134.42321 77.105454 135.15234 77.177734 C 135.43234 77.205834 135.70452 77.331424 135.98242 77.339844 C 136.80487 77.365144 137.62872 77.350081 138.45117 77.363281 C 138.57749 77.364281 138.70322 77.466441 138.82812 77.462891 C 139.17901 77.451691 139.56442 77.301244 139.87109 77.402344 C 140.43249 77.587604 140.98291 77.580326 141.55273 77.585938 C 142.59483 77.596435 143.6157 77.848 144.6543 77.90625 C 145.09079 77.93085 145.53132 77.901078 145.96289 77.955078 C 146.59728 78.035078 147.22178 78.184171 147.85547 78.275391 C 148.8288 78.414341 149.81439 78.483713 150.7793 78.664062 C 151.83263 78.861252 152.89263 78.917715 153.95508 78.984375 C 154.91016 79.044075 155.86638 79.090237 156.81445 79.210938 C 157.72603 79.327427 158.62849 79.535314 159.53516 79.695312 C 160.27901 79.826543 161.02583 79.933169 161.76758 80.074219 C 162.56758 80.225799 163.36016 80.419736 164.16016 80.566406 C 165.2584 80.767806 166.36635 80.911459 167.45898 81.136719 C 168.28705 81.307949 169.09933 81.559989 169.91406 81.792969 C 170.47336 81.952969 171.01992 82.164983 171.58203 82.314453 C 172.24027 82.489893 172.9081 82.629881 173.57617 82.769531 C 173.82389 82.820731 174.11556 82.899579 174.24609 82.568359 C 174.40679 82.164849 174.54313 81.749744 174.70312 81.302734 C 174.59787 81.334334 174.47862 81.334931 174.41406 81.394531 C 174.0281 81.749621 173.55824 81.614869 173.2207 81.449219 C 171.99614 80.848519 170.65872 80.7094 169.36328 80.40625 C 168.32188 80.16274 167.24818 80.052695 166.20117 79.828125 C 165.18994 79.611285 164.22943 79.213449 163.2168 78.980469 C 162.39786 78.791699 161.6124 78.468921 160.75977 78.394531 C 160.41591 78.365031 160.0905 78.176256 159.74805 78.097656 C 159.27577 77.990286 158.79835 77.905261 158.31836 77.837891 C 158.10362 77.807691 157.87108 77.884591 157.66406 77.837891 C 157.17073 77.729111 156.6931 77.556736 156.20117 77.447266 C 155.91556 77.384066 155.6121 77.413634 155.32227 77.365234 C 154.84578 77.285934 154.37563 77.162584 153.89844 77.083984 C 153.40511 77.002584 152.89983 76.986869 152.41211 76.880859 C 151.90405 76.771389 151.42034 76.546216 150.91016 76.447266 C 149.86806 76.243756 148.81544 76.082879 147.76562 75.917969 C 146.9565 75.790949 146.14747 75.636918 145.33203 75.580078 C 144.34958 75.511978 143.36096 75.553119 142.375 75.511719 C 141.81149 75.487819 141.23962 75.440136 140.68945 75.322266 C 140.1505 75.207176 139.53427 75.388824 139.07812 74.927734 C 139.06204 74.910934 139.00132 74.945753 138.96484 74.939453 C 138.60975 74.876953 138.24269 74.847228 137.90234 74.736328 C 137.36269 74.559478 136.79792 74.517106 136.25195 74.316406 C 135.68073 74.106576 134.99901 74.220574 134.37305 74.132812 C 133.29165 73.980534 132.21812 73.765312 131.13672 73.607422 C 130.4111 73.502162 129.67709 73.451251 128.94727 73.369141 C 128.36762 73.303141 127.83589 73.057167 127.21484 73.085938 C 126.62537 73.112638 126.02858 72.836201 125.42578 72.769531 C 124.52683 72.669931 123.61996 72.636826 122.7168 72.572266 C 122.57224 72.562266 122.42762 72.515184 122.28516 72.521484 z M 120.73047 85.470703 C 120.41511 85.473268 120.12228 85.584309 119.80859 85.552734 C 119.33421 85.504334 118.84898 85.520275 118.37109 85.546875 C 117.6125 85.589675 116.8568 85.659194 116.09961 85.726562 C 115.454 85.784063 114.78747 85.773823 114.16992 85.939453 C 113.03308 86.244713 111.86681 86.215064 110.71875 86.365234 C 110.36927 86.410834 110.01143 86.3842 109.66406 86.4375 C 108.90687 86.55189 108.15563 86.710686 107.39844 86.822266 C 107.11283 86.863666 106.80679 86.775125 106.52539 86.828125 C 105.85592 86.955145 105.20017 87.15915 104.5293 87.28125 C 103.53983 87.4609 102.54026 87.575666 101.55078 87.753906 C 100.49044 87.944786 99.436295 88.175738 98.380859 88.392578 C 97.326826 88.608718 96.268268 88.803301 95.222656 89.056641 C 94.113887 89.324711 93.019171 89.657989 91.916016 89.949219 C 90.477422 90.328859 89.032741 90.681939 87.597656 91.074219 C 86.966079 91.246849 86.346303 91.464829 85.734375 91.699219 C 84.622096 92.125179 83.524387 92.592171 82.412109 93.019531 C 80.978428 93.569711 79.529079 94.081878 78.099609 94.642578 C 77.145225 95.015908 76.218453 95.46129 75.267578 95.84375 C 74.454246 96.17147 73.621679 96.447882 72.802734 96.763672 C 72.341682 96.941912 71.87158 97.117422 71.441406 97.357422 C 70.633688 97.808652 69.857189 98.31389 69.058594 98.78125 C 68.568771 99.06827 68.06044 99.320309 67.566406 99.599609 C 67.31588 99.742069 67.192095 99.855397 67.542969 100.09961 C 68.208933 100.56487 68.819536 101.10566 69.460938 101.60742 C 70.183039 102.17233 70.86513 102.81128 71.650391 103.26953 C 73.136002 104.13549 74.668636 104.92509 76.208984 105.69141 C 77.478455 106.32298 78.764538 106.93459 80.085938 107.44336 C 81.16874 107.8602 82.312345 108.11821 83.431641 108.4375 C 84.148832 108.64171 84.880524 108.79826 85.587891 109.03125 C 86.666485 109.38703 87.722187 109.81374 88.800781 110.16602 C 89.921481 110.53304 91.069608 110.81668 92.1875 111.19141 C 93.918023 111.77036 95.68722 112.13742 97.501953 112.29883 C 98.569319 112.39353 99.636308 112.53278 100.70508 112.55664 C 101.96052 112.58404 103.20205 112.70228 104.45117 112.82227 C 106.52485 113.02087 108.61766 113.01913 110.70117 113.13281 C 111.62608 113.18261 112.54595 113.30651 113.46875 113.39844 C 113.927 113.44334 114.3848 113.51847 114.84375 113.5332 C 115.60374 113.5578 116.3643 113.53956 117.125 113.54688 C 118.24009 113.55687 119.35366 113.59043 120.46875 113.58203 C 121.47787 113.57503 122.48697 113.5105 123.49609 113.5 C 123.9803 113.495 124.47133 113.61631 124.94922 113.57422 C 126.31834 113.45282 127.68377 113.27291 129.05078 113.12695 C 129.31254 113.09885 129.57919 113.11913 129.84375 113.11523 C 130.90059 113.10193 131.95683 113.07744 133.01367 113.07812 C 133.88244 113.07883 134.75107 113.12809 135.61914 113.12109 C 136.67528 113.11109 137.73338 112.99538 138.7832 113.05859 C 139.55513 113.10489 140.3111 113.14272 141.07812 113.04102 C 141.52516 112.98132 141.98166 112.98848 142.43359 112.95898 C 143.21956 112.90778 144.01473 112.90014 144.79297 112.78711 C 145.73543 112.65167 146.66893 112.43704 147.60156 112.23633 C 148.34822 112.07493 149.09761 111.91636 149.82812 111.69531 C 150.67023 111.44128 151.47775 111.06089 152.32617 110.83984 C 153.89388 110.43142 155.48542 110.15782 157.10156 109.96484 C 158.31559 109.81887 159.49266 109.37124 160.69336 109.08984 C 161.97335 108.78948 163.26984 108.55757 164.54492 108.23828 C 165.77579 107.93021 166.9965 107.57371 168.20703 107.19336 C 169.62808 106.74704 171.04266 106.27424 172.44336 105.76758 C 173.45388 105.40196 174.44708 104.98181 175.43164 104.54883 C 176.2541 104.18743 177.05727 103.78187 177.85938 103.37695 C 178.65306 102.97625 179.51286 102.67914 180.13672 102.00195 C 180.58443 101.51563 180.99968 101.00261 180.79688 100.26367 C 180.613 99.592796 180.27802 99.037117 179.58398 98.685547 C 179.52298 98.947297 179.48222 99.16377 179.42188 99.375 C 179.22116 100.07816 178.98639 100.66763 178.13867 100.93359 C 177.09306 101.26271 176.10666 101.79353 175.11719 102.28125 C 174.3221 102.67283 173.58595 103.19115 172.67578 103.30273 C 172.58178 103.31463 172.48481 103.30559 172.38867 103.30859 C 171.63499 103.32399 171.02413 103.03473 170.41992 102.57227 C 169.6501 101.9835 168.83362 101.4495 168.28906 100.63477 C 167.6238 99.638968 167.20238 98.551985 167.53711 97.328125 C 167.68448 96.791285 167.92921 96.280069 168.125 95.755859 C 168.4843 94.791649 168.83626 93.825391 169.20117 92.863281 C 169.34924 92.472411 169.52896 92.092052 169.67773 91.701172 C 169.72403 91.580472 169.71492 91.439335 169.73242 91.296875 C 169.51347 91.321475 169.3762 91.378297 169.26953 91.341797 C 168.56567 91.102497 167.85258 90.876218 167.17188 90.580078 C 166.1031 90.114118 165.02318 89.722538 163.85547 89.580078 C 163.20424 89.500778 162.56164 89.342417 161.91602 89.216797 C 161.79181 89.192197 161.67109 89.137859 161.54688 89.130859 C 161.17004 89.109159 160.7881 89.130984 160.41406 89.083984 C 160.09336 89.043284 159.78484 88.886588 159.46484 88.861328 C 158.70133 88.801728 157.93359 88.790229 157.16797 88.755859 C 157.11117 88.753859 157.05754 88.714178 157 88.705078 C 156.36912 88.606178 155.73705 88.508105 155.10547 88.414062 C 155.02757 88.402163 154.94313 88.427363 154.86523 88.414062 C 154.31506 88.321463 153.76979 88.200885 153.2168 88.132812 C 152.36277 88.027542 151.50191 87.965438 150.64648 87.867188 C 150.20578 87.815988 149.76657 87.734758 149.33008 87.648438 C 148.85148 87.553738 148.37898 87.430124 147.90039 87.333984 C 147.13337 87.179604 146.36779 87.012828 145.59375 86.898438 C 144.86042 86.790368 144.11646 86.750069 143.37891 86.667969 C 142.56418 86.577469 141.75364 86.448376 140.9375 86.378906 C 139.88277 86.289106 138.80938 86.327971 137.77148 86.150391 C 136.73289 85.973551 135.7043 85.974676 134.66992 86.009766 C 133.67273 86.044166 132.69562 85.789233 131.69141 85.876953 C 131.19667 85.920453 130.68439 85.708403 130.17773 85.689453 C 128.95317 85.644553 127.72721 85.652853 126.50195 85.626953 C 125.60721 85.608653 124.71309 85.565369 123.81836 85.542969 C 123.35941 85.531769 122.90036 85.542016 122.44141 85.541016 C 121.97685 85.541016 121.48346 85.637172 121.05469 85.513672 C 120.94294 85.481389 120.83559 85.469848 120.73047 85.470703 z M 190.38281 128.02734 C 189.5407 128.61962 188.77608 129.16043 188.00977 129.69727 C 186.5403 130.72464 185.40068 132.00989 184.51367 133.59375 C 183.34665 135.67936 182.78277 137.94929 182.20312 140.21875 C 182.00944 140.97595 182.03563 141.79366 182.00195 142.58594 C 181.97105 143.30454 181.99409 144.02805 181.99609 144.74805 C 181.99709 145.73612 182.14717 146.70083 182.45312 147.64258 C 182.66014 148.28047 182.8611 148.9218 183.0625 149.5625 C 183.39794 150.62987 183.68764 151.7136 184.08203 152.75781 C 184.37185 153.52412 184.79253 154.24003 185.16797 154.97266 C 185.44025 155.50529 185.72113 156.03429 186.02148 156.55078 C 186.28744 157.00692 186.56132 157.46091 186.875 157.88477 C 187.41395 158.61179 187.9398 159.35738 188.55664 160.01562 C 189.18892 160.68931 189.9385 161.25188 190.60938 161.89258 C 191.50412 162.74661 192.52606 163.41006 193.625 163.96094 C 194.12605 164.21287 194.64748 164.42563 195.27344 164.70703 C 195.50432 164.56598 195.89837 164.35325 196.25977 164.0957 C 196.87732 163.655 197.47501 163.18466 198.08203 162.72852 C 198.69185 162.26957 198.94395 161.49575 199.56641 161.04102 C 199.67939 160.95892 199.70574 160.75009 199.75977 160.5957 C 199.79347 160.5003 199.78503 160.38569 199.83203 160.30078 C 200.17448 159.68674 200.54843 159.0894 200.86914 158.46484 C 201.28036 157.66554 201.63906 156.84007 202.03906 156.03516 C 202.63415 154.83867 202.93217 153.55612 203.12305 152.24805 C 203.21565 151.61507 203.20015 150.96508 203.23242 150.32227 C 203.24922 149.97911 203.32228 149.62685 203.26758 149.29492 C 203.13074 148.45914 202.90496 147.63656 202.76953 146.80078 C 202.58216 145.6478 202.43616 144.48754 201.91406 143.42578 C 201.45792 142.49737 200.94717 141.59599 200.49805 140.66406 C 200.02787 139.69073 199.61705 138.68762 199.15039 137.71289 C 198.88863 137.16412 198.49162 136.67359 198.2832 136.10938 C 197.86986 134.98935 197.19877 134.0243 196.5293 133.06641 C 196.02404 132.34361 195.52189 131.61439 194.73242 131.10352 C 193.98295 130.6186 193.38928 129.90156 192.66016 129.38086 C 191.93595 128.86367 191.12737 128.46312 190.38281 128.02734 z M 61.482422 130.3418 C 61.401983 130.34598 61.319274 130.36412 61.248047 130.38477 C 59.973663 130.76302 58.808317 131.3558 57.667969 132.04492 C 56.3192 132.85895 55.278857 133.96298 54.375 135.20508 C 53.018512 137.06964 52.242808 139.23151 51.441406 141.36133 C 50.995793 142.54659 50.678658 143.7936 50.431641 145.03711 C 50.205676 146.17465 50.11897 147.34391 50.03125 148.50391 C 49.94213 149.69127 49.858589 150.88615 49.896484 152.07422 C 49.944204 153.61176 50.107358 155.14496 50.234375 156.67969 C 50.304545 157.52671 50.352936 158.38829 50.775391 159.15039 C 51.042057 159.6318 51.373512 160.07807 51.691406 160.5293 C 52.151755 161.18263 52.615248 161.83631 53.101562 162.4707 C 53.521213 163.01877 54.023947 163.5087 54.404297 164.08203 C 54.893419 164.81817 55.566556 165.20871 56.402344 165.34766 C 56.694975 165.39676 57.047969 165.45804 57.167969 165.01172 C 57.191829 164.92402 57.3406 164.85055 57.447266 164.81055 C 58.187615 164.52915 58.930519 164.25495 59.675781 163.98828 C 60.012622 163.86828 60.364086 163.79068 60.695312 163.66016 C 61.470751 163.35419 62.186036 162.9561 62.755859 162.32031 C 63.531296 161.45505 64.366827 160.63973 65.101562 159.74219 C 65.545774 159.19833 65.846973 158.53725 66.216797 157.93164 C 66.326271 157.75269 66.493728 157.59838 66.5625 157.4082 C 66.871973 156.54505 67.150821 155.67065 67.451172 154.80469 C 67.695382 154.10083 67.985185 153.41345 68.199219 152.70117 C 68.359921 152.16714 68.415495 151.60245 68.548828 151.05859 C 68.704617 150.4235 68.905857 149.79971 69.064453 149.16602 C 69.140943 148.86006 69.177102 148.54094 69.212891 148.22656 C 69.291491 147.53323 69.394109 146.84066 69.417969 146.14453 C 69.434809 145.67084 69.335529 145.19329 69.287109 144.7168 C 69.329219 144.7108 69.370707 144.70607 69.412109 144.70117 C 69.250706 143.75591 69.083523 142.81049 68.927734 141.86523 C 68.804226 141.11225 68.673411 140.36001 68.580078 139.60352 C 68.456569 138.60562 68.209025 137.65714 67.830078 136.7168 C 67.396395 135.64171 66.861345 134.63718 66.230469 133.67578 C 65.135735 132.00772 63.452442 131.14482 61.705078 130.375 C 61.641219 130.3466 61.56286 130.33761 61.482422 130.3418 z M 190.86133 134.1543 C 191.01863 134.1488 191.17539 134.15451 191.33398 134.17188 C 192.21328 134.26942 193.14522 134.45924 193.77539 135.06836 C 194.37679 135.65011 194.76182 136.46283 195.21094 137.19336 C 195.9555 138.40529 196.34641 139.7661 196.66992 141.12891 C 196.95132 142.31346 197.06254 143.53963 197.24219 144.74805 C 197.3692 145.60699 197.49435 146.46637 197.59961 147.32812 C 197.68171 148.00321 197.72966 148.68288 197.79492 149.35938 C 197.83422 149.76639 197.87657 150.17376 197.91797 150.58008 C 198.10604 152.35692 197.61147 154.03582 197.12305 155.69336 C 196.83884 156.65827 196.22016 157.52539 195.38086 158.08398 C 194.50437 158.66714 193.50865 158.74109 192.46094 158.3418 C 191.30375 157.90039 190.64244 156.9929 190.01367 156.03711 C 189.51543 155.27922 189.03427 154.50303 188.62305 153.69531 C 188.27147 153.00479 188.03131 152.25796 187.74219 151.53516 C 187.65938 151.32884 187.5994 151.11235 187.49414 150.91797 C 187.17484 150.32779 187.03794 149.68879 186.94531 149.03125 C 186.84637 148.31827 186.65709 147.61548 186.60938 146.90039 C 186.52867 145.68776 186.5014 144.46934 186.5 143.25391 C 186.4986 142.01531 186.5172 140.77274 186.60352 139.53906 C 186.64562 138.94117 186.92387 138.36102 186.98633 137.76172 C 187.06422 137.01926 187.39339 136.40444 187.76953 135.79883 C 188.16953 135.15392 188.68837 134.68803 189.45117 134.4375 C 189.9217 134.28276 190.38942 134.17078 190.86133 134.1543 z M 60.318359 135.23242 C 60.42405 135.25421 60.536449 135.31128 60.658203 135.41602 C 61.05329 135.75637 61.642067 135.85587 62.099609 136.13867 C 62.423117 136.33797 62.663301 136.67074 62.953125 136.92969 C 63.674527 137.57319 64.221212 138.34431 64.601562 139.22852 C 64.929282 139.99132 65.171375 140.77798 65.115234 141.625 C 65.038743 142.70009 64.957292 143.77437 64.890625 144.85156 C 64.86045 145.32946 64.85382 145.81102 64.849609 146.29102 C 64.835574 147.78996 64.559439 149.24739 64.232422 150.70703 C 63.899791 152.19475 63.320481 153.5808 62.6875 154.94922 C 62.389957 155.59132 62.040963 156.21757 61.654297 156.81055 C 61.210789 157.49055 59.438871 159.66939 58.582031 160.1543 C 57.54063 160.74447 56.42729 160.55368 55.640625 159.7207 C 55.108696 159.1579 54.930012 158.48145 54.736328 157.7832 C 54.526504 157.02531 54.275435 156.27923 54.058594 155.52344 C 53.970173 155.21467 53.901328 154.89602 53.861328 154.57812 C 53.744135 153.63007 53.609179 152.68345 53.548828 151.73047 C 53.480056 150.64556 53.403457 149.55662 53.613281 148.4668 C 53.704509 147.99241 53.595292 147.48281 53.664062 147 C 53.740555 146.46386 53.917905 145.94193 54.044922 145.41211 C 54.229483 144.63457 54.385177 143.84865 54.595703 143.07812 C 54.760615 142.47742 54.990857 141.89306 55.189453 141.30078 C 55.43647 140.56675 55.622261 139.80722 55.939453 139.10547 C 56.373136 138.14547 57.105059 137.38648 57.894531 136.70508 C 58.401899 136.26789 58.937474 135.84173 59.523438 135.52734 C 59.749226 135.40629 60.001288 135.16706 60.318359 135.23242 z M 170.84961 193.79102 C 171.72891 193.77137 172.26073 194.41092 172.47266 195.12109 C 172.64739 195.70776 172.74776 196.43009 172.40039 197.03711 C 172.19899 197.39009 171.9205 197.71615 171.61523 197.98633 C 171.16471 198.38703 170.66701 198.73811 170.17578 199.0918 C 169.45789 199.60759 168.63383 199.91759 167.83594 200.2832 C 167.07524 200.63127 166.29487 200.91501 165.51172 201.19922 C 165.23733 201.29817 164.97861 201.43865 164.70703 201.54883 C 163.66493 201.96918 162.64344 202.46607 161.56836 202.77344 C 160.9031 202.96291 160.19774 202.98637 159.56055 203.32812 C 159.27423 203.48111 158.91335 203.56967 158.58984 203.56055 C 158.13862 203.54862 157.7805 203.97463 157.27734 203.78516 C 157.19875 203.75498 156.82486 203.9712 156.55469 204.02734 C 155.80522 204.18454 155.06472 204.391 154.32227 204.58398 C 153.35736 204.83451 152.39881 205.10881 151.42969 205.3418 C 150.58478 205.5446 149.72717 205.69023 148.88086 205.88672 C 147.24016 206.26707 145.60344 206.66506 143.96484 207.05664 C 143.12414 207.25734 142.29318 207.5134 141.44336 207.65234 C 140.26301 207.84533 139.13508 208.29613 137.89648 208.23438 C 137.19192 208.19928 136.4768 208.44829 135.76172 208.5332 C 135.274 208.59075 134.77693 208.57258 134.28711 208.61328 C 134.05483 208.63223 133.82994 208.732 133.59766 208.75586 C 133.09871 208.80639 132.56301 208.73063 132.10547 208.89062 C 131.35951 209.15027 130.59902 209.20371 129.85938 209.10547 C 128.77096 208.96091 127.72633 209.3238 126.64844 209.23047 C 125.87019 209.1631 125.08324 209.17215 124.30078 209.19531 C 123.92885 209.20654 123.55928 209.33131 123.18945 209.4043 L 123.00586 209.4043 C 122.99884 209.39026 122.99209 209.36523 122.98438 209.36523 C 121.93104 209.34067 120.8763 209.31512 119.82227 209.29688 C 119.48613 209.29056 119.14989 209.31607 118.81445 209.30273 C 118.45235 209.2901 118.09187 209.25384 117.73047 209.21875 C 116.48766 209.10086 115.24476 208.97937 114.00195 208.85938 C 113.33388 208.7948 112.66331 208.74897 111.99805 208.66406 C 111.07665 208.54476 110.15703 208.39224 109.23633 208.26172 C 108.20966 208.11646 107.18221 207.98596 106.15625 207.83789 C 105.36467 207.7221 104.56956 207.62054 103.78711 207.45703 C 102.45518 207.17914 101.12944 206.87133 99.806641 206.55273 C 97.293664 205.94712 94.772777 205.36634 92.277344 204.69336 C 91.274539 204.42248 90.309396 203.97961 89.361328 203.54102 C 87.512911 202.68698 85.607275 201.9968 83.654297 201.4375 C 82.694299 201.16311 81.721167 200.93814 80.759766 200.66797 C 80.460819 200.58376 80.171969 200.43954 79.900391 200.28516 C 79.807759 200.23252 79.796492 200.05293 79.720703 199.95117 C 79.637896 199.841 79.478108 199.65207 79.429688 199.67383 C 79.005127 199.8619 78.858286 199.51055 78.621094 199.31055 C 78.381094 199.10774 78.108649 198.94533 77.857422 198.75586 C 77.453914 198.452 77.155857 197.79897 77.314453 197.47266 C 77.548137 196.99336 77.773652 196.30253 78.203125 196.19727 C 78.741369 196.06534 78.967315 195.29758 79.671875 195.57617 C 79.882401 195.65898 80.208645 195.38745 80.474609 195.4043 C 81.146889 195.4464 81.667423 195.82323 82.107422 196.31445 C 82.195141 196.4113 82.258686 196.53119 82.345703 196.6582 C 82.775878 196.08698 83.459789 195.91224 84.070312 195.82031 C 84.592417 195.74101 85.173581 196.03573 85.726562 196.17188 C 85.884457 196.20976 86.04895 196.24913 86.191406 196.32422 C 86.530353 196.50527 86.928671 196.64483 87.167969 196.91992 C 87.377793 197.16203 87.590255 197.07667 87.800781 197.13281 C 87.919377 197.16509 88.102858 197.11092 88.166016 197.17969 C 88.698646 197.76284 89.330744 197.41532 89.871094 197.29883 C 90.487934 197.1662 91.075547 196.99386 91.714844 197.08789 C 92.108527 197.14614 92.508356 197.15452 92.90625 197.1875 C 92.932917 197.18961 92.95841 197.21964 92.984375 197.23438 C 93.444725 197.50314 94.014383 197.6233 94.337891 198.07031 C 94.563153 198.37979 94.849913 198.44178 95.125 198.35547 C 95.868858 198.12389 96.555289 198.43821 97.222656 198.59961 C 97.633182 198.69926 98.020865 199.19119 98.263672 199.59961 C 98.476303 199.9568 98.673508 200.13256 99.029297 199.96484 C 99.481927 199.75151 99.938496 199.5137 100.33008 199.20703 C 101.26973 198.46809 102.30294 198.4146 103.4082 198.65039 C 103.70224 198.71355 104.05291 198.62884 104.30273 198.75586 C 104.77782 198.99796 105.27934 199.27499 105.62109 199.66797 C 105.95022 200.04621 106.30571 200.32419 106.78711 200.18945 C 106.90079 200.15787 107.01913 200.11353 107.13281 200.11914 C 108.21 200.17388 109.28749 200.23155 110.36328 200.30664 C 110.54714 200.31927 110.73322 200.40282 110.90234 200.48633 C 111.59918 200.82878 112.33499 200.58705 113.05078 200.63477 C 113.35534 200.65512 113.69391 200.41395 113.97461 200.47852 C 114.6118 200.62448 115.30119 200.25703 115.9082 200.73633 C 116.12504 200.90826 116.47425 200.92137 116.76758 200.98242 C 117.62231 201.15997 118.47419 201.35721 119.33594 201.48633 C 119.99839 201.58528 120.6827 201.54763 121.34375 201.6543 C 122.30726 201.80938 123.32099 201.82616 124.18555 202.33984 C 124.4859 202.51809 124.75868 202.64986 125.08008 202.57617 C 125.93902 202.37968 126.78909 202.14873 127.64453 201.9375 C 128.34067 201.76627 129.03302 201.56617 129.73828 201.44336 C 130.70038 201.27634 131.65649 201.3078 132.61719 201.58008 C 132.93789 201.6706 133.37385 201.52212 133.70508 201.36914 C 134.21876 201.13125 134.71168 200.83013 135.16992 200.49609 C 135.77413 200.05539 136.4256 200.0233 137.13086 200.07031 C 137.80875 200.11522 138.46435 200.26269 139.12891 200.35742 C 139.98154 200.47953 140.86978 200.55463 141.7168 200.44727 C 142.30276 200.37358 142.84454 199.95341 143.41016 199.69727 C 143.92244 199.46499 144.42324 199.14887 144.96289 199.05273 C 145.33342 198.98607 145.7957 199.1667 146.1543 199.35547 C 146.72201 199.65301 147.31031 199.69777 147.9082 199.63672 C 148.13066 199.61426 148.34523 199.39923 148.54102 199.24414 C 149.18031 198.74169 149.76104 198.14405 150.45508 197.73633 C 151.33578 197.21773 152.34538 196.98242 153.37695 197.09961 C 153.90748 197.15996 154.36894 197.02784 154.86719 196.92188 C 155.52403 196.78152 156.21264 196.71732 156.88281 196.74609 C 157.19088 196.75873 157.54998 197.01611 157.77734 197.26172 C 158.29664 197.82312 159.86611 197.4952 160.11523 196.75977 C 160.34822 196.07485 160.79639 195.94317 161.50586 196.04492 C 162.30586 196.16001 163.12807 196.13877 163.94141 196.14648 C 164.0586 196.14719 164.18124 195.98731 164.29492 195.89258 C 164.9651 195.3389 165.61667 194.76194 166.30859 194.23633 C 166.66859 193.96194 167.06533 194.09154 167.43164 194.32031 C 168.35024 194.89294 168.55959 194.87825 169.34766 194.2207 C 169.78344 193.8579 170.33312 193.80295 170.84961 193.79102 z "
       transform="translate(0,796.36216)"
       id="Settings_1_" />
    <g
       id="g3106"
       transform="matrix(0.70175281,0,0,-0.70175281,123.00602,1005.7655)"
       style="fill:#000000" />
    <g
       id="g3110"
       transform="matrix(0.70175281,0,0,-0.70175281,197.91778,946.9416)"
       style="fill:#000000" />
    <g
       id="g3114"
       transform="matrix(0.70175281,0,0,-0.70175281,65.11583,937.98667)"
       style="fill:#000000" />
  </g>
</svg>
