<?xml version="1.0" encoding="UTF-8" standalone="no"?>
<!-- Created with Inkscape (http://www.inkscape.org/) -->

<svg
   xmlns:dc="http://purl.org/dc/elements/1.1/"
   xmlns:cc="http://creativecommons.org/ns#"
   xmlns:rdf="http://www.w3.org/1999/02/22-rdf-syntax-ns#"
   xmlns:svg="http://www.w3.org/2000/svg"
   xmlns="http://www.w3.org/2000/svg"
   xmlns:sodipodi="http://sodipodi.sourceforge.net/DTD/sodipodi-0.dtd"
   xmlns:inkscape="http://www.inkscape.org/namespaces/inkscape"
   id="svg3084"
   version="1.1"
   inkscape:version="0.48.5 r10040"
   width="256"
   height="256"
   xml:space="preserve"
   sodipodi:docname="Dungeon Crawl Stone Soup-content.svg"
   inkscape:export-filename="/Volumes/Verbatim16/GitHub Projects/baxy-retroarch-themes/monochrome plus/contributions/svg/Dungeon Crawl Stone Soup-content.png"
   inkscape:export-xdpi="90.099998"
   inkscape:export-ydpi="90.099998"><metadata
     id="metadata3090"><rdf:RDF><cc:Work
         rdf:about=""><dc:format>image/svg+xml</dc:format><dc:type
           rdf:resource="http://purl.org/dc/dcmitype/StillImage" /><dc:title></dc:title></cc:Work></rdf:RDF></metadata><defs
     id="defs3088"><clipPath
       clipPathUnits="userSpaceOnUse"
       id="clipPath3098"><path
         d="M 0,256 256,256 256,0 0,0 0,256 z"
         id="path3100"
         inkscape:connector-curvature="0" /></clipPath></defs><sodipodi:namedview
     pagecolor="#ffffff"
     bordercolor="#666666"
     borderopacity="1"
     objecttolerance="10"
     gridtolerance="10"
     guidetolerance="10"
     inkscape:pageopacity="0"
     inkscape:pageshadow="2"
     inkscape:window-width="1676"
     inkscape:window-height="1005"
     id="namedview3086"
     showgrid="false"
     inkscape:zoom="2.61875"
     inkscape:cx="112.07637"
     inkscape:cy="129.45107"
     inkscape:window-x="4"
     inkscape:window-y="1"
     inkscape:window-maximized="1"
     inkscape:current-layer="g3092" /><g
     id="g3092"
     inkscape:groupmode="layer"
     inkscape:label="Dungeon Crawl Stone Soup-content"
     transform="matrix(1.25,0,0,-1.25,0,256)"><g
       id="g3094"
       transform="matrix(0.80000033,0,0,0.80000033,2.0839167e-5,-4.1816689e-6)"><g
         id="g3096"
         clip-path="url(#clipPath3098)"><g
           id="g3102"
           transform="translate(44.333,104.1787)"><path
             d="m 0,0 c 0.06,0.008 0.119,0.016 0.178,0.023 -0.23,1.347 -0.467,2.694 -0.689,4.041 -0.176,1.073 -0.362,2.145 -0.495,3.223 -0.176,1.422 -0.53,2.774 -1.07,4.114 -0.618,1.532 -1.379,2.962 -2.278,4.332 -1.56,2.377 -3.96,3.607 -6.45,4.704 -0.182,0.081 -0.448,0.046 -0.651,-0.013 -1.816,-0.539 -3.477,-1.386 -5.102,-2.368 -1.922,-1.16 -3.405,-2.733 -4.693,-4.503 -1.933,-2.657 -3.037,-5.737 -4.179,-8.772 -0.635,-1.689 -1.088,-3.465 -1.44,-5.237 -0.322,-1.621 -0.444,-3.287 -0.569,-4.94 -0.127,-1.692 -0.247,-3.395 -0.193,-5.088 0.068,-2.191 0.301,-4.377 0.482,-6.564 0.1,-1.207 0.169,-2.435 0.771,-3.521 0.38,-0.686 0.853,-1.322 1.306,-1.965 0.656,-0.931 1.314,-1.863 2.007,-2.767 0.598,-0.781 1.315,-1.479 1.857,-2.296 0.697,-1.049 1.656,-1.604 2.847,-1.802 0.417,-0.07 0.92,-0.158 1.091,0.478 0.034,0.125 0.248,0.231 0.4,0.288 1.055,0.401 2.112,0.792 3.174,1.172 0.48,0.171 0.982,0.281 1.454,0.467 1.105,0.436 2.125,1.002 2.937,1.908 1.105,1.233 2.295,2.396 3.342,3.675 0.633,0.775 1.062,1.717 1.589,2.58 0.156,0.255 0.394,0.474 0.492,0.745 0.441,1.23 0.838,2.475 1.266,3.709 0.348,1.003 0.761,1.985 1.066,3 0.229,0.761 0.308,1.565 0.498,2.34 0.222,0.905 0.509,1.794 0.735,2.697 0.109,0.436 0.16,0.889 0.211,1.337 0.112,0.988 0.26,1.977 0.294,2.969 C 0.212,-1.359 0.069,-0.679 0,0 m 172.563,23.781 c -1.2,-0.844 -2.289,-1.613 -3.381,-2.378 -2.094,-1.464 -3.719,-3.297 -4.983,-5.554 -1.663,-2.972 -2.467,-6.205 -3.293,-9.439 -0.276,-1.079 -0.237,-2.246 -0.285,-3.375 -0.044,-1.024 -0.011,-2.053 -0.009,-3.079 0.002,-1.408 0.215,-2.784 0.651,-4.126 0.295,-0.909 0.58,-1.822 0.867,-2.735 0.478,-1.521 0.89,-3.066 1.452,-4.554 0.413,-1.092 1.014,-2.113 1.549,-3.157 0.388,-0.759 0.787,-1.512 1.215,-2.248 0.379,-0.65 0.769,-1.298 1.216,-1.902 0.768,-1.036 1.518,-2.098 2.397,-3.036 0.901,-0.96 1.97,-1.76 2.926,-2.673 1.275,-1.217 2.731,-2.163 4.297,-2.948 0.714,-0.359 1.456,-0.661 2.348,-1.062 0.329,0.201 0.891,0.503 1.406,0.87 0.88,0.628 1.733,1.297 2.598,1.947 0.869,0.654 1.229,1.757 2.116,2.405 0.161,0.117 0.196,0.416 0.273,0.636 0.048,0.136 0.037,0.298 0.104,0.419 0.488,0.875 1.02,1.726 1.477,2.616 0.586,1.139 1.099,2.315 1.669,3.462 0.848,1.705 1.272,3.534 1.544,5.398 0.132,0.902 0.109,1.828 0.155,2.744 0.024,0.489 0.129,0.992 0.051,1.465 -0.195,1.191 -0.516,2.362 -0.709,3.553 -0.267,1.643 -0.476,3.297 -1.22,4.81 -0.65,1.323 -1.379,2.607 -2.019,3.935 -0.67,1.387 -1.254,2.816 -1.919,4.205 -0.373,0.782 -0.94,1.482 -1.237,2.286 -0.589,1.596 -1.544,2.97 -2.498,4.335 -0.72,1.03 -1.436,2.071 -2.561,2.799 -1.068,0.691 -1.915,1.712 -2.954,2.454 -1.032,0.737 -2.182,1.306 -3.243,1.927 m -27.349,48.846 c 0.037,-0.013 0.074,-0.026 0.111,-0.04 -0.015,-0.232 0.026,-0.49 -0.065,-0.688 -0.073,-0.16 -0.417,-0.375 -0.451,-0.345 -0.395,0.34 -0.375,-0.098 -0.421,-0.238 -0.42,-1.274 -0.813,-2.556 -1.223,-3.833 -0.149,-0.466 -0.488,-0.935 -0.457,-1.382 0.075,-1.066 0.425,-2.097 1.375,-2.72 0.901,-0.59 1.872,-1.075 2.819,-1.594 0.087,-0.048 0.241,-0.039 0.335,0.003 0.699,0.312 1.481,0.523 2.065,0.984 1.225,0.967 2.647,1.47 4.053,2.043 0.23,0.093 0.468,0.333 0.56,0.563 0.343,0.86 0.597,1.756 0.941,2.615 0.47,1.171 0.922,2.358 1.51,3.47 0.88,1.667 1.876,3.273 2.814,4.91 0.35,0.612 0.689,1.232 1.008,1.861 0.84,1.655 1.623,3.34 2.508,4.97 1.001,1.84 1.776,3.797 2.987,5.537 0.806,1.159 1.386,2.475 2.077,3.716 0.124,0.223 0.303,0.414 0.436,0.633 0.687,1.141 1.36,2.291 2.051,3.429 0.792,1.304 1.671,2.56 2.378,3.907 0.579,1.105 0.951,2.317 1.432,3.475 0.229,0.553 0.421,1.145 0.767,1.618 0.363,0.497 0.635,1.015 0.824,1.583 0.147,0.441 0.216,0.908 0.369,1.346 0.352,1.015 0.686,2.04 1.116,3.022 0.458,1.047 0.976,2.073 1.547,3.064 0.429,0.747 0.988,1.418 1.477,2.131 0.364,0.531 0.667,1.111 1.074,1.605 0.533,0.645 1.119,1.251 1.723,1.83 0.947,0.906 1.852,1.886 2.914,2.635 1.461,1.029 3.05,1.878 4.591,2.792 1.15,0.681 2.319,1.332 3.468,2.019 0.417,0.249 0.796,0.547 0.603,1.153 -0.159,0.501 -0.19,1.054 -0.416,1.518 -0.487,1.002 -0.479,2.122 -1.486,3.035 -1.413,1.282 -3.033,2.158 -4.576,3.19 -0.887,0.594 -1.638,0.808 -2.532,-0.217 -0.916,-1.051 -2.138,-1.83 -3.213,-2.744 -0.593,-0.504 -1.145,-1.057 -1.739,-1.56 -0.881,-0.746 -1.834,-1.415 -2.664,-2.213 -0.974,-0.936 -1.846,-1.977 -2.767,-2.969 -0.787,-0.847 -1.614,-1.661 -2.361,-2.542 -1.076,-1.27 -2.174,-2.532 -3.116,-3.9 -0.863,-1.254 -1.525,-2.647 -2.288,-3.972 -0.361,-0.626 -0.772,-1.223 -1.124,-1.853 -1.012,-1.816 -1.948,-3.676 -3.02,-5.454 -1.26,-2.089 -2.651,-4.099 -3.95,-6.165 -0.94,-1.497 -1.941,-2.973 -2.702,-4.561 -0.872,-1.818 -1.512,-3.749 -2.247,-5.633 -0.582,-1.493 -1.138,-2.997 -1.742,-4.481 -0.4,-0.982 -0.824,-1.959 -1.312,-2.9 -1.04,-2.007 -2.171,-3.968 -3.183,-5.989 -0.774,-1.545 -1.43,-3.15 -2.121,-4.736 -0.277,-0.632 -0.506,-1.284 -0.757,-1.928 M -11.024,62.654 c 0.246,-0.298 0.468,-0.519 0.634,-0.776 0.534,-0.83 0.963,-1.743 1.585,-2.499 1.36,-1.655 2.971,-3.031 4.811,-4.165 1.217,-0.748 2.268,-1.761 3.465,-2.548 1.168,-0.77 2.404,-1.445 3.652,-2.083 1.409,-0.721 2.851,-1.382 4.303,-2.014 1.054,-0.459 2.142,-0.84 3.222,-1.234 1.302,-0.474 2.602,-0.957 3.922,-1.377 1.167,-0.372 2.358,-0.672 3.543,-0.987 1.634,-0.435 3.256,-0.929 4.911,-1.259 2.122,-0.423 4.273,-0.699 6.408,-1.058 1.875,-0.315 3.753,-0.621 5.616,-0.995 1.606,-0.322 3.191,-0.75 4.792,-1.099 1.567,-0.341 3.181,-0.519 4.705,-0.995 1.614,-0.503 3.258,-0.521 4.896,-0.708 1.004,-0.115 2.014,-0.194 3.014,-0.337 1.157,-0.166 2.302,-0.417 3.461,-0.572 1.536,-0.206 3.081,-0.348 4.621,-0.531 1.399,-0.165 2.796,-0.349 4.194,-0.525 1.907,-0.24 3.809,-0.617 5.721,-0.686 2.597,-0.094 5.204,-0.005 7.803,0.105 1.742,0.074 3.479,0.3 5.214,0.499 1.539,0.175 3.094,0.302 4.601,0.636 2.907,0.644 5.856,0.697 8.8,0.902 1.863,0.129 3.715,0.425 5.575,0.617 0.81,0.083 1.655,0.236 2.434,0.093 0.856,-0.158 1.704,-0.537 2.473,-0.968 1.926,-1.081 3.752,-2.273 4.724,-4.426 0.562,-1.245 0.931,-2.499 0.863,-3.858 -0.032,-0.661 -0.218,-1.316 -0.239,-1.976 -0.04,-1.266 0.013,-2.534 -0.018,-3.8 -0.029,-1.128 0.197,-2.097 1.057,-2.941 1.002,-0.983 2.123,-1.655 3.518,-1.597 0.921,0.039 1.834,0.347 2.746,0.552 1.9,0.428 2.813,1.738 3.167,3.556 0.242,1.243 0.518,2.479 0.765,3.721 0.037,0.187 0.032,0.399 -0.014,0.584 -0.242,0.957 -0.526,1.904 -0.753,2.864 -0.281,1.195 -0.57,2.392 -0.763,3.603 -0.233,1.467 -0.582,2.955 -0.146,4.437 0.288,0.981 0.473,2.11 1.812,2.253 0.414,0.043 0.85,-0.062 1.254,0.015 1.265,0.241 2.53,0.492 3.773,0.827 0.693,0.187 1.328,0.584 2.01,0.825 1.539,0.545 3.093,1.05 4.639,1.575 1.068,0.363 2.115,0.802 3.204,1.085 1.771,0.46 3.579,0.777 5.351,1.237 1.371,0.357 2.712,0.832 4.06,1.271 1.266,0.413 2.528,0.839 3.784,1.276 1.282,0.446 2.583,0.851 3.827,1.385 1.396,0.598 2.745,1.309 4.104,1.991 0.453,0.227 0.89,0.494 1.308,0.782 1.222,0.839 2.414,1.726 3.652,2.542 1.255,0.826 2.552,1.589 3.829,2.382 0.05,0.031 0.083,0.089 0.127,0.131 0.771,0.714 1.624,1.359 2.289,2.16 0.692,0.835 1.155,1.856 1.803,2.732 0.732,0.99 0.41,2.135 0.553,3.196 0.408,3.027 -0.649,5.788 -1.902,8.457 -0.66,1.406 -1.584,2.666 -2.686,3.78 -0.344,0.348 -0.641,0.745 -1.005,1.067 -0.426,0.376 -0.905,0.69 -1.354,1.041 -0.446,0.351 -0.882,0.715 -1.423,1.154 -1.041,-2.092 -2.083,-4.185 -3.105,-6.239 0.498,-0.575 1.154,-1.096 1.492,-1.775 0.665,-1.337 1.176,-2.753 1.703,-4.155 0.197,-0.522 0.294,-1.088 0.38,-1.642 0.322,-2.082 -0.67,-3.837 -1.432,-5.649 -0.272,-0.645 -0.783,-1.064 -1.247,-1.555 -0.36,-0.379 -0.751,-0.541 -1.171,-0.751 -0.356,-0.179 -0.826,-0.36 -0.978,-0.671 -0.499,-1.024 -1.424,-1.617 -2.287,-2.152 -1.162,-0.722 -2.419,-1.33 -3.725,-1.818 -1.086,-0.406 -2.1,-1.004 -3.155,-1.499 -1.016,-0.478 -2.037,-0.948 -3.069,-1.389 -0.304,-0.13 -0.668,-0.113 -0.983,-0.225 -0.776,-0.277 -1.539,-0.587 -2.306,-0.888 -1.394,-0.545 -2.916,-0.579 -4.316,-1.161 -1.142,-0.475 -2.38,-0.726 -3.58,-1.06 -0.919,-0.257 -1.841,-0.506 -2.768,-0.728 -1.313,-0.316 -2.657,-0.525 -3.943,-0.922 -1.881,-0.581 -3.8,-0.944 -5.734,-1.26 -1.379,-0.226 -2.78,-0.345 -4.139,-0.656 -1.361,-0.313 -2.683,-0.801 -4.02,-1.22 -0.721,-0.226 -1.426,-0.518 -2.159,-0.692 -1.367,-0.326 -2.758,-0.552 -4.122,-0.885 -1.91,-0.467 -3.848,-0.792 -5.798,-0.896 -2.259,-0.121 -4.53,-0.009 -6.794,-0.026 -1.135,-0.008 -2.27,-0.118 -3.404,-0.105 -1.361,0.017 -2.722,0.157 -4.085,0.166 -1.299,0.009 -2.601,-0.064 -3.901,-0.131 -1.425,-0.072 -2.85,-0.158 -4.271,-0.276 -1.096,-0.091 -2.184,-0.303 -3.28,-0.346 -1.37,-0.052 -2.744,0.027 -4.116,0.026 -1.375,-10e-4 -2.751,-0.046 -4.126,-0.041 -0.822,0.002 -1.665,0.195 -2.461,0.068 -1.428,-0.229 -2.846,-0.113 -4.262,-0.056 -0.89,0.035 -1.765,0.373 -2.658,0.468 -0.823,0.086 -1.663,-0.009 -2.491,0.043 -1.704,0.106 -3.403,0.269 -5.106,0.383 -0.916,0.062 -1.837,0.063 -2.754,0.106 -2.214,0.104 -4.396,0.536 -6.634,0.458 -1.45,-0.05 -2.913,0.227 -4.368,0.374 -1.122,0.114 -2.275,0.126 -3.352,0.415 -1.248,0.335 -2.554,0.44 -3.759,0.986 -0.69,0.313 -1.49,0.376 -2.228,0.594 -1.164,0.344 -2.32,0.711 -3.472,1.093 -1.035,0.342 -2.061,0.712 -3.087,1.082 -0.696,0.252 -1.366,0.673 -2.08,0.764 -1.971,0.251 -3.878,0.768 -5.732,1.408 -1.982,0.684 -3.899,1.577 -5.798,2.476 -1.947,0.921 -3.832,1.973 -5.756,2.942 -1.35,0.679 -2.7,1.328 -3.875,2.319 -1.914,1.612 -3.911,3.123 -5.836,4.721 -0.432,0.358 -0.651,0.97 -1.08,1.334 -0.776,0.658 -0.275,1.926 -1.251,2.46 -0.063,0.034 -0.05,0.249 -0.036,0.376 0.146,1.296 0.037,2.634 0.582,3.865 0.528,1.188 1.167,2.334 1.613,3.551 0.538,1.469 1.447,2.703 2.502,3.757 1.77,1.77 3.691,3.399 5.878,4.67 0.684,0.399 1.329,0.864 2.008,1.271 0.62,0.372 1.256,0.718 1.895,1.055 1.337,0.706 2.658,1.451 4.029,2.085 1.542,0.713 3.132,1.326 4.704,1.975 1.476,0.609 2.921,1.324 4.443,1.783 1.885,0.569 3.843,0.891 5.755,1.376 1.885,0.478 3.747,1.049 5.63,1.539 2.694,0.7 5.409,1.327 8.096,2.054 2.153,0.582 4.325,1.047 6.529,1.358 1.933,0.272 3.869,0.531 5.81,0.734 1.329,0.138 2.669,0.165 4.004,0.251 0.549,0.036 1.095,0.099 1.643,0.143 2.433,0.195 4.864,0.466 7.301,0.555 1.62,0.059 3.25,-0.139 4.874,-0.231 1.434,-0.082 2.867,-0.179 4.301,-0.265 1.531,-0.09 3.063,-0.184 4.595,-0.261 1.896,-0.096 3.794,-0.173 5.691,-0.268 0.275,-0.014 0.547,-0.099 0.821,-0.114 0.897,-0.049 1.798,-0.041 2.689,-0.133 0.87,-0.09 1.724,-0.311 2.592,-0.412 1.037,-0.119 2.083,-0.158 3.122,-0.261 0.399,-0.04 0.786,-0.218 1.182,-0.23 1.172,-0.036 2.345,-0.014 3.517,-0.033 0.18,-0.002 0.36,-0.147 0.538,-0.142 0.5,0.016 1.049,0.228 1.486,0.084 0.8,-0.264 1.585,-0.251 2.397,-0.259 1.485,-0.015 2.938,-0.376 4.418,-0.459 0.622,-0.035 1.25,0.01 1.865,-0.067 0.904,-0.114 1.796,-0.327 2.699,-0.457 1.387,-0.198 2.79,-0.299 4.165,-0.556 1.501,-0.281 3.012,-0.359 4.526,-0.454 1.361,-0.085 2.724,-0.151 4.075,-0.323 1.299,-0.166 2.584,-0.463 3.876,-0.691 1.06,-0.187 2.126,-0.339 3.183,-0.54 1.14,-0.216 2.267,-0.493 3.407,-0.702 1.565,-0.287 3.146,-0.49 4.703,-0.811 1.18,-0.244 2.338,-0.603 3.499,-0.935 0.797,-0.228 1.574,-0.531 2.375,-0.744 0.938,-0.25 1.891,-0.449 2.843,-0.648 0.353,-0.073 0.767,-0.185 0.953,0.287 0.229,0.575 0.423,1.165 0.651,1.802 -0.15,-0.045 -0.319,-0.047 -0.411,-0.132 -0.55,-0.506 -1.22,-0.312 -1.701,-0.076 -1.745,0.856 -3.651,1.054 -5.497,1.486 -1.484,0.347 -3.012,0.503 -4.504,0.823 -1.441,0.309 -2.812,0.876 -4.255,1.208 -1.167,0.269 -2.284,0.73 -3.499,0.836 -0.49,0.042 -0.955,0.311 -1.443,0.423 -0.673,0.153 -1.354,0.274 -2.038,0.37 -0.306,0.043 -0.637,-0.068 -0.932,-0.002 -0.703,0.155 -1.383,0.401 -2.084,0.557 -0.407,0.09 -0.841,0.048 -1.254,0.117 -0.679,0.113 -1.347,0.288 -2.027,0.4 -0.703,0.116 -1.424,0.141 -2.119,0.292 -0.724,0.156 -1.414,0.477 -2.141,0.618 -1.485,0.29 -2.983,0.517 -4.479,0.752 -1.153,0.181 -2.306,0.4 -3.468,0.481 -1.4,0.097 -2.811,0.041 -4.216,0.1 -0.803,0.034 -1.616,0.102 -2.4,0.27 -0.768,0.164 -1.648,-0.095 -2.298,0.562 -0.023,0.024 -0.109,-0.026 -0.161,-0.017 -0.506,0.089 -1.027,0.131 -1.512,0.289 -0.769,0.252 -1.574,0.313 -2.352,0.599 -0.814,0.299 -1.786,0.137 -2.678,0.262 -1.541,0.217 -3.07,0.521 -4.611,0.746 -1.034,0.15 -2.08,0.224 -3.12,0.341 -0.826,0.094 -1.585,0.445 -2.47,0.404 -0.84,-0.038 -1.691,0.356 -2.55,0.451 -1.281,0.142 -2.573,0.188 -3.86,0.28 -0.206,0.014 -0.412,0.082 -0.615,0.073 -1.268,-0.059 -2.535,-0.121 -3.801,-0.205 -1.06,-0.07 -2.118,-0.177 -3.179,-0.255 -0.327,-0.024 -0.659,0.005 -0.987,-0.015 -0.517,-0.031 -1.036,-0.062 -1.548,-0.134 -0.292,-0.042 -0.567,-0.213 -0.859,-0.245 -1.361,-0.149 -2.733,-0.217 -4.086,-0.416 -1.524,-0.223 -3.033,-0.544 -4.545,-0.842 -1.12,-0.222 -2.228,-0.507 -3.352,-0.706 -0.79,-0.141 -1.599,-0.173 -2.395,-0.277 -0.413,-0.054 -0.816,-0.209 -1.229,-0.23 C 48.774,99.513 48,99.578 47.234,99.521 46.688,99.48 46.155,99.287 45.61,99.205 44.745,99.074 43.872,98.99 43.005,98.867 41.901,98.71 40.807,98.528 39.688,98.44 38.333,98.334 36.996,97.98 35.653,97.719 35.305,97.651 34.966,97.443 34.624,97.445 33.308,97.452 32.116,96.952 30.891,96.594 29.915,96.309 28.959,95.957 27.982,95.677 27.267,95.472 26.524,95.36 25.806,95.163 24.33,94.756 22.861,94.322 21.391,93.896 20.804,93.725 20.222,93.536 19.634,93.368 17.886,92.87 16.107,92.463 14.396,91.862 12.608,91.235 10.883,90.43 9.136,89.69 8.453,89.4 7.789,89.066 7.108,88.77 6.509,88.51 5.881,88.313 5.299,88.021 4.315,87.527 3.358,86.982 2.39,86.458 1.165,85.793 -0.075,85.152 -1.281,84.454 -2.117,83.969 -2.917,83.419 -3.717,82.875 -5.131,81.912 -6.614,81.029 -7.68,79.636 -7.924,79.318 -8.169,78.999 -8.437,78.7 c -0.815,-0.91 -1.746,-1.74 -2.43,-2.739 -0.554,-0.81 -1.16,-1.658 -1.182,-2.764 -0.012,-0.549 -0.324,-1.088 -0.462,-1.64 -0.41,-1.638 -0.267,-3.287 0.031,-4.912 0.281,-1.532 0.688,-3.041 1.053,-4.557 0.028,-0.118 0.157,-0.213 0.336,-0.441 0.028,0.412 0.044,0.663 0.067,1.007 m 154.16,13.469 c -0.312,-0.035 -0.509,-0.115 -0.661,-0.063 -1.003,0.341 -2.019,0.661 -2.989,1.083 -1.523,0.664 -3.062,1.223 -4.726,1.426 -0.928,0.113 -1.842,0.34 -2.762,0.519 -0.177,0.035 -0.35,0.112 -0.527,0.122 -0.537,0.031 -1.08,-10e-4 -1.613,0.066 -0.457,0.058 -0.897,0.282 -1.353,0.318 -1.088,0.085 -2.182,0.101 -3.273,0.15 -0.081,0.003 -0.157,0.058 -0.239,0.071 -0.899,0.141 -1.8,0.281 -2.7,0.415 -0.111,0.017 -0.231,-0.018 -0.342,10e-4 -0.784,0.132 -1.562,0.305 -2.35,0.402 -1.217,0.15 -2.443,0.237 -3.662,0.377 -0.628,0.073 -1.254,0.188 -1.876,0.311 -0.682,0.135 -1.355,0.312 -2.037,0.449 -1.093,0.22 -2.185,0.459 -3.288,0.622 -1.045,0.154 -2.104,0.211 -3.155,0.328 -1.161,0.129 -2.317,0.311 -3.48,0.41 -1.503,0.128 -3.034,0.075 -4.513,0.328 -1.48,0.252 -2.945,0.249 -4.419,0.199 -1.421,-0.049 -2.813,0.314 -4.244,0.189 -0.705,-0.062 -1.435,0.241 -2.157,0.268 -1.745,0.064 -3.491,0.053 -5.237,0.09 -1.275,0.026 -2.549,0.087 -3.824,0.119 -0.654,0.016 -1.31,0.002 -1.964,0.003 -0.662,0 -1.363,-0.138 -1.974,0.038 -0.637,0.184 -1.18,-0.115 -1.776,-0.055 -0.676,0.069 -1.367,0.045 -2.048,0.007 -1.081,-0.061 -2.16,-0.159 -3.239,-0.255 -0.92,-0.082 -1.87,-0.067 -2.75,-0.303 -1.62,-0.435 -3.28,-0.393 -4.916,-0.607 -0.498,-0.065 -1.01,-0.027 -1.505,-0.103 -1.079,-0.163 -2.148,-0.389 -3.227,-0.548 -0.407,-0.059 -0.843,0.067 -1.244,-0.009 -0.954,-0.181 -1.888,-0.472 -2.844,-0.646 -1.41,-0.256 -2.836,-0.421 -4.246,-0.675 -1.511,-0.272 -3.012,-0.6 -4.516,-0.909 -1.502,-0.308 -3.012,-0.586 -4.502,-0.947 -1.58,-0.382 -3.138,-0.856 -4.71,-1.271 -2.05,-0.541 -4.11,-1.045 -6.155,-1.604 -0.9,-0.246 -1.784,-0.557 -2.656,-0.891 -1.585,-0.607 -3.149,-1.271 -4.734,-1.88 C 16.66,72.884 14.596,72.154 12.559,71.355 11.199,70.823 9.879,70.189 8.524,69.644 7.365,69.177 6.177,68.783 5.01,68.333 4.353,68.079 3.685,67.828 3.072,67.486 1.921,66.843 0.814,66.124 -0.324,65.458 -1.022,65.049 -1.748,64.689 -2.452,64.291 -2.809,64.088 -2.985,63.928 -2.485,63.58 c 0.949,-0.663 1.819,-1.436 2.733,-2.151 1.029,-0.805 2.002,-1.714 3.121,-2.367 2.117,-1.234 4.3,-2.36 6.495,-3.452 1.809,-0.9 3.641,-1.77 5.524,-2.495 1.543,-0.594 3.173,-0.962 4.768,-1.417 1.022,-0.291 2.066,-0.514 3.074,-0.846 1.537,-0.507 3.04,-1.117 4.577,-1.619 1.597,-0.523 3.234,-0.927 4.827,-1.461 2.466,-0.825 4.988,-1.346 7.574,-1.576 1.521,-0.135 3.041,-0.336 4.564,-0.37 1.789,-0.039 3.557,-0.205 5.337,-0.376 2.955,-0.283 5.937,-0.283 8.906,-0.445 1.318,-0.071 2.63,-0.246 3.945,-0.377 0.653,-0.064 1.304,-0.172 1.958,-0.193 1.083,-0.035 2.167,-0.009 3.251,-0.019 1.589,-0.014 3.178,-0.061 4.767,-0.049 1.438,0.01 2.875,0.1 4.313,0.115 0.69,0.007 1.39,-0.164 2.071,-0.104 1.951,0.173 3.895,0.429 5.843,0.637 0.373,0.04 0.753,0.012 1.13,0.017 1.506,0.019 3.012,0.053 4.518,0.052 1.238,-0.001 2.475,-0.07 3.712,-0.06 1.505,0.014 3.014,0.178 4.51,0.088 1.1,-0.066 2.178,-0.121 3.271,0.024 0.637,0.085 1.288,0.075 1.932,0.117 1.12,0.073 2.251,0.085 3.36,0.246 1.343,0.193 2.674,0.498 4.003,0.784 1.064,0.23 2.133,0.457 3.174,0.772 1.2,0.362 2.349,0.903 3.558,1.218 2.234,0.582 4.503,0.974 6.806,1.249 1.73,0.208 3.406,0.844 5.117,1.245 1.824,0.428 3.673,0.76 5.49,1.215 1.754,0.439 3.493,0.946 5.218,1.488 2.025,0.636 4.041,1.31 6.037,2.032 1.44,0.521 2.855,1.12 4.258,1.737 1.172,0.515 2.316,1.093 3.459,1.67 1.131,0.571 2.358,0.995 3.247,1.96 0.638,0.693 1.228,1.424 0.939,2.477 -0.262,0.956 -0.738,1.747 -1.727,2.248 -0.087,-0.373 -0.146,-0.682 -0.232,-0.983 -0.286,-1.002 -0.621,-1.841 -1.829,-2.22 -1.49,-0.469 -2.894,-1.226 -4.304,-1.921 -1.133,-0.558 -2.183,-1.298 -3.48,-1.457 -0.134,-0.017 -0.271,-0.002 -0.408,-0.005 -1.074,-0.022 -1.946,0.388 -2.807,1.047 -1.097,0.839 -2.261,1.6 -3.037,2.761 -0.948,1.419 -1.547,2.969 -1.07,4.713 0.21,0.765 0.558,1.492 0.837,2.239 0.512,1.374 1.013,2.752 1.533,4.123 0.211,0.557 0.469,1.098 0.681,1.655 0.066,0.172 0.052,0.374 0.077,0.577 m 54.531,52.23 0,-1.572 c -0.093,-0.109 -0.233,-0.203 -0.27,-0.328 -0.216,-0.75 -0.756,-1.134 -1.451,-1.386 -0.378,-0.137 -0.742,-0.323 -1.094,-0.519 -1.55,-0.865 -3.097,-1.734 -4.636,-2.616 -0.83,-0.475 -1.712,-0.895 -2.447,-1.491 -1.076,-0.871 -2.067,-1.854 -3.045,-2.837 -0.625,-0.628 -1.205,-1.312 -1.73,-2.027 -0.536,-0.731 -0.986,-1.525 -1.46,-2.3 -0.436,-0.715 -0.937,-1.406 -1.263,-2.17 -0.857,-2.01 -1.624,-4.058 -2.449,-6.082 -0.34,-0.835 -0.832,-1.618 -1.092,-2.474 -0.672,-2.217 -1.669,-4.272 -2.976,-6.166 -1.459,-2.116 -2.847,-4.267 -3.986,-6.575 -0.282,-0.57 -0.62,-1.114 -0.95,-1.659 -0.785,-1.297 -1.58,-2.588 -2.386,-3.907 0.822,-0.358 1.089,-1.177 1.843,-1.374 0.059,-0.016 0.145,-0.171 0.133,-0.183 -0.353,-0.386 0.041,-0.277 0.208,-0.331 0.117,-0.038 0.25,-0.079 0.336,-0.16 1.086,-1.032 2.26,-1.992 3.218,-3.133 0.933,-1.109 2.065,-2.089 2.458,-3.628 0.346,-1.355 1.024,-2.623 1.401,-3.973 0.323,-1.151 0.627,-2.374 0.579,-3.55 -0.089,-2.204 -0.06,-4.438 -0.678,-6.595 -0.381,-1.327 -0.667,-2.688 -1.135,-3.984 -0.557,-1.541 -1.25,-3.033 -1.909,-4.536 -0.49,-1.117 -0.907,-2.291 -1.562,-3.306 -0.984,-1.527 -1.669,-3.179 -2.232,-4.869 -0.476,-1.429 -0.71,-2.941 -1.011,-4.425 -0.301,-1.483 -0.185,-2.97 0.137,-4.434 0.285,-1.297 0.765,-2.516 1.443,-3.676 1.087,-1.858 2.084,-3.768 3.129,-5.65 0.076,-0.136 0.222,-0.252 0.361,-0.33 0.688,-0.384 1.406,-0.719 2.073,-1.133 0.87,-0.54 1.701,-1.142 2.552,-1.712 0.559,-0.375 1.144,-0.715 1.679,-1.12 0.494,-0.374 0.901,-0.869 1.411,-1.215 0.932,-0.634 1.763,-1.347 2.41,-2.281 1,-1.442 2.083,-2.828 3.041,-4.296 0.869,-1.33 1.65,-2.721 2.402,-4.121 0.338,-0.629 0.492,-1.356 0.763,-2.025 0.93,-2.288 1.886,-4.564 2.805,-6.856 0.219,-0.546 0.312,-1.14 0.498,-1.701 0.255,-0.768 0.612,-1.508 0.805,-2.292 0.303,-1.226 0.502,-2.479 0.748,-3.72 0.491,-2.479 0.43,-4.962 -0.013,-7.434 -0.103,-0.575 -0.377,-1.134 -0.648,-1.66 -0.671,-1.296 -1.336,-2.6 -2.103,-3.839 -0.407,-0.656 -0.479,-1.528 -1.221,-1.973 0.128,-0.745 -0.665,-1.156 -0.644,-1.944 0.013,-0.523 -0.657,-1.03 -0.836,-1.603 -0.253,-0.813 -1.145,-0.973 -1.476,-1.839 -0.398,-1.048 -1.526,-1.688 -2.69,-2.146 -1.197,-0.469 -2.282,-1.229 -3.414,-1.866 -0.293,-0.165 -0.565,-0.453 -0.871,-0.491 -0.436,-0.056 -0.914,0.003 -1.338,0.131 -0.474,0.142 -0.63,-0.104 -0.786,-0.435 -0.301,-0.638 -0.572,-1.291 -0.903,-1.913 -1.407,-2.645 -2.855,-5.269 -4.241,-7.927 -0.931,-1.787 -1.848,-3.587 -2.65,-5.434 -0.729,-1.677 -1.35,-3.407 -1.912,-5.147 -0.471,-1.456 -0.672,-3.006 -1.218,-4.428 -0.316,-0.827 -0.248,-1.421 0.134,-2.135 0.226,-0.423 0.302,-0.928 0.436,-1.398 0.544,-1.904 1.066,-3.815 1.631,-5.713 0.439,-1.467 0.91,-2.925 1.405,-4.375 0.26,-0.762 0.659,-1.479 0.882,-2.25 0.112,-0.384 0.109,-0.927 -0.087,-1.251 -0.422,-0.701 -0.959,-1.348 -1.528,-1.942 -1.197,-1.25 -2.33,-2.536 -3.33,-3.962 -0.983,-1.399 -2.273,-2.55 -3.724,-3.474 -0.829,-0.528 -1.711,-0.786 -2.687,-0.213 -0.774,0.452 -1.605,0.814 -2.436,1.152 -0.469,0.19 -1.005,0.217 -1.487,0.384 -0.3,0.104 -0.648,0.268 -0.82,0.514 -2.193,3.129 -4.356,6.279 -6.53,9.42 -0.561,0.812 -1.154,1.603 -1.699,2.425 -0.556,0.84 -1.064,1.711 -1.614,2.555 -0.089,0.138 -0.282,0.208 -0.427,0.309 l 0.085,-0.205 c -0.286,-0.225 -0.547,-0.502 -0.864,-0.667 -0.624,-0.323 -1.267,-0.616 -1.924,-0.862 -1.116,-0.417 -2.235,-0.84 -3.381,-1.164 -1.173,-0.332 -2.374,-0.565 -3.569,-0.814 -1.518,-0.314 -3.03,-0.685 -4.564,-0.879 -2.21,-0.281 -4.445,-0.364 -6.655,-0.644 -1.797,-0.227 -3.568,-0.641 -5.357,-0.936 -1.951,-0.321 -3.906,-0.618 -5.863,-0.894 -1.123,-0.157 -2.257,-0.231 -3.382,-0.379 -2.203,-0.289 -4.397,-0.649 -6.604,-0.893 -2.136,-0.238 -4.282,-0.403 -6.428,-0.528 -1.756,-0.102 -3.517,-0.102 -5.277,-0.141 -0.552,-0.012 -1.105,-0.011 -1.656,0 -2.023,0.039 -4.044,0.08 -6.066,0.13 -1.345,0.035 -2.69,0.083 -4.034,0.13 -2.321,0.081 -4.641,0.192 -6.963,0.239 -1.504,0.03 -3.011,-0.059 -4.515,-0.042 -0.776,0.007 -1.549,0.152 -2.326,0.192 -1.055,0.056 -2.112,0.054 -3.167,0.106 -1.112,0.057 -2.222,0.174 -3.335,0.218 -1.35,0.054 -2.703,0.045 -4.053,0.09 -2.141,0.069 -4.28,0.169 -6.421,0.241 -1.667,0.056 -3.337,0.06 -5.004,0.14 -2.087,0.1 -4.173,0.255 -6.259,0.39 -0.61,0.04 -1.223,0.07 -1.829,0.144 -1.645,0.202 -3.287,0.437 -4.933,0.637 -1.458,0.178 -2.929,0.264 -4.377,0.504 -1.454,0.24 -2.885,0.624 -4.328,0.932 -0.986,0.211 -1.989,0.35 -2.961,0.612 -1.456,0.391 -2.888,0.872 -4.337,1.295 -0.582,0.169 -1.179,0.288 -1.751,0.425 -0.248,-0.296 -0.525,-0.572 -0.738,-0.891 -0.598,-0.896 -1.146,-1.826 -1.76,-2.711 -0.625,-0.9 -1.39,-1.712 -1.939,-2.653 -0.679,-1.161 -1.279,-2.384 -1.764,-3.638 -0.474,-1.228 -0.721,-2.54 -1.148,-3.788 -0.235,-0.69 -0.511,-1.45 -1.495,-1.41 -0.301,0.012 -0.605,-0.027 -0.905,-0.063 -0.701,-0.084 -1.399,-0.19 -2.101,-0.269 -0.513,-0.059 -1.029,-0.098 -1.545,-0.129 -1.137,-0.068 -2.248,-0.051 -2.997,1.03 -0.047,0.068 -0.179,0.111 -0.271,0.109 -0.945,-0.021 -1.528,0.551 -2.02,1.247 -0.357,0.506 -0.639,1.066 -1.011,1.559 -0.818,1.083 -1.667,2.143 -2.514,3.204 -0.155,0.193 -0.331,0.411 -0.546,0.506 -0.806,0.356 -1.025,1.081 -0.889,1.823 0.14,0.764 0.42,1.502 0.644,2.25 0.447,1.489 0.878,2.983 1.352,4.463 0.347,1.089 0.787,2.147 1.12,3.24 0.542,1.781 0.978,3.595 1.564,5.361 0.327,0.986 0.374,1.784 -0.207,2.746 -0.86,1.424 -1.073,3.105 -1.197,4.747 -0.166,2.186 -1.043,4.113 -2.13,5.928 -1.329,2.22 -2.87,4.311 -4.244,6.504 -1.052,1.68 -2.003,3.424 -2.966,5.158 -0.423,0.762 -0.726,1.592 -1.163,2.346 -0.171,0.294 -0.557,0.65 -0.852,0.656 -1.298,0.025 -2.46,0.447 -3.45,1.207 -0.625,0.48 -1.047,1.22 -1.575,1.832 -0.825,0.955 -1.674,1.889 -2.491,2.85 -0.521,0.614 -1.01,1.254 -1.499,1.893 -0.953,1.242 -1.751,2.542 -2.058,4.131 -0.369,1.908 -0.498,3.821 -0.538,5.756 -0.032,1.549 -0.125,3.101 -0.3,4.639 -0.278,2.449 0.116,4.862 0.378,7.267 0.268,2.468 0.809,4.915 1.662,7.261 0.682,1.878 1.436,3.734 2.244,5.562 0.526,1.188 1.15,2.341 1.828,3.45 1.291,2.114 2.94,3.94 4.91,5.432 1.868,1.416 3.913,2.538 6.237,3.023 0.679,0.141 1.173,0.32 1.437,1.07 0.334,0.943 0.834,1.829 1.282,2.729 0.831,1.671 1.962,3.173 2.425,5.051 0.388,1.575 0.695,3.144 0.649,4.751 -0.062,2.192 -0.323,4.371 -0.91,6.495 -0.258,0.936 -0.536,1.868 -0.844,2.788 -0.212,0.631 -0.506,1.235 -0.739,1.86 -0.28,0.755 -0.522,1.524 -0.806,2.278 -0.347,0.923 -0.765,1.821 -1.071,2.756 -0.482,1.474 -0.923,2.963 -1.333,4.46 -0.426,1.556 -0.85,3.118 -1.168,4.699 -0.194,0.964 -0.187,1.969 -0.276,3.016 0.219,-0.069 0.332,-0.105 0.324,-0.103 0.158,0.151 0.26,0.247 0.235,0.224 -0.177,0.729 -0.351,1.444 -0.525,2.159 -0.21,0.076 -0.377,0.23 -0.4,0.403 -0.076,0.576 -0.119,1.159 -0.142,1.741 -0.063,1.598 0.227,3.139 0.626,4.69 0.645,2.502 2.049,4.531 3.723,6.397 0.976,1.088 2.037,2.122 3.175,3.037 1.312,1.056 2.715,2.01 4.142,2.907 1.388,0.873 2.848,1.635 4.292,2.416 1.369,0.739 2.737,1.486 4.144,2.146 1.813,0.851 3.65,1.653 5.503,2.41 1.61,0.657 3.24,1.272 4.892,1.813 1.454,0.477 2.953,0.812 4.425,1.235 1.561,0.448 3.108,0.945 4.672,1.382 1.033,0.288 2.109,0.432 3.122,0.772 1.938,0.651 3.86,1.348 5.902,1.612 0.621,0.08 1.33,-0.051 1.856,0.208 0.904,0.444 1.855,0.403 2.783,0.575 1.133,0.209 2.274,0.37 3.41,0.562 1.595,0.269 3.189,0.547 4.77,0.818 0.09,-0.278 0.141,-0.439 0.135,-0.421 0.328,0.151 0.613,0.382 0.915,0.403 0.799,0.057 1.605,0.012 2.409,0.034 0.276,0.007 0.55,0.087 0.823,0.143 0.737,0.152 1.47,0.505 2.152,0.045 0.236,0.185 0.415,0.435 0.637,0.482 2.39,0.506 4.782,1.006 7.185,1.446 0.857,0.157 1.746,0.142 2.62,0.216 0.514,0.043 1.028,0.107 1.543,0.162 0.013,-0.054 0.038,-0.161 0.05,-0.212 0.142,0.127 0.259,0.323 0.398,0.341 0.587,0.073 1.181,0.1 1.772,0.127 0.21,0.009 0.427,-0.071 0.631,-0.041 0.456,0.066 0.903,0.207 1.36,0.259 0.579,0.065 1.191,-0.025 1.74,0.129 0.583,0.162 1.095,0.276 1.63,-0.182 -0.011,0.172 -0.017,0.278 -0.028,0.446 0.693,-0.363 1.53,0.439 2.038,-0.457 0.548,0.572 0.296,0.481 1.5,0.399 0.4,-0.027 0.855,-0.264 1.185,-0.14 0.867,0.329 0.981,0.352 1.267,-0.205 0.817,-0.101 1.534,-0.204 2.254,-0.274 0.484,-0.048 0.974,-0.084 1.459,-0.062 0.331,0.016 0.657,0.141 1.008,0.222 0.094,-0.08 0.218,-0.272 0.372,-0.301 0.65,-0.12 1.308,-0.196 1.964,-0.279 0.424,-0.054 0.875,-0.017 1.267,-0.155 0.753,-0.266 1.473,-0.593 2.292,-0.274 0.074,0.029 0.189,-0.056 0.288,-0.084 0.638,-0.18 1.279,-0.348 1.913,-0.542 0.218,-0.067 0.418,-0.194 0.627,-0.293 0.587,0.028 1.18,-0.044 1.769,-0.131 0.536,-0.079 1.069,-0.175 1.575,-0.259 0.531,0.486 1.126,-0.117 1.687,-0.073 0.627,0.05 1.288,-0.346 1.937,-0.543 0.567,-0.172 1.136,-0.338 1.689,-0.502 -0.031,-0.038 -0.09,-0.107 -0.159,-0.19 0.335,0.057 0.626,0.161 0.911,0.145 1.089,-0.06 2.176,-0.177 3.265,-0.241 1.106,-0.064 2.215,-0.072 3.321,-0.139 1.018,-0.062 2.037,-0.134 3.047,-0.264 1.43,-0.184 2.854,-0.412 4.276,-0.649 1.243,-0.208 2.482,-0.434 3.712,-0.698 0.389,-0.083 0.746,-0.316 1.134,-0.487 -0.014,-0.021 0.086,0.184 0.118,0.173 1.071,-0.336 2.367,0.037 3.208,-0.969 0.082,0.119 0.191,0.381 0.267,0.372 0.465,-0.055 0.923,-0.171 1.382,-0.268 0.099,-0.021 0.196,-0.064 0.296,-0.074 0.493,-0.048 0.993,-0.053 1.477,-0.141 1.101,-0.199 2.204,-0.4 3.286,-0.679 0.433,-0.112 1.032,0.031 1.244,-0.583 0.068,0.039 1.226,0.086 1.399,0.072 0.71,-0.054 1.305,-0.552 2.038,-0.524 0.037,0.001 0.075,-0.056 0.115,-0.083 0.108,-0.074 0.211,-0.182 0.331,-0.209 0.121,-0.027 0.27,0.063 0.391,0.035 0.388,-0.089 0.765,-0.227 1.154,-0.314 0.661,-0.147 1.332,-0.248 1.989,-0.408 0.912,-0.221 1.829,-0.436 2.716,-0.734 0.916,-0.308 2.029,0.131 2.797,-0.749 0.063,-0.073 0.291,-0.009 0.441,0.006 0.246,0.026 0.502,0.129 0.73,0.082 0.54,-0.111 1.066,-0.287 1.595,-0.446 0.568,-0.172 1.2,-0.251 1.68,-0.562 0.448,-0.289 1.287,0.114 1.379,-0.769 0.113,0.031 0.227,0.062 0.235,0.064 0.042,-0.342 0.08,-0.651 0.117,-0.96 0.5,0.913 0.934,1.834 1.28,2.787 0.486,1.338 0.799,2.748 1.383,4.037 0.655,1.448 1.482,2.827 2.321,4.181 1.474,2.379 3.043,4.699 4.513,7.08 1.062,1.719 2.028,3.498 3.038,5.25 0.531,0.921 1.067,1.84 1.596,2.764 0.17,0.297 0.328,0.601 0.487,0.905 0.612,1.168 1.098,2.428 1.863,3.484 1.11,1.53 2.397,2.935 3.655,4.352 0.943,1.063 1.958,2.063 2.946,3.086 0.847,0.877 1.694,1.755 2.558,2.615 0.28,0.277 0.635,0.477 0.918,0.75 0.706,0.681 1.356,1.423 2.092,2.068 1.072,0.938 2.221,1.791 3.3,2.723 0.561,0.485 1.029,1.074 1.561,1.593 0.322,0.312 0.695,0.83 1.029,0.818 0.883,-0.032 1.821,-0.001 2.638,-0.467 1.495,-0.852 2.997,-1.695 4.464,-2.592 1.005,-0.616 1.978,-1.291 2.927,-1.991 0.407,-0.3 0.885,-0.673 1.043,-1.116 0.413,-1.157 0.662,-2.372 0.988,-3.561 0.16,-0.584 0.343,-1.161 0.516,-1.741"
             style="fill:#f2f2f2;fill-opacity:1;fill-rule:nonzero;stroke:none"
             id="path3104"
             inkscape:connector-curvature="0" /></g><g
           id="g3106"
           transform="translate(120.8833,12)"><path
             d="M 0,0 C -0.01,0.02 -0.021,0.055 -0.032,0.055 -1.533,0.09 -3.035,0.126 -4.537,0.152 -5.016,0.161 -5.495,0.124 -5.973,0.143 c -0.516,0.018 -1.031,0.071 -1.546,0.121 -1.771,0.168 -3.542,0.341 -5.313,0.512 -0.952,0.092 -1.907,0.157 -2.855,0.278 -1.313,0.17 -2.622,0.387 -3.934,0.573 -1.463,0.207 -2.929,0.392 -4.391,0.603 -1.128,0.165 -2.261,0.31 -3.376,0.543 -1.898,0.396 -3.787,0.836 -5.672,1.29 -3.581,0.863 -7.172,1.691 -10.728,2.65 -1.429,0.386 -2.805,1.017 -4.156,1.642 -2.634,1.217 -5.349,2.2 -8.132,2.997 -1.368,0.391 -2.756,0.711 -4.126,1.096 -0.426,0.12 -0.836,0.325 -1.223,0.545 -0.132,0.075 -0.15,0.331 -0.258,0.476 -0.118,0.157 -0.345,0.426 -0.414,0.395 -0.605,-0.268 -0.813,0.233 -1.151,0.518 -0.342,0.289 -0.731,0.522 -1.089,0.792 -0.575,0.433 -1,1.363 -0.774,1.828 0.333,0.683 0.655,1.668 1.267,1.818 0.767,0.188 1.088,1.28 2.092,0.883 0.3,-0.118 0.765,0.269 1.144,0.245 0.958,-0.06 1.7,-0.597 2.327,-1.297 0.125,-0.138 0.217,-0.307 0.341,-0.488 0.613,0.814 1.587,1.063 2.457,1.194 0.744,0.113 1.571,-0.308 2.359,-0.502 0.225,-0.054 0.459,-0.109 0.662,-0.216 0.483,-0.258 1.052,-0.459 1.393,-0.851 0.299,-0.345 0.602,-0.222 0.902,-0.302 0.169,-0.046 0.429,0.031 0.519,-0.067 0.759,-0.831 1.66,-0.335 2.43,-0.169 0.879,0.189 1.717,0.433 2.628,0.299 0.561,-0.083 1.132,-0.093 1.699,-0.14 0.038,-0.003 0.072,-0.046 0.109,-0.067 0.656,-0.383 1.469,-0.556 1.93,-1.193 0.321,-0.441 0.729,-0.528 1.121,-0.405 1.06,0.33 2.04,-0.12 2.991,-0.35 0.585,-0.142 1.136,-0.843 1.482,-1.425 0.303,-0.509 0.585,-0.757 1.092,-0.518 0.645,0.304 1.295,0.643 1.853,1.08 1.339,1.053 2.812,1.127 4.387,0.791 0.419,-0.09 0.918,0.033 1.274,-0.148 0.677,-0.345 1.391,-0.741 1.878,-1.301 0.469,-0.539 0.975,-0.935 1.661,-0.743 0.162,0.045 0.331,0.107 0.493,0.099 1.535,-0.078 3.07,-0.16 4.603,-0.267 0.262,-0.018 0.528,-0.137 0.769,-0.256 0.993,-0.488 2.043,-0.143 3.063,-0.211 0.434,-0.029 0.916,0.315 1.316,0.223 0.908,-0.208 1.89,0.316 2.755,-0.367 0.309,-0.245 0.805,-0.265 1.223,-0.352 1.218,-0.253 2.433,-0.532 3.661,-0.716 0.944,-0.141 1.919,-0.088 2.861,-0.24 1.373,-0.221 2.818,-0.245 4.05,-0.977 0.428,-0.254 0.817,-0.441 1.275,-0.336 1.224,0.28 2.436,0.609 3.655,0.91 0.992,0.244 1.978,0.529 2.983,0.704 1.371,0.238 2.732,0.192 4.101,-0.196 0.457,-0.129 1.078,0.082 1.55,0.3 0.732,0.339 1.435,0.77 2.088,1.246 0.861,0.628 1.791,0.672 2.796,0.605 0.966,-0.064 1.9,-0.274 2.847,-0.409 1.215,-0.174 2.481,-0.28 3.688,-0.127 0.835,0.105 1.606,0.703 2.412,1.068 0.73,0.331 1.444,0.782 2.213,0.919 0.528,0.095 1.185,-0.162 1.696,-0.431 0.809,-0.424 1.649,-0.489 2.501,-0.402 0.317,0.032 0.622,0.338 0.901,0.559 0.911,0.716 1.738,1.568 2.727,2.149 1.255,0.739 2.694,1.075 4.164,0.908 0.756,-0.086 1.413,0.101 2.123,0.252 0.936,0.2 1.919,0.294 2.874,0.253 0.439,-0.018 0.949,-0.385 1.273,-0.735 0.74,-0.8 2.977,-0.333 3.332,0.715 0.332,0.976 0.971,1.163 1.982,1.018 1.14,-0.164 2.311,-0.135 3.47,-0.146 0.167,-0.001 0.342,0.227 0.504,0.362 0.955,0.789 1.883,1.613 2.869,2.362 0.513,0.391 1.08,0.204 1.602,-0.122 1.309,-0.816 1.608,-0.794 2.731,0.143 0.621,0.517 1.404,0.596 2.14,0.613 1.253,0.028 2.01,-0.884 2.312,-1.896 0.249,-0.836 0.393,-1.866 -0.102,-2.731 -0.287,-0.503 -0.686,-0.968 -1.121,-1.353 -0.642,-0.571 -1.35,-1.071 -2.05,-1.575 C 66.194,13.958 65.02,13.518 63.883,12.997 62.799,12.501 61.688,12.096 60.572,11.691 60.181,11.55 59.811,11.351 59.424,11.194 57.939,10.595 56.484,9.887 54.952,9.449 54.004,9.179 52.999,9.143 52.091,8.656 51.683,8.438 51.167,8.313 50.706,8.326 50.063,8.343 49.555,7.735 48.838,8.005 48.726,8.048 48.193,7.741 47.808,7.661 46.74,7.437 45.685,7.143 44.627,6.868 43.252,6.511 41.884,6.121 40.503,5.789 39.299,5.5 38.077,5.291 36.871,5.011 34.533,4.469 32.2,3.902 29.865,3.344 28.667,3.058 27.484,2.692 26.273,2.494 24.591,2.219 22.983,1.578 21.218,1.666 20.214,1.716 19.195,1.361 18.176,1.24 17.481,1.158 16.774,1.185 16.076,1.127 15.745,1.1 15.424,0.958 15.093,0.924 14.382,0.852 13.618,0.959 12.966,0.731 11.903,0.361 10.82,0.285 9.766,0.425 8.215,0.631 6.726,0.114 5.19,0.247 4.081,0.343 2.959,0.33 1.844,0.297 1.314,0.281 0.789,0.104 0.262,0 L 0,0 z"
             style="fill:#f2f2f2;fill-opacity:1;fill-rule:nonzero;stroke:none"
             id="path3108"
             inkscape:connector-curvature="0" /></g><g
           id="g3110"
           transform="translate(227.6328,95.8242)"><path
             d="m 0,0 c 0.268,-2.532 -0.437,-4.925 -1.133,-7.287 -0.405,-1.375 -1.285,-2.611 -2.481,-3.407 -1.249,-0.831 -2.669,-0.935 -4.162,-0.366 -1.649,0.629 -2.59,1.922 -3.486,3.284 -0.71,1.08 -1.396,2.184 -1.982,3.335 -0.501,0.984 -0.844,2.049 -1.256,3.079 -0.118,0.294 -0.203,0.603 -0.353,0.88 -0.455,0.841 -0.651,1.75 -0.783,2.687 -0.141,1.016 -0.41,2.02 -0.478,3.039 -0.115,1.728 -0.154,3.464 -0.156,5.196 -0.002,1.765 0.023,3.535 0.146,5.293 0.06,0.852 0.458,1.677 0.547,2.531 0.111,1.058 0.58,1.936 1.116,2.799 0.57,0.919 1.309,1.583 2.396,1.94 0.894,0.294 1.78,0.477 2.684,0.378 1.253,-0.139 2.579,-0.41 3.477,-1.278 0.857,-0.829 1.408,-1.986 2.048,-3.027 1.061,-1.727 1.617,-3.668 2.078,-5.61 0.401,-1.688 0.559,-3.435 0.815,-5.157 0.181,-1.224 0.36,-2.449 0.51,-3.677 C -0.336,3.67 -0.269,2.702 -0.176,1.738 -0.12,1.158 -0.059,0.579 0,0"
             style="fill:#f2f2f2;fill-opacity:1;fill-rule:nonzero;stroke:none"
             id="path3112"
             inkscape:connector-curvature="0" /></g><g
           id="g3114"
           transform="translate(38.3896,108.585)"><path
             d="M 0,0 C -0.109,-1.532 -0.227,-3.064 -0.322,-4.599 -0.365,-5.28 -0.374,-5.966 -0.38,-6.65 c -0.02,-2.136 -0.412,-4.213 -0.878,-6.293 -0.474,-2.12 -1.299,-4.096 -2.201,-6.046 -0.424,-0.915 -0.922,-1.806 -1.473,-2.651 -0.632,-0.969 -3.158,-4.074 -4.379,-4.765 -1.484,-0.841 -3.071,-0.57 -4.192,0.617 -0.758,0.802 -1.013,1.766 -1.289,2.761 -0.299,1.08 -0.655,2.144 -0.964,3.221 -0.126,0.44 -0.224,0.893 -0.281,1.346 -0.167,1.351 -0.359,2.702 -0.445,4.06 -0.098,1.546 -0.209,3.096 0.09,4.649 0.13,0.676 -0.025,1.403 0.073,2.091 0.109,0.764 0.363,1.509 0.544,2.264 0.263,1.108 0.485,2.226 0.785,3.324 0.235,0.856 0.563,1.688 0.846,2.532 0.352,1.046 0.617,2.131 1.069,3.131 0.618,1.368 1.66,2.449 2.785,3.42 0.723,0.623 1.486,1.23 2.321,1.678 0.429,0.23 0.923,0.756 1.617,0.159 C -5.789,8.363 -4.949,8.219 -4.297,7.816 -3.836,7.532 -3.496,7.058 -3.083,6.689 -2.055,5.772 -1.276,4.675 -0.734,3.415 -0.267,2.328 0.08,1.207 0,0"
             style="fill:#f2f2f2;fill-opacity:1;fill-rule:nonzero;stroke:none"
             id="path3116"
             inkscape:connector-curvature="0" /></g></g></g></g></svg>