<?xml version="1.0" encoding="UTF-8" standalone="no"?>
<!-- Created with Inkscape (http://www.inkscape.org/) -->

<svg
   xmlns:dc="http://purl.org/dc/elements/1.1/"
   xmlns:cc="http://creativecommons.org/ns#"
   xmlns:rdf="http://www.w3.org/1999/02/22-rdf-syntax-ns#"
   xmlns:svg="http://www.w3.org/2000/svg"
   xmlns="http://www.w3.org/2000/svg"
   xmlns:sodipodi="http://sodipodi.sourceforge.net/DTD/sodipodi-0.dtd"
   xmlns:inkscape="http://www.inkscape.org/namespaces/inkscape"
   id="svg3004"
   version="1.1"
   inkscape:version="0.48.5 r10040"
   width="256"
   height="256"
   xml:space="preserve"
   sodipodi:docname="Dungeon Crawl Stone Soup.svg"
   inkscape:export-filename="/Volumes/Verbatim16/GitHub Projects/baxy-retroarch-themes/monochrome plus/contributions/svg/Dungeon Crawl Stone Soup.png"
   inkscape:export-xdpi="90.099998"
   inkscape:export-ydpi="90.099998"><metadata
     id="metadata3010"><rdf:RDF><cc:Work
         rdf:about=""><dc:format>image/svg+xml</dc:format><dc:type
           rdf:resource="http://purl.org/dc/dcmitype/StillImage" /><dc:title></dc:title></cc:Work></rdf:RDF></metadata><defs
     id="defs3008"><clipPath
       clipPathUnits="userSpaceOnUse"
       id="clipPath3018"><path
         d="M 0,256 256,256 256,0 0,0 0,256 z"
         id="path3020"
         inkscape:connector-curvature="0" /></clipPath></defs><sodipodi:namedview
     pagecolor="#ffffff"
     bordercolor="#666666"
     borderopacity="1"
     objecttolerance="10"
     gridtolerance="10"
     guidetolerance="10"
     inkscape:pageopacity="0"
     inkscape:pageshadow="2"
     inkscape:window-width="1676"
     inkscape:window-height="1005"
     id="namedview3006"
     showgrid="false"
     inkscape:zoom="2.61875"
     inkscape:cx="205.82339"
     inkscape:cy="221.09785"
     inkscape:window-x="4"
     inkscape:window-y="1"
     inkscape:window-maximized="1"
     inkscape:current-layer="g3012" /><g
     id="g3012"
     inkscape:groupmode="layer"
     inkscape:label="Dungeon Crawl Stone Soup"
     transform="matrix(1.25,0,0,-1.25,0,256)"><g
       id="g3014"
       transform="matrix(0.8,0,0,0.8,-4e-4,-8e-5)"><g
         id="g3016"
         clip-path="url(#clipPath3018)"><g
           id="g3022"
           transform="translate(38.0674,103.9863)"><path
             d="m 0,0 c -0.043,-0.682 -0.051,-1.367 -0.058,-2.052 -0.02,-2.135 -0.412,-4.213 -0.878,-6.293 -0.474,-2.12 -1.299,-4.095 -2.201,-6.046 -0.424,-0.915 -0.922,-1.805 -1.472,-2.65 -0.633,-0.97 -3.159,-4.074 -4.379,-4.766 -1.485,-0.84 -3.072,-0.569 -4.193,0.618 -0.757,0.801 -1.013,1.765 -1.289,2.76 -0.299,1.08 -0.655,2.145 -0.964,3.222 -0.126,0.439 -0.224,0.893 -0.28,1.346 -0.168,1.35 -0.36,2.702 -0.446,4.059 -0.097,1.547 -0.209,3.097 0.09,4.65 0.131,0.675 -0.024,1.403 0.073,2.09 0.109,0.765 0.364,1.509 0.544,2.265 0.264,1.108 0.485,2.226 0.786,3.323 0.234,0.857 0.563,1.689 0.846,2.533 0.351,1.045 0.616,2.13 1.068,3.13 0.619,1.369 1.661,2.45 2.786,3.42 0.722,0.623 1.486,1.231 2.32,1.679 0.429,0.23 0.923,0.756 1.618,0.158 0.562,-0.484 1.403,-0.629 2.054,-1.031 0.461,-0.284 0.801,-0.759 1.214,-1.127 1.029,-0.917 1.807,-2.015 2.349,-3.274 C 0.056,6.927 0.402,5.806 0.322,4.599 0.213,3.066 0.096,1.534 0,0 M 5.755,4.257 C 5.578,5.329 5.393,6.401 5.259,7.479 5.083,8.901 4.73,10.253 4.189,11.594 c -0.617,1.531 -1.378,2.962 -2.277,4.332 -1.56,2.377 -3.961,3.606 -6.451,4.704 -0.181,0.08 -0.447,0.046 -0.65,-0.015 -1.816,-0.538 -3.478,-1.385 -5.103,-2.367 -1.921,-1.16 -3.404,-2.732 -4.693,-4.503 -1.932,-2.656 -3.036,-5.736 -4.178,-8.771 -0.636,-1.689 -1.088,-3.465 -1.441,-5.238 -0.321,-1.621 -0.444,-3.287 -0.568,-4.94 -0.127,-1.692 -0.247,-3.395 -0.194,-5.088 0.069,-2.19 0.302,-4.377 0.483,-6.563 0.099,-1.207 0.168,-2.436 0.771,-3.522 0.38,-0.685 0.853,-1.321 1.306,-1.965 0.656,-0.93 1.313,-1.863 2.006,-2.766 0.599,-0.782 1.315,-1.48 1.857,-2.296 0.698,-1.05 1.657,-1.605 2.848,-1.803 0.417,-0.069 0.919,-0.157 1.091,0.478 0.034,0.125 0.248,0.231 0.4,0.289 1.054,0.4 2.112,0.792 3.174,1.171 0.479,0.171 0.981,0.282 1.454,0.467 1.105,0.437 2.125,1.002 2.936,1.908 1.105,1.234 2.296,2.396 3.342,3.675 0.634,0.776 1.062,1.717 1.59,2.58 0.155,0.255 0.393,0.474 0.491,0.746 0.442,1.229 0.838,2.474 1.266,3.708 0.349,1.003 0.762,1.986 1.067,3 0.229,0.761 0.308,1.566 0.498,2.34 0.222,0.906 0.509,1.794 0.735,2.698 0.109,0.435 0.159,0.888 0.21,1.336 0.113,0.989 0.26,1.977 0.295,2.969 0.024,0.675 -0.12,1.356 -0.188,2.034 C 6.325,0.2 6.384,0.208 6.443,0.216 6.213,1.562 5.977,2.909 5.755,4.257"
             style="fill:#f2f2f2;fill-opacity:1;fill-rule:nonzero;stroke:none"
             id="path3024"
             inkscape:connector-curvature="0" /></g><g
           id="g3026"
           transform="translate(185.1777,173.9468)"><path
             d="M 0,0 C 0.513,1.374 1.014,2.751 1.533,4.123 1.744,4.68 2.002,5.221 2.214,5.778 2.28,5.95 2.267,6.152 2.291,6.354 1.979,6.32 1.782,6.24 1.63,6.292 0.627,6.633 -0.389,6.953 -1.359,7.375 c -1.523,0.664 -3.062,1.223 -4.726,1.426 -0.928,0.113 -1.842,0.34 -2.762,0.519 -0.176,0.034 -0.349,0.112 -0.527,0.122 -0.537,0.031 -1.08,0 -1.612,0.066 -0.457,0.058 -0.898,0.282 -1.354,0.318 -1.088,0.085 -2.181,0.101 -3.272,0.15 -0.081,0.003 -0.158,0.058 -0.24,0.071 -0.899,0.141 -1.799,0.281 -2.7,0.415 -0.112,0.017 -0.231,-0.018 -0.343,10e-4 -0.783,0.132 -1.561,0.305 -2.349,0.402 -1.217,0.15 -2.443,0.237 -3.66,0.377 -0.63,0.072 -1.256,0.188 -1.878,0.311 -0.682,0.135 -1.355,0.312 -2.036,0.448 -1.094,0.221 -2.186,0.46 -3.288,0.623 -1.045,0.154 -2.105,0.211 -3.156,0.328 -1.161,0.129 -2.317,0.311 -3.48,0.41 -1.503,0.128 -3.033,0.075 -4.512,0.327 -1.48,0.253 -2.946,0.25 -4.42,0.2 -1.422,-0.049 -2.812,0.314 -4.244,0.189 -0.705,-0.062 -1.435,0.241 -2.156,0.268 -1.745,0.064 -3.492,0.053 -5.238,0.09 -1.275,0.026 -2.549,0.086 -3.824,0.119 -0.654,0.016 -1.309,0.002 -1.964,0.002 -0.661,10e-4 -1.363,-0.138 -1.973,0.039 -0.637,0.184 -1.181,-0.116 -1.777,-0.055 -0.676,0.069 -1.366,0.045 -2.047,0.007 -1.082,-0.061 -2.161,-0.159 -3.24,-0.255 -0.92,-0.082 -1.87,-0.067 -2.75,-0.303 -1.62,-0.435 -3.28,-0.393 -4.916,-0.607 -0.498,-0.065 -1.01,-0.028 -1.505,-0.103 -1.079,-0.163 -2.148,-0.39 -3.227,-0.548 -0.406,-0.059 -0.843,0.067 -1.243,-0.009 -0.955,-0.181 -1.889,-0.473 -2.845,-0.646 -1.41,-0.256 -2.836,-0.421 -4.246,-0.675 -1.511,-0.272 -3.012,-0.6 -4.516,-0.908 -1.502,-0.309 -3.011,-0.587 -4.501,-0.948 -1.58,-0.381 -3.138,-0.855 -4.711,-1.271 -2.049,-0.541 -4.11,-1.045 -6.155,-1.604 -0.899,-0.246 -1.784,-0.557 -2.656,-0.891 -1.585,-0.607 -3.149,-1.271 -4.734,-1.88 -2.043,-0.784 -4.107,-1.514 -6.144,-2.313 -1.36,-0.532 -2.679,-1.166 -4.034,-1.712 -1.159,-0.466 -2.348,-0.86 -3.514,-1.31 -0.658,-0.254 -1.326,-0.505 -1.939,-0.847 -1.15,-0.643 -2.258,-1.362 -3.396,-2.028 -0.698,-0.409 -1.424,-0.769 -2.127,-1.168 -0.357,-0.202 -0.534,-0.362 -0.034,-0.71 0.949,-0.663 1.819,-1.437 2.733,-2.151 1.03,-0.805 2.002,-1.714 3.121,-2.367 2.117,-1.234 4.301,-2.36 6.496,-3.452 1.808,-0.9 3.641,-1.77 5.523,-2.495 1.543,-0.594 3.173,-0.962 4.769,-1.417 1.021,-0.291 2.065,-0.514 3.074,-0.847 1.536,-0.506 3.039,-1.116 4.576,-1.618 1.598,-0.523 3.234,-0.927 4.827,-1.461 2.466,-0.825 4.988,-1.346 7.574,-1.576 1.521,-0.136 3.041,-0.336 4.564,-0.37 1.789,-0.039 3.557,-0.205 5.337,-0.376 2.956,-0.283 5.938,-0.283 8.906,-0.445 1.318,-0.071 2.63,-0.246 3.945,-0.377 0.653,-0.064 1.304,-0.172 1.959,-0.193 1.082,-0.035 2.167,-0.009 3.25,-0.019 1.589,-0.014 3.178,-0.061 4.767,-0.049 1.438,0.01 2.875,0.1 4.313,0.115 0.691,0.007 1.39,-0.164 2.072,-0.104 1.951,0.173 3.894,0.429 5.842,0.637 0.373,0.04 0.753,0.012 1.13,0.017 1.506,0.019 3.012,0.053 4.518,0.052 1.238,-10e-4 2.475,-0.07 3.713,-0.06 1.505,0.014 3.013,0.178 4.509,0.088 1.1,-0.066 2.177,-0.121 3.271,0.024 0.638,0.085 1.288,0.075 1.932,0.117 1.121,0.073 2.252,0.085 3.36,0.245 1.345,0.194 2.674,0.499 4.003,0.785 1.064,0.23 2.134,0.457 3.175,0.772 1.199,0.362 2.348,0.903 3.557,1.218 2.235,0.582 4.503,0.974 6.806,1.249 1.73,0.208 3.406,0.844 5.117,1.246 1.824,0.427 3.673,0.759 5.49,1.214 1.754,0.439 3.494,0.946 5.218,1.488 2.026,0.636 4.041,1.31 6.037,2.032 1.441,0.521 2.856,1.12 4.258,1.737 1.172,0.515 2.317,1.092 3.459,1.67 1.131,0.571 2.358,0.995 3.247,1.96 0.638,0.692 1.229,1.424 0.94,2.477 -0.263,0.956 -0.739,1.747 -1.728,2.248 -0.087,-0.373 -0.145,-0.682 -0.231,-0.983 -0.286,-1.002 -0.621,-1.841 -1.829,-2.22 -1.491,-0.469 -2.895,-1.227 -4.305,-1.921 -1.133,-0.558 -2.183,-1.298 -3.48,-1.457 -0.133,-0.017 -0.271,-0.002 -0.408,-0.005 -1.075,-0.022 -1.946,0.388 -2.806,1.047 -1.098,0.839 -2.262,1.6 -3.038,2.761 -0.948,1.419 -1.546,2.969 -1.07,4.712 0.21,0.766 0.559,1.493 0.837,2.24"
             style="fill:#f2f2f2;fill-opacity:1;fill-rule:nonzero;stroke:none"
             id="path3028"
             inkscape:connector-curvature="0" /></g><g
           id="g3030"
           transform="translate(211.5088,111.5576)"><path
             d="m 0,0 c 0.06,0.852 0.458,1.677 0.547,2.53 0.111,1.059 0.58,1.937 1.116,2.8 0.57,0.919 1.309,1.583 2.396,1.94 0.894,0.293 1.78,0.477 2.684,0.377 1.253,-0.138 2.579,-0.41 3.477,-1.278 0.857,-0.828 1.408,-1.985 2.048,-3.026 1.061,-1.728 1.617,-3.668 2.079,-5.611 0.4,-1.687 0.558,-3.434 0.814,-5.157 0.181,-1.223 0.36,-2.449 0.51,-3.677 0.117,-0.961 0.184,-1.929 0.277,-2.893 0.056,-0.58 0.117,-1.159 0.176,-1.738 0.268,-2.533 -0.436,-4.925 -1.133,-7.288 -0.405,-1.375 -1.285,-2.611 -2.481,-3.407 -1.249,-0.831 -2.669,-0.934 -4.163,-0.365 -1.648,0.629 -2.589,1.921 -3.485,3.283 -0.71,1.08 -1.396,2.185 -1.982,3.335 -0.501,0.985 -0.844,2.05 -1.256,3.079 -0.118,0.294 -0.203,0.604 -0.353,0.88 -0.455,0.842 -0.651,1.75 -0.783,2.688 -0.141,1.015 -0.41,2.019 -0.478,3.039 -0.115,1.727 -0.154,3.464 -0.156,5.196 C -0.148,-3.528 -0.123,-1.759 0,0 m -6.27,-0.969 c -0.276,-1.079 -0.237,-2.246 -0.285,-3.375 -0.044,-1.024 -0.01,-2.052 -0.008,-3.079 10e-4,-1.408 0.214,-2.784 0.65,-4.126 0.295,-0.909 0.58,-1.823 0.867,-2.735 0.479,-1.521 0.89,-3.066 1.452,-4.554 0.413,-1.092 1.014,-2.113 1.549,-3.157 0.388,-0.759 0.787,-1.512 1.215,-2.248 0.379,-0.65 0.769,-1.298 1.217,-1.902 0.767,-1.036 1.517,-2.098 2.396,-3.036 0.902,-0.96 1.97,-1.76 2.926,-2.673 1.275,-1.217 2.731,-2.163 4.297,-2.948 0.714,-0.359 1.456,-0.661 2.348,-1.062 0.33,0.201 0.891,0.503 1.406,0.87 0.881,0.628 1.733,1.297 2.598,1.947 0.87,0.654 1.229,1.757 2.117,2.405 0.16,0.118 0.194,0.416 0.272,0.636 0.048,0.136 0.037,0.298 0.105,0.419 0.487,0.875 1.019,1.726 1.477,2.616 0.585,1.139 1.098,2.315 1.668,3.462 0.849,1.705 1.273,3.534 1.544,5.398 0.132,0.903 0.109,1.828 0.155,2.744 0.025,0.489 0.129,0.992 0.051,1.465 -0.195,1.191 -0.516,2.362 -0.709,3.553 -0.267,1.643 -0.476,3.297 -1.219,4.81 -0.651,1.323 -1.38,2.608 -2.02,3.935 -0.67,1.387 -1.254,2.816 -1.919,4.206 -0.373,0.781 -0.94,1.481 -1.236,2.285 -0.589,1.596 -1.544,2.97 -2.498,4.335 -0.721,1.03 -1.437,2.071 -2.562,2.799 C 10.517,12.712 9.669,13.733 8.63,14.476 7.599,15.212 6.448,15.781 5.388,16.402 4.187,15.558 3.099,14.789 2.006,14.024 -0.088,12.561 -1.713,10.728 -2.977,8.47 -4.64,5.498 -5.443,2.265 -6.27,-0.969"
             style="fill:#f2f2f2;fill-opacity:1;fill-rule:nonzero;stroke:none"
             id="path3032"
             inkscape:connector-curvature="0" /></g><g
           id="g3034"
           transform="translate(213.3262,162.5645)"><path
             d="m 0,0 c 0.771,0.714 1.624,1.359 2.289,2.161 0.691,0.834 1.154,1.855 1.803,2.731 0.732,0.99 0.41,2.135 0.553,3.196 0.408,3.028 -0.649,5.788 -1.902,8.457 -0.66,1.406 -1.584,2.667 -2.686,3.78 -0.344,0.348 -0.641,0.745 -1.005,1.067 -0.426,0.377 -0.906,0.69 -1.354,1.042 -0.446,0.35 -0.883,0.714 -1.424,1.153 -1.041,-2.091 -2.083,-4.185 -3.104,-6.239 0.498,-0.575 1.154,-1.096 1.492,-1.774 0.665,-1.338 1.176,-2.754 1.703,-4.156 0.197,-0.522 0.294,-1.087 0.379,-1.642 C -2.934,7.694 -3.925,5.939 -4.687,4.127 -4.959,3.482 -5.47,3.063 -5.935,2.572 -6.294,2.193 -6.686,2.031 -7.105,1.821 -7.461,1.642 -7.932,1.461 -8.083,1.15 -8.582,0.126 -9.507,-0.466 -10.37,-1.002 c -1.162,-0.722 -2.419,-1.33 -3.725,-1.818 -1.087,-0.406 -2.1,-1.003 -3.155,-1.499 -1.017,-0.477 -2.037,-0.948 -3.069,-1.389 -0.304,-0.129 -0.668,-0.112 -0.984,-0.225 -0.775,-0.276 -1.538,-0.587 -2.305,-0.887 -1.394,-0.546 -2.916,-0.58 -4.316,-1.161 -1.142,-0.476 -2.38,-0.726 -3.58,-1.061 -0.919,-0.257 -1.841,-0.505 -2.768,-0.728 -1.313,-0.315 -2.657,-0.524 -3.943,-0.921 -1.881,-0.581 -3.801,-0.945 -5.734,-1.261 -1.379,-0.225 -2.78,-0.344 -4.139,-0.656 -1.361,-0.312 -2.683,-0.801 -4.02,-1.22 -0.721,-0.226 -1.426,-0.518 -2.16,-0.692 -1.366,-0.326 -2.757,-0.551 -4.122,-0.885 -1.909,-0.467 -3.847,-0.791 -5.798,-0.896 -2.258,-0.12 -4.529,-0.01 -6.793,-0.026 -1.135,-0.007 -2.27,-0.118 -3.404,-0.105 -1.361,0.017 -2.722,0.157 -4.085,0.166 -1.3,0.01 -2.601,-0.064 -3.901,-0.13 -1.425,-0.073 -2.85,-0.159 -4.272,-0.277 -1.095,-0.091 -2.183,-0.303 -3.279,-0.346 -1.37,-0.052 -2.744,0.027 -4.116,0.026 -1.376,0 -2.751,-0.046 -4.127,-0.041 -0.821,0.003 -1.664,0.196 -2.46,0.068 -1.428,-0.228 -2.846,-0.113 -4.262,-0.056 -0.89,0.035 -1.765,0.374 -2.658,0.468 -0.823,0.087 -1.663,-0.008 -2.492,0.043 -1.703,0.106 -3.402,0.269 -5.106,0.384 -0.916,0.061 -1.836,0.062 -2.753,0.106 -2.214,0.104 -4.396,0.535 -6.634,0.458 -1.45,-0.051 -2.913,0.226 -4.368,0.374 -1.122,0.113 -2.275,0.126 -3.352,0.415 -1.249,0.334 -2.554,0.44 -3.759,0.985 -0.69,0.313 -1.49,0.376 -2.228,0.595 -1.164,0.343 -2.321,0.71 -3.472,1.092 -1.035,0.343 -2.062,0.712 -3.087,1.082 -0.696,0.252 -1.366,0.673 -2.08,0.764 -1.971,0.252 -3.878,0.768 -5.732,1.408 -1.982,0.684 -3.899,1.577 -5.798,2.476 -1.947,0.921 -3.832,1.974 -5.757,2.942 -1.349,0.68 -2.699,1.328 -3.875,2.32 -1.913,1.611 -3.91,3.123 -5.836,4.72 -0.431,0.358 -0.65,0.971 -1.079,1.334 -0.776,0.658 -0.276,1.926 -1.251,2.46 -0.063,0.034 -0.05,0.249 -0.036,0.376 0.146,1.296 0.037,2.635 0.582,3.865 0.528,1.188 1.167,2.334 1.613,3.551 0.538,1.469 1.447,2.703 2.501,3.757 1.771,1.771 3.691,3.399 5.878,4.671 0.685,0.398 1.33,0.863 2.009,1.271 0.62,0.371 1.256,0.716 1.895,1.054 1.337,0.706 2.658,1.451 4.029,2.085 1.542,0.714 3.132,1.326 4.704,1.975 1.476,0.609 2.921,1.324 4.443,1.783 1.885,0.569 3.843,0.891 5.755,1.376 1.885,0.478 3.747,1.049 5.629,1.539 2.695,0.7 5.41,1.328 8.097,2.055 2.152,0.582 4.325,1.047 6.529,1.357 1.933,0.273 3.869,0.531 5.81,0.734 1.329,0.138 2.669,0.166 4.004,0.251 0.549,0.036 1.095,0.099 1.642,0.143 2.433,0.195 4.865,0.466 7.302,0.555 1.62,0.059 3.25,-0.139 4.874,-0.231 1.434,-0.082 2.867,-0.179 4.3,-0.264 1.532,-0.091 3.063,-0.184 4.596,-0.262 1.896,-0.096 3.794,-0.173 5.691,-0.268 0.275,-0.013 0.546,-0.098 0.821,-0.113 0.896,-0.05 1.798,-0.041 2.689,-0.134 0.869,-0.09 1.724,-0.311 2.592,-0.411 1.037,-0.12 2.083,-0.159 3.122,-0.262 0.399,-0.04 0.786,-0.218 1.182,-0.23 1.172,-0.036 2.345,-0.014 3.516,-0.032 0.181,-0.003 0.361,-0.148 0.539,-0.143 0.5,0.016 1.048,0.228 1.486,0.084 0.801,-0.264 1.585,-0.251 2.397,-0.259 1.485,-0.015 2.938,-0.376 4.418,-0.459 0.621,-0.035 1.25,0.011 1.865,-0.067 0.904,-0.113 1.795,-0.327 2.699,-0.456 1.386,-0.199 2.79,-0.3 4.164,-0.557 1.502,-0.281 3.013,-0.359 4.527,-0.454 1.361,-0.085 2.724,-0.151 4.074,-0.323 1.3,-0.166 2.584,-0.462 3.877,-0.69 1.06,-0.188 2.126,-0.34 3.183,-0.541 1.14,-0.216 2.267,-0.493 3.407,-0.702 1.565,-0.286 3.146,-0.49 4.703,-0.811 1.18,-0.244 2.338,-0.602 3.499,-0.935 0.797,-0.228 1.574,-0.531 2.374,-0.744 0.939,-0.25 1.892,-0.449 2.844,-0.647 0.353,-0.074 0.767,-0.186 0.953,0.286 0.229,0.575 0.423,1.165 0.651,1.802 -0.15,-0.045 -0.319,-0.046 -0.412,-0.131 -0.549,-0.507 -1.219,-0.313 -1.7,-0.077 -1.745,0.857 -3.651,1.055 -5.497,1.486 -1.484,0.347 -3.012,0.504 -4.504,0.824 -1.441,0.309 -2.812,0.875 -4.256,1.208 -1.167,0.268 -2.283,0.73 -3.499,0.835 -0.489,0.042 -0.954,0.312 -1.442,0.423 -0.673,0.153 -1.354,0.274 -2.038,0.37 -0.306,0.043 -0.637,-0.067 -0.933,-0.002 -0.702,0.155 -1.382,0.401 -2.084,0.557 -0.406,0.091 -0.84,0.048 -1.254,0.117 -0.678,0.113 -1.346,0.288 -2.026,0.4 -0.703,0.116 -1.424,0.141 -2.119,0.292 -0.725,0.157 -1.414,0.477 -2.141,0.618 -1.485,0.29 -2.983,0.518 -4.479,0.752 -1.154,0.181 -2.306,0.401 -3.468,0.481 -1.4,0.097 -2.811,0.041 -4.216,0.1 -0.803,0.034 -1.616,0.102 -2.4,0.27 -0.768,0.164 -1.649,-0.094 -2.298,0.562 -0.023,0.024 -0.109,-0.026 -0.161,-0.017 -0.506,0.09 -1.027,0.131 -1.512,0.289 -0.769,0.252 -1.574,0.313 -2.352,0.599 -0.814,0.299 -1.787,0.138 -2.678,0.263 -1.541,0.216 -3.07,0.52 -4.611,0.745 -1.035,0.151 -2.081,0.224 -3.121,0.342 -0.825,0.093 -1.585,0.444 -2.469,0.403 -0.84,-0.038 -1.692,0.356 -2.55,0.451 -1.281,0.143 -2.573,0.189 -3.86,0.28 -0.207,0.015 -0.412,0.082 -0.615,0.073 -1.268,-0.059 -2.535,-0.121 -3.801,-0.205 -1.061,-0.07 -2.119,-0.177 -3.179,-0.255 -0.327,-0.024 -0.659,0.006 -0.988,-0.014 -0.517,-0.032 -1.036,-0.063 -1.547,-0.135 -0.292,-0.042 -0.567,-0.213 -0.859,-0.244 -1.361,-0.15 -2.733,-0.218 -4.087,-0.416 -1.523,-0.223 -3.032,-0.544 -4.544,-0.843 -1.12,-0.222 -2.229,-0.506 -3.353,-0.706 -0.789,-0.14 -1.598,-0.173 -2.395,-0.277 -0.412,-0.054 -0.816,-0.209 -1.228,-0.23 -0.768,-0.04 -1.543,0.025 -2.308,-0.031 -0.546,-0.041 -1.079,-0.235 -1.624,-0.317 -0.866,-0.131 -1.738,-0.215 -2.605,-0.338 -1.104,-0.157 -2.199,-0.338 -3.317,-0.426 -1.355,-0.106 -2.693,-0.46 -4.035,-0.722 -0.348,-0.068 -0.687,-0.276 -1.029,-0.274 -1.317,0.007 -2.508,-0.493 -3.734,-0.851 -0.975,-0.285 -1.931,-0.637 -2.908,-0.917 -0.716,-0.205 -1.458,-0.316 -2.176,-0.514 -1.476,-0.407 -2.945,-0.84 -4.415,-1.267 -0.587,-0.171 -1.169,-0.36 -1.757,-0.528 -1.748,-0.498 -3.527,-0.905 -5.239,-1.506 -1.787,-0.627 -3.512,-1.432 -5.259,-2.172 -0.684,-0.289 -1.348,-0.624 -2.028,-0.919 -0.599,-0.26 -1.227,-0.458 -1.809,-0.75 -0.984,-0.493 -1.941,-1.039 -2.909,-1.563 -1.226,-0.665 -2.465,-1.306 -3.671,-2.004 -0.836,-0.485 -1.636,-1.034 -2.436,-1.579 -1.415,-0.963 -2.897,-1.845 -3.963,-3.238 -0.244,-0.319 -0.49,-0.638 -0.757,-0.937 -0.815,-0.91 -1.746,-1.739 -2.429,-2.738 -0.556,-0.811 -1.162,-1.659 -1.183,-2.764 -0.012,-0.55 -0.323,-1.088 -0.462,-1.641 -0.411,-1.638 -0.267,-3.287 0.031,-4.912 0.281,-1.532 0.688,-3.041 1.053,-4.556 0.028,-0.119 0.157,-0.213 0.336,-0.441 0.027,0.411 0.044,0.662 0.067,1.007 0.246,-0.299 0.468,-0.519 0.634,-0.777 0.533,-0.83 0.963,-1.742 1.585,-2.498 1.36,-1.656 2.97,-3.032 4.811,-4.165 1.216,-0.749 2.268,-1.762 3.465,-2.549 1.168,-0.769 2.404,-1.445 3.651,-2.083 1.41,-0.72 2.852,-1.382 4.304,-2.014 1.054,-0.458 2.142,-0.84 3.222,-1.233 1.302,-0.475 2.602,-0.957 3.922,-1.377 1.167,-0.372 2.358,-0.673 3.543,-0.988 1.633,-0.435 3.256,-0.928 4.911,-1.259 2.122,-0.423 4.273,-0.699 6.408,-1.057 1.875,-0.315 3.752,-0.622 5.616,-0.996 1.606,-0.321 3.191,-0.75 4.792,-1.099 1.567,-0.341 3.181,-0.519 4.705,-0.994 1.614,-0.504 3.258,-0.521 4.896,-0.708 1.004,-0.116 2.013,-0.195 3.014,-0.338 1.157,-0.166 2.302,-0.417 3.46,-0.572 1.537,-0.206 3.082,-0.348 4.621,-0.53 1.4,-0.166 2.797,-0.35 4.195,-0.526 1.907,-0.239 3.808,-0.616 5.721,-0.686 2.597,-0.094 5.204,-0.005 7.803,0.105 1.742,0.075 3.479,0.301 5.214,0.499 1.539,0.176 3.094,0.303 4.601,0.637 2.906,0.644 5.856,0.696 8.8,0.901 1.863,0.13 3.715,0.426 5.575,0.617 0.81,0.083 1.654,0.236 2.435,0.093 0.855,-0.158 1.703,-0.536 2.471,-0.967 1.927,-1.082 3.753,-2.274 4.725,-4.427 0.562,-1.244 0.931,-2.499 0.863,-3.858 -0.032,-0.661 -0.218,-1.316 -0.239,-1.976 -0.04,-1.265 0.013,-2.533 -0.019,-3.799 -0.028,-1.129 0.198,-2.098 1.058,-2.942 1.002,-0.982 2.123,-1.655 3.518,-1.597 0.922,0.04 1.834,0.347 2.746,0.552 1.9,0.428 2.813,1.738 3.167,3.556 0.242,1.243 0.518,2.479 0.764,3.721 0.038,0.187 0.033,0.399 -0.013,0.585 -0.242,0.957 -0.527,1.903 -0.753,2.863 -0.28,1.195 -0.571,2.392 -0.763,3.603 -0.233,1.468 -0.582,2.955 -0.146,4.437 0.288,0.98 0.472,2.11 1.812,2.253 0.414,0.044 0.85,-0.062 1.254,0.015 1.265,0.241 2.53,0.492 3.772,0.828 0.694,0.187 1.329,0.583 2.011,0.825 1.539,0.544 3.093,1.049 4.639,1.574 1.068,0.363 2.115,0.802 3.204,1.085 1.771,0.46 3.579,0.777 5.351,1.238 1.371,0.356 2.712,0.831 4.06,1.271 1.266,0.412 2.527,0.839 3.784,1.276 1.282,0.445 2.582,0.851 3.826,1.384 1.397,0.598 2.746,1.309 4.105,1.992 0.453,0.227 0.89,0.494 1.308,0.781 1.222,0.839 2.414,1.726 3.652,2.542 1.255,0.826 2.552,1.589 3.829,2.382 C -0.077,-0.1 -0.044,-0.041 0,0"
             style="fill:#f2f2f2;fill-opacity:1;fill-rule:nonzero;stroke:none"
             id="path3036"
             inkscape:connector-curvature="0" /></g><g
           id="g3038"
           transform="translate(191.2715,29.6211)"><path
             d="m 0,0 c -0.287,-0.503 -0.687,-0.968 -1.121,-1.354 -0.643,-0.57 -1.351,-1.07 -2.05,-1.574 -1.023,-0.735 -2.197,-1.176 -3.334,-1.696 -1.084,-0.496 -2.195,-0.901 -3.311,-1.306 -0.391,-0.141 -0.761,-0.341 -1.148,-0.497 -1.485,-0.599 -2.94,-1.307 -4.473,-1.745 -0.947,-0.269 -1.952,-0.307 -2.86,-0.793 -0.408,-0.219 -0.924,-0.343 -1.386,-0.33 -0.642,0.017 -1.15,-0.591 -1.867,-0.321 -0.112,0.043 -0.645,-0.264 -1.03,-0.344 -1.068,-0.224 -2.123,-0.519 -3.181,-0.793 -1.375,-0.357 -2.743,-0.747 -4.124,-1.079 -1.204,-0.289 -2.427,-0.498 -3.633,-0.778 -2.337,-0.542 -4.67,-1.109 -7.005,-1.667 -1.198,-0.286 -2.381,-0.652 -3.592,-0.85 -1.682,-0.275 -3.29,-0.916 -5.055,-0.828 -1.004,0.05 -2.023,-0.305 -3.042,-0.426 -0.695,-0.082 -1.402,-0.056 -2.101,-0.113 -0.331,-0.027 -0.651,-0.169 -0.982,-0.203 -0.711,-0.073 -1.476,0.035 -2.127,-0.193 -1.063,-0.37 -2.146,-0.446 -3.2,-0.306 -1.551,0.206 -3.041,-0.311 -4.576,-0.178 -1.109,0.096 -2.232,0.083 -3.346,0.05 -0.53,-0.016 -1.055,-0.193 -1.582,-0.297 l -0.262,0 c -0.01,0.019 -0.021,0.055 -0.032,0.055 -1.501,0.035 -3.003,0.071 -4.505,0.097 -0.479,0.009 -0.958,-0.028 -1.436,-0.01 -0.516,0.019 -1.032,0.072 -1.546,0.122 -1.771,0.168 -3.542,0.341 -5.313,0.512 -0.952,0.092 -1.907,0.157 -2.855,0.279 -1.314,0.169 -2.622,0.386 -3.934,0.572 -1.463,0.207 -2.929,0.391 -4.391,0.603 -1.128,0.164 -2.262,0.31 -3.376,0.543 -1.898,0.396 -3.787,0.836 -5.672,1.29 -3.581,0.863 -7.172,1.691 -10.728,2.65 -1.429,0.386 -2.805,1.017 -4.157,1.642 -2.633,1.217 -5.348,2.2 -8.131,2.996 -1.368,0.392 -2.757,0.711 -4.126,1.097 -0.426,0.12 -0.836,0.325 -1.223,0.545 -0.132,0.075 -0.15,0.331 -0.258,0.476 -0.118,0.157 -0.346,0.425 -0.414,0.395 -0.605,-0.268 -0.813,0.233 -1.151,0.518 -0.342,0.289 -0.731,0.522 -1.089,0.792 -0.575,0.433 -1.001,1.363 -0.774,1.828 0.333,0.682 0.655,1.668 1.267,1.818 0.767,0.188 1.088,1.28 2.091,0.883 0.301,-0.118 0.766,0.27 1.144,0.245 0.959,-0.06 1.701,-0.598 2.328,-1.297 0.125,-0.138 0.216,-0.307 0.34,-0.488 0.614,0.813 1.588,1.062 2.458,1.194 0.744,0.113 1.571,-0.308 2.359,-0.502 0.225,-0.054 0.459,-0.109 0.661,-0.216 0.484,-0.258 1.053,-0.459 1.394,-0.851 0.299,-0.345 0.602,-0.222 0.902,-0.302 0.169,-0.046 0.429,0.031 0.518,-0.067 0.76,-0.831 1.661,-0.335 2.431,-0.169 0.878,0.189 1.716,0.433 2.627,0.299 0.562,-0.083 1.133,-0.093 1.7,-0.14 0.038,-0.003 0.072,-0.046 0.109,-0.067 0.656,-0.383 1.468,-0.556 1.93,-1.193 0.321,-0.441 0.729,-0.528 1.12,-0.405 1.06,0.33 2.041,-0.12 2.992,-0.351 0.585,-0.141 1.135,-0.842 1.482,-1.424 0.303,-0.508 0.584,-0.757 1.091,-0.518 0.646,0.304 1.296,0.643 1.854,1.08 1.339,1.053 2.811,1.127 4.387,0.791 0.418,-0.09 0.918,0.033 1.274,-0.148 0.677,-0.345 1.391,-0.741 1.878,-1.301 0.469,-0.539 0.975,-0.935 1.661,-0.743 0.161,0.045 0.331,0.107 0.493,0.099 1.535,-0.078 3.07,-0.16 4.603,-0.267 0.262,-0.018 0.528,-0.137 0.769,-0.256 0.993,-0.488 2.043,-0.144 3.063,-0.211 0.433,-0.029 0.916,0.314 1.316,0.223 0.907,-0.208 1.889,0.316 2.755,-0.368 0.309,-0.244 0.805,-0.264 1.223,-0.351 1.217,-0.253 2.432,-0.532 3.661,-0.716 0.944,-0.141 1.919,-0.088 2.861,-0.24 1.373,-0.221 2.818,-0.245 4.05,-0.977 0.428,-0.255 0.817,-0.441 1.275,-0.336 1.224,0.28 2.436,0.608 3.655,0.91 0.992,0.245 1.978,0.529 2.983,0.704 1.371,0.238 2.731,0.192 4.101,-0.196 0.457,-0.13 1.078,0.082 1.549,0.3 0.733,0.339 1.436,0.77 2.088,1.246 0.862,0.628 1.791,0.672 2.797,0.605 0.966,-0.064 1.9,-0.274 2.847,-0.409 1.215,-0.174 2.48,-0.28 3.687,-0.127 0.835,0.105 1.607,0.703 2.412,1.068 0.731,0.331 1.445,0.782 2.213,0.919 0.529,0.095 1.186,-0.162 1.697,-0.431 0.809,-0.425 1.649,-0.489 2.501,-0.402 0.317,0.032 0.622,0.338 0.901,0.558 0.911,0.717 1.738,1.569 2.727,2.15 1.254,0.739 2.694,1.075 4.164,0.908 0.756,-0.086 1.413,0.101 2.123,0.252 0.936,0.2 1.919,0.294 2.874,0.253 0.439,-0.019 0.949,-0.385 1.273,-0.735 0.739,-0.8 2.977,-0.333 3.332,0.714 0.332,0.977 0.971,1.164 1.982,1.019 1.14,-0.164 2.311,-0.135 3.469,-0.146 0.167,-10e-4 0.343,0.227 0.505,0.362 0.954,0.789 1.883,1.613 2.868,2.362 0.514,0.391 1.08,0.204 1.603,-0.122 1.309,-0.816 1.607,-0.794 2.73,0.143 0.622,0.517 1.405,0.596 2.141,0.613 C -0.957,4.656 -0.2,3.743 0.102,2.73 0.351,1.895 0.495,0.865 0,0 m 55.963,158.907 c -3.275,15.05 -8.379,26.451 -15.9,35.415 -0.783,-0.694 -1.54,-1.419 -2.278,-2.16 -0.625,-0.628 -1.205,-1.312 -1.729,-2.027 -0.536,-0.731 -0.987,-1.525 -1.46,-2.301 -0.437,-0.714 -0.938,-1.405 -1.264,-2.169 -0.856,-2.01 -1.623,-4.058 -2.447,-6.082 -0.341,-0.835 -0.833,-1.618 -1.093,-2.475 -0.673,-2.216 -1.67,-4.271 -2.977,-6.166 -1.459,-2.116 -2.846,-4.266 -3.986,-6.574 -0.281,-0.571 -0.619,-1.115 -0.949,-1.66 -0.784,-1.296 -1.58,-2.587 -2.387,-3.906 0.822,-0.358 1.089,-1.177 1.844,-1.374 0.059,-0.016 0.144,-0.171 0.133,-0.184 -0.354,-0.386 0.041,-0.276 0.208,-0.33 0.117,-0.038 0.25,-0.079 0.336,-0.161 1.086,-1.032 2.259,-1.991 3.217,-3.132 0.933,-1.109 2.066,-2.09 2.458,-3.629 0.346,-1.354 1.025,-2.622 1.402,-3.971 0.322,-1.153 0.627,-2.375 0.579,-3.552 -0.09,-2.203 -0.061,-4.437 -0.679,-6.594 -0.381,-1.328 -0.667,-2.688 -1.135,-3.984 -0.556,-1.541 -1.25,-3.034 -1.909,-4.536 -0.49,-1.117 -0.907,-2.291 -1.561,-3.307 -0.985,-1.527 -1.669,-3.178 -2.232,-4.869 -0.476,-1.429 -0.711,-2.941 -1.011,-4.425 -0.301,-1.483 -0.186,-2.969 0.136,-4.433 0.285,-1.297 0.766,-2.517 1.444,-3.676 1.087,-1.858 2.084,-3.768 3.129,-5.65 0.076,-0.137 0.221,-0.252 0.361,-0.33 0.687,-0.384 1.405,-0.719 2.072,-1.134 0.87,-0.54 1.701,-1.141 2.553,-1.712 0.558,-0.375 1.143,-0.715 1.679,-1.12 0.494,-0.374 0.901,-0.868 1.411,-1.215 0.931,-0.633 1.761,-1.346 2.41,-2.281 1,-1.441 2.083,-2.827 3.041,-4.296 0.868,-1.33 1.649,-2.719 2.401,-4.12 0.338,-0.63 0.492,-1.356 0.764,-2.025 0.93,-2.288 1.886,-4.565 2.805,-6.857 0.218,-0.546 0.311,-1.139 0.497,-1.7 0.256,-0.768 0.613,-1.509 0.805,-2.292 0.303,-1.226 0.502,-2.479 0.748,-3.721 0.492,-2.478 0.43,-4.962 -0.012,-7.433 -0.104,-0.575 -0.377,-1.134 -0.649,-1.66 -0.671,-1.296 -1.336,-2.6 -2.103,-3.839 -0.406,-0.656 -0.479,-1.529 -1.221,-1.974 0.129,-0.744 -0.664,-1.155 -0.643,-1.943 0.012,-0.524 -0.658,-1.03 -0.836,-1.604 -0.253,-0.812 -1.146,-0.972 -1.476,-1.839 -0.398,-1.047 -1.526,-1.687 -2.69,-2.144 -1.198,-0.471 -2.283,-1.231 -3.415,-1.867 -0.292,-0.165 -0.565,-0.453 -0.871,-0.492 -0.435,-0.055 -0.914,0.003 -1.337,0.131 -0.474,0.143 -0.63,-0.103 -0.787,-0.434 -0.3,-0.638 -0.572,-1.291 -0.903,-1.913 -1.407,-2.646 -2.854,-5.27 -4.24,-7.927 -0.932,-1.787 -1.849,-3.587 -2.651,-5.435 -0.728,-1.676 -1.349,-3.406 -1.912,-5.146 -0.47,-1.456 -0.672,-3.006 -1.217,-4.428 -0.317,-0.827 -0.249,-1.422 0.133,-2.136 0.227,-0.422 0.302,-0.927 0.437,-1.397 0.544,-1.904 1.065,-3.816 1.631,-5.713 0.438,-1.468 0.91,-2.926 1.404,-4.375 0.261,-0.763 0.659,-1.479 0.883,-2.25 0.111,-0.385 0.108,-0.928 -0.087,-1.251 -0.423,-0.701 -0.959,-1.349 -1.528,-1.942 -1.198,-1.25 -2.33,-2.536 -3.33,-3.962 -0.984,-1.4 -2.274,-2.55 -3.725,-3.475 -0.828,-0.527 -1.71,-0.785 -2.687,-0.213 -0.773,0.452 -1.604,0.815 -2.435,1.153 -0.47,0.19 -1.005,0.216 -1.487,0.383 -0.3,0.105 -0.649,0.269 -0.821,0.515 C 6.632,-3.289 4.469,-0.14 2.295,3.002 1.733,3.813 1.141,4.604 0.596,5.427 0.039,6.267 -0.469,7.138 -1.019,7.981 -1.107,8.119 -1.301,8.189 -1.445,8.291 L -1.36,8.086 C -1.646,7.86 -1.907,7.584 -2.225,7.419 -2.849,7.096 -3.491,6.803 -4.148,6.557 -5.265,6.14 -6.384,5.717 -7.529,5.393 -8.702,5.061 -9.903,4.827 -11.099,4.579 c -1.517,-0.314 -3.03,-0.685 -4.563,-0.88 -2.21,-0.28 -4.445,-0.363 -6.655,-0.642 -1.797,-0.229 -3.569,-0.642 -5.358,-0.937 -1.95,-0.321 -3.905,-0.618 -5.862,-0.893 -1.123,-0.159 -2.258,-0.232 -3.383,-0.38 -2.202,-0.289 -4.396,-0.65 -6.603,-0.894 -2.136,-0.237 -4.283,-0.402 -6.428,-0.527 -1.756,-0.103 -3.518,-0.103 -5.278,-0.142 -0.551,-0.012 -1.104,-0.011 -1.656,0 -2.022,0.039 -4.044,0.08 -6.066,0.131 -1.344,0.034 -2.689,0.083 -4.033,0.13 -2.322,0.081 -4.642,0.191 -6.964,0.238 -1.504,0.03 -3.01,-0.058 -4.515,-0.042 -0.775,0.008 -1.549,0.153 -2.326,0.193 -1.054,0.055 -2.112,0.053 -3.167,0.106 -1.112,0.057 -2.221,0.174 -3.334,0.218 -1.35,0.054 -2.703,0.045 -4.054,0.09 -2.14,0.069 -4.28,0.169 -6.42,0.241 -1.668,0.056 -3.338,0.059 -5.004,0.14 -2.088,0.1 -4.173,0.254 -6.259,0.389 -0.611,0.04 -1.223,0.07 -1.829,0.145 -1.646,0.202 -3.288,0.436 -4.934,0.636 -1.458,0.178 -2.929,0.265 -4.376,0.504 -1.455,0.241 -2.885,0.624 -4.329,0.933 -0.985,0.211 -1.989,0.35 -2.96,0.611 -1.456,0.392 -2.889,0.872 -4.337,1.295 -0.582,0.17 -1.179,0.288 -1.752,0.426 -0.248,-0.296 -0.524,-0.572 -0.737,-0.892 -0.599,-0.895 -1.146,-1.826 -1.761,-2.711 -0.625,-0.899 -1.39,-1.711 -1.939,-2.652 -0.679,-1.161 -1.278,-2.385 -1.764,-3.639 -0.474,-1.227 -0.721,-2.54 -1.147,-3.788 -0.236,-0.689 -0.511,-1.449 -1.495,-1.41 -0.301,0.012 -0.605,-0.026 -0.905,-0.062 -0.701,-0.084 -1.399,-0.191 -2.101,-0.27 -0.513,-0.058 -1.029,-0.098 -1.545,-0.129 -1.138,-0.067 -2.249,-0.051 -2.997,1.031 -0.047,0.068 -0.18,0.112 -0.271,0.109 -0.945,-0.022 -1.529,0.551 -2.021,1.247 -0.356,0.506 -0.638,1.065 -1.01,1.559 -0.818,1.083 -1.668,2.143 -2.515,3.204 -0.154,0.193 -0.331,0.411 -0.546,0.506 -0.806,0.356 -1.024,1.081 -0.888,1.823 0.14,0.763 0.419,1.502 0.644,2.25 0.446,1.488 0.878,2.982 1.351,4.463 0.347,1.089 0.787,2.147 1.12,3.24 0.543,1.78 0.978,3.595 1.564,5.36 0.328,0.987 0.374,1.784 -0.207,2.746 -0.86,1.424 -1.072,3.106 -1.197,4.747 -0.165,2.187 -1.043,4.114 -2.13,5.929 -1.328,2.22 -2.87,4.311 -4.244,6.504 -1.051,1.68 -2.003,3.424 -2.965,5.157 -0.424,0.763 -0.726,1.593 -1.163,2.347 -0.171,0.294 -0.558,0.649 -0.852,0.655 -1.298,0.026 -2.461,0.447 -3.45,1.207 -0.625,0.481 -1.047,1.221 -1.575,1.832 -0.825,0.955 -1.674,1.89 -2.491,2.851 -0.521,0.613 -1.01,1.254 -1.5,1.892 -0.952,1.243 -1.751,2.542 -2.058,4.131 -0.369,1.908 -0.498,3.822 -0.537,5.757 -0.032,1.549 -0.126,3.101 -0.3,4.639 -0.278,2.449 0.115,4.862 0.377,7.266 0.269,2.468 0.81,4.915 1.662,7.262 0.683,1.878 1.437,3.734 2.245,5.562 0.525,1.187 1.15,2.34 1.828,3.45 1.291,2.114 2.939,3.939 4.91,5.432 1.867,1.415 3.912,2.538 6.237,3.022 0.679,0.142 1.172,0.321 1.437,1.07 0.333,0.944 0.834,1.829 1.282,2.73 0.831,1.67 1.961,3.173 2.424,5.051 0.388,1.575 0.696,3.144 0.65,4.75 -0.063,2.193 -0.323,4.372 -0.91,6.496 -0.259,0.936 -0.536,1.867 -0.845,2.788 -0.211,0.631 -0.505,1.235 -0.738,1.86 -0.281,0.754 -0.523,1.524 -0.806,2.277 -0.347,0.923 -0.765,1.821 -1.071,2.756 -0.483,1.475 -0.924,2.964 -1.334,4.46 -0.426,1.557 -0.849,3.118 -1.168,4.699 -0.193,0.965 -0.187,1.97 -0.275,3.017 0.218,-0.07 0.332,-0.105 0.324,-0.103 0.158,0.151 0.26,0.247 0.235,0.224 -0.178,0.729 -0.351,1.443 -0.526,2.159 -0.21,0.075 -0.377,0.229 -0.4,0.402 -0.076,0.577 -0.119,1.16 -0.142,1.741 -0.062,1.599 0.227,3.14 0.627,4.69 0.644,2.502 2.049,4.532 3.722,6.397 0.977,1.089 2.038,2.122 3.176,3.038 1.311,1.056 2.714,2.009 4.141,2.906 1.388,0.873 2.848,1.636 4.293,2.416 1.368,0.74 2.737,1.486 4.144,2.147 1.812,0.85 3.649,1.653 5.502,2.41 1.61,0.657 3.241,1.272 4.893,1.813 1.453,0.476 2.952,0.812 4.425,1.234 1.561,0.448 3.108,0.946 4.672,1.382 1.032,0.289 2.108,0.433 3.121,0.772 1.939,0.651 3.861,1.349 5.902,1.612 0.622,0.081 1.331,-0.05 1.856,0.208 0.904,0.445 1.856,0.404 2.784,0.575 1.132,0.21 2.273,0.371 3.41,0.562 1.595,0.27 3.189,0.547 4.77,0.819 0.089,-0.278 0.141,-0.44 0.135,-0.422 0.327,0.152 0.613,0.382 0.914,0.404 0.8,0.057 1.606,0.012 2.409,0.033 0.276,0.008 0.551,0.088 0.824,0.144 0.736,0.151 1.469,0.504 2.151,0.045 0.236,0.185 0.416,0.435 0.638,0.482 2.39,0.505 4.782,1.006 7.184,1.446 0.858,0.157 1.746,0.141 2.62,0.215 0.515,0.044 1.029,0.108 1.544,0.163 0.012,-0.055 0.037,-0.161 0.049,-0.213 0.142,0.127 0.259,0.324 0.398,0.342 0.587,0.072 1.181,0.1 1.773,0.126 0.209,0.01 0.427,-0.07 0.631,-0.041 0.456,0.066 0.902,0.208 1.359,0.259 0.579,0.065 1.192,-0.024 1.741,0.129 0.583,0.162 1.094,0.277 1.629,-0.181 -0.011,0.171 -0.017,0.277 -0.027,0.446 0.693,-0.363 1.53,0.439 2.038,-0.458 0.548,0.573 0.296,0.482 1.499,0.4 0.401,-0.028 0.855,-0.264 1.185,-0.14 0.868,0.328 0.981,0.352 1.267,-0.205 0.818,-0.102 1.535,-0.204 2.255,-0.274 0.483,-0.048 0.974,-0.084 1.458,-0.062 0.331,0.015 0.657,0.141 1.009,0.222 0.094,-0.08 0.217,-0.272 0.371,-0.301 0.65,-0.12 1.309,-0.196 1.965,-0.279 0.424,-0.054 0.875,-0.017 1.266,-0.156 0.753,-0.266 1.474,-0.592 2.292,-0.274 0.075,0.029 0.191,-0.056 0.288,-0.084 0.638,-0.179 1.28,-0.348 1.914,-0.541 0.217,-0.067 0.417,-0.194 0.626,-0.294 0.587,0.028 1.18,-0.043 1.77,-0.13 0.535,-0.079 1.068,-0.175 1.574,-0.259 0.531,0.485 1.126,-0.118 1.688,-0.073 0.627,0.049 1.288,-0.347 1.936,-0.543 0.568,-0.173 1.137,-0.338 1.69,-0.502 -0.032,-0.038 -0.09,-0.107 -0.159,-0.19 0.334,0.056 0.625,0.161 0.911,0.145 1.089,-0.061 2.175,-0.177 3.264,-0.241 1.107,-0.064 2.215,-0.073 3.322,-0.14 1.017,-0.062 2.037,-0.133 3.046,-0.263 1.43,-0.185 2.855,-0.412 4.277,-0.65 1.242,-0.207 2.481,-0.433 3.712,-0.697 0.388,-0.083 0.746,-0.316 1.134,-0.488 -0.014,-0.021 0.085,0.184 0.118,0.174 1.071,-0.336 2.367,0.036 3.208,-0.97 0.082,0.119 0.19,0.381 0.266,0.372 0.465,-0.054 0.923,-0.17 1.382,-0.268 0.1,-0.021 0.196,-0.063 0.296,-0.073 0.493,-0.049 0.993,-0.053 1.478,-0.141 1.1,-0.199 2.204,-0.4 3.286,-0.68 0.432,-0.112 1.032,0.032 1.244,-0.582 0.067,0.039 1.225,0.085 1.398,0.072 0.71,-0.054 1.306,-0.553 2.038,-0.524 0.037,0.001 0.076,-0.057 0.116,-0.083 0.108,-0.074 0.211,-0.182 0.331,-0.209 0.121,-0.028 0.269,0.063 0.39,0.035 0.389,-0.089 0.766,-0.227 1.155,-0.314 0.661,-0.148 1.332,-0.248 1.99,-0.408 0.91,-0.222 1.828,-0.436 2.715,-0.734 0.916,-0.308 2.029,0.131 2.797,-0.75 0.062,-0.072 0.291,-0.008 0.441,0.008 0.245,0.024 0.502,0.128 0.729,0.081 0.54,-0.112 1.067,-0.288 1.595,-0.447 0.569,-0.171 1.2,-0.251 1.681,-0.561 0.447,-0.289 1.287,0.114 1.379,-0.769 0.113,0.03 0.226,0.061 0.234,0.063 0.042,-0.342 0.079,-0.651 0.117,-0.96 0.5,0.913 0.935,1.834 1.281,2.787 0.486,1.338 0.798,2.748 1.382,4.038 0.656,1.448 1.483,2.826 2.322,4.181 1.473,2.379 3.043,4.699 4.512,7.08 1.063,1.719 2.029,3.498 3.038,5.25 0.532,0.921 1.068,1.841 1.596,2.763 0.171,0.297 0.328,0.602 0.487,0.906 0.612,1.168 1.098,2.427 1.864,3.484 1.109,1.53 2.396,2.935 3.654,4.352 0.943,1.063 1.958,2.063 2.947,3.086 0.454,0.47 0.914,0.934 1.371,1.401 -8.209,5.658 -18.262,9.688 -30.89,12.427 -14.908,3.233 -34.115,4.739 -60.447,4.739 -26.328,0 -45.536,-1.508 -60.45,-4.746 -17.318,-3.76 -29.811,-9.935 -39.318,-19.432 -9.511,-9.502 -15.697,-21.994 -19.467,-39.314 -3.251,-14.936 -4.765,-34.164 -4.765,-60.512 0,-26.738 1.456,-45.396 4.72,-60.5 3.745,-17.327 9.907,-29.82 19.392,-39.316 9.491,-9.502 21.982,-15.678 39.311,-19.436 14.926,-3.236 34.175,-4.744 60.577,-4.744 26.408,0 45.658,1.506 60.58,4.738 17.331,3.755 29.822,9.928 39.311,19.427 9.484,9.493 15.647,21.986 19.39,39.315 3.263,15.104 4.719,33.767 4.719,60.516 0,26.359 -1.515,45.594 -4.766,60.532"
             style="fill:#f2f2f2;fill-opacity:1;fill-rule:nonzero;stroke:none"
             id="path3040"
             inkscape:connector-curvature="0" /></g><g
           id="g3042"
           transform="translate(212.5293,197.271)"><path
             d="m 0,0 c 0.687,1.141 1.359,2.291 2.051,3.429 0.792,1.303 1.671,2.559 2.378,3.907 0.579,1.105 0.951,2.317 1.431,3.475 0.23,0.552 0.421,1.145 0.768,1.618 0.363,0.496 0.635,1.015 0.824,1.583 0.147,0.441 0.216,0.907 0.368,1.346 0.353,1.015 0.687,2.039 1.117,3.021 0.458,1.047 0.976,2.074 1.546,3.065 0.429,0.746 0.989,1.418 1.478,2.131 0.364,0.531 0.667,1.111 1.074,1.605 0.532,0.645 1.118,1.251 1.723,1.83 0.676,0.646 1.331,1.327 2.037,1.938 -0.511,0.549 -1.027,1.092 -1.558,1.622 -1.929,1.927 -3.989,3.709 -6.179,5.37 C 8.339,35.19 7.647,34.411 6.94,33.649 6.153,32.801 5.327,31.988 4.58,31.106 3.504,29.837 2.405,28.574 1.464,27.207 0.601,25.953 -0.062,24.56 -0.824,23.234 -1.186,22.609 -1.597,22.012 -1.948,21.381 -2.96,19.566 -3.896,17.706 -4.969,15.928 -6.229,13.839 -7.619,11.829 -8.918,9.763 -9.858,8.266 -10.859,6.79 -11.62,5.202 c -0.872,-1.819 -1.512,-3.749 -2.247,-5.634 -0.582,-1.492 -1.138,-2.996 -1.742,-4.48 -0.401,-0.982 -0.825,-1.959 -1.312,-2.9 -1.04,-2.007 -2.171,-3.968 -3.183,-5.989 -0.774,-1.545 -1.43,-3.15 -2.122,-4.736 -0.276,-0.632 -0.505,-1.285 -0.756,-1.928 0.037,-0.013 0.074,-0.027 0.111,-0.04 -0.016,-0.232 0.025,-0.491 -0.066,-0.688 -0.073,-0.16 -0.417,-0.375 -0.451,-0.346 -0.394,0.34 -0.375,-0.097 -0.421,-0.237 -0.42,-1.274 -0.812,-2.557 -1.222,-3.833 -0.15,-0.466 -0.489,-0.935 -0.457,-1.383 0.075,-1.066 0.425,-2.096 1.375,-2.719 0.901,-0.59 1.872,-1.075 2.819,-1.594 0.087,-0.048 0.24,-0.04 0.335,0.003 0.698,0.311 1.48,0.523 2.064,0.984 1.226,0.967 2.649,1.469 4.054,2.043 0.23,0.093 0.468,0.333 0.56,0.563 0.343,0.859 0.596,1.755 0.941,2.615 0.47,1.17 0.922,2.357 1.51,3.47 0.88,1.667 1.876,3.273 2.813,4.91 0.351,0.612 0.69,1.232 1.009,1.861 0.84,1.654 1.622,3.34 2.508,4.969 1.001,1.842 1.775,3.798 2.986,5.537 0.807,1.159 1.387,2.475 2.077,3.717 C -0.312,-0.411 -0.133,-0.219 0,0"
             style="fill:#f2f2f2;fill-opacity:1;fill-rule:nonzero;stroke:none"
             id="path3044"
             inkscape:connector-curvature="0" /></g></g></g></g></svg>