<?xml version="1.0" encoding="utf-8"?>
<!-- Generator: Adobe Illustrator 16.0.0, SVG Export Plug-In . SVG Version: 6.00 Build 0)  -->
<!DOCTYPE svg PUBLIC "-//W3C//DTD SVG 1.1//EN" "http://www.w3.org/Graphics/SVG/1.1/DTD/svg11.dtd">
<svg version="1.1"
	 id="svg2" inkscape:export-filename="/home/kivutar/Bureau/lakka-menu/reload.png" inkscape:export-xdpi="90" inkscape:version="0.48.4 r9939" inkscape:export-ydpi="90" sodipodi:docname="reload.svg" xmlns:svg="http://www.w3.org/2000/svg" xmlns:cc="http://creativecommons.org/ns#" xmlns:sodipodi="http://sodipodi.sourceforge.net/DTD/sodipodi-0.dtd" xmlns:rdf="http://www.w3.org/1999/02/22-rdf-syntax-ns#" xmlns:dc="http://purl.org/dc/elements/1.1/" xmlns:inkscape="http://www.inkscape.org/namespaces/inkscape"
	 xmlns="http://www.w3.org/2000/svg" xmlns:xlink="http://www.w3.org/1999/xlink" x="0px" y="0px" width="64px" height="64px"
	 viewBox="0 128 64 64" enable-background="new 0 128 64 64" xml:space="preserve">
<path id="Arcade_1_" fill="#F2F2F2" d="M49,135H15c-1,0-2,1-2,2v46c0,1,1,2,2,2h34c1,0,2-1,2-2v-46C51,136,50,135,49,135z M23,172
	c-2.762,0-5-2.238-5-5s2.238-5,5-5s5,2.238,5,5S25.762,172,23,172z M32.5,169c-0.828,0-1.5-0.672-1.5-1.5s0.672-1.5,1.5-1.5
	s1.5,0.672,1.5,1.5S33.328,169,32.5,169z M36.5,172c-0.828,0-1.5-0.672-1.5-1.5s0.672-1.5,1.5-1.5s1.5,0.672,1.5,1.5
	S37.328,172,36.5,172z M36.5,167c-0.828,0-1.5-0.672-1.5-1.5s0.672-1.5,1.5-1.5s1.5,0.672,1.5,1.5S37.328,167,36.5,167z M40.5,170
	c-0.828,0-1.5-0.672-1.5-1.5s0.672-1.5,1.5-1.5s1.5,0.672,1.5,1.5S41.328,170,40.5,170z M40.5,165c-0.828,0-1.5-0.672-1.5-1.5
	s0.672-1.5,1.5-1.5s1.5,0.672,1.5,1.5S41.328,165,40.5,165z M45,178.5c0,0.276-0.224,0.5-0.5,0.5s-0.5-0.224-0.5-0.5v-2
	c0-0.276,0.224-0.5,0.5-0.5s0.5,0.224,0.5,0.5V178.5z M44.5,168c-0.828,0-1.5-0.672-1.5-1.5s0.672-1.5,1.5-1.5s1.5,0.672,1.5,1.5
	S45.328,168,44.5,168z M46,158c0,1,0,1-1,1H19c-1,0-1,0-1-1v-17c0-1,0-1,1-1h26c1,0,1,0,1,1V158z M23,164c-1.656,0-3,1.344-3,3
	s1.344,3,3,3s3-1.344,3-3S24.656,164,23,164z"/>
</svg>
