<?xml version="1.0" encoding="UTF-8" standalone="no"?>
<!-- Created with Inkscape (http://www.inkscape.org/) -->

<svg
   xmlns:dc="http://purl.org/dc/elements/1.1/"
   xmlns:cc="http://creativecommons.org/ns#"
   xmlns:rdf="http://www.w3.org/1999/02/22-rdf-syntax-ns#"
   xmlns:svg="http://www.w3.org/2000/svg"
   xmlns="http://www.w3.org/2000/svg"
   xmlns:sodipodi="http://sodipodi.sourceforge.net/DTD/sodipodi-0.dtd"
   xmlns:inkscape="http://www.inkscape.org/namespaces/inkscape"
   id="svg4545"
   version="1.1"
   inkscape:version="0.91 r13725"
   xml:space="preserve"
   width="256"
   height="256"
   viewBox="0 0 256 256"
   sodipodi:docname="Game Park - GP32.svg"
   inkscape:export-filename="/Volumes/Verbatim16/GitHub Projects/baxy-retroarch-themes/monochrome plus/contributions/svg/Game Park - GP32.png"
   inkscape:export-xdpi="90.099998"
   inkscape:export-ydpi="90.099998"><metadata
     id="metadata4551"><rdf:RDF><cc:Work
         rdf:about=""><dc:format>image/svg+xml</dc:format><dc:type
           rdf:resource="http://purl.org/dc/dcmitype/StillImage" /><dc:title></dc:title></cc:Work></rdf:RDF></metadata><defs
     id="defs4549"><clipPath
       clipPathUnits="userSpaceOnUse"
       id="clipPath4559"><path
         d="M 0,256 256,256 256,0 0,0 0,256 Z"
         id="path4561"
         inkscape:connector-curvature="0" /></clipPath></defs><sodipodi:namedview
     pagecolor="#ffffff"
     bordercolor="#666666"
     borderopacity="1"
     objecttolerance="10"
     gridtolerance="10"
     guidetolerance="10"
     inkscape:pageopacity="0"
     inkscape:pageshadow="2"
     inkscape:window-width="640"
     inkscape:window-height="480"
     id="namedview4547"
     showgrid="false"
     inkscape:zoom="2.634375"
     inkscape:cx="102.3013"
     inkscape:cy="160"
     inkscape:current-layer="g4553" /><g
     id="g4553"
     inkscape:groupmode="layer"
     inkscape:label="Game Park - GP32"
     transform="matrix(1.25,0,0,-1.25,0,256)"><g
       id="g4555"
       transform="matrix(0.82857143,0,0,0.82857143,-3.657143,-3.657143)"><g
         id="g4557"
         clip-path="url(#clipPath4559)"><g
           id="g4563"
           transform="translate(40,167.5)"><path
             d="m 0,0 c -8.547,0 -15.5,-6.953 -15.5,-15.5 0,-8.547 6.953,-15.5 15.5,-15.5 8.547,0 15.5,6.953 15.5,15.5 C 15.5,-6.953 8.547,0 0,0 m 0,-32 c -9.098,0 -16.5,7.402 -16.5,16.5 C -16.5,-6.402 -9.098,1 0,1 9.098,1 16.5,-6.402 16.5,-15.5 16.5,-24.598 9.098,-32 0,-32"
             style="fill:#d9d9d9;fill-opacity:1;fill-rule:nonzero;stroke:none"
             id="path4565"
             inkscape:connector-curvature="0" /></g><g
           id="g4567"
           transform="translate(221,150)"><path
             d="m 0,0 c -3.866,0 -7,3.134 -7,7 0,3.866 3.134,7 7,7 C 3.866,14 7,10.866 7,7 7,3.134 3.866,0 0,0 m -12,-12 c -3.866,0 -7,3.134 -7,7 0,3.866 3.134,7 7,7 3.866,0 7,-3.134 7,-7 0,-3.866 -3.134,-7 -7,-7 m -3,-22 c -3.313,0 -6,2.687 -6,6 0,3.313 2.687,6 6,6 3.313,0 6,-2.687 6,-6 0,-3.313 -2.687,-6 -6,-6 m -22,-28 -112,0 0,84 112,0 0,-84 z m -138,58 c 0,-3.313 -2.687,-6 -6,-6 -3.313,0 -6,2.687 -6,6 -3.313,0 -6,2.687 -6,6 0,3.313 2.687,6 6,6 0,3.313 2.687,6 6,6 3.313,0 6,-2.687 6,-6 3.313,0 6,-2.687 6,-6 0,-3.313 -2.687,-6 -6,-6 m 0,-30 c -3.313,0 -6,2.687 -6,6 0,3.313 2.687,6 6,6 3.313,0 6,-2.687 6,-6 0,-3.313 -2.687,-6 -6,-6 M 3,30 5.923,32.923 c 0.509,0.509 0.325,1.378 -0.345,1.64 -23.766,9.334 -32.883,8.47 -36.386,6.432 -9.04,1.239 -18.69,1.992 -27.63,2.443 L -61,46 -85,46 -86.926,44.074 C -90.744,44.056 -93,44 -93,44 c 0,0 -2.256,0.056 -6.074,0.074 L -101,46 l -24,0 -2.562,-2.562 c -8.94,-0.451 -18.59,-1.204 -27.63,-2.443 -3.503,2.038 -12.619,2.902 -36.386,-6.432 -0.67,-0.262 -0.854,-1.131 -0.345,-1.64 L -189,30 c -16,-16 -16,-52 -16,-52 l 0,-24 c 0,0 0,-44 36,-44 36,0 28,4 76,4 48,0 40,-4 76,-4 36,0 36,44 36,44 l 0,24 c 0,0 0,36 -16,52"
             style="fill:#f2f2f2;fill-opacity:1;fill-rule:nonzero;stroke:none"
             id="path4569"
             inkscape:connector-curvature="0" /></g></g></g></g></svg>