<?xml version="1.0" encoding="UTF-8" standalone="no"?>
<!-- Created with Inkscape (http://www.inkscape.org/) -->

<svg
   xmlns:dc="http://purl.org/dc/elements/1.1/"
   xmlns:cc="http://creativecommons.org/ns#"
   xmlns:rdf="http://www.w3.org/1999/02/22-rdf-syntax-ns#"
   xmlns:svg="http://www.w3.org/2000/svg"
   xmlns="http://www.w3.org/2000/svg"
   xmlns:sodipodi="http://sodipodi.sourceforge.net/DTD/sodipodi-0.dtd"
   xmlns:inkscape="http://www.inkscape.org/namespaces/inkscape"
   id="svg4609"
   version="1.1"
   inkscape:version="0.91 r13725"
   xml:space="preserve"
   width="256"
   height="256"
   viewBox="0 0 256 256"
   sodipodi:docname="Game Park - GP32-content.svg"
   inkscape:export-filename="/Volumes/Verbatim16/GitHub Projects/baxy-retroarch-themes/monochrome plus/contributions/svg/Game Park - GP32-content.png"
   inkscape:export-xdpi="90.099998"
   inkscape:export-ydpi="90.099998"><metadata
     id="metadata4615"><rdf:RDF><cc:Work
         rdf:about=""><dc:format>image/svg+xml</dc:format><dc:type
           rdf:resource="http://purl.org/dc/dcmitype/StillImage" /><dc:title></dc:title></cc:Work></rdf:RDF></metadata><defs
     id="defs4613"><clipPath
       clipPathUnits="userSpaceOnUse"
       id="clipPath4623"><path
         d="M 0,256 256,256 256,0 0,0 0,256 Z"
         id="path4625"
         inkscape:connector-curvature="0" /></clipPath></defs><sodipodi:namedview
     pagecolor="#ffffff"
     bordercolor="#666666"
     borderopacity="1"
     objecttolerance="10"
     gridtolerance="10"
     guidetolerance="10"
     inkscape:pageopacity="0"
     inkscape:pageshadow="2"
     inkscape:window-width="640"
     inkscape:window-height="480"
     id="namedview4611"
     showgrid="false"
     inkscape:zoom="2.634375"
     inkscape:cx="97.366548"
     inkscape:cy="160"
     inkscape:current-layer="g4617" /><g
     id="g4617"
     inkscape:groupmode="layer"
     inkscape:label="Game Park - GP32-content"
     transform="matrix(1.25,0,0,-1.25,0,256)"><g
       id="g4619"
       transform="scale(0.8,0.8)"><g
         id="g4621"
         clip-path="url(#clipPath4623)"><g
           id="g4627"
           transform="translate(130,44)"><path
             d="m 0,0 12,0 0,24.877 C 7.196,26.083 2.964,27.439 0,28.466 L 0,0 Z m 14,0 12,0 0,22.322 c -4.063,0.409 -8.17,1.174 -12,2.071 L 14,0 Z M -14,33.931 -14,0 -2,0 -2,29.175 c -1.369,0.499 -2.214,0.834 -2.372,0.896 -0.113,0.056 -3.939,1.942 -9.628,3.86 M -28,0 l 12,0 0,34.58 c -3.556,1.111 -7.676,2.161 -12,2.798 L -28,0 Z M 28,22.152 28,0 40,0 40,22.553 C 37.304,22.207 34.605,22 32,22 c -1.313,0 -2.651,0.057 -4,0.152 M 34,31 C 17.992,31 -1.547,38.742 -2.372,39.071 -2.605,39.185 -18.431,47 -34,47 -45.823,47 -62.457,42.515 -70,40.282 L -70,12 c 0,-6.627 5.373,-12 12,-12 l 0,34.922 0,1.078 0,0.993 C -50.849,38.614 -42.765,40 -36,40 -19.948,40 -4.215,32.226 -3.553,31.895 -3.43,31.85 16.382,24 32,24 c 7.963,0 17.012,2.04 24,4.051 L 56,25.949 56,20 56,0.18 C 61.673,1.134 66,6.056 66,12 l 0,25.465 C 59.19,35.106 45.66,31 34,31 M -42,37.671 -42,0 l 12,0 0,37.642 c -1.982,0.226 -3.993,0.358 -6,0.358 -1.897,0 -3.92,-0.126 -6,-0.329 M -56,0 l 12,0 0,37.461 c -3.968,-0.482 -8.087,-1.244 -12,-2.096 L -56,0 Z M 40,42.591 40,80 28,80 28,42.16 c 1.353,-0.1 2.691,-0.16 4,-0.16 2.588,0 5.291,0.231 8,0.591 M -16,80 l -12,0 0,-22.591 c 4.324,-0.608 8.429,-1.618 12,-2.707 L -16,80 Z M -2,49.309 -2,80 -14,80 -14,54.069 C -7.98,52.085 -3.884,50.06 -3.553,49.895 -3.533,49.887 -2.974,49.667 -2,49.309 M 42,0 54,0 54,25.398 C 50.304,24.408 46.184,23.472 42,22.834 L 42,0 Z m -86,80 -12,0 0,-24.565 c 3.908,0.838 8.021,1.58 12,2.046 L -44,80 Z m 14,-22.338 0,22.338 -12,0 0,-22.308 c 2.071,0.195 4.089,0.308 6,0.308 2.015,0 4.024,-0.123 6,-0.338 M 12,80 0,80 0,48.593 c 2.822,-0.987 7.102,-2.378 12,-3.63 L 12,80 Z M -34,49 C -17.948,49 -2.215,41.226 -1.553,40.895 -1.43,40.85 18.382,33 34,33 c 11.435,0 25.306,4.204 32,6.489 L 66,68 c 0,6.627 -5.373,12 -12,12 l -12,0 0,-37.123 c 4.186,0.66 8.31,1.615 12,2.62 L 54,76 56,76 56,46.051 56,44 56,43.947 C 48.993,41.958 40.051,40 32,40 15.992,40 -3.547,47.742 -4.372,48.071 -4.605,48.185 -20.431,56 -36,56 c -6.675,0 -14.824,-1.431 -22,-3.078 l 0,2.071 0,9.007 0,16 c -6.627,0 -12,-5.373 -12,-12 l 0,-25.7 c 7.658,2.295 23.925,6.7 36,6.7 m 60,31 -12,0 0,-35.533 c 3.831,-0.913 7.952,-1.704 12,-2.13 L 26,80 Z m 44,-8 c 0,6.627 -5.373,12 -12,12 l -120,0 c -6.627,0 -12,-5.373 -12,-12 l 0,-64 c 0,-6.627 5.373,-12 12,-12 l 120,0 c 6.627,0 12,5.373 12,12 l 0,64 z M 94,196 93.998,-23.998 C 93.999,-28.417 90.417,-32 85.998,-32 L -70,-32 l -28,28 0,200 c 0,2.209 1.791,4 4,4 l 22,0 0,-52 c 0,-6.617 5.383,-12 12,-12 l 116,0 c 6.617,0 12,5.383 12,12 l 0,52 22,0 c 2.209,0 4,-1.791 4,-4 m -162,-48 0,52 132,0 0,-52 c 0,-4.418 -3.582,-8 -8,-8 l -116,0 c -4.418,0 -8,3.582 -8,8"
             style="fill:#f2f2f2;fill-opacity:1;fill-rule:nonzero;stroke:none"
             id="path4629"
             inkscape:connector-curvature="0" /></g></g></g></g></svg>