<?xml version="1.0" encoding="UTF-8" standalone="no"?>
<!-- Generator: Adobe Illustrator 16.0.0, SVG Export Plug-In . SVG Version: 6.00 Build 0)  -->

<svg
   xmlns:dc="http://purl.org/dc/elements/1.1/"
   xmlns:cc="http://creativecommons.org/ns#"
   xmlns:rdf="http://www.w3.org/1999/02/22-rdf-syntax-ns#"
   xmlns:svg="http://www.w3.org/2000/svg"
   xmlns="http://www.w3.org/2000/svg"
   xmlns:sodipodi="http://sodipodi.sourceforge.net/DTD/sodipodi-0.dtd"
   xmlns:inkscape="http://www.inkscape.org/namespaces/inkscape"
   version="1.1"
   id="Calque_1"
   x="0px"
   y="0px"
   width="64px"
   height="64px"
   viewBox="0 0 64 64"
   enable-background="new 0 0 64 64"
   xml:space="preserve"
   inkscape:version="0.48.5 r10040"
   sodipodi:docname="image.svg"
   inkscape:export-filename="/home/kivutar/Bureau/retroarch-assets/xmb/monochrome/png/image.png"
   inkscape:export-xdpi="360"
   inkscape:export-ydpi="360"><metadata
     id="metadata8"><rdf:RDF><cc:Work
         rdf:about=""><dc:format>image/svg+xml</dc:format><dc:type
           rdf:resource="http://purl.org/dc/dcmitype/StillImage" /><dc:title></dc:title></cc:Work></rdf:RDF></metadata><defs
     id="defs6" /><sodipodi:namedview
     pagecolor="#ffffff"
     bordercolor="#666666"
     borderopacity="1"
     objecttolerance="10"
     gridtolerance="10"
     guidetolerance="10"
     inkscape:pageopacity="0"
     inkscape:pageshadow="2"
     inkscape:window-width="1440"
     inkscape:window-height="836"
     id="namedview4"
     showgrid="true"
     inkscape:zoom="13.479223"
     inkscape:cx="40.793723"
     inkscape:cy="31.272047"
     inkscape:window-x="0"
     inkscape:window-y="27"
     inkscape:window-maximized="1"
     inkscape:current-layer="Calque_1"><inkscape:grid
       type="xygrid"
       id="grid2987"
       empspacing="4"
       visible="true"
       enabled="true"
       snapvisiblegridlinesonly="true" /></sodipodi:namedview><path
     style="fill:#f2f2f2;fill-opacity:1;stroke:none"
     d="M 20 14 C 18.892 14 18 14.892 18 16 L 18 48 C 18 49.108 18.892 50 20 50 L 44 50 C 45.108 50 46 49.108 46 48 L 46 16 C 46 14.892 45.108 14 44 14 L 20 14 z M 21 16 L 43 16 C 43.554 16 44 16.446 44 17 L 44 43 C 44 43.554 43.554 44 43 44 L 21 44 C 20.446 44 20 43.554 20 43 L 20 17 C 20 16.446 20.446 16 21 16 z "
     id="rect2989" /><path
     style="fill:#f2f2f2;fill-opacity:1;stroke:none"
     d="m 22,42 20,0 0,-7 -6,-6 -6,6 -3,-3 -5,5 z"
     id="path3761"
     inkscape:connector-curvature="0"
     sodipodi:nodetypes="cccccccc" /><path
     sodipodi:type="arc"
     style="fill:#f2f2f2;fill-opacity:1;stroke:none"
     id="path3763"
     sodipodi:cx="56"
     sodipodi:cy="28"
     sodipodi:rx="4"
     sodipodi:ry="4"
     d="m 60,28 a 4,4 0 1 1 -8,0 4,4 0 1 1 8,0 z"
     transform="matrix(0.5,0,0,0.5,-4,8)" /></svg>