<?xml version="1.0" encoding="UTF-8" standalone="no"?>
<!-- Created with Inkscape (http://www.inkscape.org/) -->

<svg
   xmlns:dc="http://purl.org/dc/elements/1.1/"
   xmlns:cc="http://creativecommons.org/ns#"
   xmlns:rdf="http://www.w3.org/1999/02/22-rdf-syntax-ns#"
   xmlns:svg="http://www.w3.org/2000/svg"
   xmlns="http://www.w3.org/2000/svg"
   xmlns:sodipodi="http://sodipodi.sourceforge.net/DTD/sodipodi-0.dtd"
   xmlns:inkscape="http://www.inkscape.org/namespaces/inkscape"
   id="svg3004"
   version="1.1"
   inkscape:version="0.92.1 r"
   width="256"
   height="256"
   xml:space="preserve"
   sodipodi:docname="Libretro - Pad.svg"
   inkscape:export-filename="/Volumes/Verbatim16/GitHub Projects/baxy-retroarch-themes/monochrome plus/png/Libretro - Pad.png"
   inkscape:export-xdpi="90.099998"
   inkscape:export-ydpi="90.099998"><metadata
     id="metadata3010"><rdf:RDF><cc:Work
         rdf:about=""><dc:format>image/svg+xml</dc:format><dc:type
           rdf:resource="http://purl.org/dc/dcmitype/StillImage" /><dc:title></dc:title></cc:Work></rdf:RDF></metadata><defs
     id="defs3008"><clipPath
       clipPathUnits="userSpaceOnUse"
       id="clipPath3018"><path
         d="M 0,256 256,256 256,0 0,0 0,256 z"
         id="path3020"
         inkscape:connector-curvature="0" /></clipPath></defs><sodipodi:namedview
     pagecolor="#ffffff"
     bordercolor="#666666"
     borderopacity="1"
     objecttolerance="10"
     gridtolerance="10"
     guidetolerance="10"
     inkscape:pageopacity="0"
     inkscape:pageshadow="2"
     inkscape:window-width="1440"
     inkscape:window-height="836"
     id="namedview3006"
     showgrid="true"
     inkscape:zoom="2.61875"
     inkscape:cx="62.692418"
     inkscape:cy="115.64303"
     inkscape:window-x="0"
     inkscape:window-y="27"
     inkscape:window-maximized="0"
     inkscape:current-layer="g3012"><inkscape:grid
       type="xygrid"
       id="grid27"
       empspacing="4"
       spacingy="4"
       spacingx="4" /></sodipodi:namedview><g
     id="g3012"
     inkscape:groupmode="layer"
     inkscape:label="Libretro - Pad"
     transform="matrix(1.25,0,0,-1.25,0,256)"><g
       id="g3014"
       transform="scale(0.8)"><g
         id="g3016"
         clip-path="url(#clipPath3018)"><g
           id="g3022"
           transform="translate(108,88)"><path
             d="m 0,0 c 0,-6.627 -5.373,-12 -12,-12 -6.627,0 -12,5.373 -12,12 0,6.627 5.373,12 12,12 C -5.373,12 0,6.627 0,0"
             style="fill:#f2f2f2;fill-opacity:1;fill-rule:nonzero;stroke:none"
             id="path3024"
             inkscape:connector-curvature="0" /></g><g
           id="g3026"
           transform="translate(172,88)"><path
             d="m 0,0 c 0,-6.627 -5.373,-12 -12,-12 -6.627,0 -12,5.373 -12,12 0,6.627 5.373,12 12,12 C -5.373,12 0,6.627 0,0"
             style="fill:#f2f2f2;fill-opacity:1;fill-rule:nonzero;stroke:none"
             id="path3028"
             inkscape:connector-curvature="0" /></g><g
           id="g3030"
           transform="translate(214,124)"><path
             d="m 0,0 c -5.522,0 -10,4.477 -10,10 0,5.523 4.478,10 10,10 C 5.522,20 10,15.523 10,10 10,4.477 5.522,0 0,0 m -16,-16 c -5.522,0 -10,4.478 -10,10 0,5.522 4.478,10 10,10 5.522,0 10,-4.478 10,-10 0,-5.522 -4.478,-10 -10,-10 m -26,26 c 0,5.523 4.478,10 10,10 5.522,0 10,-4.477 10,-10 0,-5.523 -4.478,-10 -10,-10 -5.522,0 -10,4.477 -10,10 m -12,-62 c -8.837,0 -16,7.163 -16,16 0,8.837 7.163,16 16,16 8.837,0 16,-7.163 16,-16 0,-8.837 -7.163,-16 -16,-16 m -20,48 c -2.209,0 -4,1.791 -4,4 0,2.209 1.791,4 4,4 h 8 c 2.209,0 4,-1.791 4,-4 0,-2.209 -1.791,-4 -4,-4 z m 58,40 c 5.522,0 10,-4.477 10,-10 0,-5.523 -4.478,-10 -10,-10 -5.522,0 -10,4.477 -10,10 0,5.523 4.478,10 10,10 M -98,-4 h -8 c -2.209,0 -4,1.791 -4,4 0,2.209 1.791,4 4,4 h 8 c 2.209,0 4,-1.791 4,-4 0,-2.209 -1.791,-4 -4,-4 m -20,-48 c -8.836,0 -16,7.163 -16,16 0,8.837 7.164,16 16,16 8.836,0 16,-7.163 16,-16 0,-8.837 -7.164,-16 -16,-16 m -28,38 c 0,-1.104 -0.896,-2 -2,-2 h -16 c -1.104,0 -2,0.896 -2,2 V 0 h -14 c -1.104,0 -2,0.896 -2,2 v 16 c 0,1.104 0.896,2 2,2 h 14 v 14 c 0,1.104 0.896,2 2,2 h 16 c 1.104,0 2,-0.896 2,-2 V 20 h 14 c 1.104,0 2,-0.896 2,-2 V 2 c 0,-1.104 -0.896,-2 -2,-2 h -14 z m 118,70 h -116 c -32.033,0 -58,-25.967 -58,-58 v -18 c 0,-22.092 17.909,-40 40,-40 h 51.719 c 2.675,0 5.172,1.337 6.656,3.562 l 3.25,4.875 c 1.484,2.226 3.981,3.563 6.656,3.563 h 15.438 c 2.675,0 5.173,-1.337 6.656,-3.563 l 2.953,-4.429 c 1.669,-2.504 4.48,-4.008 7.488,-4.008 L -10,-60 c 22.092,0 40,17.908 40,40 V -2 C 30,30.033 4.032,56 -28,56"
             style="fill:#f2f2f2;fill-opacity:1;fill-rule:nonzero;stroke:none"
             id="path3032"
             inkscape:connector-curvature="0" /></g><g
           id="g3034"
           transform="translate(176,188)"><path
             d="m 0,0 h -20 c -2.209,0 -4,-1.791 -4,-4 H 4 C 4,-1.791 2.209,0 0,0"
             style="fill:#f2f2f2;fill-opacity:1;fill-rule:nonzero;stroke:none"
             id="path3036"
             inkscape:connector-curvature="0" /></g><g
           id="g3038"
           transform="translate(228.2822,167.2861)"><path
             d="m 0,0 c 0.23,1.189 -0.06,2.484 -1.06,3.496 -10.513,10.628 -23.093,17.218 -39.222,17.218 -2.209,0 -4,-1.791 -4,-4 h 2 C -25.951,16.714 -11.085,10.356 0,0"
             style="fill:#f2f2f2;fill-opacity:1;fill-rule:nonzero;stroke:none"
             id="path3040"
             inkscape:connector-curvature="0" /></g><g
           id="g3042"
           transform="translate(70,184)"><path
             d="m 0,0 h 2 c 0,2.209 -1.791,4 -4,4 -16.129,0 -28.709,-6.59 -39.223,-17.218 -1,-1.011 -1.29,-2.307 -1.059,-3.496 C -31.197,-6.357 -16.331,0 0,0"
             style="fill:#f2f2f2;fill-opacity:1;fill-rule:nonzero;stroke:none"
             id="path3044"
             inkscape:connector-curvature="0" /></g><g
           id="g3046"
           transform="translate(100,188)"><path
             d="m 0,0 h -20 c -2.209,0 -4,-1.791 -4,-4 H 4 C 4,-1.791 2.209,0 0,0"
             style="fill:#f2f2f2;fill-opacity:1;fill-rule:nonzero;stroke:none"
             id="path3048"
             inkscape:connector-curvature="0" /></g><g
           id="g3050"
           transform="translate(64,134)"><path
             d="m 0,0 c 0,-3.313 -2.687,-6 -6,-6 -3.313,0 -6,2.687 -6,6 0,3.313 2.687,6 6,6 3.313,0 6,-2.687 6,-6"
             style="fill:#f2f2f2;fill-opacity:1;fill-rule:nonzero;stroke:none"
             id="path3052"
             inkscape:connector-curvature="0" /></g></g></g></g></svg>