<?xml version="1.0" encoding="UTF-8" standalone="no"?>
<!-- Generator: Adobe Illustrator 16.0.4, SVG Export Plug-In . SVG Version: 6.00 Build 0)  -->

<svg
   xmlns:dc="http://purl.org/dc/elements/1.1/"
   xmlns:cc="http://creativecommons.org/ns#"
   xmlns:rdf="http://www.w3.org/1999/02/22-rdf-syntax-ns#"
   xmlns:svg="http://www.w3.org/2000/svg"
   xmlns="http://www.w3.org/2000/svg"
   xmlns:sodipodi="http://sodipodi.sourceforge.net/DTD/sodipodi-0.dtd"
   xmlns:inkscape="http://www.inkscape.org/namespaces/inkscape"
   version="1.1"
   id="Layer_1"
   x="0px"
   y="0px"
   width="256px"
   height="256px"
   viewBox="0 0 256 256"
   enable-background="new 0 0 256 256"
   xml:space="preserve"
   inkscape:version="0.91 r13725"
   sodipodi:docname="MAME2003.svg"
   inkscape:export-filename="/home/lollo78/Scrivania/MAME2003.png"
   inkscape:export-xdpi="90"
   inkscape:export-ydpi="90"><metadata
     id="metadata9"><rdf:RDF><cc:Work
         rdf:about=""><dc:format>image/svg+xml</dc:format><dc:type
           rdf:resource="http://purl.org/dc/dcmitype/StillImage" /></cc:Work></rdf:RDF></metadata><defs
     id="defs7" /><sodipodi:namedview
     pagecolor="#ffffff"
     bordercolor="#666666"
     borderopacity="1"
     objecttolerance="10"
     gridtolerance="10"
     guidetolerance="10"
     inkscape:pageopacity="0"
     inkscape:pageshadow="2"
     inkscape:window-width="1855"
     inkscape:window-height="1056"
     id="namedview5"
     showgrid="false"
     inkscape:zoom="2.6074563"
     inkscape:cx="112.03835"
     inkscape:cy="95.453753"
     inkscape:window-x="65"
     inkscape:window-y="24"
     inkscape:window-maximized="1"
     inkscape:current-layer="Layer_1" /><path
     d="M 77.621094 92.830078 C 77.579219 92.836328 77.518812 92.865984 77.445312 92.958984 C 77.282313 93.127984 54.765625 115.64062 54.765625 115.64062 L 54.765625 93.394531 C 54.765625 93.173531 54.630859 93.140625 54.630859 93.140625 C 54.627859 93.139625 54.515875 93.074297 54.421875 93.154297 C 54.327875 93.234297 2.0449219 145.5293 2.0449219 145.5293 C 1.8969219 145.7453 2.1679687 145.72852 2.1679688 145.72852 L 23.066406 145.72852 L 44.419922 124.32227 C 44.419922 124.32227 44.452125 145.7785 44.453125 146.1875 C 44.442125 146.6685 44.814453 146.69922 44.814453 146.69922 C 44.818453 146.69922 45.195609 146.74222 45.349609 146.57422 C 45.524609 146.39922 64.023437 127.87305 64.023438 127.87305 L 64.058594 143.48828 L 44.472656 162.99609 C 44.320656 163.20509 44.578125 163.17773 44.578125 163.17773 L 44.582031 163.17578 L 65.777344 163.17578 C 65.978268 162.97686 101.03178 127.99556 101.05078 127.97656 L 101.0918 145.14844 C 101.0928 145.72844 101.41797 145.94241 101.41797 145.94141 L 101.41797 145.94336 C 101.41797 145.94336 101.6313 146.0948 101.7793 146.0918 L 124.75391 146.10547 L 124.75586 146.10547 L 146.29688 124.58008 L 146.33203 146.31055 C 146.35103 146.55655 146.61909 146.62009 146.62109 146.62109 L 146.62109 146.61914 C 146.63709 146.62414 146.82927 146.68045 147.07227 146.43945 L 165.85352 127.67578 L 165.85352 142.22266 L 162.62109 145.46875 C 162.43809 145.65375 162.50977 145.7168 162.50977 145.7168 C 162.50977 145.7168 162.58823 145.84489 162.74023 145.83789 L 166.18359 145.83789 L 166.30469 145.70312 L 181.20508 145.70703 C 181.68372 144.93344 181.93359 144.18125 181.93359 143.45117 C 181.93359 142.6041 181.6449 141.94728 181.06641 141.48242 C 180.48792 141.01756 179.67616 140.78516 178.63281 140.78516 C 177.65144 140.78516 176.55824 140.98245 175.34961 141.375 C 174.14098 141.75722 172.77635 142.35049 171.25781 143.15625 L 172.25 138.24414 C 173.65491 137.72763 175.03346 137.34558 176.38672 137.09766 C 177.73997 136.8394 179.07813 136.71094 180.40039 136.71094 C 182.75568 136.71094 184.60963 137.22145 185.96289 138.24414 C 187.31615 139.2565 187.99219 140.64035 187.99219 142.39648 C 187.99219 143.58482 187.72593 144.68739 187.21289 145.70898 L 191.95898 145.71094 C 192.50506 144.05444 193.21032 142.58012 194.09766 141.3125 C 195.16167 139.79396 196.42764 138.64781 197.89453 137.87305 C 199.36142 137.09828 201.01474 136.71094 202.85352 136.71094 C 205.36375 136.71094 207.29518 137.43268 208.64844 138.87891 C 210.01202 140.3148 210.69336 142.36606 210.69336 145.03125 C 210.69336 145.26068 210.677 145.48683 210.66992 145.71484 L 214.02148 145.7168 C 214.56781 144.05776 215.27563 142.58169 216.16406 141.3125 C 217.22807 139.79396 218.4921 138.64781 219.95898 137.87305 C 221.42587 137.09828 223.07919 136.71094 224.91797 136.71094 C 225.4193 136.71094 225.89052 136.747 226.3457 136.80469 L 230.23633 132.94141 C 230.51633 132.58141 230.33984 132.38872 230.33984 132.38672 C 230.33884 132.38272 230.28292 132.19822 230.04492 132.19922 L 195.38086 132.19922 L 201.37891 126.18945 L 212.38086 126.18945 L 225.47656 113.0957 C 225.64956 112.7127 225.4668 112.58203 225.4668 112.58203 C 225.4668 112.58203 225.42353 112.49858 225.26953 112.51758 L 215.21875 112.51758 C 215.22875 112.50858 215.23705 112.49728 215.24805 112.48828 L 220.90039 106.78906 L 241.56445 106.78906 L 253.85547 94.453125 C 254.10847 94.196125 253.95117 93.820313 253.95117 93.820312 C 253.95017 93.820312 253.95156 93.679688 253.60156 93.679688 L 214.07422 93.679688 L 214.07227 93.681641 L 179.61719 128.20117 L 179.61719 93.904297 C 179.61719 93.241297 179.49805 93.144531 179.49805 93.144531 L 179.49609 93.144531 C 179.49509 93.143531 179.34977 92.9785 178.88477 93.4375 C 178.72377 93.6065 156.61328 115.76172 156.61328 115.76172 C 156.61328 115.76172 156.58973 115.80786 156.55273 115.88086 L 156.54297 115.80664 L 156.54297 93.664062 C 156.54297 93.329063 156.29297 93.269531 156.29297 93.269531 L 156.29297 93.267578 C 156.29297 93.267578 155.91709 93.163344 155.49609 93.652344 C 155.33409 93.822344 114.95455 134.15483 114.93555 134.17383 L 114.94336 93.537109 C 114.94336 93.201109 114.68359 93.134766 114.68359 93.134766 C 114.68359 93.134766 114.31844 93.039344 113.89844 93.527344 C 113.73644 93.697344 77.775391 129.65039 77.775391 129.65039 C 77.775391 129.65039 77.771625 129.65988 77.765625 129.67188 L 77.757812 129.63477 L 77.765625 93.166016 C 77.765625 92.836016 77.687547 92.84375 77.685547 92.84375 L 77.685547 92.841797 C 77.685547 92.841797 77.662969 92.823828 77.621094 92.830078 z M 226.3457 136.80469 L 217.37305 145.7168 L 214.02148 145.7168 C 213.94528 145.94821 213.86252 146.17116 213.79297 146.41016 C 213.23514 148.35223 212.95508 150.33466 212.95508 152.35938 C 212.95508 155.05556 213.62778 157.1227 214.9707 158.55859 C 216.32396 159.99449 218.26598 160.71289 220.79688 160.71289 C 222.61499 160.71289 224.26302 160.33084 225.74023 159.56641 C 227.21745 158.79164 228.47618 157.64883 229.51953 156.14062 C 230.54222 154.67374 231.33809 152.96942 231.90625 151.02734 C 232.47441 149.08527 232.75781 147.08696 232.75781 145.03125 C 232.75781 142.36606 232.07648 140.3148 230.71289 138.87891 C 229.6299 137.72151 228.1697 137.03583 226.3457 136.80469 z M 210.66992 145.71484 L 204.78516 145.71289 C 204.77061 145.8548 204.7622 145.98038 204.74414 146.13086 C 204.65117 146.90562 204.51546 147.75249 204.33984 148.67188 C 204.13324 149.8082 203.91142 150.79607 203.67383 151.63281 C 203.43623 152.45923 203.17206 153.19685 202.88281 153.84766 C 202.4696 154.76704 201.9538 155.46426 201.33398 155.93945 C 200.7245 156.41464 200.02199 156.65234 199.22656 156.65234 C 198.35883 156.65234 197.7126 156.37953 197.28906 155.83203 C 196.86552 155.2742 196.6543 154.42204 196.6543 153.27539 C 196.6543 152.72789 196.70195 152.05519 196.79492 151.25977 C 196.88789 150.46434 197.02165 149.60159 197.19727 148.67188 C 197.38321 147.65952 197.59973 146.72459 197.84766 145.86719 C 197.86426 145.81208 197.88358 145.76528 197.90039 145.71094 L 191.95898 145.71094 C 191.88204 145.94434 191.79673 146.16904 191.72656 146.41016 C 191.16873 148.35223 190.89062 150.33466 190.89062 152.35938 C 190.89063 155.05556 191.56137 157.1227 192.9043 158.55859 C 194.25755 159.99449 196.19957 160.71289 198.73047 160.71289 C 200.54858 160.71289 202.19661 160.33084 203.67383 159.56641 C 205.15105 158.79164 206.41173 157.64883 207.45508 156.14062 C 208.47777 154.67374 209.27364 152.96942 209.8418 151.02734 C 210.34655 149.30202 210.61359 147.52986 210.66992 145.71484 z M 197.90039 145.71094 L 204.78516 145.71289 C 204.84552 145.12417 204.88281 144.5896 204.88281 144.14844 C 204.88281 142.99146 204.67688 142.14459 204.26367 141.60742 C 203.85046 141.05992 203.20953 140.78516 202.3418 140.78516 C 201.53604 140.78516 200.82823 141.01756 200.21875 141.48242 C 199.60927 141.93695 199.1021 142.63417 198.69922 143.57422 C 198.40923 144.20252 198.14515 144.91982 197.90039 145.71094 z M 187.21289 145.70898 L 181.20508 145.70703 C 181.16224 145.77627 181.12871 145.84447 181.08203 145.91406 C 180.5242 146.76114 179.70715 147.59741 178.63281 148.42383 L 168.79492 155.84766 L 167.92578 160.26367 L 184.72266 160.26367 L 185.57617 155.87695 L 175.51953 155.87695 L 181.29883 151.53906 C 184.10864 149.4317 185.92749 147.7572 186.75391 146.51758 C 186.92918 146.25467 187.07479 145.98398 187.21289 145.70898 z M 246.22461 136.71094 C 245.06763 136.71094 243.895 136.79175 242.70703 136.95703 C 241.52939 137.12231 240.33029 137.37061 239.11133 137.70117 L 238.25977 142.07227 C 239.37543 141.6384 240.4494 141.30734 241.48242 141.08008 C 242.51544 140.85281 243.47154 140.73828 244.34961 140.73828 C 245.59956 140.73828 246.55037 140.94617 247.20117 141.35938 C 247.8623 141.77258 248.19141 142.37116 248.19141 143.15625 C 248.19141 144.15828 247.716 144.95415 246.76562 145.54297 C 245.82558 146.13179 244.54567 146.42578 242.92383 146.42578 L 240.41406 146.42578 L 239.6543 150.26758 L 242.02539 150.26758 C 243.58525 150.26758 244.75258 150.49998 245.52734 150.96484 C 246.30211 151.41937 246.68945 152.10796 246.68945 153.02734 C 246.68945 154.13267 246.17699 155.01465 245.1543 155.67578 C 244.14194 156.32658 242.76338 156.65234 241.01758 156.65234 C 239.93291 156.65234 238.84834 156.508 237.76367 156.21875 C 236.679 155.91917 235.6772 155.50006 234.75781 154.96289 L 233.875 159.56641 C 234.94934 159.94862 236.0902 160.23203 237.29883 160.41797 C 238.51779 160.61424 239.79965 160.71289 241.14258 160.71289 C 244.69617 160.71289 247.48505 159.97331 249.50977 158.49609 C 251.54481 157.00855 252.5625 154.98376 252.5625 152.42188 C 252.5625 151.2339 252.23674 150.2321 251.58594 149.41602 C 250.93514 148.59993 250.02473 148.05765 248.85742 147.78906 C 250.52058 147.44817 251.80774 146.76683 252.7168 145.74414 C 253.63618 144.71112 254.0957 143.42396 254.0957 141.88477 C 254.0957 140.16995 253.43555 138.87946 252.11328 138.01172 C 250.80135 137.14398 248.83815 136.71094 246.22461 136.71094 z M 224.40625 140.78516 C 225.27399 140.78516 225.91492 141.05992 226.32812 141.60742 C 226.74133 142.14459 226.94727 142.99146 226.94727 144.14844 C 226.94727 144.69594 226.90157 145.35609 226.80859 146.13086 C 226.71562 146.90562 226.58186 147.75249 226.40625 148.67188 C 226.19965 149.8082 225.97783 150.79607 225.74023 151.63281 C 225.50264 152.45923 225.23846 153.19685 224.94922 153.84766 C 224.53601 154.76704 224.0202 155.46426 223.40039 155.93945 C 222.79091 156.41464 222.08839 156.65234 221.29297 156.65234 C 220.42523 156.65234 219.77901 156.37953 219.35547 155.83203 C 218.93193 155.2742 218.7207 154.42204 218.7207 153.27539 C 218.7207 152.72789 218.7664 152.05519 218.85938 151.25977 C 218.95235 150.46434 219.08611 149.60159 219.26172 148.67188 C 219.44766 147.65952 219.66614 146.72459 219.91406 145.86719 C 220.17232 145.00978 220.45572 144.24568 220.76562 143.57422 C 221.1685 142.63417 221.67372 141.93695 222.2832 141.48242 C 222.89268 141.01756 223.60049 140.78516 224.40625 140.78516 z "
     id="path3"
     style="fill:#f2f2f2;fill-opacity:1" /></svg>