<?xml version="1.0" encoding="UTF-8" standalone="no"?>
<!-- Generator: Adobe Illustrator 16.0.0, SVG Export Plug-In . SVG Version: 6.00 Build 0)  -->

<svg
   xmlns:dc="http://purl.org/dc/elements/1.1/"
   xmlns:cc="http://creativecommons.org/ns#"
   xmlns:rdf="http://www.w3.org/1999/02/22-rdf-syntax-ns#"
   xmlns:svg="http://www.w3.org/2000/svg"
   xmlns="http://www.w3.org/2000/svg"
   xmlns:sodipodi="http://sodipodi.sourceforge.net/DTD/sodipodi-0.dtd"
   xmlns:inkscape="http://www.inkscape.org/namespaces/inkscape"
   version="1.1"
   id="Calque_1"
   x="0px"
   y="0px"
   width="256"
   height="256"
   viewBox="0 0 256 256"
   enable-background="new 0 0 64 64"
   xml:space="preserve"
   inkscape:version="0.48.5 r10040"
   sodipodi:docname="NEC - PC Engine CD - TurboGrafx-CD-content.svg"
   inkscape:export-filename="/Volumes/Verbatim16/GitHub Projects/baxy-retroarch-themes/monochrome plus/contributions/svg/NEC - PC Engine CD - TurboGrafx-CD-content.png"
   inkscape:export-xdpi="90.099998"
   inkscape:export-ydpi="90.099998"><metadata
     id="metadata3132"><rdf:RDF><cc:Work
         rdf:about=""><dc:format>image/svg+xml</dc:format><dc:type
           rdf:resource="http://purl.org/dc/dcmitype/StillImage" /><dc:title></dc:title></cc:Work></rdf:RDF></metadata><defs
     id="defs3130" /><sodipodi:namedview
     pagecolor="#ffffff"
     bordercolor="#666666"
     borderopacity="1"
     objecttolerance="10"
     gridtolerance="10"
     guidetolerance="10"
     inkscape:pageopacity="0"
     inkscape:pageshadow="2"
     inkscape:window-width="1676"
     inkscape:window-height="1005"
     id="namedview3128"
     showgrid="false"
     inkscape:zoom="3.2734375"
     inkscape:cx="-6.3389021"
     inkscape:cy="32"
     inkscape:window-x="4"
     inkscape:window-y="1"
     inkscape:window-maximized="1"
     inkscape:current-layer="Calque_1" /><path
     id="CD"
     d="M 128,4 C 59.510667,4 4,59.515833 4,128 4,196.48417 59.510667,252 128,252 196.46867,252 252,196.48417 252,128 252,59.515833 196.46867,4 128,4 z m 0,170.50517 c -25.64733,0 -46.505167,-20.863 -46.505167,-46.50517 0,-25.64217 20.857837,-46.505167 46.505167,-46.505167 25.64217,0 46.5,20.862997 46.5,46.505167 0,25.64217 -20.85783,46.50517 -46.5,46.50517 z m 0,-10.33334 c -19.94333,0 -36.171833,-16.23883 -36.171833,-36.17183 0,-19.933 16.228503,-36.171833 36.171833,-36.171833 19.92267,0 36.16667,16.238833 36.16667,36.171833 0,19.933 -16.244,36.17183 -36.16667,36.17183 z m 0,-51.68216 c -8.54567,0 -15.51033,6.95433 -15.51033,15.51033 0,8.55083 6.96466,15.5 15.51033,15.5 8.55083,0 15.5,-6.94917 15.5,-15.5 0,-8.556 -6.94917,-15.51033 -15.5,-15.51033 z"
     inkscape:connector-curvature="0"
     style="fill:#f2f2f2" /></svg>