<?xml version="1.0" encoding="UTF-8" standalone="no"?>
<!-- Generator: Adobe Illustrator 16.0.0, SVG Export Plug-In . SVG Version: 6.00 Build 0)  -->

<svg
   xmlns:dc="http://purl.org/dc/elements/1.1/"
   xmlns:cc="http://creativecommons.org/ns#"
   xmlns:rdf="http://www.w3.org/1999/02/22-rdf-syntax-ns#"
   xmlns:svg="http://www.w3.org/2000/svg"
   xmlns="http://www.w3.org/2000/svg"
   xmlns:sodipodi="http://sodipodi.sourceforge.net/DTD/sodipodi-0.dtd"
   xmlns:inkscape="http://www.inkscape.org/namespaces/inkscape"
   version="1.1"
   id="svg2"
   inkscape:export-filename="/home/kivutar/Bureau/lakka-menu/reload.png"
   inkscape:export-xdpi="90"
   inkscape:version="0.48.5 r10040"
   inkscape:export-ydpi="90"
   sodipodi:docname="NEC - PC Engine CD - TurboGrafx-CD.svg"
   x="0px"
   y="0px"
   width="256"
   height="256"
   viewBox="0 128 256 256"
   enable-background="new 0 128 64 64"
   xml:space="preserve"><metadata
     id="metadata3290"><rdf:RDF><cc:Work
         rdf:about=""><dc:format>image/svg+xml</dc:format><dc:type
           rdf:resource="http://purl.org/dc/dcmitype/StillImage" /></cc:Work></rdf:RDF></metadata><defs
     id="defs3288" /><sodipodi:namedview
     id="base"
     pagecolor="#ffffff"
     inkscape:cy="35.835697"
     showgrid="true"
     inkscape:cx="-135.50629"
     inkscape:zoom="0.9899495"
     borderopacity="1.0"
     bordercolor="#666666"
     inkscape:window-height="1014"
     inkscape:document-units="px"
     inkscape:window-width="1503"
     inkscape:window-maximized="1"
     inkscape:pageshadow="2"
     inkscape:pageopacity="0.0"
     inkscape:window-y="1"
     inkscape:window-x="4"
     inkscape:current-layer="svg2"><inkscape:grid
       type="xygrid"
       id="grid2985"
       enabled="true"
       visible="true"
       empspacing="4"
       snapvisiblegridlinesonly="true" /></sodipodi:namedview><path
     id="PC_Engine"
     d="M 244.65834,215.77269 162.2069,204.68966 c 0,-2.22774 -2.04387,-4.27586 -4.27587,-4.27586 H 98.068966 c -2.227725,0 -4.275863,2.04812 -4.275863,4.27586 l -82.46,11.08303 C 7.3565517,216.36703 4,222.04537 4,226.06896 v 76.96552 c 0,4.46401 4.0962759,8.55172 8.551724,8.55172 H 243.44828 c 4.45972,0 8.55172,-4.09627 8.55172,-8.55171 v -76.96553 c 0,-4.02359 -3.35655,-9.70193 -7.34166,-10.29628 z M 46.758621,294.48275 h -4.275862 c -2.364552,0 -4.275862,-1.91131 -4.275862,-4.27586 v -8.55172 h -8.551725 c -2.364551,0 -4.275862,-1.91131 -4.275862,-4.27587 v -4.27586 c 0,-2.36455 1.911311,-4.27586 4.275862,-4.27586 h 8.551725 v -8.55172 c 0,-2.36456 1.91131,-4.27587 4.275862,-4.27587 h 4.275862 c 2.364551,0 4.275862,1.91131 4.275862,4.27587 v 8.55172 h 8.551724 c 2.364552,0 4.275862,1.91131 4.275862,4.27586 v 4.27586 c 0,2.36456 -1.91131,4.27587 -4.275862,4.27587 h -8.551724 v 8.55172 c 0,2.36455 -1.911311,4.27586 -4.275862,4.27586 z m 175.310349,8.55174 H 59.586207 c -6.058897,0 -5.041241,-3.51049 -4.275862,-4.27587 4.275862,-4.27587 12.827586,-8.55172 12.827586,-21.37931 0,-12.82758 -8.551724,-25.65517 -25.655172,-25.65517 -4.275862,0 -9.500966,1.736 -12.827587,4.27586 -4.806069,3.66442 -4.305793,-3.844 -4.275862,-4.27586 -0.05131,0.0513 0,-21.37931 0,-21.37931 0,-4.45545 4.087724,-8.55172 8.551724,-8.55172 h 42.758621 c 4.459724,0 8.551724,4.09627 8.551724,8.55172 0,24.44083 18.317791,42.75862 42.758621,42.75862 24.44083,0 42.75862,-18.31779 42.75862,-42.75862 0,-4.45545 4.09628,-8.55172 8.55172,-8.55172 h 42.75863 c 4.45544,0 8.55172,4.09627 8.55172,8.55172 v 38.48276 c 3.69862,3.30952 8.55172,8.55172 8.55172,17.10345 0,10.03117 -7.07227,17.10345 -17.10344,17.10345 z M 119.44828,281.65517 h -12.82759 c -2.77503,0 -4.27586,1.7702 -4.27586,4.27586 0,2.4971 1.50083,4.27587 4.27586,4.27587 h 12.82759 c 2.77931,0 4.27586,-1.77876 4.27586,-4.27587 0,-2.50565 -1.49655,-4.27586 -4.27586,-4.27586 z m 29.93103,0 h -12.82759 c -2.77503,0 -4.27586,1.7702 -4.27586,4.27586 0,2.4971 1.50083,4.27587 4.27586,4.27587 h 12.82759 c 2.77931,0 4.27586,-1.77876 4.27586,-4.27587 0,-2.50565 -1.49655,-4.27586 -4.27586,-4.27586 z m 72.68966,-8.55173 h -29.93104 c -7.08083,0 -12.82759,5.74676 -12.82759,12.82759 0,7.08083 5.74676,12.82758 12.82759,12.82758 h 29.93104 c 7.08082,0 12.82758,-5.74675 12.82758,-12.82758 0,-7.08083 -5.74676,-12.82759 -12.82758,-12.82759 z m -29.93104,21.37931 c -4.72055,0 -8.55172,-3.83117 -8.55172,-8.55172 0,-4.72055 3.83117,-8.55173 8.55172,-8.55173 4.72055,0 8.55173,3.83118 8.55173,8.55173 0,4.72055 -3.83118,8.55172 -8.55173,8.55172 z m 29.93104,0 c -4.72056,0 -8.55173,-3.83117 -8.55173,-8.55172 0,-4.72055 3.83117,-8.55173 8.55173,-8.55173 4.72055,0 8.55172,3.83118 8.55172,8.55173 0,4.72055 -3.83117,8.55172 -8.55172,8.55172 z"
     inkscape:connector-curvature="0"
     style="fill:#f2f2f2" /></svg>