<?xml version="1.0" encoding="UTF-8" standalone="no"?>
<!-- Created with Inkscape (http://www.inkscape.org/) -->

<svg
   xmlns:dc="http://purl.org/dc/elements/1.1/"
   xmlns:cc="http://creativecommons.org/ns#"
   xmlns:rdf="http://www.w3.org/1999/02/22-rdf-syntax-ns#"
   xmlns:svg="http://www.w3.org/2000/svg"
   xmlns="http://www.w3.org/2000/svg"
   xmlns:sodipodi="http://sodipodi.sourceforge.net/DTD/sodipodi-0.dtd"
   xmlns:inkscape="http://www.inkscape.org/namespaces/inkscape"
   id="svg4669"
   version="1.1"
   inkscape:version="0.91 r13725"
   xml:space="preserve"
   width="256"
   height="256"
   viewBox="0 0 256 256"
   sodipodi:docname="Nintendo - GameCube.svg"
   inkscape:export-filename="/Volumes/Verbatim16/GitHub Projects/baxy-retroarch-themes/monochrome plus/contributions/svg/Nintendo - GameCube.png"
   inkscape:export-xdpi="90.099998"
   inkscape:export-ydpi="90.099998"><metadata
     id="metadata4675"><rdf:RDF><cc:Work
         rdf:about=""><dc:format>image/svg+xml</dc:format><dc:type
           rdf:resource="http://purl.org/dc/dcmitype/StillImage" /><dc:title></dc:title></cc:Work></rdf:RDF></metadata><defs
     id="defs4673"><clipPath
       clipPathUnits="userSpaceOnUse"
       id="clipPath4683"><path
         d="M 0,256 256,256 256,0 0,0 0,256 Z"
         id="path4685"
         inkscape:connector-curvature="0" /></clipPath></defs><sodipodi:namedview
     pagecolor="#ffffff"
     bordercolor="#666666"
     borderopacity="1"
     objecttolerance="10"
     gridtolerance="10"
     guidetolerance="10"
     inkscape:pageopacity="0"
     inkscape:pageshadow="2"
     inkscape:window-width="640"
     inkscape:window-height="480"
     id="namedview4671"
     showgrid="false"
     inkscape:zoom="2.634375"
     inkscape:cx="102.11151"
     inkscape:cy="160"
     inkscape:current-layer="g4677" /><g
     id="g4677"
     inkscape:groupmode="layer"
     inkscape:label="Nintendo - GameCube"
     transform="matrix(1.25,0,0,-1.25,0,256)"><g
       id="g4679"
       transform="matrix(0.79999679,0,0,0.79999679,4.8222143e-4,1.6004774)"><g
         id="g4681"
         clip-path="url(#clipPath4683)"><g
           id="g4687"
           transform="translate(178,112.001)"><path
             d="m 0,0 c 0.004,-5.522 -4.479,-10.004 -10.001,-10.001 -5.523,-0.003 -9.998,4.48 -9.999,9.999 0,5.524 4.476,10 10.001,10.001 C -4.479,9.998 0.004,5.52 0,0"
             style="fill:#f2f2f2;fill-opacity:1;fill-rule:nonzero;stroke:none"
             id="path4689"
             inkscape:connector-curvature="0" /></g><g
           id="g4691"
           transform="translate(232.543,161.9087)"><path
             d="m 0,0 c -0.027,-0.217 -0.069,-0.417 -0.119,-0.625 -0.118,-0.519 -0.222,-0.851 -0.222,-0.851 l -0.083,0.016 c -0.624,-1.538 -1.785,-2.734 -3.359,-3.02 -2.62,-0.476 -5.174,1.623 -5.705,4.688 0,0 -0.342,5.956 -5.024,11.869 l 0.002,0.003 c -0.361,0.626 -0.628,1.336 -0.762,2.111 -0.532,3.065 1.162,5.935 3.782,6.411 0.378,0.069 0.74,-0.024 1.109,-0.058 l 0.047,0.097 c 0,0 0.252,-0.035 0.624,-0.132 0.094,-0.024 0.182,-0.048 0.274,-0.078 1.573,-0.498 4.928,-2.195 7.608,-7.955 C 0.75,6.932 0.41,2.26 0,0 m -30.543,-11.909 c -6.627,0 -12,5.373 -12,12 0,6.628 5.373,12 12,12 6.627,0 12,-5.372 12,-12 0,-6.627 -5.373,-12 -12,-12 m -12.221,26.992 c -0.627,-0.326 -1.33,-0.553 -2.09,-0.645 -3.001,-0.364 -5.694,1.471 -6.012,4.099 -0.046,0.379 0.064,0.734 0.117,1.099 l -0.091,0.052 c 0,0 0.047,0.248 0.161,0.612 0.029,0.092 0.057,0.178 0.091,0.268 0.569,1.536 2.399,4.778 8.133,7.131 5.519,2.266 10.032,1.678 12.203,1.151 0.209,-0.04 0.4,-0.092 0.6,-0.152 0.497,-0.145 0.813,-0.265 0.813,-0.265 l -0.019,-0.082 c 1.457,-0.702 2.554,-1.92 2.746,-3.498 0.318,-2.627 -1.858,-5.053 -4.86,-5.416 0,0 -5.797,-0.022 -11.789,-4.356 l -0.003,0.002 z m -21.78,-82.992 c -9.94,0.001 -17.997,8.061 -17.999,18.005 0.002,9.933 8.06,17.992 17.997,17.995 9.946,-0.003 18.004,-8.062 18.003,-17.998 0,-9.939 -8.057,-18.003 -18.001,-18.002 m 8.001,62 c 4.418,0 8,-3.581 8,-8 0,-4.418 -3.582,-8 -8,-8 -4.418,0 -8,3.582 -8,8 0,4.419 3.582,8 8,8 m -48,-4 c -3.313,0 -6,2.687 -6,6 0,3.314 2.687,6 6,6 3.314,0 6,-2.686 6,-6 0,-3.313 -2.686,-6 -6,-6 m -22,-34 c 1.105,0 2,-0.895 2,-2 l 0,-8 c 0,-1.104 -0.895,-2 -2,-2 l -8,0 0,-8 c 0,-1.104 -0.895,-2 -2,-2 l -8,0 c -1.104,0 -2,0.896 -2,2 l 0,8 -8,0 c -1.104,0 -2,0.896 -2,2 l 0,8 c 0,1.105 0.896,2 2,2 l 8,0 0,8 c 0,1.105 0.896,2 2,2 l 8,0 c 1.105,0 2,-0.895 2,-2 l 0,-8 8,0 z m -35.269,30.576 -13.464,-4.576 -12.584,5.186 -4.683,13.422 5.853,12.208 12.878,5.184 12.294,-5.488 4.975,-13.731 -5.269,-12.205 z M 7.811,-16.205 c 2.399,5.303 3.71,11.196 3.644,17.394 -0.201,18.994 -13.24,34.847 -30.82,39.504 -14.121,6.492 -29.178,4.472 -29.178,4.472 l 0.029,-0.021 c -27.245,9.648 -53.962,8.981 -56.029,8.913 -2.097,0.069 -29.576,0.75 -57.233,-9.352 -10.426,1.933 -16.294,-0.508 -19.445,-3.078 -19.811,-2.955 -35.102,-19.856 -35.32,-40.438 -0.03,-2.881 0.24,-5.696 0.775,-8.417 -1.279,-9.325 -10.307,-78.796 0.383,-108.015 1.429,-3.907 4.09,-7.33 7.76,-9.257 4.743,-2.488 11.715,-2.847 18.517,8.907 1.85,3.198 2.905,6.794 3.412,10.458 1.871,13.532 7.319,49.994 12.024,52.579 0,0 0.455,0.647 1.325,1.741 1.834,-2.599 3.607,-5.696 5.188,-9.43 0.076,-0.179 0.154,-0.354 0.227,-0.536 0.056,-0.134 0.117,-0.265 0.175,-0.408 l 0.007,0.006 c 4.373,-9.755 14.145,-16.607 25.578,-16.724 15.647,-0.164 28.462,12.332 28.626,27.908 0.084,8.032 -3.216,15.31 -8.576,20.508 l 0.008,0.003 c 0,0 -0.013,0.006 -0.028,0.014 -0.972,0.942 -2.012,1.814 -3.114,2.611 -1.251,1.312 -2.723,3.189 -4.128,5.761 7.168,2.089 15.119,3.328 23.839,3.144 10.121,0.214 19.211,-1.484 27.231,-4.213 -1.214,-2.034 -2.449,-3.569 -3.52,-4.692 -1.102,-0.797 -2.142,-1.669 -3.114,-2.611 -0.015,-0.008 -0.028,-0.014 -0.028,-0.014 l 0.008,-0.003 c -5.359,-5.198 -8.66,-12.476 -8.575,-20.508 0.164,-15.576 12.978,-28.072 28.626,-27.908 11.433,0.117 21.204,6.969 25.577,16.724 l 0.008,-0.006 c 0.058,0.143 0.117,0.274 0.174,0.408 0.074,0.182 0.151,0.357 0.227,0.536 1.072,2.531 2.232,4.772 3.438,6.766 4.472,-6.308 9.349,-39.002 11.099,-51.656 0.507,-3.664 1.562,-7.26 3.413,-10.458 6.801,-11.754 13.773,-11.395 18.516,-8.907 3.671,1.927 6.33,5.35 7.76,9.257 8.938,24.433 4.09,77.014 1.514,99.038"
             style="fill:#f2f2f2;fill-opacity:1;fill-rule:nonzero;stroke:none"
             id="path4693"
             inkscape:connector-curvature="0" /></g><g
           id="g4695"
           transform="translate(58,175.7324)"><path
             d="m 0,0 c 7.584,0 13.732,-6.148 13.732,-13.732 0,-7.584 -6.148,-13.733 -13.732,-13.733 -7.584,0 -13.732,6.149 -13.732,13.733 C -13.732,-6.148 -7.584,0 0,0"
             style="fill:#f2f2f2;fill-opacity:1;fill-rule:nonzero;stroke:none"
             id="path4697"
             inkscape:connector-curvature="0" /></g></g></g></g></svg>