<?xml version="1.0" encoding="UTF-8" standalone="no"?>
<!-- Generator: Adobe Illustrator 16.0.0, SVG Export Plug-In . SVG Version: 6.00 Build 0)  -->

<svg
   xmlns:dc="http://purl.org/dc/elements/1.1/"
   xmlns:cc="http://creativecommons.org/ns#"
   xmlns:rdf="http://www.w3.org/1999/02/22-rdf-syntax-ns#"
   xmlns:svg="http://www.w3.org/2000/svg"
   xmlns="http://www.w3.org/2000/svg"
   xmlns:sodipodi="http://sodipodi.sourceforge.net/DTD/sodipodi-0.dtd"
   xmlns:inkscape="http://www.inkscape.org/namespaces/inkscape"
   version="1.1"
   id="Calque_1"
   x="0px"
   y="0px"
   width="64"
   height="64"
   viewBox="0 0 64 64"
   enable-background="new 0 0 192 192"
   xml:space="preserve"
   inkscape:version="0.91 r13725"
   sodipodi:docname="Nintendo - Game Boy Color-content.svg"><metadata
     id="metadata9"><rdf:RDF><cc:Work
         rdf:about=""><dc:format>image/svg+xml</dc:format><dc:type
           rdf:resource="http://purl.org/dc/dcmitype/StillImage" /><dc:title /></cc:Work></rdf:RDF></metadata><defs
     id="defs7" /><sodipodi:namedview
     pagecolor="#ffffff"
     bordercolor="#666666"
     borderopacity="1"
     objecttolerance="10"
     gridtolerance="10"
     guidetolerance="10"
     inkscape:pageopacity="0"
     inkscape:pageshadow="2"
     inkscape:window-width="1440"
     inkscape:window-height="836"
     id="namedview5"
     showgrid="true"
     inkscape:zoom="6.7617086"
     inkscape:cx="-24.64167"
     inkscape:cy="28.896125"
     inkscape:window-x="0"
     inkscape:window-y="27"
     inkscape:window-maximized="1"
     inkscape:current-layer="Calque_1"><inkscape:grid
       type="xygrid"
       id="grid4139"
       empspacing="4"
       snapvisiblegridlinesonly="false" /></sodipodi:namedview><path
     d="m 51.73715,19.612678 c -0.161686,0 -0.293021,-0.131008 -0.293021,-0.292237 l 0,-0.189743 c 0,-0.161221 0.131335,-0.292237 0.293021,-0.292237 l 1.262566,0 0,-0.774216 -1.262566,0 c -0.161686,0 -0.293021,-0.130727 -0.293021,-0.292236 l 0,-0.189455 c 0,-0.16151 0.131335,-0.292237 0.293021,-0.292237 l 1.262566,0 0,-0.774216 -1.262566,0 c -0.161686,0 -0.293021,-0.131016 -0.293021,-0.292238 l 0,-0.189742 c 0,-0.16151 0.131335,-0.292237 0.293021,-0.292237 l 1.262566,0 0,-0.773937 -1.262566,0 c -0.161686,0 -0.293021,-0.131015 -0.293021,-0.292237 l 0,-0.190309 c 0,-0.161222 0.131335,-0.29195 0.293021,-0.29195 l 1.262566,0 0,-0.774216 -1.262566,0 c -0.161686,0 -0.293021,-0.130736 -0.293021,-0.292237 l 0,-0.189742 c 0,-0.161509 0.131335,-0.292237 0.293021,-0.292237 l 1.262566,0 0,-1.548433 C 52.999716,9.386364 51.606665,8 49.888259,8 L 14.11089,8 C 12.392767,8 11,9.386364 11,11.096586 l 0,1.548433 1.262,0 c 0.161686,0 0.293305,0.130728 0.293305,0.292237 l 0,0.189742 c 0,0.161501 -0.131619,0.292237 -0.293305,0.292237 l -1.262,0 0,0.774216 1.262,0 c 0.161686,0 0.293305,0.130728 0.293305,0.29195 l 0,0.19003 c 0,0.161221 -0.131619,0.292237 -0.293305,0.292237 l -1.262,0 0,0.773928 1.262,0 c 0.161686,0 0.293305,0.130736 0.293305,0.292238 l 0,0.189742 c 0,0.161229 -0.131619,0.292236 -0.293305,0.292236 l -1.262,0 0,0.774216 1.262,0 c 0.161686,0 0.293305,0.130737 0.293305,0.292238 l 0,0.189462 c 0,0.161509 -0.131619,0.292238 -0.293305,0.292238 l -1.262,0 0,0.774217 1.262,0 c 0.161686,0 0.293305,0.131015 0.293305,0.292236 l 0,0.189742 c 0,0.161222 -0.131619,0.292238 -0.293305,0.292238 l -1.262,0 0,19.355128 0,13.935328 L 11,56 14.11089,56 49.888542,56 53,56 l 0,-3.096866 0,-13.935327 0,-19.355129 -1.26285,0 z m -3.403911,30.193591 c 0,0.854976 -0.696668,1.548153 -1.555586,1.548153 l -29.555588,0 c -0.859204,0 -1.555588,-0.693177 -1.555588,-1.548153 l 0,-25.548294 c 0,-0.855246 0.696384,-1.548432 1.555588,-1.548432 l 29.555303,0 c 0.85892,0 1.555586,0.693186 1.555586,1.548432 l 0,25.548294 z"
     id="path3"
     inkscape:connector-curvature="0"
     style="fill:#f2f2f2" /></svg>