<?xml version="1.0" encoding="UTF-8" standalone="no"?>
<!-- Generator: Adobe Illustrator 16.0.0, SVG Export Plug-In . SVG Version: 6.00 Build 0)  -->

<svg
   xmlns:dc="http://purl.org/dc/elements/1.1/"
   xmlns:cc="http://creativecommons.org/ns#"
   xmlns:rdf="http://www.w3.org/1999/02/22-rdf-syntax-ns#"
   xmlns:svg="http://www.w3.org/2000/svg"
   xmlns="http://www.w3.org/2000/svg"
   xmlns:sodipodi="http://sodipodi.sourceforge.net/DTD/sodipodi-0.dtd"
   xmlns:inkscape="http://www.inkscape.org/namespaces/inkscape"
   version="1.1"
   id="svg2"
   inkscape:export-filename="/home/kivutar/Bureau/lakka-menu/reload.png"
   inkscape:export-xdpi="90"
   inkscape:version="0.48.4 r9939"
   inkscape:export-ydpi="90"
   sodipodi:docname="Nintendo - Famicom Disk System-content.svg"
   x="0px"
   y="0px"
   width="64px"
   height="64px"
   viewBox="0 128 64 64"
   enable-background="new 0 128 64 64"
   xml:space="preserve"><metadata
     id="metadata8"><rdf:RDF><cc:Work
         rdf:about=""><dc:format>image/svg+xml</dc:format><dc:type
           rdf:resource="http://purl.org/dc/dcmitype/StillImage" /><dc:title></dc:title></cc:Work></rdf:RDF></metadata><defs
     id="defs6" /><sodipodi:namedview
     pagecolor="#ffffff"
     bordercolor="#666666"
     borderopacity="1"
     objecttolerance="10"
     gridtolerance="10"
     guidetolerance="10"
     inkscape:pageopacity="0"
     inkscape:pageshadow="2"
     inkscape:window-width="1600"
     inkscape:window-height="851"
     id="namedview4"
     showgrid="true"
     inkscape:zoom="7.375"
     inkscape:cx="17.216559"
     inkscape:cy="40.174081"
     inkscape:window-x="0"
     inkscape:window-y="25"
     inkscape:window-maximized="1"
     inkscape:current-layer="svg2"><inkscape:grid
       type="xygrid"
       id="grid3059" /></sodipodi:namedview><path
     id="NES_1_"
     d="m 34,151 -4,0 0,-15 4,0 z m -7,6 c 0,-2.84746 2.288136,-5 5,-5 2.711864,0 5,2.20339 5,5 0,2.79661 -2.254237,5 -5,5 -2.745763,0 -5,-2.15254 -5,-5 z m 19,8 c 0.760303,0 1,0.2397 1,1 l 0,11 c 0,0.78427 -0.265034,1 -1,1 l -28,0 c -0.736333,0 -1,-0.2397 -1,-1 l 0,-11 c 0,-0.71236 0.383516,-1 1,-1 9.333333,0 18.666667,0 28,0 z m -2,2 c 0.553,0 1,0.447 1,1 l 0,7 c 0,0.553 -0.447,1 -1,1 l -24,0 c -0.553,0 -1,-0.447 -1,-1 l 0,-7 c 0,-0.553 0.447,-1 1,-1 8,0 16,0 24,0 z m -12,-6 c -2.271186,0 -4,-1.79235 -4,-4 0,-2.20765 1.809297,-4 4,-4 2.190703,0 4,1.72881 4,4 0,2.27119 -1.728814,4 -4,4 z m 0,-6 c -1.118644,0 -2,0.88136 -2,2 0,1.11864 0.881356,2 2,2 1.118644,0 2,-0.88983 2,-2 0,-1.11017 -0.881356,-2 -2,-2 z m 20,-21 -4,0 -1,1 -10,0 -1,-1 -8,0 -1,1 -10,0 -1,-1 -4,0 c -0.553,0 -1,0.447 -1,1 l 0,48 c 0,0.4714 0.528598,1 1,1 l 40,0 c 0.669423,0 1,-0.45031 1,-1 l 0,-48 c 0,-0.553 -0.449744,-1.05503 -1,-1 z"
     inkscape:connector-curvature="0"
     style="fill:#f2f2f2"
     sodipodi:nodetypes="ccccczzzzzcsssssscccsssssscczzzzzzzzzzsccccccccssssccss" /></svg>