<?xml version="1.0" encoding="UTF-8" standalone="no"?>
<!-- Generator: Adobe Illustrator 16.0.0, SVG Export Plug-In . SVG Version: 6.00 Build 0)  -->

<svg
   xmlns:dc="http://purl.org/dc/elements/1.1/"
   xmlns:cc="http://creativecommons.org/ns#"
   xmlns:rdf="http://www.w3.org/1999/02/22-rdf-syntax-ns#"
   xmlns:svg="http://www.w3.org/2000/svg"
   xmlns="http://www.w3.org/2000/svg"
   xmlns:sodipodi="http://sodipodi.sourceforge.net/DTD/sodipodi-0.dtd"
   xmlns:inkscape="http://www.inkscape.org/namespaces/inkscape"
   version="1.1"
   id="svg2"
   inkscape:export-filename="/home/kivutar/Bureau/lakka-menu/reload.png"
   inkscape:export-xdpi="90"
   inkscape:version="0.48.4 r9939"
   inkscape:export-ydpi="90"
   sodipodi:docname="Nintendo - Famicom Disk System.svg"
   x="0px"
   y="0px"
   width="64px"
   height="64px"
   viewBox="0 128 64 64"
   enable-background="new 0 128 64 64"
   xml:space="preserve"><metadata
     id="metadata8"><rdf:RDF><cc:Work
         rdf:about=""><dc:format>image/svg+xml</dc:format><dc:type
           rdf:resource="http://purl.org/dc/dcmitype/StillImage" /><dc:title /></cc:Work></rdf:RDF></metadata><defs
     id="defs6" /><sodipodi:namedview
     id="base"
     pagecolor="#ffffff"
     inkscape:cy="33.442345"
     showgrid="true"
     inkscape:cx="40.548551"
     inkscape:zoom="7.919596"
     borderopacity="1.0"
     bordercolor="#666666"
     inkscape:window-height="851"
     inkscape:document-units="px"
     inkscape:window-width="1600"
     inkscape:window-maximized="1"
     inkscape:pageshadow="2"
     inkscape:pageopacity="0.0"
     inkscape:window-y="25"
     inkscape:window-x="0"
     inkscape:current-layer="svg2"><inkscape:grid
       type="xygrid"
       id="grid2985"
       enabled="true"
       visible="true"
       empspacing="4"
       snapvisiblegridlinesonly="true" /></sodipodi:namedview><path
     id="NES"
     d="m 59.5,147 -55,0 C 3.993,147 3,147.992 3,148.5 l 0,1.5 1,1 c 0,1.33333 0,4.66667 0,6 l -1,1 0,13.5 c 0,0.508 0.992,1.5 1.5,1.5 l 55,0 c 0.508,0 1.5,-0.992 1.5,-1.5 l 0,-23 C 61,147.992 60.008,147 59.5,147 z M 59,170 c 0,0.507 -0.493,1 -1,1 l -52,0 c -0.51,0 -1,-0.492 -1,-1 l 0,-20 c 0,-0.507 0.492,-1 1,-1 l 19,0 c 0.589626,0 1,0.47351 1,1 l 0,8 c 0,0.53454 0.442919,1 1,1 l 31,0 c 0.527283,0 1,0.42987 1,1 z m -42,-9 -2,0 0,-2 c 0,0 0,-1 -1,-1 l -3,0 c -0.601,0 -1,0.42246 -1,1.134 l 0,1.866 -2,0 c -0.601,0 -1,0.398 -1,1 l 0,3 c 0,0.602 0.399,1 1,1 l 2,0 0,2 c 0,0.70296 0.309714,1 1,1 l 3,0 c 0.6,0 1,-0.399 1,-1 l 0,-2 2,0 c 0.725286,0 1,-0.401 1,-1 l 0,-3 c 0,-0.602 -0.398751,-0.96994 -1,-1 z m 0,3 c 0,1 0,1 -1,1 l -2,0 0,2 c 0,1 0,1 -1,1 l -1,0 c -1,0 -1,0 -1,-1 l 0,-2 -2,0 c -1,0 -1,0 -1,-1 l 0,-1 c 0,-1 0,-1 1,-1 l 2,0 0,-2 c 0,-1 0,-1 1,-1 l 1,0 c 1,0 1,0 1,1 l 0,2 2,0 c 1,0 1,0 1,1 z m 17,-1 c 0,0 -6.8,0 -8.9,0 -2.1,0 -3.088214,1.56207 -3.1,3 -0.01159,1.41417 1,3 3,3 2,0 9,0 9,0 2,0 3,-1.58579 3,-3 0,-1.41421 -1,-3 -3,-3 z m -6,3 c 0,1 -1,1 -1,1 l -2,0 c 0,0 -1,0 -1,-1 0,-1 1,-1 1,-1 l 2,0 c 0,0 1,0 1,1 z m 7,0 c 0,1 -0.491071,1 -1,1 l -2,0 c -0.419643,0 -1,0 -1,-1 0,-1 1,-1 1,-1 l 2,0 c 0,0 1,0 1,1 z m 9,-3 c -1.632257,0 -3,1.25749 -3,3 0,1.74251 1.331224,3 3,3 1.668776,0 3,-1.30213 3,-3 0,-1.69787 -1.367743,-3 -3,-3 z m 0,5 c -1.126321,0 -2,-0.87177 -2,-2 0,-1.12823 0.888901,-2 2,-2 1.111099,0 2,0.88236 2,2 0,1.11764 -0.873679,2 -2,2 z m 5,-2 c 0,1.69381 1.344299,3 3,3 1.655701,0 3,-1.25884 3,-3 0,-1.74116 -1.357375,-3 -3,-3 -1.642625,0 -3,1.30619 -3,3 z m 3,2 c -1.106476,0 -2,-0.85542 -2,-2 0,-1.14458 0.893524,-2 2,-2 1.106476,0 2,0.86495 2,2 0,1.13505 -0.893524,2 -2,2 z"
     inkscape:connector-curvature="0"
     style="fill:#f2f2f2"
     sodipodi:nodetypes="sssccccsssssssccssscssssssscsssscsssscsssscsssssscsssscsssscsssscsssszazcascsscssccsscssczzzzzzzzzzzzzzzzzzzz" /></svg>