<?xml version="1.0" encoding="UTF-8" standalone="no"?>
<!-- Generator: Adobe Illustrator 16.0.0, SVG Export Plug-In . SVG Version: 6.00 Build 0)  -->

<svg
   xmlns:dc="http://purl.org/dc/elements/1.1/"
   xmlns:cc="http://creativecommons.org/ns#"
   xmlns:rdf="http://www.w3.org/1999/02/22-rdf-syntax-ns#"
   xmlns:svg="http://www.w3.org/2000/svg"
   xmlns="http://www.w3.org/2000/svg"
   xmlns:sodipodi="http://sodipodi.sourceforge.net/DTD/sodipodi-0.dtd"
   xmlns:inkscape="http://www.inkscape.org/namespaces/inkscape"
   version="1.1"
   id="svg2"
   inkscape:export-filename="/home/lollo78/Scrivania/Nintendo - Pokemon Mini-content.png"
   inkscape:export-xdpi="360"
   inkscape:version="0.91 r13725"
   inkscape:export-ydpi="360"
   sodipodi:docname="Nintendo - Pokemon Mini-content.svg"
   x="0px"
   y="0px"
   width="64px"
   height="64px"
   viewBox="0 128 64 64"
   enable-background="new 0 128 64 64"
   xml:space="preserve"><metadata
     id="metadata8"><rdf:RDF><cc:Work
         rdf:about=""><dc:format>image/svg+xml</dc:format><dc:type
           rdf:resource="http://purl.org/dc/dcmitype/StillImage" /></cc:Work></rdf:RDF></metadata><defs
     id="defs6" /><sodipodi:namedview
     pagecolor="#ffffff"
     bordercolor="#666666"
     borderopacity="1"
     objecttolerance="10"
     gridtolerance="10"
     guidetolerance="10"
     inkscape:pageopacity="0"
     inkscape:pageshadow="2"
     inkscape:window-width="1295"
     inkscape:window-height="731"
     id="namedview4"
     showgrid="false"
     inkscape:zoom="5.2149125"
     inkscape:cx="41.393828"
     inkscape:cy="44.58011"
     inkscape:window-x="396"
     inkscape:window-y="110"
     inkscape:window-maximized="0"
     inkscape:current-layer="svg2"
     showguides="true"
     inkscape:guide-bbox="true" /><path
     style="display:inline;fill:#f2f2f2;fill-opacity:1"
     d="m 32.167541,140.33961 c -4.60243,-0.004 -9.192532,0.2993 -18.373984,0.91925 -1.801358,0.12163 -2.803877,1.43814 -2.803877,4.49732 l 0,6.99493 c 0.20263,1.03739 0.267346,0.79725 1.22742,0.79725 l 0,19.54696 c 0,1.3902 1.38928,2.0867 1.38928,2.0867 4.646762,3.49012 12.338486,4.47841 18.597211,4.47841 6.259399,0 13.948359,-0.98829 18.595809,-4.47841 0,0 1.38928,-1.23173 1.38928,-2.0867 l 0,-15.12123 -1.0995,0 0,-3.33178 1.0995,0 0,-1.09395 c 0.90472,-7.1e-4 0.81898,-0.2013 0.81979,-0.79725 l 0,-6.99493 c 0,-3.05918 -0.59307,-4.37902 -2.39625,-4.49732 -9.22827,-0.60537 -13.842252,-0.91561 -18.444679,-0.91925 z m -0.167768,8.08144 c 4.376776,0 10.464377,0.96182 13.713927,3.40248 l -27.429248,0 c 3.250012,-2.44066 9.338051,-3.40247 13.715321,-3.40248 z m -15.86302,6.21432 32.133667,0 0,12.59364 c 10e-6,0.65406 -1.06484,1.5931 -1.06484,1.5931 -3.55528,2.66994 -10.213562,3.72138 -15.001989,3.72138 -4.78788,0 -11.448621,-1.05144 -15.003387,-3.72138 0,0 -1.06345,-0.5296 -1.063451,-1.5931 z m 1.923085,2.3224 0,8.51592 c 0,0.90331 0.904001,1.35324 0.904001,1.35324 3.019288,2.26772 9.173101,3.16262 13.239752,3.16262 4.067116,0 10.220009,-0.8949 13.239739,-3.16262 0,0 0.90263,-0.79771 0.90261,-1.35324 l 0,-8.51592 z m 10.931216,18.26167 6.423685,0.0111 -3.227786,3.34147 z"
     id="Game_Gear-6"
     inkscape:connector-curvature="0"
     sodipodi:nodetypes="sssccscscsccccccssssccsccccscsccscscccccccc" /></svg>