<?xml version="1.0" encoding="UTF-8" standalone="no"?>
<!-- Generator: Adobe Illustrator 16.0.0, SVG Export Plug-In . SVG Version: 6.00 Build 0)  -->

<svg
   xmlns:dc="http://purl.org/dc/elements/1.1/"
   xmlns:cc="http://creativecommons.org/ns#"
   xmlns:rdf="http://www.w3.org/1999/02/22-rdf-syntax-ns#"
   xmlns:svg="http://www.w3.org/2000/svg"
   xmlns="http://www.w3.org/2000/svg"
   xmlns:sodipodi="http://sodipodi.sourceforge.net/DTD/sodipodi-0.dtd"
   xmlns:inkscape="http://www.inkscape.org/namespaces/inkscape"
   version="1.1"
   id="svg2"
   inkscape:export-filename="/home/lollo78/Scrivania/quake1.png"
   inkscape:export-xdpi="360"
   inkscape:version="0.91 r13725"
   inkscape:export-ydpi="360"
   sodipodi:docname="scu.svg"
   x="0px"
   y="0px"
   width="64px"
   height="64px"
   viewBox="0 128 64 64"
   enable-background="new 0 128 64 64"
   xml:space="preserve"><metadata
     id="metadata8"><rdf:RDF><cc:Work
         rdf:about=""><dc:format>image/svg+xml</dc:format><dc:type
           rdf:resource="http://purl.org/dc/dcmitype/StillImage" /></cc:Work></rdf:RDF></metadata><defs
     id="defs6" /><sodipodi:namedview
     pagecolor="#ffffff"
     bordercolor="#666666"
     borderopacity="1"
     objecttolerance="10"
     gridtolerance="10"
     guidetolerance="10"
     inkscape:pageopacity="0"
     inkscape:pageshadow="2"
     inkscape:window-width="873"
     inkscape:window-height="373"
     id="namedview4"
     showgrid="false"
     inkscape:zoom="7.3750001"
     inkscape:cx="-0.79531405"
     inkscape:cy="19.873415"
     inkscape:window-x="1034"
     inkscape:window-y="289"
     inkscape:window-maximized="0"
     inkscape:current-layer="layer1" /><g
     inkscape:groupmode="layer"
     id="layer1"
     inkscape:label="S"
     style="display:inline"><g
       transform="matrix(0.24909843,0,0,0.24920887,0.03826192,-70.455148)"
       id="layer1-6"
       inkscape:label="Livello 1"><g
         style="fill:#f2f2f2;fill-opacity:1"
         transform="matrix(0.29631271,0,0,0.2963127,18.138639,758.7618)"
         inkscape:label="Livello 1"
         id="layer1-3"><path
           inkscape:connector-curvature="0"
           style="fill:#f2f2f2;fill-opacity:1"
           d="m 371.80664,193.93359 c -304.042822,0 -366.2343744,61.7575 -366.2343744,366.23438 0,304.4769 61.2284914,366.23633 366.2343744,366.23633 305.0466,0 366.23438,-61.63735 366.23438,-366.23633 0,-304.62608 -62.19152,-366.23438 -366.23438,-366.23438 z m -95.17383,42.21875 2.62696,0 0,4.14844 0,4.14844 -5.51368,3.1543 c -9.77812,5.59238 -26.79341,17.26309 -30.61328,20.99804 -1.25186,1.22404 -5.27376,4.90575 -8.9375,8.18164 -14.11007,12.61645 -29.90426,32.38253 -39.23828,49.10352 -9.54073,17.09141 -17.90467,38.37923 -21.50976,54.75195 -4.99733,22.6956 -4.69534,19.66603 -4.75586,47.91016 -0.0386,17.96369 0.24843,28.03428 0.91015,31.93945 2.47842,14.62682 8.7583,37.19724 13.22461,47.52734 4.77629,11.04702 8.50377,19.05043 9.38477,20.15235 0.50163,0.62737 1.75734,2.85211 2.79101,4.94336 4.80861,9.72844 16.00251,24.97626 28.83203,39.27539 11.05521,12.32155 34.13007,30.52731 49.62305,39.15039 16.58252,9.2295 42.7821,19.32109 55.99219,21.56641 2.30039,0.39099 7.43479,1.34992 11.4082,2.13086 l 7.22266,1.41796 0.19726,-43.99414 c 0.22446,-50.31742 0.69385,-46.61505 -6.90234,-54.41406 l -3.88867,-3.99219 -12.00391,0 -12.00195,0 0,-3.38281 c 0,-2.50277 0.46646,-3.88673 1.79687,-5.32226 l 1.79883,-1.94141 57.55274,0 57.55273,0 1.86524,1.86719 c 1.43427,1.43426 1.86718,2.6662 1.86718,5.32226 l 0,3.45703 -12.25,0 -12.25,0 -4.13476,4.20313 c -7.48335,7.60387 -7.10742,4.67963 -7.10742,55.13086 0,24.19932 0.25664,44.14535 0.57031,44.32422 1.17343,0.66912 26.03304,-5.06672 35.55273,-8.20313 18.07572,-5.95534 25.11707,-8.721 34.2207,-13.43945 1.67303,-0.86712 4.7525,-2.45034 6.84376,-3.51953 2.09127,-1.06919 5.3808,-2.99987 7.31054,-4.28907 1.92978,-1.28916 5.5225,-3.57737 7.98438,-5.08593 13.24099,-8.11357 35.61163,-28.4462 45.50781,-41.36328 2.88392,-3.76427 6.0129,-7.70047 6.95312,-8.7461 2.07933,-2.3125 11.00855,-16.50353 15.33204,-24.36523 3.60277,-6.55111 10.66729,-22.04764 11.59961,-25.44532 0.34429,-1.25475 1.63682,-5.18899 2.87304,-8.74414 3.06343,-8.80991 7.43689,-27.64219 8.56446,-36.88281 1.63306,-13.38316 1.82161,-38.8239 0.38671,-52.09179 -1.34354,-12.42305 -6.04083,-33.89983 -9.31445,-42.58594 -1.0246,-2.71864 -2.15085,-5.96984 -2.50391,-7.22461 -1.53458,-5.45414 -8.81915,-20.67515 -16.01171,-33.45899 -8.61829,-15.31788 -26.02424,-36.28769 -40.16602,-48.38867 -4.45322,-3.81059 -9.29588,-7.97265 -10.75977,-9.24805 -3.44985,-3.00564 -18.84918,-13.30847 -24.71484,-16.53515 -6.79612,-3.73852 -7.22461,-4.23952 -7.22461,-8.45703 l 0,-3.6836 2.86524,0 c 2.72608,0 5.01139,1.03452 20.78125,9.40625 4.00087,2.12396 12.84385,8.049 15.13867,10.14453 0.62738,0.57289 4.04837,3.14 7.60351,5.70313 13.96391,10.06741 36.29731,32.11641 47.20899,46.60937 3.44376,4.57405 13.57529,19.72344 16.52929,24.71485 2.0572,3.47606 14.58985,28.79955 14.58985,29.48047 0,0.28841 1.15058,3.43944 2.55664,7.0039 3.04207,7.7117 7.50632,22.15958 8.81836,28.53516 0.51644,2.50952 1.59239,7.47024 2.39062,11.02539 0.79819,3.55515 1.62454,8.51782 1.83594,11.02734 0.21139,2.50952 0.74824,7.97615 1.19336,12.14844 2.22572,20.86356 0.24291,53.78033 -4.32812,71.86524 -1.00189,3.96381 -1.82032,7.73825 -1.82032,8.38671 0,1.68849 -5.68172,19.80432 -8.46484,26.99219 -3.63874,9.39776 -17.3686,36.94551 -20.66602,41.46485 -0.75483,1.0346 -3.32105,4.81339 -5.70312,8.39648 -15.54525,23.38309 -40.4368,48.18628 -63.06641,62.8418 -3.6651,2.3736 -6.83384,4.52261 -7.04297,4.77539 -0.57514,0.69522 -14.77576,8.56022 -21.70312,12.02148 -20.90369,10.44453 -49.49012,19.40786 -69.70703,21.85547 -5.14371,0.62271 -10.29314,1.32635 -11.44336,1.56445 l -2.08985,0.4336 0,37.81055 c 0,20.79575 -0.29719,38.13586 -0.66015,38.5332 -0.36296,0.39735 -1.40512,5.5136 -2.31446,11.36914 -2.36379,15.22171 -6.61776,41.85555 -9.23242,57.79492 -1.23495,7.52854 -2.7485,17.45195 -3.36328,22.05274 -0.61479,4.60076 -1.82259,12.12968 -2.68359,16.73046 -1.26143,6.74044 -2.95757,19.00017 -3.02539,21.86328 -0.008,0.31369 -1.06043,0.57032 -2.33985,0.57032 -1.27945,0 -2.16054,-0.27029 -1.95703,-0.59961 0.20354,-0.32931 -0.63581,-5.89013 -1.86523,-12.35742 -1.22946,-6.46731 -2.57468,-14.326 -2.99024,-17.46289 -0.41553,-3.13691 -1.76033,-11.1771 -2.98828,-17.86914 -1.22791,-6.69205 -2.54092,-14.22096 -2.91601,-16.73047 -0.71389,-4.77645 -3.0592,-18.27364 -7.40235,-42.58594 -1.41962,-7.94681 -2.79251,-16.41732 -3.05078,-18.82227 -0.25827,-2.40495 -0.78761,-4.37109 -1.17578,-4.37109 -0.42467,0 -0.70508,-15.26087 -0.70508,-38.31836 l 0,-38.31836 -7.79492,-0.85351 c -20.60275,-2.25902 -51.12035,-11.65455 -72.4043,-22.28907 -6.92738,-3.46126 -21.12795,-11.32626 -21.70312,-12.02148 -0.20912,-0.25278 -3.37787,-2.40179 -7.04297,-4.77539 -22.62961,-14.65552 -47.52312,-39.45871 -63.06836,-62.8418 -2.38208,-3.58309 -4.9483,-7.36188 -5.70313,-8.39648 -3.29742,-4.51934 -17.02724,-32.06709 -20.66601,-41.46485 -2.78311,-7.18787 -8.46289,-25.30371 -8.46289,-26.99219 0,-0.64846 -0.81843,-4.4229 -1.82031,-8.38671 -4.57102,-18.08491 -6.55387,-51.00168 -4.32813,-71.86524 0.4451,-4.17229 0.98196,-9.63892 1.19336,-12.14844 0.21141,-2.50952 1.03776,-7.47219 1.83594,-11.02734 0.7982,-3.55515 1.87419,-8.51587 2.39062,-11.02539 1.31203,-6.37558 5.77632,-20.82346 8.81836,-28.53516 1.40609,-3.56446 2.55664,-6.71549 2.55664,-7.0039 0,-0.68092 12.53267,-26.00441 14.58985,-29.48047 2.954,-4.99141 13.08551,-20.1408 16.52929,-24.71485 10.96152,-14.55919 34.38102,-37.63081 47.54297,-46.83789 3.23388,-2.26218 7.32696,-5.17543 9.09571,-6.47265 9.69491,-7.11052 31.33806,-18.55274 35.09179,-18.55274 z"
           id="Settings_1_-5" /></g></g></g></svg>