<?xml version="1.0" encoding="UTF-8" standalone="no"?>
<!-- Created with Inkscape (http://www.inkscape.org/) -->

<svg
   xmlns:dc="http://purl.org/dc/elements/1.1/"
   xmlns:cc="http://creativecommons.org/ns#"
   xmlns:rdf="http://www.w3.org/1999/02/22-rdf-syntax-ns#"
   xmlns:svg="http://www.w3.org/2000/svg"
   xmlns="http://www.w3.org/2000/svg"
   xmlns:sodipodi="http://sodipodi.sourceforge.net/DTD/sodipodi-0.dtd"
   xmlns:inkscape="http://www.inkscape.org/namespaces/inkscape"
   width="210mm"
   height="297mm"
   viewBox="0 0 744.09448819 1052.3622047"
   id="svg2"
   version="1.1"
   inkscape:version="0.91 r13725"
   sodipodi:docname="quake1.svg">
  <defs
     id="defs4" />
  <sodipodi:namedview
     id="base"
     pagecolor="#ffffff"
     bordercolor="#666666"
     borderopacity="1.0"
     inkscape:pageopacity="0.0"
     inkscape:pageshadow="2"
     inkscape:zoom="0.49497475"
     inkscape:cx="523.48581"
     inkscape:cy="769.02517"
     inkscape:document-units="px"
     inkscape:current-layer="layer1"
     showgrid="false"
     inkscape:window-width="1920"
     inkscape:window-height="1057"
     inkscape:window-x="-8"
     inkscape:window-y="-8"
     inkscape:window-maximized="1" />
  <metadata
     id="metadata7">
    <rdf:RDF>
      <cc:Work
         rdf:about="">
        <dc:format>image/svg+xml</dc:format>
        <dc:type
           rdf:resource="http://purl.org/dc/dcmitype/StillImage" />
        <dc:title></dc:title>
      </cc:Work>
    </rdf:RDF>
  </metadata>
  <g
     inkscape:label="Livello 1"
     inkscape:groupmode="layer"
     id="layer1">
    <path
       style="fill:#f2f2f2"
       d="M 371.80664 193.93359 C 67.763818 193.93359 5.5722656 255.69109 5.5722656 560.16797 C 5.5722656 864.64487 66.800757 926.4043 371.80664 926.4043 C 676.85324 926.4043 738.04102 864.76695 738.04102 560.16797 C 738.04102 255.54189 675.8495 193.93359 371.80664 193.93359 z M 276.63281 236.15234 L 279.25977 236.15234 L 279.25977 240.30078 L 279.25977 244.44922 L 273.74609 247.60352 C 263.96797 253.1959 246.95268 264.86661 243.13281 268.60156 C 241.88095 269.8256 237.85905 273.50731 234.19531 276.7832 C 220.08524 289.39965 204.29105 309.16573 194.95703 325.88672 C 185.4163 342.97813 177.05236 364.26595 173.44727 380.63867 C 168.44994 403.33427 168.75193 400.3047 168.69141 428.54883 C 168.65281 446.51252 168.93984 456.58311 169.60156 460.48828 C 172.07998 475.1151 178.35986 497.68552 182.82617 508.01562 C 187.60246 519.06264 191.32994 527.06605 192.21094 528.16797 C 192.71257 528.79534 193.96828 531.02008 195.00195 533.11133 C 199.81056 542.83977 211.00446 558.08759 223.83398 572.38672 C 234.88919 584.70827 257.96405 602.91403 273.45703 611.53711 C 290.03955 620.76661 316.23913 630.8582 329.44922 633.10352 C 331.74961 633.49451 336.88401 634.45344 340.85742 635.23438 L 348.08008 636.65234 L 348.27734 592.6582 C 348.5018 542.34078 348.97119 546.04315 341.375 538.24414 L 337.48633 534.25195 L 325.48242 534.25195 L 313.48047 534.25195 L 313.48047 530.86914 C 313.48047 528.36637 313.94693 526.98241 315.27734 525.54688 L 317.07617 523.60547 L 374.62891 523.60547 L 432.18164 523.60547 L 434.04688 525.47266 C 435.48115 526.90692 435.91406 528.13886 435.91406 530.79492 L 435.91406 534.25195 L 423.66406 534.25195 L 411.41406 534.25195 L 407.2793 538.45508 C 399.79595 546.05895 400.17188 543.13471 400.17188 593.58594 C 400.17188 617.78526 400.42852 637.73129 400.74219 637.91016 C 401.91562 638.57928 426.77523 632.84344 436.29492 629.70703 C 454.37064 623.75169 461.41199 620.98603 470.51562 616.26758 C 472.18865 615.40046 475.26812 613.81724 477.35938 612.74805 C 479.45065 611.67886 482.74018 609.74818 484.66992 608.45898 C 486.5997 607.16982 490.19242 604.88161 492.6543 603.37305 C 505.89529 595.25948 528.26593 574.92685 538.16211 562.00977 C 541.04603 558.2455 544.17501 554.3093 545.11523 553.26367 C 547.19456 550.95117 556.12378 536.76014 560.44727 528.89844 C 564.05004 522.34733 571.11456 506.8508 572.04688 503.45312 C 572.39117 502.19837 573.6837 498.26413 574.91992 494.70898 C 577.98335 485.89907 582.35681 467.06679 583.48438 457.82617 C 585.11744 444.44301 585.30599 419.00227 583.87109 405.73438 C 582.52755 393.31133 577.83026 371.83455 574.55664 363.14844 C 573.53204 360.4298 572.40579 357.1786 572.05273 355.92383 C 570.51815 350.46969 563.23358 335.24868 556.04102 322.46484 C 547.42273 307.14696 530.01678 286.17715 515.875 274.07617 C 511.42178 270.26558 506.57912 266.10352 505.11523 264.82812 C 501.66538 261.82248 486.26605 251.51965 480.40039 248.29297 C 473.60427 244.55445 473.17578 244.05345 473.17578 239.83594 L 473.17578 236.15234 L 476.04102 236.15234 C 478.7671 236.15234 481.05241 237.18686 496.82227 245.55859 C 500.82314 247.68255 509.66612 253.60759 511.96094 255.70312 C 512.58832 256.27601 516.00931 258.84312 519.56445 261.40625 C 533.52836 271.47366 555.86176 293.52266 566.77344 308.01562 C 570.2172 312.58967 580.34873 327.73906 583.30273 332.73047 C 585.35993 336.20653 597.89258 361.53002 597.89258 362.21094 C 597.89258 362.49935 599.04316 365.65038 600.44922 369.21484 C 603.49129 376.92654 607.95554 391.37442 609.26758 397.75 C 609.78402 400.25952 610.85997 405.22024 611.6582 408.77539 C 612.45639 412.33054 613.28274 417.29321 613.49414 419.80273 C 613.70553 422.31225 614.24238 427.77888 614.6875 431.95117 C 616.91322 452.81473 614.93041 485.7315 610.35938 503.81641 C 609.35749 507.78022 608.53906 511.55466 608.53906 512.20312 C 608.53906 513.89161 602.85734 532.00744 600.07422 539.19531 C 596.43548 548.59307 582.70562 576.14082 579.4082 580.66016 C 578.65337 581.69476 576.08715 585.47355 573.70508 589.05664 C 558.15983 612.43973 533.26828 637.24292 510.63867 651.89844 C 506.97357 654.27204 503.80483 656.42105 503.5957 656.67383 C 503.02056 657.36905 488.81994 665.23405 481.89258 668.69531 C 460.98889 679.13984 432.40246 688.10317 412.18555 690.55078 C 407.04184 691.17349 401.89241 691.87713 400.74219 692.11523 L 398.65234 692.54883 L 398.65234 730.35938 C 398.65234 751.15513 398.35515 768.49524 397.99219 768.89258 C 397.62923 769.28993 396.58707 774.40618 395.67773 780.26172 C 393.31394 795.48343 389.05997 822.11727 386.44531 838.05664 C 385.21036 845.58518 383.69681 855.50859 383.08203 860.10938 C 382.46724 864.71014 381.25944 872.23906 380.39844 876.83984 C 379.13701 883.58028 377.44087 895.84001 377.37305 898.70312 C 377.36505 899.01681 376.31262 899.27344 375.0332 899.27344 C 373.75375 899.27344 372.87266 899.00315 373.07617 898.67383 C 373.27971 898.34452 372.44036 892.7837 371.21094 886.31641 C 369.98148 879.8491 368.63626 871.99041 368.2207 868.85352 C 367.80517 865.71661 366.46037 857.67642 365.23242 850.98438 C 364.00451 844.29233 362.6915 836.76342 362.31641 834.25391 C 361.60252 829.47746 359.25721 815.98027 354.91406 791.66797 C 353.49444 783.72116 352.12155 775.25065 351.86328 772.8457 C 351.60501 770.44075 351.07567 768.47461 350.6875 768.47461 C 350.26283 768.47461 349.98242 753.21374 349.98242 730.15625 L 349.98242 691.83789 L 342.1875 690.98438 C 321.58475 688.72536 291.06715 679.32983 269.7832 668.69531 C 262.85582 665.23405 248.65525 657.36905 248.08008 656.67383 C 247.87096 656.42105 244.70221 654.27204 241.03711 651.89844 C 218.4075 637.24292 193.51399 612.43973 177.96875 589.05664 C 175.58667 585.47355 173.02045 581.69476 172.26562 580.66016 C 168.9682 576.14082 155.23838 548.59307 151.59961 539.19531 C 148.8165 532.00744 143.13672 513.8916 143.13672 512.20312 C 143.13672 511.55466 142.31829 507.78022 141.31641 503.81641 C 136.74539 485.7315 134.76254 452.81473 136.98828 431.95117 C 137.43338 427.77888 137.97024 422.31225 138.18164 419.80273 C 138.39305 417.29321 139.2194 412.33054 140.01758 408.77539 C 140.81578 405.22024 141.89177 400.25952 142.4082 397.75 C 143.72023 391.37442 148.18452 376.92654 151.22656 369.21484 C 152.63265 365.65038 153.7832 362.49935 153.7832 362.21094 C 153.7832 361.53002 166.31587 336.20653 168.37305 332.73047 C 171.32705 327.73906 181.45856 312.58967 184.90234 308.01562 C 195.86386 293.45643 219.28336 270.38481 232.44531 261.17773 C 235.67919 258.91555 239.77227 256.0023 241.54102 254.70508 C 251.23593 247.59456 272.87908 236.15234 276.63281 236.15234 z "
       id="Settings_1_" />
  </g>
</svg>
