<?xml version="1.0" encoding="UTF-8" standalone="no"?>
<!-- Generator: Adobe Illustrator 16.0.0, SVG Export Plug-In . SVG Version: 6.00 Build 0)  -->

<svg
   xmlns:dc="http://purl.org/dc/elements/1.1/"
   xmlns:cc="http://creativecommons.org/ns#"
   xmlns:rdf="http://www.w3.org/1999/02/22-rdf-syntax-ns#"
   xmlns:svg="http://www.w3.org/2000/svg"
   xmlns="http://www.w3.org/2000/svg"
   xmlns:sodipodi="http://sodipodi.sourceforge.net/DTD/sodipodi-0.dtd"
   xmlns:inkscape="http://www.inkscape.org/namespaces/inkscape"
   version="1.1"
   id="svg2"
   inkscape:export-filename="/home/lollo78/Scrivania/CAZ contenuti"
   inkscape:export-xdpi="360"
   inkscape:version="0.91 r13725"
   inkscape:export-ydpi="360"
   sodipodi:docname="ScummVM-content.svg"
   x="0px"
   y="0px"
   width="64px"
   height="64px"
   viewBox="0 128 64 64"
   enable-background="new 0 128 64 64"
   xml:space="preserve"><metadata
     id="metadata8"><rdf:RDF><cc:Work
         rdf:about=""><dc:format>image/svg+xml</dc:format><dc:type
           rdf:resource="http://purl.org/dc/dcmitype/StillImage" /></cc:Work></rdf:RDF></metadata><defs
     id="defs6" /><sodipodi:namedview
     pagecolor="#ffffff"
     bordercolor="#666666"
     borderopacity="1"
     objecttolerance="10"
     gridtolerance="10"
     guidetolerance="10"
     inkscape:pageopacity="0"
     inkscape:pageshadow="2"
     inkscape:window-width="1615"
     inkscape:window-height="1026"
     id="namedview4"
     showgrid="false"
     inkscape:zoom="7.375"
     inkscape:cx="24.092478"
     inkscape:cy="3.8143056"
     inkscape:window-x="1985"
     inkscape:window-y="24"
     inkscape:window-maximized="1"
     inkscape:current-layer="svg2" /><path
     style="fill:#f2f2f2;fill-opacity:1"
     d="m 29.348461,221.61571 c -3.127545,-1.50844 -5.584416,-2.58745 -6.271718,-5.74701 0.250421,-2.34475 1.675049,-3.22292 2.824452,-4.67113 1.792605,-1.82775 0.204787,-1.98659 -0.983522,-4.02421 -2.25467,-5.2488 -0.05841,-10.50758 5.895742,-12.20175 4.290752,-0.85926 7.401468,-0.10437 10.762342,2.38518 3.723187,2.47388 1.98845,4.26349 0.27558,7.21793 -0.658272,1.9642 0.581106,2.83992 1.423312,4.4376 0.877882,1.55749 1.060588,3.67916 1.005258,5.3896 -0.522149,3.38101 -2.87154,5.79947 -6.247603,7.23751 -2.754729,0.7653 -5.965085,0.75972 -8.683843,-0.0237 z m 7.076426,-1.40393 c 4.363372,-1.11112 6.596629,-4.12889 6.056326,-8.18388 -0.402372,-3.01981 -2.040906,-4.86877 -6.489713,-7.32315 -2.68442,-1.48099 -3.271458,-2.0517 -2.989409,-2.90634 0.457407,-1.38595 3.688842,-0.60455 6.293662,1.52189 0.381317,0.31129 0.554934,0.38751 0.819809,0.35996 0.832325,-0.0866 2.256053,-3.47221 1.688744,-4.01579 -5.50227,-5.27209 -14.679564,-4.35263 -16.117346,1.61479 -0.88673,3.68029 0.795829,6.49273 5.650954,9.44567 3.191151,1.9409 3.676724,2.38037 3.676724,3.32762 0,2.04845 -4.120335,1.33178 -6.966661,-1.21176 -0.822766,-0.73524 -0.79302,-0.75001 -2.24486,1.11502 -1.418486,1.82219 -1.391414,1.75174 -0.920089,2.39383 2.433304,3.31482 7.298304,4.94275 11.541859,3.86214 z"
     id="path3349"
     inkscape:connector-curvature="0"
     sodipodi:nodetypes="ccccccccccccsssscsssssssss" /><path
     style="fill:none;fill-opacity:1"
     d="m 27.805958,42.570634 c -1.302924,-0.282896 -2.881471,-0.946911 -4.056471,-1.706351 -1.230055,-0.795022 -2.75093,-2.391885 -2.75093,-2.888372 0,-0.339461 2.391983,-3.467466 2.651568,-3.467466 0.08677,0 0.63609,0.371429 1.220712,0.825397 2.807077,2.179743 6.482639,2.734977 6.482639,0.979275 0,-0.875146 -0.37641,-1.236358 -3.222807,-3.092681 -3.224781,-2.10309 -4.892548,-3.660015 -5.70693,-5.327634 -0.484241,-0.991586 -0.560092,-1.362494 -0.549003,-2.684609 0.03638,-4.33834 3.453573,-7.045517 8.519951,-6.749705 2.672172,0.156021 5.320026,1.211908 7.209188,2.874815 1.00824,0.887489 1.012729,1.153587 0.05322,3.155071 -0.771063,1.608398 -1.091309,1.674846 -2.714872,0.563311 -2.737691,-1.874297 -5.506326,-2.242897 -5.506326,-0.733081 0,0.6966 0.427476,1.070598 2.876366,2.516525 4.020191,2.373688 5.084967,3.336215 6.083792,5.49957 0.443885,0.961412 0.517613,1.375737 0.5233,2.940777 0.0057,1.567686 -0.0625,1.968759 -0.489098,2.876367 -0.911459,1.939179 -2.283853,3.117761 -4.679811,4.018913 -1.279086,0.481084 -4.555424,0.701477 -5.94449,0.399878 z"
     id="path3351"
     inkscape:connector-curvature="0"
     transform="translate(0,128)" /><path
     style="fill:none;fill-opacity:1"
     d="m 27.805958,42.570634 c -1.302924,-0.282896 -2.881471,-0.946911 -4.056471,-1.706351 -1.230055,-0.795022 -2.75093,-2.391885 -2.75093,-2.888372 0,-0.339461 2.391983,-3.467466 2.651568,-3.467466 0.08677,0 0.63609,0.371429 1.220712,0.825397 2.807077,2.179743 6.482639,2.734977 6.482639,0.979275 0,-0.875146 -0.37641,-1.236358 -3.222807,-3.092681 -3.224781,-2.10309 -4.892548,-3.660015 -5.70693,-5.327634 -0.484241,-0.991586 -0.560092,-1.362494 -0.549003,-2.684609 0.03638,-4.33834 3.453573,-7.045517 8.519951,-6.749705 2.672172,0.156021 5.320026,1.211908 7.209188,2.874815 1.00824,0.887489 1.012729,1.153587 0.05322,3.155071 -0.771063,1.608398 -1.091309,1.674846 -2.714872,0.563311 -2.737691,-1.874297 -5.506326,-2.242897 -5.506326,-0.733081 0,0.6966 0.427476,1.070598 2.876366,2.516525 4.020191,2.373688 5.084967,3.336215 6.083792,5.49957 0.443885,0.961412 0.517613,1.375737 0.5233,2.940777 0.0057,1.567686 -0.0625,1.968759 -0.489098,2.876367 -0.911459,1.939179 -2.283853,3.117761 -4.679811,4.018913 -1.279086,0.481084 -4.555424,0.701477 -5.94449,0.399878 z"
     id="path3355"
     inkscape:connector-curvature="0"
     transform="translate(0,128)" /><path
     style="fill:#f2f2f2;fill-opacity:1"
     d="m 35.35089,172.38742 c 4.932617,-1.25609 7.457225,-4.66755 6.846434,-9.25154 -0.454866,-3.41379 -2.307162,-5.50396 -7.336363,-8.27854 -3.034628,-1.67421 -3.69825,-2.31936 -3.379407,-3.2855 0.517081,-1.56677 4.170089,-0.68343 7.114734,1.72043 0.431064,0.35191 0.627331,0.43807 0.926762,0.40692 0.94091,-0.0978 2.550378,-3.9252 1.909058,-4.53969 -6.220098,-5.95989 -16.594662,-4.92047 -18.220016,1.82545 -1.002413,4.16043 0.899651,7.33978 6.388177,10.67795 3.60747,2.19412 4.156389,2.69092 4.156389,3.76175 0,2.3157 -4.657873,1.50552 -7.875531,-1.36985 -0.930104,-0.83115 -0.896478,-0.84785 -2.537725,1.2605 -1.603542,2.05991 -1.572937,1.98027 -1.040124,2.70612 2.750753,3.74726 8.250441,5.58758 13.047612,4.366 z"
     id="path3349-2"
     inkscape:connector-curvature="0"
     sodipodi:nodetypes="sssscsssssssss" /></svg>