<?xml version="1.0" encoding="UTF-8" standalone="no"?>
<!-- Generator: Adobe Illustrator 16.0.0, SVG Export Plug-In . SVG Version: 6.00 Build 0)  -->

<svg
   xmlns:dc="http://purl.org/dc/elements/1.1/"
   xmlns:cc="http://creativecommons.org/ns#"
   xmlns:rdf="http://www.w3.org/1999/02/22-rdf-syntax-ns#"
   xmlns:svg="http://www.w3.org/2000/svg"
   xmlns="http://www.w3.org/2000/svg"
   xmlns:sodipodi="http://sodipodi.sourceforge.net/DTD/sodipodi-0.dtd"
   xmlns:inkscape="http://www.inkscape.org/namespaces/inkscape"
   version="1.1"
   id="svg2"
   inkscape:export-filename="/home/kivutar/Bureau/lakka-menu/reload.png"
   inkscape:export-xdpi="90"
   inkscape:version="0.48.4 r9939"
   inkscape:export-ydpi="90"
   sodipodi:docname="Sega - Mega Drive - Genesis-content.svg"
   x="0px"
   y="0px"
   width="64px"
   height="64px"
   viewBox="0 128 64 64"
   enable-background="new 0 128 64 64"
   xml:space="preserve"><metadata
     id="metadata8"><rdf:RDF><cc:Work
         rdf:about=""><dc:format>image/svg+xml</dc:format><dc:type
           rdf:resource="http://purl.org/dc/dcmitype/StillImage" /></cc:Work></rdf:RDF></metadata><defs
     id="defs6" /><sodipodi:namedview
     pagecolor="#ffffff"
     bordercolor="#666666"
     borderopacity="1"
     objecttolerance="10"
     gridtolerance="10"
     guidetolerance="10"
     inkscape:pageopacity="0"
     inkscape:pageshadow="2"
     inkscape:window-width="1600"
     inkscape:window-height="851"
     id="namedview4"
     showgrid="true"
     inkscape:zoom="7.375"
     inkscape:cx="42.905971"
     inkscape:cy="26.820488"
     inkscape:window-x="0"
     inkscape:window-y="25"
     inkscape:window-maximized="1"
     inkscape:current-layer="svg2"><inkscape:grid
       type="xygrid"
       id="grid3104" /></sodipodi:namedview><path
     id="Megadrive_3_"
     d="m 50,143 0,28 c 0,0.925 -1.075,2 -2,2 l -32,0 c -0.925,0 -2,-1.075 -2,-2 l 0,-28 -7,0 c -0.462,0 -1,0.538 -1,1 l 0,34 52,0 0,-34 c 0,-0.462 -0.537,-1 -1,-1 z m -2,0 0,27 c 0,0.553 -0.447,1 -1,1 l -30,0 c -0.553,0 -1,-0.447 -1,-1 l 0,-27 z"
     inkscape:connector-curvature="0"
     style="fill:#f2f2f2"
     sodipodi:nodetypes="cssssccsccscccsssscc" /></svg>