<?xml version="1.0" encoding="UTF-8" standalone="no"?>
<!-- Generator: Adobe Illustrator 16.0.0, SVG Export Plug-In . SVG Version: 6.00 Build 0)  -->

<svg
   xmlns:dc="http://purl.org/dc/elements/1.1/"
   xmlns:cc="http://creativecommons.org/ns#"
   xmlns:rdf="http://www.w3.org/1999/02/22-rdf-syntax-ns#"
   xmlns:svg="http://www.w3.org/2000/svg"
   xmlns="http://www.w3.org/2000/svg"
   xmlns:sodipodi="http://sodipodi.sourceforge.net/DTD/sodipodi-0.dtd"
   xmlns:inkscape="http://www.inkscape.org/namespaces/inkscape"
   version="1.1"
   id="svg2"
   inkscape:export-filename="/home/lollo78/Scrivania/Sega - PICO-content.png"
   inkscape:export-xdpi="360"
   inkscape:version="0.91 r13725"
   inkscape:export-ydpi="360"
   sodipodi:docname="Sega - PICO-content.svg"
   x="0px"
   y="0px"
   width="64px"
   height="64px"
   viewBox="0 128 64 64"
   enable-background="new 0 128 64 64"
   xml:space="preserve"><metadata
     id="metadata8"><rdf:RDF><cc:Work
         rdf:about=""><dc:format>image/svg+xml</dc:format><dc:type
           rdf:resource="http://purl.org/dc/dcmitype/StillImage" /></cc:Work></rdf:RDF></metadata><defs
     id="defs6" /><sodipodi:namedview
     pagecolor="#ffffff"
     bordercolor="#666666"
     borderopacity="1"
     objecttolerance="10"
     gridtolerance="10"
     guidetolerance="10"
     inkscape:pageopacity="0"
     inkscape:pageshadow="2"
     inkscape:window-width="1615"
     inkscape:window-height="1026"
     id="namedview4"
     showgrid="false"
     inkscape:zoom="7.375"
     inkscape:cx="36.907631"
     inkscape:cy="40.204665"
     inkscape:window-x="1985"
     inkscape:window-y="24"
     inkscape:window-maximized="1"
     inkscape:current-layer="svg2"><inkscape:grid
       type="xygrid"
       id="grid4151" /></sodipodi:namedview><path
     style="fill:#f2f2f2"
     d="m 13.918729,137.21514 c -1,0 -1,0 -1,1 l 0,39.16406 c -0.0029,1.02692 1.997055,2.02692 3,2 l 7.058594,0 0,5.58008 c 0,0.19504 0.277594,0.35156 0.621094,0.35156 l 17.787175,0 c 0.3435,0 0.625832,-0.15658 0.621094,-0.35156 l 0,-5.58008 6.957031,0 c 1.001702,0.0269 3.001702,-0.97308 3,-2 l 0,-35.77343 c 0,-2.19807 0.0026,-4.39063 -3.710937,-4.39063 z m 2,2 33.044988,0 c 0.553,0 1,0.447 1,1 l 0,30.58789 c 0,0.553 -0.447,1 -1,1 l -33.044988,0 c -0.553,0 -1,-0.447 -1,-1 l 0,-3.34179 2,0 0,1.34179 c 0,0.553 0.447,1 1,1 l 29.044988,0 c 0.553,0 1,-0.447 1,-1 l 0,-26.58789 c 0,-0.553 -0.447,-1 -1,-1 l -29.044988,0 c -0.553,0 -1,0.447 -1,1 l 0,1.16992 -2,0 0,-3.16992 c 0,-0.553 0.447,-1 1,-1 z m -1,7.06055 2,0 0,7.70117 -2,0 z m 0,10.59375 2,0 0,7.69922 -2,0 z"
     id="Vectrex_3_"
     inkscape:connector-curvature="0"
     sodipodi:nodetypes="sscccsssscccssssssssssccssssssssccsscccccccccc" /></svg>