<?xml version="1.0" encoding="UTF-8" standalone="no"?>
<!-- Generator: Adobe Illustrator 16.0.0, SVG Export Plug-In . SVG Version: 6.00 Build 0)  -->

<svg
   xmlns:osb="http://www.openswatchbook.org/uri/2009/osb"
   xmlns:dc="http://purl.org/dc/elements/1.1/"
   xmlns:cc="http://creativecommons.org/ns#"
   xmlns:rdf="http://www.w3.org/1999/02/22-rdf-syntax-ns#"
   xmlns:svg="http://www.w3.org/2000/svg"
   xmlns="http://www.w3.org/2000/svg"
   xmlns:sodipodi="http://sodipodi.sourceforge.net/DTD/sodipodi-0.dtd"
   xmlns:inkscape="http://www.inkscape.org/namespaces/inkscape"
   version="1.1"
   id="svg2"
   inkscape:export-filename="/home/lollo78/Scrivania/no typo/Sinclair - ZX Spectrum +3.png"
   inkscape:export-xdpi="360"
   inkscape:version="0.91 r13725"
   inkscape:export-ydpi="360"
   sodipodi:docname="Sinclair - ZX Spectrum +3.svg"
   x="0px"
   y="0px"
   width="64px"
   height="64px"
   viewBox="0 128 64 64"
   enable-background="new 0 128 64 64"
   xml:space="preserve"><metadata
     id="metadata8"><rdf:RDF><cc:Work
         rdf:about=""><dc:format>image/svg+xml</dc:format><dc:type
           rdf:resource="http://purl.org/dc/dcmitype/StillImage" /></cc:Work></rdf:RDF></metadata><defs
     id="defs6"><linearGradient
       osb:paint="solid"
       id="linearGradient5709"><stop
         id="stop5711"
         offset="0"
         style="stop-color:#f2f2f2;stop-opacity:1;" /></linearGradient></defs><sodipodi:namedview
     pagecolor="#ffffff"
     bordercolor="#666666"
     borderopacity="1"
     objecttolerance="10"
     gridtolerance="10"
     guidetolerance="10"
     inkscape:pageopacity="0"
     inkscape:pageshadow="2"
     inkscape:window-width="1855"
     inkscape:window-height="1056"
     id="namedview4"
     showgrid="false"
     showguides="true"
     inkscape:guide-bbox="true"
     inkscape:zoom="8.0000005"
     inkscape:cx="12.029186"
     inkscape:cy="35.414008"
     inkscape:window-x="65"
     inkscape:window-y="24"
     inkscape:window-maximized="1"
     inkscape:current-layer="g4234"
     inkscape:snap-grids="true" /><g
     id="g4302" /><path
     style="fill:#000000"
     d=""
     id="path4170"
     inkscape:connector-curvature="0" /><g
     transform="translate(-426.85252,-972.83871)"
     id="layer1"
     inkscape:label="Livello 1" /><g
     id="g4234"
     transform="matrix(1.0321426,0,0,1.0321426,-1.0289409,-5.2244645)"><g
       id="g4148"
       transform="translate(0,-1.2110729)"><path
         transform="translate(0,128)"
         style="fill:#f2f2f2;stroke:none;stroke-width:1;stroke-miterlimit:4;stroke-dasharray:none"
         d="m 4.2675781,18.984375 c -0.702558,0 -1.4179687,0.714699 -1.4179687,1.417969 l 0,5.33789 58.3242186,0 0,-5.33789 c 0,-0.70327 -0.715411,-1.417969 -1.417969,-1.417969 z M 2.8496094,27.125 l 0,3.269531 5.8359375,0 0,0.832031 -5.8359375,0 0,2.476563 5.8359375,0 0,0.832031 -5.8359375,0 0,2.47461 5.8359375,0 0,0.832031 -5.8359375,0 0,2.476562 5.8359375,0 0,0.832032 -5.8359375,0 0,2.476562 5.8359375,0 0,0.890625 -5.8359375,0 0,4.160156 c 0,0.70468 0.7154107,1.417969 1.4179687,1.417969 l 55.4882809,0 c 0.702558,0 1.417969,-0.713289 1.417969,-1.417969 l 0,-21.552734 z m 8.3867186,3.214844 2.126953,0 c 0.392043,0 0.708985,0.316934 0.708985,0.708984 l 0,2.125 c 0,0.39204 -0.316942,0.708984 -0.708985,0.708984 l -2.126953,0 c -0.392044,0 -0.708984,-0.316944 -0.708984,-0.708984 l 0,-2.125 c 0,-0.39205 0.31694,-0.708984 0.708984,-0.708984 z m 4.211088,0 2.126954,0 c 0.392043,0 0.708984,0.316934 0.708984,0.708984 l 0,2.125 c 0,0.39204 -0.316941,0.708984 -0.708984,0.708984 l -2.126954,0 c -0.392043,0 -0.708984,-0.316944 -0.708984,-0.708984 l 0,-2.125 c 0,-0.39205 0.316941,-0.708984 0.708984,-0.708984 z m 4.211089,0 2.126953,0 c 0.392043,0 0.707031,0.316934 0.707031,0.708984 l 0,2.125 c 0,0.39204 -0.314988,0.708984 -0.707031,0.708984 l -2.126953,0 c -0.392044,0 -0.708985,-0.316944 -0.708985,-0.708984 l 0,-2.125 c 0,-0.39205 0.316941,-0.708984 0.708985,-0.708984 z m 4.209135,0 2.126953,0 c 0.392043,0 0.708984,0.316934 0.708984,0.708984 l 0,2.125 c 0,0.39204 -0.316941,0.708984 -0.708984,0.708984 l -2.126953,0 c -0.392043,0 -0.708985,-0.316944 -0.708985,-0.708984 l 0,-2.125 c 0,-0.39205 0.316942,-0.708984 0.708985,-0.708984 z m 4.168271,0 2.126953,0 c 0.392043,0 0.708985,0.316934 0.708985,0.708984 l 0,2.125 c 0,0.39204 -0.316942,0.708984 -0.708985,0.708984 l -2.126953,0 c -0.392043,0 -0.708984,-0.316944 -0.708984,-0.708984 l 0,-2.125 c 0,-0.39205 0.316941,-0.708984 0.708984,-0.708984 z m 4.211088,0 2.126953,0 c 0.392043,0 0.708985,0.316934 0.708985,0.708984 l 0,2.125 c 0,0.39204 -0.316942,0.708984 -0.708985,0.708984 l -2.126953,0 c -0.392043,0 -0.708984,-0.316944 -0.708984,-0.708984 l 0,-2.125 c 0,-0.39205 0.316941,-0.708984 0.708984,-0.708984 z m 4.144682,0 2.126953,0 c 0.392044,0 0.708985,0.316934 0.708985,0.708984 l 0,2.125 c 0,0.39204 -0.316941,0.708984 -0.708985,0.708984 l -2.126953,0 c -0.392043,0 -0.708984,-0.316944 -0.708984,-0.708984 l 0,-2.125 c 0,-0.39205 0.316941,-0.708984 0.708984,-0.708984 z m 4.075719,0.01953 2.101562,0 c 0.392044,0 0.708985,0.316944 0.708985,0.708984 l 0,2.126953 c 0,0.392041 -0.316941,0.708985 -0.708985,0.708985 l -2.101562,0 c -0.392044,0 -0.708984,-0.316944 -0.708984,-0.708985 l 0,-2.126953 c 0,-0.39204 0.31694,-0.708984 0.708984,-0.708984 z m 4.134162,0.02539 2.126954,0 c 0.392044,0 0.708984,0.316934 0.708984,0.708984 l 0,2.125 c 0,0.39204 -0.31694,0.708984 -0.708984,0.708984 l -2.126954,0 c -0.392043,0 -0.708984,-0.316944 -0.708984,-0.708984 l 0,-2.125 c 0,-0.39205 0.316942,-0.708984 0.708984,-0.708984 z m 4.978516,-0.03324 9.429688,0 c 0.17971,0 0.361328,0.559475 0.361328,1.109375 l 0,14.988587 c 0,0.551 -0.181618,1.109375 -0.361328,1.109375 l -9.429688,0 c -0.17971,0 -0.363281,-0.558375 -0.363281,-1.109375 l 0,-14.988587 c 0,-0.5499 0.183571,-1.109375 0.363281,-1.109375 z m -38.34375,4.550819 6.179688,0 c 0.392035,0 0.708984,0.316944 0.708984,0.708984 l 0,2.126953 c 0,0.39204 -0.316941,0.708985 -0.708984,0.708985 l -6.179688,0 c -0.392044,0 -0.708984,-0.316945 -0.708984,-0.708985 l 0,-2.126953 c 0,-0.39204 0.316931,-0.708984 0.708984,-0.708984 z m 8.306641,0 2.126953,0 c 0.392043,0 0.708984,0.316944 0.708984,0.708984 l 0,2.126953 c 0,0.39204 -0.316941,0.708985 -0.708984,0.708985 l -2.126953,0 c -0.392044,0 -0.708985,-0.316945 -0.708985,-0.708985 l 0,-2.126953 c 0,-0.39204 0.316941,-0.708984 0.708985,-0.708984 z m 4.251953,0 2.126953,0 c 0.392043,0 0.708984,0.316944 0.708984,0.708984 l 0,2.126953 c 0,0.39204 -0.316941,0.708985 -0.708984,0.708985 l -2.126953,0 c -0.392043,0 -0.708984,-0.316945 -0.708984,-0.708985 l 0,-2.126953 c 0,-0.39204 0.316941,-0.708984 0.708984,-0.708984 z m 4.253906,0 2.126953,0 c 0.392043,0 0.708985,0.316944 0.708985,0.708984 l 0,2.126953 c 0,0.39204 -0.316942,0.708985 -0.708985,0.708985 l -2.126953,0 c -0.392043,0 -0.708984,-0.316945 -0.708984,-0.708985 l 0,-2.126953 c 0,-0.39204 0.316941,-0.708984 0.708984,-0.708984 z m 4.253906,0 2.126954,0 c 0.392043,0 0.708984,0.316944 0.708984,0.708984 l 0,2.126953 c 0,0.39204 -0.316941,0.708985 -0.708984,0.708985 l -2.126954,0 c -0.392043,0 -0.708984,-0.316945 -0.708984,-0.708985 l 0,-2.126953 c 0,-0.39204 0.316941,-0.708984 0.708984,-0.708984 z m 4.253907,0 2.091797,0 c 0.392043,0 0.708984,0.316944 0.708984,0.708984 l 0,2.126953 c 0,0.39204 -0.316941,0.708985 -0.708984,0.708985 l -2.091797,0 c -0.392043,0 -0.708985,-0.316945 -0.708985,-0.708985 l 0,-2.126953 c 0,-0.39204 0.316942,-0.708984 0.708985,-0.708984 z m 4.154297,0.03516 2.126953,0 c 0.392043,0 0.708984,0.316934 0.708984,0.708984 l 0,2.126954 c 0,0.39205 -0.316941,0.708984 -0.708984,0.708984 l -2.126953,0 c -0.392044,0 -0.708985,-0.316935 -0.708985,-0.708984 l 0,-2.126954 c 0,-0.39205 0.316941,-0.708984 0.708985,-0.708984 z m 4.003906,0.01758 2.02539,0 c 0.392044,0 0.708985,0.316935 0.708985,0.708984 l 0,6.667969 c 0,0.39204 -0.316941,0.708985 -0.708985,0.708985 l -5.882812,0 c -0.392043,0 -0.708984,-0.316945 -0.708984,-0.708985 l 0,-2.126953 c 0,-0.39204 0.317353,-0.697996 0.709231,-0.709366 l 2.603717,0.0054 c 0,0 0.701987,0.0043 0.714866,-0.685362 0,0 0.0028,-2.225186 0,-3.15164 0,-0.39205 0.146528,-0.708984 0.538563,-0.708984 z m -7.947266,4.50586 2.126953,0 c 0.392044,0 0.708985,0.316934 0.708985,0.708984 l 0,2.126953 c 0,0.39204 -0.316941,0.708984 -0.708985,0.708984 l -2.126953,0 c -0.392043,0 -0.708984,-0.316944 -0.708984,-0.708984 l 0,-2.126953 c 0,-0.39205 0.316941,-0.708984 0.708984,-0.708984 z m -25.53125,0.0039 6.390625,0 c 0.392042,0 0.708985,0.316934 0.708985,0.708984 l 0,2.126953 c 0,0.39205 -0.316943,0.708985 -0.708985,0.708985 l -6.390625,0 c -0.392044,0 -0.708984,-0.316935 -0.708984,-0.708985 l 0,-2.126953 c 0,-0.39205 0.31694,-0.708984 0.708984,-0.708984 z m 8.507813,0 2.126953,0 c 0.392043,0 0.707031,0.316934 0.707031,0.708984 l 0,2.126953 c 0,0.39205 -0.314988,0.708985 -0.707031,0.708985 l -2.126953,0 c -0.392044,0 -0.708985,-0.316935 -0.708985,-0.708985 l 0,-2.126953 c 0,-0.39205 0.316941,-0.708984 0.708985,-0.708984 z m 4.251953,0 2.126953,0 c 0.392043,0 0.708984,0.316934 0.708984,0.708984 l 0,2.126953 c 0,0.39205 -0.316941,0.708985 -0.708984,0.708985 l -2.126953,0 c -0.392043,0 -0.708985,-0.316935 -0.708985,-0.708985 l 0,-2.126953 c 0,-0.39205 0.316942,-0.708984 0.708985,-0.708984 z m 4.253906,0 2.126953,0 c 0.392043,0 0.708985,0.316934 0.708985,0.708984 l 0,2.126953 c 0,0.39205 -0.316942,0.708985 -0.708985,0.708985 l -2.126953,0 c -0.392043,0 -0.708984,-0.316935 -0.708984,-0.708985 l 0,-2.126953 c 0,-0.39205 0.316941,-0.708984 0.708984,-0.708984 z m 4.253906,0 2.126953,0 c 0.392043,-3e-5 0.708985,0.316934 0.708985,0.708984 l 0,2.126953 c 0,0.39205 -0.316942,0.708985 -0.708985,0.708985 l -2.126953,0 c -0.392043,0 -0.708984,-0.316935 -0.708984,-0.708985 l 0,-2.126953 c 0,-0.39205 0.316941,-0.708984 0.708984,-0.708984 z m -21.267578,4.5625 2.126953,0 c 0.392043,0 0.708985,0.316944 0.708985,0.708984 l 0,2.126953 c 0,0.39204 -0.316942,0.708985 -0.708985,0.708985 l -2.126953,0 c -0.392044,0 -0.708984,-0.316945 -0.708984,-0.708985 l 0,-2.126953 c 0,-0.39204 0.31694,-0.708984 0.708984,-0.708984 z m 4.253906,0 2.126954,0 c 0.392043,0 0.708984,0.316944 0.708984,0.708984 l 0,2.126953 c 0,0.39204 -0.316941,0.708985 -0.708984,0.708985 l -2.126954,0 c -0.392052,0 -0.708984,-0.316945 -0.708984,-0.708985 l 0,-2.126953 c 0,-0.39204 0.708904,-0.316944 0.708984,-0.708984 z m 4.253907,0 9.923828,0 c 0.392043,0 0.708984,0.316944 0.708984,0.708984 l 0,2.126953 c 0,0.39204 -0.316941,0.708985 -0.708984,0.708985 l -9.923828,0 c -0.392044,0 -0.708985,-0.316945 -0.708985,-0.708985 l 0,-2.126953 c 0,-0.39204 0.316941,-0.708984 0.708985,-0.708984 z m 12.050781,0 2.126953,0 c 0.392043,0 0.708984,0.316944 0.708984,0.708984 l 0,2.126953 c 0,0.39204 -0.316941,0.708985 -0.708984,0.708985 l -2.126953,0 c -0.392043,0 -0.708984,-0.316945 -0.708984,-0.708985 l 0,-2.126953 c 0,-0.39204 0.316941,-0.708984 0.708984,-0.708984 z m 4.253906,0 2.126953,0 c 0.392044,0 0.708985,0.316944 0.708985,0.708984 l 0,2.126953 c 0,0.39204 -0.316941,0.708985 -0.708985,0.708985 l -2.126953,0 c -0.392043,0 -0.708984,-0.316945 -0.708984,-0.708985 l 0,-2.126953 c 0,-0.39204 0.316941,-0.708984 0.708984,-0.708984 z m 4.253906,0 2.126954,0 c 0.392043,0 0.708984,0.316944 0.708984,0.708984 l 0,2.126953 c 0,0.39204 -0.316942,0.708985 -0.708984,0.708985 l -2.126954,0 c -0.392053,0 -0.708984,-0.316945 -0.708984,-0.708985 l 0,-2.126953 c 0,-0.39204 0.708904,-0.316944 0.708984,-0.708984 z m 4.253907,0 2.126953,0 c 0.392044,0 0.708984,0.316944 0.708984,0.708984 l 0,2.126953 c 0,0.39204 -0.31694,0.708985 -0.708984,0.708985 l -2.126953,0 c -0.392043,0 -0.708985,-0.316945 -0.708985,-0.708985 l 0,-2.126953 c 0,-0.39204 0.316942,-0.708984 0.708985,-0.708984 z"
         id="Keyboard"
         inkscape:connector-curvature="0"
         sodipodi:nodetypes="ssccssscccccccccccccccccccccssssccsssssssssssssssssssssssssssssssssssssssssssssssssssssssssssssssssssssssssssssssssssssssssssssssssssssssssssssssssssssssssssssssssssssssssssssssssssssssssssssssssccccsssssssssssssssssssssssssssssssssssssssssssssssssssssssscssssssscssssssscssssssssssssssssssscssssssscssssssscssssssssss" /><path
         d="m 59.42032,167.93636 -10.210664,0 c -0.194593,0 -0.392719,0.18095 -0.392719,0.35903 l 0,4.66743 c 0,0.17844 0.198126,0.35904 0.392719,0.35904 l 10.210664,0 c 0.194592,0 0.392717,-0.1806 0.392717,-0.35904 l 0,-4.66743 c 0,-0.17808 -0.198125,-0.35903 -0.392717,-0.35903 z"
         id="Keyboard-6"
         inkscape:connector-curvature="0"
         style="fill:#f2f2f2"
         sodipodi:nodetypes="sssssssss" /></g></g></svg>