<?xml version="1.0" encoding="UTF-8" standalone="no"?>
<!-- Generator: Adobe Illustrator 16.0.0, SVG Export Plug-In . SVG Version: 6.00 Build 0)  -->

<svg
   xmlns:dc="http://purl.org/dc/elements/1.1/"
   xmlns:cc="http://creativecommons.org/ns#"
   xmlns:rdf="http://www.w3.org/1999/02/22-rdf-syntax-ns#"
   xmlns:svg="http://www.w3.org/2000/svg"
   xmlns="http://www.w3.org/2000/svg"
   xmlns:sodipodi="http://sodipodi.sourceforge.net/DTD/sodipodi-0.dtd"
   xmlns:inkscape="http://www.inkscape.org/namespaces/inkscape"
   version="1.1"
   id="svg2"
   inkscape:export-filename="/home/kivutar/Bureau/lakka-menu/reload.png"
   inkscape:export-xdpi="90"
   inkscape:version="0.48.5 r10040"
   inkscape:export-ydpi="90"
   sodipodi:docname="SNK - Neo Geo CD.svg"
   x="0px"
   y="0px"
   width="256"
   height="256"
   viewBox="0 128 256 256"
   enable-background="new 0 128 64 64"
   xml:space="preserve"><metadata
     id="metadata3204"><rdf:RDF><cc:Work
         rdf:about=""><dc:format>image/svg+xml</dc:format><dc:type
           rdf:resource="http://purl.org/dc/dcmitype/StillImage" /></cc:Work></rdf:RDF></metadata><defs
     id="defs3202" /><sodipodi:namedview
     pagecolor="#ffffff"
     bordercolor="#666666"
     borderopacity="1"
     objecttolerance="10"
     gridtolerance="10"
     guidetolerance="10"
     inkscape:pageopacity="0"
     inkscape:pageshadow="2"
     inkscape:window-width="1676"
     inkscape:window-height="1005"
     id="namedview3200"
     showgrid="false"
     inkscape:zoom="1.6367188"
     inkscape:cx="-44.677804"
     inkscape:cy="32"
     inkscape:window-x="4"
     inkscape:window-y="1"
     inkscape:window-maximized="1"
     inkscape:current-layer="svg2" /><path
     id="Neo_Geo"
     d="M 128,180 C 56,180 4.124,208 4,256 c 0,52 44,76 60,76 22.832,0 38.86,-8.044 64,-8 32.244,0.056 60,8 64,8 28,0 60,-32 60,-76 0,-52 -52,-76 -124,-76 z m 28,12 c 4.416,0 8,3.584 8,8 0,4.416 -3.584,8 -8,8 -4.416,0 -8,-3.584 -8,-8 0,-4.416 3.584,-8 8,-8 z m -32,8 c 4.416,0 8,3.584 8,8 0,4.416 -3.584,8 -8,8 -4.416,0 -8,-3.584 -8,-8 0,-4.416 3.584,-8 8,-8 z m -56,72 c -13.252,0 -24,-10.748 -24,-24 0,-13.252 10.748,-24 24,-24 13.252,0 24,10.748 24,24 0,13.252 -10.748,24 -24,24 z m 58,-4 c -7.732,0 -14,-6.268 -14,-14 0,-7.732 6.268,-14 14,-14 7.732,0 14,6.268 14,14 0,7.732 -6.268,14 -14,14 z m 28,-24 c -7.732,0 -14,-6.268 -14,-14 0,-7.732 6.268,-14 14,-14 7.732,0 14,6.268 14,14 0,7.732 -6.268,14 -14,14 z m 36,-8 c -7.732,0 -14,-6.268 -14,-14 0,-7.732 6.268,-14 14,-14 7.732,0 14,6.268 14,14 0,7.732 -6.268,14 -14,14 z m 32,12 c -7.732,0 -14,-6.268 -14,-14 0,-7.732 6.268,-14 14,-14 7.732,0 14,6.268 14,14 0,7.732 -6.268,14 -14,14 z M 68,232 c -8.836,0 -16,7.164 -16,16 0,8.836 7.164,16 16,16 8.836,0 16,-7.164 16,-16 0,-8.836 -7.164,-16 -16,-16 z"
     inkscape:connector-curvature="0"
     style="fill:#f2f2f2" /></svg>