<?xml version="1.0" encoding="UTF-8" standalone="no"?>
<!-- Generator: Adobe Illustrator 16.0.0, SVG Export Plug-In . SVG Version: 6.00 Build 0)  -->

<svg
   xmlns:dc="http://purl.org/dc/elements/1.1/"
   xmlns:cc="http://creativecommons.org/ns#"
   xmlns:rdf="http://www.w3.org/1999/02/22-rdf-syntax-ns#"
   xmlns:svg="http://www.w3.org/2000/svg"
   xmlns="http://www.w3.org/2000/svg"
   xmlns:sodipodi="http://sodipodi.sourceforge.net/DTD/sodipodi-0.dtd"
   xmlns:inkscape="http://www.inkscape.org/namespaces/inkscape"
   version="1.1"
   id="svg2"
   inkscape:export-filename="/home/kivutar/Bureau/lakka-menu/reload.png"
   inkscape:export-xdpi="90"
   inkscape:version="0.92.1 r"
   inkscape:export-ydpi="90"
   sodipodi:docname="Sony - PlayStation 2.svg"
   x="0px"
   y="0px"
   width="64px"
   height="64px"
   viewBox="0 128 64 64"
   enable-background="new 0 128 64 64"
   xml:space="preserve"><metadata
     id="metadata8"><rdf:RDF><cc:Work
         rdf:about=""><dc:format>image/svg+xml</dc:format><dc:type
           rdf:resource="http://purl.org/dc/dcmitype/StillImage" /><dc:title></dc:title></cc:Work></rdf:RDF></metadata><defs
     id="defs6" /><sodipodi:namedview
     pagecolor="#ffffff"
     bordercolor="#666666"
     borderopacity="1"
     objecttolerance="10"
     gridtolerance="10"
     guidetolerance="10"
     inkscape:pageopacity="0"
     inkscape:pageshadow="2"
     inkscape:window-width="1440"
     inkscape:window-height="836"
     id="namedview4"
     showgrid="true"
     inkscape:zoom="7.6875"
     inkscape:cx="38.812373"
     inkscape:cy="26.360333"
     inkscape:window-x="0"
     inkscape:window-y="27"
     inkscape:window-maximized="1"
     inkscape:current-layer="svg2"><inkscape:grid
       type="xygrid"
       id="grid10"
       spacingx="1"
       spacingy="1"
       empspacing="4" /></sodipodi:namedview><path
     style="fill:#f2f2f2"
     d="M 14 13 C 12.587618 13 10.993983 13.524609 9.7402344 13.980469 C 9.0802344 15.315469 8.5296565 16.711109 8.0976562 18.162109 C 5.0676564 20.053109 3 23.164 3 27 C 3 29.937 3.7382813 44.365234 3.7382812 44.365234 C 3.7382812 47.876234 6.489 51 10 51 C 12.335 51 14.470219 49.465844 15.574219 47.589844 C 15.574219 47.589844 15.577125 47.583078 15.578125 47.580078 C 15.686125 47.394078 15.787906 47.203859 15.878906 47.005859 C 16.702858 45.423572 18.861254 41.269092 19.667969 39.720703 A 5 5 0 0 0 23 41 A 5 5 0 0 0 28 36 L 36 36 A 5 5 0 0 0 41 41 A 5 5 0 0 0 44.330078 39.720703 C 45.134767 41.268024 47.294189 45.415795 48.119141 47.001953 C 48.211141 47.202953 48.312828 47.396937 48.423828 47.585938 L 48.425781 47.589844 C 49.530781 49.465844 51.665 51 54 51 C 57.511 51 60.261719 47.876234 60.261719 44.365234 C 60.261719 44.365234 61 30.303 61 27 C 61 23.163 58.933344 20.053109 55.902344 18.162109 C 55.470344 16.712109 54.920766 15.315469 54.259766 13.980469 C 53.007766 13.524469 51.413 13 50 13 C 48.589 13 47.475703 13.524469 46.220703 13.980469 C 45.561703 15.315469 45.010125 16.711109 44.578125 18.162109 C 44.035125 18.500109 43.472 18.573 43 19 L 21 19 C 20.528 18.573 19.963875 18.500109 19.421875 18.162109 C 18.989875 16.712109 18.439297 15.315469 17.779297 13.980469 C 16.525297 13.524469 15.413 13 14 13 z M 51 20 C 52.381 20 53.5 21.119 53.5 22.5 C 53.5 23.881 52.381 25 51 25 C 49.619 25 48.5 23.881 48.5 22.5 C 48.5 21.119 49.619 20 51 20 z M 12 21 L 14 21 C 15 21 15 21 15 22 L 15 24 C 15 24 14 26 13 26 C 12 26 11 24 11 24 L 11 22 C 11 21 11 21 12 21 z M 46.5 24.5 C 47.881 24.5 49 25.619 49 27 C 49 28.381 47.881 29.5 46.5 29.5 C 45.119 29.5 44 28.381 44 27 C 44 25.619 45.119 24.5 46.5 24.5 z M 55.5 24.5 C 56.881 24.5 58 25.619 58 27 C 58 28.381 56.881 29.5 55.5 29.5 C 54.119 29.5 53 28.381 53 27 C 53 25.619 54.119 24.5 55.5 24.5 z M 8 25 L 10 25 C 10 25 12 26 12 27 C 12 28 10 29 10 29 L 8 29 C 7 29 7 29 7 28 L 7 26 C 7 25 7 25 8 25 z M 16 25 L 18 25 C 19 25 19 25 19 26 L 19 28 C 19 29 19 29 18 29 L 16 29 C 16 29 14 28 14 27 C 14 26 16 25 16 25 z M 26 26 L 30 26 L 30 28 L 26 28 L 26 26 z M 34 26 C 34 26 38 26.667 38 27 C 38 27.333 34 28 34 28 L 34 26 z M 13 28 C 14 28 15 30 15 30 L 15 32 C 15 33 15 33 14 33 L 12 33 C 11 33 11 33 11 32 L 11 30 C 11 30 12 28 13 28 z M 51 29 C 52.381 29 53.5 30.119 53.5 31.5 C 53.5 32.881 52.381 34 51 34 C 49.619 34 48.5 32.881 48.5 31.5 C 48.5 30.119 49.619 29 51 29 z M 23 32 A 4 4 0 0 1 27 36 A 4 4 0 0 1 23 40 A 4 4 0 0 1 19 36 A 4 4 0 0 1 23 32 z M 41 32 A 4 4 0 0 1 45 36 A 4 4 0 0 1 41 40 A 4 4 0 0 1 37 36 A 4 4 0 0 1 41 32 z "
     transform="translate(0,128)"
     id="PlayStation" /><rect
     style="opacity:1;fill:#ffffff;fill-opacity:1;stroke:none;stroke-width:1;stroke-linecap:round;stroke-linejoin:round;stroke-miterlimit:4;stroke-dasharray:none;stroke-opacity:0"
     id="rect837"
     width="4"
     height="2"
     x="30"
     y="160" /></svg>