<?xml version="1.0" encoding="utf-8"?>
<!-- Generator: Adobe Illustrator 16.0.3, SVG Export Plug-In . SVG Version: 6.00 Build 0)  -->
<!DOCTYPE svg PUBLIC "-//W3C//DTD SVG 1.1//EN" "http://www.w3.org/Graphics/SVG/1.1/DTD/svg11.dtd">
<svg version="1.1" id="Layer_1" xmlns="http://www.w3.org/2000/svg" xmlns:xlink="http://www.w3.org/1999/xlink" x="0px" y="0px"
	 width="566.929px" height="71.161px" viewBox="0 0 566.929 71.161" enable-background="new 0 0 566.929 71.161"
	 xml:space="preserve">
<g>
	<polygon points="0,0 30.1,0 30.1,10.491 10.546,10.491 10.546,23.218 30.1,23.218 30.1,34.042 10.546,34.042 10.546,56.66 0,56.66 
			"/>
	<path d="M64.333,56.66H54.079v-8.821H34.215L28.33,56.66H16.256L55.981,0h8.351V56.66z M54.079,37.134V20.602L41.946,37.134H54.079
		z"/>
	<polygon points="68.35,0 80.243,0 97.014,38.086 113.903,0 125.916,0 125.916,56.66 115.33,56.66 115.33,28.095 102.247,56.66 
		91.542,56.66 78.935,28.095 78.935,56.66 68.35,56.66 	"/>
	<polygon points="323.292,0 335.186,0 351.956,38.086 368.845,0 380.858,0 380.858,56.66 370.272,56.66 370.272,28.095 
		357.189,56.66 346.485,56.66 333.876,28.095 333.876,56.66 323.292,56.66 	"/>
	<rect x="129.255" width="10.956" height="56.66"/>
	<polygon points="143.228,0 154.183,0 154.183,46.331 168.458,46.331 168.458,56.66 143.228,56.66 	"/>
	<polygon points="156.286,0 168.458,0 179.968,23.218 191.145,0 203.207,0 185.058,36.039 185.058,56.66 174.435,56.66 
		174.435,36.039 	"/>
	<path d="M262.911,42.032"/>
	<path d="M262.755,15.627c-4.812-9.167-14.422-15.419-25.493-15.419c-15.891,0-28.772,12.882-28.772,28.772
		c0,15.89,12.882,28.773,28.772,28.773c11.15,0,20.819-6.342,25.595-15.616l-13.038,0.107c-3.214,2.964-7.508,4.774-12.225,4.774
		c-9.962,0-18.038-8.076-18.038-18.039s8.076-18.038,18.038-18.038c4.65,0,8.89,1.76,12.089,4.649L262.755,15.627z"/>
	<path d="M291.226,57.903c-15.973,0-28.923-12.949-28.923-28.923c0-15.974,12.95-28.923,28.923-28.923
		c15.974,0,28.923,12.949,28.923,28.923C320.149,44.954,307.2,57.903,291.226,57.903z M309.636,28.98
		c0-10.106-8.193-18.299-18.299-18.299c-10.106,0-18.3,8.193-18.3,18.299s8.193,18.299,18.3,18.299
		C301.443,47.279,309.636,39.086,309.636,28.98z"/>
	<path d="M403.423,0.007c9.588,0.771,17.129,8.796,17.129,18.583c0,9.786-7.541,17.812-17.129,18.582l-8.281-0.038V56.66h-10.624V0
		h10.624L403.423,0.007z M395.142,10.905v15.368l8.282-0.006c3.624-0.677,6.367-3.857,6.367-7.677c0-3.821-2.743-7-6.367-7.678
		L395.142,10.905z"/>
	<path d="M537.271,57.397h-10.513V0.488l14.607-0.021l8.281,0.007c9.588,0.771,17.129,8.796,17.129,18.583
		c0,7.996-5.034,14.817-12.107,17.464l12.261,20.876h-11.51l-17.18-29.354h-0.969V57.397z M530.742,57.128 M541.366,57.128
		 M549.648,26.734c3.623-0.677,6.367-3.857,6.367-7.677c0-3.821-2.744-7-6.367-7.678l-12.377,0v15.363L549.648,26.734z"/>
	<path d="M449.792,22.117 M449.792,22.117 M434.436,22.117 M434.398,32.74 M434.398,32.74l0.006,8.282
		c0.678,3.624,3.857,6.366,7.677,6.366c3.821,0,7.001-2.742,7.679-6.366l0.008-8.282l0.025-32.252h10.878V32.74l-0.007,8.282
		c-0.771,9.588-8.796,17.128-18.583,17.128c-9.786,0-17.812-7.54-18.582-17.128l0.038-8.282l-0.018-32.252h10.916L434.398,32.74z"/>
	<polygon points="471.537,57.397 482.271,57.397 482.271,11.214 491.899,11.214 491.899,0.488 462.242,0.488 462.242,11.214 
		471.537,11.214 	"/>
	<polygon points="523.992,57.397 494.5,57.397 494.5,0.488 523.992,0.488 523.992,10.905 505.068,10.905 505.068,24.419 
		523.992,24.419 523.992,35.043 505.068,35.043 505.068,46.884 523.992,46.884 	"/>
	<path d="M537.271,28.095"/>
	<polygon points="0,65.649 0,71.161 555.419,71.161 566.929,65.649 	"/>
</g>
</svg>
