<?xml version="1.0" encoding="utf-8"?>
<!-- Generator: Adobe Illustrator 16.0.3, SVG Export Plug-In . SVG Version: 6.00 Build 0)  -->
<!DOCTYPE svg PUBLIC "-//W3C//DTD SVG 1.1//EN" "http://www.w3.org/Graphics/SVG/1.1/DTD/svg11.dtd">
<svg version="1.1" id="Ebene_1" xmlns="http://www.w3.org/2000/svg" xmlns:xlink="http://www.w3.org/1999/xlink" x="0px" y="0px"
	 width="566.929px" height="105.029px" viewBox="-0.756 0 566.929 105.029" enable-background="new -0.756 0 566.929 105.029"
	 xml:space="preserve">
<g>
	<path fill="#030303" d="M406.984,61.545h-7.873V34.92c0,0,19.708,0,28.991,0c5.01,0,8.923,3.551,9.06,8.566v18.061h-7.434
		c0,0,0-11.475,0-16.551c0-2.462-1.449-4.167-3.89-4.392c-1.339-0.123-2.696-0.022-4.147-0.022c0,6.958,0,20.965,0,20.965h-7.78
		c0,0,0-14.047,0-21.111c-2.335,0-4.573,0-6.927,0C406.984,47.386,406.984,61.545,406.984,61.545z"/>
	<path fill="#030303" d="M526.698,61.545h-7.873V34.92c0,0,19.707,0,28.99,0c5.011,0,8.924,3.551,9.061,8.566v18.061h-7.434
		c0,0,0-11.475,0-16.551c0-2.462-1.449-4.167-3.89-4.392c-1.339-0.123-2.696-0.022-4.147-0.022c0,6.958,0,20.965,0,20.965h-7.78
		c0,0,0-14.047,0-21.111c-2.335,0-4.573,0-6.927,0C526.698,47.386,526.698,61.545,526.698,61.545z"/>
	<path fill="#030303" d="M311.674,51.389c2.514,3.317,5.128,6.755,7.705,10.156c-2.958,0-8.842,0-8.842,0l-6.774-9.873h-7.53
		c0,0,0,6.592,0,9.873c-2.642,0-5.164,0-7.755,0c0-8.774,0-17.764,0-26.625c0.376,0,0.75,0,1.124,0c6.781,0,13.561-0.004,20.34,0
		c5.526,0.003,9.484,4.982,8.373,10.352c-0.612,2.966-2.521,4.787-5.332,5.735C312.593,51.139,312.195,51.24,311.674,51.389z
		 M296.252,46.893c3.439,0,10.23,0,10.23,0c0.536-0.006,1.093-0.239,1.599-0.453c1.126-0.48,1.906-1.248,1.911-2.587
		c0.005-1.418-0.516-2.547-1.881-3.063c-0.764-0.288-1.611-0.466-2.426-0.482h-9.434C296.252,40.308,296.252,44.734,296.252,46.893z
		"/>
	<path fill="#030303" d="M394.705,61.536h-19.769c-1.47-0.02-2.988-0.286-4.388-0.727c-3.646-1.144-5.552-4.022-5.338-7.743
		c0.219-3.804,2.624-6.726,6.234-7.5c0.843-0.18,1.72-0.27,2.581-0.276h12.614c0.346,0-0.345,0,0,0
		c-0.045-2.904-2.441-5.255-5.51-5.267h-13.792V34.92h16.135c6.198,0,11.044,4.635,11.233,10.815v15.802H394.705z M386.889,50.301
		c-3.253,0-6.464,0-9.677,0c-2.05,0-3.443,1.227-3.475,3.056c-0.028,1.777,1.313,2.952,3.399,2.956h9.752
		C386.889,56.313,386.889,52.441,386.889,50.301z"/>
	<path fill="#030303" d="M161.618,61.535v-5.228l17.414-0.001c1.608,0,2.589-0.8,2.933-2.378c0.254-1.163-0.475-2.355-1.878-2.875
		c-0.638-0.235-1.348-0.37-2.025-0.377h-10.74c-4.382-0.065-6.941-2.672-7.336-7.306c-0.307-3.609,2.352-7.729,5.952-8.449
		c0,0,15.493,0,22.906,0c0,1.602,0,3.677,0,5.364c-0.364,0-0.734,0-1.104,0c-5.109,0-10.22-0.003-15.329,0.005
		c-0.483,0.001-0.974,0.04-1.447,0.127c-1.203,0.227-2.095,0.964-2.313,2.124c-0.215,1.138,0.29,2.2,1.242,2.919
		c0.294,0.222,0.768,0.327,1.16,0.329h11.574c2.869,0.082,5.565,0.819,7.023,3.639c2.544,4.924,0.583,11.997-6.906,12.106H161.618z"
		/>
	<path fill="#030303" d="M498.714,34.311c2.974,0.098,5.863,0.437,8.568,1.683c3.762,1.733,6.574,4.461,7.373,8.596
		c1.003,5.21,0.084,10.078-4.089,13.797c-2.368,2.113-5.362,3.042-8.427,3.57c-4.761,0.819-9.32,0.048-13.639-2.131
		c-4.04-2.036-5.733-5.563-6.191-9.836c-0.229-2.15-0.183-4.303,0.487-6.391c1.582-4.918,5.252-7.438,10.048-8.517
		C494.761,34.652,495.864,34.376,498.714,34.311z M507.382,48.23c-0.023-0.484-0.041-0.971-0.07-1.456
		c-0.226-3.635-2.36-6.377-5.688-7.25c-1.95-0.511-3.93-0.453-5.881-0.044c-2.833,0.593-4.683,2.329-5.493,5.092
		c-0.646,2.199-0.644,4.467-0.266,6.707c0.437,2.598,2.011,4.366,4.516,5.059c1.506,0.418,3.139,0.574,4.708,0.537
		C504.552,56.745,507.509,53.553,507.382,48.23z"/>
	<path fill="#030303" d="M284.287,45.599c0,1.742,0,3.361,0,5.058c-6.189,0-12.331,0-18.473,0c0.049,3.195,2.302,5.467,5.353,5.47
		c3.963,0.005,12.982,0.001,12.982,0.001v5.393h-14.934c-7.426-0.342-11.949-5.58-11.701-12.458c0.081-2.265,0.231-4.5,1.075-6.638
		c1.825-4.625,6.025-7.504,10.974-7.504c4.519,0,14.728,0,14.728,0v5.386c0,0-10.081-0.031-12.514-0.021
		c-2.966,0.015-5.434,2.226-5.827,5.312C272.053,45.599,278.143,45.599,284.287,45.599z"/>
	<path fill="#030303" d="M214.043,56.101c0,0,0-14.233,0-21.18c2.555,0,5.035,0,7.591,0c0,8.677,0,26.617,0,26.617l-19.981,0.008
		c-2.468,0.009-4.455-0.946-6.003-2.82c-1.47-1.779-2.372-3.705-2.306-6.161c0.144-5.315,0.043-17.644,0.043-17.644h7.615
		l-0.033,17.015c-0.054,2.499,1.333,3.959,3.642,4.165H214.043z"/>
	<path fill="#030303" d="M233.594,52.546c0,3.073,0,6.033,0,8.992c-2.497,0-4.917,0-7.405,0c0-8.747,0-26.617,0-26.617h20.209
		c3.576-0.096,7.168,2.57,8.231,6.527c1.553,5.779-2.48,11.071-8.5,11.095c-3.825,0.017-7.65,0.003-11.476,0.003
		C234.347,52.546,234.042,52.546,233.594,52.546z M233.844,47.365h10.246c0.413-0.006,0.867-0.267,1.227-0.509
		c1.121-0.754,1.897-2.818,1.538-3.948c-0.563-1.766-1.691-2.615-3.549-2.623h-9.462L233.844,47.365L233.844,47.365z"/>
	<path fill="#030303" d="M363.13,34.922v5.104h-12.994c-2.205,0.063-4.091,1.105-5.383,2.921c-0.44,0.622-0.711,1.406-0.771,2.472
		c6.417,0,12.58,0,18.82,0c0,1.931,0,3.749,0,5.635c-6.268,0-12.515,0-18.89,0c0,3.448,0,7.045,0,10.494c-2.606,0-7.673,0-7.673,0
		s0-10.872,0-15.737c0-5.691,4.316-10.702,10.02-10.887L363.13,34.922L363.13,34.922z"/>
	<path fill="#030303" d="M479.954,56.323v5.223h-14.041c-5.818,0-10.246-3.422-11.662-9.085c-1.104-4.418-0.596-8.885,1.907-12.735
		c2.08-3.202,5.129-4.796,8.964-4.804h14.983v5.266h-12.722c-2.495,0.001-4.103,1.156-4.93,3.511
		c-0.965,2.748-1.132,5.813-0.229,8.624c0.836,2.604,2.829,4.001,5.556,4.001H479.954z"/>
	<path fill="#030303" d="M311.416,85.799c0-1.609,0-3.16,0-4.805c6.178,0,12.311,0,18.507,0c0-2.678,0-5.259,0-7.945
		c-6.063,0-12.093,0-18.172,0c0-1.582,0-3.061,0-4.6c7.396,0,14.745,0,22.17,0c0,5.769,0,11.545,0,17.35
		C326.417,85.799,318.93,85.799,311.416,85.799z"/>
	<path fill="#030303" d="M160.61,72.933c0-1.665,0-3.149,0-4.691c6.179,0,12.31,0,18.494,0c0.474,3.372,0.248,6.633-0.883,9.8
		c-0.104,0.292-0.285,0.81-0.285,0.81s3.433,4.828,4.983,6.981c-1.754,0-5.174,0-5.174,0s-1.765-2.383-2.454-3.364
		c-0.355,0.282-0.674,0.534-0.992,0.787c-2.156,1.723-4.539,2.736-7.373,2.621c0,0-4.579,0-6.939,0v-4.75
		c0,0,3.243,0.016,4.861-0.003c2.052-0.024,4.079-0.176,6.028-0.942c3.013-1.186,4.801-3.885,4.64-7.249
		C170.573,72.933,165.625,72.933,160.61,72.933z"/>
	<rect x="441.893" y="34.922" fill="#030303" width="8.212" height="26.642"/>
	<path fill="#030303" d="M245.159,85.809v-4.783h9.558c3.893,0.199,6.946-2.267,6.845-7.07c-0.006-0.307-0.045-0.612-0.074-0.996
		c-5.82,0-11.612,0-17.485,0c0-1.549,0-3.019,0-4.53c7.037,0,21.148,0,21.148,0v8.554c-0.019,0.813-0.275,1.655-0.563,2.427
		c-1.435,3.831-4.344,6.064-8.295,6.4L245.159,85.809L245.159,85.809z"/>
	<path fill="#030303" d="M266.934,76.535c0-1.436,0-2.773,0-4.124c6.208,0,18.616,0,18.616,0v6.065c0,2.423-1.705,3.47-8.597,3.47
		c0,0-0.062,1.086-0.279,1.389c-0.726,1.804-2.137,2.548-4.192,2.548h-4.531c0-1.412,0-2.768,0-4.243c1.482,0,2.963,0,4.444,0
		s1.862-0.325,2.104-1.813c0.072-0.444,0.127-0.893,0.203-1.424c1.911,0,3.815,0.008,5.721-0.002
		c1.29-0.006,1.678-0.413,1.731-1.864C277.098,76.535,272.044,76.535,266.934,76.535z"/>
	<path fill="#030303" d="M358.385,68.598v9.777c-0.791,5.453-5.714,7.533-9.329,7.424h-12.764v-4.805h13.128
		c2.703,0.137,5.449-2.39,5.408-5.548c-0.025-1.981-0.004-3.963-0.004-5.945c0-0.274,0-0.551,0-0.903
		C356.073,68.598,357.265,68.598,358.385,68.598z"/>
	<path fill="#030303" d="M210.283,68.23c1.377,0,2.65,0,4.049,0c0,1.923,0,3.82,0,5.717c0,0.382,0.021,0.767-0.004,1.147
		c-0.293,4.505,2.862,5.83,5.8,5.829c0.379,0,0.758,0,1.19,0c0,1.624,0,3.206,0,4.787c-6.511,0.378-10.761-2.522-11.02-8.917
		c-0.102-2.497-0.017-5.004-0.017-7.505C210.283,68.949,210.283,68.61,210.283,68.23z"/>
	<polygon fill="#030303" points="309.317,80.329 287.475,77.571 287.475,73.336 309.317,75.947 	"/>
	<polygon fill="#030303" points="309.317,74.573 287.475,71.816 287.475,67.579 309.317,70.192 	"/>
	<path fill="#030303" d="M309.336,81.823c0,1.524,0,2.9,0,4.364c-7.307-0.921-14.559-1.836-21.875-2.759c0-1.292,0-2.848,0-4.298
		C294.727,79.928,302.006,81.016,309.336,81.823z"/>
	<path fill="#030303" d="M197.528,85.676c0-1.672,0-3.217,0-4.764c0.958-0.071,1.893-0.076,2.805-0.22
		c2.667-0.421,4.219-2.268,4.229-4.963c0.009-2.392,0.002-4.786,0.002-7.261c1.344,0,2.639,0,4.067,0c0,1.959,0.03,3.927,0,5.896
		c-0.02,1.315,0.045,2.662-0.211,3.938c-0.907,4.514-3.657,6.827-8.388,7.229C199.217,85.602,198.395,85.627,197.528,85.676z"/>
	<path fill="#030303" d="M197.855,74.8c0,1.508,0,2.956,0,4.446c-5.588,0-11.13,0-16.729,0c0-1.488,0-2.932,0-4.446
		C186.688,74.8,192.229,74.8,197.855,74.8z"/>
	<path fill="#030303" d="M221.522,74.638c5.629,0,11.167,0,16.745,0c0,1.468,0,2.877,0,4.367c-5.577,0-11.134,0-16.745,0
		C221.522,77.575,221.522,76.131,221.522,74.638z"/>
	<path fill="#030303" d="M349.526,68.449c0,1.505,0,3.127,0,4.6c-4.408,0-8.779,0-13.218,0c0-1.435,0-3.076,0-4.6
		C340.664,68.449,345.05,68.449,349.526,68.449z"/>
	<path fill="#030303" d="M221.708,71.246c-0.002,1.802-1.457,3.249-3.244,3.229c-1.735-0.021-3.17-1.448-3.2-3.186
		c-0.031-1.782,1.417-3.255,3.207-3.262C220.277,68.02,221.71,69.446,221.708,71.246z M219.747,71.205
		c-0.023-0.734-0.676-1.37-1.362-1.366c-0.726,0.006-1.404,0.727-1.318,1.456c0.093,0.81,0.61,1.283,1.397,1.252
		C219.265,72.516,219.672,71.957,219.747,71.205z"/>
	<g>
		<path d="M361.832,71.479v-4.23h1.876c0.378,0,0.664,0.038,0.86,0.114c0.194,0.076,0.353,0.21,0.47,0.401
			c0.117,0.192,0.177,0.405,0.177,0.639c0,0.3-0.097,0.553-0.292,0.759c-0.192,0.205-0.493,0.336-0.899,0.393
			c0.148,0.07,0.261,0.142,0.339,0.21c0.161,0.149,0.317,0.337,0.464,0.563l0.736,1.151h-0.706l-0.56-0.88
			c-0.163-0.254-0.299-0.448-0.404-0.582c-0.105-0.137-0.2-0.23-0.284-0.284c-0.082-0.053-0.168-0.09-0.254-0.111
			c-0.063-0.014-0.168-0.021-0.313-0.021h-0.648v1.878L361.832,71.479L361.832,71.479z M362.391,69.115h1.204
			c0.256,0,0.457-0.026,0.601-0.079c0.145-0.053,0.256-0.137,0.329-0.254c0.073-0.116,0.111-0.242,0.111-0.379
			c0-0.2-0.07-0.365-0.216-0.494c-0.146-0.128-0.376-0.193-0.688-0.193h-1.341V69.115L362.391,69.115z"/>
	</g>
	<g>
		<path d="M363.485,73.351c-2.169,0-3.933-1.767-3.933-3.935s1.765-3.933,3.933-3.933c2.166,0,3.932,1.765,3.932,3.933
			S365.653,73.351,363.485,73.351z M363.485,66.191c-1.778,0-3.226,1.446-3.226,3.226s1.447,3.227,3.226,3.227
			c1.777,0,3.225-1.447,3.225-3.227S365.262,66.191,363.485,66.191z"/>
	</g>
	<g>
		<g>
			<path d="M560.587,36.984v-4.231h1.876c0.378,0,0.665,0.038,0.861,0.114c0.192,0.076,0.353,0.21,0.47,0.401
				c0.116,0.193,0.175,0.405,0.175,0.639c0,0.3-0.095,0.552-0.29,0.758c-0.192,0.206-0.495,0.336-0.9,0.392
				c0.148,0.071,0.262,0.143,0.34,0.21c0.161,0.15,0.317,0.338,0.463,0.563l0.736,1.151h-0.705l-0.561-0.879
				c-0.162-0.255-0.298-0.448-0.403-0.583c-0.105-0.136-0.201-0.23-0.284-0.284c-0.082-0.054-0.168-0.09-0.254-0.112
				c-0.064-0.014-0.169-0.021-0.313-0.021h-0.648v1.878h-0.562V36.984z M561.147,34.62h1.204c0.255,0,0.455-0.026,0.602-0.079
				c0.143-0.053,0.253-0.137,0.329-0.254c0.072-0.116,0.109-0.243,0.109-0.379c0-0.201-0.07-0.365-0.217-0.494
				c-0.146-0.128-0.376-0.194-0.688-0.194h-1.34V34.62L561.147,34.62z"/>
		</g>
		<g>
			<path d="M562.24,38.855c-2.168,0-3.933-1.766-3.933-3.934s1.767-3.934,3.933-3.934c2.168,0,3.933,1.766,3.933,3.934
				S564.408,38.855,562.24,38.855z M562.24,31.696c-1.778,0-3.226,1.446-3.226,3.226s1.447,3.227,3.226,3.227
				s3.226-1.447,3.226-3.227S564.018,31.696,562.24,31.696z"/>
		</g>
	</g>
	<g>
		<path id="path2842" fill="#01954B" d="M62.849,63.997C62.85,72.779,48.614,79.9,31.047,79.9
			c-17.563,0.001-31.803-7.118-31.804-15.9c0,0,0,0,0-0.002c-0.001-8.782,14.236-15.902,31.8-15.902
			c17.563,0,31.804,7.119,31.805,15.899C62.849,63.997,62.849,63.997,62.849,63.997z"/>
		<path id="path3624" fill="#F9EC2B" d="M117.618,89.127c0.003,8.779-14.233,15.902-31.798,15.902
			c-17.563,0-31.803-7.119-31.806-15.9c0-0.002,0-0.002,0-0.002c-0.002-8.783,14.235-15.902,31.8-15.902s31.802,7.115,31.804,15.898
			C117.618,89.126,117.618,89.126,117.618,89.127z"/>
		<path id="path3644" fill="#323B98" d="M64.017,0C47.987,0,34.96,12.812,34.58,28.766c0.666-0.047,1.329-0.075,2.006-0.075
			c16.269,0,29.457,13.202,29.457,29.485c0,0.242-0.012,0.479-0.018,0.72c15.335-1.029,27.448-13.801,27.448-29.411
			C93.473,13.202,80.286,0,64.017,0L64.017,0z"/>
		<path id="path3897" fill="#EB2D2F" d="M119.779,25.827c-16.264,0-29.447,13.192-29.447,29.464c0,0.363,0.005,0.73,0.019,1.087
			c0.392-0.014,0.78-0.035,1.177-0.035c15.897,0,28.853,12.611,29.429,28.378c15.72-0.615,28.268-13.547,28.268-29.427
			C149.227,39.019,136.043,25.827,119.779,25.827L119.779,25.827z"/>
	</g>
</g>
</svg>
