<?xml version="1.0" encoding="utf-8"?>
<!-- Generator: Adobe Illustrator 16.0.3, SVG Export Plug-In . SVG Version: 6.00 Build 0)  -->
<!DOCTYPE svg PUBLIC "-//W3C//DTD SVG 1.1//EN" "http://www.w3.org/Graphics/SVG/1.1/DTD/svg11.dtd">
<svg version="1.1" id="Layer_1" xmlns="http://www.w3.org/2000/svg" xmlns:xlink="http://www.w3.org/1999/xlink" x="0px" y="0px"
	 width="566.93px" height="476.302px" viewBox="0 0 566.93 476.302" enable-background="new 0 0 566.93 476.302"
	 xml:space="preserve">
<g>
	<path fill="#FF0000" d="M353.804,82.639c2.508-0.181,5.044-0.261,7.611-0.261c55.905,0,103.775,54.109,107.368,81.677
		c0.382,2.878,0.641,5.464,0.82,7.671C468.853,96.597,351.679,0,257.599,0c-72.711,0-106.604,29.441-117.785,62.493
		c-16.667,41.706,5.334,101.141,56.786,143.447c5.385,4.422,10.901,8.513,16.517,12.264c-2.517,0.17-5.044,0.26-7.601,0.26
		c-55.904,0-103.787-54.12-107.377-81.686c-0.372-2.878-0.643-5.455-0.813-7.671c0.743,75.127,117.926,171.724,211.997,171.724
		c72.711,0,106.604-29.431,117.795-62.493c16.656-41.705-5.334-101.129-56.796-143.447C364.946,90.471,359.42,86.389,353.804,82.639
		z M249.015,207.454c-41.404-34.034-55.343-84.053-31.878-112.371c23.495-28.357,76.3-25.089,118.718,7.942
		c42.086,32.79,58.281,82.568,36.672,112.301c8.945-17.889-0.924-44.724-23.957-62.834c-24.978-19.634-56.074-21.58-69.913-4.723
		c-13.819,16.836-5.605,46.559,18.781,66.795c18.782,15.582,41.744,21.099,58.081,15.383
		C327.681,244.627,284.062,236.273,249.015,207.454z"/>
	<g>
		<path fill="#F0373F" d="M298.795,390.762c-4.492-1.324-9.556,5.023-13.879,14.71c-3.851,16.146-12.414,39.95-12.965,56.376
			c-0.25,7.29,6.479,9.426,11.051,11.04c14.47,5.104,22.933,0.11,27.243-5.104c3.1-3.74-0.179-6.859-4.02-5.715
			c-5.556,1.643-12.344,2.758-13.747-2.608c-1.544-5.915,6.688-30.224,12.373-48.324
			C307.959,401.259,310.587,393.057,298.795,390.762z"/>
		<path fill="#F5A023" d="M223.817,419.4c-9.796,1.013-29.261,6.196-29.261,31.376c0,1.185-3.55,28.43,31.587,25.271
			c35.148-3.159,41.064-25.271,41.064-25.271s8.693-29.22-12.636-28.428c-13.016,0.481-18.952,6.317-18.952,6.317
			s8.684,1.705,10.559,7.941c3.56,11.823,2.247,31.77-16.876,29.963c-19.192-1.813-9.817-27.166-3.77-40.021
			C227.619,422.128,227.106,419.06,223.817,419.4z"/>
		<path fill="#7487BF" d="M340.691,419.4c-9.797,1.013-29.262,6.196-29.262,31.376c0,1.185-3.549,28.43,31.587,25.271
			c35.147-3.159,41.065-25.271,41.065-25.271s8.692-29.22-12.636-28.428c-13.016,0.481-18.951,6.317-18.951,6.317
			s8.682,1.705,10.557,7.941c3.561,11.823,2.247,31.77-16.876,29.963c-19.193-1.813-9.818-27.166-3.771-40.021
			C344.493,422.128,343.98,419.06,340.691,419.4z"/>
		<path fill="#019EE3" d="M109.271,438.143c-1.574-31.197,41.515-45.195,56.858-46.379c15.353-1.194,31.588,2.155,31.588,2.155
			s-2.367,30.796-9.477,31.588c-7.099,0.792-5.525-23.296-18.953-22.111c-24.588,2.166-34.455,28.97-34.747,37.904
			c-0.129,4.321,1.194,23.685,18.953,22.111c17.769-1.586,21.72-11.061,25.27-12.636c3.559-1.585,10.368-4.703,9.476,3.159
			c-1.965,17.367-34.746,22.111-34.746,22.111S111.317,478.372,109.271,438.143z"/>
		<path fill="#DA72A3" d="M399.876,472.888c-15.004,0.792-6.711-17.378-3.159-28.429c3.559-11.062,2.907-23.184,15.793-22.11
			c14.249,1.174,3.158,18.952,3.158,18.952s21.641-23.735,41.063-22.11c4.743,0.39-9.477,31.586-9.477,31.586
			s-3.551-11.451-12.634-9.475C408.508,446.977,414.885,472.096,399.876,472.888z"/>
	</g>
	<g>
		<polygon points="0,367.463 9.615,327.149 19.299,319.465 28.911,319.465 19.299,359.778 28.911,354.025 36.628,325.255 
			42.417,319.465 55.961,319.465 46.313,359.778 55.961,352.13 61.716,327.149 69.47,319.465 81.083,319.465 71.435,357.885 
			59.856,367.463 		"/>
		<polygon points="390.958,367.463 395.871,344.447 404.605,336.061 415.832,336.061 409.238,361.358 418.92,355.604 
			421.376,342.517 427.834,336.061 441.306,336.061 434.708,361.358 443.833,355.253 446.429,344.447 454.848,336.061 
			464.883,336.061 459.269,357.885 446.113,367.463 		"/>
		<path d="M315.63,367.463l9.683-9.578h41.542c0,0,3.576,1.053,5.616-3.473c1.857-4.213-1.756-4.213-1.756-4.213H351.42
			c0,0-5.543-1.264-5.578-8.07c-0.104-16.733,13.648-21.051,13.648-21.051h40.556l-8.067,8.001h-21.264c0,0-6.771,1.93-6.913,7.579
			c-0.104,2.562,3.053,2.036,3.053,2.036h17.331c0,0,10.034,1.683,7.72,12.49c-3.021,14.21-13.474,16.279-13.474,16.279
			L315.63,367.463L315.63,367.463z"/>
		<path d="M282.649,367.463h17.33l5.265-19.928c0.632-2.316,6.737-4.945,5.124-4.667c-1.58,0.281,5.543-1.054,5.543-1.054
			s2.243,0.632,3.368,2.176c1.158,1.508-1.125,3.755-1.44,5.51c-0.314,1.753,1.931,1.928,1.931,1.928h9.683
			c0,0,5.196-1.928,6.601-3.858c1.369-1.963,3.084-3.999,3.084-5.719c0-1.719-3.824-3.858-3.824-3.858l-3.896-1.896h-28.945
			c0,0-13.855,7.932-15.471,9.58C286.438,346.166,282.649,367.463,282.649,367.463z"/>
		<path d="M80.063,345.464c-1.333,1.542-5.682,15.087-4.736,17.296c0.982,2.143,6.35,4.701,6.35,4.701h28.208
			c0,0,13.157-8.246,14.174-9.404c0.983-1.191,4.702-14.35,4.702-15.72c0-1.369-3.158-6.279-3.158-6.279h-32.98
			C92.625,336.061,81.435,343.92,80.063,345.464z M102.063,342.342h8.667c0,0-0.982,10.422-3.157,13.366
			c-2.21,2.948-7.087,5.509-7.087,5.509s-5.473,0.563-6.245,0c-0.807-0.631-0.211-6.28-0.211-6.28s0.737-6.104,1.754-7.894
			C96.767,345.289,102.063,342.342,102.063,342.342z"/>
		<path d="M185.251,345.464c-1.333,1.542-5.683,15.087-4.701,17.296c0.982,2.143,6.315,4.701,6.315,4.701h39.26
			c0,0,1.299-6.245,2.914-12.563c1.542-5.93,3.368-15.048,3.368-15.72c0-1.404,9.754-13.716,9.754-13.716h-17.053l-8.628,10.593
			h-18.667C197.849,336.061,186.657,343.92,185.251,345.464z M207.25,342.342h8.63c0,0-0.949,10.422-3.159,13.366
			c-2.142,2.948-7.052,5.509-7.052,5.509s-5.473,0.563-6.281,0c-0.737-0.631-0.209-6.28-0.209-6.28s0.737-6.104,1.789-7.894
			C201.951,345.289,207.25,342.342,207.25,342.342z"/>
		<path d="M124.555,367.463l8.911-31.402h37.683c0,0,4.982,0.525,6.666,3.333c1.754,2.809,1.193,7.649,1.193,7.649l-5.123,20.42
			h-15.719c0,0,1.825-9.998,3.579-17.264c1.754-7.263-3.157-7.857-3.157-7.857h-9.403l-5.403,18.84c0,0-4.702,5.473-6.666,6.281
			H124.555z"/>
		<path d="M511.265,367.463l10.001-31.402h37.683c0,0,4.946,0.525,6.701,3.333c1.756,2.809,1.194,7.649,1.194,7.649l-5.3,20.42
			h-17.226c0,0,2.875-8.42,4.701-15.721c1.755-7.227-2.563-9.401-2.563-9.401h-9.438l-5.265,18.839c0,0-4.348,5.474-6.278,6.281
			h-14.212V367.463z"/>
		<path d="M237.071,345.464c-1.37,1.542-5.647,15.087-4.699,17.296c0.947,2.143,6.279,4.701,6.279,4.701h28.245
			c0,0,5.614-3.509,9.791-6.281c0,0-24.001,0.176-25.474,0c-0.665-0.07-0.42-2.979-0.35-4.699h19.296c0,0,3.719-0.808,9.262-5.405
			c5.617-4.594,6.315-5.088,6.315-8.736c0-3.611-3.158-6.281-3.158-6.281H249.6C249.668,336.061,238.442,343.92,237.071,345.464z
			 M259.108,342.342h12.666c0,0-1.404,4.809-8.315,7.857h-10.56c-1.019-2.734,1.473-4.91,2.876-6.104
			C257.248,342.762,259.108,342.342,259.108,342.342z"/>
		<path d="M490.846,367.463c0,0,5.333-16.876,7.019-22.28c0.842-2.946-1.123-2.841-4.844-2.841s-6.421,0.806-11.578,9.401
			c-6.035,10.035,8.91,12.772,8.91,12.772l-1.053,2.945h-17.259c0,0-9.44,0.387-9.44-10.98c0-13.964,17.857-20.423,17.857-20.423
			h37.717l-10.033,31.403h-17.296V367.463L490.846,367.463z"/>
	</g>
</g>
</svg>
