<svg id="png_achievement-list.png_src_achievement-list.svg" data-name="png/achievement-list.png, src/achievement-list.svg" xmlns="http://www.w3.org/2000/svg" width="158" height="158" viewBox="0 0 158 158">
  <defs>
    <style>
      .cls-1 {
        fill: #ecf0f1;
      }

      .cls-1, .cls-2, .cls-3, .cls-4, .cls-5 {
        fill-rule: evenodd;
      }

      .cls-2 {
        fill: #33495f;
      }

      .cls-3 {
        fill: #405973;
      }

      .cls-4 {
        fill: #f2c500;
      }

      .cls-5 {
        fill: #edac37;
      }
    </style>
  </defs>
  <path id="Squircle" class="cls-1" d="M61,51s32.822-2,66.482-2C160.82,49,195,51,195,51a10,10,0,0,1,10,10s2,33.848,2,67.521c0,33.325-2,66.479-2,66.479a10,10,0,0,1-10,10s-34.162,2-67.492,2C93.839,207,61,205,61,205a10,10,0,0,1-10-10s-2-33.71-2-67.315C49,94.29,51,61,51,61A10,10,0,0,1,61,51Z" transform="translate(-49 -49)"/>
  <path id="Base" class="cls-2" d="M106.651,167.889c4.341,0,5.9-4.445,5.9-4.445h30.837a5.735,5.735,0,0,0,5.958,4.445c0,4.119,2.372,3.333,2.372,3.333H104.279S106.651,171.183,106.651,167.889Zm-2.372,3.333h47.442V179H104.279v-7.778Z" transform="translate(-49 -49)"/>
  <path id="Base-2" data-name="Base" class="cls-3" d="M106.651,167.889c4.341,0,5.9-4.445,5.9-4.445H119.7s-1.074,4.143-3.558,4.445-2.373,3.333-2.373,3.333h-9.488S106.651,171.183,106.651,167.889Zm-2.372,3.333H111.4V179h-7.116v-7.778Z" transform="translate(-49 -49)"/>
  <path id="Trophée" class="cls-4" d="M135.2,125.163H120.8c5.2,0,2.321,23.094.777,33.407-0.444,2.966-6.624,4.874-6.624,4.874h26.094s-6.211-1.923-6.691-4.907C132.694,148.207,129.612,125.163,135.2,125.163ZM128,76c-16.566,0-30,2.009-30,2.252,0,19.9,13.43,49.163,30,49.163s30-29.265,30-49.163C157.994,77.985,144.564,76,128,76Zm16.2,46.6h0a2.328,2.328,0,0,1-2.4-2.256c0.014-7.355,8.257-10.366,16.228-13.277,9.834-3.591,15.271-6.435,15.167-12.971-0.055-3.421-1.416-5.112-2.818-5.815a9.157,9.157,0,0,0-8.406.039c-1.908,1.158-2.812,3.183-2.618,5.858,0.074,1.013,1.612,1.752,2.8,1.71,0.793-.035,1.278-0.3,1.245-1.5a2.32,2.32,0,0,1,2.338-2.309h0.062a2.333,2.333,0,0,1,2.4,2.194c0.11,4.041-2.843,5.982-5.817,6.113-3.513.152-7.541-2.177-7.812-5.9-0.316-4.344,1.387-7.876,4.8-9.946a14.219,14.219,0,0,1,13.274-.23c3.972,1.992,5.288,5.534,5.355,9.72,0.162,10.155-9.588,14.081-18.226,17.236-8.188,2.991-13.16,5.095-13.168,9.089A2.33,2.33,0,0,1,144.2,122.6Zm-32.395-.452a2.331,2.331,0,0,1-2.4-2.248c-0.008-4.2-6.4-6.51-13.159-8.95-8.642-3.119-18.4-7-18.235-17.058a10.784,10.784,0,0,1,6.311-9.6,12.371,12.371,0,0,1,12.362.233c3.383,2.055,5.071,5.545,4.755,9.827-0.272,3.7-4.255,6.032-7.819,5.854a5.69,5.69,0,0,1-5.81-6.068,2.351,2.351,0,0,1,2.461-2.193,2.321,2.321,0,0,1,2.337,2.31,1.146,1.146,0,0,0,1.24,1.453c1.212,0.071,2.733-.7,2.8-1.666,0.192-2.611-.7-4.594-2.576-5.735a9.244,9.244,0,0,0-8.493-.04c-1.386.694-2.719,2.358-2.773,5.7-0.1,6.434,5.33,9.24,15.158,12.786,7.975,2.878,16.222,5.853,16.237,13.146a2.329,2.329,0,0,1-2.395,2.256h0Z" transform="translate(-49 -49)"/>
  <path id="Shadows" class="cls-5" d="M135.2,125.163h-7.281c5.2,0,2.321,23.094.778,33.407-0.444,2.966-13.741,4.874-13.741,4.874h26.094s-6.211-1.923-6.691-4.907C132.694,148.207,129.612,125.163,135.2,125.163Zm9-2.559h0a2.328,2.328,0,0,1-2.4-2.256c0.014-7.355,8.257-10.366,16.228-13.277,9.834-3.591,15.271-6.435,15.167-12.971-0.055-3.421-1.416-5.112-2.818-5.815a9.157,9.157,0,0,0-8.406.039c-1.908,1.158-2.812,3.183-2.618,5.858,0.074,1.013,1.612,1.752,2.8,1.71,0.793-.035,1.278-0.3,1.245-1.5a2.32,2.32,0,0,1,2.338-2.309h0.062a2.333,2.333,0,0,1,2.4,2.194c0.11,4.041-2.843,5.982-5.817,6.113-3.513.152-7.541-2.177-7.812-5.9-0.316-4.344,1.387-7.876,4.8-9.946a14.219,14.219,0,0,1,13.274-.23c3.972,1.992,5.288,5.534,5.355,9.72,0.162,10.155-9.588,14.081-18.226,17.236-8.188,2.991-13.16,5.095-13.168,9.089A2.33,2.33,0,0,1,144.2,122.6Zm-3.149-42.271-8.3,46.445a52.411,52.411,0,0,0,24.907-45.334C157.651,81.177,141.047,80.333,141.047,80.333Z" transform="translate(-49 -49)"/>
</svg>
