<svg id="png_add.png_src_add.svg" data-name="png/add.png, src/add.svg" xmlns="http://www.w3.org/2000/svg" width="158" height="158" viewBox="0 0 158 158">
  <defs>
    <style>
      .cls-1 {
        fill: #ecf0f1;
      }

      .cls-1, .cls-2 {
        fill-rule: evenodd;
      }

      .cls-2 {
        fill: #2d97de;
      }
    </style>
  </defs>
  <path id="Squircle" class="cls-1" d="M61,51s32.822-2,66.482-2C160.82,49,195,51,195,51a10,10,0,0,1,10,10s2,33.848,2,67.521c0,33.325-2,66.479-2,66.479a10,10,0,0,1-10,10s-34.162,2-67.492,2C93.839,207,61,205,61,205a10,10,0,0,1-10-10s-2-33.71-2-67.315C49,94.29,51,61,51,61A10,10,0,0,1,61,51Z" transform="translate(-49 -49)"/>
  <path id="plus" class="cls-2" d="M128,90a9,9,0,0,1,9,9v58a9,9,0,0,1-18,0V99A9,9,0,0,1,128,90ZM99,119h58a9,9,0,0,1,0,18H99A9,9,0,0,1,99,119Z" transform="translate(-49 -49)"/>
</svg>
