<svg id="png_arrow.png_src_arrow.svg" data-name="png/arrow.png, src/arrow.svg" xmlns="http://www.w3.org/2000/svg" width="65.969" height="100.031" viewBox="0 0 65.969 100.031">
  <defs>
    <style>
      .cls-1 {
        fill: #ecf0f1;
        fill-rule: evenodd;
      }
    </style>
  </defs>
  <path id="Flèche" class="cls-1" d="M151.29,82.661a16.115,16.115,0,0,1,0,22.73l-33.967,32.487a15.969,15.969,0,0,1-22.644,0c-6.253-6.276-6.253-14.845,0-21.122l33.967-34.095A15.97,15.97,0,0,1,151.29,82.661Zm-0.325,90.649a16.051,16.051,0,0,0,0-22.627l-33.787-32.332a15.877,15.877,0,0,0-22.524,0c-6.22,6.248-6.22,14.771,0,21.019l33.786,33.94A15.877,15.877,0,0,0,150.965,173.31Z" transform="translate(-90 -77.969)"/>
</svg>
