<svg id="png_Atari_-_Jaguar.png_src_Atari_-_Jaguar.svg" data-name="png/Atari - Jaguar.png, src/Atari - Jaguar.svg" xmlns="http://www.w3.org/2000/svg" width="246" height="192" viewBox="0 0 246 192">
  <defs>
    <style>
      .cls-1 {
        fill: #33495f;
      }

      .cls-1, .cls-10, .cls-11, .cls-2, .cls-3, .cls-5, .cls-6, .cls-7 {
        fill-rule: evenodd;
      }

      .cls-2, .cls-8 {
        fill: #2b3e51;
      }

      .cls-3 {
        fill: #95a5a6;
      }

      .cls-4 {
        fill: #ea4b35;
      }

      .cls-5 {
        fill: #7f8c8d;
      }

      .cls-6 {
        fill: #2c3e51;
      }

      .cls-7 {
        fill: #26374a;
      }

      .cls-9 {
        fill: none;
        stroke: #25374a;
        stroke-width: 3px;
      }

      .cls-10 {
        fill: #25374a;
      }

      .cls-11 {
        fill: #415972;
      }
    </style>
  </defs>
  <path id="Body" class="cls-1" d="M128,47V227l-109.337-.511S5,205.133,5,149C5,73.313,40.082,48.85,90,42c3.009-.413,7,5,7,5h31Zm0,0V227l109.337-.511S251,205.133,251,149c0-75.687-35.082-100.15-85-107-3.009-.413-7,5-7,5H128Zm0,7V234l-109.337-.511S5,212.133,5,156C5,80.313,40.082,55.85,90,49c3.009-.413,7,5,7,5h31Zm0,0V234l109.337-.511S251,212.133,251,156c0-75.687-35.082-100.15-85-107-3.009-.413-7,5-7,5H128Z" transform="translate(-5 -42)"/>
  <path id="Shadows" class="cls-2" d="M125.879,112.382l8.485-8.485a3,3,0,0,1,4.243,4.242l-8.486,8.486A3,3,0,1,1,125.879,112.382Zm-18,0,8.485-8.485a3,3,0,0,1,4.243,4.242l-8.486,8.486A3,3,0,0,1,107.879,112.382Z" transform="translate(-5 -42)"/>
  <path id="Rounded_Rectangle_7" data-name="Rounded Rectangle 7" class="cls-3" d="M125.879,108.382l8.485-8.485a3,3,0,0,1,4.243,4.242l-8.486,8.486A3,3,0,1,1,125.879,108.382Z" transform="translate(-5 -42)"/>
  <path id="Rounded_Rectangle_7-2" data-name="Rounded Rectangle 7" class="cls-3" d="M107.879,108.382l8.485-8.485a3,3,0,0,1,4.243,4.242l-8.486,8.486A3,3,0,0,1,107.879,108.382Z" transform="translate(-5 -42)"/>
  <g id="Thumb_pad" data-name="Thumb pad">
    <path id="Shadows-2" data-name="Shadows" class="cls-2" d="M166,105a9,9,0,1,1-9,9A9,9,0,0,1,166,105Zm18-18a9,9,0,1,1-9,9A9,9,0,0,1,184,87Zm22-14a9,9,0,1,1-9,9A9,9,0,0,1,206,73ZM189,58a7,7,0,1,1-7,7A7,7,0,0,1,189,58ZM170,71a7,7,0,1,1-7,7A7,7,0,0,1,170,71ZM155,86a7,7,0,1,1-7,7A7,7,0,0,1,155,86Z" transform="translate(-5 -42)"/>
    <circle class="cls-4" cx="161" cy="69" r="9"/>
    <circle class="cls-4" cx="179" cy="51" r="9"/>
    <circle class="cls-4" cx="201" cy="37" r="9"/>
    <circle class="cls-4" cx="184" cy="20" r="7"/>
    <circle class="cls-4" cx="165" cy="33" r="7"/>
    <circle class="cls-4" cx="150" cy="48" r="7"/>
  </g>
  <g id="Center_pad" data-name="Center pad">
    <path id="Shadows-3" data-name="Shadows" class="cls-2" d="M97.5,144c5.247,0,9.5,2.239,9.5,5s-4.253,5-9.5,5-9.5-2.239-9.5-5S92.253,144,97.5,144Zm31,0c5.247,0,9.5,2.239,9.5,5s-4.253,5-9.5,5-9.5-2.239-9.5-5S123.253,144,128.5,144Zm31,0c5.247,0,9.5,2.239,9.5,5s-4.253,5-9.5,5-9.5-2.239-9.5-5S154.253,144,159.5,144Zm-62,19c5.247,0,9.5,2.239,9.5,5s-4.253,5-9.5,5-9.5-2.239-9.5-5S92.253,163,97.5,163Zm31,0c5.247,0,9.5,2.239,9.5,5s-4.253,5-9.5,5-9.5-2.239-9.5-5S123.253,163,128.5,163Zm31,0c5.247,0,9.5,2.239,9.5,5s-4.253,5-9.5,5-9.5-2.239-9.5-5S154.253,163,159.5,163Zm-62,19c5.247,0,9.5,2.239,9.5,5s-4.253,5-9.5,5-9.5-2.239-9.5-5S92.253,182,97.5,182Zm31,0c5.247,0,9.5,2.239,9.5,5s-4.253,5-9.5,5-9.5-2.239-9.5-5S123.253,182,128.5,182Zm31,0c5.247,0,9.5,2.239,9.5,5s-4.253,5-9.5,5-9.5-2.239-9.5-5S154.253,182,159.5,182Zm-62,19c5.247,0,9.5,2.239,9.5,5s-4.253,5-9.5,5-9.5-2.239-9.5-5S92.253,201,97.5,201Zm31,0c5.247,0,9.5,2.239,9.5,5s-4.253,5-9.5,5-9.5-2.239-9.5-5S123.253,201,128.5,201Zm31,0c5.247,0,9.5,2.239,9.5,5s-4.253,5-9.5,5-9.5-2.239-9.5-5S154.253,201,159.5,201Z" transform="translate(-5 -42)"/>
    <path id="Btn_pad" data-name="Btn pad" class="cls-5" d="M91,147h13a2,2,0,0,1,0,4H91A2,2,0,0,1,91,147Zm31,0h13a2,2,0,0,1,0,4H122A2,2,0,0,1,122,147Zm31,0h13a2,2,0,0,1,0,4H153A2,2,0,0,1,153,147ZM91,166h13a2,2,0,0,1,0,4H91A2,2,0,0,1,91,166Zm31,0h13a2,2,0,0,1,0,4H122A2,2,0,0,1,122,166Zm31,0h13a2,2,0,0,1,0,4H153A2,2,0,0,1,153,166ZM91,185h13a2,2,0,0,1,0,4H91A2,2,0,0,1,91,185Zm31,0h13a2,2,0,0,1,0,4H122A2,2,0,0,1,122,185Zm31,0h13a2,2,0,0,1,0,4H153A2,2,0,0,1,153,185ZM91,204h13a2,2,0,0,1,0,4H91A2,2,0,0,1,91,204Zm31,0h13a2,2,0,0,1,0,4H122A2,2,0,0,1,122,204Zm31,0h13a2,2,0,0,1,0,4H153A2,2,0,0,1,153,204Z" transform="translate(-5 -42)"/>
  </g>
  <path class="cls-2" d="M233,218H214c-0.282,0-.56-2.31-0.835-2.884C218.311,208.072,226.13,161.43,226,147a91.909,91.909,0,0,0-3.279-21.036A11.991,11.991,0,0,0,234,114s-2.693-24.255,2-19c8.417,9.425,10.928,43.983,11,52C247.14,162.568,238.025,218,233,218Z" transform="translate(-5 -42)"/>
  <path class="cls-2" d="M24.065,218H43.152c0.283,0,.563-2.311.839-2.886-5.169-7.06-13.025-53.813-12.894-68.275a91.92,91.92,0,0,1,3.294-21.085,12.029,12.029,0,0,1-11.331-11.99s2.705-24.31-2.009-19.044C12.6,104.167,10.072,138.8,10,146.839,9.859,162.442,19.017,218,24.065,218Z" transform="translate(-5 -42)"/>
  <path class="cls-6" d="M96,54l10,11h22v2H106Z" transform="translate(-5 -42)"/>
  <path id="Notches" class="cls-7" d="M56,136a2.794,2.794,0,0,1,2.006-1H72v6H56v-5Zm0,12H72v6H56v-6Zm0,12H72v6H56v-6Zm0,13H72v6H56v-6Zm0,13H72v6H56v-6Zm-1,12H72v6H54Zm-3,12H72v6H50Zm148-74a2.793,2.793,0,0,0-2.006-1H184v6h16v-5Zm-16,12h16v6H184v-6Zm0,12h16v6H184v-6Zm0,13h16v6H184v-6Zm0,13h16v6H184v-6Zm17,12H184v6h18Zm3,12H184v6h22Z" transform="translate(-5 -42)"/>
  <path class="cls-6" d="M160,54L150,65H128v2h22Z" transform="translate(-5 -42)"/>
  <path id="Rounded_Rectangle_6" data-name="Rounded Rectangle 6" class="cls-2" d="M128,138H83a5,5,0,0,0-5,5v83.634H75V140a5,5,0,0,1,5-5s38.077-.014,48,0v3Zm0,0h45a5,5,0,0,1,5,5v83.634h3V140a5,5,0,0,0-5-5s-38.077-.014-48,0v3Z" transform="translate(-5 -42)"/>
  <circle class="cls-8" cx="62" cy="46" r="30"/>
  <circle class="cls-9" cx="62" cy="46" r="25"/>
  <path id="Shadow" class="cls-10" d="M62.247,66h9.506a4,4,0,0,1,4,4v35a4,4,0,0,1-4,4H62.247a4,4,0,0,1-4-4V70A4,4,0,0,1,62.247,66ZM90,82.373V92.614a3.184,3.184,0,0,1-3.286,3.072H47.286A3.184,3.184,0,0,1,44,92.614V82.373A3.184,3.184,0,0,1,47.286,79.3H86.714A3.184,3.184,0,0,1,90,82.373Z" transform="translate(-5 -42)"/>
  <path id="Directional_pad" data-name="Directional pad" class="cls-11" d="M63.319,66.955h7.319a4,4,0,0,1,4,4V100.3a4,4,0,0,1-4,4H63.319a4,4,0,0,1-4-4V70.955A4,4,0,0,1,63.319,66.955ZM87.085,81.186v8.895a2.776,2.776,0,0,1-2.872,2.668H49.745a2.776,2.776,0,0,1-2.872-2.668V81.186a2.776,2.776,0,0,1,2.872-2.668H84.213A2.776,2.776,0,0,1,87.085,81.186Z" transform="translate(-5 -42)"/>
</svg>
