<?xml version="1.0" encoding="UTF-8" standalone="no"?>
<!-- Created with Inkscape (http://www.inkscape.org/) -->

<svg
   xmlns:dc="http://purl.org/dc/elements/1.1/"
   xmlns:cc="http://creativecommons.org/ns#"
   xmlns:rdf="http://www.w3.org/1999/02/22-rdf-syntax-ns#"
   xmlns:svg="http://www.w3.org/2000/svg"
   xmlns="http://www.w3.org/2000/svg"
   xmlns:sodipodi="http://sodipodi.sourceforge.net/DTD/sodipodi-0.dtd"
   xmlns:inkscape="http://www.inkscape.org/namespaces/inkscape"
   id="svg2"
   version="1.1"
   inkscape:version="0.91 r13725"
   width="64"
   height="64"
   sodipodi:docname="Bandai - WonderSwan-content.svg">
  <metadata
     id="metadata8">
    <rdf:RDF>
      <cc:Work
         rdf:about="">
        <dc:format>image/svg+xml</dc:format>
        <dc:type
           rdf:resource="http://purl.org/dc/dcmitype/StillImage" />
        <dc:title />
      </cc:Work>
    </rdf:RDF>
  </metadata>
  <defs
     id="defs6" />
  <sodipodi:namedview
     pagecolor="#ffffff"
     bordercolor="#666666"
     borderopacity="1"
     objecttolerance="10"
     gridtolerance="10"
     guidetolerance="10"
     inkscape:pageopacity="0"
     inkscape:pageshadow="2"
     inkscape:window-width="1440"
     inkscape:window-height="836"
     id="namedview4"
     showgrid="true"
     inkscape:zoom="7.5853275"
     inkscape:cx="20.033298"
     inkscape:cy="52.46416"
     inkscape:window-x="0"
     inkscape:window-y="27"
     inkscape:window-maximized="1"
     inkscape:current-layer="svg2">
    <inkscape:grid
       type="xygrid"
       id="grid2987"
       empspacing="4"
       visible="true"
       enabled="true"
       snapvisiblegridlinesonly="true" />
  </sodipodi:namedview>
  <g
     inkscape:groupmode="layer"
     id="layer3"
     inkscape:label="logo">
    <rect
       style="fill:#2c3e50;fill-opacity:1;stroke:none"
       id="rect3784"
       width="61"
       height="8"
       x="2"
       y="37"
       ry="1" />
    <rect
       style="fill:#34495e;fill-opacity:1;stroke:none"
       id="rect3782"
       width="62"
       height="29"
       x="1"
       y="12"
       ry="1" />
    <rect
       style="fill:#2c3e50;fill-opacity:1;stroke:none"
       id="rect3786"
       width="59"
       height="8"
       x="3"
       y="43"
       ry="1" />
    <path
       style="fill:#2c3e50;fill-opacity:1;stroke:none"
       d="m 5,47 55,0 c 1.385,0 3,0.115 3,1.5 0,1.385 -1.115,2.5 -2.5,2.5 l -56,0 C 3.115,51 2,49.885 2,48.5 2,47.115 3.615,47 5,47 z"
       id="rect3788"
       inkscape:connector-curvature="0"
       sodipodi:nodetypes="sssssss" />
    <rect
       style="fill:#16a085;fill-opacity:1;stroke:none"
       id="rect3941"
       width="57"
       height="6"
       x="4"
       y="44" />
    <rect
       style="fill:#3498ff;fill-opacity:1;stroke:none"
       id="rect3791"
       width="58"
       height="22"
       x="3"
       y="18"
       ry="2.5" />
    <path
       inkscape:connector-curvature="0"
       style="fill:#f1c40f;fill-opacity:1;stroke:none"
       d="m 59,44 c 0,1.81578 0,4.112186 0,6 1,0 0,0 1,0 0,-1.775143 0,-4.347818 0,-6 -0.333333,0 -0.666667,0 -1,0 z"
       id="rect3793-5-7-0-7"
       sodipodi:nodetypes="ccccc" />
    <rect
       style="fill:#ecf0f1;fill-opacity:1;stroke:none"
       id="rect3943"
       width="57"
       height="2"
       x="4"
       y="42" />
    <rect
       style="fill:#2c3e50;fill-opacity:1;stroke:none"
       id="rect3945"
       width="26"
       height="3"
       x="19"
       y="14"
       ry="1.5" />
    <path
       inkscape:connector-curvature="0"
       style="fill:#f1c40f;fill-opacity:1;stroke:none"
       d="m 33,44 c 0,1.81578 0,4.112186 0,6 1,0 0,0 1,0 0,-1.775143 0,-4.347818 0,-6 -0.333333,0 -0.666667,0 -1,0 z"
       id="rect3793-5-7-0-7-6"
       sodipodi:nodetypes="ccccc" />
    <path
       inkscape:connector-curvature="0"
       style="fill:#f1c40f;fill-opacity:1;stroke:none"
       d="m 31,44 c 0,1.81578 0,4.112186 0,6 1,0 0,0 1,0 0,-1.775143 0,-4.347818 0,-6 -0.333333,0 -0.666667,0 -1,0 z"
       id="rect3793-5-7-0-7-1"
       sodipodi:nodetypes="ccccc" />
    <path
       inkscape:connector-curvature="0"
       style="fill:#f1c40f;fill-opacity:1;stroke:none"
       d="m 5,44 c 0,1.81578 0,4.112186 0,6 1,0 0,0 1,0 0,-1.775143 0,-4.347818 0,-6 -0.333333,0 -0.666667,0 -1,0 z"
       id="rect3793-5-7-0-7-7"
       sodipodi:nodetypes="ccccc" />
    <path
       inkscape:connector-curvature="0"
       style="fill:#f1c40f;fill-opacity:1;stroke:none"
       d="m 7,44 c 0,1.51315 0,3.426822 0,5 1,0 0,0 1,0 0,-1.479286 0,-3.623182 0,-5 -0.333333,0 -0.666667,0 -1,0 z"
       id="rect3793-5-7-0-7-7-0"
       sodipodi:nodetypes="ccccc" />
    <path
       inkscape:connector-curvature="0"
       style="fill:#f1c40f;fill-opacity:1;stroke:none"
       d="m 9,44 c 0,1.51315 0,3.426822 0,5 1,0 0,0 1,0 0,-1.479286 0,-3.623182 0,-5 -0.333333,0 -0.666667,0 -1,0 z"
       id="rect3793-5-7-0-7-7-0-1"
       sodipodi:nodetypes="ccccc" />
    <path
       inkscape:connector-curvature="0"
       style="fill:#f1c40f;fill-opacity:1;stroke:none"
       d="m 11,44 c 0,1.51315 0,3.426822 0,5 1,0 0,0 1,0 0,-1.479286 0,-3.623182 0,-5 -0.333333,0 -0.666667,0 -1,0 z"
       id="rect3793-5-7-0-7-7-0-5"
       sodipodi:nodetypes="ccccc" />
    <path
       inkscape:connector-curvature="0"
       style="fill:#f1c40f;fill-opacity:1;stroke:none"
       d="m 13,44 c 0,1.51315 0,3.426822 0,5 1,0 0,0 1,0 0,-1.479286 0,-3.623182 0,-5 -0.333333,0 -0.666667,0 -1,0 z"
       id="rect3793-5-7-0-7-7-0-3"
       sodipodi:nodetypes="ccccc" />
    <path
       inkscape:connector-curvature="0"
       style="fill:#f1c40f;fill-opacity:1;stroke:none"
       d="m 15,44 c 0,1.51315 0,3.426822 0,5 1,0 0,0 1,0 0,-1.479286 0,-3.623182 0,-5 -0.333333,0 -0.666667,0 -1,0 z"
       id="rect3793-5-7-0-7-7-0-1-1"
       sodipodi:nodetypes="ccccc" />
    <path
       inkscape:connector-curvature="0"
       style="fill:#f1c40f;fill-opacity:1;stroke:none"
       d="m 17,44 c 0,1.51315 0,3.426822 0,5 1,0 0,0 1,0 0,-1.479286 0,-3.623182 0,-5 -0.333333,0 -0.666667,0 -1,0 z"
       id="rect3793-5-7-0-7-7-0-5-6"
       sodipodi:nodetypes="ccccc" />
    <path
       inkscape:connector-curvature="0"
       style="fill:#f1c40f;fill-opacity:1;stroke:none"
       d="m 19,44 c 0,1.51315 0,3.426822 0,5 1,0 0,0 1,0 0,-1.479286 0,-3.623182 0,-5 -0.333333,0 -0.666667,0 -1,0 z"
       id="rect3793-5-7-0-7-7-0-39"
       sodipodi:nodetypes="ccccc" />
    <path
       inkscape:connector-curvature="0"
       style="fill:#f1c40f;fill-opacity:1;stroke:none"
       d="m 21,44 c 0,1.51315 0,3.426822 0,5 1,0 0,0 1,0 0,-1.479286 0,-3.623182 0,-5 -0.333333,0 -0.666667,0 -1,0 z"
       id="rect3793-5-7-0-7-7-0-1-17"
       sodipodi:nodetypes="ccccc" />
    <path
       inkscape:connector-curvature="0"
       style="fill:#f1c40f;fill-opacity:1;stroke:none"
       d="m 23,44 c 0,1.51315 0,3.426822 0,5 1,0 0,0 1,0 0,-1.479286 0,-3.623182 0,-5 -0.333333,0 -0.666667,0 -1,0 z"
       id="rect3793-5-7-0-7-7-0-5-0"
       sodipodi:nodetypes="ccccc" />
    <path
       inkscape:connector-curvature="0"
       style="fill:#f1c40f;fill-opacity:1;stroke:none"
       d="m 25,44 c 0,1.51315 0,3.426822 0,5 1,0 0,0 1,0 0,-1.479286 0,-3.623182 0,-5 -0.333333,0 -0.666667,0 -1,0 z"
       id="rect3793-5-7-0-7-7-0-6"
       sodipodi:nodetypes="ccccc" />
    <path
       inkscape:connector-curvature="0"
       style="fill:#f1c40f;fill-opacity:1;stroke:none"
       d="m 27,44 c 0,1.51315 0,3.426822 0,5 1,0 0,0 1,0 0,-1.479286 0,-3.623182 0,-5 -0.333333,0 -0.666667,0 -1,0 z"
       id="rect3793-5-7-0-7-7-0-1-8"
       sodipodi:nodetypes="ccccc" />
    <path
       inkscape:connector-curvature="0"
       style="fill:#f1c40f;fill-opacity:1;stroke:none"
       d="m 29,44 c 0,1.51315 0,3.426822 0,5 1,0 0,0 1,0 0,-1.479286 0,-3.623182 0,-5 -0.333333,0 -0.666667,0 -1,0 z"
       id="rect3793-5-7-0-7-7-0-5-4"
       sodipodi:nodetypes="ccccc" />
    <path
       inkscape:connector-curvature="0"
       style="fill:#f1c40f;fill-opacity:1;stroke:none"
       d="m 35,44 c 0,1.51315 0,3.426822 0,5 1,0 0,0 1,0 0,-1.479286 0,-3.623182 0,-5 -0.333333,0 -0.666667,0 -1,0 z"
       id="rect3793-5-7-0-7-7-0-51"
       sodipodi:nodetypes="ccccc" />
    <path
       inkscape:connector-curvature="0"
       style="fill:#f1c40f;fill-opacity:1;stroke:none"
       d="m 37,44 c 0,1.51315 0,3.426822 0,5 1,0 0,0 1,0 0,-1.479286 0,-3.623182 0,-5 -0.333333,0 -0.666667,0 -1,0 z"
       id="rect3793-5-7-0-7-7-0-1-4"
       sodipodi:nodetypes="ccccc" />
    <path
       inkscape:connector-curvature="0"
       style="fill:#f1c40f;fill-opacity:1;stroke:none"
       d="m 39,44 c 0,1.51315 0,3.426822 0,5 1,0 0,0 1,0 0,-1.479286 0,-3.623182 0,-5 -0.333333,0 -0.666667,0 -1,0 z"
       id="rect3793-5-7-0-7-7-0-5-41"
       sodipodi:nodetypes="ccccc" />
    <path
       inkscape:connector-curvature="0"
       style="fill:#f1c40f;fill-opacity:1;stroke:none"
       d="m 41,44 c 0,1.51315 0,3.426822 0,5 1,0 0,0 1,0 0,-1.479286 0,-3.623182 0,-5 -0.333333,0 -0.666667,0 -1,0 z"
       id="rect3793-5-7-0-7-7-0-3-3"
       sodipodi:nodetypes="ccccc" />
    <path
       inkscape:connector-curvature="0"
       style="fill:#f1c40f;fill-opacity:1;stroke:none"
       d="m 43,44 c 0,1.51315 0,3.426822 0,5 1,0 0,0 1,0 0,-1.479286 0,-3.623182 0,-5 -0.333333,0 -0.666667,0 -1,0 z"
       id="rect3793-5-7-0-7-7-0-1-1-8"
       sodipodi:nodetypes="ccccc" />
    <path
       inkscape:connector-curvature="0"
       style="fill:#f1c40f;fill-opacity:1;stroke:none"
       d="m 45,44 c 0,1.51315 0,3.426822 0,5 1,0 0,0 1,0 0,-1.479286 0,-3.623182 0,-5 -0.333333,0 -0.666667,0 -1,0 z"
       id="rect3793-5-7-0-7-7-0-5-6-9"
       sodipodi:nodetypes="ccccc" />
    <path
       inkscape:connector-curvature="0"
       style="fill:#f1c40f;fill-opacity:1;stroke:none"
       d="m 47,44 c 0,1.51315 0,3.426822 0,5 1,0 0,0 1,0 0,-1.479286 0,-3.623182 0,-5 -0.333333,0 -0.666667,0 -1,0 z"
       id="rect3793-5-7-0-7-7-0-39-3"
       sodipodi:nodetypes="ccccc" />
    <path
       inkscape:connector-curvature="0"
       style="fill:#f1c40f;fill-opacity:1;stroke:none"
       d="m 49,44 c 0,1.51315 0,3.426822 0,5 1,0 0,0 1,0 0,-1.479286 0,-3.623182 0,-5 -0.333333,0 -0.666667,0 -1,0 z"
       id="rect3793-5-7-0-7-7-0-1-17-2"
       sodipodi:nodetypes="ccccc" />
    <path
       inkscape:connector-curvature="0"
       style="fill:#f1c40f;fill-opacity:1;stroke:none"
       d="m 51,44 c 0,1.51315 0,3.426822 0,5 1,0 0,0 1,0 0,-1.479286 0,-3.623182 0,-5 -0.333333,0 -0.666667,0 -1,0 z"
       id="rect3793-5-7-0-7-7-0-5-0-6"
       sodipodi:nodetypes="ccccc" />
    <path
       inkscape:connector-curvature="0"
       style="fill:#f1c40f;fill-opacity:1;stroke:none"
       d="m 53,44 c 0,1.51315 0,3.426822 0,5 1,0 0,0 1,0 0,-1.479286 0,-3.623182 0,-5 -0.333333,0 -0.666667,0 -1,0 z"
       id="rect3793-5-7-0-7-7-0-6-1"
       sodipodi:nodetypes="ccccc" />
    <path
       inkscape:connector-curvature="0"
       style="fill:#f1c40f;fill-opacity:1;stroke:none"
       d="m 55,44 c 0,1.51315 0,3.426822 0,5 1,0 0,0 1,0 0,-1.479286 0,-3.623182 0,-5 -0.333333,0 -0.666667,0 -1,0 z"
       id="rect3793-5-7-0-7-7-0-1-8-0"
       sodipodi:nodetypes="ccccc" />
    <path
       inkscape:connector-curvature="0"
       style="fill:#f1c40f;fill-opacity:1;stroke:none"
       d="m 57,44 c 0,1.51315 0,3.426822 0,5 1,0 0,0 1,0 0,-1.479286 0,-3.623182 0,-5 -0.333333,0 -0.666667,0 -1,0 z"
       id="rect3793-5-7-0-7-7-0-5-4-3"
       sodipodi:nodetypes="ccccc" />
  </g>
</svg>
