<?xml version="1.0" encoding="UTF-8" standalone="no"?>
<!-- Created with Inkscape (http://www.inkscape.org/) -->

<svg
   xmlns:dc="http://purl.org/dc/elements/1.1/"
   xmlns:cc="http://creativecommons.org/ns#"
   xmlns:rdf="http://www.w3.org/1999/02/22-rdf-syntax-ns#"
   xmlns:svg="http://www.w3.org/2000/svg"
   xmlns="http://www.w3.org/2000/svg"
   xmlns:sodipodi="http://sodipodi.sourceforge.net/DTD/sodipodi-0.dtd"
   xmlns:inkscape="http://www.inkscape.org/namespaces/inkscape"
   width="64"
   height="64"
   id="svg2"
   version="1.1"
   inkscape:version="0.48.4 r9939"
   inkscape:export-filename="/home/kivutar/Bureau/lakka-menu/cavestory-item.png"
   inkscape:export-xdpi="270"
   inkscape:export-ydpi="270"
   sodipodi:docname="Nouveau document 1">
  <defs
     id="defs4" />
  <sodipodi:namedview
     id="base"
     pagecolor="#ffffff"
     bordercolor="#666666"
     borderopacity="1.0"
     inkscape:pageopacity="0.0"
     inkscape:pageshadow="2"
     inkscape:zoom="8"
     inkscape:cx="44.170651"
     inkscape:cy="32.722051"
     inkscape:document-units="px"
     inkscape:current-layer="layer1"
     showgrid="true"
     inkscape:window-width="1440"
     inkscape:window-height="838"
     inkscape:window-x="0"
     inkscape:window-y="27"
     inkscape:window-maximized="1">
    <inkscape:grid
       type="xygrid"
       id="grid2985"
       empspacing="4"
       visible="true"
       enabled="true"
       snapvisiblegridlinesonly="true" />
  </sodipodi:namedview>
  <metadata
     id="metadata7">
    <rdf:RDF>
      <cc:Work
         rdf:about="">
        <dc:format>image/svg+xml</dc:format>
        <dc:type
           rdf:resource="http://purl.org/dc/dcmitype/StillImage" />
        <dc:title></dc:title>
      </cc:Work>
    </rdf:RDF>
  </metadata>
  <g
     inkscape:label="Calque 1"
     inkscape:groupmode="layer"
     id="layer1"
     transform="translate(0,-988.36218)">
    <path
       style="fill:#c0392b;fill-opacity:1;stroke:none"
       d="m 32.707195,992.7848 c -0.391737,-0.39173 -1.022477,-0.39173 -1.414214,0 l -26.8700575,26.8701 c -0.3917372,0.3917 -0.3917372,1.0224 0,1.4142 l 26.8700575,26.87 c 0.391737,0.3918 1.022477,0.3918 1.414214,0 0.01536,-0.015 0.03004,-0.028 0.04419,-0.044 l 24.770834,-24.7708 0.176777,-5.3475 -24.88132,-24.88131 -0.0221,0.0221 c -0.03202,-0.0449 -0.04806,-0.0923 -0.08839,-0.13259 z"
       id="rect3782"
       inkscape:connector-curvature="0" />
    <path
       style="fill:#7f8c8d;fill-opacity:1;stroke:none"
       d="m 37.656942,997.73455 2.740039,2.74005 -8.396893,8.5737 5.656854,5.6568 8.485282,-8.4853 8.485281,8.4853 -11.313709,11.3137 -16.970562,-16.9705 z"
       id="rect3758"
       inkscape:connector-curvature="0"
       sodipodi:nodetypes="ccccccccc" />
    <path
       style="fill:#ecf0f1;fill-opacity:1;stroke:none"
       d="m 24.221913,1012.5838 c -0.391737,-0.3917 -1.022476,-0.3917 -1.414213,0 l -12.727922,12.7279 -0.7071071,0.7071 0.7071071,0.7071 15.556349,15.5564 0.707107,0.7071 0.707106,-0.7071 12.727923,-12.7279 c 0.391737,-0.3918 0.391737,-1.0225 0,-1.4143 l -15.55635,-15.5563 z"
       id="rect3761"
       inkscape:connector-curvature="0" />
    <rect
       style="fill:#7f8c8d;fill-opacity:1;stroke:none"
       id="rect3763"
       width="22"
       height="1"
       x="733.13232"
       y="716.87738"
       transform="matrix(0.70710678,0.70710678,-0.70710678,0.70710678,0,0)" />
  </g>
</svg>
