<svg id="png_close.png_src_close.svg" data-name="png/close.png, src/close.svg" xmlns="http://www.w3.org/2000/svg" width="111.031" height="111" viewBox="0 0 111.031 111">
  <defs>
    <style>
      .cls-1 {
        fill: #ecf0f1;
        fill-rule: evenodd;
      }
    </style>
  </defs>
  <path id="Flèche" class="cls-1" d="M178.32,76.709a16.207,16.207,0,0,1,0,22.808L99.331,177.268a15.938,15.938,0,0,1-22.651,0c-6.255-6.3-6.255-14.9,0-21.195l78.989-79.364A15.939,15.939,0,0,1,178.32,76.709ZM178.291,178.32a16.207,16.207,0,0,1-22.808,0L77.732,99.331a15.939,15.939,0,0,1,0-22.651c6.3-6.255,14.9-6.255,21.2,0l79.364,78.989A15.939,15.939,0,0,1,178.291,178.32Z" transform="translate(-72 -72)"/>
</svg>
