<?xml version="1.0"?>
<svg version="1.1" xmlns="http://www.w3.org/2000/svg" xmlns:xlink="http://www.w3.org/1999/xlink" width="256" height="256">
    <desc iVinci="yes" version="4.6" gridStep="20" showGrid="no" snapToGrid="no" codePlatform="0"/>
    <g id="Layer1" name="Layer 2" opacity="1">
        <g id="Shape1">
            <desc shapeID="1" type="0" basicInfo-basicType="0" basicInfo-roundedRectRadius="12" basicInfo-polygonSides="6" basicInfo-starPoints="5" bounding="rect(-79,-79,158,158)" text="" font-familyName="" font-pixelSize="20" font-bold="0" font-underline="0" font-alignment="1" strokeStyle="0" markerStart="0" markerEnd="0" shadowEnabled="0" shadowOffsetX="0" shadowOffsetY="2" shadowBlur="4" shadowOpacity="160" blurEnabled="0" blurRadius="4" transform="matrix(1.62025,0,0,1.62025,128,128)" pers-center="0,0" pers-size="0,0" pers-start="0,0" pers-end="0,0" locked="0" mesh="" flag=""/>
            <path id="shapePath1" d="M19.443,3.24047 C19.443,3.24047 72.623,-1.52588e-05 127.161,-1.52588e-05 C181.177,-1.52588e-05 236.557,3.24047 236.557,3.24047 C245.506,3.24047 252.759,10.4946 252.759,19.443 C252.759,19.443 256,74.2854 256,128.844 C256,182.839 252.759,236.557 252.759,236.557 C252.759,245.506 245.506,252.759 236.557,252.759 C236.557,252.759 181.206,256 127.203,256 C72.6505,256 19.443,252.759 19.443,252.759 C10.4946,252.759 3.2405,245.506 3.2405,236.557 C3.2405,236.557 0,181.938 0,127.49 C0,73.3813 3.2405,19.443 3.2405,19.443 C3.2405,10.4946 10.4946,3.24047 19.443,3.24047 Z" style="stroke:none;fill-rule:evenodd;fill:#ffffff;fill-opacity:1;"/>
        </g>
    </g>
    <g id="Layer2" name="Layer 3" opacity="1">
        <g id="Shape2">
            <desc shapeID="2" type="0" basicInfo-basicType="0" basicInfo-roundedRectRadius="12" basicInfo-polygonSides="6" basicInfo-starPoints="5" bounding="rect(-37.9999,-37.9999,75.9999,75.9999)" text="" font-familyName="" font-pixelSize="20" font-bold="0" font-underline="0" font-alignment="1" strokeStyle="0" markerStart="0" markerEnd="0" shadowEnabled="0" shadowOffsetX="0" shadowOffsetY="2" shadowBlur="4" shadowOpacity="160" blurEnabled="0" blurRadius="4" transform="matrix(1.14571,1.14568,-1.14568,1.14571,128,128)" pers-center="0,0" pers-size="0,0" pers-start="0,0" pers-end="0,0" locked="0" mesh="" flag=""/>
            <path id="shapePath2" d="M171.536,84.4632 C177.23,90.1579 177.231,99.3909 171.536,105.086 L105.087,171.536 C99.392,177.231 90.1591,177.231 84.4643,171.536 C78.7694,165.843 78.7693,156.609 84.464,150.914 L150.913,84.4635 C156.608,78.7686 165.841,78.7685 171.536,84.4632 M105.086,84.464 L171.536,150.913 C177.231,156.608 177.231,165.841 171.536,171.536 C165.843,177.23 156.609,177.231 150.914,171.536 L84.4635,105.087 C78.7686,99.3922 78.7684,90.1592 84.4632,84.4643 C90.1579,78.7694 99.3907,78.7694 105.086,84.464 Z" style="stroke:none;fill-rule:evenodd;fill:#de2c2f;fill-opacity:1;"/>
        </g>
        <g id="Shape3">
            <desc shapeID="3" type="0" basicInfo-basicType="1" basicInfo-roundedRectRadius="12" basicInfo-polygonSides="6" basicInfo-starPoints="5" bounding="rect(-8.14652,-3.94187,16.2931,7.88374)" text="" font-familyName="Helvetica" font-pixelSize="20" font-bold="0" font-underline="0" font-alignment="1" strokeStyle="0" markerStart="0" markerEnd="0" shadowEnabled="0" shadowOffsetX="0" shadowOffsetY="2" shadowBlur="4" shadowOpacity="160" blurEnabled="0" blurRadius="4" transform="matrix(1.26574,1.2657,-2.76111,2.76118,128,128)" pers-center="0,0" pers-size="0,0" pers-start="0,0" pers-end="0,0" locked="0" mesh="" flag=""/>
            <path id="shapePath3" d="M128.573,106.805 L149.195,127.427 L127.427,149.195 L106.805,128.573 L128.573,106.805 Z" style="stroke:none;fill-rule:evenodd;fill:#de2c2f;fill-opacity:1;"/>
        </g>
    </g>
</svg>
