<svg id="png_Coleco_-_ColecoVision-content.svg_src_Coleco_-_ColecoVision-content.svg" data-name="png/Coleco - ColecoVision-content.svg, src/Coleco - ColecoVision-content.svg" xmlns="http://www.w3.org/2000/svg" width="218" height="248" viewBox="0 0 218 248">
  <defs>
    <style>
      .cls-1, .cls-4 {
        fill: #2b3e51;
      }

      .cls-2 {
        fill: #227fbb;
      }

      .cls-3 {
        fill: none;
        stroke: #2d97de;
        stroke-width: 4px;
      }

      .cls-4 {
        fill-rule: evenodd;
      }

      .cls-5 {
        fill: #405973;
      }

      .cls-6 {
        fill: #2d97de;
      }
    </style>
  </defs>
  <rect id="Rounded_Rectangle_5" data-name="Rounded Rectangle 5" class="cls-1" x="2" width="214" height="248" rx="4" ry="4"/>
  <rect id="Rounded_Rectangle_5-2" data-name="Rounded Rectangle 5" class="cls-1" x="2" y="4" width="214" height="18" rx="9" ry="9"/>
  <path id="Rounded_Rectangle_5-3" data-name="Rounded Rectangle 5" class="cls-2" d="M17,0H200a0,0,0,0,1,0,0V176a12,12,0,0,1-12,12H29a12,12,0,0,1-12-12V0A0,0,0,0,1,17,0Z"/>
  <rect id="Rounded_Rectangle_12" data-name="Rounded Rectangle 12" class="cls-3" x="26" y="9" width="166" height="167" rx="12" ry="12"/>
  <path class="cls-4" d="M235,9c1.1,0,2,1.791,2,4s-0.9,4-2,4-2-1.791-2-4S233.9,9,235,9Zm0,10c1.1,0,2,1.791,2,4s-0.9,4-2,4-2-1.791-2-4S233.9,19,235,19Zm0,10c1.1,0,2,1.791,2,4s-0.9,4-2,4-2-1.791-2-4S233.9,29,235,29Zm0,10c1.1,0,2,1.791,2,4s-0.9,4-2,4-2-1.791-2-4S233.9,39,235,39Zm0,10c1.1,0,2,1.791,2,4s-0.9,4-2,4-2-1.791-2-4S233.9,49,235,49Zm0,10c1.1,0,2,1.791,2,4s-0.9,4-2,4-2-1.791-2-4S233.9,59,235,59Z" transform="translate(-19 -4)"/>
  <path class="cls-4" d="M21,9c1.1,0,2,1.791,2,4s-0.9,4-2,4-2-1.791-2-4S19.9,9,21,9Zm0,10c1.1,0,2,1.791,2,4s-0.9,4-2,4-2-1.791-2-4S19.9,19,21,19Zm0,10c1.1,0,2,1.791,2,4s-0.9,4-2,4-2-1.791-2-4S19.9,29,21,29Zm0,10c1.1,0,2,1.791,2,4s-0.9,4-2,4-2-1.791-2-4S19.9,39,21,39Zm0,10c1.1,0,2,1.791,2,4s-0.9,4-2,4-2-1.791-2-4S19.9,49,21,49Zm0,10c1.1,0,2,1.791,2,4s-0.9,4-2,4-2-1.791-2-4S19.9,59,21,59Z" transform="translate(-19 -4)"/>
  <path id="Rounded_Rectangle_13" data-name="Rounded Rectangle 13" class="cls-5" d="M212,72h4a0,0,0,0,1,0,0V244a4,4,0,0,1-4,4h-4a0,0,0,0,1,0,0V76A4,4,0,0,1,212,72Z"/>
  <path id="Rounded_Rectangle_13-2" data-name="Rounded Rectangle 13" class="cls-5" d="M2,72H6a4,4,0,0,1,4,4V248a0,0,0,0,1,0,0H6a4,4,0,0,1-4-4V72A0,0,0,0,1,2,72Z"/>
  <path id="Rounded_Rectangle_13-3" data-name="Rounded Rectangle 13" class="cls-5" d="M200,0h8a0,0,0,0,1,0,0V0a4,4,0,0,1-4,4h-4a0,0,0,0,1,0,0V0A0,0,0,0,1,200,0Z"/>
  <path id="Rounded_Rectangle_13-4" data-name="Rounded Rectangle 13" class="cls-5" d="M9,0h8a0,0,0,0,1,0,0V4a0,0,0,0,1,0,0H13A4,4,0,0,1,9,0V0A0,0,0,0,1,9,0Z"/>
  <rect class="cls-6" x="17" width="183" height="4"/>
</svg>
