<?xml version="1.0" encoding="UTF-8" standalone="no"?>
<!-- Created with Inkscape (http://www.inkscape.org/) -->

<svg
   xmlns:dc="http://purl.org/dc/elements/1.1/"
   xmlns:cc="http://creativecommons.org/ns#"
   xmlns:rdf="http://www.w3.org/1999/02/22-rdf-syntax-ns#"
   xmlns:svg="http://www.w3.org/2000/svg"
   xmlns="http://www.w3.org/2000/svg"
   xmlns:sodipodi="http://sodipodi.sourceforge.net/DTD/sodipodi-0.dtd"
   xmlns:inkscape="http://www.inkscape.org/namespaces/inkscape"
   width="64"
   height="64"
   id="svg2"
   version="1.1"
   inkscape:version="0.48.4 r9939"
   inkscape:export-filename="/home/kivutar/Bureau/lakka-menu/dosbox.png"
   inkscape:export-xdpi="270"
   inkscape:export-ydpi="270"
   sodipodi:docname="Nouveau document 1">
  <defs
     id="defs4">
    <filter
       inkscape:collect="always"
       id="filter3810"
       x="-0.028723757"
       width="1.0574475"
       y="-0.14593684"
       height="1.2918737">
      <feGaussianBlur
         inkscape:collect="always"
         stdDeviation="0.15231445"
         id="feGaussianBlur3812" />
    </filter>
  </defs>
  <sodipodi:namedview
     id="base"
     pagecolor="#ffffff"
     bordercolor="#666666"
     borderopacity="1.0"
     inkscape:pageopacity="0.0"
     inkscape:pageshadow="2"
     inkscape:zoom="7.9195959"
     inkscape:cx="33.225352"
     inkscape:cy="34.937187"
     inkscape:document-units="px"
     inkscape:current-layer="layer1"
     showgrid="true"
     inkscape:snap-bbox="true"
     inkscape:window-width="1440"
     inkscape:window-height="838"
     inkscape:window-x="0"
     inkscape:window-y="27"
     inkscape:window-maximized="1">
    <inkscape:grid
       type="xygrid"
       id="grid2985"
       empspacing="4"
       visible="true"
       enabled="true"
       snapvisiblegridlinesonly="true" />
  </sodipodi:namedview>
  <metadata
     id="metadata7">
    <rdf:RDF>
      <cc:Work
         rdf:about="">
        <dc:format>image/svg+xml</dc:format>
        <dc:type
           rdf:resource="http://purl.org/dc/dcmitype/StillImage" />
        <dc:title></dc:title>
      </cc:Work>
    </rdf:RDF>
  </metadata>
  <g
     inkscape:label="Calque 1"
     inkscape:groupmode="layer"
     id="layer1"
     transform="translate(0,-988.36218)">
    <path
       transform="translate(0,988.36218)"
       style="fill:#bdc3c7;fill-opacity:1;stroke:none"
       d="m 5,10 54,0 c 2,14 2,30 0,44 L 5,54 C 3,40 3,24 5,10 z"
       id="rect2987"
       inkscape:connector-curvature="0"
       sodipodi:nodetypes="ccccc" />
    <rect
       style="fill:#95a5a6;fill-opacity:1;stroke:none"
       id="rect3757"
       width="48"
       height="36"
       x="8"
       y="14"
       transform="translate(0,988.36218)"
       ry="2" />
    <path
       transform="translate(0,988.36218)"
       style="fill:#34495e;fill-opacity:1;stroke:none"
       d="m 13,18 c 7,-1 27,-1 34,0 0.548432,0.07835 1,0.446 1,1 l 0,26 c 0,0.554 -0.451568,0.921653 -1,1 -7,1 -27,1 -34,0 -0.548432,-0.07835 -1,-0.446 -1,-1 l 0,-26 c 0,-0.554 0.451568,-0.921653 1,-1 z"
       id="rect3759"
       inkscape:connector-curvature="0"
       sodipodi:nodetypes="sssssssss" />
    <text
       xml:space="preserve"
       style="font-size:6.12337065px;font-style:normal;font-weight:normal;line-height:125%;letter-spacing:0px;word-spacing:0px;fill:#000000;fill-opacity:1;stroke:none;font-family:Sans"
       x="13.831543"
       y="1010.0839"
       id="text3763"
       sodipodi:linespacing="125%"><tspan
         sodipodi:role="line"
         id="tspan3765"
         x="13.831543"
         y="1010.0839"
         style="font-size:3px;fill:#2ecc71;fill-opacity:1">C:\DOS&gt;</tspan></text>
    <path
       sodipodi:type="arc"
       style="fill:#2c3e50;fill-opacity:1;stroke:none"
       id="path3767"
       sodipodi:cx="52"
       sodipodi:cy="36"
       sodipodi:rx="2"
       sodipodi:ry="2"
       d="m 54,36 a 2,2 0 1 1 -4,0 2,2 0 1 1 4,0 z"
       transform="translate(0,988.36218)" />
    <path
       transform="translate(0,994.36218)"
       sodipodi:type="arc"
       style="fill:#2c3e50;fill-opacity:1;stroke:none"
       id="path3767-4"
       sodipodi:cx="52"
       sodipodi:cy="36"
       sodipodi:rx="2"
       sodipodi:ry="2"
       d="m 54,36 a 2,2 0 1 1 -4,0 2,2 0 1 1 4,0 z" />
    <path
       sodipodi:type="arc"
       style="fill:#ecf0f1;fill-opacity:1;stroke:none"
       id="path3787"
       sodipodi:cx="51.5"
       sodipodi:cy="35.5"
       sodipodi:rx="1.5"
       sodipodi:ry="1.5"
       d="m 53,35.5 a 1.5,1.5 0 1 1 -3,0 l 1.5,0 z"
       transform="matrix(0.70710678,-0.70710678,0.70710678,0.70710678,-9.51829,1035.6759)"
       sodipodi:start="0"
       sodipodi:end="3.1415927" />
    <text
       xml:space="preserve"
       style="font-size:6.12337065000000003px;font-style:normal;font-weight:normal;line-height:125%;letter-spacing:0px;word-spacing:0px;fill:#000000;fill-opacity:1;stroke:none;font-family:Sans;filter:url(#filter3810)"
       x="13.831543"
       y="1010.0839"
       id="text3763-4"
       sodipodi:linespacing="125%"><tspan
         sodipodi:role="line"
         id="tspan3765-1"
         x="13.831543"
         y="1010.0839"
         style="font-size:3px;fill:#2ecc71;fill-opacity:1">C:\DOS&gt;</tspan></text>
  </g>
</svg>
