<?xml version="1.0" encoding="UTF-8" standalone="no"?>
<!-- Created with Inkscape (http://www.inkscape.org/) -->

<svg
   xmlns:dc="http://purl.org/dc/elements/1.1/"
   xmlns:cc="http://creativecommons.org/ns#"
   xmlns:rdf="http://www.w3.org/1999/02/22-rdf-syntax-ns#"
   xmlns:svg="http://www.w3.org/2000/svg"
   xmlns="http://www.w3.org/2000/svg"
   xmlns:sodipodi="http://sodipodi.sourceforge.net/DTD/sodipodi-0.dtd"
   xmlns:inkscape="http://www.inkscape.org/namespaces/inkscape"
   width="64"
   height="64"
   id="svg2"
   version="1.1"
   inkscape:version="0.48.4 r9939"
   sodipodi:docname="ffmpeg-item.svg"
   inkscape:export-filename="/home/kivutar/Bureau/RetroArch/media/lakka/ffmpeg-content.png"
   inkscape:export-xdpi="270"
   inkscape:export-ydpi="270">
  <defs
     id="defs4" />
  <sodipodi:namedview
     id="base"
     pagecolor="#000000"
     bordercolor="#666666"
     borderopacity="1.0"
     inkscape:pageopacity="0"
     inkscape:pageshadow="2"
     inkscape:zoom="7.919596"
     inkscape:cx="37.058773"
     inkscape:cy="34.519921"
     inkscape:document-units="px"
     inkscape:current-layer="layer1"
     showgrid="true"
     inkscape:snap-bbox="true"
     inkscape:window-width="1440"
     inkscape:window-height="838"
     inkscape:window-x="0"
     inkscape:window-y="27"
     inkscape:window-maximized="1">
    <inkscape:grid
       type="xygrid"
       id="grid2985"
       empspacing="4"
       visible="true"
       enabled="true"
       snapvisiblegridlinesonly="true" />
  </sodipodi:namedview>
  <metadata
     id="metadata7">
    <rdf:RDF>
      <cc:Work
         rdf:about="">
        <dc:format>image/svg+xml</dc:format>
        <dc:type
           rdf:resource="http://purl.org/dc/dcmitype/StillImage" />
        <dc:title></dc:title>
      </cc:Work>
    </rdf:RDF>
  </metadata>
  <g
     inkscape:label="Calque 1"
     inkscape:groupmode="layer"
     id="layer1"
     transform="translate(0,-988.36218)">
    <path
       style="fill:#2c3e50;fill-opacity:1;stroke:none"
       d="m 4,992.36218 0,40.00002 40,0 0,-40.00002 -40,0 z m 2.1428571,1.42857 1.4285715,0 c 0.3957143,0 0.7142857,0.31857 0.7142857,0.71429 l 0,1.42857 c 0,0.39571 -0.3185714,0.71428 -0.7142857,0.71428 l -1.4285715,0 c -0.3957142,0 -0.7142857,-0.31857 -0.7142857,-0.71428 l 0,-1.42857 c 0,-0.39572 0.3185715,-0.71429 0.7142857,-0.71429 z m 34.2857139,0 1.428572,0 c 0.395714,0 0.714286,0.31857 0.714286,0.71429 l 0,1.42857 c 0,0.39571 -0.318572,0.71428 -0.714286,0.71428 l -1.428572,0 c -0.395714,0 -0.714285,-0.31857 -0.714285,-0.71428 l 0,-1.42857 c 0,-0.39572 0.318571,-0.71429 0.714285,-0.71429 z m -34.2857139,4.28572 1.4285715,0 c 0.3957143,0 0.7142857,0.31857 0.7142857,0.71428 l 0,1.42855 c 0,0.3957 -0.3185714,0.7143 -0.7142857,0.7143 l -1.4285715,0 c -0.3957142,0 -0.7142857,-0.3186 -0.7142857,-0.7143 l 0,-1.42855 c 0,-0.39571 0.3185715,-0.71428 0.7142857,-0.71428 z m 34.2857139,0 1.428572,0 c 0.395714,0 0.714286,0.31857 0.714286,0.71428 l 0,1.42855 c 0,0.3957 -0.318572,0.7143 -0.714286,0.7143 l -1.428572,0 c -0.395714,0 -0.714285,-0.3186 -0.714285,-0.7143 l 0,-1.42855 c 0,-0.39571 0.318571,-0.71428 0.714285,-0.71428 z m -34.2857139,4.28573 1.4285715,0 c 0.3957143,0 0.7142857,0.3186 0.7142857,0.7143 l 0,1.4285 c 0,0.3958 -0.3185714,0.7143 -0.7142857,0.7143 l -1.4285715,0 c -0.3957142,0 -0.7142857,-0.3185 -0.7142857,-0.7143 l 0,-1.4285 c 0,-0.3957 0.3185715,-0.7143 0.7142857,-0.7143 z m 34.2857139,0 1.428572,0 c 0.395714,0 0.714286,0.3186 0.714286,0.7143 l 0,1.4285 c 0,0.3958 -0.318572,0.7143 -0.714286,0.7143 l -1.428572,0 c -0.395714,0 -0.714285,-0.3185 -0.714285,-0.7143 l 0,-1.4285 c 0,-0.3957 0.318571,-0.7143 0.714285,-0.7143 z m -34.2857139,4.2857 1.4285715,0 c 0.3957143,0 0.7142857,0.3186 0.7142857,0.7143 l 0,1.4286 c 0,0.3957 -0.3185714,0.7142 -0.7142857,0.7142 l -1.4285715,0 c -0.3957142,0 -0.7142857,-0.3185 -0.7142857,-0.7142 l 0,-1.4286 c 0,-0.3957 0.3185715,-0.7143 0.7142857,-0.7143 z m 34.2857139,0 1.428572,0 c 0.395714,0 0.714286,0.3186 0.714286,0.7143 l 0,1.4286 c 0,0.3957 -0.318572,0.7142 -0.714286,0.7142 l -1.428572,0 c -0.395714,0 -0.714285,-0.3185 -0.714285,-0.7142 l 0,-1.4286 c 0,-0.3957 0.318571,-0.7143 0.714285,-0.7143 z m -34.2857139,4.2857 1.4285715,0 c 0.3957143,0 0.7142857,0.3186 0.7142857,0.7143 l 0,1.4286 c 0,0.3957 -0.3185714,0.7143 -0.7142857,0.7143 l -1.4285715,0 c -0.3957142,0 -0.7142857,-0.3186 -0.7142857,-0.7143 l 0,-1.4286 c 0,-0.3957 0.3185715,-0.7143 0.7142857,-0.7143 z m 34.2857139,0 1.428572,0 c 0.395714,0 0.714286,0.3186 0.714286,0.7143 l 0,1.4286 c 0,0.3957 -0.318572,0.7143 -0.714286,0.7143 l -1.428572,0 c -0.395714,0 -0.714285,-0.3186 -0.714285,-0.7143 l 0,-1.4286 c 0,-0.3957 0.318571,-0.7143 0.714285,-0.7143 z m -34.2857139,4.2857 1.4285715,0 c 0.3957143,0 0.7142857,0.3186 0.7142857,0.7143 l 0,1.4286 c 0,0.3957 -0.3185714,0.7143 -0.7142857,0.7143 l -1.4285715,0 c -0.3957142,0 -0.7142857,-0.3186 -0.7142857,-0.7143 l 0,-1.4286 c 0,-0.3957 0.3185715,-0.7143 0.7142857,-0.7143 z m 34.2857139,0 1.428572,0 c 0.395714,0 0.714286,0.3186 0.714286,0.7143 l 0,1.4286 c 0,0.3957 -0.318572,0.7143 -0.714286,0.7143 l -1.428572,0 c -0.395714,0 -0.714285,-0.3186 -0.714285,-0.7143 l 0,-1.4286 c 0,-0.3957 0.318571,-0.7143 0.714285,-0.7143 z m -34.2857139,4.2857 1.4285715,0 c 0.3957143,0 0.7142857,0.3186 0.7142857,0.7143 l 0,1.4286 c 0,0.3957 -0.3185714,0.7143 -0.7142857,0.7143 l -1.4285715,0 c -0.3957142,0 -0.7142857,-0.3186 -0.7142857,-0.7143 l 0,-1.4286 c 0,-0.3957 0.3185715,-0.7143 0.7142857,-0.7143 z m 34.2857139,0 1.428572,0 c 0.395714,0 0.714286,0.3186 0.714286,0.7143 l 0,1.4286 c 0,0.3957 -0.318572,0.7143 -0.714286,0.7143 l -1.428572,0 c -0.395714,0 -0.714285,-0.3186 -0.714285,-0.7143 l 0,-1.4286 c 0,-0.3957 0.318571,-0.7143 0.714285,-0.7143 z m -34.2857139,4.2858 1.4285715,0 c 0.3957143,0 0.7142857,0.3185 0.7142857,0.7142 l 0,1.4286 c 0,0.3957 -0.3185714,0.7143 -0.7142857,0.7143 l -1.4285715,0 c -0.3957142,0 -0.7142857,-0.3186 -0.7142857,-0.7143 l 0,-1.4286 c 0,-0.3957 0.3185715,-0.7142 0.7142857,-0.7142 z m 34.2857139,0 1.428572,0 c 0.395714,0 0.714286,0.3185 0.714286,0.7142 l 0,1.4286 c 0,0.3957 -0.318572,0.7143 -0.714286,0.7143 l -1.428572,0 c -0.395714,0 -0.714285,-0.3186 -0.714285,-0.7143 l 0,-1.4286 c 0,-0.3957 0.318571,-0.7142 0.714285,-0.7142 z m -34.2857139,4.2857 1.4285715,0 c 0.3957143,0 0.7142857,0.3185 0.7142857,0.7143 l 0,1.4285 c 0,0.3957 -0.3185714,0.7143 -0.7142857,0.7143 l -1.4285715,0 c -0.3957142,0 -0.7142857,-0.3186 -0.7142857,-0.7143 l 0,-1.4285 c 0,-0.3958 0.3185715,-0.7143 0.7142857,-0.7143 z m 34.2857139,0 1.428572,0 c 0.395714,0 0.714286,0.3185 0.714286,0.7143 l 0,1.4285 c 0,0.3957 -0.318572,0.7143 -0.714286,0.7143 l -1.428572,0 c -0.395714,0 -0.714285,-0.3186 -0.714285,-0.7143 l 0,-1.4285 c 0,-0.3958 0.318571,-0.7143 0.714285,-0.7143 z"
       id="rect3005"
       inkscape:connector-curvature="0" />
    <path
       style="fill:#3498db;fill-opacity:1;stroke:none"
       d="m 9.7142857,992.36218 0,6.02679 c 0,1.41148 1.1331553,2.54463 2.5446433,2.54463 l 23.482142,0 c 1.411488,0 2.544643,-1.13315 2.544643,-2.54463 l 0,-6.02679 -28.5714283,0 z"
       id="rect3003"
       inkscape:connector-curvature="0" />
    <rect
       style="fill:#3498db;fill-opacity:1;stroke:none"
       id="rect3003-4"
       width="28.571428"
       height="17.142857"
       x="9.7142859"
       y="1003.7908"
       ry="2.547811" />
    <path
       inkscape:connector-curvature="0"
       style="fill:#3498db;fill-opacity:1;stroke:none"
       d="m 38.285714,1032.3622 0,-6.0268 c 0,-1.4115 -1.133155,-2.5446 -2.544643,-2.5446 l -23.482142,0 c -1.411488,0 -2.5446433,1.1331 -2.5446433,2.5446 l 0,6.0268 28.5714283,0 z"
       id="rect3003-2" />
    <path
       transform="translate(0,988.36218)"
       style="fill:#ecf0f1;fill-opacity:1;stroke:#ecf0f1;stroke-opacity:1;stroke-linejoin:round;stroke-linecap:round;stroke-width:2;stroke-miterlimit:4;stroke-dasharray:none"
       d="m 28,56 c 0,2.209139 -1.790861,4 -4,4 -2.209139,0 -4,-1.790861 -4,-4 0,-2.209139 1.790861,-4 4,-4 2.209139,0 4,1.790861 4,4 z"
       id="path2987" />
    <path
       sodipodi:type="arc"
       style="fill:#ecf0f1;fill-opacity:1;stroke:#ecf0f1;stroke-opacity:1;stroke-linejoin:round;stroke-linecap:round;stroke-width:2;stroke-miterlimit:4;stroke-dasharray:none"
       id="path2989"
       sodipodi:cx="52"
       sodipodi:cy="56"
       sodipodi:rx="4"
       sodipodi:ry="4"
       d="m 56,56 a 4,4 0 1 1 -8,0 4,4 0 1 1 8,0 z"
       transform="translate(0,984.36218)" />
    <path
       style="fill:#ecf0f1;stroke:#ecf0f1;stroke-width:2;stroke-linecap:round;stroke-linejoin:round;stroke-opacity:1;fill-opacity:1;stroke-miterlimit:4;stroke-dasharray:none"
       d="M 28,56 28,28"
       id="path2991"
       inkscape:connector-curvature="0"
       transform="translate(0,988.36218)" />
    <path
       style="fill:#ecf0f1;stroke:#ecf0f1;stroke-width:2;stroke-linecap:round;stroke-linejoin:round;stroke-opacity:1;fill-opacity:1;stroke-miterlimit:4;stroke-dasharray:none"
       d="M 56,52 56,24"
       id="path2993"
       inkscape:connector-curvature="0"
       transform="translate(0,988.36218)" />
    <path
       style="fill:#ecf0f1;stroke:#ecf0f1;stroke-width:2;stroke-linecap:round;stroke-linejoin:round;stroke-opacity:1;fill-opacity:1;stroke-miterlimit:4;stroke-dasharray:none"
       d="m 28,28 28,-4 0,-4 -28,4 z"
       id="path2995"
       inkscape:connector-curvature="0"
       transform="translate(0,988.36218)" />
  </g>
</svg>
