<?xml version="1.0" encoding="UTF-8" standalone="no"?>
<!-- Created with Inkscape (http://www.inkscape.org/) -->

<svg
   xmlns:dc="http://purl.org/dc/elements/1.1/"
   xmlns:cc="http://creativecommons.org/ns#"
   xmlns:rdf="http://www.w3.org/1999/02/22-rdf-syntax-ns#"
   xmlns:svg="http://www.w3.org/2000/svg"
   xmlns="http://www.w3.org/2000/svg"
   xmlns:xlink="http://www.w3.org/1999/xlink"
   xmlns:sodipodi="http://sodipodi.sourceforge.net/DTD/sodipodi-0.dtd"
   xmlns:inkscape="http://www.inkscape.org/namespaces/inkscape"
   width="64"
   height="64"
   id="svg2"
   version="1.1"
   inkscape:version="0.91 r13725"
   inkscape:export-filename="/home/kivutar/Bureau/RetroArch/media/lakka/dinothawr.png"
   inkscape:export-xdpi="270"
   inkscape:export-ydpi="270"
   sodipodi:docname="Game.svg">
  <defs
     id="defs4">
    <linearGradient
       id="linearGradient3923">
      <stop
         style="stop-color:#27ae60;stop-opacity:1;"
         offset="0"
         id="stop3925" />
      <stop
         id="stop3933"
         offset="0.5"
         style="stop-color:#27ae60;stop-opacity:1;" />
      <stop
         id="stop3931"
         offset="0.5"
         style="stop-color:#ecf0f1;stop-opacity:1;" />
      <stop
         style="stop-color:#ecf0f1;stop-opacity:1;"
         offset="1"
         id="stop3927" />
    </linearGradient>
    <linearGradient
       inkscape:collect="always"
       xlink:href="#linearGradient3923"
       id="linearGradient3929"
       x1="44"
       y1="27"
       x2="45"
       y2="26"
       gradientUnits="userSpaceOnUse" />
  </defs>
  <sodipodi:namedview
     id="base"
     pagecolor="#ffffff"
     bordercolor="#666666"
     borderopacity="1.0"
     inkscape:pageopacity="0.0"
     inkscape:pageshadow="2"
     inkscape:zoom="2.8284271"
     inkscape:cx="-99.004197"
     inkscape:cy="4.4835503"
     inkscape:document-units="px"
     inkscape:current-layer="svg2"
     showgrid="true"
     inkscape:snap-bbox="false"
     inkscape:snap-global="false"
     inkscape:window-width="1440"
     inkscape:window-height="836"
     inkscape:window-x="0"
     inkscape:window-y="27"
     inkscape:window-maximized="1">
    <inkscape:grid
       type="xygrid"
       id="grid2985"
       empspacing="4"
       visible="true"
       enabled="true"
       snapvisiblegridlinesonly="true" />
  </sodipodi:namedview>
  <metadata
     id="metadata7">
    <rdf:RDF>
      <cc:Work
         rdf:about="">
        <dc:format>image/svg+xml</dc:format>
        <dc:type
           rdf:resource="http://purl.org/dc/dcmitype/StillImage" />
        <dc:title />
      </cc:Work>
    </rdf:RDF>
  </metadata>
  <g
     inkscape:label="contours"
     inkscape:groupmode="layer"
     id="layer1"
     transform="translate(0,-988.36218)">
    <path
       style="opacity:1;fill:url(#linearGradient3929);fill-opacity:1;stroke:#2c3e50;stroke-width:1px;stroke-linecap:butt;stroke-linejoin:miter;stroke-opacity:1"
       d="m 37,28 c 2.798215,-2.350224 5.849847,-4.363412 9,-6 -0.220071,1.238948 -0.13128,2.220511 -1,4 1.578578,-0.619622 3.188712,-1.136687 5,-1 -0.660847,1.706401 -4.752993,5.938374 -6,7"
       id="path3921"
       inkscape:connector-curvature="0"
       transform="translate(0,988.36218)"
       sodipodi:nodetypes="ccccc" />
    <path
       style="fill:#27ae60;stroke:none;stroke-width:1px;stroke-linecap:round;stroke-linejoin:round;stroke-opacity:1;fill-opacity:1"
       d="m 52,43 -12,2 5,7 z"
       id="path3919"
       inkscape:connector-curvature="0"
       transform="translate(0,988.36218)" />
    <path
       style="fill:#27ae60;fill-opacity:1;stroke:none"
       d="M 6,21 17,9 20,9 15,27 z"
       id="path3917"
       inkscape:connector-curvature="0"
       transform="translate(0,988.36218)"
       sodipodi:nodetypes="ccccc" />
    <path
       style="opacity:1;fill:#e74c3c;fill-opacity:1;stroke:#2c3e50;stroke-opacity:1;stroke-linejoin:round;stroke-linecap:round"
       d="m 30,19 c 1.164292,2.584521 2.561153,5.052757 7,6 -5.691399,5.415283 -11.138612,8.046841 -16,4 0.491482,-5.089296 5.440308,-7.058451 9,-10 z"
       id="path3903"
       inkscape:connector-curvature="0"
       transform="translate(0,988.36218)"
       sodipodi:nodetypes="cccc" />
    <path
       style="fill:none;stroke:#2c3e50;stroke-width:1px;stroke-linecap:round;stroke-linejoin:round;stroke-opacity:1"
       d="M 24.1875,25.03125 C 23.394915,27.304271 23.419579,29.137522 25.5,29.9375"
       id="path3915"
       inkscape:connector-curvature="0"
       transform="translate(0,988.36218)"
       sodipodi:nodetypes="cc" />
    <path
       style="fill:#ecf0f1;stroke:#2c3e50;stroke-width:1px;stroke-linecap:butt;stroke-linejoin:miter;stroke-opacity:1;fill-opacity:1"
       d="m 33,26.6875 c -0.07048,-0.52297 -0.323524,-0.886188 -0.09375,-1.671875 1.006978,-0.885217 2.071168,-1.427161 3.203125,-1.5625 0.455738,0.274082 0.387411,0.941212 0.359375,1.578125"
       id="path3913"
       inkscape:connector-curvature="0"
       transform="translate(0,988.36218)"
       sodipodi:nodetypes="cccc" />
    <path
       style="fill:#ecf0f1;stroke:#2c3e50;stroke-width:1px;stroke-linecap:butt;stroke-linejoin:miter;stroke-opacity:1;fill-opacity:1"
       d="m 28.015625,29.078125 c -0.314027,-0.403375 -0.58037,-0.863972 -0.6875,-1.515625 0.577123,-0.819512 1.424662,-1.308515 2.375,-1.671875 0.689331,-0.0076 1.261293,0.806365 1.875,1.328125"
       id="path3909"
       inkscape:connector-curvature="0"
       transform="translate(0,988.36218)"
       sodipodi:nodetypes="cccc" />
    <path
       style="opacity:1;fill:#ecf0f1;fill-opacity:1;stroke:#2c3e50;stroke-width:1px;stroke-linecap:butt;stroke-linejoin:miter;stroke-opacity:1"
       d="m 27.90625,22.09375 c 0.08625,0.4969 -0.259055,0.08273 0.5,2 2.06365,0.949063 2.929635,0.0664 3.59375,-1.125 -0.13142,-1.483236 -0.134684,-2.095534 -0.59375,-2.59375"
       id="path3907"
       inkscape:connector-curvature="0"
       transform="translate(0,988.36218)"
       sodipodi:nodetypes="cccc" />
    <path
       style="fill:#ecf0f1;fill-opacity:1;stroke:#2c3e50;stroke-width:1px;stroke-linecap:butt;stroke-linejoin:miter;stroke-opacity:1"
       d="m 33.14563,19.540661 c 0.334449,0.837576 0.191204,2.063942 0.83969,2.298097 1.231401,0.444635 2.735387,-0.06326 3.314563,-1.414214 0.504394,-0.85574 -0.02997,-1.677129 -0.751301,-2.430679"
       id="path3905"
       inkscape:connector-curvature="0"
       transform="translate(0,988.36218)"
       sodipodi:nodetypes="cscc" />
    <path
       style="fill:#27ae60;fill-opacity:1;stroke:#2c3e50;stroke-width:1px;stroke-linecap:round;stroke-linejoin:round;stroke-opacity:1;opacity:1"
       d="m 5,19 c -11.542231,17.023516 5.071881,25.990162 14,28 1.445832,0.325476 1.602158,0.800783 2,1 13.395973,24.474696 33.898202,8.928063 37,7 -3.209869,-0.511466 -6.997649,-0.857815 -8,-2"
       id="path2998"
       inkscape:connector-curvature="0"
       transform="translate(0,988.36218)"
       sodipodi:nodetypes="csccc" />
    <path
       style="fill:#27ae60;fill-opacity:1;stroke:#2c3e50;stroke-width:1px;stroke-linecap:round;stroke-linejoin:round;stroke-opacity:1"
       d="m 44,46 c -7.047803,16.654941 5.644909,7.034792 8,5"
       id="path3891"
       inkscape:connector-curvature="0"
       transform="translate(0,988.36218)"
       sodipodi:nodetypes="cc" />
    <path
       style="fill:#27ae60;stroke:#2c3e50;stroke-width:1px;stroke-linecap:round;stroke-linejoin:round;stroke-opacity:1;fill-opacity:1"
       d="M 15,10 C 22.495204,2.8190944 24,7 24,8"
       id="path3793"
       inkscape:connector-curvature="0"
       transform="translate(0,988.36218)"
       sodipodi:nodetypes="cc" />
    <path
       style="fill:#27ae60;stroke:#2c3e50;stroke-width:1px;stroke-linecap:round;stroke-linejoin:round;stroke-opacity:1;fill-opacity:1"
       d="M 6,22 C 1.5177913,10.246674 15.549874,9.3415837 17,10"
       id="path3787"
       inkscape:connector-curvature="0"
       transform="translate(0,988.36218)"
       sodipodi:nodetypes="cc" />
    <path
       style="fill:#27ae60;stroke:#2c3e50;stroke-width:1px;stroke-linecap:round;stroke-linejoin:round;stroke-opacity:1;fill-opacity:1"
       d="m 21,29 c 5.19182,3.336606 10.66004,-2.447979 16,-4 1.528318,0.475749 0.03687,4.463886 -1,5 -3.623863,1.532162 -5.753883,5.713677 -18,8 -2.926199,0.546315 -4.51694,-1.655373 -6,-3"
       id="path3795"
       inkscape:connector-curvature="0"
       transform="translate(0,988.36218)"
       sodipodi:nodetypes="cccsc" />
    <path
       style="fill:#27ae60;stroke:#2c3e50;stroke-width:1px;stroke-linecap:round;stroke-linejoin:round;stroke-opacity:1;fill-opacity:1"
       d="m 52,43 c -4.392562,-6.508987 -6.813361,-1.91384 -9,4"
       id="path3895"
       inkscape:connector-curvature="0"
       transform="translate(0,988.36218)"
       sodipodi:nodetypes="cc" />
    <path
       style="fill:#27ae60;stroke:#2c3e50;stroke-width:1px;stroke-linecap:round;stroke-linejoin:round;stroke-opacity:1;fill-opacity:1"
       d="m 39,49 c 1.265433,-0.44074 1.501215,-1.499271 1,-3"
       id="path3803"
       inkscape:connector-curvature="0"
       transform="translate(0,988.36218)"
       sodipodi:nodetypes="cc" />
    <path
       style="fill:#27ae60;fill-opacity:1;stroke:#2c3e50;stroke-width:1px;stroke-linecap:round;stroke-linejoin:round;stroke-opacity:1"
       d="m 39,46 c 3.716761,1.185253 4.669239,0.609688 7,-1 1.879956,-1.467578 -1.564901,-4.175353 -1,-8 0.147175,-2.295623 -3.202406,-7.603203 -6,-8 C 38.851578,28.96173 38.707792,28.93292 38.5625,28.9375 36.383126,29.006214 34.731501,33.738332 39,38 33.477565,31.963077 28.588664,37.081565 27,43 m 9,12 c 3.199182,0.602459 9.117464,-3.003825 7,-8"
       transform="translate(0,988.36218)"
       id="path3801"
       inkscape:connector-curvature="0"
       sodipodi:nodetypes="ccccscccc" />
    <path
       style="fill:#27ae60;fill-opacity:1;stroke:#2c3e50;stroke-width:1px;stroke-linecap:round;stroke-linejoin:round;stroke-opacity:1;opacity:1"
       d="m 22,40 c 3.729865,-2.900397 8.314757,-6.928569 11,-11 4.001517,-3.407135 7.561986,2.779501 4,5 -4.62487,1.303923 -8.131715,5.642488 -12,9"
       id="path3797"
       inkscape:connector-curvature="0"
       transform="translate(0,988.36218)"
       sodipodi:nodetypes="cccc" />
    <path
       style="fill:#ecf0f1;stroke:#2c3e50;stroke-width:1px;stroke-linecap:butt;stroke-linejoin:miter;stroke-opacity:1;fill-opacity:1"
       d="m 42,32 c -1.304092,-1.036491 -3.595097,-2.191412 -3,-3 5.921273,-4.7626 7.294656,-0.885273 8,0 z"
       id="path3809"
       inkscape:connector-curvature="0"
       transform="translate(0,988.36218)"
       sodipodi:nodetypes="cccc" />
    <path
       style="fill:#ecf0f1;stroke:#2c3e50;stroke-width:1px;stroke-linecap:butt;stroke-linejoin:miter;stroke-opacity:1;fill-opacity:1"
       d="m 49,31 c -0.786684,-3.357739 -4.830577,-2.545022 -8,-1 -0.756372,2.084811 1.124823,3.810179 2,4 2.533575,-2.698102 4.40822,-2.926687 6,-3 z"
       id="path3807"
       inkscape:connector-curvature="0"
       transform="translate(0,988.36218)"
       sodipodi:nodetypes="cccc" />
    <path
       style="fill:#ecf0f1;stroke:#2c3e50;stroke-width:1px;stroke-linecap:round;stroke-linejoin:round;stroke-opacity:1;fill-opacity:1"
       d="m 42,33 c -0.996133,2.941329 1.085125,3.40365 3,4 0.835009,-2.462012 3.060934,-3.036351 5,-4 -2.589979,-1.188667 -5.24357,-1.391337 -8,0 z"
       id="path3805"
       inkscape:connector-curvature="0"
       transform="translate(0,988.36218)"
       sodipodi:nodetypes="cccc" />
    <path
       style="fill:#ecf0f1;fill-opacity:1;stroke:#2c3e50;stroke-width:1px;stroke-linecap:round;stroke-linejoin:round;stroke-opacity:1"
       d="m 33,29 c -0.516254,1.494711 0.01772,2.254265 2,2 1.313461,-0.657715 2.609672,-2.257691 3,-4 -1.970233,-0.114184 -3.687052,0.552415 -5,2 z"
       id="path3861"
       inkscape:connector-curvature="0"
       transform="translate(0,988.36218)"
       sodipodi:nodetypes="cccc" />
    <path
       style="fill:#ecf0f1;fill-opacity:1;stroke:#2c3e50;stroke-width:1px;stroke-linecap:round;stroke-linejoin:round;stroke-opacity:1"
       d="m 35,31 c -1.156354,2.636044 -0.08281,3.2709 2,3 1.646237,-1.27186 2.871163,-2.801112 3,-5 -2.421871,-0.136216 -4.465274,1.869885 -5,2 z"
       id="path3863"
       inkscape:connector-curvature="0"
       transform="translate(0,988.36218)"
       sodipodi:nodetypes="cccc" />
    <path
       style="fill:#27ae60;stroke:#2c3e50;stroke-width:1px;stroke-linecap:round;stroke-linejoin:round;stroke-opacity:1;fill-opacity:1;opacity:1"
       d="m 20,9 c 6.240166,-2.4368539 10.40609,-2.540185 14,-2 5.340856,0.9641562 3.564555,10.746884 3,11 -13.098465,5.215352 -13.089869,8.117102 -17,12 -1.168457,0.852527 -4.243126,-1.042216 -6,-1"
       id="path3789"
       inkscape:connector-curvature="0"
       transform="translate(0,988.36218)"
       sodipodi:nodetypes="ccccc" />
    <path
       style="fill:none;stroke:#2c3e50;stroke-width:1px;stroke-linecap:round;stroke-linejoin:round;stroke-opacity:1"
       d="m 25,12 c 2.872265,0.438841 8.995655,-2.7249151 8,2"
       id="path3865"
       inkscape:connector-curvature="0"
       transform="translate(0,988.36218)"
       sodipodi:nodetypes="cc" />
    <path
       sodipodi:type="arc"
       style="opacity:1;fill:none;fill-opacity:1;stroke:#2c3e50;stroke-width:1;stroke-linecap:round;stroke-linejoin:round;stroke-miterlimit:4;stroke-opacity:1;stroke-dasharray:none"
       id="path3867"
       sodipodi:cx="30.5"
       sodipodi:cy="12.5"
       sodipodi:rx="0.5"
       sodipodi:ry="0.5"
       d="M 31,12.5 A 0.5,0.5 0 0 1 30.5,13 0.5,0.5 0 0 1 30,12.5 0.5,0.5 0 0 1 30.5,12 0.5,0.5 0 0 1 31,12.5 Z"
       transform="translate(0,988.36218)" />
    <path
       style="fill:#ecf0f1;fill-opacity:1;stroke:#2c3e50;stroke-width:1px;stroke-linecap:butt;stroke-linejoin:miter;stroke-opacity:1"
       d="m 12,16 c 1.491185,-1.593618 3.116655,-3.030569 6,-3 3.019921,0.241056 3.45186,1.879458 4,3 0.433364,2.244485 0.264891,3.686521 0,5 -0.80556,1.324066 -1.841664,2.263893 -3,3 -1.212991,0.240685 -2.440562,0.45221 -4,0 -1.439247,-0.692527 -2.724067,-1.493153 -3,-3 -0.747506,-1.442415 -0.40928,-3.210549 0,-5 z"
       id="path3869"
       inkscape:connector-curvature="0"
       transform="translate(0,988.36218)"
       sodipodi:nodetypes="cccccccc" />
    <path
       transform="translate(-13.302446,993.88645)"
       sodipodi:type="arc"
       style="fill:none;stroke:#2c3e50;stroke-width:1;stroke-linecap:round;stroke-linejoin:round;stroke-miterlimit:4;stroke-opacity:1;stroke-dasharray:none"
       id="path3867-1"
       sodipodi:cx="30.5"
       sodipodi:cy="12.5"
       sodipodi:rx="0.5"
       sodipodi:ry="0.5"
       d="M 31,12.5 A 0.5,0.5 0 0 1 30.5,13 0.5,0.5 0 0 1 30,12.5 0.5,0.5 0 0 1 30.5,12 0.5,0.5 0 0 1 31,12.5 Z" />
    <path
       style="fill:#27ae60;fill-opacity:1;stroke:#2c3e50;stroke-width:1px;stroke-linecap:round;stroke-linejoin:round;stroke-opacity:1"
       d="m 10,20 c 1.994109,-1.456763 1.408048,-2.847781 2,-4"
       id="path3889"
       inkscape:connector-curvature="0"
       transform="translate(0,988.36218)"
       sodipodi:nodetypes="cc" />
    <path
       style="fill:#27ae60;stroke:#2c3e50;stroke-width:1px;stroke-linecap:round;stroke-linejoin:round;stroke-opacity:1;fill-opacity:1;opacity:1"
       d="m 50,51 c 1.896489,-0.380877 5.213601,0.324488 6,0 5.525512,-3.066891 -0.455586,-8.11797 -4,-8 -1.315709,0.08736 -3.247788,2.94838 -5,5"
       id="path3893"
       inkscape:connector-curvature="0"
       transform="translate(0,988.36218)"
       sodipodi:nodetypes="cccc" />
    <path
       style="fill:#ecf0f1;fill-opacity:1;stroke:#2c3e50;stroke-width:1px;stroke-linecap:round;stroke-linejoin:round;stroke-opacity:1"
       d="m 58,46 c 2.026672,0.22258 3.245361,0.643819 4,2 -1.028594,1.106264 -1.586875,0.767216 -4,1 -0.759552,-1.370025 0.258191,-1.743115 0,-3 z"
       id="path3901"
       inkscape:connector-curvature="0"
       transform="translate(0,988.36218)"
       sodipodi:nodetypes="cccc" />
    <path
       style="fill:#ecf0f1;stroke:#2c3e50;stroke-width:1px;stroke-linecap:round;stroke-linejoin:round;stroke-opacity:1;fill-opacity:1"
       d="m 56,44 c 0.452459,1.78543 1.197834,2.496832 2,3 0.795553,-1.070002 2.490746,-1.465274 4,-2 -1.192258,-1.806275 -2.819332,-2.819649 -6,-1 z"
       id="path3899"
       inkscape:connector-curvature="0"
       transform="translate(0,988.36218)"
       sodipodi:nodetypes="cccc" />
    <path
       style="fill:#ecf0f1;fill-opacity:1;stroke:#2c3e50;stroke-width:1px;stroke-linecap:round;stroke-linejoin:round;stroke-opacity:1"
       d="m 52,43 c 0.308185,0.728852 1.29185,3.064 4,2 0.259477,-0.71023 1.387793,-1.760441 3,-3 -0.50277,-0.731167 -3.145457,-1.840461 -7,1 z"
       id="path3897"
       inkscape:connector-curvature="0"
       transform="translate(0,988.36218)"
       sodipodi:nodetypes="cccc" />
    <path
       style="fill:none;stroke:#000000;stroke-width:1px;stroke-linecap:butt;stroke-linejoin:miter;stroke-opacity:1"
       d="m 33.015625,26.625 c 0.0052,-0.02083 0.01042,-0.04167 0,0 z"
       id="path3911"
       inkscape:connector-curvature="0"
       transform="translate(0,988.36218)" />
  </g>
</svg>
