<?xml version="1.0" encoding="UTF-8" standalone="no"?>
<!-- Created with Inkscape (http://www.inkscape.org/) -->

<svg
   xmlns:dc="http://purl.org/dc/elements/1.1/"
   xmlns:cc="http://creativecommons.org/ns#"
   xmlns:rdf="http://www.w3.org/1999/02/22-rdf-syntax-ns#"
   xmlns:svg="http://www.w3.org/2000/svg"
   xmlns="http://www.w3.org/2000/svg"
   xmlns:sodipodi="http://sodipodi.sourceforge.net/DTD/sodipodi-0.dtd"
   xmlns:inkscape="http://www.inkscape.org/namespaces/inkscape"
   id="svg2"
   version="1.1"
   inkscape:version="0.91 r13725"
   width="64"
   height="64"
   sodipodi:docname="GCE - Vectrex-content.svg">
  <metadata
     id="metadata8">
    <rdf:RDF>
      <cc:Work
         rdf:about="">
        <dc:format>image/svg+xml</dc:format>
        <dc:type
           rdf:resource="http://purl.org/dc/dcmitype/StillImage" />
        <dc:title />
      </cc:Work>
    </rdf:RDF>
  </metadata>
  <defs
     id="defs6" />
  <sodipodi:namedview
     pagecolor="#ffffff"
     bordercolor="#666666"
     borderopacity="1"
     objecttolerance="10"
     gridtolerance="10"
     guidetolerance="10"
     inkscape:pageopacity="0"
     inkscape:pageshadow="2"
     inkscape:window-width="1440"
     inkscape:window-height="836"
     id="namedview4"
     showgrid="true"
     inkscape:zoom="10.727273"
     inkscape:cx="32.345945"
     inkscape:cy="53.528224"
     inkscape:window-x="0"
     inkscape:window-y="27"
     inkscape:window-maximized="1"
     inkscape:current-layer="svg2"
     showguides="true"
     inkscape:guide-bbox="true">
    <inkscape:grid
       type="xygrid"
       id="grid2987"
       empspacing="4"
       visible="true"
       enabled="true"
       snapvisiblegridlinesonly="true" />
  </sodipodi:namedview>
  <g
     inkscape:groupmode="layer"
     id="layer3"
     inkscape:label="logo">
    <rect
       style="fill:#243342;fill-opacity:1;stroke:none"
       id="rect3055"
       width="60"
       height="27"
       x="2"
       y="3"
       ry="0.96428573" />
    <rect
       style="fill:#2c3e50;fill-opacity:1;stroke:none"
       id="rect3057"
       width="56"
       height="24"
       x="4"
       y="2"
       ry="0.95999998" />
    <path
       style="fill:#34495e;fill-opacity:1;stroke:none"
       d="m 5,24 c -0.554,0 -1,0.43551 -1,1 0,0.56449 -0.4189052,1 -1,1 -0.5810948,0 -1,0.446 -1,1 l 0,34 c 0,0.554 0.446,1 1,1 l 58,0 c 0.554,0 1,-0.446 1,-1 l 0,-34 c 0,-0.554 -0.443749,-1 -1,-1 -0.556251,0 -1,-0.460102 -1,-1 0,-0.539898 -0.446,-1 -1,-1 z"
       id="rect3061"
       inkscape:connector-curvature="0"
       sodipodi:nodetypes="szzsssssszzss" />
    <rect
       style="fill:#3498ff;fill-opacity:1;stroke:none"
       id="rect3059"
       width="56"
       height="30"
       x="4"
       y="29"
       ry="2" />
    <path
       style="fill:#243342;stroke:none;stroke-width:1px;stroke-linecap:butt;stroke-linejoin:miter;stroke-opacity:1;fill-opacity:1"
       d="m 27,11 2,0 0,1 6,0 0,-1 2,0 -5,-4 z"
       id="path3066"
       inkscape:connector-curvature="0"
       sodipodi:nodetypes="cccccccc" />
  </g>
</svg>
