<?xml version="1.0" encoding="UTF-8" standalone="no"?>
<!-- Created with Inkscape (http://www.inkscape.org/) -->

<svg
   xmlns:dc="http://purl.org/dc/elements/1.1/"
   xmlns:cc="http://creativecommons.org/ns#"
   xmlns:rdf="http://www.w3.org/1999/02/22-rdf-syntax-ns#"
   xmlns:svg="http://www.w3.org/2000/svg"
   xmlns="http://www.w3.org/2000/svg"
   xmlns:sodipodi="http://sodipodi.sourceforge.net/DTD/sodipodi-0.dtd"
   xmlns:inkscape="http://www.inkscape.org/namespaces/inkscape"
   id="svg2"
   version="1.1"
   inkscape:version="0.91 r13725"
   width="64"
   height="64"
   sodipodi:docname="GCE - Vectrex.svg">
  <metadata
     id="metadata8">
    <rdf:RDF>
      <cc:Work
         rdf:about="">
        <dc:format>image/svg+xml</dc:format>
        <dc:type
           rdf:resource="http://purl.org/dc/dcmitype/StillImage" />
        <dc:title />
      </cc:Work>
    </rdf:RDF>
  </metadata>
  <defs
     id="defs6" />
  <sodipodi:namedview
     pagecolor="#ffffff"
     bordercolor="#666666"
     borderopacity="1"
     objecttolerance="10"
     gridtolerance="10"
     guidetolerance="10"
     inkscape:pageopacity="0"
     inkscape:pageshadow="2"
     inkscape:window-width="1440"
     inkscape:window-height="836"
     id="namedview4"
     showgrid="true"
     inkscape:snap-bbox="true"
     inkscape:zoom="11.703704"
     inkscape:cx="18.198298"
     inkscape:cy="34.707931"
     inkscape:window-x="0"
     inkscape:window-y="27"
     inkscape:window-maximized="1"
     inkscape:current-layer="svg2">
    <inkscape:grid
       type="xygrid"
       id="grid2987"
       empspacing="4"
       visible="true"
       enabled="true"
       snapvisiblegridlinesonly="true" />
  </sodipodi:namedview>
  <g
     inkscape:groupmode="layer"
     id="layer3"
     inkscape:label="logo"
     style="display:inline">
    <rect
       style="fill:#2c3e50;fill-opacity:1;stroke:none"
       id="rect3046"
       width="62"
       height="24"
       x="1"
       y="20"
       ry="0.99999738" />
    <rect
       style="fill:#34495e;fill-opacity:1;stroke:none"
       id="rect3048"
       width="58"
       height="17"
       x="3"
       y="23"
       ry="0.99999738" />
    <rect
       style="fill:#ecf0f1;fill-opacity:1;stroke:none"
       id="rect3118"
       width="42"
       height="1"
       x="15"
       y="31" />
    <path
       sodipodi:type="arc"
       style="fill:#ecf0f1;fill-opacity:1;stroke:none"
       id="path3052"
       sodipodi:cx="16"
       sodipodi:cy="31"
       sodipodi:rx="6"
       sodipodi:ry="6"
       d="m 22,31 a 6,6 0 1 1 -12,0 6,6 0 1 1 12,0 z"
       transform="matrix(1.0833333,0,0,1.0833333,-0.83333333,-2.0833333)" />
    <path
       sodipodi:type="arc"
       style="fill:#2c3e50;fill-opacity:1;stroke:none;display:inline"
       id="path3052-7"
       sodipodi:cx="16"
       sodipodi:cy="31"
       sodipodi:rx="6"
       sodipodi:ry="6"
       d="m 22,31 a 6,6 0 1 1 -12,0 6,6 0 1 1 12,0 z"
       transform="matrix(0.91666607,0,0,0.91666607,1.8333393,3.0833483)" />
    <path
       sodipodi:type="arc"
       style="fill:#ecf0f1;fill-opacity:1;stroke:none"
       id="path3054"
       sodipodi:cx="30.5"
       sodipodi:cy="30.5"
       sodipodi:rx="3.5"
       sodipodi:ry="3.5"
       d="m 34,30.5 a 3.5,3.5 0 1 1 -7,0 3.5,3.5 0 1 1 7,0 z"
       transform="translate(0,1)" />
    <path
       transform="translate(8,1)"
       sodipodi:type="arc"
       style="fill:#ecf0f1;fill-opacity:1;stroke:none"
       id="path3054-3"
       sodipodi:cx="30.5"
       sodipodi:cy="30.5"
       sodipodi:rx="3.5"
       sodipodi:ry="3.5"
       d="m 34,30.5 a 3.5,3.5 0 1 1 -7,0 3.5,3.5 0 1 1 7,0 z" />
    <path
       transform="translate(16,1)"
       sodipodi:type="arc"
       style="fill:#ecf0f1;fill-opacity:1;stroke:none"
       id="path3054-0"
       sodipodi:cx="30.5"
       sodipodi:cy="30.5"
       sodipodi:rx="3.5"
       sodipodi:ry="3.5"
       d="m 34,30.5 a 3.5,3.5 0 1 1 -7,0 3.5,3.5 0 1 1 7,0 z" />
    <path
       transform="translate(24,1)"
       sodipodi:type="arc"
       style="fill:#ecf0f1;fill-opacity:1;stroke:none"
       id="path3054-1"
       sodipodi:cx="30.5"
       sodipodi:cy="30.5"
       sodipodi:rx="3.5"
       sodipodi:ry="3.5"
       d="m 34,30.5 a 3.5,3.5 0 1 1 -7,0 3.5,3.5 0 1 1 7,0 z" />
    <path
       transform="translate(-14,1)"
       sodipodi:type="arc"
       style="fill:#34495e;fill-opacity:1;stroke:none;display:inline"
       id="path3054-9"
       sodipodi:cx="30.5"
       sodipodi:cy="30.5"
       sodipodi:rx="3.5"
       sodipodi:ry="3.5"
       d="m 34,30.5 a 3.5,3.5 0 1 1 -7,0 3.5,3.5 0 1 1 7,0 z" />
    <path
       sodipodi:type="arc"
       style="fill:#2c3e50;fill-opacity:1;stroke:none"
       id="path3106"
       sodipodi:cx="16.5"
       sodipodi:cy="30.5"
       sodipodi:rx="2.5"
       sodipodi:ry="2.5"
       d="m 19,30.5 a 2.5,2.5 0 1 1 -5,0 2.5,2.5 0 1 1 5,0 z"
       transform="translate(-0.5,1)" />
    <path
       sodipodi:type="arc"
       style="fill:#bdc3c7;fill-opacity:1;stroke:none"
       id="path3108"
       sodipodi:cx="15.5"
       sodipodi:cy="30.5"
       sodipodi:rx="1.5"
       sodipodi:ry="1.5"
       d="m 17,30.5 a 1.5,1.5 0 1 1 -3,0 1.5,1.5 0 1 1 3,0 z"
       transform="translate(0,1)" />
    <rect
       style="fill:#243342;fill-opacity:1;stroke:none"
       id="rect3110"
       width="6"
       height="4.4553008"
       x="31.5"
       y="20"
       ry="0" />
    <path
       sodipodi:type="arc"
       style="fill:#243342;fill-opacity:1;stroke:none"
       id="path3112"
       sodipodi:cx="34"
       sodipodi:cy="23.5"
       sodipodi:rx="3"
       sodipodi:ry="2.5"
       d="m 37,23.5 a 3,2.5 0 1 1 -6,0 3,2.5 0 1 1 6,0 z"
       transform="translate(0.5,1)" />
    <path
       transform="matrix(0.71428573,0,0,0.71428573,8.7142853,9.7142853)"
       sodipodi:type="arc"
       style="fill:#2c3e50;fill-opacity:1;stroke:none;display:inline"
       id="path3054-4"
       sodipodi:cx="30.5"
       sodipodi:cy="30.5"
       sodipodi:rx="3.5"
       sodipodi:ry="3.5"
       d="m 34,30.5 a 3.5,3.5 0 1 1 -7,0 3.5,3.5 0 1 1 7,0 z" />
    <path
       transform="matrix(0.71428573,0,0,0.71428573,16.714285,9.7142853)"
       sodipodi:type="arc"
       style="fill:#2c3e50;fill-opacity:1;stroke:none;display:inline"
       id="path3054-4-1"
       sodipodi:cx="30.5"
       sodipodi:cy="30.5"
       sodipodi:rx="3.5"
       sodipodi:ry="3.5"
       d="m 34,30.5 a 3.5,3.5 0 1 1 -7,0 3.5,3.5 0 1 1 7,0 z" />
    <path
       transform="matrix(0.71428573,0,0,0.71428573,24.714285,9.7142853)"
       sodipodi:type="arc"
       style="fill:#2c3e50;fill-opacity:1;stroke:none;display:inline"
       id="path3054-4-6"
       sodipodi:cx="30.5"
       sodipodi:cy="30.5"
       sodipodi:rx="3.5"
       sodipodi:ry="3.5"
       d="m 34,30.5 a 3.5,3.5 0 1 1 -7,0 3.5,3.5 0 1 1 7,0 z" />
    <path
       transform="matrix(0.71428573,0,0,0.71428573,32.714285,9.7142853)"
       sodipodi:type="arc"
       style="fill:#2c3e50;fill-opacity:1;stroke:none;display:inline"
       id="path3054-4-9"
       sodipodi:cx="30.5"
       sodipodi:cy="30.5"
       sodipodi:rx="3.5"
       sodipodi:ry="3.5"
       d="m 34,30.5 a 3.5,3.5 0 1 1 -7,0 3.5,3.5 0 1 1 7,0 z" />
  </g>
</svg>
