<?xml version="1.0" encoding="UTF-8" standalone="no"?>
<!-- Created with Inkscape (http://www.inkscape.org/) -->

<svg
   xmlns:dc="http://purl.org/dc/elements/1.1/"
   xmlns:cc="http://creativecommons.org/ns#"
   xmlns:rdf="http://www.w3.org/1999/02/22-rdf-syntax-ns#"
   xmlns:svg="http://www.w3.org/2000/svg"
   xmlns="http://www.w3.org/2000/svg"
   xmlns:sodipodi="http://sodipodi.sourceforge.net/DTD/sodipodi-0.dtd"
   xmlns:inkscape="http://www.inkscape.org/namespaces/inkscape"
   width="64"
   height="64"
   id="svg2"
   version="1.1"
   inkscape:version="0.91 r13725"
   sodipodi:docname="MAME.svg">
  <defs
     id="defs4" />
  <sodipodi:namedview
     id="base"
     pagecolor="#ffffff"
     bordercolor="#666666"
     borderopacity="1.0"
     inkscape:pageopacity="0.0"
     inkscape:pageshadow="2"
     inkscape:zoom="11.2"
     inkscape:cx="32.048972"
     inkscape:cy="28.510509"
     inkscape:document-units="px"
     inkscape:current-layer="svg2"
     showgrid="true"
     inkscape:snap-global="true"
     inkscape:window-width="1440"
     inkscape:window-height="836"
     inkscape:window-x="0"
     inkscape:window-y="27"
     inkscape:window-maximized="1">
    <inkscape:grid
       type="xygrid"
       id="grid2985"
       empspacing="4"
       visible="true"
       enabled="true"
       snapvisiblegridlinesonly="true" />
  </sodipodi:namedview>
  <metadata
     id="metadata7">
    <rdf:RDF>
      <cc:Work
         rdf:about="">
        <dc:format>image/svg+xml</dc:format>
        <dc:type
           rdf:resource="http://purl.org/dc/dcmitype/StillImage" />
        <dc:title />
      </cc:Work>
    </rdf:RDF>
  </metadata>
  <g
     inkscape:groupmode="layer"
     id="layer3"
     inkscape:label="logo"
     style="display:inline">
    <path
       style="fill:#34495e;fill-opacity:1;stroke:none"
       d="m 46.856249,50.822191 c 7.880188,2.21112 23.055672,-16.713619 12.575822,-28.204232 -10.479852,-11.490612 -44.015374,-11.490612 -54.4952256,0 -10.4798508,11.490613 2.1312035,29.996945 12.5758216,28.204232 10.444617,-1.792713 21.463395,-2.21112 29.343582,0 z"
       id="path3095"
       inkscape:connector-curvature="0"
       sodipodi:nodetypes="zzzzz" />
    <path
       style="fill:#2c3e50;fill-opacity:1;stroke:none;display:inline"
       d="m 46,50 c -30.666667,9.333333 -15.333333,4.666667 0,0 z"
       id="path3095-1"
       inkscape:connector-curvature="0"
       sodipodi:nodetypes="cc" />
    <path
       style="fill:#2c3e50;fill-opacity:1;stroke:none"
       d="M 62.925214,33.431707 C 63,40 54.287301,52.172381 47.161497,50.804882 42.344983,49.881854 38.005627,48.720247 29.98882,49.397365 31.655232,31.664176 42.009827,28.287592 62.925214,33.431707 z"
       id="path3887"
       inkscape:connector-curvature="0"
       sodipodi:nodetypes="cccc" />
    <path
       sodipodi:type="arc"
       style="fill:#c0392b;fill-opacity:1;fill-rule:evenodd;stroke:none"
       id="path3893"
       sodipodi:cx="14"
       sodipodi:cy="31"
       sodipodi:rx="4"
       sodipodi:ry="4"
       d="m 18,31 a 4,4 0 1 1 -8,0 4,4 0 1 1 8,0 z"
       transform="matrix(0.875,0,0,0.875,19.25,4.375)" />
    <path
       sodipodi:type="arc"
       style="fill:#c0392b;fill-opacity:1;fill-rule:evenodd;stroke:none;display:inline"
       id="path3893-5"
       sodipodi:cx="14"
       sodipodi:cy="31"
       sodipodi:rx="4"
       sodipodi:ry="4"
       d="m 18,31 a 4,4 0 1 1 -8,0 4,4 0 1 1 8,0 z"
       transform="matrix(0.875,0,0,0.875,26.25,-0.625)" />
    <path
       sodipodi:type="arc"
       style="fill:#95a5a6;fill-opacity:1;fill-rule:evenodd;stroke:none;display:inline"
       id="path3893-9"
       sodipodi:cx="14"
       sodipodi:cy="31"
       sodipodi:rx="4"
       sodipodi:ry="4"
       d="m 18,31 a 4,4 0 1 1 -8,0 4,4 0 1 1 8,0 z"
       transform="matrix(0.875,0,0,0.875,34.75,-1.625)" />
    <path
       sodipodi:type="arc"
       style="fill:#95a5a6;fill-opacity:1;fill-rule:evenodd;stroke:none;display:inline"
       id="path3893-3"
       sodipodi:cx="14"
       sodipodi:cy="31"
       sodipodi:rx="4"
       sodipodi:ry="4"
       d="m 18,31 a 4,4 0 1 1 -8,0 4,4 0 1 1 8,0 z"
       transform="matrix(0.875,0,0,0.875,43.25,-0.625)" />
    <path
       sodipodi:type="arc"
       style="fill:#7f8c8d;fill-opacity:1;fill-rule:evenodd;stroke:none;display:inline"
       id="path3893-7"
       sodipodi:cx="14"
       sodipodi:cy="31"
       sodipodi:rx="4"
       sodipodi:ry="4"
       d="m 18,31 a 4,4 0 1 1 -8,0 4,4 0 1 1 8,0 z"
       transform="matrix(0.375,0,0,0.375,26.25,9.875)" />
    <path
       sodipodi:type="arc"
       style="fill:#7f8c8d;fill-opacity:1;fill-rule:evenodd;stroke:none;display:inline"
       id="path3893-7-7"
       sodipodi:cx="14"
       sodipodi:cy="31"
       sodipodi:rx="4"
       sodipodi:ry="4"
       d="m 18,31 a 4,4 0 1 1 -8,0 4,4 0 1 1 8,0 z"
       transform="matrix(0.375,0,0,0.375,35.25,7.875)" />
    <path
       sodipodi:type="arc"
       style="fill:#2c3e50;fill-opacity:1;fill-rule:evenodd;stroke:none;display:inline"
       id="path3893-2"
       sodipodi:cx="14"
       sodipodi:cy="31"
       sodipodi:rx="4"
       sodipodi:ry="4"
       d="m 18,31 a 4,4 0 1 1 -8,0 4,4 0 1 1 8,0 z"
       transform="matrix(1.5,0,0,1.5,-4,-16.5)" />
    <path
       sodipodi:type="arc"
       style="fill:#34495e;fill-opacity:1;fill-rule:evenodd;stroke:none;display:inline"
       id="path3893-2-6"
       sodipodi:cx="14"
       sodipodi:cy="31"
       sodipodi:rx="4"
       sodipodi:ry="4"
       d="m 18,31 a 4,4 0 1 1 -8,0 4,4 0 1 1 8,0 z"
       transform="translate(2,-1)" />
  </g>
</svg>
