<?xml version="1.0" encoding="UTF-8" standalone="no"?>
<!-- Created with Inkscape (http://www.inkscape.org/) -->

<svg
   xmlns:dc="http://purl.org/dc/elements/1.1/"
   xmlns:cc="http://creativecommons.org/ns#"
   xmlns:rdf="http://www.w3.org/1999/02/22-rdf-syntax-ns#"
   xmlns:svg="http://www.w3.org/2000/svg"
   xmlns="http://www.w3.org/2000/svg"
   xmlns:sodipodi="http://sodipodi.sourceforge.net/DTD/sodipodi-0.dtd"
   xmlns:inkscape="http://www.inkscape.org/namespaces/inkscape"
   id="svg2"
   version="1.1"
   inkscape:version="0.91 r13725"
   width="64"
   height="64"
   sodipodi:docname="Nintendo - Game Boy Advance.svg"
   inkscape:export-filename="/home/kivutar/Bureau/RetroArch/media/lakka/mednafen-gba.png"
   inkscape:export-xdpi="270"
   inkscape:export-ydpi="270">
  <metadata
     id="metadata8">
    <rdf:RDF>
      <cc:Work
         rdf:about="">
        <dc:format>image/svg+xml</dc:format>
        <dc:type
           rdf:resource="http://purl.org/dc/dcmitype/StillImage" />
        <dc:title />
      </cc:Work>
    </rdf:RDF>
  </metadata>
  <defs
     id="defs6" />
  <sodipodi:namedview
     pagecolor="#ffffff"
     bordercolor="#666666"
     borderopacity="1"
     objecttolerance="10"
     gridtolerance="10"
     guidetolerance="10"
     inkscape:pageopacity="0"
     inkscape:pageshadow="2"
     inkscape:window-width="1440"
     inkscape:window-height="836"
     id="namedview4"
     showgrid="true"
     inkscape:zoom="10.233062"
     inkscape:cx="5.2939105"
     inkscape:cy="27.464123"
     inkscape:window-x="0"
     inkscape:window-y="27"
     inkscape:window-maximized="1"
     inkscape:current-layer="svg2"
     inkscape:snap-bbox="true">
    <inkscape:grid
       type="xygrid"
       id="grid2987"
       empspacing="4"
       visible="true"
       enabled="true"
       snapvisiblegridlinesonly="true"
       spacingx="0.5px"
       spacingy="0.5px" />
  </sodipodi:namedview>
  <g
     inkscape:groupmode="layer"
     id="layer2"
     inkscape:label="logo"
     style="display:inline">
    <path
       style="fill:#bdc3c7;fill-opacity:1;stroke:none;display:inline"
       d="m 16,15.5 c -4.5,0.5 -4.5,0.5 -8.5,1 -1.5,0 -4,0.5 -4,3 0,1 1.5,2.5 1.5,2 z"
       id="path3951-2"
       inkscape:connector-curvature="0"
       sodipodi:nodetypes="ccccc" />
    <path
       style="fill:#bdc3c7;fill-opacity:1;stroke:none"
       d="m 48,15.5 c 4.5,0.5 4.5,0.5 8.5,1 1.5,0 4,0.5 4,3 0,1 -1.5,2.5 -1.5,2 z"
       id="path3951"
       inkscape:connector-curvature="0"
       sodipodi:nodetypes="ccccc" />
    <path
       style="fill:#9b59b6;fill-opacity:1;stroke:none"
       d="m 16,15 c 0,-1 32,-1 32,0 3,2 7,3 11,4 3,1 3,18 3,21 0,2 -1.5,3 -3,3.5 -3.012779,1.00426 -3,1 -6,2 -3.5,2 -11.97611,3.271771 -20.951146,3.385418 C 23,49 14.5,47.5 11,45.5 8,44.5 8,44.5 5,43.5 3.5,43 2,42 2,40 2,37 2,20 5,19 9,18 13,17 16,15 z"
       id="path3792"
       inkscape:connector-curvature="0"
       sodipodi:nodetypes="ccccscsccccc" />
    <path
       style="fill:#2c3e50;fill-opacity:1;stroke:none"
       d="m 20,19 c 12,-1 12,-1 24,0 1.993092,0.166091 2.888889,1 3,3 l 1,18 c 0.111111,2 -1.047626,3.566139 -3,4 -9,2 -17.138104,1.95229 -26,0 -1.953165,-0.430285 -3.111111,-2 -3,-4 l 1,-18 c 0.111111,-2 1.006908,-2.833909 3,-3 z"
       id="rect3831"
       inkscape:connector-curvature="0"
       sodipodi:nodetypes="sssssssss" />
    <rect
       style="fill:#7f8c8d;fill-opacity:1;stroke:none"
       id="rect3834"
       width="26"
       height="17"
       x="19"
       y="22"
       ry="0" />
    <path
       sodipodi:type="arc"
       style="fill:#bdc3c7;fill-opacity:1;stroke:none"
       id="path3836"
       sodipodi:cx="52"
       sodipodi:cy="30"
       sodipodi:rx="2"
       sodipodi:ry="2"
       d="m 54,30 a 2,2 0 1 1 -4,0 2,2 0 1 1 4,0 z" />
    <path
       transform="translate(5,-2)"
       sodipodi:type="arc"
       style="fill:#bdc3c7;fill-opacity:1;stroke:none;display:inline"
       id="path3836-3"
       sodipodi:cx="52"
       sodipodi:cy="30"
       sodipodi:rx="2"
       sodipodi:ry="2"
       d="m 54,30 a 2,2 0 1 1 -4,0 2,2 0 1 1 4,0 z" />
    <rect
       style="fill:#bdc3c7;fill-opacity:1;stroke:none"
       id="rect3856"
       width="3"
       height="8"
       x="8"
       y="25"
       ry="1" />
    <rect
       style="fill:#bdc3c7;fill-opacity:1;stroke:none;display:inline"
       id="rect3856-9"
       width="3"
       height="8"
       x="27.5"
       y="-13.5"
       ry="1"
       transform="matrix(0,1,-1,0,0,0)" />
    <path
       sodipodi:type="arc"
       style="fill:#bdc3c7;fill-opacity:1;stroke:none"
       id="path3876"
       sodipodi:cx="13"
       sodipodi:cy="37"
       sodipodi:rx="1"
       sodipodi:ry="1"
       d="m 14,37 a 1,1 0 1 1 -2,0 1,1 0 1 1 2,0 z"
       transform="translate(1,1)" />
    <path
       sodipodi:type="arc"
       style="fill:#bdc3c7;fill-opacity:1;stroke:none;display:inline"
       id="path3876-0"
       sodipodi:cx="13"
       sodipodi:cy="37"
       sodipodi:rx="1"
       sodipodi:ry="1"
       d="m 14,37 a 1,1 0 1 1 -2,0 1,1 0 1 1 2,0 z"
       transform="translate(1,4)" />
    <path
       sodipodi:type="arc"
       style="fill:#27ae60;fill-opacity:1;stroke:none"
       id="path3896"
       sodipodi:cx="51.5"
       sodipodi:cy="20.5"
       sodipodi:rx="0.5"
       sodipodi:ry="0.5"
       d="m 52,20.5 a 0.5,0.5 0 1 1 -1,0 0.5,0.5 0 1 1 1,0 z" />
    <rect
       style="fill:#8e44ad;fill-opacity:1;stroke:none"
       id="rect3898"
       width="7"
       height="0.5"
       x="38.293365"
       y="48.123932"
       ry="0.25"
       transform="matrix(0.96592583,-0.25881905,0.25881905,0.96592583,0,0)" />
    <rect
       style="fill:#8e44ad;fill-opacity:1;stroke:none;display:inline"
       id="rect3898-4"
       width="7"
       height="0.5"
       x="38.034546"
       y="49.089859"
       ry="0.25"
       transform="matrix(0.96592583,-0.25881905,0.25881905,0.96592583,0,0)" />
    <rect
       style="fill:#8e44ad;fill-opacity:1;stroke:none;display:inline"
       id="rect3898-0"
       width="7"
       height="0.5"
       x="37.775726"
       y="50.055782"
       ry="0.25"
       transform="matrix(0.96592583,-0.25881905,0.25881905,0.96592583,0,0)" />
    <rect
       style="fill:#8e44ad;fill-opacity:1;stroke:none;display:inline"
       id="rect3898-7"
       width="7"
       height="0.5"
       x="37.516911"
       y="51.021709"
       ry="0.25"
       transform="matrix(0.96592583,-0.25881905,0.25881905,0.96592583,0,0)" />
    <rect
       style="fill:#8e44ad;fill-opacity:1;stroke:none;display:inline"
       id="rect3898-2"
       width="7"
       height="0.5"
       x="37.258091"
       y="51.987637"
       ry="0.25"
       transform="matrix(0.96592583,-0.25881905,0.25881905,0.96592583,0,0)" />
  </g>
</svg>
