<?xml version="1.0" encoding="UTF-8" standalone="no"?>
<!-- Created with Inkscape (http://www.inkscape.org/) -->

<svg
   xmlns:dc="http://purl.org/dc/elements/1.1/"
   xmlns:cc="http://creativecommons.org/ns#"
   xmlns:rdf="http://www.w3.org/1999/02/22-rdf-syntax-ns#"
   xmlns:svg="http://www.w3.org/2000/svg"
   xmlns="http://www.w3.org/2000/svg"
   xmlns:sodipodi="http://sodipodi.sourceforge.net/DTD/sodipodi-0.dtd"
   xmlns:inkscape="http://www.inkscape.org/namespaces/inkscape"
   width="64"
   height="64"
   id="svg2"
   version="1.1"
   inkscape:version="0.48.4 r9939"
   inkscape:export-filename="/home/kivutar/Bureau/RetroArch/media/lakka/mupen64plus.png"
   inkscape:export-xdpi="270"
   inkscape:export-ydpi="270"
   sodipodi:docname="Nouveau document 1">
  <defs
     id="defs4" />
  <sodipodi:namedview
     id="base"
     pagecolor="#ffffff"
     bordercolor="#666666"
     borderopacity="1.0"
     inkscape:pageopacity="0.0"
     inkscape:pageshadow="2"
     inkscape:zoom="8"
     inkscape:cx="31.76872"
     inkscape:cy="34.316698"
     inkscape:document-units="px"
     inkscape:current-layer="layer1"
     showgrid="true"
     inkscape:snap-bbox="true"
     inkscape:window-width="1440"
     inkscape:window-height="838"
     inkscape:window-x="0"
     inkscape:window-y="27"
     inkscape:window-maximized="1">
    <inkscape:grid
       type="xygrid"
       id="grid2985"
       empspacing="4"
       visible="true"
       enabled="true"
       snapvisiblegridlinesonly="true"
       spacingx="0.5px"
       spacingy="0.5px" />
  </sodipodi:namedview>
  <metadata
     id="metadata7">
    <rdf:RDF>
      <cc:Work
         rdf:about="">
        <dc:format>image/svg+xml</dc:format>
        <dc:type
           rdf:resource="http://purl.org/dc/dcmitype/StillImage" />
        <dc:title></dc:title>
      </cc:Work>
    </rdf:RDF>
  </metadata>
  <g
     inkscape:label="Calque 1"
     inkscape:groupmode="layer"
     id="layer1"
     transform="translate(0,-988.36218)">
    <path
       style="fill:none;stroke:#34495e;stroke-opacity:1;stroke-linejoin:round;stroke-linecap:round"
       d="m 10,1000.3622 c 1.591794,-0.96314 5.455358,-1.99956 5.455358,-1.99956 l 0,-3e-4 c 8.544642,-2 24.544643,-2 33.089284,0 1.94313,0.45482 3.871163,1.0473 5.455358,1.99986"
       id="rect3776-1"
       inkscape:connector-curvature="0"
       sodipodi:nodetypes="cccsc" />
    <path
       style="fill:#2980b9;fill-opacity:1;stroke:none"
       d="m 5,1008.3622 11,11 c 0,0 -3,16 -7,16 -6,0 -7,-18 -4,-27 z"
       id="rect3929"
       inkscape:connector-curvature="0"
       sodipodi:nodetypes="cccc" />
    <path
       style="fill:#2980b9;fill-opacity:1;stroke:none"
       d="m 59,1008.3622 -11,11 c 0,0 3,16 7,16 6,0 7,-18 4,-27 z"
       id="rect3929-3"
       inkscape:connector-curvature="0"
       sodipodi:nodetypes="cccc" />
    <path
       style="fill:#226998;fill-opacity:1;stroke:none"
       d="M 15.455358,1000.362 C 24,998.36198 40,998.36198 48.544642,1000.362 54.184478,1001.6824 59,1003.0255 59,1008.8178 l 0,0.089 c 0,5.7923 -4.798417,11.2106 -10.455358,12.4554 l -4.544642,1 c -6,0 -4,26 -12,26 -8,0 -6,-26 -12,-26 l -4.544642,-1 C 9.798418,1020.1177 5,1014.6994 5,1008.9071 l 0,-0.089 c 0,-5.7923 4.815522,-7.1354 10.455358,-8.4558 z"
       id="rect3776-5"
       inkscape:connector-curvature="0"
       sodipodi:nodetypes="csssscscssssc" />
    <path
       transform="translate(0,988.36218)"
       style="fill:#2980b9;fill-opacity:1;stroke:none"
       d="M 15.455358,10 C 24,8 40,8 48.544642,10 54.184478,11.320087 59,14.663089 59,20.455358 l 0,0.08928 C 59,26.336911 54.201583,29.755251 48.544642,31 L 44,32 C 38,32 40,60 32,60 24,60 26,32 20,32 L 15.455358,31 C 9.7984177,29.755251 5,26.336911 5,20.544642 l 0,-0.08928 C 5,14.663089 9.8155225,11.320087 15.455358,10 z"
       id="rect3776"
       inkscape:connector-curvature="0"
       sodipodi:nodetypes="ssssscscssss" />
    <path
       sodipodi:type="arc"
       style="fill:none;fill-opacity:1;stroke:none"
       id="path3774"
       sodipodi:cx="32.5"
       sodipodi:cy="22.5"
       sodipodi:rx="2.5"
       sodipodi:ry="2.5"
       d="m 35,22.5 a 2.5,2.5 0 1 1 -5,0 2.5,2.5 0 1 1 5,0 z"
       transform="translate(-0.5,988.36218)" />
    <path
       sodipodi:type="arc"
       style="fill:#34495e;fill-opacity:1;stroke:none"
       id="path3768"
       sodipodi:cx="32"
       sodipodi:cy="34.5"
       sodipodi:rx="6"
       sodipodi:ry="5.5"
       d="m 38,34.5 a 6,5.5 0 1 1 -12,0 6,5.5 0 1 1 12,0 z"
       transform="matrix(1,0,0,1.0909091,0,985.22582)" />
    <path
       sodipodi:type="star"
       style="fill:#2c3e50;fill-opacity:1;stroke:none"
       id="path3927"
       sodipodi:sides="8"
       sodipodi:cx="32"
       sodipodi:cy="35"
       sodipodi:r1="4.2426405"
       sodipodi:r2="3.9196889"
       sodipodi:arg1="0.78539816"
       sodipodi:arg2="1.1780972"
       inkscape:flatsided="true"
       inkscape:rounded="0"
       inkscape:randomized="0"
       d="M 35,38 32,39.24264 29,38 27.75736,35 29,32 32,30.75736 35,32 l 1.24264,3 z"
       transform="translate(0,987.86254)" />
    <path
       sodipodi:type="arc"
       style="fill:#ecf0f1;fill-opacity:1;stroke:none"
       id="path3770"
       sodipodi:cx="33"
       sodipodi:cy="35"
       sodipodi:rx="3"
       sodipodi:ry="3"
       d="m 36,35 a 3,3 0 1 1 -6,0 3,3 0 1 1 6,0 z"
       transform="translate(-1,987.86218)" />
    <path
       sodipodi:type="arc"
       style="fill:#c0392b;fill-opacity:1;stroke:none"
       id="path3772"
       sodipodi:cx="32"
       sodipodi:cy="22"
       sodipodi:rx="2"
       sodipodi:ry="2"
       d="m 34,22 a 2,2 0 1 1 -4,0 2,2 0 1 1 4,0 z"
       transform="translate(0,988.86218)" />
    <path
       sodipodi:type="arc"
       style="fill:none;fill-opacity:1;stroke:none"
       id="path3781"
       sodipodi:cx="14.5"
       sodipodi:cy="20.5"
       sodipodi:rx="6.5"
       sodipodi:ry="6.5"
       d="m 21,20.5 a 6.5,6.5 0 1 1 -13,0 6.5,6.5 0 1 1 13,0 z"
       transform="translate(0,988.36218)" />
    <path
       sodipodi:type="arc"
       style="fill:none;fill-opacity:0.58545453999999997;stroke:none;stroke-opacity:1;stroke-linejoin:round;stroke-linecap:round;stroke-width:0.50000000000000000;stroke-miterlimit:4;stroke-dasharray:none"
       id="path3812"
       sodipodi:cx="51.5"
       sodipodi:cy="19.5"
       sodipodi:rx="4.5"
       sodipodi:ry="4.5"
       d="m 56,19.5 a 4.5,4.5 0 1 1 -9,0 4.5,4.5 0 1 1 9,0 z"
       transform="translate(0,988.36218)" />
    <path
       style="fill:none;fill-opacity:1;stroke:none;stroke-width:0.50000000000000000;stroke-linecap:round;stroke-linejoin:round;stroke-miterlimit:4;stroke-opacity:1;stroke-dasharray:none"
       d="m 43,1010.3622 5,5"
       id="path3979"
       inkscape:connector-curvature="0"
       sodipodi:nodetypes="cc" />
    <path
       sodipodi:type="arc"
       style="fill:#16a085;fill-opacity:1;stroke:none"
       id="path3814"
       sodipodi:cx="43.5"
       sodipodi:cy="22.5"
       sodipodi:rx="2.5"
       sodipodi:ry="2.5"
       d="m 46,22.5 a 2.5,2.5 0 1 1 -5,0 2.5,2.5 0 1 1 5,0 z"
       transform="translate(0,988.36218)" />
    <path
       transform="translate(4,992.36218)"
       sodipodi:type="arc"
       style="fill:#226998;fill-opacity:1;stroke:none"
       id="path3814-8"
       sodipodi:cx="43.5"
       sodipodi:cy="22.5"
       sodipodi:rx="2.5"
       sodipodi:ry="2.5"
       d="m 46,22.5 a 2.5,2.5 0 1 1 -5,0 2.5,2.5 0 1 1 5,0 z" />
    <path
       sodipodi:type="arc"
       style="fill:#f1c40f;fill-opacity:1;stroke:none"
       id="path3834"
       sodipodi:cx="47"
       sodipodi:cy="19"
       sodipodi:rx="2"
       sodipodi:ry="2"
       d="m 49,19 a 2,2 0 1 1 -4,0 2,2 0 1 1 4,0 z"
       transform="translate(1,988.86218)" />
    <path
       sodipodi:type="arc"
       style="fill:#f1c40f;fill-opacity:1;stroke:none"
       id="path3834-9"
       sodipodi:cx="47"
       sodipodi:cy="19"
       sodipodi:rx="2"
       sodipodi:ry="2"
       d="m 49,19 a 2,2 0 1 1 -4,0 2,2 0 1 1 4,0 z"
       transform="translate(8,988.86218)" />
    <path
       sodipodi:type="arc"
       style="fill:#f1c40f;fill-opacity:1;stroke:none"
       id="path3834-4"
       sodipodi:cx="47"
       sodipodi:cy="19"
       sodipodi:rx="2"
       sodipodi:ry="2"
       d="m 49,19 a 2,2 0 1 1 -4,0 2,2 0 1 1 4,0 z"
       transform="matrix(0,1,-1,0,70.5,957.36218)" />
    <path
       sodipodi:type="arc"
       style="fill:#f1c40f;fill-opacity:1;stroke:none"
       id="path3834-9-6"
       sodipodi:cx="47"
       sodipodi:cy="19"
       sodipodi:rx="2"
       sodipodi:ry="2"
       d="m 49,19 a 2,2 0 1 1 -4,0 2,2 0 1 1 4,0 z"
       transform="matrix(0,1,-1,0,70.5,964.36218)" />
    <rect
       style="fill:#34495e;fill-opacity:1;stroke:none"
       id="rect3890"
       width="3"
       height="9"
       x="13"
       y="16"
       transform="translate(0,988.36218)"
       ry="0.5" />
    <rect
       style="fill:#34495e;fill-opacity:1;stroke:none"
       id="rect3890-5"
       width="3"
       height="9"
       x="1007.3622"
       y="-19"
       transform="matrix(0,1,-1,0,0,0)"
       ry="0.5" />
    <path
       style="fill:#226998;fill-opacity:1;stroke:none"
       d="M 23,18 21,6.8 20,9.2 z"
       id="path3981"
       inkscape:connector-curvature="0"
       transform="translate(0,988.36218)"
       sodipodi:nodetypes="cccc" />
    <path
       style="fill:#226998;fill-opacity:1;stroke:none"
       d="m 41,1006.3622 2,-11.2001 1,2.4 z"
       id="path3981-6"
       inkscape:connector-curvature="0"
       sodipodi:nodetypes="cccc" />
    <path
       transform="translate(0,988.36218)"
       style="fill:#2980b9;fill-opacity:1;stroke:none"
       d="m 22,6 c 5,-2 15,-2 20,0 0.514376,0.2057504 1,0.446 1,1 L 41,18 23,18 21,7 c -0.0991,-0.5450645 0.485624,-0.7942496 1,-1 z"
       id="rect3887"
       inkscape:connector-curvature="0"
       sodipodi:nodetypes="sssccss" />
  </g>
</svg>
