<?xml version="1.0" encoding="UTF-8" standalone="no"?>
<!-- Created with Inkscape (http://www.inkscape.org/) -->

<svg
   xmlns:dc="http://purl.org/dc/elements/1.1/"
   xmlns:cc="http://creativecommons.org/ns#"
   xmlns:rdf="http://www.w3.org/1999/02/22-rdf-syntax-ns#"
   xmlns:svg="http://www.w3.org/2000/svg"
   xmlns="http://www.w3.org/2000/svg"
   xmlns:sodipodi="http://sodipodi.sourceforge.net/DTD/sodipodi-0.dtd"
   xmlns:inkscape="http://www.inkscape.org/namespaces/inkscape"
   id="svg3039"
   version="1.1"
   inkscape:version="0.91 r13725"
   width="64"
   height="64"
   sodipodi:docname="Nintendo - Nintendo DS.svg">
  <metadata
     id="metadata3045">
    <rdf:RDF>
      <cc:Work
         rdf:about="">
        <dc:format>image/svg+xml</dc:format>
        <dc:type
           rdf:resource="http://purl.org/dc/dcmitype/StillImage" />
        <dc:title />
      </cc:Work>
    </rdf:RDF>
  </metadata>
  <defs
     id="defs3043" />
  <sodipodi:namedview
     pagecolor="#ffffff"
     bordercolor="#666666"
     borderopacity="1"
     objecttolerance="10"
     gridtolerance="10"
     guidetolerance="10"
     inkscape:pageopacity="0"
     inkscape:pageshadow="2"
     inkscape:window-width="1440"
     inkscape:window-height="836"
     id="namedview3041"
     showgrid="true"
     inkscape:snap-bbox="true"
     inkscape:zoom="10.382166"
     inkscape:cx="10.489805"
     inkscape:cy="31.134335"
     inkscape:window-x="0"
     inkscape:window-y="27"
     inkscape:window-maximized="0"
     inkscape:current-layer="svg3039">
    <inkscape:grid
       type="xygrid"
       id="grid3049"
       empspacing="4"
       visible="true"
       enabled="true"
       snapvisiblegridlinesonly="true"
       spacingx="0.25px"
       spacingy="0.25px" />
  </sodipodi:namedview>
  <g
     inkscape:groupmode="layer"
     id="layer2"
     inkscape:label="logo"
     style="display:inline">
    <path
       style="fill:#3498db;fill-opacity:1;stroke:none"
       d="M 5.25,2 C 4.5575,2 4,2.50175 4,3.125 L 4,30 c 2,0 0,0 2,0 -1.108,0 -2,0.892 -2,2 0,1.108 0.892,2 2,2 -2,0 0,0 -2,0 L 4,59.875 C 4,60.49825 4.5575,61 5.25,61 l 54.5,0 C 60.4425,61 61,60.49825 61,59.875 L 61,34 c -1,0 -1.040094,0 -2,0 1.108,0 2,-0.892 2,-2 0,-1.108 -0.892,-2 -2,-2 1,0 1,0 2,0 L 61,3.125 C 61,2.50175 60.4425,2 59.75,2 z"
       id="rect3071"
       inkscape:connector-curvature="0"
       sodipodi:nodetypes="ssccsccssssccsccsss" />
    <rect
       style="fill:#34495e;fill-opacity:1;stroke:none"
       id="rect3863"
       width="27"
       height="20"
       x="19"
       y="37"
       rx="1.25"
       ry="0" />
    <rect
       style="fill:#34495e;fill-opacity:1;stroke:none;display:inline"
       id="rect3863-9"
       width="27"
       height="20"
       x="19"
       y="6"
       rx="1.25"
       ry="0" />
    <rect
       style="fill:#2980b9;fill-opacity:1;stroke:none"
       id="rect3885"
       width="3"
       height="8"
       x="9"
       y="41"
       rx="0" />
    <rect
       style="fill:#2980b9;fill-opacity:1;stroke:none;display:inline"
       id="rect3885-3"
       width="3"
       height="8"
       x="43.5"
       y="-14.5"
       rx="0"
       transform="matrix(0,1,-1,0,0,0)" />
    <path
       sodipodi:type="arc"
       style="fill:#2980b9;fill-opacity:1;stroke:none"
       id="path3911"
       sodipodi:cx="50.5"
       sodipodi:cy="54"
       sodipodi:rx="1"
       sodipodi:ry="1"
       d="m 51.5,54 a 1,1 0 1 1 -2,0 1,1 0 1 1 2,0 z" />
    <path
       transform="translate(0,3)"
       sodipodi:type="arc"
       style="fill:#2980b9;fill-opacity:1;stroke:none;display:inline"
       id="path3911-9"
       sodipodi:cx="50.5"
       sodipodi:cy="54"
       sodipodi:rx="1"
       sodipodi:ry="1"
       d="m 51.5,54 a 1,1 0 1 1 -2,0 1,1 0 1 1 2,0 z" />
    <path
       sodipodi:type="arc"
       style="fill:#2980b9;fill-opacity:1;stroke:none"
       id="path3931"
       sodipodi:cx="51.25"
       sodipodi:cy="43.25"
       sodipodi:rx="1.75"
       sodipodi:ry="1.75"
       d="m 53,43.25 a 1.75,1.75 0 1 1 -3.5,0 1.75,1.75 0 1 1 3.5,0 z" />
    <path
       transform="translate(3.25,-3.25)"
       sodipodi:type="arc"
       style="fill:#2980b9;fill-opacity:1;stroke:none;display:inline"
       id="path3931-4"
       sodipodi:cx="51.25"
       sodipodi:cy="43.25"
       sodipodi:rx="1.75"
       sodipodi:ry="1.75"
       d="m 53,43.25 a 1.75,1.75 0 1 1 -3.5,0 1.75,1.75 0 1 1 3.5,0 z" />
    <path
       transform="translate(6.5,0)"
       sodipodi:type="arc"
       style="fill:#2980b9;fill-opacity:1;stroke:none;display:inline"
       id="path3931-8"
       sodipodi:cx="51.25"
       sodipodi:cy="43.25"
       sodipodi:rx="1.75"
       sodipodi:ry="1.75"
       d="m 53,43.25 a 1.75,1.75 0 1 1 -3.5,0 1.75,1.75 0 1 1 3.5,0 z" />
    <path
       transform="translate(3.25,3.25)"
       sodipodi:type="arc"
       style="fill:#2980b9;fill-opacity:1;stroke:none;display:inline"
       id="path3931-9"
       sodipodi:cx="51.25"
       sodipodi:cy="43.25"
       sodipodi:rx="1.75"
       sodipodi:ry="1.75"
       d="m 53,43.25 a 1.75,1.75 0 1 1 -3.5,0 1.75,1.75 0 1 1 3.5,0 z" />
    <rect
       style="fill:#2c3e50;fill-opacity:1;stroke:none"
       id="rect3969"
       width="0.5"
       height="1.25"
       x="32.25"
       y="31.25"
       ry="0.25" />
    <path
       sodipodi:type="arc"
       style="fill:#2c3e50;fill-opacity:1;stroke:none"
       id="path3973"
       sodipodi:cx="52.375"
       sodipodi:cy="15.875"
       sodipodi:rx="0.375"
       sodipodi:ry="0.375"
       d="m 52.75,15.875 a 0.375,0.375 0 1 1 -0.75,0 0.375,0.375 0 1 1 0.75,0 z" />
    <path
       transform="translate(2,0)"
       sodipodi:type="arc"
       style="fill:#2c3e50;fill-opacity:1;stroke:none;display:inline"
       id="path3973-7"
       sodipodi:cx="52.375"
       sodipodi:cy="15.875"
       sodipodi:rx="0.375"
       sodipodi:ry="0.375"
       d="m 52.75,15.875 a 0.375,0.375 0 1 1 -0.75,0 0.375,0.375 0 1 1 0.75,0 z" />
    <path
       transform="translate(4,0)"
       sodipodi:type="arc"
       style="fill:#2c3e50;fill-opacity:1;stroke:none;display:inline"
       id="path3973-3"
       sodipodi:cx="52.375"
       sodipodi:cy="15.875"
       sodipodi:rx="0.375"
       sodipodi:ry="0.375"
       d="m 52.75,15.875 a 0.375,0.375 0 1 1 -0.75,0 0.375,0.375 0 1 1 0.75,0 z" />
    <path
       transform="translate(0,2)"
       sodipodi:type="arc"
       style="fill:#2c3e50;fill-opacity:1;stroke:none;display:inline"
       id="path3973-2"
       sodipodi:cx="52.375"
       sodipodi:cy="15.875"
       sodipodi:rx="0.375"
       sodipodi:ry="0.375"
       d="m 52.75,15.875 a 0.375,0.375 0 1 1 -0.75,0 0.375,0.375 0 1 1 0.75,0 z" />
    <path
       transform="translate(2,2)"
       sodipodi:type="arc"
       style="fill:#2c3e50;fill-opacity:1;stroke:none;display:inline"
       id="path3973-75"
       sodipodi:cx="52.375"
       sodipodi:cy="15.875"
       sodipodi:rx="0.375"
       sodipodi:ry="0.375"
       d="m 52.75,15.875 a 0.375,0.375 0 1 1 -0.75,0 0.375,0.375 0 1 1 0.75,0 z" />
    <path
       transform="translate(4,2)"
       sodipodi:type="arc"
       style="fill:#2c3e50;fill-opacity:1;stroke:none;display:inline"
       id="path3973-5"
       sodipodi:cx="52.375"
       sodipodi:cy="15.875"
       sodipodi:rx="0.375"
       sodipodi:ry="0.375"
       d="m 52.75,15.875 a 0.375,0.375 0 1 1 -0.75,0 0.375,0.375 0 1 1 0.75,0 z" />
    <path
       transform="translate(-43.75,0)"
       sodipodi:type="arc"
       style="fill:#2c3e50;fill-opacity:1;stroke:none;display:inline"
       id="path3973-6"
       sodipodi:cx="52.375"
       sodipodi:cy="15.875"
       sodipodi:rx="0.375"
       sodipodi:ry="0.375"
       d="m 52.75,15.875 a 0.375,0.375 0 1 1 -0.75,0 0.375,0.375 0 1 1 0.75,0 z" />
    <path
       transform="translate(-41.75,0)"
       sodipodi:type="arc"
       style="fill:#2c3e50;fill-opacity:1;stroke:none;display:inline"
       id="path3973-7-5"
       sodipodi:cx="52.375"
       sodipodi:cy="15.875"
       sodipodi:rx="0.375"
       sodipodi:ry="0.375"
       d="m 52.75,15.875 a 0.375,0.375 0 1 1 -0.75,0 0.375,0.375 0 1 1 0.75,0 z" />
    <path
       transform="translate(-39.75,0)"
       sodipodi:type="arc"
       style="fill:#2c3e50;fill-opacity:1;stroke:none;display:inline"
       id="path3973-3-3"
       sodipodi:cx="52.375"
       sodipodi:cy="15.875"
       sodipodi:rx="0.375"
       sodipodi:ry="0.375"
       d="m 52.75,15.875 a 0.375,0.375 0 1 1 -0.75,0 0.375,0.375 0 1 1 0.75,0 z" />
    <path
       transform="translate(-43.75,2)"
       sodipodi:type="arc"
       style="fill:#2c3e50;fill-opacity:1;stroke:none;display:inline"
       id="path3973-2-2"
       sodipodi:cx="52.375"
       sodipodi:cy="15.875"
       sodipodi:rx="0.375"
       sodipodi:ry="0.375"
       d="m 52.75,15.875 a 0.375,0.375 0 1 1 -0.75,0 0.375,0.375 0 1 1 0.75,0 z" />
    <path
       transform="translate(-41.75,2)"
       sodipodi:type="arc"
       style="fill:#2c3e50;fill-opacity:1;stroke:none;display:inline"
       id="path3973-75-6"
       sodipodi:cx="52.375"
       sodipodi:cy="15.875"
       sodipodi:rx="0.375"
       sodipodi:ry="0.375"
       d="m 52.75,15.875 a 0.375,0.375 0 1 1 -0.75,0 0.375,0.375 0 1 1 0.75,0 z" />
    <path
       transform="translate(-39.75,2)"
       sodipodi:type="arc"
       style="fill:#2c3e50;fill-opacity:1;stroke:none;display:inline"
       id="path3973-5-5"
       sodipodi:cx="52.375"
       sodipodi:cy="15.875"
       sodipodi:rx="0.375"
       sodipodi:ry="0.375"
       d="m 52.75,15.875 a 0.375,0.375 0 1 1 -0.75,0 0.375,0.375 0 1 1 0.75,0 z" />
    <rect
       style="fill:#2c3e50;fill-opacity:1;stroke:none;display:inline"
       id="rect3969-7"
       width="0.5"
       height="2.5"
       x="57.25"
       y="30.5"
       ry="0.25" />
    <rect
       style="fill:#2c3e50;fill-opacity:1;stroke:none;display:inline"
       id="rect3969-7-3"
       width="0.5"
       height="2.5"
       x="58.25"
       y="30.5"
       ry="0.25" />
    <rect
       style="fill:#2980b9;fill-opacity:1;stroke:none"
       id="rect4128"
       width="57"
       height="4"
       x="4"
       y="30"
       ry="2" />
  </g>
</svg>
