<?xml version="1.0" encoding="utf-8"?>
<!-- Generator: Adobe Illustrator 16.0.0, SVG Export Plug-In . SVG Version: 6.00 Build 0)  -->
<!DOCTYPE svg PUBLIC "-//W3C//DTD SVG 1.1//EN" "http://www.w3.org/Graphics/SVG/1.1/DTD/svg11.dtd">
<svg version="1.1" id="Calque_1" xmlns="http://www.w3.org/2000/svg" xmlns:xlink="http://www.w3.org/1999/xlink" x="0px" y="0px"
	 width="32px" height="32px" viewBox="0 0 32 32" enable-background="new 0 0 32 32" xml:space="preserve">
<g opacity="0.5">
	<polygon fill="#1D1D1B" points="17,15 29,25 25,26 27,30 23,32 21,28 18,30 	"/>
</g>
<g>
	<polygon fill="#1D1D1B" points="20.194,27.27 17.441,29.104 16.577,16.131 26.924,24.754 23.274,25.666 25.329,29.776 
		22.224,31.329 	"/>
	<path fill="#FFFFFF" d="M17.153,17.263l8.693,7.245l-2.089,0.522l-1.21,0.302l0.558,1.115l1.553,3.105l-2.211,1.105l-1.553-3.105
		l-0.507-1.013l-0.942,0.628l-1.562,1.042L17.153,17.263 M16,15l1,15l3-2l2,4l4-2l-2-4l4-1L16,15L16,15z"/>
</g>
<path fill="none" d="M27,24"/>
<path fill="none" d="M16,30"/>
<path fill="none" d="M28,24"/>
<path fill="none" d="M16,30"/>
</svg>
