<?xml version="1.0" encoding="UTF-8" standalone="no"?>
<!-- Created with Inkscape (http://www.inkscape.org/) -->

<svg
   xmlns:dc="http://purl.org/dc/elements/1.1/"
   xmlns:cc="http://creativecommons.org/ns#"
   xmlns:rdf="http://www.w3.org/1999/02/22-rdf-syntax-ns#"
   xmlns:svg="http://www.w3.org/2000/svg"
   xmlns="http://www.w3.org/2000/svg"
   xmlns:sodipodi="http://sodipodi.sourceforge.net/DTD/sodipodi-0.dtd"
   xmlns:inkscape="http://www.inkscape.org/namespaces/inkscape"
   width="64"
   height="64"
   id="svg2"
   version="1.1"
   inkscape:version="0.91 r13725"
   sodipodi:docname="Sega - Master System - Mark III.svg"
   inkscape:export-filename="/home/niouby/informatique/lakka-image/mastersystem.png"
   inkscape:export-xdpi="270"
   inkscape:export-ydpi="270">
  <defs
     id="defs4" />
  <sodipodi:namedview
     id="base"
     pagecolor="#ffffff"
     bordercolor="#666666"
     borderopacity="1.0"
     inkscape:pageopacity="0.0"
     inkscape:pageshadow="2"
     inkscape:zoom="11.2"
     inkscape:cx="37.501939"
     inkscape:cy="34.560552"
     inkscape:document-units="px"
     inkscape:current-layer="svg2"
     showgrid="true"
     inkscape:window-width="1440"
     inkscape:window-height="836"
     inkscape:window-x="0"
     inkscape:window-y="27"
     inkscape:window-maximized="0">
    <inkscape:grid
       type="xygrid"
       id="grid2985"
       empspacing="4"
       visible="true"
       enabled="true"
       snapvisiblegridlinesonly="true" />
  </sodipodi:namedview>
  <metadata
     id="metadata7">
    <rdf:RDF>
      <cc:Work
         rdf:about="">
        <dc:format>image/svg+xml</dc:format>
        <dc:type
           rdf:resource="http://purl.org/dc/dcmitype/StillImage" />
        <dc:title />
      </cc:Work>
    </rdf:RDF>
  </metadata>
  <g
     inkscape:groupmode="layer"
     id="layer3"
     inkscape:label="logo"
     style="display:inline">
    <rect
       style="fill:#2c3e50;fill-opacity:1;stroke:none"
       id="rect3089"
       width="61"
       height="26"
       x="2"
       y="19"
       ry="1" />
    <rect
       style="fill:#7f8c8d;fill-opacity:1;stroke:none"
       id="rect3091"
       width="34"
       height="8"
       x="29"
       y="19"
       ry="1" />
    <rect
       style="fill:#7f8c8d;fill-opacity:1;stroke:none"
       id="rect3861"
       width="34"
       height="4"
       x="29"
       y="41"
       ry="1" />
    <rect
       style="fill:#c0392b;fill-opacity:1;stroke:none"
       id="rect3869"
       width="21"
       height="21"
       x="7"
       y="22"
       ry="1" />
    <rect
       style="fill:#95a5a6;fill-opacity:1;stroke:none"
       id="rect3871"
       width="19"
       height="19"
       x="8"
       y="23"
       ry="1" />
    <rect
       style="fill:#95a5a6;fill-opacity:1;stroke:none"
       id="rect3877"
       width="9"
       height="9"
       x="40"
       y="31"
       ry="0" />
    <rect
       style="fill:#95a5a6;fill-opacity:1;stroke:none;display:inline"
       id="rect3877-2"
       width="9"
       height="9"
       x="50"
       y="31"
       ry="0" />
    <path
       sodipodi:type="arc"
       style="fill:#34495e;fill-opacity:1;stroke:none"
       id="path3897"
       sodipodi:cx="44.5"
       sodipodi:cy="37.5"
       sodipodi:rx="3.5"
       sodipodi:ry="3.5"
       d="m 48,37.5 a 3.5,3.5 0 1 1 -7,0 3.5,3.5 0 1 1 7,0 z"
       transform="translate(0,-2)" />
    <path
       sodipodi:type="arc"
       style="fill:#34495e;fill-opacity:1;stroke:none"
       id="path3899"
       sodipodi:cx="54.5"
       sodipodi:cy="37.5"
       sodipodi:rx="3.5"
       sodipodi:ry="3.5"
       d="m 58,37.5 a 3.5,3.5 0 1 1 -7,0 3.5,3.5 0 1 1 7,0 z"
       transform="translate(0,-2)" />
    <g
       id="g3903"
       style="fill:#7f8c8d;fill-opacity:1"
       transform="translate(0,-2)">
      <rect
         ry="1"
         y="21"
         x="1"
         height="26"
         width="4"
         id="rect3863"
         style="fill:#7f8c8d;fill-opacity:1;stroke:none" />
      <rect
         ry="0"
         y="21"
         x="3"
         height="26"
         width="2"
         id="rect3901"
         style="fill:#7f8c8d;fill-opacity:1;stroke:none" />
    </g>
    <rect
       style="fill:#c0392b;fill-opacity:1;stroke:none"
       id="rect3907"
       width="9"
       height="1"
       x="40"
       y="30" />
    <rect
       style="fill:#c0392b;fill-opacity:1;stroke:none"
       id="rect3909"
       width="9"
       height="1"
       x="50"
       y="30" />
    <rect
       style="fill:#34495e;fill-opacity:1;stroke:none"
       id="rect3923"
       width="17"
       height="17"
       x="9"
       y="24"
       ry="6" />
    <g
       id="g3935"
       style="fill:#2c3e50;fill-opacity:1"
       transform="translate(0,-2)">
      <rect
         y="28"
         x="17"
         height="3"
         width="1"
         id="rect3925"
         style="fill:#2c3e50;fill-opacity:1;stroke:none" />
      <rect
         y="34"
         x="21"
         height="1"
         width="3"
         id="rect3927"
         style="fill:#2c3e50;fill-opacity:1;stroke:none" />
      <rect
         y="38"
         x="17"
         height="3"
         width="1"
         id="rect3929"
         style="fill:#2c3e50;fill-opacity:1;stroke:none" />
      <rect
         y="34"
         x="11"
         height="1"
         width="3"
         id="rect3931"
         style="fill:#2c3e50;fill-opacity:1;stroke:none" />
      <path
         d="M 20,34.5 A 2.5,2.5 0 0 1 17.5,37 2.5,2.5 0 0 1 15,34.5 2.5,2.5 0 0 1 17.5,32 2.5,2.5 0 0 1 20,34.5 Z"
         sodipodi:ry="2.5"
         sodipodi:rx="2.5"
         sodipodi:cy="34.5"
         sodipodi:cx="17.5"
         id="path3933"
         style="fill:#2c3e50;fill-opacity:1;stroke:none"
         sodipodi:type="arc" />
    </g>
  </g>
</svg>
