<?xml version="1.0" encoding="UTF-8" standalone="no"?>
<!-- Created with Inkscape (http://www.inkscape.org/) -->

<svg
   xmlns:dc="http://purl.org/dc/elements/1.1/"
   xmlns:cc="http://creativecommons.org/ns#"
   xmlns:rdf="http://www.w3.org/1999/02/22-rdf-syntax-ns#"
   xmlns:svg="http://www.w3.org/2000/svg"
   xmlns="http://www.w3.org/2000/svg"
   xmlns:sodipodi="http://sodipodi.sourceforge.net/DTD/sodipodi-0.dtd"
   xmlns:inkscape="http://www.inkscape.org/namespaces/inkscape"
   width="64"
   height="64"
   id="svg2"
   version="1.1"
   inkscape:version="0.91 r13725"
   sodipodi:docname="Sega - Mega Drive - Genesis.svg"
   inkscape:export-filename="/home/kivutar/Bureau/lakka-menu/megadrive.png"
   inkscape:export-xdpi="270"
   inkscape:export-ydpi="270">
  <defs
     id="defs4" />
  <sodipodi:namedview
     id="base"
     pagecolor="#ffffff"
     bordercolor="#666666"
     borderopacity="1.0"
     inkscape:pageopacity="0.0"
     inkscape:pageshadow="2"
     inkscape:zoom="7.919596"
     inkscape:cx="37.24846"
     inkscape:cy="21.312714"
     inkscape:document-units="px"
     inkscape:current-layer="layer3"
     showgrid="true"
     inkscape:window-width="1440"
     inkscape:window-height="836"
     inkscape:window-x="0"
     inkscape:window-y="27"
     inkscape:window-maximized="1"
     inkscape:snap-global="true">
    <inkscape:grid
       type="xygrid"
       id="grid2985"
       empspacing="4"
       visible="true"
       enabled="true"
       snapvisiblegridlinesonly="true" />
  </sodipodi:namedview>
  <metadata
     id="metadata7">
    <rdf:RDF>
      <cc:Work
         rdf:about="">
        <dc:format>image/svg+xml</dc:format>
        <dc:type
           rdf:resource="http://purl.org/dc/dcmitype/StillImage" />
        <dc:title />
      </cc:Work>
    </rdf:RDF>
  </metadata>
  <g
     inkscape:groupmode="layer"
     id="layer3"
     inkscape:label="logo"
     style="display:inline">
    <path
       style="fill:#34495e;fill-opacity:1;stroke:none"
       d="m 23,39 c 5,-2 13,-2 18,0 5,2 2.130701,10.434542 9.513195,8.727306 7.382493,-1.707234 17.783524,-16.143557 9.333488,-28.537107 -8.450036,-12.3935492 -45.704637,-12.1128453 -54.9638792,0 -9.2592426,12.112846 0.023965,26.642469 7.2593802,28.537107 C 19.377599,49.621944 18,41 23,39 z"
       id="path3157"
       inkscape:connector-curvature="0"
       sodipodi:nodetypes="zzzzzzz" />
    <path
       sodipodi:type="arc"
       style="fill:#2c3e50;fill-opacity:1;fill-rule:evenodd;stroke:none"
       id="path3952"
       sodipodi:cx="14.5"
       sodipodi:cy="27.5"
       sodipodi:rx="9.5"
       sodipodi:ry="9.5"
       d="m 24,27.5 a 9.5,9.5 0 1 1 -19,0 9.5,9.5 0 1 1 19,0 z"
       transform="matrix(1.0526316,0,0,1.0526316,-0.2631582,0.0526312)" />
    <path
       transform="matrix(0.73684211,0,0,0.73684211,4.3157891,8.7368418)"
       sodipodi:type="arc"
       style="fill:#7f8c8d;fill-opacity:1;fill-rule:evenodd;stroke:none;display:inline"
       id="path3952-7"
       sodipodi:cx="14.5"
       sodipodi:cy="27.5"
       sodipodi:rx="9.5"
       sodipodi:ry="9.5"
       d="m 24,27.5 a 9.5,9.5 0 1 1 -19,0 9.5,9.5 0 1 1 19,0 z" />
    <rect
       style="fill:#95a5a6;fill-opacity:1;fill-rule:nonzero;stroke:none"
       id="rect3978"
       width="4"
       height="10"
       x="13"
       y="24"
       ry="1" />
    <rect
       style="fill:#95a5a6;fill-opacity:1;fill-rule:nonzero;stroke:none;display:inline"
       id="rect3978-0"
       width="4"
       height="10"
       x="-31"
       y="-20"
       ry="1"
       transform="matrix(0,-1,-1,0,0,0)" />
    <rect
       style="fill:#c0392b;fill-opacity:1;fill-rule:nonzero;stroke:none"
       id="rect4000"
       width="1.8506992"
       height="6.5155048"
       x="38.089172"
       y="-31.042475"
       ry="0.95601034"
       transform="matrix(0.52637107,0.85025496,-0.88047965,0.47408395,0,0)" />
    <path
       style="fill:#2c3e50;fill-opacity:1;stroke:none"
       d="m 56.995604,20.31065 c 4.807763,2.884655 3.126887,7.677797 0.90195,7.768598 C 52,30 48,33 44.110667,36.202925 42.885231,38.108531 37.87723,38.213748 38.045329,31.543977 38.213428,24.874206 52.187841,17.425995 56.995604,20.31065 z"
       id="path4010"
       inkscape:connector-curvature="0"
       sodipodi:nodetypes="zcczz" />
    <path
       sodipodi:type="arc"
       style="fill:#95a5a6;fill-opacity:1;fill-rule:evenodd;stroke:none"
       id="path4018"
       sodipodi:cx="44.5"
       sodipodi:cy="30.5"
       sodipodi:rx="2.5"
       sodipodi:ry="2.5"
       d="m 47,30.5 a 2.5,2.5 0 1 1 -5,0 2.5,2.5 0 1 1 5,0 z"
       transform="matrix(1.1860573,0,0,1.1992022,-10.314407,-5.0736726)" />
    <path
       sodipodi:type="arc"
       style="fill:#95a5a6;fill-opacity:1;fill-rule:evenodd;stroke:none;display:inline"
       id="path4018-0"
       sodipodi:cx="44.5"
       sodipodi:cy="30.5"
       sodipodi:rx="2.5"
       sodipodi:ry="2.5"
       d="m 47,30.5 a 2.5,2.5 0 1 1 -5,0 2.5,2.5 0 1 1 5,0 z"
       transform="matrix(1.1860573,0,0,1.1992022,-4.2931521,-8.5727985)" />
    <path
       sodipodi:type="arc"
       style="fill:#95a5a6;fill-opacity:1;fill-rule:evenodd;stroke:none;display:inline"
       id="path4018-0-3"
       sodipodi:cx="44.5"
       sodipodi:cy="30.5"
       sodipodi:rx="2.5"
       sodipodi:ry="2.5"
       d="m 47,30.5 a 2.5,2.5 0 1 1 -5,0 2.5,2.5 0 1 1 5,0 z"
       transform="matrix(1.1860573,0,0,1.1992022,1.755307,-12.077662)" />
  </g>
</svg>
