<?xml version="1.0" encoding="UTF-8" standalone="no"?>
<!-- Created with Inkscape (http://www.inkscape.org/) -->

<svg
   xmlns:dc="http://purl.org/dc/elements/1.1/"
   xmlns:cc="http://creativecommons.org/ns#"
   xmlns:rdf="http://www.w3.org/1999/02/22-rdf-syntax-ns#"
   xmlns:svg="http://www.w3.org/2000/svg"
   xmlns="http://www.w3.org/2000/svg"
   xmlns:sodipodi="http://sodipodi.sourceforge.net/DTD/sodipodi-0.dtd"
   xmlns:inkscape="http://www.inkscape.org/namespaces/inkscape"
   width="64"
   height="64"
   id="svg3177"
   version="1.1"
   inkscape:version="0.48.4 r9939"
   sodipodi:docname="settings-item.svg"
   inkscape:export-filename="/home/kivutar/Bureau/lakka-menu/settings-item.png"
   inkscape:export-xdpi="270"
   inkscape:export-ydpi="270">
  <defs
     id="defs3179" />
  <sodipodi:namedview
     id="base"
     pagecolor="#ffffff"
     bordercolor="#666666"
     borderopacity="1.0"
     inkscape:pageopacity="0.0"
     inkscape:pageshadow="2"
     inkscape:zoom="10.078125"
     inkscape:cx="61.410971"
     inkscape:cy="33.268342"
     inkscape:document-units="px"
     inkscape:current-layer="layer1"
     showgrid="true"
     inkscape:window-width="1440"
     inkscape:window-height="838"
     inkscape:window-x="0"
     inkscape:window-y="27"
     inkscape:window-maximized="1"
     inkscape:snap-bbox="true">
    <inkscape:grid
       type="xygrid"
       id="grid3185"
       empspacing="4"
       visible="true"
       enabled="true"
       snapvisiblegridlinesonly="true" />
  </sodipodi:namedview>
  <metadata
     id="metadata3182">
    <rdf:RDF>
      <cc:Work
         rdf:about="">
        <dc:format>image/svg+xml</dc:format>
        <dc:type
           rdf:resource="http://purl.org/dc/dcmitype/StillImage" />
        <dc:title></dc:title>
      </cc:Work>
    </rdf:RDF>
  </metadata>
  <g
     inkscape:label="Calque 1"
     inkscape:groupmode="layer"
     id="layer1"
     transform="translate(0,-988.36218)">
    <path
       style="fill:#ecf0f1;fill-opacity:1;stroke:none"
       d="m 31,1003.3622 -1,3 0,1.1562 c -0.936023,0.1442 -1.828568,0.4174 -2.6875,0.75 l -0.59375,-1.0312 -2.34375,-2.0938 -1.75,1 0.65625,3.0938 0.5625,1 c -0.72954,0.5875 -1.381191,1.2392 -1.96875,1.9687 l -1,-0.5625 -3.09375,-0.6562 -1,1.75 2.09375,2.3437 1.03125,0.5938 c -0.33264,0.8589 -0.605827,1.7515 -0.75,2.6875 l -1.15625,0 -3,1 0,2 3,1 1.15625,0 c 0.144173,0.936 0.41736,1.8285 0.75,2.6875 l -1.03125,0.5937 -2.09375,2.3438 1,1.75 3.09375,-0.6563 1,-0.5625 c 0.587559,0.7296 1.23921,1.3812 1.96875,1.9688 l -0.5625,1 -0.65625,3.0937 1.75,1 2.34375,-2.0937 0.59375,-1.0313 c 0.858932,0.3327 1.751477,0.6059 2.6875,0.75 l 0,1.1563 1,3 2,0 1,-3 0,-1.1563 c 0.936023,-0.1441 1.828568,-0.4173 2.6875,-0.75 l 0.59375,1.0313 2.34375,2.0937 1.75,-1 -0.65625,-3.0937 -0.5625,-1 c 0.72954,-0.5876 1.381191,-1.2392 1.96875,-1.9688 l 1,0.5625 3.09375,0.6563 1,-1.75 -2.09375,-2.3438 -1.03125,-0.5937 c 0.33264,-0.859 0.605827,-1.7515 0.75,-2.6875 l 1.15625,0 3,-1 0,-2 -3,-1 -1.15625,0 c -0.144173,-0.936 -0.41736,-1.8286 -0.75,-2.6875 l 1.03125,-0.5938 2.09375,-2.3437 -1,-1.75 -3.09375,0.6562 -1,0.5625 c -0.587559,-0.7295 -1.23921,-1.3812 -1.96875,-1.9687 l 0.5625,-1 0.65625,-3.0938 -1.75,-1 -2.34375,2.0938 -0.59375,1.0312 c -0.858932,-0.3326 -1.751477,-0.6058 -2.6875,-0.75 l 0,-1.1562 -1,-3 -2,0 z m 2.78125,7.2812 c 0.257317,-0.036 0.545767,-0.01 0.8125,0.062 1.066932,0.2859 1.692134,1.3706 1.40625,2.4375 -0.285884,1.067 -1.370568,1.7234 -2.4375,1.4375 -1.066932,-0.2859 -1.723384,-1.4018 -1.4375,-2.4687 0.214413,-0.8002 0.884298,-1.3613 1.65625,-1.4688 z m -5.65625,0.7813 c 0.640436,0.045 1.248572,0.4021 1.59375,1 0.552285,0.9566 0.237835,2.1977 -0.71875,2.75 -0.956585,0.5523 -2.166465,0.2066 -2.71875,-0.75 -0.552285,-0.9566 -0.237835,-2.1665 0.71875,-2.7188 0.358719,-0.2071 0.740739,-0.3084 1.125,-0.2812 z m 10.5625,2.9375 c 0.773467,-0.096 1.554536,0.2825 1.96875,1 0.552285,0.9566 0.237835,2.1664 -0.71875,2.7187 -0.956585,0.5523 -2.197715,0.2379 -2.75,-0.7187 -0.552285,-0.9566 -0.206585,-2.1665 0.75,-2.7188 0.239146,-0.138 0.492178,-0.2492 0.75,-0.2812 z M 24,1016.2997 c 0.257317,-0.036 0.514517,-0.01 0.78125,0.062 1.066932,0.2859 1.723384,1.3705 1.4375,2.4375 -0.285884,1.0669 -1.401818,1.7234 -2.46875,1.4375 -1.066932,-0.2859 -1.692134,-1.4018 -1.40625,-2.4688 0.214413,-0.8002 0.884298,-1.3612 1.65625,-1.4687 z m 8,0.062 c 2.209139,0 4,1.7908 4,4 0,2.2091 -1.790861,4 -4,4 -2.209139,0 -4,-1.7909 -4,-4 0,-2.2092 1.790861,-4 4,-4 z m 7.5,4.0625 c 0.113522,-0.014 0.227677,-0.01 0.34375,0 0.132654,0.01 0.272883,0.027 0.40625,0.062 1.066932,0.2859 1.692134,1.4018 1.40625,2.4687 -0.285884,1.067 -1.370568,1.6922 -2.4375,1.4063 -1.066932,-0.2859 -1.723384,-1.3706 -1.4375,-2.4375 0.218879,-0.8169 0.924094,-1.4055 1.71875,-1.5 z m -14.6875,1.9375 c 0.773467,-0.096 1.585786,0.2825 2,1 0.552285,0.9566 0.206585,2.1664 -0.75,2.7187 -0.956585,0.5523 -2.166465,0.2379 -2.71875,-0.7187 -0.552285,-0.9566 -0.237835,-2.1665 0.71875,-2.7188 0.239146,-0.138 0.492178,-0.2492 0.75,-0.2812 z m 10.9375,2.9375 c 0.773467,-0.096 1.554536,0.2825 1.96875,1 0.552285,0.9566 0.237835,2.1664 -0.71875,2.7187 -0.956585,0.5523 -2.166465,0.2379 -2.71875,-0.7187 -0.552285,-0.9566 -0.237835,-2.1977 0.71875,-2.75 0.239146,-0.1381 0.492178,-0.218 0.75,-0.25 z m -6.03125,0.7812 c 0.113522,-0.014 0.227677,-0.01 0.34375,0 0.132654,0.01 0.241633,0.027 0.375,0.062 1.066932,0.2859 1.723384,1.4018 1.4375,2.4688 -0.285884,1.0669 -1.401818,1.6921 -2.46875,1.4062 -1.066932,-0.2859 -1.692134,-1.3705 -1.40625,-2.4375 0.218879,-0.8168 0.924094,-1.4055 1.71875,-1.5 z"
       id="path3137"
       inkscape:connector-curvature="0" />
  </g>
</svg>
