<?xml version="1.0" encoding="UTF-8" standalone="no"?>
<!-- Created with Inkscape (http://www.inkscape.org/) -->

<svg
   xmlns:dc="http://purl.org/dc/elements/1.1/"
   xmlns:cc="http://creativecommons.org/ns#"
   xmlns:rdf="http://www.w3.org/1999/02/22-rdf-syntax-ns#"
   xmlns:svg="http://www.w3.org/2000/svg"
   xmlns="http://www.w3.org/2000/svg"
   xmlns:sodipodi="http://sodipodi.sourceforge.net/DTD/sodipodi-0.dtd"
   xmlns:inkscape="http://www.inkscape.org/namespaces/inkscape"
   id="svg2"
   version="1.1"
   inkscape:version="0.91 r13725"
   width="64"
   height="64"
   sodipodi:docname="SNK - Neo Geo Pocket Color.svg">
  <metadata
     id="metadata8">
    <rdf:RDF>
      <cc:Work
         rdf:about="">
        <dc:format>image/svg+xml</dc:format>
        <dc:type
           rdf:resource="http://purl.org/dc/dcmitype/StillImage" />
        <dc:title />
      </cc:Work>
    </rdf:RDF>
  </metadata>
  <defs
     id="defs6" />
  <sodipodi:namedview
     pagecolor="#ffffff"
     bordercolor="#666666"
     borderopacity="1"
     objecttolerance="10"
     gridtolerance="10"
     guidetolerance="10"
     inkscape:pageopacity="0"
     inkscape:pageshadow="2"
     inkscape:window-width="1440"
     inkscape:window-height="836"
     id="namedview4"
     showgrid="true"
     inkscape:snap-bbox="true"
     inkscape:zoom="6.9171896"
     inkscape:cx="-20.38385"
     inkscape:cy="6.3474377"
     inkscape:window-x="0"
     inkscape:window-y="27"
     inkscape:window-maximized="0"
     inkscape:current-layer="svg2"
     showguides="true"
     inkscape:guide-bbox="true">
    <inkscape:grid
       type="xygrid"
       id="grid2987"
       empspacing="4"
       visible="true"
       enabled="true"
       snapvisiblegridlinesonly="true"
       spacingx="0.5px"
       spacingy="0.5px" />
  </sodipodi:namedview>
  <g
     inkscape:groupmode="layer"
     id="layer2"
     inkscape:label="logo"
     style="display:inline">
    <path
       style="fill:#95a5a6;fill-opacity:1;stroke:none"
       d="m 4,13.5 56,0 c 1,0 3,0.5 3,1.5 l 0,31 c 0,2 -3.012233,3.779137 -5,4 C 40,52 23.777347,51.998061 6,50 4.0094408,49.776274 1,48 1,46 L 1,15 c 0,-1 1.9999615,-1.5 3,-1.5 z"
       id="rect3009"
       inkscape:connector-curvature="0"
       sodipodi:nodetypes="sssssssss" />
    <path
       style="fill:#bdc3c7;fill-opacity:1;stroke:none"
       d="m 62,14 0,32 c 0,2 -2,3 -4,4 C 40,52 23.777347,51.998061 6,50 4.0094408,49.776274 2,48 2,46 L 2,14 c 0,-2 60,-2 60,0 z"
       id="rect3009-2"
       inkscape:connector-curvature="0"
       sodipodi:nodetypes="cscsscc" />
    <path
       style="fill:#95a5a6;fill-opacity:1;stroke:none"
       d="m 16.993902,14 30.012196,0 C 47.55672,14 48,14.446 48,15 l 0,30 c 0,1 -32,1 -32,0 l 0,-30 c 0,-0.554 0.44328,-1 0.993902,-1 z"
       id="rect3798"
       inkscape:connector-curvature="0"
       sodipodi:nodetypes="sssccss" />
    <path
       style="fill:#2c3e50;fill-opacity:1;stroke:none"
       d="m 18.993902,17 26.012196,0 C 45.55672,17 46,17.446 46,18 l 0,25 c 0,1 -28,1 -28,0 l 0,-25 c 0,-0.554 0.44328,-1 0.993902,-1 z"
       id="rect3800"
       inkscape:connector-curvature="0"
       sodipodi:nodetypes="sssccss" />
    <rect
       style="fill:#7f8c8d;fill-opacity:1;stroke:none"
       id="rect3802"
       width="24"
       height="23"
       x="20"
       y="19"
       rx="0"
       ry="0" />
    <rect
       style="fill:#2c3e50;fill-opacity:1;stroke:none"
       id="rect3805"
       width="4"
       height="2"
       x="4"
       y="19"
       rx="0.99390173"
       ry="1" />
    <rect
       style="fill:#2c3e50;fill-opacity:1;stroke:none"
       id="rect3807"
       width="2"
       height="2"
       x="11"
       y="19"
       rx="0.99390173"
       ry="1" />
    <path
       sodipodi:type="arc"
       style="fill:#2c3e50;fill-opacity:1;stroke:none"
       id="path3811"
       sodipodi:cx="52.5"
       sodipodi:cy="29.5"
       sodipodi:rx="2.5"
       sodipodi:ry="2.5"
       d="m 55,29.5 a 2.5,2.5 0 1 1 -5,0 2.5,2.5 0 1 1 5,0 z" />
    <path
       transform="translate(5,-4)"
       sodipodi:type="arc"
       style="fill:#2c3e50;fill-opacity:1;stroke:none;display:inline"
       id="path3811-9"
       sodipodi:cx="52.5"
       sodipodi:cy="29.5"
       sodipodi:rx="2.5"
       sodipodi:ry="2.5"
       d="m 55,29.5 a 2.5,2.5 0 1 1 -5,0 2.5,2.5 0 1 1 5,0 z" />
    <path
       sodipodi:type="arc"
       style="fill:#34495e;fill-opacity:1;stroke:none"
       id="path3831"
       sodipodi:cx="9.2323885"
       sodipodi:cy="29.232389"
       sodipodi:rx="5.232389"
       sodipodi:ry="5.232389"
       d="m 14.464777,29.232389 a 5.232389,5.232389 0 1 1 -10.4647775,0 5.232389,5.232389 0 1 1 10.4647775,0 z" />
    <path
       sodipodi:type="arc"
       style="fill:#2c3e50;fill-opacity:1;stroke:none"
       id="path3835"
       sodipodi:cx="9"
       sodipodi:cy="29"
       sodipodi:rx="3"
       sodipodi:ry="3"
       d="m 12,29 a 3,3 0 1 1 -6,0 3,3 0 1 1 6,0 z"
       transform="translate(-1,0)" />
    <path
       sodipodi:type="arc"
       style="fill:#2c3e50;fill-opacity:1;stroke:none"
       id="path3837"
       sodipodi:cx="58.5"
       sodipodi:cy="17.5"
       sodipodi:rx="1.5"
       sodipodi:ry="1.5"
       d="m 60,17.5 a 1.5,1.5 0 1 1 -3,0 1.5,1.5 0 1 1 3,0 z"
       transform="translate(-1,0)" />
    <path
       transform="matrix(2,0,0,2,-7,-40)"
       sodipodi:type="arc"
       style="fill:#2c3e50;fill-opacity:1;stroke:none"
       id="path3841"
       sodipodi:cx="6.75"
       sodipodi:cy="39.75"
       sodipodi:rx="0.25"
       sodipodi:ry="0.25"
       d="m 7,39.75 a 0.25,0.25 0 1 1 -0.5,0 0.25,0.25 0 1 1 0.5,0 z" />
    <path
       transform="matrix(2,0,0,2,-5.5,-40)"
       sodipodi:type="arc"
       style="fill:#2c3e50;fill-opacity:1;stroke:none;display:inline"
       id="path3841-6"
       sodipodi:cx="6.75"
       sodipodi:cy="39.75"
       sodipodi:rx="0.25"
       sodipodi:ry="0.25"
       d="m 7,39.75 a 0.25,0.25 0 1 1 -0.5,0 0.25,0.25 0 1 1 0.5,0 z" />
    <path
       transform="matrix(2,0,0,2,-2.5,-40)"
       sodipodi:type="arc"
       style="fill:#2c3e50;fill-opacity:1;stroke:none;display:inline"
       id="path3841-2"
       sodipodi:cx="6.75"
       sodipodi:cy="39.75"
       sodipodi:rx="0.25"
       sodipodi:ry="0.25"
       d="m 7,39.75 a 0.25,0.25 0 1 1 -0.5,0 0.25,0.25 0 1 1 0.5,0 z" />
    <path
       transform="matrix(2,0,0,2,-4,-40)"
       sodipodi:type="arc"
       style="fill:#2c3e50;fill-opacity:1;stroke:none;display:inline"
       id="path3841-64"
       sodipodi:cx="6.75"
       sodipodi:cy="39.75"
       sodipodi:rx="0.25"
       sodipodi:ry="0.25"
       d="m 7,39.75 a 0.25,0.25 0 1 1 -0.5,0 0.25,0.25 0 1 1 0.5,0 z" />
    <path
       transform="matrix(2,0,0,2,-1,-40)"
       sodipodi:type="arc"
       style="fill:#2c3e50;fill-opacity:1;stroke:none;display:inline"
       id="path3841-60"
       sodipodi:cx="6.75"
       sodipodi:cy="39.75"
       sodipodi:rx="0.25"
       sodipodi:ry="0.25"
       d="m 7,39.75 a 0.25,0.25 0 1 1 -0.5,0 0.25,0.25 0 1 1 0.5,0 z" />
    <path
       transform="matrix(2,0,0,2,-7,-38.5)"
       sodipodi:type="arc"
       style="fill:#2c3e50;fill-opacity:1;stroke:none;display:inline"
       id="path3841-68"
       sodipodi:cx="6.75"
       sodipodi:cy="39.75"
       sodipodi:rx="0.25"
       sodipodi:ry="0.25"
       d="m 7,39.75 a 0.25,0.25 0 1 1 -0.5,0 0.25,0.25 0 1 1 0.5,0 z" />
    <path
       transform="matrix(2,0,0,2,-5.5,-38.5)"
       sodipodi:type="arc"
       style="fill:#2c3e50;fill-opacity:1;stroke:none;display:inline"
       id="path3841-6-9"
       sodipodi:cx="6.75"
       sodipodi:cy="39.75"
       sodipodi:rx="0.25"
       sodipodi:ry="0.25"
       d="m 7,39.75 a 0.25,0.25 0 1 1 -0.5,0 0.25,0.25 0 1 1 0.5,0 z" />
    <path
       transform="matrix(2,0,0,2,-2.5,-38.5)"
       sodipodi:type="arc"
       style="fill:#2c3e50;fill-opacity:1;stroke:none;display:inline"
       id="path3841-2-9"
       sodipodi:cx="6.75"
       sodipodi:cy="39.75"
       sodipodi:rx="0.25"
       sodipodi:ry="0.25"
       d="m 7,39.75 a 0.25,0.25 0 1 1 -0.5,0 0.25,0.25 0 1 1 0.5,0 z" />
    <path
       transform="matrix(2,0,0,2,-4,-38.5)"
       sodipodi:type="arc"
       style="fill:#2c3e50;fill-opacity:1;stroke:none;display:inline"
       id="path3841-64-4"
       sodipodi:cx="6.75"
       sodipodi:cy="39.75"
       sodipodi:rx="0.25"
       sodipodi:ry="0.25"
       d="m 7,39.75 a 0.25,0.25 0 1 1 -0.5,0 0.25,0.25 0 1 1 0.5,0 z" />
    <path
       transform="matrix(2,0,0,2,-1,-38.5)"
       sodipodi:type="arc"
       style="fill:#2c3e50;fill-opacity:1;stroke:none;display:inline"
       id="path3841-60-3"
       sodipodi:cx="6.75"
       sodipodi:cy="39.75"
       sodipodi:rx="0.25"
       sodipodi:ry="0.25"
       d="m 7,39.75 a 0.25,0.25 0 1 1 -0.5,0 0.25,0.25 0 1 1 0.5,0 z" />
    <path
       transform="matrix(2,0,0,2,-7,-37)"
       sodipodi:type="arc"
       style="fill:#2c3e50;fill-opacity:1;stroke:none;display:inline"
       id="path3841-8"
       sodipodi:cx="6.75"
       sodipodi:cy="39.75"
       sodipodi:rx="0.25"
       sodipodi:ry="0.25"
       d="m 7,39.75 a 0.25,0.25 0 1 1 -0.5,0 0.25,0.25 0 1 1 0.5,0 z" />
    <path
       transform="matrix(2,0,0,2,-5.5,-37)"
       sodipodi:type="arc"
       style="fill:#2c3e50;fill-opacity:1;stroke:none;display:inline"
       id="path3841-6-0"
       sodipodi:cx="6.75"
       sodipodi:cy="39.75"
       sodipodi:rx="0.25"
       sodipodi:ry="0.25"
       d="m 7,39.75 a 0.25,0.25 0 1 1 -0.5,0 0.25,0.25 0 1 1 0.5,0 z" />
    <path
       transform="matrix(2,0,0,2,-2.5,-37)"
       sodipodi:type="arc"
       style="fill:#2c3e50;fill-opacity:1;stroke:none;display:inline"
       id="path3841-2-5"
       sodipodi:cx="6.75"
       sodipodi:cy="39.75"
       sodipodi:rx="0.25"
       sodipodi:ry="0.25"
       d="m 7,39.75 a 0.25,0.25 0 1 1 -0.5,0 0.25,0.25 0 1 1 0.5,0 z" />
    <path
       transform="matrix(2,0,0,2,-4,-37)"
       sodipodi:type="arc"
       style="fill:#2c3e50;fill-opacity:1;stroke:none;display:inline"
       id="path3841-64-6"
       sodipodi:cx="6.75"
       sodipodi:cy="39.75"
       sodipodi:rx="0.25"
       sodipodi:ry="0.25"
       d="m 7,39.75 a 0.25,0.25 0 1 1 -0.5,0 0.25,0.25 0 1 1 0.5,0 z" />
    <path
       transform="matrix(2,0,0,2,-1,-37)"
       sodipodi:type="arc"
       style="fill:#2c3e50;fill-opacity:1;stroke:none;display:inline"
       id="path3841-60-6"
       sodipodi:cx="6.75"
       sodipodi:cy="39.75"
       sodipodi:rx="0.25"
       sodipodi:ry="0.25"
       d="m 7,39.75 a 0.25,0.25 0 1 1 -0.5,0 0.25,0.25 0 1 1 0.5,0 z" />
    <path
       transform="matrix(2,0,0,2,-7,-35.5)"
       sodipodi:type="arc"
       style="fill:#2c3e50;fill-opacity:1;stroke:none;display:inline"
       id="path3841-3"
       sodipodi:cx="6.75"
       sodipodi:cy="39.75"
       sodipodi:rx="0.25"
       sodipodi:ry="0.25"
       d="m 7,39.75 a 0.25,0.25 0 1 1 -0.5,0 0.25,0.25 0 1 1 0.5,0 z" />
    <path
       transform="matrix(2,0,0,2,-5.5,-35.5)"
       sodipodi:type="arc"
       style="fill:#2c3e50;fill-opacity:1;stroke:none;display:inline"
       id="path3841-6-8"
       sodipodi:cx="6.75"
       sodipodi:cy="39.75"
       sodipodi:rx="0.25"
       sodipodi:ry="0.25"
       d="m 7,39.75 a 0.25,0.25 0 1 1 -0.5,0 0.25,0.25 0 1 1 0.5,0 z" />
    <path
       transform="matrix(2,0,0,2,-2.5,-35.5)"
       sodipodi:type="arc"
       style="fill:#2c3e50;fill-opacity:1;stroke:none;display:inline"
       id="path3841-2-99"
       sodipodi:cx="6.75"
       sodipodi:cy="39.75"
       sodipodi:rx="0.25"
       sodipodi:ry="0.25"
       d="m 7,39.75 a 0.25,0.25 0 1 1 -0.5,0 0.25,0.25 0 1 1 0.5,0 z" />
    <path
       transform="matrix(2,0,0,2,-4,-35.5)"
       sodipodi:type="arc"
       style="fill:#2c3e50;fill-opacity:1;stroke:none;display:inline"
       id="path3841-64-1"
       sodipodi:cx="6.75"
       sodipodi:cy="39.75"
       sodipodi:rx="0.25"
       sodipodi:ry="0.25"
       d="m 7,39.75 a 0.25,0.25 0 1 1 -0.5,0 0.25,0.25 0 1 1 0.5,0 z" />
    <path
       transform="matrix(2,0,0,2,-1,-35.5)"
       sodipodi:type="arc"
       style="fill:#2c3e50;fill-opacity:1;stroke:none;display:inline"
       id="path3841-60-2"
       sodipodi:cx="6.75"
       sodipodi:cy="39.75"
       sodipodi:rx="0.25"
       sodipodi:ry="0.25"
       d="m 7,39.75 a 0.25,0.25 0 1 1 -0.5,0 0.25,0.25 0 1 1 0.5,0 z" />
  </g>
</svg>
