<?xml version="1.0" encoding="UTF-8" standalone="no"?>
<!-- Created with Inkscape (http://www.inkscape.org/) -->

<svg
   xmlns:dc="http://purl.org/dc/elements/1.1/"
   xmlns:cc="http://creativecommons.org/ns#"
   xmlns:rdf="http://www.w3.org/1999/02/22-rdf-syntax-ns#"
   xmlns:svg="http://www.w3.org/2000/svg"
   xmlns="http://www.w3.org/2000/svg"
   xmlns:sodipodi="http://sodipodi.sourceforge.net/DTD/sodipodi-0.dtd"
   xmlns:inkscape="http://www.inkscape.org/namespaces/inkscape"
   width="64"
   height="64"
   id="svg3000"
   version="1.1"
   inkscape:version="0.91 r13725"
   sodipodi:docname="Sony - PlayStation-content.svg"
   inkscape:export-filename="/home/kivutar/Bureau/lakka-menu/playstation-cd.png"
   inkscape:export-xdpi="270"
   inkscape:export-ydpi="270">
  <defs
     id="defs3002" />
  <sodipodi:namedview
     id="base"
     pagecolor="#ffffff"
     bordercolor="#666666"
     borderopacity="1.0"
     inkscape:pageopacity="0.0"
     inkscape:pageshadow="2"
     inkscape:zoom="10.24"
     inkscape:cx="28.588114"
     inkscape:cy="33.040377"
     inkscape:document-units="px"
     inkscape:current-layer="svg3000"
     showgrid="true"
     inkscape:window-width="1440"
     inkscape:window-height="836"
     inkscape:window-x="0"
     inkscape:window-y="27"
     inkscape:window-maximized="1">
    <inkscape:grid
       type="xygrid"
       id="grid3010"
       empspacing="4"
       visible="true"
       enabled="true"
       snapvisiblegridlinesonly="true" />
  </sodipodi:namedview>
  <metadata
     id="metadata3005">
    <rdf:RDF>
      <cc:Work
         rdf:about="">
        <dc:format>image/svg+xml</dc:format>
        <dc:type
           rdf:resource="http://purl.org/dc/dcmitype/StillImage" />
        <dc:title />
      </cc:Work>
    </rdf:RDF>
  </metadata>
  <g
     inkscape:label="Calque 1"
     inkscape:groupmode="layer"
     id="layer1"
     transform="translate(0,-988.36218)" />
  <g
     inkscape:groupmode="layer"
     id="layer3"
     inkscape:label="logo"
     style="display:inline">
    <path
       style="fill:#2c3e50;fill-opacity:1;stroke:none"
       d="M 32,1 C 14.879173,1 1,14.879173 1,32 1,49.120827 14.879173,63 32,63 49.120827,63 63,49.120827 63,32 63,14.879173 49.120827,1 32,1 z m 0,27 c 2.209139,0 4,1.790861 4,4 0,2.209139 -1.790861,4 -4,4 -2.209139,0 -4,-1.790861 -4,-4 0,-2.209139 1.790861,-4 4,-4 z"
       id="path3012"
       inkscape:connector-curvature="0" />
    <path
       style="fill:#bdc3c7;fill-opacity:1;stroke:none"
       d="M 32,2 C 15.431458,2 2,15.431458 2,32 2,48.568542 15.431458,62 32,62 48.568542,62 62,48.568542 62,32 62,15.431458 48.568542,2 32,2 z m 0,26 c 2.209139,0 4,1.790861 4,4 0,2.209139 -1.790861,4 -4,4 -2.209139,0 -4,-1.790861 -4,-4 0,-2.209139 1.790861,-4 4,-4 z"
       id="path3981"
       inkscape:connector-curvature="0" />
    <path
       sodipodi:type="arc"
       style="fill:#db34d6;fill-opacity:1;stroke:none"
       id="path3166-2-8"
       sodipodi:cx="32"
       sodipodi:cy="32"
       sodipodi:rx="4"
       sodipodi:ry="4"
       d="m 36,32 a 4,4 0 1 1 -8,0 4,4 0 1 1 8,0 z"
       transform="translate(61,-6)" />
    <path
       style="fill:#34495e;fill-opacity:1;stroke:#2c3e50;stroke-opacity:1"
       d="m 32,20 c -6.627417,0 -12,5.372583 -12,12 0,6.627417 5.372583,12 12,12 6.627417,0 12,-5.372583 12,-12 0,-6.627417 -5.372583,-12 -12,-12 z m 0,8 c 2.209139,0 4,1.790861 4,4 0,2.209139 -1.790861,4 -4,4 -2.209139,0 -4,-1.790861 -4,-4 0,-2.209139 1.790861,-4 4,-4 z"
       id="path3958"
       inkscape:connector-curvature="0" />
    <rect
       style="fill:#3498db;fill-opacity:1;stroke:none;stroke-opacity:1"
       id="rect4002"
       width="28"
       height="4"
       x="18"
       y="13"
       ry="2" />
  </g>
</svg>
