<?xml version="1.0" encoding="UTF-8" standalone="no"?>
<!-- Created with Inkscape (http://www.inkscape.org/) -->

<svg
   xmlns:dc="http://purl.org/dc/elements/1.1/"
   xmlns:cc="http://creativecommons.org/ns#"
   xmlns:rdf="http://www.w3.org/1999/02/22-rdf-syntax-ns#"
   xmlns:svg="http://www.w3.org/2000/svg"
   xmlns="http://www.w3.org/2000/svg"
   xmlns:sodipodi="http://sodipodi.sourceforge.net/DTD/sodipodi-0.dtd"
   xmlns:inkscape="http://www.inkscape.org/namespaces/inkscape"
   id="svg3036"
   version="1.1"
   inkscape:version="0.91 r13725"
   width="64"
   height="64"
   sodipodi:docname="Sony - PlayStation.svg"
   inkscape:export-filename="/home/kivutar/Bureau/lakka-menu/ps1.png"
   inkscape:export-xdpi="270"
   inkscape:export-ydpi="270">
  <metadata
     id="metadata3042">
    <rdf:RDF>
      <cc:Work
         rdf:about="">
        <dc:format>image/svg+xml</dc:format>
        <dc:type
           rdf:resource="http://purl.org/dc/dcmitype/StillImage" />
        <dc:title />
      </cc:Work>
    </rdf:RDF>
  </metadata>
  <defs
     id="defs3040" />
  <sodipodi:namedview
     pagecolor="#ffffff"
     bordercolor="#666666"
     borderopacity="1"
     objecttolerance="10"
     gridtolerance="10"
     guidetolerance="10"
     inkscape:pageopacity="0"
     inkscape:pageshadow="2"
     inkscape:window-width="1440"
     inkscape:window-height="836"
     id="namedview3038"
     showgrid="true"
     inkscape:zoom="11.313709"
     inkscape:cx="2.7515047"
     inkscape:cy="33.669121"
     inkscape:window-x="0"
     inkscape:window-y="27"
     inkscape:window-maximized="1"
     inkscape:current-layer="svg3036"
     inkscape:snap-nodes="true"
     inkscape:snap-global="true">
    <inkscape:grid
       type="xygrid"
       id="grid3046"
       empspacing="4"
       visible="true"
       enabled="true"
       snapvisiblegridlinesonly="true"
       spacingx="1px"
       spacingy="1px" />
  </sodipodi:namedview>
  <g
     inkscape:groupmode="layer"
     id="layer2"
     inkscape:label="logo"
     style="display:inline">
    <path
       sodipodi:type="arc"
       style="fill:#bdc3c7;fill-opacity:1;fill-rule:evenodd;stroke:none;display:inline"
       id="path3068-1-9"
       sodipodi:cx="15"
       sodipodi:cy="25.5"
       sodipodi:rx="9"
       sodipodi:ry="9.5"
       d="m 24,25.5 a 9,9.5 0 1 1 -18,0 9,9.5 0 1 1 18,0 z"
       transform="matrix(1.1666667,0,0,1.1052632,32,1.315788)" />
    <path
       sodipodi:type="arc"
       style="fill:#bdc3c7;fill-opacity:1;fill-rule:evenodd;stroke:none;display:inline"
       id="path3068-1"
       sodipodi:cx="15"
       sodipodi:cy="25.5"
       sodipodi:rx="9"
       sodipodi:ry="9.5"
       d="m 24,25.5 a 9,9.5 0 1 1 -18,0 9,9.5 0 1 1 18,0 z"
       transform="matrix(1.1666667,0,0,1.1052632,-3,1.3157906)" />
    <path
       style="fill:#bdc3c7;fill-opacity:1;stroke:none;display:inline"
       d="M 21.284848,23.635608 43,23.635608 43,37 l -21.715152,0 0,-13.364392"
       id="path3939-1"
       inkscape:connector-curvature="0" />
    <path
       transform="matrix(0.8460039,0,0,0.79501389,-4.0760234,27.174515)"
       sodipodi:type="arc"
       style="fill:#bdc3c7;fill-opacity:1;fill-rule:evenodd;stroke:none"
       id="path3068-5"
       sodipodi:cx="15"
       sodipodi:cy="25.5"
       sodipodi:rx="9"
       sodipodi:ry="9.5"
       d="m 24,25.5 a 9,9.5 0 1 1 -18,0 9,9.5 0 1 1 18,0 z" />
    <path
       style="fill:#bdc3c7;fill-opacity:1;stroke:none"
       d="m 26.017544,24.789473 -23.9298247,0 L 1,47.447369 16,49 26.017544,24.789473"
       id="path3911"
       inkscape:connector-curvature="0"
       sodipodi:nodetypes="ccccc" />
    <path
       transform="matrix(-0.8460039,0,0,0.79501389,68.076024,27.174514)"
       sodipodi:type="arc"
       style="fill:#bdc3c7;fill-opacity:1;fill-rule:evenodd;stroke:none;display:inline"
       id="path3068-5-0"
       sodipodi:cx="15"
       sodipodi:cy="25.5"
       sodipodi:rx="9"
       sodipodi:ry="9.5"
       d="m 24,25.5 a 9,9.5 0 1 1 -18,0 9,9.5 0 1 1 18,0 z" />
    <path
       style="fill:#bdc3c7;fill-opacity:1;stroke:none;display:inline"
       d="m 37.982456,24.789473 23.929825,0 L 63,47.447368 48,49 37.982456,24.789473"
       id="path3911-6"
       inkscape:connector-curvature="0"
       sodipodi:nodetypes="ccccc" />
    <path
       style="fill:#ecf0f1;fill-opacity:1;stroke:none"
       d="m 21.667,19 20.666666,0 0,15 -20.666666,0 0,-15"
       id="path3939"
       inkscape:connector-curvature="0" />
    <path
       style="fill:#bdc3c7;fill-opacity:1;stroke:none;display:inline"
       d="M 20,16 8,16 9,12 c 3.228349,-1.166097 6.542295,-1.357726 10,0 l 1,4"
       id="path4011"
       inkscape:connector-curvature="0"
       sodipodi:nodetypes="ccccc" />
    <path
       style="fill:#bdc3c7;fill-opacity:1;stroke:none;display:inline"
       d="m 56,16 -12,0 1,-4 c 3.228349,-1.166097 6.542295,-1.357726 10,0 l 1,4"
       id="path4011-8"
       inkscape:connector-curvature="0"
       sodipodi:nodetypes="ccccc" />
    <path
       sodipodi:type="arc"
       style="fill:#ecf0f1;fill-opacity:1;fill-rule:evenodd;stroke:none"
       id="path3068"
       sodipodi:cx="15"
       sodipodi:cy="25.5"
       sodipodi:rx="9"
       sodipodi:ry="9.5"
       d="m 24,25.5 a 9,9.5 0 1 1 -18,0 9,9.5 0 1 1 18,0 z"
       transform="matrix(1.3294347,0,0,1.2493076,-5.8888883,-5.9889217)" />
    <g
       id="g4090"
       transform="translate(0,-3)" />
    <rect
       style="fill:#2c3e50;fill-opacity:1;fill-rule:nonzero;stroke:none"
       id="rect4052-8-9"
       width="4"
       height="4.6872072"
       x="12"
       y="19"
       ry="0.84712136" />
    <rect
       style="fill:#2c3e50;fill-opacity:1;fill-rule:nonzero;stroke:none;display:inline"
       id="rect4052-3-1-0"
       width="3.3124604"
       height="3.3124604"
       x="24.506723"
       y="4.7077317"
       ry="0.82811511"
       transform="matrix(0.70710679,0.70710677,-0.70710679,0.70710677,0,0)" />
    <rect
       style="fill:#2c3e50;fill-opacity:1;fill-rule:nonzero;stroke:none;display:inline"
       id="rect4052-8-9-6"
       width="4"
       height="4.6872072"
       x="12"
       y="-33"
       ry="0.84712136"
       transform="scale(1,-1)" />
    <rect
       style="fill:#2c3e50;fill-opacity:1;fill-rule:nonzero;stroke:none;display:inline"
       id="rect4052-3-1-0-7"
       width="3.3124604"
       height="3.3124604"
       x="-12.262831"
       y="-32.061821"
       ry="0.82811511"
       transform="matrix(0.70710679,-0.70710677,-0.70710679,-0.70710677,0,0)" />
    <rect
       style="fill:#2c3e50;fill-opacity:1;fill-rule:nonzero;stroke:none;display:inline"
       id="rect4052-8-9-6-6"
       width="4"
       height="4.6872072"
       x="24"
       y="7"
       ry="0.84712136"
       transform="matrix(0,1,1,0,0,0)" />
    <rect
       style="fill:#2c3e50;fill-opacity:1;fill-rule:nonzero;stroke:none;display:inline"
       id="rect4052-3-1-0-7-3"
       width="3.3124604"
       height="3.3124604"
       x="24.506721"
       y="-12.262832"
       ry="0.82811511"
       transform="matrix(0.70710677,0.70710679,0.70710677,-0.70710679,0,0)" />
    <rect
       style="fill:#2c3e50;fill-opacity:1;fill-rule:nonzero;stroke:none;display:inline"
       id="rect4052-8-9-6-6-0"
       width="4"
       height="4.6872072"
       x="24"
       y="-21"
       ry="0.84712136"
       transform="matrix(0,1,-1,0,0,0)" />
    <rect
       style="fill:#2c3e50;fill-opacity:1;fill-rule:nonzero;stroke:none;display:inline"
       id="rect4052-3-1-0-7-3-1"
       width="3.3124604"
       height="3.3124604"
       x="4.7077303"
       y="-32.061821"
       ry="0.82811511"
       transform="matrix(-0.70710677,0.70710679,-0.70710677,-0.70710679,0,0)" />
    <path
       sodipodi:type="arc"
       style="fill:#ecf0f1;fill-opacity:1;fill-rule:evenodd;stroke:none;display:inline"
       id="path3068-7"
       sodipodi:cx="15"
       sodipodi:cy="25.5"
       sodipodi:rx="9"
       sodipodi:ry="9.5"
       d="m 24,25.5 a 9,9.5 0 1 1 -18,0 9,9.5 0 1 1 18,0 z"
       transform="matrix(-1.3294347,0,0,1.2493076,69.888888,-5.988923)" />
    <path
       sodipodi:type="arc"
       style="fill:#2c3e50;fill-opacity:1;fill-rule:evenodd;stroke:none"
       id="path4269"
       sodipodi:cx="50"
       sodipodi:cy="18"
       sodipodi:rx="2"
       sodipodi:ry="2"
       d="m 52,18 a 2,2 0 1 1 -4,0 2,2 0 1 1 4,0 z"
       transform="matrix(1.5,0,0,1.5,-25,-7)" />
    <path
       sodipodi:type="arc"
       style="fill:#2c3e50;fill-opacity:1;fill-rule:evenodd;stroke:none;display:inline"
       id="path4269-9"
       sodipodi:cx="50"
       sodipodi:cy="18"
       sodipodi:rx="2"
       sodipodi:ry="2"
       d="m 52,18 a 2,2 0 1 1 -4,0 2,2 0 1 1 4,0 z"
       transform="matrix(1.5,0,0,1.5,-19,-1)" />
    <path
       sodipodi:type="arc"
       style="fill:#2c3e50;fill-opacity:1;fill-rule:evenodd;stroke:none;display:inline"
       id="path4269-7"
       sodipodi:cx="50"
       sodipodi:cy="18"
       sodipodi:rx="2"
       sodipodi:ry="2"
       d="m 52,18 a 2,2 0 1 1 -4,0 2,2 0 1 1 4,0 z"
       transform="matrix(1.5,0,0,1.5,-25,5)" />
    <path
       sodipodi:type="arc"
       style="fill:#2c3e50;fill-opacity:1;fill-rule:evenodd;stroke:none;display:inline"
       id="path4269-2"
       sodipodi:cx="50"
       sodipodi:cy="18"
       sodipodi:rx="2"
       sodipodi:ry="2"
       d="m 52,18 a 2,2 0 1 1 -4,0 2,2 0 1 1 4,0 z"
       transform="matrix(1.5,0,0,1.5,-31,-1)" />
    <rect
       style="fill:#2c3e50;fill-opacity:1;fill-rule:nonzero;stroke:none"
       id="rect4303"
       width="4"
       height="2"
       x="27"
       y="28"
       ry="0.5" />
    <path
       sodipodi:type="arc"
       style="fill:none;stroke:#e74c3c;stroke-opacity:1;display:inline"
       id="path4269-9-1"
       sodipodi:cx="50"
       sodipodi:cy="18"
       sodipodi:rx="2"
       sodipodi:ry="2"
       d="m 52,18 a 2,2 0 1 1 -4,0 2,2 0 1 1 4,0 z"
       transform="translate(6,8)" />
    <rect
       style="fill:#b6599a;fill-opacity:1;stroke:none"
       id="rect4364"
       width="4"
       height="4"
       x="42"
       y="24"
       ry="1"
       rx="1" />
    <rect
       style="fill:#2c3e50;fill-opacity:1;stroke:none;display:inline"
       id="rect4364-1"
       width="2"
       height="2"
       x="43"
       y="25"
       ry="0" />
    <path
       sodipodi:type="star"
       style="fill:#1abc9c;fill-opacity:1;fill-rule:nonzero;stroke:none"
       id="path4384"
       sodipodi:sides="3"
       sodipodi:cx="49"
       sodipodi:cy="18"
       sodipodi:r1="2.742399"
       sodipodi:r2="1.3711995"
       sodipodi:arg1="1.0587173"
       sodipodi:arg2="2.1059148"
       inkscape:flatsided="true"
       inkscape:rounded="0.28"
       inkscape:randomized="0"
       d="m 50.34375,20.390625 c -1.159392,0.651684 -4.101288,-1.092311 -4.085967,-2.422216 0.01532,-1.329905 2.996613,-3.005664 4.140684,-2.327443 1.144071,0.67822 1.104674,4.097975 -0.05472,4.749659 z"
       inkscape:transform-center-x="-0.010121165"
       inkscape:transform-center-y="-0.20353733"
       transform="matrix(0.6746499,-0.42183101,0.4160826,0.68397056,9.4425473,28.561676)" />
    <path
       sodipodi:type="star"
       style="fill:#2c3e50;fill-opacity:1;fill-rule:nonzero;stroke:none;display:inline"
       id="path4384-1"
       sodipodi:sides="3"
       sodipodi:cx="49"
       sodipodi:cy="18"
       sodipodi:r1="2.742399"
       sodipodi:r2="1.3711995"
       sodipodi:arg1="1.0587173"
       sodipodi:arg2="2.1059148"
       inkscape:flatsided="true"
       inkscape:rounded="0.28"
       inkscape:randomized="0"
       d="m 50.34375,20.390625 c -1.159392,0.651684 -4.101288,-1.092311 -4.085967,-2.422216 0.01532,-1.329905 2.996613,-3.005664 4.140684,-2.327443 1.144071,0.67822 1.104674,4.097975 -0.05472,4.749659 z"
       inkscape:transform-center-x="-0.0050605471"
       inkscape:transform-center-y="-0.10176958"
       transform="matrix(0.33732495,-0.2109155,0.20804129,0.34198528,29.721274,24.280893)" />
    <rect
       style="fill:#3498db;fill-opacity:1;fill-rule:nonzero;stroke:none"
       id="rect4404"
       width="1.0459925"
       height="5.2299623"
       x="57.459759"
       y="-15.342903"
       ry="0.53640646"
       transform="matrix(0.70710677,0.70710679,-0.70710677,0.70710679,0,0)" />
    <rect
       style="fill:#3498db;fill-opacity:1;fill-rule:nonzero;stroke:none;display:inline"
       id="rect4404-1"
       width="1.0459925"
       height="5.2299623"
       x="-13.250918"
       y="55.367775"
       ry="0.53640646"
       transform="matrix(-0.70710677,0.70710679,0.70710677,0.70710679,0,0)" />
    <path
       style="fill:#2c3e50;fill-opacity:1;stroke:#2c3e50;stroke-width:1.12310565px;stroke-linecap:butt;stroke-linejoin:round;stroke-opacity:1"
       d="m 33.561553,29.438447 0,-0.876895 2.876895,0.431597 -2.876895,0.445298"
       id="path4435"
       inkscape:connector-curvature="0" />
  </g>
</svg>
