<?xml version="1.0" encoding="UTF-8" standalone="no"?>
<!-- Created with Inkscape (http://www.inkscape.org/) -->

<svg
   xmlns:dc="http://purl.org/dc/elements/1.1/"
   xmlns:cc="http://creativecommons.org/ns#"
   xmlns:rdf="http://www.w3.org/1999/02/22-rdf-syntax-ns#"
   xmlns:svg="http://www.w3.org/2000/svg"
   xmlns="http://www.w3.org/2000/svg"
   xmlns:sodipodi="http://sodipodi.sourceforge.net/DTD/sodipodi-0.dtd"
   xmlns:inkscape="http://www.inkscape.org/namespaces/inkscape"
   width="64"
   height="64"
   id="svg3833"
   version="1.1"
   inkscape:version="0.48.4 r9939"
   sodipodi:docname="Nouveau document 5">
  <defs
     id="defs3835" />
  <sodipodi:namedview
     id="base"
     pagecolor="#ffffff"
     bordercolor="#666666"
     borderopacity="1.0"
     inkscape:pageopacity="0.0"
     inkscape:pageshadow="2"
     inkscape:zoom="2.8"
     inkscape:cx="-69.649671"
     inkscape:cy="62.109498"
     inkscape:document-units="px"
     inkscape:current-layer="layer1"
     showgrid="true"
     inkscape:snap-bbox="true"
     showguides="true"
     inkscape:guide-bbox="true"
     inkscape:window-width="1440"
     inkscape:window-height="838"
     inkscape:window-x="0"
     inkscape:window-y="27"
     inkscape:window-maximized="1">
    <inkscape:grid
       type="xygrid"
       id="grid3841"
       empspacing="4"
       visible="true"
       enabled="true"
       snapvisiblegridlinesonly="true"
       spacingx="0.5px"
       spacingy="0.5px" />
  </sodipodi:namedview>
  <metadata
     id="metadata3838">
    <rdf:RDF>
      <cc:Work
         rdf:about="">
        <dc:format>image/svg+xml</dc:format>
        <dc:type
           rdf:resource="http://purl.org/dc/dcmitype/StillImage" />
        <dc:title></dc:title>
      </cc:Work>
    </rdf:RDF>
  </metadata>
  <g
     inkscape:label="Calque 1"
     inkscape:groupmode="layer"
     id="layer1"
     transform="translate(0,-988.36218)">
    <path
       style="fill:#ecf0f1;fill-opacity:1;stroke:none"
       d="m 42.938027,1009.1611 -2.916816,0.7955 c -0.965908,0.2588 0.07265,4.1258 1.038563,3.867 l 2.916816,-0.7955 c -1.775854,3.8422 -4.056371,4.2205 -5.281169,3.5134 -0.09941,-0.057 -0.193034,-0.1336 -0.286908,-0.1992 -0.701358,-0.2227 -1.390455,-0.3773 -1.811961,0.044 l -9.081938,9.0819 c 0.443287,1.2352 0.171968,2.6565 -0.817557,3.646 -1.366838,1.3668 -3.582912,1.3668 -4.949748,0 -1.366835,-1.3669 -1.366837,-3.5829 0,-4.9498 0.989525,-0.9895 2.410737,-1.2608 3.645984,-0.8175 l 9.081938,-9.082 c 1.388899,-1.3889 1.087651,-2.4392 1.745635,-4.4856 0.102235,-0.3428 0.22101,-0.6662 0.397783,-0.9723 0.70716,-1.2248 3.611388,-2.0266 6.319731,0.3536 z m -17.434567,16.1971 c -0.322935,-0.3229 -0.676981,-0.6147 -0.773574,-0.6406 -0.193185,-0.052 -1.78099,0.3668 -1.922412,0.5082 -0.141421,0.1414 -0.560032,1.7293 -0.508268,1.9225 0.05176,0.1932 1.221029,1.3624 1.414214,1.4142 0.193185,0.052 1.78106,-0.3669 1.922482,-0.5083 0.141421,-0.1414 0.559961,-1.7292 0.508197,-1.9224 -0.02588,-0.097 -0.317704,-0.4506 -0.640639,-0.7736 z"
       id="rect4399"
       inkscape:connector-curvature="0" />
  </g>
</svg>
