<svg id="png_3DO.png_src_3DO.svg" data-name="png/3DO.png, src/3DO.svg" xmlns="http://www.w3.org/2000/svg" width="248" height="112" viewBox="0 0 248 112">
  <defs>
    <style>
      .cls-1, .cls-3 {
        fill: #33485f;
      }

      .cls-1, .cls-2, .cls-7 {
        fill-rule: evenodd;
      }

      .cls-2 {
        fill: #2b3d51;
      }

      .cls-4 {
        fill: #bdc3c8;
      }

      .cls-5 {
        fill: #2b3e51;
      }

      .cls-6 {
        fill: #bdc3c7;
      }

      .cls-7 {
        fill: #7f8c8d;
      }

      .cls-8 {
        fill: #94a5a6;
      }
    </style>
  </defs>
  <g id="Shoulder_pads" data-name="Shoulder pads">
    <path id="L_shoulder_pad" data-name="L shoulder pad" class="cls-1" d="M85,76c-0.234-2.308-.8-3.635-5-4-4.963-.432-35.322,7.539-37,8s-2,8-2,8S69.643,86.754,85,76Z" transform="translate(-4 -72)"/>
    <path id="R_shoulder_pad" data-name="R shoulder pad" class="cls-1" d="M171,76c0.234-2.308.8-3.635,5-4,4.963-.432,35.322,7.539,37,8s2,8,2,8S186.357,86.754,171,76Z" transform="translate(-4 -72)"/>
  </g>
  <path id="bg" class="cls-2" d="M128,72c51.1,0,124,13.064,124,64,0,32.478-29.464,48-48,48-27.938,0-40.756-16-76-16m0-96C76.9,72,4,85.064,4,136c0,32.478,29.464,48,48,48,27.938,0,40.756-16,76-16" transform="translate(-4 -72)"/>
  <g id="Right_components" data-name="Right components">
    <circle id="Raised_circle" data-name="Raised circle" class="cls-3" cx="199.5" cy="64.5" r="42.5"/>
    <circle id="BTN" class="cls-4" cx="178" cy="76" r="10"/>
    <circle id="BTN-2" data-name="BTN" class="cls-4" cx="194" cy="56" r="10"/>
    <circle id="BTN-3" data-name="BTN" class="cls-4" cx="218" cy="48" r="10"/>
  </g>
  <g id="Left_components" data-name="Left components">
    <circle id="Raised_circle-2" data-name="Raised circle" class="cls-3" cx="47.5" cy="64.5" r="42.5"/>
    <circle id="Pad_bevel" data-name="Pad bevel" class="cls-5" cx="54" cy="61" r="31"/>
    <circle id="Pad_area" data-name="Pad area" class="cls-6" cx="54" cy="61" r="23"/>
    <path id="Directional_pad" data-name="Directional pad" class="cls-7" d="M56.008,112h3.984a4,4,0,0,1,4,4v34a4,4,0,0,1-4,4H56.008a4,4,0,0,1-4-4V116A4,4,0,0,1,56.008,112ZM79,130v6a3,3,0,0,1-3,3H40a3,3,0,0,1-3-3v-6a3,3,0,0,1,3-3H76A3,3,0,0,1,79,130Z" transform="translate(-4 -72)"/>
  </g>
  <rect id="Center_btn" data-name="Center btn" class="cls-8" x="102" y="62" width="12" height="4" rx="2" ry="2"/>
  <rect id="Center_btn-2" data-name="Center btn" class="cls-8" x="134" y="62" width="12" height="4" rx="2" ry="2"/>
</svg>
